<svg id="Layer_1" data-name="Layer 1" xmlns="http://www.w3.org/2000/svg" xmlns:xlink="http://www.w3.org/1999/xlink" viewBox="0 0 182.64 417.9"><defs><style>.cls-1{fill:#e4e1c7;}.cls-2{fill:#512e2a;}.cls-3,.cls-4{fill:#9e2b20;}.cls-13,.cls-21,.cls-4,.cls-6{stroke:#231f20;}.cls-13,.cls-14,.cls-15,.cls-16,.cls-19,.cls-20,.cls-21,.cls-30,.cls-4,.cls-6,.cls-8{stroke-miterlimit:10;}.cls-5{fill:#231f20;}.cls-15,.cls-6,.cls-8{fill:none;}.cls-21,.cls-6{stroke-width:0.25px;}.cls-7{fill:#c2b59b;}.cls-8{stroke:#9b8579;}.cls-9{fill:#1e4496;}.cls-10,.cls-16{fill:#234093;}.cls-11{fill:#124b9a;}.cls-12{fill:#d1d3d4;}.cls-13,.cls-14,.cls-18,.cls-19,.cls-20,.cls-21{fill:#fff;}.cls-14{stroke:#f9a560;}.cls-15{stroke:#283c91;}.cls-16{stroke:#262262;stroke-width:0.5px;}.cls-17{fill:#fff200;}.cls-19{stroke:url(#White_Black);}.cls-20{stroke:url(#White_Black-2);}.cls-22{fill:#fde79e;}.cls-23{fill:#fbeac8;}.cls-24{fill:#e5e1c5;}.cls-25{fill:#f9c9de;}.cls-26{fill:#8d536f;}.cls-27{fill:#e3e2db;}.cls-28{fill:#d0cca8;}.cls-29{fill:url(#White_Black-3);}.cls-30{fill:#2e3192;stroke:#00aeef;}.cls-31{fill:#b1a58e;}.cls-32{fill:#9b8579;}.cls-33{fill:#cfcdb4;}</style><linearGradient id="White_Black" x1="264.24" y1="113.37" x2="285" y2="113.37" gradientTransform="matrix(1, 0, 0, -1, -25.75, 226.75)" gradientUnits="userSpaceOnUse"><stop offset="0" stop-color="#fff"/><stop offset="1" stop-color="#231f20"/></linearGradient><linearGradient id="White_Black-2" x1="238.49" y1="113.37" x2="259.25" y2="113.37" gradientTransform="matrix(1, 0, 0, -1, 25.75, 226.75)" xlink:href="#White_Black"/><linearGradient id="White_Black-3" x1="264.58" y1="112.51" x2="258.95" y2="112.51" gradientTransform="matrix(1, 0, 0, 1, 0, 0)" xlink:href="#White_Black"/></defs><title>1</title><polyline class="cls-1" points="113.43 334.96 106.82 400.24 99.39 399.87 98.64 334.22"/><polyline class="cls-1" points="67.33 334.96 73.93 400.24 81.37 399.87 82.12 334.22"/><path class="cls-2" d="M230.77,475.18s-20.25,10.71-7.52,12.21l12.73,1.5h16.19s6.73-4.74,6.73-11.59" transform="translate(-169.32 -70.99)"/><path class="cls-2" d="M286.2,475.18s20.24,10.71,7.52,12.21L281,488.89H264.8s-5.9-4.74-5.9-11.59" transform="translate(-169.32 -70.99)"/><path class="cls-3" d="M244.2,470.46s-33.1,10.7-20.38,12.2l12.73,1.49h16.19s6.16,0,6.16-6.85l-7.23-6.23h-.53" transform="translate(-169.32 -70.99)"/><path class="cls-3" d="M266.6,470.13l-7.39,7.17c0,6.85,6.16,6.85,6.16,6.85h16.19l12.73-1.49c12.73-1.5-18.15-12.21-18.15-12.21" transform="translate(-169.32 -70.99)"/><path class="cls-4" d="M259.31,477" transform="translate(-169.32 -70.99)"/><path class="cls-5" d="M270.57,414.52v2.22a3.22,3.22,0,0,1,0,.62,3.21,3.21,0,0,0,0-.62v-2.22a2.57,2.57,0,0,1,0-.62,2.57,2.57,0,0,0,0,.62Z" transform="translate(-169.32 -70.99)"/><path class="cls-5" d="M275.4,418.15v1.21a3.22,3.22,0,0,1,0,.62,3.2,3.2,0,0,0,0-.62v-1.21a3.22,3.22,0,0,1,0-.62,3.2,3.2,0,0,0,0,.62Z" transform="translate(-169.32 -70.99)"/><path class="cls-5" d="M277,422v1.21a2.57,2.57,0,0,1,0,.62,2.57,2.57,0,0,0,0-.62V422a3.33,3.33,0,0,1,0-.63,3.32,3.32,0,0,0,0,.63Z" transform="translate(-169.32 -70.99)"/><path class="cls-5" d="M280,421.78v.2a3.22,3.22,0,0,1,0,.62,3.21,3.21,0,0,0,0-.62v-.2a2.66,2.66,0,0,1,0-.63,2.66,2.66,0,0,0,0,.63Z" transform="translate(-169.32 -70.99)"/><path class="cls-5" d="M274,429.86s0-1.25,0-1.25,0,1.25,0,1.25Z" transform="translate(-169.32 -70.99)"/><path class="cls-5" d="M271.38,422v1.41a3.21,3.21,0,0,1,0,.62,3.21,3.21,0,0,0,0-.62V422a3.33,3.33,0,0,1,0-.63,3.32,3.32,0,0,0,0,.63Z" transform="translate(-169.32 -70.99)"/><path class="cls-5" d="M271.58,431v1.62a2.57,2.57,0,0,1,0,.62,2.57,2.57,0,0,0,0-.62V431a3.21,3.21,0,0,1,0-.62,3.21,3.21,0,0,0,0,.62Z" transform="translate(-169.32 -70.99)"/><path class="cls-5" d="M277.82,434.07v.6a3.33,3.33,0,0,1,0,.63,3.32,3.32,0,0,0,0-.63v-.6a3.33,3.33,0,0,1,0-.63,3.32,3.32,0,0,0,0,.63Z" transform="translate(-169.32 -70.99)"/><path class="cls-5" d="M275.81,436.28v1.62a2.57,2.57,0,0,1,0,.62,2.57,2.57,0,0,0,0-.62v-1.62a3.21,3.21,0,0,1,0-.62,3.21,3.21,0,0,0,0,.62Z" transform="translate(-169.32 -70.99)"/><path class="cls-5" d="M273.19,437.29v1a2.57,2.57,0,0,1,0,.62,2.57,2.57,0,0,0,0-.62v-1a3.22,3.22,0,0,1,0-.62,3.21,3.21,0,0,0,0,.62Z" transform="translate(-169.32 -70.99)"/><path class="cls-5" d="M271.17,437.49v.2a3.33,3.33,0,0,1,0,.63,3.32,3.32,0,0,0,0-.63v-.2a3.22,3.22,0,0,1,0-.62,3.21,3.21,0,0,0,0,.62Z" transform="translate(-169.32 -70.99)"/><path class="cls-5" d="M270.77,441.72v1a3.32,3.32,0,0,1,0,.63,3.31,3.31,0,0,0,0-.63v-1a2.57,2.57,0,0,1,0-.62,2.57,2.57,0,0,0,0,.62Z" transform="translate(-169.32 -70.99)"/><path class="cls-5" d="M276.82,443.34v.6a3.21,3.21,0,0,1,0,.62,3.2,3.2,0,0,0,0-.62v-.6a3.33,3.33,0,0,1,0-.63,3.32,3.32,0,0,0,0,.63Z" transform="translate(-169.32 -70.99)"/><path class="cls-5" d="M274.8,446v.21a3.21,3.21,0,0,1,0,.62,3.21,3.21,0,0,0,0-.62V446a2.57,2.57,0,0,1,0-.62,2.57,2.57,0,0,0,0,.62Z" transform="translate(-169.32 -70.99)"/><path class="cls-5" d="M272,449v1.21a3.21,3.21,0,0,1,0,.62,3.21,3.21,0,0,0,0-.62V449a2.66,2.66,0,0,1,0-.63,2.66,2.66,0,0,0,0,.63Z" transform="translate(-169.32 -70.99)"/><path class="cls-5" d="M276,451.6v.2a3.22,3.22,0,0,1,0,.62,3.21,3.21,0,0,0,0-.62v-.2a2.66,2.66,0,0,1,0-.63,2.66,2.66,0,0,0,0,.63Z" transform="translate(-169.32 -70.99)"/><path class="cls-5" d="M272.59,454.24s0-1.25,0-1.25,0,1.25,0,1.25Z" transform="translate(-169.32 -70.99)"/><path class="cls-5" d="M279.64,412.71v.81a3.21,3.21,0,0,1,0,.62,2.57,2.57,0,0,0,0-.62v-.81a3.22,3.22,0,0,1,0-.62,3.21,3.21,0,0,0,0,.62Z" transform="translate(-169.32 -70.99)"/><path class="cls-5" d="M272,411.1s0-1.25,0-1.25,0,1.25,0,1.25Z" transform="translate(-169.32 -70.99)"/><path class="cls-5" d="M276,409.9v-1.25s0,1.25,0,1.25Z" transform="translate(-169.32 -70.99)"/><path class="cls-5" d="M275.61,410.7v.6a3.21,3.21,0,0,1,0,.62,2.56,2.56,0,0,0,0-.62v-.6a3.33,3.33,0,0,1,0-.63,3.32,3.32,0,0,0,0,.63Z" transform="translate(-169.32 -70.99)"/><path class="cls-5" d="M280.64,408.88v1a3.22,3.22,0,0,1,0,.62,3.2,3.2,0,0,0,0-.62v-1a3.22,3.22,0,0,1,0-.62,3.21,3.21,0,0,0,0,.62Z" transform="translate(-169.32 -70.99)"/><path class="cls-5" d="M244.38,409.27v.4a3.31,3.31,0,0,1,0,.63,2.66,2.66,0,0,0,0-.63v-.4a3.22,3.22,0,0,1,0-.62,3.21,3.21,0,0,0,0,.62Z" transform="translate(-169.32 -70.99)"/><path class="cls-5" d="M248.82,409.31v-1.25s0,1.25,0,1.25Z" transform="translate(-169.32 -70.99)"/><path class="cls-6" d="M281.56,414a2,2,0,0,0,.64,2.18" transform="translate(-169.32 -70.99)"/><path class="cls-6" d="M281.53,411.07a2,2,0,0,1,.7,1.62" transform="translate(-169.32 -70.99)"/><path class="cls-6" d="M277,411.75a1.07,1.07,0,0,1-.55,1.22" transform="translate(-169.32 -70.99)"/><path class="cls-6" d="M271.39,411.94v1.5" transform="translate(-169.32 -70.99)"/><path class="cls-6" d="M268.77,411.19a2.15,2.15,0,0,1-.82,1.44" transform="translate(-169.32 -70.99)"/><path class="cls-6" d="M267.94,409.13a2.32,2.32,0,0,1-.5,1.48" transform="translate(-169.32 -70.99)"/><path class="cls-6" d="M268.58,414.84a3.35,3.35,0,0,0-.86,1.78" transform="translate(-169.32 -70.99)"/><path class="cls-6" d="M269.44,420a2.06,2.06,0,0,1-.49,1.12" transform="translate(-169.32 -70.99)"/><path class="cls-6" d="M272.49,416.26a1.31,1.31,0,0,1-.23,1.23" transform="translate(-169.32 -70.99)"/><path class="cls-6" d="M275.91,415.75a6.64,6.64,0,0,1,1.1.88" transform="translate(-169.32 -70.99)"/><path class="cls-6" d="M278.6,420.28l.48.65" transform="translate(-169.32 -70.99)"/><path class="cls-6" d="M274.48,420v.93" transform="translate(-169.32 -70.99)"/><path class="cls-6" d="M280.6,422.7a1.34,1.34,0,0,1,.24,1.13" transform="translate(-169.32 -70.99)"/><path class="cls-6" d="M279.72,426.09l.86,1.3" transform="translate(-169.32 -70.99)"/><path class="cls-6" d="M273,424.86a2.8,2.8,0,0,1-.91,1.34" transform="translate(-169.32 -70.99)"/><path class="cls-6" d="M269.52,425a1.92,1.92,0,0,1-1,1.71" transform="translate(-169.32 -70.99)"/><path class="cls-6" d="M269.24,431.15a1.72,1.72,0,0,1-.38,1.11" transform="translate(-169.32 -70.99)"/><path class="cls-6" d="M274.86,429.46v1" transform="translate(-169.32 -70.99)"/><path class="cls-6" d="M276.45,429.28a1,1,0,0,1,.75.46" transform="translate(-169.32 -70.99)"/><path class="cls-6" d="M280.1,430.78l.84.47" transform="translate(-169.32 -70.99)"/><path class="cls-6" d="M279.48,432.75a2.32,2.32,0,0,0,.61,2.25" transform="translate(-169.32 -70.99)"/><path class="cls-6" d="M268.61,434.85a2.07,2.07,0,0,1-1.06.27" transform="translate(-169.32 -70.99)"/><path class="cls-5" d="M248.69,415.35v2.21a3.33,3.33,0,0,1,0,.63,3.32,3.32,0,0,0,0-.63v-2.21a3.33,3.33,0,0,1,0-.63,3.32,3.32,0,0,0,0,.63Z" transform="translate(-169.32 -70.99)"/><path class="cls-5" d="M243.86,419v1.21a2.66,2.66,0,0,1,0,.63,2.66,2.66,0,0,0,0-.63V419a3.21,3.21,0,0,1,0-.62,3.21,3.21,0,0,0,0,.62Z" transform="translate(-169.32 -70.99)"/><path class="cls-5" d="M242.25,422.8V424a2.66,2.66,0,0,1,0,.63,2.66,2.66,0,0,0,0-.63V422.8a3.21,3.21,0,0,1,0-.62,3.21,3.21,0,0,0,0,.62Z" transform="translate(-169.32 -70.99)"/><path class="cls-5" d="M239.22,422.6v.2a3.33,3.33,0,0,1,0,.63,3.32,3.32,0,0,0,0-.63v-.2a3.22,3.22,0,0,1,0-.62,3.21,3.21,0,0,0,0,.62Z" transform="translate(-169.32 -70.99)"/><path class="cls-5" d="M245.28,430.68v-1.25s0,1.25,0,1.25Z" transform="translate(-169.32 -70.99)"/><path class="cls-5" d="M247.89,422.8v1.41a2.66,2.66,0,0,1,0,.63,2.66,2.66,0,0,0,0-.63V422.8a3.21,3.21,0,0,1,0-.62,3.21,3.21,0,0,0,0,.62Z" transform="translate(-169.32 -70.99)"/><path class="cls-5" d="M247.69,431.87v1.61a2.66,2.66,0,0,1,0,.63,2.66,2.66,0,0,0,0-.63v-1.61a3.32,3.32,0,0,1,0-.63,3.31,3.31,0,0,0,0,.63Z" transform="translate(-169.32 -70.99)"/><path class="cls-5" d="M241.44,434.89v.61a3.21,3.21,0,0,1,0,.62,3.21,3.21,0,0,0,0-.62v-.61a2.57,2.57,0,0,1,0-.62,2.57,2.57,0,0,0,0,.62Z" transform="translate(-169.32 -70.99)"/><path class="cls-5" d="M243.46,437.11v1.61a3.21,3.21,0,0,1,0,.62,2.56,2.56,0,0,0,0-.62v-1.61a3.33,3.33,0,0,1,0-.63,3.32,3.32,0,0,0,0,.63Z" transform="translate(-169.32 -70.99)"/><path class="cls-5" d="M246.07,438.12v1a3.33,3.33,0,0,1,0,.63,3.32,3.32,0,0,0,0-.63v-1a3.33,3.33,0,0,1,0-.63,3.32,3.32,0,0,0,0,.63Z" transform="translate(-169.32 -70.99)"/><path class="cls-5" d="M248.09,438.32v.2a3.22,3.22,0,0,1,0,.62,3.21,3.21,0,0,0,0-.62v-.2a2.66,2.66,0,0,1,0-.63,2.66,2.66,0,0,0,0,.63Z" transform="translate(-169.32 -70.99)"/><path class="cls-5" d="M248.49,442.55v1a3.21,3.21,0,0,1,0,.62,3.21,3.21,0,0,0,0-.62v-1a3.33,3.33,0,0,1,0-.63,3.32,3.32,0,0,0,0,.63Z" transform="translate(-169.32 -70.99)"/><path class="cls-5" d="M242.45,444.16v.6a2.66,2.66,0,0,1,0,.63,2.66,2.66,0,0,0,0-.63v-.6a3.32,3.32,0,0,1,0-.63,3.32,3.32,0,0,0,0,.63Z" transform="translate(-169.32 -70.99)"/><path class="cls-5" d="M244.46,446.78v.2a3.32,3.32,0,0,1,0,.63,3.32,3.32,0,0,0,0-.63v-.2a3.32,3.32,0,0,1,0-.63,3.32,3.32,0,0,0,0,.63Z" transform="translate(-169.32 -70.99)"/><path class="cls-5" d="M247.28,449.8V451a3.32,3.32,0,0,1,0,.63,3.32,3.32,0,0,0,0-.63V449.8a3.22,3.22,0,0,1,0-.62,3.21,3.21,0,0,0,0,.62Z" transform="translate(-169.32 -70.99)"/><path class="cls-5" d="M243.25,452.42v.2a3.33,3.33,0,0,1,0,.63,3.32,3.32,0,0,0,0-.63v-.2a3.22,3.22,0,0,1,0-.62,3.2,3.2,0,0,0,0,.62Z" transform="translate(-169.32 -70.99)"/><path class="cls-5" d="M246.69,455.06s0-1.25,0-1.25,0,1.25,0,1.25Z" transform="translate(-169.32 -70.99)"/><path class="cls-5" d="M239.63,413.53v.81a2.66,2.66,0,0,1,0,.63,2.66,2.66,0,0,0,0-.63v-.81a3.21,3.21,0,0,1,0-.62,3.21,3.21,0,0,0,0,.62Z" transform="translate(-169.32 -70.99)"/><path class="cls-5" d="M247.29,409.93s0-1.25,0-1.25,0,1.25,0,1.25Z" transform="translate(-169.32 -70.99)"/><path class="cls-5" d="M243.26,410.72s0-1.25,0-1.25,0,1.25,0,1.25Z" transform="translate(-169.32 -70.99)"/><path class="cls-5" d="M243.66,411.52v.6a2.66,2.66,0,0,1,0,.63,2.66,2.66,0,0,0,0-.63v-.6a3.32,3.32,0,0,1,0-.63,3.32,3.32,0,0,0,0,.63Z" transform="translate(-169.32 -70.99)"/><path class="cls-5" d="M238.62,409.71v1a3.33,3.33,0,0,1,0,.63,3.31,3.31,0,0,0,0-.63v-1a2.66,2.66,0,0,1,0-.63,2.66,2.66,0,0,0,0,.63Z" transform="translate(-169.32 -70.99)"/><path class="cls-6" d="M237.72,414.84a2,2,0,0,1-.64,2.19" transform="translate(-169.32 -70.99)"/><path class="cls-6" d="M237.74,411.89a2,2,0,0,0-.7,1.62" transform="translate(-169.32 -70.99)"/><path class="cls-6" d="M242.28,412.58a1.07,1.07,0,0,0,.54,1.22" transform="translate(-169.32 -70.99)"/><path class="cls-6" d="M247.88,412.76v1.5" transform="translate(-169.32 -70.99)"/><path class="cls-6" d="M250.5,412a2.14,2.14,0,0,0,.82,1.44" transform="translate(-169.32 -70.99)"/><path class="cls-6" d="M251.34,410a2.3,2.3,0,0,0,.49,1.49" transform="translate(-169.32 -70.99)"/><path class="cls-6" d="M250.7,415.66a3.26,3.26,0,0,1,.85,1.78" transform="translate(-169.32 -70.99)"/><path class="cls-6" d="M249.84,420.82a2,2,0,0,0,.49,1.12" transform="translate(-169.32 -70.99)"/><path class="cls-6" d="M246.78,417.08a1.33,1.33,0,0,0,.24,1.23" transform="translate(-169.32 -70.99)"/><path class="cls-6" d="M243.37,416.57a6.74,6.74,0,0,0-1.1.88" transform="translate(-169.32 -70.99)"/><path class="cls-6" d="M240.68,421.11l-.48.64" transform="translate(-169.32 -70.99)"/><path class="cls-6" d="M244.79,420.82v.94" transform="translate(-169.32 -70.99)"/><path class="cls-6" d="M238.68,423.52a1.37,1.37,0,0,0-.25,1.14" transform="translate(-169.32 -70.99)"/><path class="cls-6" d="M239.55,426.91l-.85,1.31" transform="translate(-169.32 -70.99)"/><path class="cls-6" d="M246.3,425.69a2.87,2.87,0,0,0,.91,1.33" transform="translate(-169.32 -70.99)"/><path class="cls-6" d="M249.75,425.79a1.92,1.92,0,0,0,1,1.71" transform="translate(-169.32 -70.99)"/><path class="cls-6" d="M250,432a1.7,1.7,0,0,0,.39,1.12" transform="translate(-169.32 -70.99)"/><path class="cls-6" d="M244.42,430.28v1" transform="translate(-169.32 -70.99)"/><path class="cls-6" d="M242.83,430.1a1.06,1.06,0,0,0-.76.46" transform="translate(-169.32 -70.99)"/><path class="cls-6" d="M239.18,431.61l-.85.46" transform="translate(-169.32 -70.99)"/><path class="cls-6" d="M239.79,433.57a2.33,2.33,0,0,1-.6,2.26" transform="translate(-169.32 -70.99)"/><path class="cls-6" d="M250.67,435.67a2,2,0,0,0,1.05.27" transform="translate(-169.32 -70.99)"/><polygon class="cls-7" points="62.43 336.55 120.87 336.55 136.99 271.16 46.31 271.16 62.43 336.55"/><line class="cls-8" x1="91.17" y1="283.69" x2="91.17" y2="336.55"/><path class="cls-9" d="M294.6,177.78S388.54,193.86,336,325.09l-14-8.79" transform="translate(-169.32 -70.99)"/><path class="cls-10" d="M226.67,177.78s-93.94,16.08-41.37,147.31l14-8.79" transform="translate(-169.32 -70.99)"/><ellipse class="cls-11" cx="91.65" cy="196.11" rx="70.01" ry="102.04"/><path class="cls-12" d="M313.61,96.2" transform="translate(-169.32 -70.99)"/><path class="cls-13" d="M222,336.17" transform="translate(-169.32 -70.99)"/><path class="cls-14" d="M187.45,323.92s4.34,9.36,16.54,6.29l1.14-.8.24-.3s-5.78-11.6-6-13.52" transform="translate(-169.32 -70.99)"/><path class="cls-14" d="M334.69,324.92s-4.33,9.36-16.53,6.29l-1.14-.8-.24-.3s5.78-11.6,6-13.52" transform="translate(-169.32 -70.99)"/><polyline class="cls-15" points="92.06 296.96 92.06 123.86 102.16 134.97 121.4 112.5"/><path class="cls-16" d="M214,231.79s-7.48,19.29-4.3,27.66l8.51,6.11,10.37-4.18,4.77-27.66" transform="translate(-169.32 -70.99)"/><polyline class="cls-15" points="90.63 296.96 90.63 123.86 80.54 134.97 61.29 112.5"/><path class="cls-17" d="M226.78,203.52l.06-.17a2.69,2.69,0,0,1,.57-1,2.33,2.33,0,0,1,1.78-.83,2.1,2.1,0,0,1,1.08.3s0,0,0,0c.51-.88,1-1.76,1.51-2.64a.73.73,0,0,1,.72-.42h.09l.84.23h0l-.12.56h0l-.78-.21a.25.25,0,0,0-.32.14l-.45.79,0,0h0l4,1.1s0,0,.06,0l.3-.43,0,0h0l-.68-.18a.28.28,0,0,1-.19-.24.33.33,0,0,1,.13-.3.25.25,0,0,1,.19,0l1.82.5h0l-.12.57h0l-.55-.15s0,0,0,0l-.48.69,0,0,.33,1.77v0h.24a2.19,2.19,0,0,1,.83.16,2.55,2.55,0,0,1,1.35,1.3,3,3,0,0,1,.31,1.51,2.85,2.85,0,0,1-1.26,2.36,2.13,2.13,0,0,1-1.4.36l-.23,0h0l-.27-.08h0c-.13-.06-.26-.11-.38-.18a2.76,2.76,0,0,1-1.12-1.32,3.18,3.18,0,0,1-.23-1.47c0-.06,0-.11,0-.17h0l-1-.27a.31.31,0,0,1-.2-.19l-.31-.66c-.27-.58-.54-1.16-.8-1.75l-.71-1.53-.13-.28-.45.78h0l0,0a3.06,3.06,0,0,1,.89,2.49,3,3,0,0,1-.25,1,2.61,2.61,0,0,1-1.46,1.44,2,2,0,0,1-1,.12l-.16,0-.28-.08h0a4,4,0,0,1-.36-.17,2.73,2.73,0,0,1-1.28-1.73,3.11,3.11,0,0,1-.09-1.14,1.23,1.23,0,0,1,0-.19Zm3.65-.89,0,0-.75,1.33-.27.47a.24.24,0,0,1-.33.1.3.3,0,0,1-.08-.42l1-1.79,0,0a1.84,1.84,0,0,0-2.54.88,2.45,2.45,0,0,0,.62,3.06,1.83,1.83,0,0,0,2.7-.64A2.47,2.47,0,0,0,230.43,202.63Zm4.45,3.54a2.36,2.36,0,0,0,1,2.27,1.81,1.81,0,0,0,2.4-.48,2.52,2.52,0,0,0,.17-2.76,1.86,1.86,0,0,0-1.78-1c0,.14.05.27.07.41.11.58.21,1.15.32,1.73a.37.37,0,0,1,0,.18.24.24,0,0,1-.3.17l-1.85-.51Zm-3.4-5.38,1.91,4.15,2.13-3Zm4.61,2.94-.26-1.36-2,2.9.7.19A2.67,2.67,0,0,1,236.09,203.73ZM235,205.6l1.5.41-.32-1.7A2.1,2.1,0,0,0,235,205.6Z" transform="translate(-169.32 -70.99)"/><path class="cls-17" d="M230.88,223.61c0-.06,0-.13,0-.19a3,3,0,0,1,.35-1.14,2.49,2.49,0,0,1,1.56-1.28,2,2,0,0,1,1.12,0s0,0,0,0l.93-3a.81.81,0,0,1,.62-.59h1V218h-.85a.26.26,0,0,0-.28.22c-.09.3-.19.59-.28.89v0h4.18a.05.05,0,0,0,.05,0l.2-.5,0-.05h-.74a.23.23,0,0,1-.23-.18.31.31,0,0,1,.06-.32.25.25,0,0,1,.18-.08h1.91v.58h-.59a0,0,0,0,0-.05,0l-.33.81a0,0,0,0,0,0,.05c.22.55.45,1.09.67,1.63v0l.23-.08a2,2,0,0,1,.85-.07,2.4,2.4,0,0,1,1.58.9,2.87,2.87,0,0,1,.61,1.4,3,3,0,0,1-.76,2.62,2.22,2.22,0,0,1-1.29.73l-.22,0h-.34c-.14,0-.28,0-.41-.08a2.39,2.39,0,0,1-1.35-1,3,3,0,0,1-.53-1.37c0-.05,0-.11,0-.16h-1.08a.3.3,0,0,1-.24-.13l-.43-.56c-.38-.49-.76-1-1.13-1.49s-.67-.86-1-1.3l-.19-.24-.27.89h0l0,0a2.84,2.84,0,0,1,1.36,2.19,3,3,0,0,1,0,1,2.83,2.83,0,0,1-1.13,1.79,2.14,2.14,0,0,1-1,.4l-.16,0h-.31c-.13,0-.26,0-.38-.07a2.48,2.48,0,0,1-1.6-1.35,2.83,2.83,0,0,1-.32-1.07c0-.07,0-.13,0-.2Zm3.37-1.85v0l-.47,1.49c-.05.18-.11.36-.16.53a.25.25,0,0,1-.31.19.31.31,0,0,1-.16-.39l.63-2v0a1.94,1.94,0,0,0-2.29,1.52,2.34,2.34,0,0,0,1.23,2.82,1.92,1.92,0,0,0,2.49-1.34A2.4,2.4,0,0,0,234.25,221.76Zm5,2.27a2.18,2.18,0,0,0,1.45,1.93,1.89,1.89,0,0,0,2.24-1.11,2.51,2.51,0,0,0-.39-2.73,1.77,1.77,0,0,0-1.94-.49c0,.12.1.25.16.37l.66,1.6a.37.37,0,0,1,0,.18.26.26,0,0,1-.26.25h-1.94Zm-4.39-4.33,2.7,3.52,1.45-3.52Zm5.07,1.63-.52-1.26-1.39,3.37h.72A2.89,2.89,0,0,1,240,221.33Zm-.67,2.11h1.54l-.65-1.58A2.34,2.34,0,0,0,239.3,223.44Z" transform="translate(-169.32 -70.99)"/><path class="cls-17" d="M238.29,243.73c0-.07,0-.13,0-.19a3,3,0,0,1,.35-1.15,2.55,2.55,0,0,1,1.56-1.28,2.13,2.13,0,0,1,1.12,0s0,0,0,0l.93-3a.84.84,0,0,1,.62-.6h1v.58h-.85c-.15,0-.23.07-.28.23s-.19.59-.28.89v0h4.18a.05.05,0,0,0,.05,0l.21-.5v0h-.74a.23.23,0,0,1-.23-.18.31.31,0,0,1,.06-.32.22.22,0,0,1,.18-.08h1.91v.58h-.59a0,0,0,0,0-.05,0l-.33.81a0,0,0,0,0,0,.05l.67,1.63v0l.23-.07a2,2,0,0,1,.85-.07,2.36,2.36,0,0,1,1.58.9,2.87,2.87,0,0,1,.61,1.39,3.05,3.05,0,0,1-.76,2.63,2.21,2.21,0,0,1-1.29.72,1.66,1.66,0,0,1-.22,0h-.34a2.7,2.7,0,0,1-.41-.07,2.39,2.39,0,0,1-1.35-1,3,3,0,0,1-.53-1.37c0-.06,0-.11,0-.17H245.1a.28.28,0,0,1-.24-.12l-.43-.56L243.3,242c-.34-.43-.67-.87-1-1.3l-.19-.24-.27.88h0l0,0a2.84,2.84,0,0,1,1.36,2.19,3.06,3.06,0,0,1,0,1,2.82,2.82,0,0,1-1.13,1.79,2.14,2.14,0,0,1-1,.4l-.16,0h-.31c-.13,0-.26,0-.38-.06a2.48,2.48,0,0,1-1.6-1.35,2.82,2.82,0,0,1-.32-1.08c0-.06,0-.13,0-.19Zm3.37-1.85v0l-.47,1.49c-.05.18-.11.35-.16.53a.25.25,0,0,1-.31.19.31.31,0,0,1-.16-.39l.63-2v0a2,2,0,0,0-2.29,1.53,2.33,2.33,0,0,0,1.23,2.81,1.9,1.9,0,0,0,2.49-1.33A2.4,2.4,0,0,0,241.66,241.88Zm5,2.26a2.18,2.18,0,0,0,1.45,1.93,1.88,1.88,0,0,0,2.24-1.1,2.51,2.51,0,0,0-.39-2.73,1.75,1.75,0,0,0-1.94-.49c.05.12.1.25.16.37l.66,1.6a.37.37,0,0,1,0,.18.25.25,0,0,1-.26.24H246.7Zm-4.39-4.32,2.7,3.52,1.45-3.52Zm5.07,1.62-.52-1.25-1.39,3.37h.72A2.93,2.93,0,0,1,247.38,241.44Zm-.67,2.12h1.54L247.6,242A2.34,2.34,0,0,0,246.71,243.56Z" transform="translate(-169.32 -70.99)"/><path class="cls-17" d="M241.06,268.7a1.1,1.1,0,0,1,0-.18,2.81,2.81,0,0,1,.35-1.15,2.47,2.47,0,0,1,1.56-1.28,2.09,2.09,0,0,1,1.11,0s0,0,.05,0l.93-3a.81.81,0,0,1,.61-.6h1v.58h-.84c-.15,0-.23.06-.28.23s-.19.59-.28.88v0h4.17s0,0,0,0l.21-.5,0,0H249a.26.26,0,0,1-.24-.19.33.33,0,0,1,.06-.32.26.26,0,0,1,.18-.07h1.92v.58h-.6s0,0,0,0l-.33.8a.11.11,0,0,0,0,0l.68,1.64v0l.23-.08a2.22,2.22,0,0,1,.85-.07,2.33,2.33,0,0,1,1.57.91,2.83,2.83,0,0,1,.61,1.39,3,3,0,0,1-.75,2.63,2.3,2.3,0,0,1-1.29.72l-.23,0h-.34l-.41-.07a2.43,2.43,0,0,1-1.35-1,3,3,0,0,1-.52-1.37.88.88,0,0,1,0-.16h-1.08a.29.29,0,0,1-.24-.12l-.43-.57L246.06,267l-1-1.3a2.35,2.35,0,0,1-.19-.25l-.28.89h0A2.81,2.81,0,0,1,246,268.5a3.05,3.05,0,0,1-1.16,2.8,2.34,2.34,0,0,1-1,.39l-.17,0h-.31a2.47,2.47,0,0,1-2-1.41,3.12,3.12,0,0,1-.31-1.08,1.37,1.37,0,0,1,0-.19Zm3.37-1.84,0,0-.46,1.48c-.06.18-.11.36-.17.54a.24.24,0,0,1-.3.18.29.29,0,0,1-.16-.39c.21-.67.42-1.34.62-2l0,0a2,2,0,0,0-2.3,1.53,2.35,2.35,0,0,0,1.23,2.81,1.9,1.9,0,0,0,2.49-1.34A2.37,2.37,0,0,0,244.43,266.86Zm5,2.26a2.18,2.18,0,0,0,1.45,1.93,1.89,1.89,0,0,0,2.24-1.11,2.53,2.53,0,0,0-.39-2.73,1.77,1.77,0,0,0-1.94-.49l.15.38.66,1.6a.25.25,0,0,1,0,.17.28.28,0,0,1-.26.25h-1.94Zm-4.39-4.33,2.69,3.52,1.46-3.52Zm5.07,1.63-.53-1.26-1.39,3.37H249A3,3,0,0,1,250.15,266.42Zm-.68,2.11H251l-.65-1.57A2.31,2.31,0,0,0,249.47,268.53Z" transform="translate(-169.32 -70.99)"/><path class="cls-17" d="M241.06,294.87a1.23,1.23,0,0,1,0-.19,2.81,2.81,0,0,1,.35-1.14,2.51,2.51,0,0,1,1.56-1.29,2.09,2.09,0,0,1,1.11,0s0,0,.05,0l.93-3a.78.78,0,0,1,.61-.59h1v.57h-.84c-.15,0-.23.07-.28.23s-.19.59-.28.89v0h4.17s0,0,0,0l.21-.49,0-.05H249a.26.26,0,0,1-.24-.18.33.33,0,0,1,.06-.32.23.23,0,0,1,.18-.08h1.92v.58h-.6s0,0,0,0l-.33.81s0,0,0,.05c.23.54.45,1.09.68,1.63v0l.23-.08a2,2,0,0,1,.85-.07,2.32,2.32,0,0,1,1.57.9,2.87,2.87,0,0,1,.61,1.39,3,3,0,0,1-.75,2.63,2.24,2.24,0,0,1-1.29.72,1.6,1.6,0,0,1-.23,0h-.34a3.2,3.2,0,0,1-.41-.07,2.46,2.46,0,0,1-1.35-1,3,3,0,0,1-.52-1.37,1,1,0,0,1,0-.16h-1.08a.27.27,0,0,1-.24-.13l-.43-.56-1.14-1.49-1-1.3-.19-.24-.28.89h0l0,0a3.06,3.06,0,0,1,.2,5,2.23,2.23,0,0,1-1,.4l-.17,0h-.31l-.38-.06a2.51,2.51,0,0,1-1.6-1.35,3,3,0,0,1-.31-1.08,1.11,1.11,0,0,1,0-.19Zm3.37-1.85,0,0c-.15.5-.31,1-.46,1.49l-.17.53a.25.25,0,0,1-.3.19.29.29,0,0,1-.16-.39c.21-.67.42-1.34.62-2l0,0a2,2,0,0,0-2.3,1.53,2.37,2.37,0,0,0,1.23,2.82,1.91,1.91,0,0,0,2.49-1.34A2.38,2.38,0,0,0,244.43,293Zm5,2.27a2.18,2.18,0,0,0,1.45,1.93,1.9,1.9,0,0,0,2.24-1.11,2.53,2.53,0,0,0-.39-2.73,1.75,1.75,0,0,0-1.94-.49l.15.37.66,1.6a.29.29,0,0,1,0,.18.28.28,0,0,1-.26.25h-1.94ZM245.08,291l2.69,3.52,1.46-3.52Zm5.07,1.63-.53-1.26-1.39,3.37H249A2.94,2.94,0,0,1,250.15,292.59Zm-.68,2.11H251l-.65-1.58A2.31,2.31,0,0,0,249.47,294.7Z" transform="translate(-169.32 -70.99)"/><path class="cls-17" d="M241.06,314a1.23,1.23,0,0,1,0-.19,2.81,2.81,0,0,1,.35-1.14,2.47,2.47,0,0,1,1.56-1.28,2,2,0,0,1,1.11,0s0,0,.05,0l.93-3a.78.78,0,0,1,.61-.59h1v.57h-.84c-.15,0-.23.07-.28.23s-.19.59-.28.89v0h4.17a0,0,0,0,0,0,0l.21-.5,0-.05H249a.26.26,0,0,1-.24-.18.33.33,0,0,1,.06-.32.27.27,0,0,1,.18-.08h1.92V309h-.6s0,0,0,0l-.33.81a.11.11,0,0,0,0,.05c.23.55.45,1.09.68,1.63v0l.23-.08a2,2,0,0,1,.85-.07,2.36,2.36,0,0,1,1.57.9,2.87,2.87,0,0,1,.61,1.4,3,3,0,0,1-.75,2.62,2.31,2.31,0,0,1-1.29.73l-.23,0h-.34c-.13,0-.27,0-.41-.08a2.46,2.46,0,0,1-1.35-1,3,3,0,0,1-.52-1.37,1,1,0,0,1,0-.16h-1.08a.27.27,0,0,1-.24-.13l-.43-.56-1.14-1.49-1-1.3-.19-.24-.28.89h0l0,0a3.06,3.06,0,0,1,.2,5,2.23,2.23,0,0,1-1,.4l-.17,0h-.31c-.13,0-.25,0-.38-.07a2.51,2.51,0,0,1-1.6-1.35,3,3,0,0,1-.31-1.08,1.11,1.11,0,0,1,0-.19Zm3.37-1.85,0,0c-.15.5-.31,1-.46,1.49-.06.18-.11.36-.17.53a.25.25,0,0,1-.3.19.29.29,0,0,1-.16-.39c.21-.67.42-1.34.62-2l0,0a2,2,0,0,0-2.3,1.53,2.37,2.37,0,0,0,1.23,2.82,1.91,1.91,0,0,0,2.49-1.34A2.38,2.38,0,0,0,244.43,312.18Zm5,2.27a2.18,2.18,0,0,0,1.45,1.93,1.9,1.9,0,0,0,2.24-1.11,2.53,2.53,0,0,0-.39-2.73,1.77,1.77,0,0,0-1.94-.49l.15.37.66,1.6a.29.29,0,0,1,0,.18.28.28,0,0,1-.26.25h-1.94Zm-4.39-4.33,2.69,3.52,1.46-3.52Zm5.07,1.63-.53-1.26-1.39,3.37H249A2.94,2.94,0,0,1,250.15,311.75Zm-.68,2.11H251l-.65-1.58A2.31,2.31,0,0,0,249.47,313.86Z" transform="translate(-169.32 -70.99)"/><path class="cls-17" d="M240.73,339.45c0-.06,0-.12,0-.18a3,3,0,0,1,.36-1.15,2.44,2.44,0,0,1,1.56-1.28,2.09,2.09,0,0,1,1.11,0s0,0,0,0l.93-3a.81.81,0,0,1,.61-.6h1v.58h-.84c-.15,0-.23.07-.29.23l-.27.89v0h4.17s0,0,.05,0l.21-.5,0,0h-.74a.26.26,0,0,1-.24-.18.33.33,0,0,1,.06-.32.22.22,0,0,1,.18-.08h1.92v.58H250s0,0,0,0l-.34.81v0c.23.54.45,1.09.68,1.63v0l.23-.07a1.88,1.88,0,0,1,.85-.07,2.32,2.32,0,0,1,1.57.9,2.87,2.87,0,0,1,.61,1.39,3,3,0,0,1-.75,2.63,2.24,2.24,0,0,1-1.29.72l-.23,0h-.34a3.2,3.2,0,0,1-.41-.07,2.46,2.46,0,0,1-1.35-1,3,3,0,0,1-.52-1.38.78.78,0,0,1,0-.16h-1.08a.26.26,0,0,1-.24-.12l-.43-.56-1.14-1.49c-.33-.43-.66-.87-1-1.3l-.18-.24-.28.88h0l0,0a2.8,2.8,0,0,1,1.36,2.18,3.05,3.05,0,0,1-1.16,2.8,2.23,2.23,0,0,1-1,.4l-.17,0H243c-.13,0-.26,0-.38-.06a2.51,2.51,0,0,1-1.6-1.35,3,3,0,0,1-.32-1.08c0-.06,0-.13,0-.19Zm3.36-1.84v0c-.15.5-.31,1-.46,1.49-.06.17-.11.35-.17.53a.24.24,0,0,1-.31.18.28.28,0,0,1-.15-.38c.21-.68.41-1.35.62-2l0,0a2,2,0,0,0-2.3,1.53,2.34,2.34,0,0,0,1.23,2.81,1.9,1.9,0,0,0,2.49-1.33A2.38,2.38,0,0,0,244.09,337.61Zm5,2.26a2.17,2.17,0,0,0,1.45,1.93,1.87,1.87,0,0,0,2.23-1.1,2.51,2.51,0,0,0-.39-2.74,1.73,1.73,0,0,0-1.93-.48l.15.37.66,1.6a.29.29,0,0,1,0,.18.27.27,0,0,1-.26.24h-1.94Zm-4.4-4.33,2.7,3.53,1.46-3.53Zm5.08,1.63-.53-1.25-1.39,3.37h.72A3,3,0,0,1,249.82,337.17Zm-.68,2.11h1.55l-.65-1.57A2.31,2.31,0,0,0,249.14,339.28Z" transform="translate(-169.32 -70.99)"/><path class="cls-17" d="M232,357.73a1.21,1.21,0,0,1,0-.18,3,3,0,0,1-.15-1.2,3,3,0,0,1,.87-2,2.28,2.28,0,0,1,1-.58s0,0,0-.05l-.36-3.14a.92.92,0,0,1,.31-.85l.07-.06.77-.45,0,0,.23.52,0,0-.71.42a.32.32,0,0,0-.16.35c0,.32.07.63.11.94v0l0,0,3.68-2.18a.07.07,0,0,0,0-.06c0-.18,0-.37,0-.55v-.05l0,0-.62.37a.22.22,0,0,1-.28,0,.31.31,0,0,1-.07-.32.28.28,0,0,1,.12-.16l1.67-1,0,0,.23.52,0,0-.49.29a.05.05,0,0,0,0,.05l0,.9,0,0c.41.37.83.73,1.25,1.09l0,0,.17-.19a2.41,2.41,0,0,1,.73-.51,2.12,2.12,0,0,1,1.76,0,2.41,2.41,0,0,1,1.1.91,3.1,3.1,0,0,1,.38,2.73,2.71,2.71,0,0,1-.85,1.32l-.19.15,0,0-.24.14,0,0c-.13.05-.25.11-.39.15a2.15,2.15,0,0,1-1.59-.16,2.55,2.55,0,0,1-1-.94l-.08-.14,0,0c-.3.19-.61.37-.92.55a.27.27,0,0,1-.26,0l-.61-.27-1.6-.73-1.41-.63-.26-.11.11.93h0a2.39,2.39,0,0,1,2.09,1.22,2.94,2.94,0,0,1,.36.92,3.15,3.15,0,0,1-.28,2.18,2.49,2.49,0,0,1-.72.88l-.13.1-.26.15h0a2.67,2.67,0,0,1-.36.14,2.2,2.2,0,0,1-2-.35,2.46,2.46,0,0,1-.71-.79l-.1-.16Zm2.26-3.41v0l.18,1.56c0,.19.05.38.07.56a.29.29,0,0,1-.2.33c-.14,0-.27-.08-.29-.26-.09-.71-.17-1.41-.25-2.12v0a2.27,2.27,0,0,0-1.42,2.56,2,2,0,0,0,2.21,1.85,2.21,2.21,0,0,0,1.68-2.5A2.05,2.05,0,0,0,234.21,354.32Zm5.38-.65a1.87,1.87,0,0,0,2.07.95,2.21,2.21,0,0,0,1.54-2.16,2.27,2.27,0,0,0-1.44-2.23,1.81,1.81,0,0,0-1.92.59l.28.25,1.23,1.08a.24.24,0,0,1,.1.14.32.32,0,0,1-.14.36l-1.68,1ZM234,352.14l3.8,1.71-.12-3.9Zm5.15-1.23-1-.84.11,3.73.64-.38A3.26,3.26,0,0,1,239.11,350.91Zm.25,2.23,1.37-.81-1.21-1.06A2.62,2.62,0,0,0,239.36,353.14Z" transform="translate(-169.32 -70.99)"/><path class="cls-17" d="M215.51,339.82l0-.18a3.1,3.1,0,0,1,1.12-3,2.31,2.31,0,0,1,1.06-.41s0,0,0,0c0-1.05,0-2.11,0-3.16a.93.93,0,0,1,.42-.8l.08,0,.82-.32h0l.16.55h0l-.76.3a.3.3,0,0,0-.2.32c0,.32,0,.63,0,.94v0l0,0,3.92-1.54s0,0,0,0c0-.18,0-.36,0-.55v0h0l-.66.26a.23.23,0,0,1-.28-.08.33.33,0,0,1,0-.33.26.26,0,0,1,.15-.14l1.78-.7h0l.16.55h0l-.53.21s0,0,0,0l-.09.89a.07.07,0,0,0,0,.05l1.1,1.29,0,0,.2-.16a2.18,2.18,0,0,1,.78-.38,2.15,2.15,0,0,1,1.74.27,2.51,2.51,0,0,1,1,1.09,3.14,3.14,0,0,1,0,2.77,2.55,2.55,0,0,1-1,1.16l-.21.11,0,0-.26.1h0a3,3,0,0,1-.41.08,2.18,2.18,0,0,1-1.55-.42,2.71,2.71,0,0,1-.89-1.11l-.06-.14h0l-1,.39a.27.27,0,0,1-.26,0l-.57-.37-1.5-1-1.31-.86-.24-.16v.94h0a2.52,2.52,0,0,1,1.91,1.57,2.83,2.83,0,0,1,.24,1,3,3,0,0,1-.56,2.11,2.44,2.44,0,0,1-.82.75l-.15.08-.27.1h0l-.37.08a2.27,2.27,0,0,1-1.9-.68,2.63,2.63,0,0,1-.6-.9,1.34,1.34,0,0,1-.07-.18Zm2.67-3v0c0,.53,0,1.05,0,1.58,0,.19,0,.38,0,.56a.27.27,0,0,1-.23.29c-.15,0-.27-.12-.27-.31l0-2.13v-.05a2.18,2.18,0,0,0-1.74,2.3,2,2,0,1,0,3.94,0A2.17,2.17,0,0,0,218.18,336.83Zm5.41.26a1.94,1.94,0,0,0,1.92,1.29,2.1,2.1,0,0,0,1.8-1.88,2.36,2.36,0,0,0-1.14-2.44,1.76,1.76,0,0,0-2,.26l.25.3,1.08,1.26a.33.33,0,0,1,.07.16.3.3,0,0,1-.18.33l-1.79.71Zm-5.38-2.46,3.55,2.33.38-3.87Zm5.26-.34-.85-1-.36,3.71.68-.27A3.16,3.16,0,0,1,223.47,334.29Zm0,2.24,1.46-.57-1.06-1.25A2.53,2.53,0,0,0,223.43,336.53Z" transform="translate(-169.32 -70.99)"/><path class="cls-17" d="M213.08,315.23c0-.07,0-.13,0-.19a3.28,3.28,0,0,1,0-1.21,2.83,2.83,0,0,1,1.11-1.79,2.22,2.22,0,0,1,1.06-.42s0,0,0,0c0-1.05,0-2.11,0-3.16a.94.94,0,0,1,.41-.8l.09,0,.81-.32h0l.17.54,0,0-.76.3a.3.3,0,0,0-.2.32c0,.31,0,.63,0,.94v0h0l3.92-1.54a.05.05,0,0,0,0-.05l.06-.55v-.05h0l-.66.27a.24.24,0,0,1-.27-.09.32.32,0,0,1,0-.33.27.27,0,0,1,.14-.14l1.78-.7h0l.17.55h0l-.53.21a0,0,0,0,0,0,.05c0,.29-.06.59-.08.88a0,0,0,0,0,0,.05l1.1,1.29,0,0,.19-.16a2.22,2.22,0,0,1,2.53-.11,2.46,2.46,0,0,1,1,1.09,3.11,3.11,0,0,1,0,2.76,2.52,2.52,0,0,1-1,1.17l-.21.11,0,0-.26.1h0a2.83,2.83,0,0,1-.4.08,2.21,2.21,0,0,1-1.56-.42,2.8,2.8,0,0,1-.89-1.11l-.06-.14h0l-1,.39a.25.25,0,0,1-.26,0l-.57-.37-1.5-1-1.31-.86-.24-.16v.94h0a2.49,2.49,0,0,1,1.91,1.56,2.89,2.89,0,0,1,.25,1,3.17,3.17,0,0,1-.56,2.11,2.47,2.47,0,0,1-.83.75l-.14.08-.27.1h0l-.38.08a2.25,2.25,0,0,1-1.89-.68,2.7,2.7,0,0,1-.61-.9l-.07-.18Zm2.66-3v0c0,.52,0,1.05,0,1.58,0,.19,0,.37,0,.56a.27.27,0,0,1-.23.29c-.15,0-.26-.12-.26-.31,0-.71,0-1.42,0-2.14v0a2.18,2.18,0,0,0-1.73,2.3,2,2,0,1,0,3.93,0A2.18,2.18,0,0,0,215.74,312.22Zm5.41.26a1.94,1.94,0,0,0,1.92,1.29,2.1,2.1,0,0,0,1.8-1.88,2.35,2.35,0,0,0-1.14-2.44,1.72,1.72,0,0,0-2,.26l.25.3,1.08,1.26a.33.33,0,0,1,.07.16.3.3,0,0,1-.18.33l-1.79.71ZM215.77,310l3.55,2.32.38-3.87Zm5.26-.35-.85-1-.36,3.7.68-.27A3.16,3.16,0,0,1,221,309.68Zm0,2.24,1.46-.57-1.06-1.25A2.53,2.53,0,0,0,221,311.92Z" transform="translate(-169.32 -70.99)"/><path class="cls-17" d="M196.42,301.09l0-.19a3.08,3.08,0,0,1,0-1.21,2.8,2.8,0,0,1,1.15-1.76,2.13,2.13,0,0,1,1.07-.38s0,0,0,0c0-1.06.07-2.11.11-3.17a.9.9,0,0,1,.43-.78l.09,0,.82-.3h0l.15.55h0l-.76.28a.28.28,0,0,0-.21.31l0,.94s0,0,0,.05l0,0,3.95-1.43s0,0,0,0l.06-.55v-.05h0l-.67.25a.23.23,0,0,1-.27-.1.29.29,0,0,1,0-.32.23.23,0,0,1,.15-.14l1.79-.65h0l.15.55,0,0-.53.19s0,0,0,0c0,.3-.07.59-.1.89,0,0,0,0,0,.05l1.07,1.32,0,0a1.49,1.49,0,0,1,.2-.15,2,2,0,0,1,.78-.36,2.15,2.15,0,0,1,1.75.32,2.51,2.51,0,0,1,.94,1.11,3.14,3.14,0,0,1,0,2.77,2.49,2.49,0,0,1-1,1.13l-.21.11,0,0-.27.09h0c-.14,0-.27.06-.41.07A2.26,2.26,0,0,1,205,300a2.8,2.8,0,0,1-.86-1.13l-.06-.15,0,0-1,.36a.28.28,0,0,1-.26,0l-.56-.39-1.47-1-1.29-.9-.24-.17,0,.94h0a2.52,2.52,0,0,1,1.87,1.62,2.93,2.93,0,0,1,.23,1,3.16,3.16,0,0,1-.61,2.1,2.41,2.41,0,0,1-.84.72l-.15.07-.27.1h0c-.12,0-.25.06-.38.07a2.25,2.25,0,0,1-1.87-.74,2.6,2.6,0,0,1-.59-.92c0-.06,0-.12-.07-.17Zm2.73-2.93v0c0,.52,0,1.05,0,1.58,0,.18,0,.37,0,.56a.26.26,0,0,1-.24.28c-.15,0-.26-.13-.25-.31,0-.72,0-1.43.07-2.14v0a2.29,2.29,0,0,0,.12,4.5,2.09,2.09,0,0,0,2-2.13A2.21,2.21,0,0,0,199.15,298.16Zm5.4.42a2,2,0,0,0,1.89,1.34,2.07,2.07,0,0,0,1.84-1.82,2.36,2.36,0,0,0-1.09-2.47,1.72,1.72,0,0,0-2,.2l.24.3,1,1.3a.26.26,0,0,1,.07.16.28.28,0,0,1-.18.32l-1.81.66ZM199.22,296l3.5,2.43.46-3.86Zm5.27-.2-.83-1-.44,3.69.68-.25A3.2,3.2,0,0,1,204.49,295.77ZM204.4,298l1.47-.53-1-1.28A2.53,2.53,0,0,0,204.4,298Z" transform="translate(-169.32 -70.99)"/><path class="cls-17" d="M215.47,287.42a1.1,1.1,0,0,1,0-.18,2.81,2.81,0,0,1,.35-1.15,2.47,2.47,0,0,1,1.56-1.28,2,2,0,0,1,1.11,0,0,0,0,0,0,.05,0l.93-3a.81.81,0,0,1,.61-.6h1v.58h-.84c-.15,0-.23.06-.28.23s-.19.59-.28.88v0h4.18s0,0,0,0l.21-.5,0,0h-.74a.26.26,0,0,1-.24-.19.33.33,0,0,1,.06-.32.26.26,0,0,1,.18-.07h1.92v.58h-.6s0,0,0,0l-.33.81a.07.07,0,0,0,0,.05c.23.54.45,1.08.68,1.63v0l.23-.08a2.22,2.22,0,0,1,.85-.07,2.33,2.33,0,0,1,1.57.91,2.83,2.83,0,0,1,.61,1.39,3,3,0,0,1-.75,2.63,2.3,2.3,0,0,1-1.29.72l-.23,0h-.34l-.41-.07a2.46,2.46,0,0,1-1.35-1,3.05,3.05,0,0,1-.52-1.38.78.78,0,0,1,0-.16h-1.08a.29.29,0,0,1-.24-.12l-.43-.56-1.14-1.49-1-1.3-.19-.24L219,285h0l0,0a2.77,2.77,0,0,1,1.36,2.18,3.05,3.05,0,0,1-1.16,2.8,2.23,2.23,0,0,1-1,.4l-.17,0h-.31l-.38-.06a2.54,2.54,0,0,1-1.6-1.35,3.12,3.12,0,0,1-.31-1.08,1.37,1.37,0,0,1,0-.19Zm3.37-1.84,0,0-.46,1.48c-.06.18-.11.36-.17.54a.24.24,0,0,1-.3.18.29.29,0,0,1-.16-.39c.21-.67.42-1.34.62-2l0,0a2,2,0,0,0-2.3,1.53,2.35,2.35,0,0,0,1.23,2.81,1.89,1.89,0,0,0,2.49-1.34A2.37,2.37,0,0,0,218.84,285.58Zm5,2.26a2.18,2.18,0,0,0,1.45,1.93,1.89,1.89,0,0,0,2.24-1.1,2.55,2.55,0,0,0-.39-2.74,1.77,1.77,0,0,0-1.94-.49l.15.38.66,1.6a.29.29,0,0,1-.23.42h-1.94Zm-4.39-4.33,2.69,3.52,1.46-3.52Zm5.07,1.63-.53-1.25-1.39,3.36h.72A3,3,0,0,1,224.56,285.14Zm-.68,2.11h1.55l-.65-1.57A2.31,2.31,0,0,0,223.88,287.25Z" transform="translate(-169.32 -70.99)"/><path class="cls-17" d="M193.73,269.72c0-.06,0-.13,0-.19a3,3,0,0,1,.35-1.14,2.49,2.49,0,0,1,1.56-1.28,2,2,0,0,1,1.12,0s0,0,0,0l.93-3a.81.81,0,0,1,.62-.59h1v.58h-.84a.26.26,0,0,0-.28.22c-.09.3-.19.59-.28.89v0h4.18a.05.05,0,0,0,0,0c.06-.17.13-.34.2-.5l0-.05h-.74a.26.26,0,0,1-.24-.18.34.34,0,0,1,.07-.32.25.25,0,0,1,.18-.08h1.91v.58H203s0,0,0,0l-.33.81a0,0,0,0,0,0,.05c.22.55.45,1.09.67,1.63v0l.23-.08a2,2,0,0,1,.85-.07,2.38,2.38,0,0,1,1.58.91,3,3,0,0,1,.61,1.39,3,3,0,0,1-.76,2.62,2.22,2.22,0,0,1-1.29.73l-.22,0h-.34c-.14,0-.28,0-.41-.08a2.44,2.44,0,0,1-1.36-1,3.08,3.08,0,0,1-.52-1.37c0-.05,0-.11,0-.16h-1.08a.28.28,0,0,1-.24-.13l-.43-.56L198.73,268l-1-1.3-.19-.24-.27.89h0l0,0a2.83,2.83,0,0,1,1.37,2.19,3,3,0,0,1,0,1,2.83,2.83,0,0,1-1.13,1.79,2.19,2.19,0,0,1-1,.4l-.16,0H196c-.12,0-.25,0-.38-.07a2.53,2.53,0,0,1-1.6-1.35,3,3,0,0,1-.31-1.07c0-.07,0-.13,0-.2Zm3.37-1.85,0,0c-.15.5-.31,1-.46,1.49-.06.18-.11.36-.17.53a.24.24,0,0,1-.3.19.3.3,0,0,1-.16-.39l.63-2v0a1.94,1.94,0,0,0-2.29,1.52,2.35,2.35,0,0,0,1.22,2.82,1.92,1.92,0,0,0,2.5-1.34A2.4,2.4,0,0,0,197.1,267.87Zm5,2.27a2.18,2.18,0,0,0,1.45,1.93,1.89,1.89,0,0,0,2.24-1.11,2.51,2.51,0,0,0-.39-2.73,1.77,1.77,0,0,0-1.94-.49l.15.37c.22.54.44,1.07.67,1.6a.37.37,0,0,1,0,.18.26.26,0,0,1-.26.25h-1.94Zm-4.39-4.33,2.69,3.52,1.46-3.52Zm5.07,1.63-.52-1.26-1.39,3.37h.71A2.94,2.94,0,0,1,202.82,267.44Zm-.67,2.11h1.54L203,268A2.3,2.3,0,0,0,202.15,269.55Z" transform="translate(-169.32 -70.99)"/><path class="cls-17" d="M194.48,239.11c0-.06,0-.13,0-.19a3,3,0,0,1,.35-1.14,2.49,2.49,0,0,1,1.56-1.28,2,2,0,0,1,1.12,0s0,0,0,0c.31-1,.62-2,.94-3a.78.78,0,0,1,.61-.59h1v.57h-.85c-.15,0-.23.07-.28.23s-.18.59-.28.89v0h4.18a.05.05,0,0,0,0,0l.21-.49V234h-.74a.23.23,0,0,1-.23-.18.31.31,0,0,1,.06-.32.25.25,0,0,1,.18-.08h1.91V234h-.59a0,0,0,0,0-.05,0l-.33.81a0,0,0,0,0,0,.05c.22.55.45,1.09.67,1.63v0l.23-.08a2,2,0,0,1,.85-.07,2.38,2.38,0,0,1,1.58.9,2.87,2.87,0,0,1,.61,1.4,3,3,0,0,1-.76,2.62,2.29,2.29,0,0,1-1.28.73l-.23,0h-.34c-.14,0-.28,0-.41-.08a2.39,2.39,0,0,1-1.35-1,3,3,0,0,1-.53-1.37.78.78,0,0,0,0-.16h-1.08a.3.3,0,0,1-.24-.13l-.43-.56-1.13-1.49c-.34-.43-.67-.86-1-1.3l-.18-.24-.28.89h0l0,0a2.84,2.84,0,0,1,1.36,2.19,3,3,0,0,1,0,1,2.79,2.79,0,0,1-1.13,1.79,2.14,2.14,0,0,1-1,.4l-.16,0h-.31l-.38-.07a2.48,2.48,0,0,1-1.6-1.35,2.82,2.82,0,0,1-.32-1.08c0-.06,0-.12,0-.19Zm3.37-1.85v0l-.47,1.49c-.05.18-.11.36-.16.53a.25.25,0,0,1-.31.19.31.31,0,0,1-.16-.39l.63-2v-.05a2,2,0,0,0-2.29,1.53,2.34,2.34,0,0,0,1.23,2.82,1.91,1.91,0,0,0,2.49-1.34A2.4,2.4,0,0,0,197.85,237.26Zm5,2.27a2.19,2.19,0,0,0,1.46,1.93,1.88,1.88,0,0,0,2.23-1.11,2.51,2.51,0,0,0-.39-2.73,1.75,1.75,0,0,0-1.94-.49c.05.12.1.25.16.37l.66,1.6a.37.37,0,0,1,0,.18.26.26,0,0,1-.26.25h-1.94Zm-4.39-4.33,2.7,3.52,1.45-3.52Zm5.07,1.63-.52-1.26-1.39,3.37h.72A2.89,2.89,0,0,1,203.57,236.83Zm-.67,2.11h1.55l-.66-1.58A2.34,2.34,0,0,0,202.9,238.94Z" transform="translate(-169.32 -70.99)"/><path class="cls-17" d="M206,210.53a1.21,1.21,0,0,1,.05-.18,2.69,2.69,0,0,1,.57-1,2.31,2.31,0,0,1,1.77-.85,2.1,2.1,0,0,1,1.08.3s0,0,.05,0l1.5-2.66a.72.72,0,0,1,.71-.42h.1l.83.22h0l-.12.56h0l-.78-.2a.25.25,0,0,0-.32.14l-.44.8,0,0h0l4,1.07a0,0,0,0,0,0,0l.3-.43,0,0h0l-.68-.18a.28.28,0,0,1-.2-.24.33.33,0,0,1,.13-.3.21.21,0,0,1,.19,0l1.83.48h0l-.11.57h0L216,208a0,0,0,0,0-.05,0l-.48.7a0,0,0,0,0,0,.05l.33,1.76v0l.24,0a2.48,2.48,0,0,1,.84.15A2.57,2.57,0,0,1,218.2,212a3,3,0,0,1,.33,1.52,2.86,2.86,0,0,1-1.26,2.36,2.1,2.1,0,0,1-1.39.37,1.81,1.81,0,0,1-.23,0h0l-.27-.07h0c-.13-.06-.26-.11-.39-.18a2.69,2.69,0,0,1-1.12-1.31,3,3,0,0,1-.24-1.47s0-.11,0-.16h0l-1-.27a.34.34,0,0,1-.21-.18c-.1-.22-.2-.44-.31-.66l-.81-1.74-.72-1.53-.13-.28-.45.79h0l0,0a3,3,0,0,1,.9,2.48,3.14,3.14,0,0,1-.24,1,2.63,2.63,0,0,1-1.45,1.46,2.19,2.19,0,0,1-1,.13l-.17,0-.27-.08h0l-.36-.16a2.78,2.78,0,0,1-1.29-1.73,3.31,3.31,0,0,1-.1-1.13c0-.07,0-.13,0-.19Zm3.64-.93,0,0-.75,1.33c-.08.16-.17.32-.26.47a.24.24,0,0,1-.34.11.32.32,0,0,1-.08-.42c.34-.6.68-1.2,1-1.8l0,0a1.83,1.83,0,0,0-2.53.9,2.44,2.44,0,0,0,.64,3.05,1.82,1.82,0,0,0,2.69-.65A2.48,2.48,0,0,0,209.62,209.6Zm4.47,3.51a2.34,2.34,0,0,0,1,2.26,1.8,1.8,0,0,0,2.4-.5,2.55,2.55,0,0,0,.16-2.77,1.85,1.85,0,0,0-1.8-1c0,.13.05.27.08.4l.33,1.73a.37.37,0,0,1,0,.18.24.24,0,0,1-.3.17l-1.85-.49Zm-3.43-5.35,1.93,4.13,2.11-3.06Zm4.62,2.9L215,209.3l-2,2.92.7.19A2.67,2.67,0,0,1,215.28,210.66Zm-1.07,1.88,1.51.4-.33-1.7A2.12,2.12,0,0,0,214.21,212.54Z" transform="translate(-169.32 -70.99)"/><path class="cls-17" d="M215.92,191.75a.87.87,0,0,1,.07-.17,2.59,2.59,0,0,1,.65-1,2.22,2.22,0,0,1,2.89-.24s0,0,.05,0l1.7-2.49a.73.73,0,0,1,.75-.34l.09,0,.82.31h0l-.16.54h0l-.76-.29a.24.24,0,0,0-.33.11l-.51.74,0,0h0l3.92,1.5s0,0,.06,0l.33-.4,0,0,0,0-.66-.25a.28.28,0,0,1-.17-.26.29.29,0,0,1,.14-.28.2.2,0,0,1,.2,0l1.78.68h0l-.16.55h0l-.53-.2s0,0-.05,0l-.54.65a.08.08,0,0,0,0,0c.07.6.13,1.2.19,1.8v0h.24a2.41,2.41,0,0,1,.82.24,2.65,2.65,0,0,1,1.24,1.44,3,3,0,0,1,.2,1.54,2.8,2.8,0,0,1-1.44,2.22,2.09,2.09,0,0,1-1.43.21l-.22,0h0l-.26-.1,0,0c-.12-.07-.25-.13-.37-.21a2.74,2.74,0,0,1-1-1.42,3.18,3.18,0,0,1-.12-1.5l0-.16h0l-1-.38a.34.34,0,0,1-.19-.2l-.25-.69c-.23-.61-.45-1.22-.67-1.83l-.59-1.59c0-.1-.07-.2-.11-.3l-.5.74h0l0,0a3.11,3.11,0,0,1,.69,2.57,2.93,2.93,0,0,1-.32.93,2.48,2.48,0,0,1-1.56,1.29,2.08,2.08,0,0,1-1,0l-.16,0-.27-.1,0,0c-.11-.07-.23-.12-.34-.2a2.79,2.79,0,0,1-1.14-1.86,2.92,2.92,0,0,1,0-1.14c0-.06,0-.12,0-.19Zm3.7-.53,0,0-.85,1.25-.31.44a.23.23,0,0,1-.34.07.32.32,0,0,1,0-.43l1.15-1.68,0,0a1.81,1.81,0,0,0-2.59.62,2.46,2.46,0,0,0,.38,3.11,1.8,1.8,0,0,0,2.74-.36A2.5,2.5,0,0,0,219.62,191.22Zm4.16,4a2.42,2.42,0,0,0,.84,2.36,1.79,1.79,0,0,0,2.43-.24,2.52,2.52,0,0,0,.39-2.73,1.93,1.93,0,0,0-1.71-1.17c0,.14,0,.27,0,.41.07.59.13,1.17.19,1.76a.37.37,0,0,1,0,.18.25.25,0,0,1-.32.13l-1.8-.68Zm-3-5.7,1.58,4.32,2.36-2.81Zm4.36,3.39-.15-1.38-2.25,2.68.68.26A2.61,2.61,0,0,1,225.17,192.89ZM224,194.64l1.47.57-.19-1.74A2.1,2.1,0,0,0,224,194.64Z" transform="translate(-169.32 -70.99)"/><path class="cls-17" d="M265.21,318.65c0-.07,0-.13,0-.19a3,3,0,0,1,.35-1.15,2.55,2.55,0,0,1,1.56-1.28,2.13,2.13,0,0,1,1.12,0s0,0,0,0l.93-3a.81.81,0,0,1,.62-.59h1V313H270c-.15,0-.23.07-.28.23s-.19.59-.28.89v0h4.18a.05.05,0,0,0,.05,0c.07-.16.14-.33.2-.49l0-.05h-.74a.23.23,0,0,1-.23-.18.31.31,0,0,1,.06-.32.22.22,0,0,1,.18-.08H275v.58h-.59a0,0,0,0,0-.05,0l-.33.81a0,0,0,0,0,0,.05l.67,1.63v0l.23-.07a2,2,0,0,1,.85-.07,2.36,2.36,0,0,1,1.58.9,2.87,2.87,0,0,1,.61,1.39,3.05,3.05,0,0,1-.76,2.63,2.21,2.21,0,0,1-1.29.72,1.66,1.66,0,0,1-.22,0h-.34a2.7,2.7,0,0,1-.41-.07,2.39,2.39,0,0,1-1.35-1,3,3,0,0,1-.53-1.37c0-.06,0-.11,0-.17H272a.26.26,0,0,1-.24-.12l-.43-.56-1.13-1.49c-.34-.43-.67-.87-1-1.3l-.19-.24-.27.88h0l0,0a2.84,2.84,0,0,1,1.36,2.19,3.06,3.06,0,0,1,0,1,2.82,2.82,0,0,1-1.13,1.79,2.14,2.14,0,0,1-1,.4l-.16,0h-.31c-.13,0-.26,0-.38-.06a2.48,2.48,0,0,1-1.6-1.35,2.82,2.82,0,0,1-.32-1.08c0-.06,0-.13,0-.19Zm3.37-1.85v0l-.47,1.49c-.05.18-.11.35-.16.53a.25.25,0,0,1-.31.19.31.31,0,0,1-.16-.39l.63-2v0a2,2,0,0,0-2.29,1.53,2.33,2.33,0,0,0,1.23,2.81,1.9,1.9,0,0,0,2.49-1.33A2.4,2.4,0,0,0,268.58,316.8Zm5,2.26a2.2,2.2,0,0,0,1.45,1.94,1.9,1.9,0,0,0,2.24-1.11,2.51,2.51,0,0,0-.39-2.73,1.75,1.75,0,0,0-1.94-.49c0,.12.1.25.16.37l.66,1.6a.37.37,0,0,1,0,.18.25.25,0,0,1-.26.24h-1.94Zm-4.39-4.32,2.7,3.52,1.45-3.52Zm5.07,1.62-.52-1.25-1.39,3.37h.72A2.93,2.93,0,0,1,274.3,316.36Zm-.67,2.12h1.54l-.65-1.58A2.34,2.34,0,0,0,273.63,318.48Z" transform="translate(-169.32 -70.99)"/><path class="cls-17" d="M264,344.07c0-.06,0-.12,0-.18a3,3,0,0,1,.35-1.15,2.49,2.49,0,0,1,1.56-1.28,2,2,0,0,1,1.12,0s0,0,0,0l.93-3a.84.84,0,0,1,.62-.6h1v.58h-.85c-.15,0-.23.07-.28.23l-.28.88v0h4.18s0,0,.05,0l.21-.5v0h-.74a.24.24,0,0,1-.23-.19.31.31,0,0,1,.06-.32.24.24,0,0,1,.18-.07h1.91V339h-.59s0,0-.05,0l-.33.81a0,0,0,0,0,0,0c.22.54.45,1.08.67,1.63v0l.23-.08a2.23,2.23,0,0,1,.85-.07,2.38,2.38,0,0,1,1.58.91,2.83,2.83,0,0,1,.61,1.39,3.05,3.05,0,0,1-.76,2.63,2.26,2.26,0,0,1-1.29.72l-.22,0h-.34l-.41-.07a2.39,2.39,0,0,1-1.35-1,3,3,0,0,1-.53-1.38s0-.1,0-.16h-1.08a.31.31,0,0,1-.24-.12c-.14-.19-.28-.38-.43-.56-.38-.5-.75-1-1.13-1.49l-1-1.3-.19-.24-.27.88h0l0,0a2.82,2.82,0,0,1,1.36,2.18,3.11,3.11,0,0,1,0,1,2.82,2.82,0,0,1-1.13,1.79,2.14,2.14,0,0,1-1,.4l-.16,0h-.31c-.13,0-.26,0-.38-.06a2.51,2.51,0,0,1-1.6-1.35,2.88,2.88,0,0,1-.32-1.08c0-.06,0-.13,0-.19Zm3.37-1.84v0c-.16.49-.31,1-.47,1.48-.05.18-.11.36-.16.54a.25.25,0,0,1-.31.18.3.3,0,0,1-.16-.39l.63-2v0a2,2,0,0,0-2.29,1.53,2.33,2.33,0,0,0,1.23,2.81,1.9,1.9,0,0,0,2.49-1.34A2.38,2.38,0,0,0,267.33,342.23Zm5,2.26a2.2,2.2,0,0,0,1.45,1.93,1.88,1.88,0,0,0,2.24-1.1,2.53,2.53,0,0,0-.39-2.74,1.77,1.77,0,0,0-1.94-.49c0,.13.1.25.16.38l.66,1.6a.35.35,0,0,1,0,.18.25.25,0,0,1-.26.24h-1.94ZM268,340.16l2.7,3.52,1.45-3.52Zm5.07,1.63-.52-1.25-1.39,3.36h.72A2.93,2.93,0,0,1,273.05,341.79Zm-.67,2.11h1.54l-.65-1.57A2.34,2.34,0,0,0,272.38,343.9Z" transform="translate(-169.32 -70.99)"/><path class="cls-17" d="M277.32,348.94l.13-.11a2.37,2.37,0,0,1,1-.48,2.26,2.26,0,0,1,1.88.46,2.68,2.68,0,0,1,.74.95s0,0,.05,0l2.55-1.22a.7.7,0,0,1,.8.12l.07.08.58.72v0l-.37.39,0,0-.54-.68a.25.25,0,0,0-.34-.09l-.75.36,0,0,0,0,2.79,3.51s0,0,.05,0l.46-.16h0l0,0c-.16-.2-.32-.39-.47-.59a.31.31,0,0,1-.05-.32.26.26,0,0,1,.25-.17.27.27,0,0,1,.17.1c.43.53.85,1.06,1.27,1.6l0,0-.37.39,0,0-.37-.47a.06.06,0,0,0-.05,0l-.75.27,0,0c-.2.56-.4,1.11-.59,1.67v0l.2.14a2.49,2.49,0,0,1,.62.67,3.13,3.13,0,0,1,.48,1.95,3,3,0,0,1-.49,1.45,2.32,2.32,0,0,1-2.2,1.13,2.23,2.23,0,0,1-1.33-.6l-.17-.18,0,0-.19-.23v0a3.07,3.07,0,0,1-.23-.39,3.11,3.11,0,0,1-.28-1.81,3,3,0,0,1,.53-1.37l.09-.12,0,0-.7-.88a.39.39,0,0,1-.08-.28c0-.25.05-.5.07-.75.07-.65.13-1.31.19-2s.12-1.15.17-1.72l0-.32-.75.36h0v0a3.12,3.12,0,0,1-.48,2.63,2.58,2.58,0,0,1-.68.64,2.17,2.17,0,0,1-1.91.25,2.32,2.32,0,0,1-.93-.57l-.12-.12L277,353l0,0c-.07-.13-.15-.24-.21-.37a3.15,3.15,0,0,1-.21-2.26,3,3,0,0,1,.48-1l.11-.14Zm3.46,1.61h0l-1.28.61-.45.22a.24.24,0,0,1-.33-.13.31.31,0,0,1,.15-.4l1.72-.82,0,0a1.85,1.85,0,0,0-2.53-.92,2.4,2.4,0,0,0-1,2.94,1.88,1.88,0,0,0,2.54,1.21A2.34,2.34,0,0,0,280.78,350.55Zm1.94,5.8a2.5,2.5,0,0,0-.26,2.53,1.88,1.88,0,0,0,2.22,1.15,2.22,2.22,0,0,0,1.49-2.17,2.26,2.26,0,0,0-1-2c0,.12-.09.25-.14.38-.19.54-.39,1.09-.58,1.64a.33.33,0,0,1-.1.14A.22.22,0,0,1,284,358l-1.28-1.6Zm-.17-6.64-.45,4.66,3.25-1.14Zm2.37,5.39.45-1.28-3.1,1.09.48.6A2.26,2.26,0,0,1,284.92,355.1Zm-1.82.86,1,1.31.57-1.62A1.8,1.8,0,0,0,283.1,356Z" transform="translate(-169.32 -70.99)"/><path class="cls-17" d="M290.83,334.25l.09-.16a2.72,2.72,0,0,1,.74-.87,2.23,2.23,0,0,1,1.89-.4,2.16,2.16,0,0,1,1,.55s0,0,.06,0c.64-.75,1.29-1.49,1.94-2.24a.7.7,0,0,1,.78-.24l.09,0,.78.42h0l-.22.53,0,0-.73-.39a.23.23,0,0,0-.34.07l-.58.66,0,0,0,0,3.75,2a0,0,0,0,0,.06,0c.12-.12.24-.24.37-.35l0,0,0,0-.63-.34a.3.3,0,0,1-.15-.28.31.31,0,0,1,.18-.26.25.25,0,0,1,.19,0l1.7.92h0l-.21.53,0,0-.51-.27H301l-.6.57a.08.08,0,0,0,0,0c0,.6,0,1.2,0,1.8v0l.24,0a2.42,2.42,0,0,1,.79.35,2.72,2.72,0,0,1,1.09,1.59,3,3,0,0,1,0,1.55,2.66,2.66,0,0,1-1.65,2,2.16,2.16,0,0,1-1.44,0l-.21-.09h0L299,342l0,0a3.1,3.1,0,0,1-.34-.27,2.89,2.89,0,0,1-.87-1.54,3.17,3.17,0,0,1,0-1.5c0-.05,0-.1.05-.16l0,0-.94-.5a.31.31,0,0,1-.17-.23l-.18-.72c-.16-.63-.33-1.26-.49-1.9l-.42-1.66c0-.1,0-.2-.08-.31l-.57.67h0l0,0a3.15,3.15,0,0,1,.43,2.64,2.69,2.69,0,0,1-.41.89,2.41,2.41,0,0,1-1.68,1.08,2.17,2.17,0,0,1-1-.12l-.16-.06-.26-.14,0,0a3.81,3.81,0,0,1-.32-.24,3,3,0,0,1-.95-2,2.85,2.85,0,0,1,.11-1.13,1.8,1.8,0,0,0,0-.19Zm3.74,0,0,0-1,1.13-.35.4a.22.22,0,0,1-.34,0,.3.3,0,0,1,0-.43c.43-.51.87-1,1.31-1.52l0,0a1.79,1.79,0,0,0-2.64.27,2.5,2.5,0,0,0,.08,3.14,1.79,1.79,0,0,0,2.75,0A2.51,2.51,0,0,0,294.57,334.21Zm3.73,4.5a2.45,2.45,0,0,0,.6,2.46,1.77,1.77,0,0,0,2.43.08,2.45,2.45,0,0,0,.66-2.66,2,2,0,0,0-1.58-1.39c0,.14,0,.28,0,.42v1.77a.33.33,0,0,1,0,.17.24.24,0,0,1-.33.1l-1.71-.92Zm-2.38-6,1.14,4.5,2.62-2.48Zm4,3.94v-1.39l-2.5,2.37.65.35A2.5,2.5,0,0,1,299.91,336.6Zm-1.39,1.58,1.4.76v-1.75A2,2,0,0,0,298.52,338.18Z" transform="translate(-169.32 -70.99)"/><path class="cls-17" d="M262.87,216.85a1.37,1.37,0,0,1,0-.19,2.81,2.81,0,0,1,.35-1.14,2.47,2.47,0,0,1,1.56-1.28,2.09,2.09,0,0,1,1.11,0s0,0,0,0l.93-3a.79.79,0,0,1,.62-.6h1v.58h-.84a.26.26,0,0,0-.28.22c-.1.3-.19.6-.28.89v0h4.18s0,0,0,0l.21-.5,0-.05h-.74a.26.26,0,0,1-.24-.18.33.33,0,0,1,.06-.32.27.27,0,0,1,.18-.08h1.92v.58h-.6s0,0,0,0l-.33.8a.11.11,0,0,0,0,0c.23.55.45,1.09.68,1.63v0l.23-.08a2.22,2.22,0,0,1,.85-.07,2.33,2.33,0,0,1,1.57.91,2.83,2.83,0,0,1,.61,1.39,3,3,0,0,1-.75,2.63,2.3,2.3,0,0,1-1.29.72l-.23,0h-.34c-.13,0-.27,0-.41-.08a2.46,2.46,0,0,1-1.35-1,3,3,0,0,1-.52-1.37.88.88,0,0,1,0-.16h-1.08a.29.29,0,0,1-.24-.12l-.43-.57-1.14-1.48-1-1.31a2.51,2.51,0,0,1-.19-.24l-.28.89h0a2.79,2.79,0,0,1,1.36,2.19,3.05,3.05,0,0,1-1.16,2.8,2.34,2.34,0,0,1-1,.39l-.17,0h-.31a2.53,2.53,0,0,1-.38-.07,2.51,2.51,0,0,1-1.6-1.35,3,3,0,0,1-.31-1.07,1.36,1.36,0,0,1,0-.2Zm3.37-1.85,0,0c-.15.5-.31,1-.46,1.49-.06.18-.11.36-.17.53a.25.25,0,0,1-.3.19.29.29,0,0,1-.16-.39l.63-2v0a2,2,0,0,0-2.3,1.52,2.36,2.36,0,0,0,1.23,2.82,1.91,1.91,0,0,0,2.49-1.34A2.38,2.38,0,0,0,266.24,215Zm5,2.27a2.18,2.18,0,0,0,1.45,1.93,1.89,1.89,0,0,0,2.24-1.11,2.53,2.53,0,0,0-.39-2.73,1.77,1.77,0,0,0-1.94-.49l.15.37.66,1.61a.25.25,0,0,1,0,.17.28.28,0,0,1-.26.25h-1.94Zm-4.39-4.33,2.69,3.52,1.46-3.52Zm5.07,1.63-.53-1.26L270,216.68h.72A2.94,2.94,0,0,1,272,214.57Zm-.68,2.11h1.55l-.65-1.58A2.34,2.34,0,0,0,271.28,216.68Z" transform="translate(-169.32 -70.99)"/><path class="cls-17" d="M280.85,210a1.23,1.23,0,0,1,0-.19,2.81,2.81,0,0,1,.35-1.14,2.44,2.44,0,0,1,1.56-1.28,2,2,0,0,1,1.11,0s0,0,.05,0l.93-3a.78.78,0,0,1,.61-.59h1v.57h-.84c-.15,0-.23.07-.29.23l-.27.89v0h4.17a0,0,0,0,0,0,0l.21-.5,0,0h-.74a.26.26,0,0,1-.24-.18.33.33,0,0,1,.06-.32.25.25,0,0,1,.18-.08h1.92v.58h-.6s0,0,0,0l-.33.81a.11.11,0,0,0,0,0c.23.55.45,1.09.68,1.63v0l.23-.08a2,2,0,0,1,.85-.07,2.36,2.36,0,0,1,1.57.9,2.87,2.87,0,0,1,.61,1.4,3,3,0,0,1-.75,2.62,2.31,2.31,0,0,1-1.29.73l-.23,0H291c-.13,0-.27,0-.41-.08a2.46,2.46,0,0,1-1.35-1,3,3,0,0,1-.52-1.37,1,1,0,0,1,0-.16h-1.08a.27.27,0,0,1-.24-.13l-.43-.56-1.14-1.49-1-1.3-.19-.24-.28.89h0l0,0a3.06,3.06,0,0,1,.2,5,2.23,2.23,0,0,1-1,.4l-.17,0h-.31c-.13,0-.26,0-.38-.07a2.51,2.51,0,0,1-1.6-1.35,3,3,0,0,1-.31-1.08,1.11,1.11,0,0,1,0-.19Zm3.37-1.85,0,0c-.15.5-.31,1-.46,1.49-.06.18-.11.36-.17.53a.25.25,0,0,1-.3.19.29.29,0,0,1-.16-.39c.21-.67.42-1.34.62-2l0-.05a2,2,0,0,0-2.3,1.53,2.37,2.37,0,0,0,1.23,2.82,1.91,1.91,0,0,0,2.49-1.34A2.39,2.39,0,0,0,284.22,208.12Zm5,2.27a2.18,2.18,0,0,0,1.45,1.93,1.9,1.9,0,0,0,2.24-1.11,2.53,2.53,0,0,0-.39-2.73,1.77,1.77,0,0,0-1.94-.49l.15.37.66,1.6a.29.29,0,0,1,0,.18.28.28,0,0,1-.26.25h-1.94Zm-4.4-4.33,2.7,3.52,1.46-3.52Zm5.08,1.63-.53-1.26L288,209.8h.72A2.94,2.94,0,0,1,289.94,207.69Zm-.68,2.11h1.55l-.65-1.58A2.31,2.31,0,0,0,289.26,209.8Z" transform="translate(-169.32 -70.99)"/><path class="cls-17" d="M286.07,192.52a1.11,1.11,0,0,1,0-.19,3,3,0,0,1,.35-1.14A2.54,2.54,0,0,1,288,189.9a2.09,2.09,0,0,1,1.11,0s0,0,.05,0l.93-3a.79.79,0,0,1,.62-.59h1v.57h-.84c-.15,0-.23.07-.28.23s-.19.59-.28.89v0h4.18s0,0,0,0l.21-.49,0-.05H294a.26.26,0,0,1-.24-.18.31.31,0,0,1,.07-.32.21.21,0,0,1,.17-.08h1.92v.58h-.6s0,0,0,0l-.33.81a0,0,0,0,0,0,.05c.22.54.44,1.09.67,1.63v0l.23-.07a2,2,0,0,1,.85-.07,2.32,2.32,0,0,1,1.57.9,2.87,2.87,0,0,1,.61,1.39,3,3,0,0,1-.75,2.63,2.24,2.24,0,0,1-1.29.72,1.66,1.66,0,0,1-.22,0h-.35a2.79,2.79,0,0,1-.4-.07,2.44,2.44,0,0,1-1.36-1,3,3,0,0,1-.52-1.37c0-.06,0-.11,0-.17h-1.08a.27.27,0,0,1-.24-.13l-.43-.56-1.14-1.49-1-1.3-.19-.24-.28.88h0l0,0a2.83,2.83,0,0,1,1.37,2.19,3.06,3.06,0,0,1,0,1,2.8,2.8,0,0,1-1.12,1.79,2.23,2.23,0,0,1-1,.4l-.16,0h-.32l-.38-.06a2.51,2.51,0,0,1-1.6-1.35,3,3,0,0,1-.31-1.08,1.23,1.23,0,0,1,0-.19Zm3.37-1.85,0,0c-.15.5-.31,1-.46,1.49l-.17.53a.24.24,0,0,1-.3.19.29.29,0,0,1-.16-.39l.63-2v0a2,2,0,0,0-2.3,1.53,2.35,2.35,0,0,0,1.23,2.81,1.91,1.91,0,0,0,2.5-1.33A2.4,2.4,0,0,0,289.44,190.67Zm5,2.26a2.19,2.19,0,0,0,1.45,1.94,1.91,1.91,0,0,0,2.24-1.11,2.51,2.51,0,0,0-.39-2.73,1.75,1.75,0,0,0-1.94-.49l.15.37.66,1.6a.29.29,0,0,1,0,.18.26.26,0,0,1-.26.24h-1.94Zm-4.39-4.32,2.69,3.52,1.46-3.52Zm5.07,1.62-.52-1.25-1.39,3.37H294A3,3,0,0,1,295.16,190.23Zm-.67,2.12H296l-.65-1.58A2.3,2.3,0,0,0,294.49,192.35Z" transform="translate(-169.32 -70.99)"/><path class="cls-17" d="M285.45,231.4a1.1,1.1,0,0,0,0-.18,3.21,3.21,0,0,1,.35-1.15,2.49,2.49,0,0,1,1.56-1.28,2.13,2.13,0,0,1,1.12,0s0,0,.05,0l.93-3a.81.81,0,0,1,.61-.6h1v.58h-.85a.28.28,0,0,0-.28.23l-.27.88,0,0h4.18s0,0,.05,0l.21-.5,0,0h-.75a.25.25,0,0,1-.23-.18.35.35,0,0,1,.06-.33.24.24,0,0,1,.18-.07h1.91v.58h-.59s0,0,0,0l-.34.81v0c.23.54.45,1.08.68,1.63v0l.23-.07a2,2,0,0,1,.84-.08,2.35,2.35,0,0,1,1.58.91,2.87,2.87,0,0,1,.61,1.39,3,3,0,0,1-.75,2.63,2.24,2.24,0,0,1-1.29.72l-.23,0h-.34a2.93,2.93,0,0,1-.41-.07,2.39,2.39,0,0,1-1.35-1,3,3,0,0,1-.53-1.38s0-.1,0-.16h-1.08a.29.29,0,0,1-.24-.12l-.43-.56-1.14-1.49-1-1.3-.18-.24L289,229h0l0,0a2.82,2.82,0,0,1,1.36,2.18,2.85,2.85,0,0,1,0,1,2.82,2.82,0,0,1-1.13,1.79,2.14,2.14,0,0,1-1,.4l-.16,0h-.31c-.13,0-.26,0-.38-.06a2.51,2.51,0,0,1-1.6-1.35,3,3,0,0,1-.32-1.08,1.23,1.23,0,0,0,0-.19Zm3.37-1.84v0c-.16.49-.31,1-.46,1.49-.06.17-.12.35-.17.53a.24.24,0,0,1-.31.18.3.3,0,0,1-.16-.39l.63-2v0a2,2,0,0,0-2.29,1.53,2.34,2.34,0,0,0,1.23,2.81,1.9,1.9,0,0,0,2.49-1.34A2.38,2.38,0,0,0,288.82,229.56Zm5.05,2.26a2.17,2.17,0,0,0,1.45,1.93,1.87,1.87,0,0,0,2.23-1.1,2.51,2.51,0,0,0-.39-2.74,1.74,1.74,0,0,0-1.94-.48c.06.12.11.24.16.37l.66,1.6a.36.36,0,0,1,0,.18.27.27,0,0,1-.27.24h-1.93Zm-4.4-4.33,2.7,3.53,1.45-3.53Zm5.07,1.63-.52-1.25-1.39,3.36h.72A3,3,0,0,1,294.54,229.12Zm-.67,2.11h1.55l-.65-1.57A2.31,2.31,0,0,0,293.87,231.23Z" transform="translate(-169.32 -70.99)"/><path class="cls-17" d="M305.73,237.38c0-.07,0-.13,0-.19a3,3,0,0,1,.2-1.19,2.66,2.66,0,0,1,1.36-1.55,2.25,2.25,0,0,1,1.11-.19s0,0,0,0c.17-1,.35-2.07.52-3.11a.86.86,0,0,1,.53-.7l.09,0,.85-.16h0l.08.57h0l-.79.14a.28.28,0,0,0-.25.27c-.05.31-.11.62-.16.93v0h0l4.1-.73s0,0,0,0,.09-.35.14-.53v0h0l-.69.13a.24.24,0,0,1-.26-.14.32.32,0,0,1,0-.33.25.25,0,0,1,.16-.11l1.86-.33h0l.08.57h0l-.56.1s0,0,0,0c-.08.29-.15.57-.22.86a0,0,0,0,0,0,.05l.89,1.49v0a1.51,1.51,0,0,1,.22-.11,2,2,0,0,1,.82-.22,2.23,2.23,0,0,1,1.68.61,2.75,2.75,0,0,1,.79,1.27,3.13,3.13,0,0,1-.39,2.73,2.35,2.35,0,0,1-1.18.94l-.22.07h0l-.27.05h-.45a2.3,2.3,0,0,1-1.47-.73,3,3,0,0,1-.7-1.27.83.83,0,0,0,0-.15h0l-1,.18a.29.29,0,0,1-.26-.08l-.5-.48-1.32-1.27-1.16-1.11-.22-.21-.15.93h0l0,0a2.66,2.66,0,0,1,1.64,1.92,2.79,2.79,0,0,1,.09,1,2.92,2.92,0,0,1-.87,2,2.38,2.38,0,0,1-.92.56l-.16,0-.28.05h0a2.54,2.54,0,0,1-.39,0,2.35,2.35,0,0,1-1.76-1.05,2.81,2.81,0,0,1-.45-1c0-.06,0-.12-.05-.18Zm3.08-2.42v0c-.09.52-.17,1-.26,1.55l-.09.56a.25.25,0,0,1-.28.23A.28.28,0,0,1,308,237c.12-.7.24-1.4.35-2.1v0a2,2,0,0,0-2.06,1.91,2.23,2.23,0,0,0,1.59,2.56,2,2,0,0,0,2.28-1.76A2.28,2.28,0,0,0,308.81,235Zm5.29,1.35a2.05,2.05,0,0,0,1.69,1.65,2,2,0,0,0,2.06-1.49,2.45,2.45,0,0,0-.75-2.63,1.74,1.74,0,0,0-2-.14l.2.34.87,1.47a.31.31,0,0,1,.05.17.29.29,0,0,1-.23.29l-1.87.33Zm-4.92-3.51,3.13,3,1-3.74Zm5.23.72-.69-1.15-.92,3.57.71-.12A3.06,3.06,0,0,1,314.41,233.52Zm-.39,2.2,1.53-.27-.86-1.44A2.47,2.47,0,0,0,314,235.72Z" transform="translate(-169.32 -70.99)"/><path class="cls-17" d="M305.84,217.72a1.1,1.1,0,0,0,0-.18,3.08,3.08,0,0,1,.14-1.21,2.74,2.74,0,0,1,1.29-1.63,2.19,2.19,0,0,1,1.09-.26s0,0,0,0c.12-1,.24-2.09.37-3.13a.86.86,0,0,1,.49-.73l.09,0,.84-.2h0l.11.57h0l-.79.19c-.14,0-.21.12-.23.29s-.07.62-.11.93v0h0l4-1s0,0,0,0l.12-.54v-.05h0l-.68.17a.23.23,0,0,1-.26-.12.32.32,0,0,1,0-.33.24.24,0,0,1,.16-.12l1.84-.45h0l.11.57h0l-.54.13s0,0,0,0l-.18.87a.07.07,0,0,0,0,0l1,1.43v0l.21-.13a2.2,2.2,0,0,1,.82-.27,2.23,2.23,0,0,1,1.7.51,2.57,2.57,0,0,1,.85,1.21A3.13,3.13,0,0,1,318,217a2.47,2.47,0,0,1-1.13,1l-.22.08,0,0-.27.06h0l-.41,0a2.26,2.26,0,0,1-1.5-.63,2.83,2.83,0,0,1-.77-1.22l-.05-.15h0l-1,.25a.28.28,0,0,1-.26-.07l-.52-.44-1.39-1.18-1.21-1-.22-.19-.11.93h0a2.63,2.63,0,0,1,1.73,1.81,2.76,2.76,0,0,1,.14,1,3,3,0,0,1-.77,2,2.31,2.31,0,0,1-.9.63L309,220l-.28.07h0c-.13,0-.25,0-.38,0a2.35,2.35,0,0,1-1.81-.94,2.78,2.78,0,0,1-.51-1c0-.06,0-.12-.05-.18Zm3-2.61v0l-.18,1.57c0,.18,0,.37-.07.56a.25.25,0,0,1-.26.25.28.28,0,0,1-.23-.34c.08-.71.17-1.41.25-2.12v0a2.08,2.08,0,0,0-2,2,2.21,2.21,0,0,0,1.71,2.46,2,2,0,0,0,2.2-1.91A2.26,2.26,0,0,0,308.8,215.11Zm5.34,1a1.91,1.91,0,0,0,3.76-.08,2.44,2.44,0,0,0-.88-2.58,1.74,1.74,0,0,0-2,0c.08.11.15.22.22.33l.94,1.4a.35.35,0,0,1,.06.17.28.28,0,0,1-.21.3l-1.86.46Zm-5.08-3.18,3.28,2.8.77-3.79Zm5.25.38-.74-1.1-.74,3.62.7-.17A3.12,3.12,0,0,1,314.31,213.31Zm-.27,2.22,1.51-.37-.92-1.38A2.42,2.42,0,0,0,314,215.53Z" transform="translate(-169.32 -70.99)"/><path class="cls-17" d="M289.23,256.35a1.37,1.37,0,0,0,0-.19,3.16,3.16,0,0,1,.35-1.14,2.54,2.54,0,0,1,1.56-1.29,2.13,2.13,0,0,1,1.12,0s0,0,0,0c.31-1,.62-2,.94-3a.78.78,0,0,1,.61-.59h1v.57H294c-.15,0-.23.07-.28.23s-.18.59-.28.89v0h4.18s0,0,.05,0l.21-.49v-.05h-.74a.25.25,0,0,1-.23-.18.31.31,0,0,1,.06-.32.22.22,0,0,1,.18-.08h1.91v.58h-.59s0,0,0,0c-.12.27-.23.54-.34.81v0c.23.54.45,1.09.68,1.63v0l.23-.07a2,2,0,0,1,.84-.07,2.34,2.34,0,0,1,1.58.9A2.87,2.87,0,0,1,302,256a3.08,3.08,0,0,1-.75,2.63,2.24,2.24,0,0,1-1.29.72l-.23,0h-.34a2.7,2.7,0,0,1-.41-.07,2.39,2.39,0,0,1-1.35-1,3,3,0,0,1-.53-1.37.78.78,0,0,0,0-.16h-1.07a.27.27,0,0,1-.24-.13l-.43-.56-1.14-1.49c-.33-.43-.67-.86-1-1.3l-.18-.24-.28.88h0l0,0a2.84,2.84,0,0,1,1.36,2.19,3.06,3.06,0,0,1,0,1,2.82,2.82,0,0,1-1.13,1.79,2.14,2.14,0,0,1-1,.4l-.16,0h-.31c-.13,0-.26,0-.38-.06a2.51,2.51,0,0,1-1.6-1.35,3,3,0,0,1-.32-1.08,1.23,1.23,0,0,0,0-.19Zm3.37-1.85v0l-.47,1.49c-.05.18-.11.35-.16.53a.25.25,0,0,1-.31.19.31.31,0,0,1-.16-.39l.63-2v0a2,2,0,0,0-2.29,1.53,2.34,2.34,0,0,0,1.23,2.81,1.9,1.9,0,0,0,2.49-1.33A2.4,2.4,0,0,0,292.6,254.5Zm5,2.27a2.21,2.21,0,0,0,1.46,1.93,1.89,1.89,0,0,0,2.23-1.11,2.49,2.49,0,0,0-.39-2.73,1.75,1.75,0,0,0-1.94-.49c.06.12.11.25.16.37l.66,1.6a.38.38,0,0,1,0,.18.29.29,0,0,1-.27.25h-1.94Zm-4.39-4.33L296,256l1.45-3.52Zm5.07,1.62-.52-1.25-1.39,3.37h.72A2.93,2.93,0,0,1,298.32,254.06Zm-.67,2.12h1.55l-.66-1.58A2.34,2.34,0,0,0,297.65,256.18Z" transform="translate(-169.32 -70.99)"/><path class="cls-17" d="M267.62,269.23a1.23,1.23,0,0,1,0-.19,3,3,0,0,1,.35-1.14,2.54,2.54,0,0,1,1.56-1.29,2.09,2.09,0,0,1,1.11,0s0,0,0,0l.93-3a.79.79,0,0,1,.62-.59h1v.57h-.84c-.15,0-.23.07-.28.23s-.19.59-.28.89v0H276s0,0,0,0l.21-.49,0,0h-.74a.26.26,0,0,1-.24-.18.31.31,0,0,1,.07-.32.21.21,0,0,1,.17-.08h1.92v.58h-.6s0,0,0,0l-.33.81a0,0,0,0,0,0,.05c.22.54.44,1.09.67,1.63v0l.23-.07a2,2,0,0,1,.85-.07,2.32,2.32,0,0,1,1.57.9,2.87,2.87,0,0,1,.61,1.39,3,3,0,0,1-.75,2.63,2.24,2.24,0,0,1-1.29.72,1.66,1.66,0,0,1-.22,0h-.35a2.79,2.79,0,0,1-.4-.07,2.44,2.44,0,0,1-1.36-1,3,3,0,0,1-.52-1.37c0-.06,0-.11,0-.16h-1.08a.27.27,0,0,1-.24-.13l-.43-.56-1.14-1.49-1-1.3-.19-.24-.28.89h0l0,0a2.83,2.83,0,0,1,1.37,2.19,3.06,3.06,0,0,1-.05,1,2.8,2.8,0,0,1-1.12,1.79,2.23,2.23,0,0,1-1,.4l-.16,0h-.32l-.38-.06a2.51,2.51,0,0,1-1.6-1.35,3,3,0,0,1-.31-1.08,1.11,1.11,0,0,1,0-.19Zm3.37-1.85,0,0c-.15.5-.31,1-.46,1.49l-.17.53a.24.24,0,0,1-.3.19.29.29,0,0,1-.16-.39l.63-2v0a2,2,0,0,0-2.3,1.53,2.37,2.37,0,0,0,1.23,2.82,1.92,1.92,0,0,0,2.5-1.34A2.4,2.4,0,0,0,271,267.38Zm5,2.27a2.18,2.18,0,0,0,1.45,1.93,1.9,1.9,0,0,0,2.24-1.11,2.51,2.51,0,0,0-.39-2.73,1.75,1.75,0,0,0-1.94-.49l.15.37.66,1.6a.29.29,0,0,1,0,.18.27.27,0,0,1-.26.25H276Zm-4.39-4.33,2.69,3.52,1.46-3.52Zm5.07,1.62-.52-1.25-1.39,3.37h.71A3,3,0,0,1,276.71,266.94Zm-.67,2.12h1.54l-.65-1.58A2.3,2.3,0,0,0,276,269.06Z" transform="translate(-169.32 -70.99)"/><path class="cls-17" d="M289.23,285.78a1.1,1.1,0,0,0,0-.18,3.21,3.21,0,0,1,.35-1.15,2.49,2.49,0,0,1,1.56-1.28,2,2,0,0,1,1.12,0s0,0,0,0c.31-1,.62-2,.94-3a.81.81,0,0,1,.61-.6h1v.58H294c-.15,0-.23.07-.28.23s-.18.59-.28.88v0h4.18s0,0,.05,0l.21-.5v0h-.74a.25.25,0,0,1-.23-.18.33.33,0,0,1,.06-.33.24.24,0,0,1,.18-.07h1.91v.58h-.59s0,0,0,0c-.12.27-.23.54-.34.81v.05c.23.54.45,1.08.68,1.63v0l.23-.08a2.16,2.16,0,0,1,.84-.07,2.35,2.35,0,0,1,1.58.91,2.83,2.83,0,0,1,.61,1.39,3.08,3.08,0,0,1-.75,2.63,2.3,2.3,0,0,1-1.29.72l-.23,0h-.34l-.41-.07a2.39,2.39,0,0,1-1.35-1,3,3,0,0,1-.53-1.38,1,1,0,0,0,0-.16h-1.07a.29.29,0,0,1-.24-.12l-.43-.56L294.24,284l-1-1.3-.18-.24-.28.88h0l0,0a2.82,2.82,0,0,1,1.36,2.18,3.11,3.11,0,0,1,0,1,2.82,2.82,0,0,1-1.13,1.79,2.14,2.14,0,0,1-1,.4l-.16,0h-.31c-.13,0-.26,0-.38-.06a2.54,2.54,0,0,1-1.6-1.35,3.07,3.07,0,0,1-.32-1.08,1.23,1.23,0,0,0,0-.19Zm3.37-1.84v0c-.16.49-.31,1-.47,1.49-.05.17-.11.35-.16.53a.24.24,0,0,1-.31.18.3.3,0,0,1-.16-.39l.63-2v0a2,2,0,0,0-2.29,1.53,2.34,2.34,0,0,0,1.23,2.81,1.9,1.9,0,0,0,2.49-1.34A2.38,2.38,0,0,0,292.6,283.94Zm5,2.26a2.21,2.21,0,0,0,1.46,1.93,1.87,1.87,0,0,0,2.23-1.1,2.51,2.51,0,0,0-.39-2.74,1.74,1.74,0,0,0-1.94-.48c.06.12.11.24.16.37l.66,1.6a.36.36,0,0,1,0,.18.27.27,0,0,1-.27.24h-1.94Zm-4.39-4.33,2.7,3.52,1.45-3.52Zm5.07,1.63-.52-1.25-1.39,3.36h.72A2.93,2.93,0,0,1,298.32,283.5Zm-.67,2.11h1.55l-.66-1.57A2.34,2.34,0,0,0,297.65,285.61Z" transform="translate(-169.32 -70.99)"/><path class="cls-17" d="M307.17,273.42a1.22,1.22,0,0,1,.07-.17,2.79,2.79,0,0,1,.61-1,2.29,2.29,0,0,1,1.81-.73,2.2,2.2,0,0,1,1.07.36s0,0,0,0l1.62-2.56a.73.73,0,0,1,.74-.38l.09,0,.83.28h0l-.14.56h0l-.77-.26a.25.25,0,0,0-.33.13l-.48.76,0,0,0,0,4,1.32s0,0,.05,0,.22-.27.32-.41l0,0,0,0-.67-.22a.29.29,0,0,1-.18-.25.29.29,0,0,1,.14-.29.21.21,0,0,1,.19,0l1.8.61h0l-.14.55h0l-.54-.18s0,0,0,0l-.51.67a.08.08,0,0,0,0,.05c.09.59.17,1.18.25,1.78v0h.24a2,2,0,0,1,.83.21,2.59,2.59,0,0,1,1.29,1.37,3.08,3.08,0,0,1,.25,1.53,2.84,2.84,0,0,1-1.36,2.29,2.14,2.14,0,0,1-1.42.28l-.22-.05h0l-.27-.09,0,0a3.35,3.35,0,0,1-.37-.2A2.71,2.71,0,0,1,314.8,278a3.15,3.15,0,0,1-.17-1.49.88.88,0,0,1,0-.16h0l-1-.34a.31.31,0,0,1-.2-.19l-.27-.68-.74-1.79-.63-1.57-.12-.29-.49.76h0l0,0a3.05,3.05,0,0,1,.78,2.53,2.88,2.88,0,0,1-.28,1,2.52,2.52,0,0,1-1.52,1.35,2,2,0,0,1-1.05.07l-.16,0-.27-.09,0,0-.35-.18a2.81,2.81,0,0,1-1.2-1.81,3.11,3.11,0,0,1-.05-1.14l0-.19Zm3.69-.69,0,0c-.27.43-.53.86-.8,1.28l-.29.46a.23.23,0,0,1-.34.08.31.31,0,0,1-.06-.42l1.09-1.74,0,0a1.82,1.82,0,0,0-2.57.73,2.47,2.47,0,0,0,.5,3.1,1.8,1.8,0,0,0,2.71-.49A2.48,2.48,0,0,0,310.86,272.73Zm4.29,3.79a2.37,2.37,0,0,0,.92,2.31,1.79,1.79,0,0,0,2.42-.34,2.53,2.53,0,0,0,.29-2.75,1.87,1.87,0,0,0-1.74-1.09c0,.13,0,.27,0,.41.09.58.17,1.16.25,1.74a.27.27,0,0,1,0,.18.25.25,0,0,1-.31.16l-1.82-.61ZM312,271l1.74,4.25,2.25-2.92Zm4.48,3.19-.2-1.37-2.15,2.79.69.23A2.62,2.62,0,0,1,316.46,274.14ZM315.3,276l1.48.5-.24-1.72A2.07,2.07,0,0,0,315.3,276Z" transform="translate(-169.32 -70.99)"/><path class="cls-17" d="M311.12,256.73c0-.06,0-.12,0-.18a2.85,2.85,0,0,1,.5-1.07,2.34,2.34,0,0,1,1.71-1,2.06,2.06,0,0,1,1.11.2s0,0,0,0l1.32-2.78a.76.76,0,0,1,.69-.48h.09l.86.15h0l-.08.57h0l-.79-.14a.26.26,0,0,0-.31.18c-.13.27-.26.55-.4.83v0h0l4.1.73s0,0,.05,0l.27-.45,0,0h0l-.69-.12a.29.29,0,0,1-.21-.23.31.31,0,0,1,.11-.3.22.22,0,0,1,.19-.05l1.85.34h0l-.08.57h0l-.55-.1s0,0-.05,0l-.43.74s0,0,0,0l.45,1.73v0l.24,0a2.22,2.22,0,0,1,.85.08,2.52,2.52,0,0,1,1.43,1.17,3.14,3.14,0,0,1-.67,3.95,2.21,2.21,0,0,1-1.37.49h-.26l-.28-.05h0c-.13-.05-.27-.09-.39-.15a2.54,2.54,0,0,1-1.21-1.21,3,3,0,0,1-.33-1.45v-.16h0l-1-.18a.3.3,0,0,1-.22-.16c-.11-.21-.23-.42-.35-.63-.31-.56-.61-1.12-.92-1.67l-.81-1.46-.15-.27-.4.82h0l0,0a3,3,0,0,1,1,2.4,3,3,0,0,1-.17,1,2.71,2.71,0,0,1-1.35,1.57,2.22,2.22,0,0,1-1,.22h-.16l-.28-.05h0a3.82,3.82,0,0,1-.36-.13,2.62,2.62,0,0,1-1.4-1.61,3.07,3.07,0,0,1-.17-1.13v-.19Zm3.57-1.23,0,0-.65,1.38-.24.5a.23.23,0,0,1-.33.13.3.3,0,0,1-.1-.41l.89-1.88,0,0a1.87,1.87,0,0,0-2.47,1.11,2.41,2.41,0,0,0,.83,3,1.85,1.85,0,0,0,2.65-.88A2.46,2.46,0,0,0,314.69,255.5Zm4.68,3.12a2.33,2.33,0,0,0,1.18,2.17,1.82,1.82,0,0,0,2.36-.7,2.55,2.55,0,0,0,0-2.77,1.83,1.83,0,0,0-1.85-.83c0,.14.06.27.1.4l.44,1.7a.37.37,0,0,1,0,.18.24.24,0,0,1-.29.19l-1.87-.33Zm-3.76-5.05,2.19,4,1.91-3.23Zm4.8,2.5-.35-1.33-1.83,3.09.71.12A2.83,2.83,0,0,1,320.41,256.07Zm-1,2,1.53.27-.44-1.67A2.2,2.2,0,0,0,319.46,258Z" transform="translate(-169.32 -70.99)"/><path class="cls-17" d="M282.56,312.56a1.23,1.23,0,0,0,0-.19,3.16,3.16,0,0,1,.35-1.14,2.49,2.49,0,0,1,1.56-1.28,2,2,0,0,1,1.12,0s0,0,.05,0c.31-1,.61-2,.93-3a.78.78,0,0,1,.61-.59h1v.58h-.85a.27.27,0,0,0-.28.22l-.27.89,0,0h4.18a0,0,0,0,0,.05,0l.21-.5,0-.05h-.75a.25.25,0,0,1-.23-.18.33.33,0,0,1,.06-.32.25.25,0,0,1,.18-.08h1.91v.58h-.59s0,0,0,0l-.34.81v.05c.23.55.45,1.09.68,1.63v0l.23-.08a2,2,0,0,1,.84-.07,2.38,2.38,0,0,1,1.58.9,2.87,2.87,0,0,1,.61,1.4,3,3,0,0,1-.75,2.62,2.26,2.26,0,0,1-1.29.73l-.23,0h-.34c-.14,0-.28,0-.41-.08a2.39,2.39,0,0,1-1.35-1,3,3,0,0,1-.53-1.37.88.88,0,0,0,0-.16h-1.07a.27.27,0,0,1-.24-.13c-.15-.18-.29-.37-.43-.56l-1.14-1.49c-.33-.43-.67-.86-1-1.3-.06-.08-.12-.15-.18-.24l-.28.89h0l0,0a2.84,2.84,0,0,1,1.36,2.19,3,3,0,0,1-1.17,2.79,2.14,2.14,0,0,1-1,.4l-.16,0h-.31c-.13,0-.26,0-.38-.07a2.51,2.51,0,0,1-1.6-1.35,3,3,0,0,1-.32-1.07,1.36,1.36,0,0,0,0-.2Zm3.37-1.85v0l-.47,1.49c-.05.18-.11.36-.16.53a.25.25,0,0,1-.31.19.31.31,0,0,1-.16-.39l.63-2v0a1.94,1.94,0,0,0-2.29,1.52,2.35,2.35,0,0,0,1.23,2.82,1.91,1.91,0,0,0,2.49-1.34A2.4,2.4,0,0,0,285.93,310.71Zm5,2.27a2.21,2.21,0,0,0,1.46,1.93,1.88,1.88,0,0,0,2.23-1.11,2.49,2.49,0,0,0-.39-2.73,1.77,1.77,0,0,0-1.94-.49c.06.12.11.25.16.37l.66,1.6a.38.38,0,0,1,0,.18.28.28,0,0,1-.27.25H291Zm-4.39-4.33,2.7,3.52,1.45-3.52Zm5.07,1.63-.52-1.26-1.39,3.37h.72A2.89,2.89,0,0,1,291.65,310.28Zm-.67,2.11h1.55l-.65-1.58A2.31,2.31,0,0,0,291,312.39Z" transform="translate(-169.32 -70.99)"/><path class="cls-17" d="M305.33,304.73l.06-.17a2.62,2.62,0,0,1,.59-1,2.3,2.3,0,0,1,1.78-.8,2.16,2.16,0,0,1,1.08.32s0,0,.05,0l1.55-2.62a.73.73,0,0,1,.72-.41l.1,0,.83.24h0l-.12.56h0l-.78-.23a.25.25,0,0,0-.32.14c-.16.26-.31.52-.46.78l0,0,0,0,4,1.17s0,0,.05,0l.31-.42,0,0h0l-.68-.2a.27.27,0,0,1-.19-.25.32.32,0,0,1,.13-.29.21.21,0,0,1,.19,0L316,302h0l-.12.56h0l-.54-.16a.06.06,0,0,0-.05,0l-.49.69a.08.08,0,0,0,0,.05c.1.59.2,1.18.31,1.77v0h.24a2,2,0,0,1,.84.17,2.59,2.59,0,0,1,1.33,1.32,3.06,3.06,0,0,1,.29,1.52,2.83,2.83,0,0,1-1.3,2.34,2.11,2.11,0,0,1-1.4.33l-.23,0h0l-.27-.08h0a3.37,3.37,0,0,1-.38-.19,2.74,2.74,0,0,1-1.1-1.33,3.11,3.11,0,0,1-.21-1.48c0-.06,0-.11,0-.16l0,0-1-.29a.31.31,0,0,1-.2-.19l-.3-.66-.78-1.77-.69-1.54-.12-.29-.46.78h0l0,0a3,3,0,0,1,.85,2.5,3,3,0,0,1-.26,1,2.57,2.57,0,0,1-1.47,1.41,2,2,0,0,1-1.05.1l-.16,0-.28-.08,0,0a2.37,2.37,0,0,1-.36-.17,2.8,2.8,0,0,1-1.26-1.76,3.07,3.07,0,0,1-.07-1.13c0-.06,0-.13,0-.19Zm3.66-.83,0,0c-.26.43-.51.87-.77,1.31-.09.15-.18.31-.28.46a.22.22,0,0,1-.33.1.31.31,0,0,1-.07-.42l1-1.78,0,0a1.83,1.83,0,0,0-2.55.83,2.46,2.46,0,0,0,.58,3.07,1.82,1.82,0,0,0,2.71-.59A2.48,2.48,0,0,0,309,303.9Zm4.4,3.62a2.38,2.38,0,0,0,1,2.29,1.8,1.8,0,0,0,2.41-.44,2.54,2.54,0,0,0,.21-2.76,1.84,1.84,0,0,0-1.77-1l.06.4.3,1.74a.37.37,0,0,1,0,.18.25.25,0,0,1-.31.16l-1.84-.53Zm-3.32-5.44,1.85,4.18,2.17-3Zm4.56,3-.23-1.36-2.08,2.86.7.21A2.69,2.69,0,0,1,314.63,305.1ZM313.52,307l1.5.43-.29-1.71A2.16,2.16,0,0,0,313.52,307Z" transform="translate(-169.32 -70.99)"/><path class="cls-17" d="M267.9,297c0-.06,0-.12,0-.18a3,3,0,0,1,.35-1.15,2.49,2.49,0,0,1,1.56-1.28,2.13,2.13,0,0,1,1.12,0s0,0,0,0c.31-1,.62-2,.94-3a.81.81,0,0,1,.61-.6h1v.58h-.85c-.15,0-.23.06-.28.23s-.18.59-.28.88v0h4.18s0,0,.05,0l.21-.5v0h-.74a.24.24,0,0,1-.23-.19.31.31,0,0,1,.06-.32.24.24,0,0,1,.18-.07h1.91v.58h-.59s0,0-.05,0l-.33.81a0,0,0,0,0,0,.05c.22.54.45,1.08.67,1.63v0l.24-.08a2.16,2.16,0,0,1,.84-.07,2.35,2.35,0,0,1,1.58.91,2.83,2.83,0,0,1,.61,1.39,3.05,3.05,0,0,1-.76,2.63,2.27,2.27,0,0,1-1.28.72l-.23,0h-.34l-.41-.07a2.39,2.39,0,0,1-1.35-1,3.06,3.06,0,0,1-.53-1.38,1,1,0,0,0,0-.16h-1.08a.31.31,0,0,1-.24-.12c-.14-.19-.28-.38-.43-.56-.37-.5-.75-1-1.13-1.49l-1-1.3-.18-.24-.28.88h0l0,0a2.82,2.82,0,0,1,1.36,2.18,3.11,3.11,0,0,1,0,1,2.82,2.82,0,0,1-1.13,1.79,2,2,0,0,1-1,.39l-.16,0h-.31c-.13,0-.26,0-.38-.06a2.51,2.51,0,0,1-1.6-1.35,2.93,2.93,0,0,1-.32-1.08c0-.07,0-.13,0-.19Zm3.37-1.84v0c-.16.49-.31,1-.47,1.48-.05.18-.11.36-.16.54a.25.25,0,0,1-.31.18.3.3,0,0,1-.16-.39l.63-2v0a1.94,1.94,0,0,0-2.29,1.53,2.33,2.33,0,0,0,1.23,2.81,1.9,1.9,0,0,0,2.49-1.34A2.38,2.38,0,0,0,271.27,295.13Zm5,2.26a2.19,2.19,0,0,0,1.46,1.93,1.87,1.87,0,0,0,2.23-1.11,2.51,2.51,0,0,0-.39-2.73,1.77,1.77,0,0,0-1.94-.49c.05.13.1.25.16.38l.66,1.6a.35.35,0,0,1,0,.18.25.25,0,0,1-.26.24h-1.94Zm-4.39-4.33,2.7,3.52,1.45-3.52Zm5.07,1.63-.52-1.25-1.39,3.36h.72A2.93,2.93,0,0,1,277,294.69Zm-.67,2.11h1.55l-.66-1.57A2.34,2.34,0,0,0,276.32,296.8Z" transform="translate(-169.32 -70.99)"/><path class="cls-17" d="M267.45,245.66a1.23,1.23,0,0,0,0-.19,3.16,3.16,0,0,1,.35-1.14,2.49,2.49,0,0,1,1.56-1.28,2,2,0,0,1,1.12,0s0,0,.05,0l.93-3a.78.78,0,0,1,.61-.59h1V240h-.85a.27.27,0,0,0-.28.22l-.27.89,0,0h4.18a0,0,0,0,0,.05,0l.21-.5,0,0h-.75a.25.25,0,0,1-.23-.18.33.33,0,0,1,.06-.32.25.25,0,0,1,.18-.08h1.91v.58h-.59s0,0,0,0l-.34.81v0c.23.55.45,1.09.68,1.63v0l.23-.08a2,2,0,0,1,.84-.07,2.35,2.35,0,0,1,1.58.91,2.79,2.79,0,0,1,.61,1.39,3,3,0,0,1-.75,2.62,2.26,2.26,0,0,1-1.29.73l-.23,0h-.34c-.14,0-.27,0-.41-.08a2.39,2.39,0,0,1-1.35-1,3,3,0,0,1-.53-1.37c0-.05,0-.11,0-.16h-1.08A.27.27,0,0,1,274,246c-.15-.18-.29-.37-.43-.56l-1.14-1.49c-.33-.43-.67-.86-1-1.3l-.18-.24-.28.89h0l0,0a2.84,2.84,0,0,1,1.36,2.19,3,3,0,0,1-1.17,2.79,2.14,2.14,0,0,1-1,.4l-.16,0h-.31c-.13,0-.26,0-.38-.07a2.51,2.51,0,0,1-1.6-1.35,3,3,0,0,1-.32-1.07,1.36,1.36,0,0,0,0-.2Zm3.37-1.85v0c-.16.5-.31,1-.46,1.49-.06.18-.12.36-.17.53a.25.25,0,0,1-.31.19.31.31,0,0,1-.16-.39l.63-2v0a1.94,1.94,0,0,0-2.29,1.52,2.35,2.35,0,0,0,1.23,2.82,1.91,1.91,0,0,0,2.49-1.34A2.4,2.4,0,0,0,270.82,243.81Zm5.05,2.27a2.18,2.18,0,0,0,1.45,1.93,1.88,1.88,0,0,0,2.23-1.11,2.49,2.49,0,0,0-.39-2.73,1.77,1.77,0,0,0-1.94-.49c.06.12.11.25.16.37l.66,1.6a.38.38,0,0,1,0,.18.28.28,0,0,1-.27.25h-1.93Zm-4.4-4.33,2.7,3.52,1.45-3.52Zm5.07,1.63-.52-1.26-1.39,3.37h.72A2.93,2.93,0,0,1,276.54,243.38Zm-.67,2.11h1.55l-.65-1.58A2.31,2.31,0,0,0,275.87,245.49Z" transform="translate(-169.32 -70.99)"/><ellipse class="cls-18" cx="92.35" cy="57.95" rx="41.08" ry="57.95"/><rect class="cls-19" x="238.99" y="106.63" width="19.76" height="13.48" rx="4.43" ry="4.43" transform="translate(328.42 155.76) rotate(180)"/><rect class="cls-20" x="264.74" y="106.63" width="19.76" height="13.48" rx="4.43" ry="4.43" transform="translate(379.92 155.76) rotate(180)"/><ellipse class="cls-21" cx="79.55" cy="42.39" rx="1.96" ry="2.67"/><ellipse class="cls-21" cx="105.3" cy="42.39" rx="1.96" ry="2.67"/><path class="cls-22" d="M221.07,118.23l17.42-32.29s31.89,6.1,43.91,0l18.48,28.48s-4.95-23.78-16.61-33.53c-8.14-6.81-10.57-7.24-11.26-7.7-1-.71-1.67-.46-2.2-.64-4-1.41-17.36-3.89-30.78,6.8C223.89,92.21,221.07,118.23,221.07,118.23Z" transform="translate(-169.32 -70.99)"/><path class="cls-23" d="M282.4,86.06l18.3,28.2s-4.89-23.56-16.44-33.2C283.15,80.14,285.83,82.5,282.4,86.06Z" transform="translate(-169.32 -70.99)"/><path class="cls-24" d="M301.88,137.36s-38.1,56.95-81.82,0c0,0,4.64,48,41.08,50.57C261.14,187.93,296.15,189.25,301.88,137.36Z" transform="translate(-169.32 -70.99)"/><line class="cls-12" x1="81.51" y1="88.04" x2="103.34" y2="88.04"/><path class="cls-25" d="M250.83,159a18.44,18.44,0,0,1,5.46-2,27.22,27.22,0,0,1,5.45-.54,28.06,28.06,0,0,1,5.46.53,18.47,18.47,0,0,1,5.46,2,18.47,18.47,0,0,1-5.46,2,28.06,28.06,0,0,1-5.46.53,27.22,27.22,0,0,1-5.45-.54A18.72,18.72,0,0,1,250.83,159Z" transform="translate(-169.32 -70.99)"/><line class="cls-12" x1="80.32" y1="88.04" x2="104.74" y2="88.04"/><path class="cls-26" d="M249.64,159c2-.16,4.07-.23,6.1-.29s4.08-.08,6.11-.09,4.07,0,6.11.09,4.07.13,6.1.29c-2,.16-4.07.23-6.1.29s-4.07.08-6.11.08-4.07,0-6.11-.08S251.67,159.18,249.64,159Z" transform="translate(-169.32 -70.99)"/><polyline class="cls-27" points="97.01 71.48 92.84 72.88 87.84 71.28 91.96 50.13"/><polyline class="cls-28" points="92.84 72.88 87.84 71.28 91.96 50.13"/><path class="cls-18" d="M264.17,113.21s-2.12-3-4.85,0" transform="translate(-169.32 -70.99)"/><path class="cls-29" d="M264.12,113.24a7.52,7.52,0,0,0-2.35-.47,4.34,4.34,0,0,0-1,.13l-.65.16a4.56,4.56,0,0,1-.77.19l-.08-.07.51-.52a6.22,6.22,0,0,1,.58-.43,2.74,2.74,0,0,1,1.38-.46,2.56,2.56,0,0,1,1.4.42,4,4,0,0,1,1.06,1Z" transform="translate(-169.32 -70.99)"/><ellipse class="cls-30" cx="105.3" cy="42.39" rx="1" ry="1.36"/><ellipse class="cls-30" cx="79.55" cy="42.39" rx="1" ry="1.36"/><path class="cls-31" d="M224.35,354l12.55,53.16h-5.47l-14.75-61S222.8,352.69,224.35,354Z" transform="translate(-169.32 -70.99)"/><path class="cls-31" d="M286.17,379.87l3.94,3.08,7.43-5.21,2.55-1.79-1.31-3.24s-8.31,7.63-12.61,7.16l-1.92,15.94s7.95-.17,10-4.74l3.16-12.8" transform="translate(-169.32 -70.99)"/><path class="cls-32" d="M286.17,379.87l4,3h-.08c3.29-2.39,6.61-4.73,9.93-7.08l-.06.19-1.32-3.24.27.07a50.56,50.56,0,0,1-5.83,4.57,25.08,25.08,0,0,1-3.24,1.84,7.52,7.52,0,0,1-3.67.85l.26-.2c-.3,2.66-.64,5.31-1,8l-1,8-.2-.21a21.08,21.08,0,0,0,2.85-.33,16.34,16.34,0,0,0,2.76-.76,9.68,9.68,0,0,0,2.49-1.35,6.19,6.19,0,0,0,1.78-2.16v0c1.06-4.27,2.2-8.52,3.3-12.77-1,4.28-2,8.57-3,12.84h0a6.64,6.64,0,0,1-1.85,2.29,10.19,10.19,0,0,1-2.56,1.42,16.2,16.2,0,0,1-2.82.8,19.81,19.81,0,0,1-2.9.36H284l0-.23.92-8c.32-2.66.61-5.32,1-8l0-.23.23,0a7.05,7.05,0,0,0,3.44-.79,25,25,0,0,0,3.2-1.77,51.53,51.53,0,0,0,5.82-4.49l.19-.16.09.22,1.29,3.25,0,.12-.1.07c-3.34,2.32-6.67,4.64-10,6.92l0,0,0,0Z" transform="translate(-169.32 -70.99)"/><path class="cls-31" d="M235.9,379.87,232,383l-7.43-5.21L222,376l1.3-3.24s8.31,7.63,12.61,7.16l1.92,15.94s-7.95-.17-10-4.74l-3.16-12.8" transform="translate(-169.32 -70.99)"/><path class="cls-32" d="M235.9,379.87,232,383l0,0,0,0c-3.36-2.28-6.69-4.6-10-6.92l-.11-.07.05-.12,1.29-3.25.09-.22.19.16a51.53,51.53,0,0,0,5.82,4.49,25,25,0,0,0,3.2,1.77,7.08,7.08,0,0,0,3.44.79l.24,0,0,.23c.35,2.65.65,5.31,1,8l.92,8,0,.23h-.22a20,20,0,0,1-2.9-.36,15.85,15.85,0,0,1-2.81-.8,10.08,10.08,0,0,1-2.57-1.42,6.64,6.64,0,0,1-1.85-2.29h0c-1.06-4.27-2-8.56-3-12.84,1.1,4.25,2.24,8.5,3.3,12.77v0a6.19,6.19,0,0,0,1.78,2.16,9.58,9.58,0,0,0,2.5,1.35,16.23,16.23,0,0,0,2.75.76,21.08,21.08,0,0,0,2.85.33l-.2.21-1-8c-.33-2.66-.68-5.31-1-8l.26.2a7.54,7.54,0,0,1-3.67-.85,25.77,25.77,0,0,1-3.24-1.84,50.56,50.56,0,0,1-5.83-4.57l.27-.07L222.13,376l0-.19c3.31,2.35,6.63,4.69,9.92,7.08h-.08Z" transform="translate(-169.32 -70.99)"/><path class="cls-31" d="M261,369.14a47.65,47.65,0,0,0,6.88-.5L267,407.53H261Z" transform="translate(-169.32 -70.99)"/><path class="cls-33" d="M220.06,137.36s9.57,32.17,25.22,44.72l6.85,4.13S226.57,182.18,220.06,137.36Z" transform="translate(-169.32 -70.99)"/></svg>