<svg id="Layer_1" data-name="Layer 1" xmlns="http://www.w3.org/2000/svg" xmlns:xlink="http://www.w3.org/1999/xlink" viewBox="0 0 272.72 417.9"><defs><style>.cls-1{fill:#e4e1c7;}.cls-2{fill:#512e2a;}.cls-3,.cls-4{fill:#9e2b20;}.cls-14,.cls-23,.cls-4,.cls-6{stroke:#231f20;}.cls-14,.cls-15,.cls-16,.cls-17,.cls-21,.cls-22,.cls-23,.cls-32,.cls-4,.cls-6,.cls-8{stroke-miterlimit:10;}.cls-5{fill:#231f20;}.cls-16,.cls-6,.cls-8{fill:none;}.cls-23,.cls-6{stroke-width:0.25px;}.cls-7{fill:#c2b59b;}.cls-8{stroke:#9b8579;}.cls-9{fill:#b1a58e;}.cls-10{fill:#9b8579;}.cls-11{fill:#1e4496;}.cls-12,.cls-17{fill:#234093;}.cls-13{fill:#124b9a;}.cls-14,.cls-15,.cls-20,.cls-21,.cls-22,.cls-23{fill:#fff;}.cls-15{stroke:#f9a560;}.cls-16{stroke:#283c91;}.cls-17{stroke:#262262;stroke-width:0.5px;}.cls-18{fill:#fff200;}.cls-19{fill:#d1d3d4;}.cls-21{stroke:url(#White_Black);}.cls-22{stroke:url(#White_Black-2);}.cls-24{fill:#fde79e;}.cls-25{fill:#fbeac8;}.cls-26{fill:#e5e1c5;}.cls-27{fill:#f9c9de;}.cls-28{fill:#8d536f;}.cls-29{fill:#e3e2db;}.cls-30{fill:#d0cca8;}.cls-31{fill:url(#White_Black-3);}.cls-32{fill:#2e3192;stroke:#00aeef;}.cls-33{fill:#cfcdb4;}</style><linearGradient id="White_Black" x1="265.16" y1="115.37" x2="288.88" y2="115.37" gradientTransform="matrix(1, 0, 0, -1, -30.55, 230.75)" gradientUnits="userSpaceOnUse"><stop offset="0" stop-color="#fff"/><stop offset="1" stop-color="#231f20"/></linearGradient><linearGradient id="White_Black-2" x1="235.57" y1="115.37" x2="259.28" y2="115.37" gradientTransform="matrix(1, 0, 0, -1, 28.63, 230.75)" xlink:href="#White_Black"/><linearGradient id="White_Black-3" x1="264.45" y1="114.47" x2="258.12" y2="114.47" gradientTransform="matrix(1, 0, 0, 1, 0, 0)" xlink:href="#White_Black"/></defs><title>10</title><polyline class="cls-1" points="159.14 334.96 152.54 400.24 145.1 399.87 144.35 334.22"/><polyline class="cls-1" points="113.04 334.96 119.65 400.24 127.08 399.87 127.83 334.22"/><path class="cls-2" d="M230.77,475.18s-20.25,10.71-7.52,12.21l12.73,1.5h16.19s6.73-4.74,6.73-11.59" transform="translate(-123.61 -70.99)"/><path class="cls-2" d="M286.2,475.18s20.24,10.71,7.52,12.21L281,488.89H264.8s-5.9-4.74-5.9-11.59" transform="translate(-123.61 -70.99)"/><path class="cls-3" d="M244.2,470.46s-33.1,10.7-20.38,12.2l12.73,1.49h16.19s6.16,0,6.16-6.85l-7.23-6.23h-.53" transform="translate(-123.61 -70.99)"/><path class="cls-3" d="M266.6,470.13l-7.39,7.17c0,6.85,6.16,6.85,6.16,6.85h16.19l12.73-1.49c12.73-1.5-18.15-12.21-18.15-12.21" transform="translate(-123.61 -70.99)"/><path class="cls-4" d="M259.31,477" transform="translate(-123.61 -70.99)"/><path class="cls-5" d="M270.57,414.52v2.22a3.22,3.22,0,0,1,0,.62,3.21,3.21,0,0,0,0-.62v-2.22a2.57,2.57,0,0,1,0-.62,2.57,2.57,0,0,0,0,.62Z" transform="translate(-123.61 -70.99)"/><path class="cls-5" d="M275.4,418.15v1.21a3.22,3.22,0,0,1,0,.62,3.2,3.2,0,0,0,0-.62v-1.21a3.22,3.22,0,0,1,0-.62,3.2,3.2,0,0,0,0,.62Z" transform="translate(-123.61 -70.99)"/><path class="cls-5" d="M277,422v1.21a2.57,2.57,0,0,1,0,.62,2.57,2.57,0,0,0,0-.62V422a3.33,3.33,0,0,1,0-.63,3.32,3.32,0,0,0,0,.63Z" transform="translate(-123.61 -70.99)"/><path class="cls-5" d="M280,421.78v.2a3.22,3.22,0,0,1,0,.62,3.21,3.21,0,0,0,0-.62v-.2a2.66,2.66,0,0,1,0-.63,2.66,2.66,0,0,0,0,.63Z" transform="translate(-123.61 -70.99)"/><path class="cls-5" d="M274,429.86s0-1.25,0-1.25,0,1.25,0,1.25Z" transform="translate(-123.61 -70.99)"/><path class="cls-5" d="M271.38,422v1.41a3.21,3.21,0,0,1,0,.62,3.21,3.21,0,0,0,0-.62V422a3.33,3.33,0,0,1,0-.63,3.32,3.32,0,0,0,0,.63Z" transform="translate(-123.61 -70.99)"/><path class="cls-5" d="M271.58,431v1.62a2.57,2.57,0,0,1,0,.62,2.57,2.57,0,0,0,0-.62V431a3.21,3.21,0,0,1,0-.62,3.21,3.21,0,0,0,0,.62Z" transform="translate(-123.61 -70.99)"/><path class="cls-5" d="M277.82,434.07v.6a3.33,3.33,0,0,1,0,.63,3.32,3.32,0,0,0,0-.63v-.6a3.33,3.33,0,0,1,0-.63,3.32,3.32,0,0,0,0,.63Z" transform="translate(-123.61 -70.99)"/><path class="cls-5" d="M275.81,436.28v1.62a2.57,2.57,0,0,1,0,.62,2.57,2.57,0,0,0,0-.62v-1.62a3.21,3.21,0,0,1,0-.62,3.21,3.21,0,0,0,0,.62Z" transform="translate(-123.61 -70.99)"/><path class="cls-5" d="M273.19,437.29v1a2.57,2.57,0,0,1,0,.62,2.57,2.57,0,0,0,0-.62v-1a3.22,3.22,0,0,1,0-.62,3.21,3.21,0,0,0,0,.62Z" transform="translate(-123.61 -70.99)"/><path class="cls-5" d="M271.17,437.49v.2a3.33,3.33,0,0,1,0,.63,3.32,3.32,0,0,0,0-.63v-.2a3.22,3.22,0,0,1,0-.62,3.21,3.21,0,0,0,0,.62Z" transform="translate(-123.61 -70.99)"/><path class="cls-5" d="M270.77,441.72v1a3.32,3.32,0,0,1,0,.63,3.31,3.31,0,0,0,0-.63v-1a2.57,2.57,0,0,1,0-.62,2.57,2.57,0,0,0,0,.62Z" transform="translate(-123.61 -70.99)"/><path class="cls-5" d="M276.82,443.34v.6a3.21,3.21,0,0,1,0,.62,3.2,3.2,0,0,0,0-.62v-.6a3.33,3.33,0,0,1,0-.63,3.32,3.32,0,0,0,0,.63Z" transform="translate(-123.61 -70.99)"/><path class="cls-5" d="M274.8,446v.21a3.21,3.21,0,0,1,0,.62,3.21,3.21,0,0,0,0-.62V446a2.57,2.57,0,0,1,0-.62,2.57,2.57,0,0,0,0,.62Z" transform="translate(-123.61 -70.99)"/><path class="cls-5" d="M272,449v1.21a3.21,3.21,0,0,1,0,.62,3.21,3.21,0,0,0,0-.62V449a2.66,2.66,0,0,1,0-.63,2.66,2.66,0,0,0,0,.63Z" transform="translate(-123.61 -70.99)"/><path class="cls-5" d="M276,451.6v.2a3.22,3.22,0,0,1,0,.62,3.21,3.21,0,0,0,0-.62v-.2a2.66,2.66,0,0,1,0-.63,2.66,2.66,0,0,0,0,.63Z" transform="translate(-123.61 -70.99)"/><path class="cls-5" d="M272.59,454.24s0-1.25,0-1.25,0,1.25,0,1.25Z" transform="translate(-123.61 -70.99)"/><path class="cls-5" d="M279.64,412.71v.81a3.21,3.21,0,0,1,0,.62,2.57,2.57,0,0,0,0-.62v-.81a3.22,3.22,0,0,1,0-.62,3.21,3.21,0,0,0,0,.62Z" transform="translate(-123.61 -70.99)"/><path class="cls-5" d="M272,411.1s0-1.25,0-1.25,0,1.25,0,1.25Z" transform="translate(-123.61 -70.99)"/><path class="cls-5" d="M276,409.9v-1.25s0,1.25,0,1.25Z" transform="translate(-123.61 -70.99)"/><path class="cls-5" d="M275.61,410.7v.6a3.21,3.21,0,0,1,0,.62,2.56,2.56,0,0,0,0-.62v-.6a3.33,3.33,0,0,1,0-.63,3.32,3.32,0,0,0,0,.63Z" transform="translate(-123.61 -70.99)"/><path class="cls-5" d="M280.64,408.88v1a3.22,3.22,0,0,1,0,.62,3.2,3.2,0,0,0,0-.62v-1a3.22,3.22,0,0,1,0-.62,3.21,3.21,0,0,0,0,.62Z" transform="translate(-123.61 -70.99)"/><path class="cls-5" d="M244.38,409.27v.4a3.31,3.31,0,0,1,0,.63,2.66,2.66,0,0,0,0-.63v-.4a3.22,3.22,0,0,1,0-.62,3.21,3.21,0,0,0,0,.62Z" transform="translate(-123.61 -70.99)"/><path class="cls-5" d="M248.82,409.31v-1.25s0,1.25,0,1.25Z" transform="translate(-123.61 -70.99)"/><path class="cls-6" d="M281.56,414a2,2,0,0,0,.64,2.18" transform="translate(-123.61 -70.99)"/><path class="cls-6" d="M281.53,411.07a2,2,0,0,1,.7,1.62" transform="translate(-123.61 -70.99)"/><path class="cls-6" d="M277,411.75a1.07,1.07,0,0,1-.55,1.22" transform="translate(-123.61 -70.99)"/><path class="cls-6" d="M271.39,411.94v1.5" transform="translate(-123.61 -70.99)"/><path class="cls-6" d="M268.77,411.19a2.15,2.15,0,0,1-.82,1.44" transform="translate(-123.61 -70.99)"/><path class="cls-6" d="M267.94,409.13a2.32,2.32,0,0,1-.5,1.48" transform="translate(-123.61 -70.99)"/><path class="cls-6" d="M268.58,414.84a3.35,3.35,0,0,0-.86,1.78" transform="translate(-123.61 -70.99)"/><path class="cls-6" d="M269.44,420a2.06,2.06,0,0,1-.49,1.12" transform="translate(-123.61 -70.99)"/><path class="cls-6" d="M272.49,416.26a1.31,1.31,0,0,1-.23,1.23" transform="translate(-123.61 -70.99)"/><path class="cls-6" d="M275.91,415.75a6.64,6.64,0,0,1,1.1.88" transform="translate(-123.61 -70.99)"/><path class="cls-6" d="M278.6,420.28l.48.65" transform="translate(-123.61 -70.99)"/><path class="cls-6" d="M274.48,420v.93" transform="translate(-123.61 -70.99)"/><path class="cls-6" d="M280.6,422.7a1.34,1.34,0,0,1,.24,1.13" transform="translate(-123.61 -70.99)"/><path class="cls-6" d="M279.72,426.09l.86,1.3" transform="translate(-123.61 -70.99)"/><path class="cls-6" d="M273,424.86a2.8,2.8,0,0,1-.91,1.34" transform="translate(-123.61 -70.99)"/><path class="cls-6" d="M269.52,425a1.92,1.92,0,0,1-1,1.71" transform="translate(-123.61 -70.99)"/><path class="cls-6" d="M269.24,431.15a1.72,1.72,0,0,1-.38,1.11" transform="translate(-123.61 -70.99)"/><path class="cls-6" d="M274.86,429.46v1" transform="translate(-123.61 -70.99)"/><path class="cls-6" d="M276.45,429.28a1,1,0,0,1,.75.46" transform="translate(-123.61 -70.99)"/><path class="cls-6" d="M280.1,430.78l.84.47" transform="translate(-123.61 -70.99)"/><path class="cls-6" d="M279.48,432.75a2.32,2.32,0,0,0,.61,2.25" transform="translate(-123.61 -70.99)"/><path class="cls-6" d="M268.61,434.85a2.07,2.07,0,0,1-1.06.27" transform="translate(-123.61 -70.99)"/><path class="cls-5" d="M248.69,415.35v2.21a3.33,3.33,0,0,1,0,.63,3.32,3.32,0,0,0,0-.63v-2.21a3.33,3.33,0,0,1,0-.63,3.32,3.32,0,0,0,0,.63Z" transform="translate(-123.61 -70.99)"/><path class="cls-5" d="M243.86,419v1.21a2.66,2.66,0,0,1,0,.63,2.66,2.66,0,0,0,0-.63V419a3.21,3.21,0,0,1,0-.62,3.21,3.21,0,0,0,0,.62Z" transform="translate(-123.61 -70.99)"/><path class="cls-5" d="M242.25,422.8V424a2.66,2.66,0,0,1,0,.63,2.66,2.66,0,0,0,0-.63V422.8a3.21,3.21,0,0,1,0-.62,3.21,3.21,0,0,0,0,.62Z" transform="translate(-123.61 -70.99)"/><path class="cls-5" d="M239.22,422.6v.2a3.33,3.33,0,0,1,0,.63,3.32,3.32,0,0,0,0-.63v-.2a3.22,3.22,0,0,1,0-.62,3.21,3.21,0,0,0,0,.62Z" transform="translate(-123.61 -70.99)"/><path class="cls-5" d="M245.28,430.68v-1.25s0,1.25,0,1.25Z" transform="translate(-123.61 -70.99)"/><path class="cls-5" d="M247.89,422.8v1.41a2.66,2.66,0,0,1,0,.63,2.66,2.66,0,0,0,0-.63V422.8a3.21,3.21,0,0,1,0-.62,3.21,3.21,0,0,0,0,.62Z" transform="translate(-123.61 -70.99)"/><path class="cls-5" d="M247.69,431.87v1.61a2.66,2.66,0,0,1,0,.63,2.66,2.66,0,0,0,0-.63v-1.61a3.32,3.32,0,0,1,0-.63,3.31,3.31,0,0,0,0,.63Z" transform="translate(-123.61 -70.99)"/><path class="cls-5" d="M241.44,434.89v.61a3.21,3.21,0,0,1,0,.62,3.21,3.21,0,0,0,0-.62v-.61a2.57,2.57,0,0,1,0-.62,2.57,2.57,0,0,0,0,.62Z" transform="translate(-123.61 -70.99)"/><path class="cls-5" d="M243.46,437.11v1.61a3.21,3.21,0,0,1,0,.62,2.56,2.56,0,0,0,0-.62v-1.61a3.33,3.33,0,0,1,0-.63,3.32,3.32,0,0,0,0,.63Z" transform="translate(-123.61 -70.99)"/><path class="cls-5" d="M246.07,438.12v1a3.33,3.33,0,0,1,0,.63,3.32,3.32,0,0,0,0-.63v-1a3.33,3.33,0,0,1,0-.63,3.32,3.32,0,0,0,0,.63Z" transform="translate(-123.61 -70.99)"/><path class="cls-5" d="M248.09,438.32v.2a3.22,3.22,0,0,1,0,.62,3.21,3.21,0,0,0,0-.62v-.2a2.66,2.66,0,0,1,0-.63,2.66,2.66,0,0,0,0,.63Z" transform="translate(-123.61 -70.99)"/><path class="cls-5" d="M248.49,442.55v1a3.21,3.21,0,0,1,0,.62,3.21,3.21,0,0,0,0-.62v-1a3.33,3.33,0,0,1,0-.63,3.32,3.32,0,0,0,0,.63Z" transform="translate(-123.61 -70.99)"/><path class="cls-5" d="M242.45,444.16v.6a2.66,2.66,0,0,1,0,.63,2.66,2.66,0,0,0,0-.63v-.6a3.32,3.32,0,0,1,0-.63,3.32,3.32,0,0,0,0,.63Z" transform="translate(-123.61 -70.99)"/><path class="cls-5" d="M244.46,446.78v.2a3.32,3.32,0,0,1,0,.63,3.32,3.32,0,0,0,0-.63v-.2a3.32,3.32,0,0,1,0-.63,3.32,3.32,0,0,0,0,.63Z" transform="translate(-123.61 -70.99)"/><path class="cls-5" d="M247.28,449.8V451a3.32,3.32,0,0,1,0,.63,3.32,3.32,0,0,0,0-.63V449.8a3.22,3.22,0,0,1,0-.62,3.21,3.21,0,0,0,0,.62Z" transform="translate(-123.61 -70.99)"/><path class="cls-5" d="M243.25,452.42v.2a3.33,3.33,0,0,1,0,.63,3.32,3.32,0,0,0,0-.63v-.2a3.22,3.22,0,0,1,0-.62,3.2,3.2,0,0,0,0,.62Z" transform="translate(-123.61 -70.99)"/><path class="cls-5" d="M246.69,455.06s0-1.25,0-1.25,0,1.25,0,1.25Z" transform="translate(-123.61 -70.99)"/><path class="cls-5" d="M239.63,413.53v.81a2.66,2.66,0,0,1,0,.63,2.66,2.66,0,0,0,0-.63v-.81a3.21,3.21,0,0,1,0-.62,3.21,3.21,0,0,0,0,.62Z" transform="translate(-123.61 -70.99)"/><path class="cls-5" d="M247.29,409.93s0-1.25,0-1.25,0,1.25,0,1.25Z" transform="translate(-123.61 -70.99)"/><path class="cls-5" d="M243.26,410.72s0-1.25,0-1.25,0,1.25,0,1.25Z" transform="translate(-123.61 -70.99)"/><path class="cls-5" d="M243.66,411.52v.6a2.66,2.66,0,0,1,0,.63,2.66,2.66,0,0,0,0-.63v-.6a3.32,3.32,0,0,1,0-.63,3.32,3.32,0,0,0,0,.63Z" transform="translate(-123.61 -70.99)"/><path class="cls-5" d="M238.62,409.71v1a3.33,3.33,0,0,1,0,.63,3.31,3.31,0,0,0,0-.63v-1a2.66,2.66,0,0,1,0-.63,2.66,2.66,0,0,0,0,.63Z" transform="translate(-123.61 -70.99)"/><path class="cls-6" d="M237.72,414.84a2,2,0,0,1-.64,2.19" transform="translate(-123.61 -70.99)"/><path class="cls-6" d="M237.74,411.89a2,2,0,0,0-.7,1.62" transform="translate(-123.61 -70.99)"/><path class="cls-6" d="M242.28,412.58a1.07,1.07,0,0,0,.54,1.22" transform="translate(-123.61 -70.99)"/><path class="cls-6" d="M247.88,412.76v1.5" transform="translate(-123.61 -70.99)"/><path class="cls-6" d="M250.5,412a2.14,2.14,0,0,0,.82,1.44" transform="translate(-123.61 -70.99)"/><path class="cls-6" d="M251.34,410a2.3,2.3,0,0,0,.49,1.49" transform="translate(-123.61 -70.99)"/><path class="cls-6" d="M250.7,415.66a3.26,3.26,0,0,1,.85,1.78" transform="translate(-123.61 -70.99)"/><path class="cls-6" d="M249.84,420.82a2,2,0,0,0,.49,1.12" transform="translate(-123.61 -70.99)"/><path class="cls-6" d="M246.78,417.08a1.33,1.33,0,0,0,.24,1.23" transform="translate(-123.61 -70.99)"/><path class="cls-6" d="M243.37,416.57a6.74,6.74,0,0,0-1.1.88" transform="translate(-123.61 -70.99)"/><path class="cls-6" d="M240.68,421.11l-.48.64" transform="translate(-123.61 -70.99)"/><path class="cls-6" d="M244.79,420.82v.94" transform="translate(-123.61 -70.99)"/><path class="cls-6" d="M238.68,423.52a1.37,1.37,0,0,0-.25,1.14" transform="translate(-123.61 -70.99)"/><path class="cls-6" d="M239.55,426.91l-.85,1.31" transform="translate(-123.61 -70.99)"/><path class="cls-6" d="M246.3,425.69a2.87,2.87,0,0,0,.91,1.33" transform="translate(-123.61 -70.99)"/><path class="cls-6" d="M249.75,425.79a1.92,1.92,0,0,0,1,1.71" transform="translate(-123.61 -70.99)"/><path class="cls-6" d="M250,432a1.7,1.7,0,0,0,.39,1.12" transform="translate(-123.61 -70.99)"/><path class="cls-6" d="M244.42,430.28v1" transform="translate(-123.61 -70.99)"/><path class="cls-6" d="M242.83,430.1a1.06,1.06,0,0,0-.76.46" transform="translate(-123.61 -70.99)"/><path class="cls-6" d="M239.18,431.61l-.85.46" transform="translate(-123.61 -70.99)"/><path class="cls-6" d="M239.79,433.57a2.33,2.33,0,0,1-.6,2.26" transform="translate(-123.61 -70.99)"/><path class="cls-6" d="M250.67,435.67a2,2,0,0,0,1.05.27" transform="translate(-123.61 -70.99)"/><polygon class="cls-7" points="106.9 336.55 168.02 336.55 184.88 271.16 90.04 271.16 106.9 336.55"/><line class="cls-8" x1="136.96" y1="283.69" x2="136.96" y2="336.55"/><path class="cls-9" d="M222.77,354l13.13,53.16h-5.72l-15.43-61S221.14,352.69,222.77,354Z" transform="translate(-123.61 -70.99)"/><path class="cls-9" d="M287.42,379.87l4.12,3.08,7.76-5.21L302,376l-1.37-3.24s-8.69,7.63-13.18,7.16l-2,15.94s8.32-.17,10.46-4.74l3.3-12.8" transform="translate(-123.61 -70.99)"/><path class="cls-10" d="M287.42,379.87l4.16,3h-.08c3.44-2.39,6.91-4.73,10.38-7.08l-.06.19-1.38-3.23.27.06a51.79,51.79,0,0,1-6.13,4.59,25,25,0,0,1-3.38,1.83,8.1,8.1,0,0,1-3.81.85l.27-.21c-.65,5.31-1.38,10.62-2.06,15.93l-.2-.21a22.56,22.56,0,0,0,3-.33,16.59,16.59,0,0,0,2.87-.75,9.83,9.83,0,0,0,2.62-1.34,6.17,6.17,0,0,0,1.9-2.19v0c1.1-4.27,2.3-8.52,3.44-12.77-1.06,4.28-2.07,8.57-3.17,12.84h0a6.5,6.5,0,0,1-2,2.32,10.6,10.6,0,0,1-2.69,1.4,16.26,16.26,0,0,1-2.91.79,20.27,20.27,0,0,1-3,.36h-.22l0-.23c.65-5.31,1.27-10.63,2-15.94l0-.23.23,0a7.7,7.7,0,0,0,3.58-.78,25.53,25.53,0,0,0,3.35-1.77,52.61,52.61,0,0,0,6.12-4.5l.18-.16.09.22,1.35,3.25.06.12-.11.07c-3.49,2.32-7,4.65-10.49,6.92l0,0,0,0Z" transform="translate(-123.61 -70.99)"/><path class="cls-9" d="M234.84,379.87,230.73,383,223,377.74,220.29,376l1.37-3.24s8.69,7.63,13.18,7.16l2,15.94s-8.32-.17-10.46-4.74l-3.3-12.8" transform="translate(-123.61 -70.99)"/><path class="cls-10" d="M234.84,379.87,230.76,383l0,0,0,0c-3.51-2.27-7-4.6-10.48-6.92l-.11-.07.05-.12,1.35-3.25.09-.22.19.16a51.77,51.77,0,0,0,6.12,4.5,25.41,25.41,0,0,0,3.34,1.77,7.7,7.7,0,0,0,3.58.78l.23,0,0,.23c.69,5.31,1.31,10.63,2,15.94l0,.23h-.23a20.14,20.14,0,0,1-3-.36,16.59,16.59,0,0,1-2.92-.79,10.6,10.6,0,0,1-2.69-1.4,6.6,6.6,0,0,1-2-2.32h0c-1.1-4.27-2.11-8.56-3.16-12.84,1.14,4.25,2.33,8.5,3.43,12.77v0a6.26,6.26,0,0,0,1.9,2.19,10,10,0,0,0,2.62,1.34,16.83,16.83,0,0,0,2.87.75,22.76,22.76,0,0,0,3,.33l-.19.21c-.69-5.31-1.41-10.62-2.06-15.93l.26.21a8.12,8.12,0,0,1-3.81-.85,25.64,25.64,0,0,1-3.38-1.83,51.79,51.79,0,0,1-6.13-4.59l.27-.06L220.44,376l-.06-.19c3.47,2.35,6.94,4.69,10.38,7.08h-.07Z" transform="translate(-123.61 -70.99)"/><path class="cls-9" d="M261.06,369.14a52.19,52.19,0,0,0,7.2-.5l-.86,38.89h-6.34Z" transform="translate(-123.61 -70.99)"/><path class="cls-11" d="M310.68,159.22S451,178.64,372.45,337.14L351.6,326.52" transform="translate(-123.61 -70.99)"/><path class="cls-12" d="M209.25,159.22S69,178.64,147.47,337.14l20.85-10.62" transform="translate(-123.61 -70.99)"/><ellipse class="cls-13" cx="136.86" cy="196.11" rx="104.54" ry="123.25"/><path class="cls-14" d="M202.31,350.53" transform="translate(-123.61 -70.99)"/><path class="cls-15" d="M150.69,335.73s6.47,11.31,24.69,7.6l1.69-1,.36-.36s-8.62-14-9-16.33" transform="translate(-123.61 -70.99)"/><path class="cls-15" d="M370.55,336.94s-6.48,11.31-24.7,7.6l-1.69-1-.36-.37s8.62-14,9-16.32" transform="translate(-123.61 -70.99)"/><polyline class="cls-16" points="137.47 317.92 137.47 108.84 152.54 122.26 181.28 95.12"/><path class="cls-17" d="M190.34,224.45s-11.17,23.31-6.42,33.41l12.7,7.38,15.49-5.05,7.12-33.41" transform="translate(-123.61 -70.99)"/><polyline class="cls-16" points="135.33 317.92 135.33 108.84 120.26 122.26 91.52 95.12"/><path class="cls-18" d="M209.41,190.31l.09-.21a3.24,3.24,0,0,1,.85-1.23,3.84,3.84,0,0,1,2.66-1,3.69,3.69,0,0,1,1.61.37.05.05,0,0,0,.08,0L217,185a1.18,1.18,0,0,1,1.08-.5l.13,0,1.26.27h0l-.18.68-.06,0-1.16-.25a.4.4,0,0,0-.48.17l-.67,1,0,0h0l6,1.33a.06.06,0,0,0,.08,0l.45-.52,0-.05h-.06l-1-.22a.36.36,0,0,1-.28-.29.34.34,0,0,1,.18-.36.37.37,0,0,1,.29,0l2.73.6h.05l-.18.68h-.05l-.81-.18a.06.06,0,0,0-.07,0c-.25.29-.49.56-.73.85,0,0,0,0,0,.05.16.72.32,1.43.49,2.14v0l.36,0a4,4,0,0,1,1.25.19,3.6,3.6,0,0,1,2,1.57,3.06,3.06,0,0,1,.46,1.83,3.32,3.32,0,0,1-1.89,2.85,3.74,3.74,0,0,1-2.09.43l-.33,0h-.05l-.4-.09h-.05c-.19-.08-.39-.14-.57-.22a3.53,3.53,0,0,1-1.67-1.59,3.15,3.15,0,0,1-.34-1.78,1.36,1.36,0,0,1,0-.2h-.06l-1.51-.33a.49.49,0,0,1-.31-.23l-.46-.8-1.2-2.11L216.16,188l-.2-.34-.67,1h0l0,0a3.31,3.31,0,0,1,1.32,3,2.91,2.91,0,0,1-.37,1.17,3.59,3.59,0,0,1-2.17,1.74,3.92,3.92,0,0,1-1.56.14l-.24,0-.41-.09,0,0c-.17-.07-.36-.12-.53-.2a3.5,3.5,0,0,1-1.91-2.1,3.17,3.17,0,0,1-.14-1.37l0-.23Zm5.45-1.08,0,0c-.37.53-.75,1.06-1.12,1.6l-.41.57a.39.39,0,0,1-.5.12.34.34,0,0,1-.11-.51l1.52-2.16,0,0a3.06,3.06,0,0,0-3.79,1.06,2.6,2.6,0,0,0,.93,3.7,3.09,3.09,0,0,0,4-.77A2.57,2.57,0,0,0,214.86,189.23Zm6.64,4.28a2.67,2.67,0,0,0,1.53,2.74,3.11,3.11,0,0,0,3.58-.59,2.58,2.58,0,0,0,.26-3.33,3,3,0,0,0-2.67-1.2c0,.16.07.33.11.49l.48,2.09a.28.28,0,0,1,0,.22.37.37,0,0,1-.45.2l-2.75-.61Zm-5.07-6.5,2.85,5,3.18-3.67Zm6.88,3.55-.38-1.65-3,3.51,1,.23A3.62,3.62,0,0,1,223.31,190.56Zm-1.62,2.26,2.24.5-.47-2.06A2.87,2.87,0,0,0,221.69,192.82Z" transform="translate(-123.61 -70.99)"/><path class="cls-18" d="M215.53,214.57l0-.23a3.19,3.19,0,0,1,.52-1.38,3.66,3.66,0,0,1,2.33-1.55,3.92,3.92,0,0,1,1.67,0s0,0,.07,0c.46-1.19.92-2.39,1.39-3.59a1.12,1.12,0,0,1,.92-.72h1.46v.7h-1.27a.39.39,0,0,0-.42.28c-.13.36-.27.71-.41,1.07,0,0,0,0,0,.05H228s.06,0,.07,0l.31-.61,0-.05h-1.11a.38.38,0,0,1-.35-.22.33.33,0,0,1,.1-.39.39.39,0,0,1,.26-.09h2.86v.7h-.89a.05.05,0,0,0-.06,0l-.5,1a.06.06,0,0,0,0,.06l1,2,0,0,.34-.09a3.88,3.88,0,0,1,1.27-.09,3.76,3.76,0,0,1,2.35,1.1,3.17,3.17,0,0,1,.91,1.68,3.22,3.22,0,0,1-1.12,3.17,3.65,3.65,0,0,1-1.93.88l-.33,0h-.51a6,6,0,0,1-.61-.09,3.68,3.68,0,0,1-2-1.18,3.25,3.25,0,0,1-.79-1.66l0-.2H225.7a.45.45,0,0,1-.36-.14c-.21-.23-.42-.46-.64-.68l-1.7-1.8-1.48-1.57-.28-.29-.41,1.07h0l0,0a3.4,3.4,0,0,1,2,2.64,3.08,3.08,0,0,1-.06,1.21,3.45,3.45,0,0,1-1.68,2.16,3.69,3.69,0,0,1-1.48.48l-.24,0H219a5.21,5.21,0,0,1-.57-.08A3.67,3.67,0,0,1,216,216.5a3.14,3.14,0,0,1-.47-1.31l0-.23Zm5-2.23,0,0-.69,1.79c-.09.22-.17.43-.25.65a.38.38,0,0,1-.46.22.33.33,0,0,1-.23-.47l.93-2.43s0,0,0-.05a3,3,0,0,0-3.42,1.85,2.67,2.67,0,0,0,1.83,3.39,3,3,0,0,0,3.72-1.61A2.62,2.62,0,0,0,220.56,212.34Zm7.53,2.73a2.78,2.78,0,0,0,2.17,2.34,3,3,0,0,0,3.34-1.34,2.6,2.6,0,0,0-.58-3.3,3.08,3.08,0,0,0-2.9-.59l.23.45,1,1.93a.41.41,0,0,1,0,.22.37.37,0,0,1-.39.29h-2.9Zm-6.56-5.22,4,4.25,2.17-4.25Zm7.58,2-.79-1.51-2.07,4.06h1.07A3.47,3.47,0,0,1,229.11,211.81Zm-1,2.55h2.31l-1-1.9A2.75,2.75,0,0,0,228.1,214.36Z" transform="translate(-123.61 -70.99)"/><path class="cls-18" d="M226.6,238.87c0-.08,0-.15,0-.23a3.2,3.2,0,0,1,.53-1.38,3.66,3.66,0,0,1,2.33-1.55,3.87,3.87,0,0,1,1.66,0c.05,0,.06,0,.07,0,.47-1.2.93-2.39,1.39-3.59a1.14,1.14,0,0,1,.92-.72l.14,0H235v.7h-1.26a.39.39,0,0,0-.42.28l-.42,1.07a.13.13,0,0,1,0,0h6.24s0,0,.07,0l.31-.6s0,0,0-.05h-1.1a.37.37,0,0,1-.35-.22.34.34,0,0,1,.09-.39.44.44,0,0,1,.27-.09h2.85v.7h-.88a.07.07,0,0,0-.07,0l-.5,1s0,.05,0,.06c.34.66.67,1.32,1,2l0,0,.34-.09a3.84,3.84,0,0,1,1.26-.09,3.78,3.78,0,0,1,2.36,1.1,3.26,3.26,0,0,1-.22,4.85,3.61,3.61,0,0,1-1.92.87l-.34,0h-.51c-.2,0-.41,0-.61-.09a3.68,3.68,0,0,1-2-1.18,3.32,3.32,0,0,1-.78-1.66l0-.2h-1.61a.44.44,0,0,1-.36-.15l-.64-.67-1.7-1.8-1.49-1.57-.27-.29-.42,1.06h0l0,0a3.41,3.41,0,0,1,2,2.64,2.75,2.75,0,0,1-.06,1.21,3.39,3.39,0,0,1-1.68,2.16,3.64,3.64,0,0,1-1.48.48l-.24,0h-.47c-.19,0-.38,0-.57-.08a3.63,3.63,0,0,1-2.38-1.63,3.06,3.06,0,0,1-.48-1.3c0-.08,0-.15,0-.23Zm5-2.23s0,0,0,.05c-.23.6-.47,1.19-.7,1.79-.08.22-.16.43-.25.65a.37.37,0,0,1-.45.22.34.34,0,0,1-.24-.47l.94-2.43,0,0a3,3,0,0,0-3.43,1.85,2.68,2.68,0,0,0,1.84,3.39,3,3,0,0,0,3.72-1.61A2.64,2.64,0,0,0,231.63,236.64Zm7.53,2.73a2.78,2.78,0,0,0,2.17,2.34,3,3,0,0,0,3.33-1.34,2.59,2.59,0,0,0-.58-3.3,3,3,0,0,0-2.89-.59c.07.15.15.3.23.45l1,1.93a.29.29,0,0,1,0,.22.37.37,0,0,1-.39.29h-2.89Zm-6.56-5.23,4,4.26,2.18-4.26Zm7.57,2-.78-1.51-2.08,4.06h1.08A3.49,3.49,0,0,1,240.17,236.11Zm-1,2.55h2.3l-1-1.9A2.72,2.72,0,0,0,239.17,238.66Z" transform="translate(-123.61 -70.99)"/><path class="cls-18" d="M230.73,269a1.64,1.64,0,0,1,0-.22,3.16,3.16,0,0,1,.53-1.38,3.64,3.64,0,0,1,2.33-1.55,3.72,3.72,0,0,1,1.66,0s.06,0,.07,0l1.39-3.6a1.14,1.14,0,0,1,.92-.72h1.46v.7h-1.26a.39.39,0,0,0-.42.27l-.42,1.07s0,0,0,.05h6.24a.08.08,0,0,0,.07,0c.1-.2.2-.4.31-.6l0-.05h-1.1a.37.37,0,0,1-.35-.22.34.34,0,0,1,.09-.39.37.37,0,0,1,.27-.09h2.85v.7h-.88a.08.08,0,0,0-.07,0c-.16.33-.33.65-.5,1a.06.06,0,0,0,0,.06l1,2v0c.12,0,.23-.07.35-.09a3.89,3.89,0,0,1,3.62,1,3.27,3.27,0,0,1-.22,4.86,3.64,3.64,0,0,1-1.92.87l-.34,0H246c-.2,0-.41-.05-.61-.09a3.64,3.64,0,0,1-2-1.19,3.28,3.28,0,0,1-.78-1.66l0-.19H240.9a.46.46,0,0,1-.36-.15l-.64-.68-1.7-1.79-1.49-1.58-.28-.29-.41,1.07h0l.05,0a3.44,3.44,0,0,1,2,2.64,2.79,2.79,0,0,1-.06,1.22,3.41,3.41,0,0,1-1.68,2.16,3.79,3.79,0,0,1-1.48.48l-.24,0h-.47c-.19,0-.38,0-.57-.08a3.64,3.64,0,0,1-2.38-1.63,3.11,3.11,0,0,1-.48-1.3,2,2,0,0,1,0-.23Zm5-2.22a.08.08,0,0,0,0,0c-.24.6-.47,1.2-.7,1.8-.08.22-.16.43-.25.64a.38.38,0,0,1-.45.23.34.34,0,0,1-.24-.47l.94-2.43a.08.08,0,0,1,0-.05,3,3,0,0,0-3.43,1.84,2.68,2.68,0,0,0,1.83,3.4,3,3,0,0,0,3.73-1.61A2.64,2.64,0,0,0,235.76,266.81Zm7.52,2.73a2.79,2.79,0,0,0,2.17,2.33,3,3,0,0,0,3.34-1.33,2.59,2.59,0,0,0-.58-3.3,3,3,0,0,0-2.89-.59c.07.15.15.3.22.44l1,1.94a.27.27,0,0,1,0,.21.37.37,0,0,1-.39.3h-2.9Zm-6.55-5.23,4,4.25,2.18-4.25Zm7.57,2-.78-1.52-2.08,4.07h1.07A3.48,3.48,0,0,1,244.3,266.28Zm-1,2.55h2.31l-1-1.9A2.76,2.76,0,0,0,243.29,268.83Z" transform="translate(-123.61 -70.99)"/><path class="cls-18" d="M230.73,300.64a1.5,1.5,0,0,1,0-.22,3.2,3.2,0,0,1,.53-1.39,3.64,3.64,0,0,1,2.33-1.55,3.87,3.87,0,0,1,1.66,0s.06,0,.07,0l1.39-3.6a1.14,1.14,0,0,1,.92-.72h1.46v.69h-1.26a.39.39,0,0,0-.42.28l-.42,1.07a.43.43,0,0,0,0,.05h6.24a.08.08,0,0,0,.07,0c.1-.2.2-.4.31-.6,0,0,0,0,0-.06h-1.1a.37.37,0,0,1-.35-.22.34.34,0,0,1,.09-.39.42.42,0,0,1,.27-.09h2.85v.7h-.88a.07.07,0,0,0-.07,0l-.5,1a.06.06,0,0,0,0,.06c.34.66.67,1.32,1,2v0l.35-.09a3.56,3.56,0,0,1,1.26-.08,3.74,3.74,0,0,1,2.36,1.09,3.26,3.26,0,0,1-.22,4.85,3.66,3.66,0,0,1-1.92.88l-.34,0H246c-.2,0-.41,0-.61-.09a3.68,3.68,0,0,1-2-1.18,3.32,3.32,0,0,1-.78-1.66l0-.19H240.9a.46.46,0,0,1-.36-.15l-.64-.68-1.7-1.8L236.71,297l-.28-.29-.41,1.07h0l.05,0a3.43,3.43,0,0,1,2,2.64,2.75,2.75,0,0,1-.06,1.21,3.41,3.41,0,0,1-1.68,2.17,3.62,3.62,0,0,1-1.48.47l-.24,0h-.47a3.72,3.72,0,0,1-.57-.08,3.59,3.59,0,0,1-2.38-1.62,3.15,3.15,0,0,1-.48-1.31,1.64,1.64,0,0,1,0-.23Zm5-2.23s0,0,0,0c-.24.6-.47,1.2-.7,1.8-.08.21-.16.42-.25.64a.37.37,0,0,1-.45.22.34.34,0,0,1-.24-.47l.94-2.43s0,0,0-.05a3,3,0,0,0-3.43,1.85,2.69,2.69,0,0,0,1.83,3.4,3,3,0,0,0,3.73-1.62A2.64,2.64,0,0,0,235.76,298.41Zm7.52,2.74a2.81,2.81,0,0,0,2.17,2.33,3,3,0,0,0,3.34-1.34,2.59,2.59,0,0,0-.58-3.3,3.07,3.07,0,0,0-2.89-.59l.22.45,1,1.93a.29.29,0,0,1,0,.22.37.37,0,0,1-.39.29h-2.9Zm-6.55-5.23,4,4.25,2.18-4.25Zm7.57,2-.78-1.51-2.08,4.06h1.07A3.5,3.5,0,0,1,244.3,297.88Zm-1,2.55h2.31l-1-1.9A2.76,2.76,0,0,0,243.29,300.43Z" transform="translate(-123.61 -70.99)"/><path class="cls-18" d="M230.73,323.78a1.64,1.64,0,0,1,0-.22,3.24,3.24,0,0,1,.53-1.39,3.66,3.66,0,0,1,2.33-1.54,3.72,3.72,0,0,1,1.66,0s.06,0,.07,0l1.39-3.6a1.14,1.14,0,0,1,.92-.72h1.46v.7h-1.26a.39.39,0,0,0-.42.27l-.42,1.07s0,0,0,.05h6.24a.08.08,0,0,0,.07,0c.1-.2.2-.4.31-.6l0-.06h-1.1a.35.35,0,0,1-.35-.22.32.32,0,0,1,.09-.38.38.38,0,0,1,.27-.1h2.85v.7h-.88a.07.07,0,0,0-.07,0c-.16.33-.33.65-.5,1a.06.06,0,0,0,0,.06c.34.65.67,1.31,1,2v0l.35-.1a4.1,4.1,0,0,1,1.26-.08,3.8,3.8,0,0,1,2.36,1.09,3.27,3.27,0,0,1-.22,4.86,3.64,3.64,0,0,1-1.92.87l-.34,0H246c-.2,0-.41-.05-.61-.09a3.64,3.64,0,0,1-2-1.19,3.28,3.28,0,0,1-.78-1.66l0-.19H240.9a.46.46,0,0,1-.36-.15l-.64-.68-1.7-1.8-1.49-1.57-.28-.29-.41,1.07h0l.05,0a3.43,3.43,0,0,1,2,2.64,2.79,2.79,0,0,1-.06,1.22,3.41,3.41,0,0,1-1.68,2.16,3.79,3.79,0,0,1-1.48.48l-.24,0h-.47c-.19,0-.38,0-.57-.08a3.64,3.64,0,0,1-2.38-1.63,3.11,3.11,0,0,1-.48-1.3,1.94,1.94,0,0,1,0-.24Zm5-2.23a.17.17,0,0,0,0,.05c-.24.6-.47,1.2-.7,1.8-.08.21-.16.43-.25.64a.38.38,0,0,1-.45.23.34.34,0,0,1-.24-.47l.94-2.44,0-.05a3,3,0,0,0-3.43,1.85,2.68,2.68,0,0,0,1.83,3.4,3,3,0,0,0,3.73-1.62A2.65,2.65,0,0,0,235.76,321.55Zm7.52,2.74a2.8,2.8,0,0,0,2.17,2.33,3,3,0,0,0,3.34-1.34,2.59,2.59,0,0,0-.58-3.3,3.1,3.1,0,0,0-2.89-.59l.22.45,1,1.94a.27.27,0,0,1,0,.21.38.38,0,0,1-.39.3h-2.9Zm-6.55-5.23,4,4.25,2.18-4.25Zm7.57,2-.78-1.52-2.08,4.07h1.07A3.48,3.48,0,0,1,244.3,321Zm-1,2.55h2.31l-1-1.91A2.76,2.76,0,0,0,243.29,323.58Z" transform="translate(-123.61 -70.99)"/><path class="cls-18" d="M230.23,354.49l0-.22a3.14,3.14,0,0,1,.52-1.38,3.66,3.66,0,0,1,2.33-1.55,3.77,3.77,0,0,1,1.67,0,.07.07,0,0,0,.07,0c.46-1.2.92-2.4,1.39-3.6a1.14,1.14,0,0,1,.92-.72h1.46v.7h-1.26a.4.4,0,0,0-.43.27c-.13.36-.27.72-.41,1.07l0,.05h6.24s.06,0,.07,0c.11-.2.21-.4.31-.6l0-.05H242a.38.38,0,0,1-.35-.22.33.33,0,0,1,.1-.39.35.35,0,0,1,.26-.09h2.86v.7H244a.06.06,0,0,0-.06,0c-.17.33-.34.65-.5,1a.06.06,0,0,0,0,.06l1,2,0,0,.34-.09a3.88,3.88,0,0,1,1.27-.09,3.75,3.75,0,0,1,2.35,1.09,3.17,3.17,0,0,1,.91,1.68,3.21,3.21,0,0,1-1.12,3.18,3.64,3.64,0,0,1-1.93.87l-.33,0h-.51c-.21,0-.41-.05-.61-.09a3.64,3.64,0,0,1-2-1.19,3.21,3.21,0,0,1-.79-1.66l0-.19H240.4a.45.45,0,0,1-.35-.15l-.65-.68c-.56-.6-1.13-1.2-1.7-1.79l-1.48-1.58-.28-.29-.41,1.07h0l0,0a3.43,3.43,0,0,1,2,2.64,3.13,3.13,0,0,1-.06,1.22,3.45,3.45,0,0,1-1.68,2.16,3.85,3.85,0,0,1-1.48.48l-.24,0h-.47c-.19,0-.38,0-.57-.08a3.69,3.69,0,0,1-2.39-1.63,3.09,3.09,0,0,1-.47-1.3l0-.23Zm5-2.22s0,0,0,0l-.69,1.8c-.08.22-.17.43-.25.64a.38.38,0,0,1-.46.23.34.34,0,0,1-.23-.47l.93-2.43a.17.17,0,0,0,0-.05,3,3,0,0,0-3.42,1.84,2.68,2.68,0,0,0,1.83,3.4,3,3,0,0,0,3.72-1.61A2.62,2.62,0,0,0,235.26,352.27Zm7.53,2.73a2.76,2.76,0,0,0,2.17,2.33A3,3,0,0,0,248.3,356a2.6,2.6,0,0,0-.58-3.3,3.06,3.06,0,0,0-2.9-.59c.08.15.15.3.23.44l1,1.94a.39.39,0,0,1,0,.21.37.37,0,0,1-.39.3h-2.9Zm-6.56-5.23,4,4.26,2.17-4.26Zm7.58,2-.78-1.52L241,354.29H242A3.46,3.46,0,0,1,243.81,351.74Zm-1,2.55h2.31l-1-1.9A2.73,2.73,0,0,0,242.8,354.29Z" transform="translate(-123.61 -70.99)"/><path class="cls-18" d="M217.13,376.57l-.08-.21a3.05,3.05,0,0,1-.22-1.46,3.31,3.31,0,0,1,1.3-2.36,3.64,3.64,0,0,1,1.48-.71s0,0,0-.06c-.19-1.26-.37-2.52-.55-3.79a1,1,0,0,1,.46-1l.12-.07,1.14-.55h0l.34.62,0,0-1.07.51a.35.35,0,0,0-.23.42c.05.38.1.75.16,1.13a.11.11,0,0,0,0,.05l0,0,5.49-2.63a.07.07,0,0,0,0-.07c0-.22,0-.44,0-.66v-.06l-.06,0-.93.45a.38.38,0,0,1-.42-.05.35.35,0,0,1-.11-.38.43.43,0,0,1,.2-.2l2.49-1.19,0,0,.35.63,0,0-.74.35a.07.07,0,0,0,0,.07c0,.35,0,.71,0,1.07a.11.11,0,0,0,0,.06l1.87,1.32,0,0,.26-.23a3.62,3.62,0,0,1,1.08-.62,4,4,0,0,1,2.63,0,3.48,3.48,0,0,1,1.64,1.11,3.18,3.18,0,0,1,.58,3.3,3.3,3.3,0,0,1-1.28,1.59l-.28.18a.05.05,0,0,0,0,0l-.37.18h-.05c-.19.06-.38.14-.58.19a3.88,3.88,0,0,1-2.38-.2,3.54,3.54,0,0,1-1.52-1.14l-.12-.16-.06,0-1.37.66a.48.48,0,0,1-.39,0l-.91-.33-2.4-.87-2.1-.76-.39-.14.16,1.12h.07a3.76,3.76,0,0,1,3.12,1.47,3.27,3.27,0,0,1,.12,3.75,3.39,3.39,0,0,1-1.08,1.05l-.2.13-.37.18H222a5.6,5.6,0,0,1-.54.17,3.93,3.93,0,0,1-2.93-.42,3.37,3.37,0,0,1-1.06-1l-.14-.19Zm3.37-4.13v.06c.09.63.19,1.26.28,1.89l.09.67a.35.35,0,0,1-.29.4.37.37,0,0,1-.44-.32c-.13-.85-.25-1.71-.37-2.56a.09.09,0,0,1,0-.05,2.73,2.73,0,0,0-2.13,3.1,2.92,2.92,0,0,0,3.31,2.24,2.78,2.78,0,0,0,2.51-3A2.87,2.87,0,0,0,220.5,372.44Zm8-.78a3,3,0,0,0,3.08,1.15,2.69,2.69,0,0,0,.15-5.29,3,3,0,0,0-2.86.71l.42.3,1.84,1.29a.31.31,0,0,1,.14.18.34.34,0,0,1-.2.43l-2.51,1.2Zm-8.42-1.85,5.69,2.07-.18-4.71Zm7.7-1.48-1.44-1,.17,4.5.95-.46A3.3,3.3,0,0,1,227.82,368.33Zm.37,2.7,2.05-1-1.8-1.27A2.58,2.58,0,0,0,228.19,371Z" transform="translate(-123.61 -70.99)"/><path class="cls-18" d="M192.58,354.94a1.74,1.74,0,0,0-.05-.22,3,3,0,0,1,0-1.47,3.38,3.38,0,0,1,1.66-2.16,3.76,3.76,0,0,1,1.58-.5s.05,0,.05,0l.06-3.82a1.06,1.06,0,0,1,.62-1l.12-.05,1.22-.39h0l.25.66-.06,0-1.14.36a.38.38,0,0,0-.3.39c0,.38,0,.75,0,1.13v.05h.06l5.85-1.86a.06.06,0,0,0,.05-.06c0-.22.06-.44.08-.66a.13.13,0,0,0,0-.06l-.06,0-1,.31a.39.39,0,0,1-.41-.1.33.33,0,0,1,0-.4.43.43,0,0,1,.22-.17l2.65-.84h.05l.24.66h-.05l-.79.26s0,0,0,.05c0,.36-.09.72-.13,1.07a0,0,0,0,0,0,.06l1.64,1.56,0,0,.29-.19a3.71,3.71,0,0,1,1.17-.46,3.92,3.92,0,0,1,2.61.33,3.37,3.37,0,0,1,1.45,1.32,3.15,3.15,0,0,1,0,3.34,3.42,3.42,0,0,1-1.51,1.4l-.31.14,0,0-.39.12h-.05c-.21,0-.41.08-.61.1a3.88,3.88,0,0,1-2.32-.51,3.49,3.49,0,0,1-1.33-1.34l-.09-.17h-.06l-1.47.47a.49.49,0,0,1-.39,0l-.84-.45-2.24-1.19-1.95-1-.36-.19,0,1.13h.06a3.68,3.68,0,0,1,2.85,1.89,3.21,3.21,0,0,1-.47,3.72,3.7,3.7,0,0,1-1.23.9l-.22.09-.4.13h0a5.43,5.43,0,0,1-.56.09,3.85,3.85,0,0,1-2.83-.82,3.37,3.37,0,0,1-.9-1.09l-.11-.21Zm4-3.62a.09.09,0,0,0,0,.05l0,1.91c0,.23,0,.45,0,.68a.35.35,0,0,1-.35.35.36.36,0,0,1-.39-.37c0-.86,0-1.72,0-2.59v-.05a2.81,2.81,0,0,0-2.6,2.78,3,3,0,0,0,5.88,0A2.78,2.78,0,0,0,196.57,351.32Zm8.07.32a3,3,0,0,0,2.87,1.56,2.87,2.87,0,0,0,2.69-2.27,2.71,2.71,0,0,0-1.7-2.95,3.1,3.1,0,0,0-2.95.31l.38.36,1.61,1.53a.34.34,0,0,1,.11.19.35.35,0,0,1-.27.4l-2.67.85Zm-8-3,5.3,2.81.57-4.68Zm7.85-.42-1.26-1.2-.55,4.47,1-.32A3.28,3.28,0,0,1,204.46,348.25ZM204.4,351l2.19-.7-1.59-1.5A2.6,2.6,0,0,0,204.4,351Z" transform="translate(-123.61 -70.99)"/><path class="cls-18" d="M189,325.23a1.74,1.74,0,0,1,0-.22,2.93,2.93,0,0,1,0-1.47,3.38,3.38,0,0,1,1.66-2.16,3.62,3.62,0,0,1,1.57-.5c.05,0,.06,0,.06-.05,0-1.28,0-2.55.05-3.82a1.06,1.06,0,0,1,.62-1A.67.67,0,0,1,193,316l1.22-.39h0l.25.66-.06,0-1.14.36a.38.38,0,0,0-.3.39c0,.38,0,.76,0,1.14v0l.05,0,5.85-1.86a.06.06,0,0,0,.05-.06c0-.22.06-.44.08-.66a.13.13,0,0,0,0-.06H199l-1,.32a.39.39,0,0,1-.41-.1.33.33,0,0,1,0-.4.39.39,0,0,1,.22-.17l2.65-.84.05,0,.24.67h-.05l-.79.25a.05.05,0,0,0,0,.06c-.05.36-.09.71-.13,1.07,0,0,0,0,0,.06l1.64,1.56,0,0,.3-.19a3.44,3.44,0,0,1,1.16-.46,3.85,3.85,0,0,1,2.61.32,3.41,3.41,0,0,1,1.45,1.31,3.16,3.16,0,0,1,0,3.35,3.42,3.42,0,0,1-1.51,1.4l-.31.14,0,0-.39.12h0c-.21,0-.41.08-.61.1a3.81,3.81,0,0,1-2.32-.51,3.47,3.47,0,0,1-1.33-1.33l-.09-.18-.06,0-1.47.47a.53.53,0,0,1-.39,0l-.84-.45L195.27,321l-2-1-.36-.19,0,1.14H193a3.65,3.65,0,0,1,2.85,1.88,3.21,3.21,0,0,1-.47,3.72,3.47,3.47,0,0,1-1.23.9l-.22.1-.39.13h0a5.67,5.67,0,0,1-.57.1,3.83,3.83,0,0,1-2.82-.82,3.28,3.28,0,0,1-.91-1.09,2.12,2.12,0,0,0-.11-.21Zm4-3.63v.06l0,1.9c0,.23,0,.46,0,.69a.35.35,0,0,1-.35.35.36.36,0,0,1-.39-.38c0-.86,0-1.72,0-2.58v-.05a2.79,2.79,0,0,0-2.59,2.78,2.95,2.95,0,0,0,5.87,0A2.78,2.78,0,0,0,192.92,321.6Zm8.08.32a3,3,0,0,0,2.87,1.55,2.87,2.87,0,0,0,2.69-2.27,2.71,2.71,0,0,0-1.71-2.95,3.08,3.08,0,0,0-2.94.32l.37.35,1.61,1.53a.41.41,0,0,1,.12.2.36.36,0,0,1-.27.39l-2.68.86Zm-8-3,5.29,2.81.57-4.68Zm7.85-.42-1.27-1.2L199,321.8l1-.32A3.31,3.31,0,0,1,200.82,318.53Zm-.06,2.71,2.18-.69L201.36,319A2.62,2.62,0,0,0,200.76,321.24Z" transform="translate(-123.61 -70.99)"/><path class="cls-18" d="M164.07,308.15c0-.07,0-.15,0-.22a3.18,3.18,0,0,1,0-1.47,3.48,3.48,0,0,1,1.72-2.12,3.85,3.85,0,0,1,1.6-.46s.05,0,.05-.05c.05-1.28.1-2.55.16-3.82a1.08,1.08,0,0,1,.64-.95l.13-.05,1.23-.36h0l.23.67-.06,0-1.15.33a.37.37,0,0,0-.31.38c0,.38,0,.76-.05,1.14v.05l.05,0,5.9-1.72a.07.07,0,0,0,.06-.06c0-.22.06-.44.1-.66v-.06l-.05,0-1,.29a.41.41,0,0,1-.41-.11.35.35,0,0,1,0-.4.4.4,0,0,1,.22-.16l2.68-.78.05,0,.22.67H176l-.79.24s-.05,0-.05,0c-.05.36-.11.71-.16,1.07a.07.07,0,0,0,0,.06l1.6,1.6,0,0,.3-.19a3.71,3.71,0,0,1,1.18-.43,3.9,3.9,0,0,1,2.6.39,3.38,3.38,0,0,1,1.41,1.34,3.18,3.18,0,0,1,0,3.35,3.46,3.46,0,0,1-1.56,1.36l-.31.13,0,0-.39.12h0c-.21,0-.41.07-.61.08a3.86,3.86,0,0,1-2.31-.56,3.46,3.46,0,0,1-1.29-1.37c0-.06-.06-.11-.09-.18l-.06,0-1.48.43a.45.45,0,0,1-.39,0l-.83-.47-2.2-1.23L168.58,303l-.36-.2,0,1.13h.06a3.67,3.67,0,0,1,2.8,1.95,3,3,0,0,1,.33,1.17,3.27,3.27,0,0,1-.9,2.54,3.74,3.74,0,0,1-1.26.87l-.22.09-.4.12h-.05c-.19,0-.37.07-.56.09a3.87,3.87,0,0,1-2.81-.89,3.46,3.46,0,0,1-.87-1.11,1.47,1.47,0,0,1-.1-.22Zm4.07-3.53v.05c0,.64,0,1.27-.08,1.91l0,.68a.35.35,0,0,1-.36.34.36.36,0,0,1-.38-.38c0-.86.07-1.72.11-2.58v-.05a2.72,2.72,0,1,0,.18,5.44,2.86,2.86,0,0,0,3-2.58A2.78,2.78,0,0,0,168.14,304.62Zm8.07.51a3,3,0,0,0,2.83,1.62,2.89,2.89,0,0,0,2.75-2.21,2.71,2.71,0,0,0-1.63-3,3.1,3.1,0,0,0-2.95.25l.36.36,1.57,1.57a.33.33,0,0,1,.11.2.36.36,0,0,1-.28.39l-2.7.79Zm-8-3.16,5.22,2.93.69-4.66Zm7.86-.24-1.23-1.22-.67,4.45,1-.3A3.31,3.31,0,0,1,176.12,301.73Zm-.13,2.72,2.2-.65-1.54-1.54A2.61,2.61,0,0,0,176,304.45Z" transform="translate(-123.61 -70.99)"/><path class="cls-18" d="M192.51,291.65l0-.23a3.2,3.2,0,0,1,.53-1.38,3.64,3.64,0,0,1,2.33-1.55,3.87,3.87,0,0,1,1.66,0s.06,0,.07,0c.46-1.2.93-2.4,1.39-3.59a1.14,1.14,0,0,1,.92-.72l.14,0h1.32v.7h-1.26a.38.38,0,0,0-.42.28l-.42,1.07s0,0,0,0H205s.05,0,.07-.05c.1-.2.2-.4.31-.6l0-.05h-1.1a.39.39,0,0,1-.36-.22.36.36,0,0,1,.1-.39.4.4,0,0,1,.27-.09h2.85v.7h-.89a.05.05,0,0,0-.06,0l-.5,1a.06.06,0,0,0,0,.06c.34.66.67,1.32,1,2v0l.35-.09a3.87,3.87,0,0,1,3.62,1,3.17,3.17,0,0,1,.91,1.68,3.22,3.22,0,0,1-1.13,3.17,3.64,3.64,0,0,1-1.92.87l-.34,0h-.51c-.2,0-.41,0-.61-.09a3.68,3.68,0,0,1-2-1.18,3.23,3.23,0,0,1-.78-1.66l0-.2h-1.61a.43.43,0,0,1-.36-.15l-.64-.68c-.57-.59-1.14-1.19-1.7-1.79L198.5,288l-.28-.29-.41,1.06h0l.05,0a3.44,3.44,0,0,1,2,2.65,2.91,2.91,0,0,1-.06,1.21,3.41,3.41,0,0,1-1.68,2.16,3.64,3.64,0,0,1-1.48.48l-.24,0H196c-.19,0-.38,0-.57-.08a3.61,3.61,0,0,1-2.38-1.63,3.06,3.06,0,0,1-.48-1.3l0-.23Zm5-2.23s0,0,0,.05l-.69,1.79c-.08.22-.16.43-.25.65a.37.37,0,0,1-.45.22.34.34,0,0,1-.24-.47c.31-.81.62-1.62.94-2.43,0,0,0,0,0-.05a3,3,0,0,0-3.42,1.84,2.68,2.68,0,0,0,1.83,3.4,3,3,0,0,0,3.73-1.61A2.64,2.64,0,0,0,197.54,289.42Zm7.53,2.73a2.77,2.77,0,0,0,2.17,2.33,3,3,0,0,0,3.34-1.33,2.59,2.59,0,0,0-.58-3.3,3.06,3.06,0,0,0-2.9-.59c.08.15.16.3.23.45l1,1.93a.29.29,0,0,1,0,.22.37.37,0,0,1-.39.29h-2.9Zm-6.55-5.23,4,4.26,2.17-4.26Zm7.57,2-.78-1.51-2.08,4.06h1.07A3.47,3.47,0,0,1,206.09,288.89Zm-1,2.55h2.31l-1-1.9A2.76,2.76,0,0,0,205.08,291.44Z" transform="translate(-123.61 -70.99)"/><path class="cls-18" d="M160.06,270.26c0-.07,0-.15,0-.22a3.16,3.16,0,0,1,.53-1.38,3.66,3.66,0,0,1,2.33-1.55,3.72,3.72,0,0,1,1.66,0c.05,0,.06,0,.07,0,.47-1.2.93-2.4,1.39-3.6a1.14,1.14,0,0,1,.92-.72h1.46v.7h-1.26a.39.39,0,0,0-.42.27l-.42,1.07a.09.09,0,0,1,0,0h6.24a.08.08,0,0,0,.07,0c.1-.2.2-.4.31-.6a.42.42,0,0,0,0-.06h-1.1a.35.35,0,0,1-.35-.22.32.32,0,0,1,.09-.38.39.39,0,0,1,.27-.1h2.85v.7h-.88a.07.07,0,0,0-.07,0c-.16.33-.33.65-.5,1,0,0,0,0,0,.06l1,2,0,0,.34-.1a4.12,4.12,0,0,1,1.26-.08,3.77,3.77,0,0,1,2.36,1.09,3.27,3.27,0,0,1-.22,4.86,3.61,3.61,0,0,1-1.92.87l-.34,0h-.51c-.2,0-.41,0-.61-.09a3.64,3.64,0,0,1-2-1.19,3.28,3.28,0,0,1-.78-1.66l0-.19h-1.61a.48.48,0,0,1-.36-.15l-.64-.68-1.7-1.8L166,266.57l-.27-.29-.42,1.07h0l0,0a3.43,3.43,0,0,1,2,2.64,2.79,2.79,0,0,1-.06,1.22,3.41,3.41,0,0,1-1.68,2.16,3.79,3.79,0,0,1-1.48.48l-.24,0h-.47c-.19,0-.38,0-.57-.08a3.67,3.67,0,0,1-2.38-1.63,3.11,3.11,0,0,1-.48-1.3c0-.08,0-.16,0-.24Zm5-2.23,0,.05c-.24.6-.47,1.2-.7,1.8-.08.21-.16.43-.25.64a.38.38,0,0,1-.45.23.34.34,0,0,1-.24-.47l.94-2.44,0,0a3,3,0,0,0-3.43,1.84,2.68,2.68,0,0,0,1.84,3.4,3,3,0,0,0,3.72-1.62A2.65,2.65,0,0,0,165.09,268Zm7.53,2.74a2.77,2.77,0,0,0,2.16,2.33,3,3,0,0,0,3.34-1.34,2.59,2.59,0,0,0-.58-3.3,3.1,3.1,0,0,0-2.89-.59c.07.15.15.3.23.45.32.65.65,1.29,1,1.94a.27.27,0,0,1,0,.21.37.37,0,0,1-.39.3h-2.89Zm-6.56-5.23,4,4.25,2.18-4.25Zm7.57,2-.78-1.52-2.08,4.07h1.08A3.47,3.47,0,0,1,173.63,267.51Zm-1,2.55h2.3l-1-1.91A2.72,2.72,0,0,0,172.63,270.06Z" transform="translate(-123.61 -70.99)"/><path class="cls-18" d="M161.18,233.29l0-.22a3.1,3.1,0,0,1,.52-1.39,3.7,3.7,0,0,1,2.33-1.55,3.92,3.92,0,0,1,1.67,0s.05,0,.07,0c.46-1.2.92-2.4,1.39-3.6a1.11,1.11,0,0,1,.92-.72h1.45v.69H168.3a.39.39,0,0,0-.42.28l-.41,1.07s0,0,0,.05h6.24s.06,0,.07,0l.31-.6,0-.06H173a.38.38,0,0,1-.35-.22.34.34,0,0,1,.09-.39.44.44,0,0,1,.27-.09h2.86v.7H175a.05.05,0,0,0-.06,0l-.5,1a.06.06,0,0,0,0,.06l1,2,0,0,.34-.09a3.62,3.62,0,0,1,1.27-.08,3.72,3.72,0,0,1,2.35,1.09,3.17,3.17,0,0,1,.91,1.68,3.23,3.23,0,0,1-1.12,3.18,3.72,3.72,0,0,1-1.93.87l-.34,0h-.51c-.2,0-.41,0-.61-.09a3.65,3.65,0,0,1-2-1.18A3.25,3.25,0,0,1,173,234l0-.19h-.06c-.52,0-1,0-1.55,0a.49.49,0,0,1-.36-.15c-.21-.23-.42-.46-.64-.68l-1.7-1.8-1.48-1.57-.28-.29-.41,1.07h0l0,0a3.42,3.42,0,0,1,2,2.64,3.08,3.08,0,0,1-.06,1.21,3.45,3.45,0,0,1-1.69,2.17,3.58,3.58,0,0,1-1.47.47l-.25,0h-.46a3.56,3.56,0,0,1-.57-.08,3.64,3.64,0,0,1-2.39-1.62,3.09,3.09,0,0,1-.47-1.31l0-.23Zm5-2.23,0,.05-.69,1.8c-.09.21-.17.43-.25.64a.38.38,0,0,1-.46.22.34.34,0,0,1-.24-.47c.32-.81.63-1.62.94-2.43,0,0,0,0,0-.05a3,3,0,0,0-3.42,1.85,2.68,2.68,0,0,0,1.83,3.4,3,3,0,0,0,3.72-1.62A2.63,2.63,0,0,0,166.21,231.06Zm7.53,2.74a2.78,2.78,0,0,0,2.17,2.33,3,3,0,0,0,3.34-1.34,2.59,2.59,0,0,0-.59-3.3,3.09,3.09,0,0,0-2.89-.59l.23.45,1,1.93a.41.41,0,0,1,0,.22.38.38,0,0,1-.39.3h-2.9Zm-6.56-5.23,4,4.25,2.17-4.25Zm7.57,2L174,229l-2.07,4.07H173A3.49,3.49,0,0,1,174.75,230.53Zm-1,2.55h2.31l-1-1.9A2.75,2.75,0,0,0,173.75,233.08Z" transform="translate(-123.61 -70.99)"/><path class="cls-18" d="M178.34,198.77a1.8,1.8,0,0,0,.08-.21,3.4,3.4,0,0,1,.85-1.24,3.85,3.85,0,0,1,2.65-1,3.76,3.76,0,0,1,1.62.36s.05,0,.07,0c.74-1.08,1.49-2.15,2.23-3.22a1.18,1.18,0,0,1,1.07-.51l.14,0,1.25.27h0l-.17.68h-.06l-1.17-.25a.41.41,0,0,0-.48.18l-.66,1,0,0h0l6,1.3a.09.09,0,0,0,.08,0l.44-.52a.1.1,0,0,0,0-.05h-.06l-1-.22a.35.35,0,0,1-.1-.65.45.45,0,0,1,.28,0l2.74.59h.05l-.17.68h0l-.82-.18s0,0-.07,0l-.72.84a.14.14,0,0,0,0,.06l.51,2.13v0l.36,0a4,4,0,0,1,1.25.19,3.55,3.55,0,0,1,2,1.55,3.08,3.08,0,0,1,.48,1.83,3.32,3.32,0,0,1-1.87,2.86,3.83,3.83,0,0,1-2.08.45l-.34,0h0l-.4-.09-.05,0a5.54,5.54,0,0,1-.57-.21A3.54,3.54,0,0,1,190,203.7a3.07,3.07,0,0,1-.36-1.78c0-.06,0-.13,0-.19h-.06l-1.51-.33a.42.42,0,0,1-.31-.22c-.16-.26-.31-.53-.46-.79l-1.22-2.11-1.07-1.84-.2-.34-.66.95h0l0,0a3.3,3.3,0,0,1,1.34,3,3.06,3.06,0,0,1-.36,1.17,3.57,3.57,0,0,1-2.16,1.76,3.91,3.91,0,0,1-1.56.16l-.24,0-.41-.09,0,0a4.93,4.93,0,0,1-.54-.19,3.49,3.49,0,0,1-1.93-2.09,3,3,0,0,1-.14-1.36l0-.24Zm5.44-1.12,0,0-1.11,1.6-.4.58a.39.39,0,0,1-.5.12.34.34,0,0,1-.11-.51l1.5-2.17,0,0a3.05,3.05,0,0,0-3.78,1.09,2.6,2.6,0,0,0,1,3.69,3.08,3.08,0,0,0,4-.8A2.58,2.58,0,0,0,183.78,197.65Zm6.68,4.24a2.68,2.68,0,0,0,1.54,2.73,3.11,3.11,0,0,0,3.58-.61,2.58,2.58,0,0,0,.23-3.34,3,3,0,0,0-2.67-1.18c0,.17.07.33.11.49.17.7.33,1.39.49,2.09a.33.33,0,0,1,0,.22.39.39,0,0,1-.45.21l-2.76-.6Zm-5.13-6.46,2.89,5,3.15-3.69Zm6.91,3.49-.4-1.63-3,3.52,1,.23A3.65,3.65,0,0,1,192.24,198.92Zm-1.6,2.28,2.25.48-.49-2.06A2.91,2.91,0,0,0,190.64,201.2Z" transform="translate(-123.61 -70.99)"/><path class="cls-18" d="M193.19,176.08l.1-.2a3.37,3.37,0,0,1,1-1.16,3.86,3.86,0,0,1,2.74-.78,3.94,3.94,0,0,1,1.58.49s0,0,.07,0l2.55-3a1.17,1.17,0,0,1,1.12-.41l.13,0,1.22.38h0l-.24.66h-.06l-1.14-.36a.42.42,0,0,0-.49.14l-.76.89,0,0h0l5.87,1.82a.07.07,0,0,0,.08,0l.5-.48,0,0-.06,0-1-.31a.35.35,0,0,1-.26-.31.35.35,0,0,1,.22-.34.41.41,0,0,1,.29,0l2.66.83h.05l-.24.67,0,0-.79-.25s-.05,0-.08,0l-.8.78a0,0,0,0,0,0,.06c.09.72.18,1.44.28,2.16v0l.36,0a3.69,3.69,0,0,1,1.23.29,3.54,3.54,0,0,1,1.86,1.73,3.07,3.07,0,0,1,.29,1.86,3.4,3.4,0,0,1-2.15,2.68,3.85,3.85,0,0,1-2.12.26l-.34-.07h0l-.4-.12,0,0a5.52,5.52,0,0,1-.55-.26,3.43,3.43,0,0,1-1.51-1.71,3.12,3.12,0,0,1-.18-1.81c0-.06,0-.13,0-.19l-.06,0-1.47-.46a.46.46,0,0,1-.29-.24c-.12-.28-.25-.56-.37-.83-.33-.74-.67-1.47-1-2.21l-.87-1.93c-.06-.11-.11-.23-.17-.35l-.75.89h0l0,0a3.27,3.27,0,0,1,1,3.11,3,3,0,0,1-.48,1.13,3.66,3.66,0,0,1-2.33,1.56,3.9,3.9,0,0,1-1.56,0l-.24-.05-.4-.12,0,0c-.18-.08-.35-.15-.52-.24a3.4,3.4,0,0,1-1.7-2.25,3,3,0,0,1,0-1.37c0-.08,0-.16.05-.23Zm5.53-.63,0,0-1.27,1.5-.45.54a.39.39,0,0,1-.51.07.33.33,0,0,1-.07-.51l1.72-2,0,0a3.07,3.07,0,0,0-3.88.74,2.59,2.59,0,0,0,.58,3.76,3.09,3.09,0,0,0,4.08-.43A2.57,2.57,0,0,0,198.72,175.45Zm6.21,4.81a2.62,2.62,0,0,0,1.26,2.85,3.12,3.12,0,0,0,3.62-.29,2.6,2.6,0,0,0,.58-3.3,3,3,0,0,0-2.55-1.41c0,.16,0,.33.07.49l.27,2.13a.31.31,0,0,1,0,.21.4.4,0,0,1-.47.17l-2.69-.84Zm-4.44-6.89,2.37,5.22,3.51-3.4Zm6.51,4.09-.22-1.67L203.42,179l1,.32A3.72,3.72,0,0,1,207,177.46Zm-1.82,2.12,2.19.68-.27-2.09A3,3,0,0,0,205.18,179.58Z" transform="translate(-123.61 -70.99)"/><path class="cls-18" d="M266.79,329.36l0-.22a3.24,3.24,0,0,1,.53-1.39,3.68,3.68,0,0,1,2.32-1.55,3.92,3.92,0,0,1,1.67,0s.06,0,.07,0c.46-1.2.92-2.4,1.39-3.6a1.14,1.14,0,0,1,.92-.72h1.46v.69h-1.26a.38.38,0,0,0-.42.28l-.42,1.07a.43.43,0,0,0,0,.05h6.23a.08.08,0,0,0,.08,0c.1-.2.2-.4.31-.6a.14.14,0,0,1,0-.06H278.6a.38.38,0,0,1-.35-.22.35.35,0,0,1,.1-.39.39.39,0,0,1,.26-.09h2.86v.7h-.89a.05.05,0,0,0-.06,0l-.5,1a.09.09,0,0,0,0,.07l1,2v0l.35-.09a3.55,3.55,0,0,1,1.26-.08,3.69,3.69,0,0,1,2.35,1.09,3.19,3.19,0,0,1,.92,1.68,3.24,3.24,0,0,1-1.13,3.18,3.72,3.72,0,0,1-1.92.87l-.34,0H282c-.21,0-.41,0-.61-.08a3.75,3.75,0,0,1-2-1.19,3.25,3.25,0,0,1-.79-1.66c0-.06,0-.13,0-.19H277a.46.46,0,0,1-.36-.15L276,329l-1.7-1.8-1.49-1.57-.28-.29-.41,1.07h0l0,0a3.43,3.43,0,0,1,2,2.64,2.9,2.9,0,0,1-.06,1.21,3.44,3.44,0,0,1-1.68,2.17A3.79,3.79,0,0,1,271,333l-.24,0h-.47a5.54,5.54,0,0,1-.57-.07,3.69,3.69,0,0,1-2.39-1.63,3.23,3.23,0,0,1-.47-1.31l0-.23Zm5-2.23s0,0,0,.05l-.69,1.8-.25.64a.37.37,0,0,1-.45.22.34.34,0,0,1-.24-.47c.31-.81.62-1.62.94-2.43a.43.43,0,0,0,0-.05,3,3,0,0,0-3.42,1.85,2.68,2.68,0,0,0,1.83,3.4,3,3,0,0,0,3.73-1.62A2.64,2.64,0,0,0,271.82,327.13Zm7.53,2.74a2.78,2.78,0,0,0,2.17,2.33,3,3,0,0,0,3.34-1.34,2.6,2.6,0,0,0-.58-3.3,3.11,3.11,0,0,0-2.9-.59c.08.15.16.3.23.45l1,1.93a.29.29,0,0,1,0,.22.38.38,0,0,1-.39.3h-2.9Zm-6.56-5.23,4,4.25,2.17-4.25Zm7.58,2-.78-1.51-2.08,4.07h1.07A3.47,3.47,0,0,1,280.37,326.6Zm-1,2.55h2.31l-1-1.9A2.76,2.76,0,0,0,279.36,329.15Z" transform="translate(-123.61 -70.99)"/><path class="cls-18" d="M264.93,360.07l0-.22a3.1,3.1,0,0,1,.52-1.39,3.88,3.88,0,0,1,4-1.54s.06,0,.07,0c.47-1.2.93-2.4,1.39-3.6a1.14,1.14,0,0,1,.92-.72h1.46v.7h-1.26a.4.4,0,0,0-.42.27c-.14.36-.28.71-.41,1.07,0,0,0,0,0,0h6.24a.08.08,0,0,0,.07,0l.31-.6,0-.06h-1.1a.35.35,0,0,1-.35-.22.32.32,0,0,1,.09-.38.39.39,0,0,1,.27-.1h2.85v.7h-.88a.07.07,0,0,0-.07,0c-.16.33-.33.65-.5,1V355c.34.65.67,1.31,1,2l0,0,.34-.1a3.83,3.83,0,0,1,1.26-.08,3.77,3.77,0,0,1,2.36,1.09,3.17,3.17,0,0,1,.91,1.68,3.24,3.24,0,0,1-1.13,3.18,3.65,3.65,0,0,1-1.92.87c-.11,0-.23,0-.34,0h-.51c-.2,0-.41,0-.61-.08a3.67,3.67,0,0,1-2-1.19,3.28,3.28,0,0,1-.78-1.66l0-.19H275.1a.48.48,0,0,1-.36-.15l-.64-.68-1.7-1.8-1.49-1.57-.27-.29-.42,1.07h0l0,0a3.44,3.44,0,0,1,2,2.64,3,3,0,0,1-.07,1.22,3.41,3.41,0,0,1-1.68,2.16,3.79,3.79,0,0,1-1.48.48l-.24,0h-.47a5,5,0,0,1-.56-.07,3.66,3.66,0,0,1-2.39-1.63,3.09,3.09,0,0,1-.47-1.3l0-.24Zm5-2.23,0,.05-.7,1.8-.24.64a.39.39,0,0,1-.46.23.34.34,0,0,1-.24-.47c.31-.82.63-1.63.94-2.44,0,0,0,0,0,0a3,3,0,0,0-3.43,1.85,2.69,2.69,0,0,0,1.84,3.4,3,3,0,0,0,3.72-1.62A2.65,2.65,0,0,0,270,357.84Zm7.53,2.74a2.78,2.78,0,0,0,2.17,2.33,3,3,0,0,0,3.33-1.34,2.59,2.59,0,0,0-.58-3.3,3.09,3.09,0,0,0-2.89-.59c.07.15.15.3.23.45l1,1.94a.27.27,0,0,1,0,.21.37.37,0,0,1-.39.3h-2.89Zm-6.56-5.23,4,4.25,2.18-4.25Zm7.57,2-.78-1.52-2.08,4.07h1.08A3.47,3.47,0,0,1,278.5,357.32Zm-1,2.55h2.3l-1-1.91A2.75,2.75,0,0,0,277.5,359.87Z" transform="translate(-123.61 -70.99)"/><path class="cls-18" d="M284.88,366a1.37,1.37,0,0,1,.2-.13,3.69,3.69,0,0,1,1.45-.58,3.92,3.92,0,0,1,2.8.56,3.48,3.48,0,0,1,1.12,1.14s0,0,.07,0l3.81-1.47a1.21,1.21,0,0,1,1.19.14l.1.09.87.88,0,0-.55.47,0,0-.8-.82a.42.42,0,0,0-.51-.1l-1.13.43-.05,0,0,0,4.17,4.24s0,0,.08,0l.68-.19.06,0,0,0-.7-.72a.32.32,0,0,1-.06-.39.37.37,0,0,1,.37-.19.33.33,0,0,1,.25.12l1.89,1.92,0,0-.56.47,0,0-.56-.57a.06.06,0,0,0-.07,0l-1.11.32a.07.07,0,0,0-.05,0c-.3.67-.6,1.34-.89,2v0l.3.18a3.42,3.42,0,0,1,.92.81,3.21,3.21,0,0,1,.72,2.35,3.11,3.11,0,0,1-.73,1.75,3.72,3.72,0,0,1-3.28,1.37,3.67,3.67,0,0,1-2-.73l-.25-.21,0,0-.28-.29,0,0c-.11-.16-.24-.31-.34-.47a3.27,3.27,0,0,1,.38-3.84l.14-.15-.05-.05-1-1.06a.37.37,0,0,1-.12-.34c0-.3.07-.6.11-.9.09-.79.19-1.58.28-2.38s.17-1.38.25-2.07c0-.13,0-.26,0-.39l-1.13.44h0v.05a3.21,3.21,0,0,1-.73,3.17,3.38,3.38,0,0,1-1,.78,3.94,3.94,0,0,1-2.86.3,3.62,3.62,0,0,1-1.37-.69l-.19-.15-.28-.29,0,0c-.1-.15-.22-.29-.32-.45a3.17,3.17,0,0,1-.31-2.73,3.21,3.21,0,0,1,.72-1.2l.17-.18ZM290,367.9H290l-1.9.74-.68.26a.37.37,0,0,1-.48-.16.34.34,0,0,1,.21-.48l2.57-1,.05,0a3.06,3.06,0,0,0-3.78-1.1,2.65,2.65,0,0,0-1.47,3.55,3,3,0,0,0,3.8,1.46A2.65,2.65,0,0,0,290,367.9Zm2.9,7a2.58,2.58,0,0,0-.4,3.06,3,3,0,0,0,3.32,1.39,2.79,2.79,0,0,0,2.23-2.63,2.65,2.65,0,0,0-1.48-2.38c-.07.15-.13.31-.2.46-.29.66-.58,1.32-.88,2a.33.33,0,0,1-.14.17.4.4,0,0,1-.5-.07c-.64-.64-1.27-1.29-1.91-1.94Zm-.26-8-.67,5.63,4.85-1.38Zm3.54,6.52.68-1.56-4.64,1.32.73.73A4,4,0,0,1,296.22,373.4Zm-2.71,1,1.56,1.58.86-1.95A3.15,3.15,0,0,0,293.51,374.43Z" transform="translate(-123.61 -70.99)"/><path class="cls-18" d="M305.05,348.21l.13-.2a3.46,3.46,0,0,1,1.11-1,3.88,3.88,0,0,1,2.81-.49,3.73,3.73,0,0,1,1.51.66s.05,0,.08,0c1-.91,1.93-1.81,2.9-2.71a1.2,1.2,0,0,1,1.16-.3l.13.05,1.17.5,0,0-.32.63-.06,0-1.08-.47a.41.41,0,0,0-.51.09l-.86.8,0,0,.05,0,5.6,2.43a.05.05,0,0,0,.08,0l.56-.42.05,0-.06,0-.95-.41a.35.35,0,0,1-.21-.34.37.37,0,0,1,.26-.32.45.45,0,0,1,.28,0l2.55,1.1,0,0-.32.63-.05,0-.75-.33a.08.08,0,0,0-.08,0l-.89.69a.07.07,0,0,0,0,.06c0,.72,0,1.45,0,2.18v0l.35.05a3.52,3.52,0,0,1,1.19.42,3.46,3.46,0,0,1,1.63,1.91,3,3,0,0,1,.06,1.88,3.48,3.48,0,0,1-2.47,2.44,3.8,3.8,0,0,1-2.14,0l-.32-.1h0l-.37-.16-.05,0a5.43,5.43,0,0,1-.51-.32,3.4,3.4,0,0,1-1.29-1.87,3.19,3.19,0,0,1,.05-1.81l.06-.18-.05,0-1.4-.61a.39.39,0,0,1-.26-.27l-.27-.87-.72-2.3-.63-2-.12-.38-.86.81h0l0,0a3.19,3.19,0,0,1,.63,3.19,2.9,2.9,0,0,1-.61,1.08,3.74,3.74,0,0,1-2.51,1.3,3.85,3.85,0,0,1-1.55-.15l-.24-.07-.38-.17,0,0a5.4,5.4,0,0,1-.47-.3,3.31,3.31,0,0,1-1.42-2.41,3.19,3.19,0,0,1,.16-1.37,1.43,1.43,0,0,0,.08-.22Zm5.58,0,0,0-1.45,1.36-.52.48a.39.39,0,0,1-.52,0,.32.32,0,0,1,0-.51l2-1.84,0,0a3.09,3.09,0,0,0-3.94.33,2.58,2.58,0,0,0,.11,3.8,3.1,3.1,0,0,0,4.11,0A2.59,2.59,0,0,0,310.63,348.16Zm5.57,5.44a2.59,2.59,0,0,0,.9,3,3.13,3.13,0,0,0,3.63.1,2.61,2.61,0,0,0,1-3.22,2.88,2.88,0,0,0-2.35-1.67v.49c0,.72,0,1.43,0,2.14a.31.31,0,0,1-.06.21.4.4,0,0,1-.49.12l-2.56-1.11Zm-3.56-7.31,1.71,5.43,3.91-3Zm6,4.75,0-1.67-3.74,2.86,1,.42A3.8,3.8,0,0,1,318.61,351ZM316.53,353l2.09.91v-2.11A3,3,0,0,0,316.53,353Z" transform="translate(-123.61 -70.99)"/><path class="cls-18" d="M263.29,206.41l0-.23a3.16,3.16,0,0,1,.53-1.38,3.62,3.62,0,0,1,2.32-1.55,3.76,3.76,0,0,1,1.67,0s.06,0,.07,0c.46-1.2.92-2.4,1.39-3.59a1.13,1.13,0,0,1,.92-.73h1.46v.7h-1.26a.38.38,0,0,0-.42.28l-.42,1.06s0,0,0,0h6.24a.08.08,0,0,0,.08,0l.3-.6,0-.05H275.1a.38.38,0,0,1-.35-.22.34.34,0,0,1,.1-.39.35.35,0,0,1,.26-.09H278v.7h-.89a.06.06,0,0,0-.06,0l-.5,1a.06.06,0,0,0,0,.06c.33.66.67,1.31,1,2v0c.12,0,.23-.07.35-.09a3.8,3.8,0,0,1,1.26-.09,3.71,3.71,0,0,1,2.35,1.1,3.1,3.1,0,0,1,.91,1.68,3.2,3.2,0,0,1-1.12,3.17,3.64,3.64,0,0,1-1.92.87l-.34,0h-.51c-.21,0-.41,0-.61-.09a3.68,3.68,0,0,1-2-1.18,3.25,3.25,0,0,1-.79-1.66c0-.07,0-.13,0-.2h-1.62a.45.45,0,0,1-.35-.15c-.22-.22-.43-.45-.65-.68l-1.69-1.79c-.5-.53-1-1-1.49-1.58l-.28-.29-.41,1.07h0l0,0a3.44,3.44,0,0,1,2,2.64,3,3,0,0,1-.06,1.22,3.45,3.45,0,0,1-1.68,2.16,3.85,3.85,0,0,1-1.48.48l-.24,0h-.47c-.19,0-.38,0-.57-.08a3.65,3.65,0,0,1-2.39-1.63,3.24,3.24,0,0,1-.47-1.3l0-.23Zm5-2.23a.08.08,0,0,1,0,0l-.69,1.8c-.08.22-.17.43-.25.64a.37.37,0,0,1-.46.23.34.34,0,0,1-.23-.47c.31-.81.62-1.62.94-2.43a.43.43,0,0,1,0-.05,3,3,0,0,0-3.42,1.84,2.68,2.68,0,0,0,1.83,3.4,3,3,0,0,0,3.72-1.61A2.62,2.62,0,0,0,268.32,204.18Zm7.53,2.73a2.76,2.76,0,0,0,2.17,2.33,3,3,0,0,0,3.34-1.33,2.6,2.6,0,0,0-.58-3.3,3.06,3.06,0,0,0-2.9-.59c.08.15.16.3.23.45l1,1.93a.34.34,0,0,1,0,.22.37.37,0,0,1-.39.29h-2.9Zm-6.56-5.23,4,4.26,2.17-4.26Zm7.58,2-.78-1.52L274,206.2h1.07A3.46,3.46,0,0,1,276.87,203.65Zm-1,2.55h2.31l-1-1.9A2.76,2.76,0,0,0,275.86,206.2Z" transform="translate(-123.61 -70.99)"/><path class="cls-18" d="M290.14,198.09l0-.22a3,3,0,0,1,.52-1.38,3.66,3.66,0,0,1,2.33-1.55,3.92,3.92,0,0,1,1.67,0s.05,0,.07,0c.46-1.2.92-2.4,1.39-3.6a1.11,1.11,0,0,1,.92-.72h1.45v.7h-1.26a.4.4,0,0,0-.42.27c-.14.36-.27.72-.41,1.07l0,0h6.24s.06,0,.07,0l.31-.6,0-.05H302a.36.36,0,0,1-.35-.22.32.32,0,0,1,.09-.38.39.39,0,0,1,.27-.1h2.86V192h-.89a.05.05,0,0,0-.06,0c-.17.33-.34.65-.5,1a.06.06,0,0,0,0,.06l1,2,0,0,.34-.1a4.16,4.16,0,0,1,1.27-.08,3.77,3.77,0,0,1,2.35,1.09,3.17,3.17,0,0,1,.91,1.68,3.23,3.23,0,0,1-1.12,3.18,3.64,3.64,0,0,1-1.93.87l-.34,0h-.51c-.2,0-.41,0-.61-.09a3.61,3.61,0,0,1-2-1.19,3.21,3.21,0,0,1-.79-1.66l0-.19h-1.61a.49.49,0,0,1-.36-.15l-.64-.68c-.56-.6-1.13-1.2-1.7-1.79l-1.48-1.58-.28-.29-.41,1.07h0l0,0a3.42,3.42,0,0,1,2,2.64,3.13,3.13,0,0,1-.06,1.22,3.48,3.48,0,0,1-1.68,2.16,3.85,3.85,0,0,1-1.48.48l-.25,0h-.46c-.19,0-.39,0-.57-.08a3.69,3.69,0,0,1-2.39-1.63,3.09,3.09,0,0,1-.47-1.3l0-.24Zm5-2.23s0,0,0,0l-.69,1.8c-.09.21-.17.43-.25.64a.39.39,0,0,1-.46.23.35.35,0,0,1-.24-.47c.32-.81.63-1.62.94-2.44,0,0,0,0,0,0a3,3,0,0,0-3.42,1.84,2.68,2.68,0,0,0,1.83,3.4,3,3,0,0,0,3.72-1.62A2.63,2.63,0,0,0,295.17,195.86Zm7.53,2.74a2.77,2.77,0,0,0,2.17,2.33,3,3,0,0,0,3.34-1.34,2.59,2.59,0,0,0-.59-3.3,3.09,3.09,0,0,0-2.89-.59l.23.45,1,1.94a.39.39,0,0,1,0,.21.38.38,0,0,1-.39.3h-2.9Zm-6.56-5.23,4,4.25,2.17-4.25Zm7.57,2-.78-1.52-2.07,4.07h1.07A3.47,3.47,0,0,1,303.71,195.34Zm-1,2.55H305L304,196A2.75,2.75,0,0,0,302.71,197.89Z" transform="translate(-123.61 -70.99)"/><path class="cls-18" d="M297.94,177c0-.07,0-.15,0-.22a3.16,3.16,0,0,1,.53-1.38,3.66,3.66,0,0,1,2.33-1.55,3.87,3.87,0,0,1,1.66,0s.06,0,.07,0c.47-1.2.93-2.4,1.39-3.6a1.14,1.14,0,0,1,.92-.72h1.46v.7h-1.26a.4.4,0,0,0-.42.27l-.42,1.07a.09.09,0,0,1,0,.05h6.24a.08.08,0,0,0,.07,0l.31-.6,0,0h-1.1a.37.37,0,0,1-.35-.22.34.34,0,0,1,.09-.39.38.38,0,0,1,.27-.09h2.85v.7h-.88s-.05,0-.07,0c-.16.33-.33.65-.5,1,0,0,0,0,0,.06l1,2,0,0a3.37,3.37,0,0,1,.34-.09,3.84,3.84,0,0,1,1.26-.09,3.77,3.77,0,0,1,2.36,1.09,3.27,3.27,0,0,1-.22,4.86,3.57,3.57,0,0,1-1.92.87l-.34,0h-.51c-.2,0-.41-.05-.61-.09a3.64,3.64,0,0,1-2-1.19,3.28,3.28,0,0,1-.78-1.66l0-.19h-1.61a.48.48,0,0,1-.36-.15l-.64-.68c-.57-.6-1.13-1.2-1.7-1.79l-1.49-1.58-.27-.29-.42,1.07h0l.05,0a3.44,3.44,0,0,1,2,2.64,2.79,2.79,0,0,1-.06,1.22,3.41,3.41,0,0,1-1.68,2.16,3.79,3.79,0,0,1-1.48.48l-.24,0h-.47c-.19,0-.38,0-.56-.08a3.66,3.66,0,0,1-2.39-1.63,3.11,3.11,0,0,1-.48-1.3c0-.08,0-.16,0-.23Zm5-2.22a.08.08,0,0,0,0,0l-.7,1.8c-.08.21-.16.43-.25.64a.38.38,0,0,1-.45.23.34.34,0,0,1-.24-.47l.94-2.43s0,0,0,0a3,3,0,0,0-3.43,1.84,2.68,2.68,0,0,0,1.84,3.4,3,3,0,0,0,3.72-1.62A2.63,2.63,0,0,0,303,174.79Zm7.53,2.73a2.76,2.76,0,0,0,2.17,2.33,3,3,0,0,0,3.33-1.33,2.6,2.6,0,0,0-.58-3.31,3.1,3.1,0,0,0-2.89-.59c.07.15.15.3.23.45.32.65.65,1.29,1,1.94a.27.27,0,0,1,0,.21.36.36,0,0,1-.39.3H310.5Zm-6.56-5.23,4,4.25,2.18-4.25Zm7.57,2-.78-1.52-2.08,4.07h1.08A3.47,3.47,0,0,1,311.51,174.26Zm-1,2.55h2.3l-1-1.9A2.7,2.7,0,0,0,310.51,176.81Z" transform="translate(-123.61 -70.99)"/><path class="cls-18" d="M297,224l0-.22a3.14,3.14,0,0,1,.52-1.38,3.66,3.66,0,0,1,2.33-1.55,3.77,3.77,0,0,1,1.67,0,.07.07,0,0,0,.07,0c.46-1.2.92-2.4,1.39-3.6a1.11,1.11,0,0,1,.92-.72h1.46v.7h-1.27a.4.4,0,0,0-.42.27c-.14.36-.27.72-.41,1.07l0,.05h6.24s.06,0,.07,0l.31-.6,0,0h-1.11a.38.38,0,0,1-.35-.22.34.34,0,0,1,.09-.39.38.38,0,0,1,.27-.09h2.86v.7h-.89a.06.06,0,0,0-.06,0c-.17.33-.34.65-.5,1a.06.06,0,0,0,0,.06l1,2,0,0,.34-.09a3.88,3.88,0,0,1,1.27-.09,3.75,3.75,0,0,1,2.35,1.09,3.17,3.17,0,0,1,.91,1.68,3.23,3.23,0,0,1-1.12,3.18,3.64,3.64,0,0,1-1.93.87l-.33,0h-.52c-.2,0-.41-.05-.6-.09a3.64,3.64,0,0,1-2-1.19,3.21,3.21,0,0,1-.79-1.66l0-.19h-1.61a.49.49,0,0,1-.36-.15l-.64-.68c-.56-.6-1.13-1.19-1.7-1.79L303,220.29l-.28-.29-.41,1.07h0l0,0a3.43,3.43,0,0,1,2,2.64,3.13,3.13,0,0,1-.06,1.22,3.48,3.48,0,0,1-1.68,2.16,3.85,3.85,0,0,1-1.48.48l-.25,0h-.46c-.19,0-.39,0-.57-.08a3.69,3.69,0,0,1-2.39-1.63,3.09,3.09,0,0,1-.47-1.3l0-.23Zm5-2.22s0,0,0,0l-.69,1.8c-.09.22-.17.43-.25.64a.38.38,0,0,1-.46.23.33.33,0,0,1-.23-.47l.93-2.43s0,0,0,0a3,3,0,0,0-3.42,1.84,2.68,2.68,0,0,0,1.83,3.4,3,3,0,0,0,3.72-1.61A2.62,2.62,0,0,0,302.05,221.76Zm7.53,2.73a2.76,2.76,0,0,0,2.17,2.33,3,3,0,0,0,3.34-1.33,2.59,2.59,0,0,0-.59-3.3,3,3,0,0,0-2.89-.59l.23.45,1,1.93a.39.39,0,0,1,0,.21.37.37,0,0,1-.39.3h-2.9ZM303,219.26l4,4.26,2.17-4.26Zm7.57,2-.78-1.52-2.07,4.07h1.07A3.47,3.47,0,0,1,310.59,221.23Zm-1,2.55h2.31l-1-1.9A2.75,2.75,0,0,0,309.59,223.78Z" transform="translate(-123.61 -70.99)"/><path class="cls-18" d="M327.29,231.2a1.77,1.77,0,0,0,0-.23,3.26,3.26,0,0,1,.29-1.44,3.52,3.52,0,0,1,2.05-1.86,3.85,3.85,0,0,1,1.65-.23s.05,0,.06-.05c.26-1.25.51-2.5.78-3.75a1.06,1.06,0,0,1,.79-.84.28.28,0,0,1,.13,0l1.27-.19h0l.12.69h-.06l-1.19.17a.39.39,0,0,0-.37.33c-.07.37-.15.74-.23,1.12a.13.13,0,0,1,0,0h.06l6.11-.88s.05,0,.06-.05l.21-.64s0,0,0-.06H339l-1,.15a.38.38,0,0,1-.38-.17.33.33,0,0,1,0-.4.35.35,0,0,1,.25-.12l2.77-.4h.05l.11.69h0l-.82.12s-.05,0-.06,0l-.33,1a.07.07,0,0,0,0,.06l1.32,1.8,0,0,.32-.14a3.78,3.78,0,0,1,1.24-.27,3.86,3.86,0,0,1,2.51.75,3.31,3.31,0,0,1,.59,4.83,3.56,3.56,0,0,1-1.76,1.13l-.33.08,0,0-.41.06h-.67a3.75,3.75,0,0,1-2.19-.89,3.32,3.32,0,0,1-1.05-1.52L339,230H339l-1.53.22a.47.47,0,0,1-.38-.1l-.75-.58-2-1.53-1.73-1.34-.32-.25-.24,1.11h0l.06,0a3.52,3.52,0,0,1,2.44,2.32,2.76,2.76,0,0,1,.14,1.21,3.3,3.3,0,0,1-1.3,2.37,3.66,3.66,0,0,1-1.38.69l-.24.06-.41.06s0,0-.05,0h-.57a3.74,3.74,0,0,1-2.63-1.27,3.3,3.3,0,0,1-.69-1.22l-.06-.22Zm4.61-2.92,0,.05c-.13.62-.26,1.25-.38,1.87-.05.23-.1.45-.14.67a.38.38,0,0,1-.42.29.35.35,0,0,1-.31-.43c.18-.85.35-1.69.52-2.54a.07.07,0,0,0,0-.05,2.89,2.89,0,0,0-3.07,2.31,2.75,2.75,0,0,0,2.37,3.1,2.93,2.93,0,0,0,3.41-2.13A2.7,2.7,0,0,0,331.9,228.28Zm7.89,1.63a2.86,2.86,0,0,0,2.53,2,3,3,0,0,0,3.07-1.79,2.61,2.61,0,0,0-1.12-3.18,3.1,3.1,0,0,0-3-.17l.31.41,1.29,1.77a.32.32,0,0,1,.08.21.36.36,0,0,1-.34.34l-2.8.41Zm-7.35-4.23,4.68,3.62,1.45-4.51Zm7.81.86-1-1.39-1.38,4.32,1.06-.15A3.38,3.38,0,0,1,340.25,226.54Zm-.57,2.66,2.28-.33-1.28-1.74A2.68,2.68,0,0,0,339.68,229.2Z" transform="translate(-123.61 -70.99)"/><path class="cls-18" d="M327.46,207.46c0-.08,0-.15,0-.23a3,3,0,0,1,.2-1.45,3.49,3.49,0,0,1,1.93-2,3.76,3.76,0,0,1,1.63-.31s.05,0,.06-.05l.54-3.79a1.09,1.09,0,0,1,.74-.88l.13,0,1.26-.25h0l.16.68-.06,0-1.17.23a.38.38,0,0,0-.35.35c-.06.38-.11.75-.17,1.13v.05h.05l6.05-1.2s0,0,.06-.06c.05-.21.11-.43.17-.65a.43.43,0,0,0,0-.05h-.06l-1,.2a.38.38,0,0,1-.39-.15.32.32,0,0,1,0-.39.38.38,0,0,1,.24-.15l2.74-.54h0l.16.68h-.05l-.82.17s0,0-.05,0l-.27,1.05a.08.08,0,0,0,0,.06l1.42,1.73,0,0,.31-.16a4.24,4.24,0,0,1,1.22-.33,3.87,3.87,0,0,1,2.55.62,3.38,3.38,0,0,1,1.27,1.46,3.17,3.17,0,0,1-.39,3.33,3.47,3.47,0,0,1-1.68,1.22l-.32.1-.05,0-.4.08h-.05c-.21,0-.41,0-.62,0a3.79,3.79,0,0,1-2.24-.77,3.35,3.35,0,0,1-1.14-1.47,1.07,1.07,0,0,1-.07-.19l-.06,0-1.52.3a.46.46,0,0,1-.38-.08l-.78-.54-2.07-1.42-1.81-1.25-.34-.23-.16,1.12H332a3.59,3.59,0,0,1,2.59,2.19,2.75,2.75,0,0,1,.21,1.2,3.27,3.27,0,0,1-1.15,2.44,3.6,3.6,0,0,1-1.34.75l-.23.08-.41.08h0a5.44,5.44,0,0,1-.57,0,3.79,3.79,0,0,1-2.7-1.12,3.15,3.15,0,0,1-.76-1.19c0-.07-.05-.14-.08-.22Zm4.42-3.16a.11.11,0,0,0,0,0l-.27,1.9c0,.22-.07.45-.1.67a.37.37,0,0,1-.4.31.35.35,0,0,1-.34-.41c.13-.86.25-1.71.37-2.56a.43.43,0,0,1,0,0,2.85,2.85,0,0,0-2.93,2.47,2.77,2.77,0,0,0,2.56,3,2.9,2.9,0,0,0,3.27-2.3A2.72,2.72,0,0,0,331.88,204.3Zm8,1.21a2.88,2.88,0,0,0,2.64,1.86,2.94,2.94,0,0,0,3-2,2.67,2.67,0,0,0-1.32-3.12,3.07,3.07,0,0,0-3,0l.32.39,1.41,1.7a.32.32,0,0,1,.08.2.35.35,0,0,1-.31.37l-2.77.55Zm-7.6-3.83,4.9,3.37,1.16-4.58Zm7.85.45L339,200.8l-1.12,4.38,1.05-.21A3.34,3.34,0,0,1,340.11,202.13Zm-.41,2.69,2.26-.45-1.38-1.67A2.67,2.67,0,0,0,339.7,204.82Z" transform="translate(-123.61 -70.99)"/><path class="cls-18" d="M302.66,254.11l0-.22a3.24,3.24,0,0,1,.53-1.39,3.67,3.67,0,0,1,2.32-1.54,3.77,3.77,0,0,1,1.67,0s.06,0,.07,0c.46-1.2.92-2.4,1.39-3.6a1.14,1.14,0,0,1,.92-.72h1.46v.7h-1.26a.38.38,0,0,0-.42.27l-.42,1.07a.43.43,0,0,0,0,.05h6.23a.08.08,0,0,0,.08,0c.1-.2.2-.4.31-.6,0,0,0,0,0-.06h-1.11a.36.36,0,0,1-.35-.22.33.33,0,0,1,.1-.38.35.35,0,0,1,.26-.1h2.86v.7h-.89a.05.05,0,0,0-.06,0l-.5,1a.06.06,0,0,0,0,.06l1,2v0l.35-.1a3.79,3.79,0,0,1,1.26-.08,3.75,3.75,0,0,1,2.35,1.09,3.19,3.19,0,0,1,.92,1.68,3.24,3.24,0,0,1-1.13,3.18,3.72,3.72,0,0,1-1.92.87l-.34,0h-.51a6,6,0,0,1-.61-.08,3.69,3.69,0,0,1-2-1.19,3.21,3.21,0,0,1-.79-1.66c0-.06,0-.13,0-.19h-1.61a.46.46,0,0,1-.36-.15l-.64-.68-1.7-1.8c-.5-.52-1-1-1.49-1.57l-.28-.29L308,251.2h0l0,0a3.43,3.43,0,0,1,2,2.64,3,3,0,0,1-.06,1.22,3.45,3.45,0,0,1-1.68,2.16,3.79,3.79,0,0,1-1.48.48l-.24,0h-.47a5.54,5.54,0,0,1-.57-.07,3.69,3.69,0,0,1-2.39-1.63,3.24,3.24,0,0,1-.47-1.3l0-.24Zm5-2.23a.08.08,0,0,1,0,.05l-.69,1.8-.25.64a.36.36,0,0,1-.45.22.34.34,0,0,1-.24-.47c.31-.81.62-1.62.94-2.43a.43.43,0,0,0,0-.05,3,3,0,0,0-3.42,1.85,2.68,2.68,0,0,0,1.83,3.4,3,3,0,0,0,3.73-1.62A2.64,2.64,0,0,0,307.69,251.88Zm7.53,2.74a2.78,2.78,0,0,0,2.17,2.33,3,3,0,0,0,3.34-1.34,2.6,2.6,0,0,0-.58-3.3,3.11,3.11,0,0,0-2.9-.59c.08.15.16.3.23.45l1,1.94a.32.32,0,0,1,0,.21.38.38,0,0,1-.39.3h-2.9Zm-6.56-5.23,4,4.25,2.17-4.25Zm7.58,2-.78-1.52-2.08,4.07h1.07A3.46,3.46,0,0,1,316.24,251.36Zm-1,2.55h2.31l-1-1.91A2.76,2.76,0,0,0,315.23,253.91Z" transform="translate(-123.61 -70.99)"/><path class="cls-18" d="M270.39,269.67l0-.22a3.06,3.06,0,0,1,.52-1.39,3.7,3.7,0,0,1,2.33-1.55,3.87,3.87,0,0,1,1.66,0c.05,0,.06,0,.07,0,.47-1.2.93-2.4,1.39-3.6a1.14,1.14,0,0,1,.92-.72h1.46v.69h-1.26a.39.39,0,0,0-.42.28c-.14.36-.28.71-.41,1.07,0,0,0,0,0,.05h6.24a.08.08,0,0,0,.07,0l.31-.6s0,0,0-.06h-1.1a.37.37,0,0,1-.35-.22.34.34,0,0,1,.09-.39.44.44,0,0,1,.27-.09h2.85v.7h-.88a.07.07,0,0,0-.07,0l-.5,1v.06l1,2,0,0,.34-.09a3.58,3.58,0,0,1,1.26-.08,3.72,3.72,0,0,1,2.36,1.09,3.17,3.17,0,0,1,.91,1.68,3.24,3.24,0,0,1-1.13,3.18,3.65,3.65,0,0,1-1.92.87l-.34,0h-.51c-.2,0-.41,0-.61-.09a3.71,3.71,0,0,1-2-1.18,3.32,3.32,0,0,1-.78-1.66l0-.19h-1.61a.48.48,0,0,1-.36-.15l-.64-.68-1.7-1.8L276.37,266l-.27-.29-.42,1.07h0l.05,0a3.44,3.44,0,0,1,2,2.64,2.91,2.91,0,0,1-.07,1.21,3.41,3.41,0,0,1-1.68,2.17,3.62,3.62,0,0,1-1.48.47l-.24,0h-.47a3.43,3.43,0,0,1-.56-.08,3.61,3.61,0,0,1-2.39-1.62,3.14,3.14,0,0,1-.47-1.31l0-.23Zm5-2.23s0,0,0,.05l-.7,1.8-.24.64a.39.39,0,0,1-.46.22.34.34,0,0,1-.24-.47l.94-2.43,0-.05a3,3,0,0,0-3.43,1.85,2.69,2.69,0,0,0,1.84,3.4,3,3,0,0,0,3.72-1.62A2.65,2.65,0,0,0,275.42,267.44Zm7.53,2.74a2.78,2.78,0,0,0,2.17,2.33,3,3,0,0,0,3.33-1.34,2.59,2.59,0,0,0-.58-3.3,3.09,3.09,0,0,0-2.89-.59c.07.15.15.3.23.45l1,1.93a.29.29,0,0,1,0,.22.37.37,0,0,1-.39.3H283ZM276.39,265l4,4.25,2.18-4.25Zm7.57,2-.78-1.51-2.08,4.06h1.08A3.49,3.49,0,0,1,284,266.91Zm-1,2.55h2.3l-1-1.9A2.75,2.75,0,0,0,283,269.46Z" transform="translate(-123.61 -70.99)"/><path class="cls-18" d="M302.66,289.67l0-.23a3.2,3.2,0,0,1,.53-1.38,3.64,3.64,0,0,1,2.32-1.55,3.92,3.92,0,0,1,1.67,0s.06,0,.07,0c.46-1.2.92-2.4,1.39-3.59a1.14,1.14,0,0,1,.92-.72l.14,0h1.32v.7h-1.26a.38.38,0,0,0-.42.28L309,284.2s0,0,0,0h6.23a.07.07,0,0,0,.08-.05c.1-.2.2-.4.31-.6a.17.17,0,0,1,0-.05h-1.11a.38.38,0,0,1-.35-.22.34.34,0,0,1,.1-.39.39.39,0,0,1,.26-.09h2.86v.7h-.89a.05.05,0,0,0-.06,0l-.5,1a.06.06,0,0,0,0,.06c.33.66.67,1.32,1,2v0l.35-.09a3.8,3.8,0,0,1,1.26-.09,3.76,3.76,0,0,1,2.35,1.1,3.12,3.12,0,0,1,.92,1.68,3.22,3.22,0,0,1-1.13,3.17,3.64,3.64,0,0,1-1.92.87l-.34,0h-.51a6,6,0,0,1-.61-.09,3.68,3.68,0,0,1-2-1.18,3.25,3.25,0,0,1-.79-1.66c0-.07,0-.13,0-.2h-1.61a.43.43,0,0,1-.36-.15c-.22-.22-.43-.45-.64-.68-.57-.59-1.14-1.19-1.7-1.79L308.65,286l-.28-.29-.41,1.06h0l0,0a3.44,3.44,0,0,1,2,2.65,2.91,2.91,0,0,1-.06,1.21,3.45,3.45,0,0,1-1.68,2.16,3.64,3.64,0,0,1-1.48.48l-.24,0h-.47c-.19,0-.38,0-.57-.08a3.65,3.65,0,0,1-2.39-1.63,3.18,3.18,0,0,1-.47-1.3l0-.23Zm5-2.23s0,0,0,.05l-.69,1.79c-.08.22-.17.43-.25.65a.37.37,0,0,1-.45.22.34.34,0,0,1-.24-.47c.31-.81.62-1.62.94-2.43,0,0,0,0,0-.05a3,3,0,0,0-3.42,1.84,2.68,2.68,0,0,0,1.83,3.4,3,3,0,0,0,3.73-1.61A2.64,2.64,0,0,0,307.69,287.44Zm7.53,2.73a2.76,2.76,0,0,0,2.17,2.33,3,3,0,0,0,3.34-1.33,2.6,2.6,0,0,0-.58-3.3,3.06,3.06,0,0,0-2.9-.59c.08.15.16.3.23.45l1,1.93a.34.34,0,0,1,0,.22.37.37,0,0,1-.39.29h-2.9Zm-6.56-5.23,4,4.26,2.17-4.26Zm7.58,2-.78-1.51-2.08,4.06h1.07A3.47,3.47,0,0,1,316.24,286.91Zm-1,2.55h2.31l-1-1.9A2.76,2.76,0,0,0,315.23,289.46Z" transform="translate(-123.61 -70.99)"/><path class="cls-18" d="M329.45,274.74l.09-.21a3.44,3.44,0,0,1,.92-1.19,3.82,3.82,0,0,1,2.71-.89,3.78,3.78,0,0,1,1.59.44.05.05,0,0,0,.08,0l2.42-3.09a1.19,1.19,0,0,1,1.1-.45l.13,0,1.24.33h0l-.21.67h-.06l-1.15-.32a.43.43,0,0,0-.49.16l-.72.92,0,0,.06,0,5.93,1.6a.1.1,0,0,0,.09,0c.15-.17.31-.33.47-.5a.1.1,0,0,0,0-.05h-.05l-1-.27a.34.34,0,0,1-.06-.65.34.34,0,0,1,.28,0l2.7.72.05,0-.22.67h-.05l-.8-.22a.06.06,0,0,0-.07,0l-.77.81s0,0,0,.06c.12.71.25,1.43.37,2.15v0h.36a3.74,3.74,0,0,1,1.24.24,3.6,3.6,0,0,1,1.93,1.66,3.1,3.1,0,0,1,.37,1.85,3.37,3.37,0,0,1-2,2.76,3.73,3.73,0,0,1-2.11.34l-.33-.05h-.05l-.39-.1,0,0a5.62,5.62,0,0,1-.56-.25,3.39,3.39,0,0,1-1.58-1.66,3.07,3.07,0,0,1-.26-1.79l0-.2h-.06l-1.48-.4a.46.46,0,0,1-.3-.24l-.41-.82-1.1-2.16-.95-1.9-.18-.35-.72.92h0l0,0a3.27,3.27,0,0,1,1.16,3.07,3,3,0,0,1-.43,1.15,3.64,3.64,0,0,1-2.26,1.64,4,4,0,0,1-1.57.08l-.24,0-.4-.11,0,0a4.06,4.06,0,0,1-.52-.22,3.43,3.43,0,0,1-1.81-2.18,3.21,3.21,0,0,1-.06-1.38c0-.07,0-.15,0-.23Zm5.5-.84,0,0c-.41.51-.81,1-1.21,1.55-.14.18-.29.36-.43.55a.41.41,0,0,1-.51.1.34.34,0,0,1-.08-.52l1.63-2.09,0,0a3.07,3.07,0,0,0-3.84.88,2.6,2.6,0,0,0,.74,3.74,3.09,3.09,0,0,0,4.06-.59A2.57,2.57,0,0,0,335,273.9Zm6.41,4.57a2.63,2.63,0,0,0,1.38,2.8,3.11,3.11,0,0,0,3.61-.42,2.59,2.59,0,0,0,.43-3.32,3,3,0,0,0-2.6-1.31c0,.16.06.33.08.49.13.7.25,1.41.37,2.11a.28.28,0,0,1,0,.22.39.39,0,0,1-.46.18l-2.72-.73Zm-4.73-6.72,2.59,5.13,3.37-3.52Zm6.68,3.85L343,274l-3.22,3.36,1,.28A3.72,3.72,0,0,1,343.31,275.6Zm-1.73,2.19,2.22.6-.36-2.08A2.94,2.94,0,0,0,341.58,277.79Z" transform="translate(-123.61 -70.99)"/><path class="cls-18" d="M335.34,254.57a1.72,1.72,0,0,1,.07-.21,3.26,3.26,0,0,1,.74-1.3,3.94,3.94,0,0,1,4.21-.95s.05,0,.07,0c.65-1.12,1.31-2.24,2-3.36a1.16,1.16,0,0,1,1-.58h.13l1.27.18h0l-.12.69h-.06l-1.18-.17a.39.39,0,0,0-.46.22c-.2.33-.4.66-.59,1l0,.05h.05l6.11.88s.06,0,.08,0c.13-.19.27-.37.4-.55l0,0h-.06l-1-.15a.38.38,0,0,1-.31-.27.35.35,0,0,1,.16-.37.45.45,0,0,1,.28,0l2.77.4H351l-.11.69h-.06l-.82-.12s-.05,0-.07,0c-.22.3-.44.59-.65.89a.07.07,0,0,0,0,.06l.66,2.09,0,0,.35,0a3.55,3.55,0,0,1,1.26.1,3.63,3.63,0,0,1,2.15,1.41,3.1,3.1,0,0,1,.62,1.79,3.28,3.28,0,0,1-1.64,3,3.82,3.82,0,0,1-2,.59l-.34,0h-.05l-.41-.06-.05,0c-.19-.06-.39-.1-.58-.17a3.58,3.58,0,0,1-1.8-1.46,3.15,3.15,0,0,1-.5-1.75v-.2h-.06l-1.53-.22a.45.45,0,0,1-.33-.2c-.17-.25-.35-.5-.52-.76l-1.38-2-1.21-1.77-.23-.33-.58,1h0l.05,0a3.32,3.32,0,0,1,1.57,2.9,2.9,2.9,0,0,1-.26,1.19,3.54,3.54,0,0,1-2,1.9,3.84,3.84,0,0,1-1.54.26h-.24l-.42-.06h0c-.19-.06-.38-.09-.55-.16a3.56,3.56,0,0,1-2.09-1.95,3,3,0,0,1-.25-1.35,1.93,1.93,0,0,1,0-.24Zm5.34-1.48,0,0-1,1.68-.35.6a.4.4,0,0,1-.49.16.34.34,0,0,1-.16-.5L340,252.8l0-.05a3,3,0,0,0-3.69,1.34,2.63,2.63,0,0,0,1.25,3.62,3,3,0,0,0,3.94-1.07A2.58,2.58,0,0,0,340.68,253.09Zm7,3.77a2.7,2.7,0,0,0,1.76,2.62,3.1,3.1,0,0,0,3.52-.85,2.59,2.59,0,0,0,0-3.34,3,3,0,0,0-2.77-1c.05.16.1.32.16.48.21.68.43,1.37.65,2a.28.28,0,0,1,0,.22.37.37,0,0,1-.43.23l-2.8-.4Zm-5.62-6.1,3.28,4.78,2.85-3.9Zm7.16,3-.52-1.6L346,255.9l1,.15A3.62,3.62,0,0,1,349.21,253.78Zm-1.41,2.38,2.28.33-.65-2A2.83,2.83,0,0,0,347.8,256.16Z" transform="translate(-123.61 -70.99)"/><path class="cls-18" d="M292.7,322l0-.23a3.2,3.2,0,0,1,.53-1.38,3.64,3.64,0,0,1,2.33-1.55,3.87,3.87,0,0,1,1.66,0s.06,0,.07,0c.46-1.2.93-2.39,1.39-3.59a1.14,1.14,0,0,1,.92-.72l.14,0h1.32v.7h-1.26a.38.38,0,0,0-.42.28l-.42,1.07a.2.2,0,0,0,0,0h6.24s0,0,.07,0c.1-.2.2-.4.31-.6l0-.05h-1.1a.39.39,0,0,1-.36-.22.36.36,0,0,1,.1-.39.4.4,0,0,1,.27-.09h2.85v.7h-.89a.05.05,0,0,0-.06,0l-.5,1a.06.06,0,0,0,0,.06c.34.66.67,1.32,1,2v0l.35-.09a3.87,3.87,0,0,1,3.62,1,3.26,3.26,0,0,1-.22,4.85,3.64,3.64,0,0,1-1.92.87l-.34,0h-.51c-.2,0-.41,0-.61-.09a3.68,3.68,0,0,1-2-1.18,3.23,3.23,0,0,1-.78-1.66l0-.2h-1.61a.43.43,0,0,1-.36-.15l-.64-.67-1.7-1.8-1.49-1.57-.28-.29-.41,1.06h0l.05,0a3.41,3.41,0,0,1,2,2.64A2.91,2.91,0,0,1,300,323a3.39,3.39,0,0,1-1.68,2.16,3.64,3.64,0,0,1-1.48.48l-.24,0h-.47c-.19,0-.38,0-.57-.08a3.61,3.61,0,0,1-2.38-1.63,3.06,3.06,0,0,1-.48-1.3l0-.23Zm5-2.23,0,.05-.69,1.79c-.08.22-.16.43-.25.65a.37.37,0,0,1-.45.22.34.34,0,0,1-.24-.47c.31-.81.62-1.62.94-2.43,0,0,0,0,0,0a3,3,0,0,0-3.43,1.85,2.68,2.68,0,0,0,1.83,3.39,3,3,0,0,0,3.73-1.61A2.64,2.64,0,0,0,297.74,319.78Zm7.52,2.73a2.8,2.8,0,0,0,2.17,2.34,3,3,0,0,0,3.34-1.34,2.59,2.59,0,0,0-.58-3.3,3.06,3.06,0,0,0-2.9-.59c.08.15.16.3.23.45l1,1.93a.29.29,0,0,1,0,.22.37.37,0,0,1-.39.29h-2.9Zm-6.55-5.23,4,4.26,2.17-4.26Zm7.57,2-.78-1.51-2.08,4.06h1.07A3.47,3.47,0,0,1,306.28,319.25Zm-1,2.55h2.31l-1-1.9A2.76,2.76,0,0,0,305.27,321.8Z" transform="translate(-123.61 -70.99)"/><path class="cls-18" d="M326.7,312.56l.09-.21a3.19,3.19,0,0,1,.87-1.22,3.92,3.92,0,0,1,4.29-.58s.05,0,.07,0l2.31-3.17a1.17,1.17,0,0,1,1.08-.48l.14,0,1.24.29h0l-.19.67h-.06l-1.16-.27a.38.38,0,0,0-.48.17l-.69.94,0,0h.06l6,1.42a.07.07,0,0,0,.08,0l.46-.51,0-.05h-.06l-1-.24a.37.37,0,0,1-.29-.3.34.34,0,0,1,.2-.35.39.39,0,0,1,.28,0l2.72.64.05,0-.19.67h-.05l-.81-.19a.06.06,0,0,0-.07,0c-.25.28-.49.56-.74.83a.14.14,0,0,0,0,.06l.45,2.14v0h.36a3.81,3.81,0,0,1,1.25.21,3.56,3.56,0,0,1,2,1.6,3.07,3.07,0,0,1,.44,1.84,3.34,3.34,0,0,1-1.94,2.81,3.75,3.75,0,0,1-2.09.41l-.34-.05h-.05l-.4-.09,0,0c-.19-.08-.39-.14-.57-.23a3.46,3.46,0,0,1-1.64-1.61,3.09,3.09,0,0,1-.32-1.79,1.11,1.11,0,0,0,0-.19l-.06,0-1.5-.35a.42.42,0,0,1-.3-.23l-.45-.8c-.38-.71-.77-1.42-1.16-2.13s-.69-1.24-1-1.87l-.19-.34-.68.94h0l0,0a3.27,3.27,0,0,1,1.26,3,2.84,2.84,0,0,1-.38,1.16,3.6,3.6,0,0,1-2.2,1.71,4,4,0,0,1-1.57.13l-.24,0-.41-.09,0,0c-.17-.07-.36-.12-.53-.21a3.48,3.48,0,0,1-1.88-2.12,3.18,3.18,0,0,1-.11-1.37c0-.08,0-.16,0-.23Zm5.47-1,0,0L331,313.17l-.42.57a.38.38,0,0,1-.5.11.33.33,0,0,1-.1-.51c.52-.71,1-1.42,1.55-2.14l0,0a3.07,3.07,0,0,0-3.81,1,2.6,2.6,0,0,0,.88,3.71,3.06,3.06,0,0,0,4-.71A2.57,2.57,0,0,0,332.17,311.55Zm6.57,4.38a2.64,2.64,0,0,0,1.48,2.75,3.09,3.09,0,0,0,3.59-.53,2.58,2.58,0,0,0,.31-3.33,3,3,0,0,0-2.65-1.23c0,.16.07.32.11.49.14.7.29,1.4.44,2.1a.31.31,0,0,1,0,.21.38.38,0,0,1-.46.2l-2.74-.65Zm-5-6.57,2.77,5,3.24-3.62Zm6.82,3.64-.35-1.65-3.1,3.47,1,.24A3.67,3.67,0,0,1,340.59,313Zm-1.65,2.24,2.23.53-.44-2.07A2.9,2.9,0,0,0,338.94,315.24Z" transform="translate(-123.61 -70.99)"/><path class="cls-18" d="M270.81,303.18l0-.22a3.23,3.23,0,0,1,.52-1.39,3.69,3.69,0,0,1,2.33-1.54,3.77,3.77,0,0,1,1.67,0s.05,0,.07,0c.46-1.2.92-2.4,1.39-3.6a1.14,1.14,0,0,1,.92-.72h1.46v.7h-1.26a.39.39,0,0,0-.43.27c-.13.36-.27.71-.41,1.07,0,0,0,0,0,.05h6.24s.06,0,.07,0c.11-.2.21-.4.31-.6l0-.06h-1.11a.36.36,0,0,1-.35-.22.33.33,0,0,1,.1-.39.39.39,0,0,1,.26-.09h2.86v.7h-.89a.05.05,0,0,0-.06,0c-.17.33-.34.65-.5,1a.06.06,0,0,0,0,.06l1,2,0,0,.34-.09a3.62,3.62,0,0,1,1.27-.08,3.75,3.75,0,0,1,2.35,1.09,3.17,3.17,0,0,1,.91,1.68,3.21,3.21,0,0,1-1.12,3.18,3.72,3.72,0,0,1-1.93.87l-.33,0H286a6,6,0,0,1-.61-.08,3.69,3.69,0,0,1-2-1.19,3.21,3.21,0,0,1-.79-1.66l0-.19H281a.45.45,0,0,1-.35-.15l-.65-.68-1.7-1.8-1.48-1.57-.28-.29-.41,1.07h0l0,0a3.42,3.42,0,0,1,2,2.64,3.08,3.08,0,0,1-.06,1.21,3.44,3.44,0,0,1-1.68,2.17,3.85,3.85,0,0,1-1.48.48l-.24,0h-.47a5.54,5.54,0,0,1-.57-.07,3.69,3.69,0,0,1-2.39-1.63,3.09,3.09,0,0,1-.47-1.3l0-.24Zm5-2.23s0,0,0,.05l-.69,1.8-.25.64a.37.37,0,0,1-.46.22.34.34,0,0,1-.23-.47l.93-2.43a.08.08,0,0,0,0-.05,3,3,0,0,0-3.42,1.85,2.68,2.68,0,0,0,1.83,3.4,3,3,0,0,0,3.72-1.62A2.63,2.63,0,0,0,275.84,301Zm7.53,2.74a2.78,2.78,0,0,0,2.17,2.33,3,3,0,0,0,3.34-1.34,2.6,2.6,0,0,0-.58-3.3,3.11,3.11,0,0,0-2.9-.59l.23.45,1,1.94a.35.35,0,0,1-.35.51h-2.9Zm-6.56-5.23,4,4.25,2.17-4.25Zm7.58,2-.79-1.51L281.53,303h1.07A3.47,3.47,0,0,1,284.39,300.42Zm-1,2.56h2.31l-1-1.91A2.75,2.75,0,0,0,283.38,303Z" transform="translate(-123.61 -70.99)"/><path class="cls-18" d="M270.14,241.2l0-.22a3.24,3.24,0,0,1,.53-1.39,3.64,3.64,0,0,1,2.32-1.54,3.77,3.77,0,0,1,1.67,0s.06,0,.07,0c.46-1.2.92-2.4,1.39-3.6a1.14,1.14,0,0,1,.92-.72h1.46v.7h-1.26a.38.38,0,0,0-.42.27l-.42,1.07a.17.17,0,0,1,0,.05h6.24a.08.08,0,0,0,.08,0l.3-.6a.33.33,0,0,0,0-.06H282a.36.36,0,0,1-.35-.22.33.33,0,0,1,.1-.38.35.35,0,0,1,.26-.1h2.86v.7h-.89a.05.05,0,0,0-.06,0l-.5,1a.06.06,0,0,0,0,.06l1,2v0l.35-.1A4.08,4.08,0,0,1,286,238a3.75,3.75,0,0,1,2.35,1.09,3.17,3.17,0,0,1,.91,1.68,3.21,3.21,0,0,1-1.12,3.18,3.72,3.72,0,0,1-1.93.87l-.33,0h-.51a6,6,0,0,1-.61-.08,3.64,3.64,0,0,1-2-1.19,3.21,3.21,0,0,1-.79-1.66c0-.06,0-.13,0-.19h-1.62a.45.45,0,0,1-.35-.15l-.65-.68-1.69-1.8c-.5-.52-1-1-1.49-1.57l-.28-.29-.41,1.07h0l.05,0a3.43,3.43,0,0,1,2,2.64,3,3,0,0,1-.06,1.22,3.45,3.45,0,0,1-1.68,2.16,3.85,3.85,0,0,1-1.48.48l-.24,0h-.47a5.54,5.54,0,0,1-.57-.07,3.69,3.69,0,0,1-2.39-1.63,3.24,3.24,0,0,1-.47-1.3l0-.24Zm5-2.23a.08.08,0,0,1,0,.05l-.69,1.8-.25.64a.38.38,0,0,1-.46.23.34.34,0,0,1-.23-.47c.31-.82.62-1.63.94-2.44a.43.43,0,0,0,0-.05,3,3,0,0,0-3.42,1.85,2.68,2.68,0,0,0,1.83,3.4,3,3,0,0,0,3.72-1.62A2.63,2.63,0,0,0,275.17,239Zm7.53,2.74a2.78,2.78,0,0,0,2.17,2.33,3,3,0,0,0,3.34-1.34,2.6,2.6,0,0,0-.58-3.3,3.11,3.11,0,0,0-2.9-.59c.08.15.16.3.23.45l1,1.94a.32.32,0,0,1,0,.21.38.38,0,0,1-.39.3h-2.9Zm-6.56-5.23,4,4.25,2.17-4.25Zm7.58,2-.78-1.52L280.86,241h1.07A3.46,3.46,0,0,1,283.72,238.45Zm-1,2.55H285l-1-1.91A2.76,2.76,0,0,0,282.71,241Z" transform="translate(-123.61 -70.99)"/><path class="cls-19" d="M320.88,97.39" transform="translate(-123.61 -70.99)"/><ellipse class="cls-20" cx="137.57" cy="60.68" rx="47.21" ry="60.68"/><rect class="cls-21" x="235.11" y="108.31" width="22.71" height="14.12" rx="4.43" ry="4.43" transform="translate(369.33 159.76) rotate(180)"/><rect class="cls-22" x="264.7" y="108.31" width="22.71" height="14.12" rx="4.43" ry="4.43" transform="translate(428.51 159.76) rotate(180)"/><ellipse class="cls-23" cx="122.86" cy="44.39" rx="2.25" ry="2.8"/><ellipse class="cls-23" cx="152.45" cy="44.39" rx="2.25" ry="2.8"/><path class="cls-24" d="M214.51,120.46l20-33.81s36.65,6.39,50.47,0l21.23,29.82s-5.68-24.9-19.08-35.11c-9.37-7.13-12.15-7.58-13-8.07a5.91,5.91,0,0,0-2.53-.67c-4.62-1.47-20-4.07-35.37,7.12C217.76,93.21,214.51,120.46,214.51,120.46Z" transform="translate(-123.61 -70.99)"/><path class="cls-25" d="M285,86.77l21,29.53s-5.61-24.67-18.89-34.77C285.87,80.57,288.94,83,285,86.77Z" transform="translate(-123.61 -70.99)"/><path class="cls-26" d="M307.39,140.49s-43.78,59.65-94,0c0,0,5.33,50.23,47.21,53C260.57,193.45,300.81,194.83,307.39,140.49Z" transform="translate(-123.61 -70.99)"/><line class="cls-19" x1="125.12" y1="92.2" x2="150.2" y2="92.2"/><path class="cls-27" d="M248.72,163.19a22.94,22.94,0,0,1,6.27-2,35.88,35.88,0,0,1,6.27-.54,34.93,34.93,0,0,1,6.27.53,23,23,0,0,1,6.27,2,22.94,22.94,0,0,1-6.27,2,35.88,35.88,0,0,1-6.27.54,36.89,36.89,0,0,1-6.27-.55A23.26,23.26,0,0,1,248.72,163.19Z" transform="translate(-123.61 -70.99)"/><line class="cls-19" x1="123.75" y1="92.2" x2="151.81" y2="92.2"/><path class="cls-28" d="M247.35,163.19c2.34-.16,4.68-.23,7-.29s4.68-.06,7-.09,4.67,0,7,.09,4.68.13,7,.29c-2.34.15-4.68.22-7,.28s-4.67.06-7,.09-4.68,0-7-.09S249.69,163.34,247.35,163.19Z" transform="translate(-123.61 -70.99)"/><polyline class="cls-29" points="142.93 74.85 138.14 76.32 132.39 74.64 137.12 52.5"/><polyline class="cls-30" points="138.14 76.32 132.39 74.64 137.12 52.5"/><path class="cls-20" d="M264.05,115.21s-2.43-3.19-5.57,0" transform="translate(-123.61 -70.99)"/><path class="cls-31" d="M264,115.24a8.68,8.68,0,0,0-2.72-.54,5.46,5.46,0,0,0-1.2.15c-.23.05-.46.13-.73.19a5.09,5.09,0,0,1-.85.2l-.07-.07.6-.55a7.92,7.92,0,0,1,.67-.46,3.41,3.41,0,0,1,1.56-.46,3.73,3.73,0,0,1,2.82,1.48Z" transform="translate(-123.61 -70.99)"/><ellipse class="cls-32" cx="152.45" cy="44.39" rx="1.15" ry="1.43"/><ellipse class="cls-32" cx="122.86" cy="44.39" rx="1.15" ry="1.43"/><path class="cls-33" d="M213.36,140.49s12.2,37.25,29,46.84C242.34,187.33,222.84,184.54,213.36,140.49Z" transform="translate(-123.61 -70.99)"/></svg>