<svg id="Layer_1" data-name="Layer 1" xmlns="http://www.w3.org/2000/svg" xmlns:xlink="http://www.w3.org/1999/xlink" viewBox="0 0 284.6 417.9"><defs><style>.cls-1{fill:#e4e1c7;}.cls-2{fill:#512e2a;}.cls-3,.cls-4{fill:#9e2b20;}.cls-14,.cls-23,.cls-4,.cls-6{stroke:#231f20;}.cls-14,.cls-15,.cls-16,.cls-17,.cls-21,.cls-22,.cls-23,.cls-32,.cls-4,.cls-6,.cls-8{stroke-miterlimit:10;}.cls-5{fill:#231f20;}.cls-16,.cls-6,.cls-8{fill:none;}.cls-23,.cls-6{stroke-width:0.25px;}.cls-7{fill:#c2b59b;}.cls-8{stroke:#9b8579;}.cls-9{fill:#b1a58e;}.cls-10{fill:#9b8579;}.cls-11{fill:#1e4496;}.cls-12,.cls-17{fill:#234093;}.cls-13{fill:#124b9a;}.cls-14,.cls-15,.cls-20,.cls-21,.cls-22,.cls-23{fill:#fff;}.cls-15{stroke:#f9a560;}.cls-16{stroke:#283c91;}.cls-17{stroke:#262262;stroke-width:0.5px;}.cls-18{fill:#fff200;}.cls-19{fill:#d1d3d4;}.cls-21{stroke:url(#White_Black);}.cls-22{stroke:url(#White_Black-2);}.cls-24{fill:#fde79e;}.cls-25{fill:#fbeac8;}.cls-26{fill:#e5e1c5;}.cls-27{fill:#f9c9de;}.cls-28{fill:#8d536f;}.cls-29{fill:#e3e2db;}.cls-30{fill:#d0cca8;}.cls-31{fill:url(#White_Black-3);}.cls-32{fill:#2e3192;stroke:#00aeef;}.cls-33{fill:#cfcdb4;}</style><linearGradient id="White_Black" x1="265.63" y1="117.61" x2="290.49" y2="117.61" gradientTransform="matrix(1, 0, 0, -1, -32.63, 235.23)" gradientUnits="userSpaceOnUse"><stop offset="0" stop-color="#fff"/><stop offset="1" stop-color="#231f20"/></linearGradient><linearGradient id="White_Black-2" x1="234.55" y1="117.61" x2="259.41" y2="117.61" gradientTransform="matrix(1, 0, 0, -1, 29.53, 235.23)" xlink:href="#White_Black"/><linearGradient id="White_Black-3" x1="264.29" y1="116.67" x2="257.69" y2="116.67" gradientTransform="matrix(1, 0, 0, 1, 0, 0)" xlink:href="#White_Black"/></defs><title>11</title><polyline class="cls-1" points="165.09 334.96 158.48 400.24 151.04 399.87 150.29 334.22"/><polyline class="cls-1" points="118.98 334.96 125.59 400.24 133.03 399.87 133.77 334.22"/><path class="cls-2" d="M230.77,475.18s-20.25,10.71-7.52,12.21l12.73,1.5h16.19s6.73-4.74,6.73-11.59" transform="translate(-117.66 -70.99)"/><path class="cls-2" d="M286.2,475.18s20.24,10.71,7.52,12.21L281,488.89H264.8s-5.9-4.74-5.9-11.59" transform="translate(-117.66 -70.99)"/><path class="cls-3" d="M244.2,470.46s-33.1,10.7-20.38,12.2l12.73,1.49h16.19s6.16,0,6.16-6.85l-7.23-6.23h-.53" transform="translate(-117.66 -70.99)"/><path class="cls-3" d="M266.6,470.13l-7.39,7.17c0,6.85,6.16,6.85,6.16,6.85h16.19l12.73-1.49c12.73-1.5-18.15-12.21-18.15-12.21" transform="translate(-117.66 -70.99)"/><path class="cls-4" d="M259.31,477" transform="translate(-117.66 -70.99)"/><path class="cls-5" d="M270.57,414.52v2.22a3.22,3.22,0,0,1,0,.62,3.21,3.21,0,0,0,0-.62v-2.22a2.57,2.57,0,0,1,0-.62,2.57,2.57,0,0,0,0,.62Z" transform="translate(-117.66 -70.99)"/><path class="cls-5" d="M275.4,418.15v1.21a3.22,3.22,0,0,1,0,.62,3.2,3.2,0,0,0,0-.62v-1.21a3.22,3.22,0,0,1,0-.62,3.2,3.2,0,0,0,0,.62Z" transform="translate(-117.66 -70.99)"/><path class="cls-5" d="M277,422v1.21a2.57,2.57,0,0,1,0,.62,2.57,2.57,0,0,0,0-.62V422a3.33,3.33,0,0,1,0-.63,3.32,3.32,0,0,0,0,.63Z" transform="translate(-117.66 -70.99)"/><path class="cls-5" d="M280,421.78v.2a3.22,3.22,0,0,1,0,.62,3.21,3.21,0,0,0,0-.62v-.2a2.66,2.66,0,0,1,0-.63,2.66,2.66,0,0,0,0,.63Z" transform="translate(-117.66 -70.99)"/><path class="cls-5" d="M274,429.86s0-1.25,0-1.25,0,1.25,0,1.25Z" transform="translate(-117.66 -70.99)"/><path class="cls-5" d="M271.38,422v1.41a3.21,3.21,0,0,1,0,.62,3.21,3.21,0,0,0,0-.62V422a3.33,3.33,0,0,1,0-.63,3.32,3.32,0,0,0,0,.63Z" transform="translate(-117.66 -70.99)"/><path class="cls-5" d="M271.58,431v1.62a2.57,2.57,0,0,1,0,.62,2.57,2.57,0,0,0,0-.62V431a3.21,3.21,0,0,1,0-.62,3.21,3.21,0,0,0,0,.62Z" transform="translate(-117.66 -70.99)"/><path class="cls-5" d="M277.82,434.07v.6a3.33,3.33,0,0,1,0,.63,3.32,3.32,0,0,0,0-.63v-.6a3.33,3.33,0,0,1,0-.63,3.32,3.32,0,0,0,0,.63Z" transform="translate(-117.66 -70.99)"/><path class="cls-5" d="M275.81,436.28v1.62a2.57,2.57,0,0,1,0,.62,2.57,2.57,0,0,0,0-.62v-1.62a3.21,3.21,0,0,1,0-.62,3.21,3.21,0,0,0,0,.62Z" transform="translate(-117.66 -70.99)"/><path class="cls-5" d="M273.19,437.29v1a2.57,2.57,0,0,1,0,.62,2.57,2.57,0,0,0,0-.62v-1a3.22,3.22,0,0,1,0-.62,3.21,3.21,0,0,0,0,.62Z" transform="translate(-117.66 -70.99)"/><path class="cls-5" d="M271.17,437.49v.2a3.33,3.33,0,0,1,0,.63,3.32,3.32,0,0,0,0-.63v-.2a3.22,3.22,0,0,1,0-.62,3.21,3.21,0,0,0,0,.62Z" transform="translate(-117.66 -70.99)"/><path class="cls-5" d="M270.77,441.72v1a3.32,3.32,0,0,1,0,.63,3.31,3.31,0,0,0,0-.63v-1a2.57,2.57,0,0,1,0-.62,2.57,2.57,0,0,0,0,.62Z" transform="translate(-117.66 -70.99)"/><path class="cls-5" d="M276.82,443.34v.6a3.21,3.21,0,0,1,0,.62,3.2,3.2,0,0,0,0-.62v-.6a3.33,3.33,0,0,1,0-.63,3.32,3.32,0,0,0,0,.63Z" transform="translate(-117.66 -70.99)"/><path class="cls-5" d="M274.8,446v.21a3.21,3.21,0,0,1,0,.62,3.21,3.21,0,0,0,0-.62V446a2.57,2.57,0,0,1,0-.62,2.57,2.57,0,0,0,0,.62Z" transform="translate(-117.66 -70.99)"/><path class="cls-5" d="M272,449v1.21a3.21,3.21,0,0,1,0,.62,3.21,3.21,0,0,0,0-.62V449a2.66,2.66,0,0,1,0-.63,2.66,2.66,0,0,0,0,.63Z" transform="translate(-117.66 -70.99)"/><path class="cls-5" d="M276,451.6v.2a3.22,3.22,0,0,1,0,.62,3.21,3.21,0,0,0,0-.62v-.2a2.66,2.66,0,0,1,0-.63,2.66,2.66,0,0,0,0,.63Z" transform="translate(-117.66 -70.99)"/><path class="cls-5" d="M272.59,454.24s0-1.25,0-1.25,0,1.25,0,1.25Z" transform="translate(-117.66 -70.99)"/><path class="cls-5" d="M279.64,412.71v.81a3.21,3.21,0,0,1,0,.62,2.57,2.57,0,0,0,0-.62v-.81a3.22,3.22,0,0,1,0-.62,3.21,3.21,0,0,0,0,.62Z" transform="translate(-117.66 -70.99)"/><path class="cls-5" d="M272,411.1s0-1.25,0-1.25,0,1.25,0,1.25Z" transform="translate(-117.66 -70.99)"/><path class="cls-5" d="M276,409.9v-1.25s0,1.25,0,1.25Z" transform="translate(-117.66 -70.99)"/><path class="cls-5" d="M275.61,410.7v.6a3.21,3.21,0,0,1,0,.62,2.56,2.56,0,0,0,0-.62v-.6a3.33,3.33,0,0,1,0-.63,3.32,3.32,0,0,0,0,.63Z" transform="translate(-117.66 -70.99)"/><path class="cls-5" d="M280.64,408.88v1a3.22,3.22,0,0,1,0,.62,3.2,3.2,0,0,0,0-.62v-1a3.22,3.22,0,0,1,0-.62,3.21,3.21,0,0,0,0,.62Z" transform="translate(-117.66 -70.99)"/><path class="cls-5" d="M244.38,409.27v.4a3.31,3.31,0,0,1,0,.63,2.66,2.66,0,0,0,0-.63v-.4a3.22,3.22,0,0,1,0-.62,3.21,3.21,0,0,0,0,.62Z" transform="translate(-117.66 -70.99)"/><path class="cls-5" d="M248.82,409.31v-1.25s0,1.25,0,1.25Z" transform="translate(-117.66 -70.99)"/><path class="cls-6" d="M281.56,414a2,2,0,0,0,.64,2.18" transform="translate(-117.66 -70.99)"/><path class="cls-6" d="M281.53,411.07a2,2,0,0,1,.7,1.62" transform="translate(-117.66 -70.99)"/><path class="cls-6" d="M277,411.75a1.07,1.07,0,0,1-.55,1.22" transform="translate(-117.66 -70.99)"/><path class="cls-6" d="M271.39,411.94v1.5" transform="translate(-117.66 -70.99)"/><path class="cls-6" d="M268.77,411.19a2.15,2.15,0,0,1-.82,1.44" transform="translate(-117.66 -70.99)"/><path class="cls-6" d="M267.94,409.13a2.32,2.32,0,0,1-.5,1.48" transform="translate(-117.66 -70.99)"/><path class="cls-6" d="M268.58,414.84a3.35,3.35,0,0,0-.86,1.78" transform="translate(-117.66 -70.99)"/><path class="cls-6" d="M269.44,420a2.06,2.06,0,0,1-.49,1.12" transform="translate(-117.66 -70.99)"/><path class="cls-6" d="M272.49,416.26a1.31,1.31,0,0,1-.23,1.23" transform="translate(-117.66 -70.99)"/><path class="cls-6" d="M275.91,415.75a6.64,6.64,0,0,1,1.1.88" transform="translate(-117.66 -70.99)"/><path class="cls-6" d="M278.6,420.28l.48.65" transform="translate(-117.66 -70.99)"/><path class="cls-6" d="M274.48,420v.93" transform="translate(-117.66 -70.99)"/><path class="cls-6" d="M280.6,422.7a1.34,1.34,0,0,1,.24,1.13" transform="translate(-117.66 -70.99)"/><path class="cls-6" d="M279.72,426.09l.86,1.3" transform="translate(-117.66 -70.99)"/><path class="cls-6" d="M273,424.86a2.8,2.8,0,0,1-.91,1.34" transform="translate(-117.66 -70.99)"/><path class="cls-6" d="M269.52,425a1.92,1.92,0,0,1-1,1.71" transform="translate(-117.66 -70.99)"/><path class="cls-6" d="M269.24,431.15a1.72,1.72,0,0,1-.38,1.11" transform="translate(-117.66 -70.99)"/><path class="cls-6" d="M274.86,429.46v1" transform="translate(-117.66 -70.99)"/><path class="cls-6" d="M276.45,429.28a1,1,0,0,1,.75.46" transform="translate(-117.66 -70.99)"/><path class="cls-6" d="M280.1,430.78l.84.47" transform="translate(-117.66 -70.99)"/><path class="cls-6" d="M279.48,432.75a2.32,2.32,0,0,0,.61,2.25" transform="translate(-117.66 -70.99)"/><path class="cls-6" d="M268.61,434.85a2.07,2.07,0,0,1-1.06.27" transform="translate(-117.66 -70.99)"/><path class="cls-5" d="M248.69,415.35v2.21a3.33,3.33,0,0,1,0,.63,3.32,3.32,0,0,0,0-.63v-2.21a3.33,3.33,0,0,1,0-.63,3.32,3.32,0,0,0,0,.63Z" transform="translate(-117.66 -70.99)"/><path class="cls-5" d="M243.86,419v1.21a2.66,2.66,0,0,1,0,.63,2.66,2.66,0,0,0,0-.63V419a3.21,3.21,0,0,1,0-.62,3.21,3.21,0,0,0,0,.62Z" transform="translate(-117.66 -70.99)"/><path class="cls-5" d="M242.25,422.8V424a2.66,2.66,0,0,1,0,.63,2.66,2.66,0,0,0,0-.63V422.8a3.21,3.21,0,0,1,0-.62,3.21,3.21,0,0,0,0,.62Z" transform="translate(-117.66 -70.99)"/><path class="cls-5" d="M239.22,422.6v.2a3.33,3.33,0,0,1,0,.63,3.32,3.32,0,0,0,0-.63v-.2a3.22,3.22,0,0,1,0-.62,3.21,3.21,0,0,0,0,.62Z" transform="translate(-117.66 -70.99)"/><path class="cls-5" d="M245.28,430.68v-1.25s0,1.25,0,1.25Z" transform="translate(-117.66 -70.99)"/><path class="cls-5" d="M247.89,422.8v1.41a2.66,2.66,0,0,1,0,.63,2.66,2.66,0,0,0,0-.63V422.8a3.21,3.21,0,0,1,0-.62,3.21,3.21,0,0,0,0,.62Z" transform="translate(-117.66 -70.99)"/><path class="cls-5" d="M247.69,431.87v1.61a2.66,2.66,0,0,1,0,.63,2.66,2.66,0,0,0,0-.63v-1.61a3.32,3.32,0,0,1,0-.63,3.31,3.31,0,0,0,0,.63Z" transform="translate(-117.66 -70.99)"/><path class="cls-5" d="M241.44,434.89v.61a3.21,3.21,0,0,1,0,.62,3.21,3.21,0,0,0,0-.62v-.61a2.57,2.57,0,0,1,0-.62,2.57,2.57,0,0,0,0,.62Z" transform="translate(-117.66 -70.99)"/><path class="cls-5" d="M243.46,437.11v1.61a3.21,3.21,0,0,1,0,.62,2.56,2.56,0,0,0,0-.62v-1.61a3.33,3.33,0,0,1,0-.63,3.32,3.32,0,0,0,0,.63Z" transform="translate(-117.66 -70.99)"/><path class="cls-5" d="M246.07,438.12v1a3.33,3.33,0,0,1,0,.63,3.32,3.32,0,0,0,0-.63v-1a3.33,3.33,0,0,1,0-.63,3.32,3.32,0,0,0,0,.63Z" transform="translate(-117.66 -70.99)"/><path class="cls-5" d="M248.09,438.32v.2a3.22,3.22,0,0,1,0,.62,3.21,3.21,0,0,0,0-.62v-.2a2.66,2.66,0,0,1,0-.63,2.66,2.66,0,0,0,0,.63Z" transform="translate(-117.66 -70.99)"/><path class="cls-5" d="M248.49,442.55v1a3.21,3.21,0,0,1,0,.62,3.21,3.21,0,0,0,0-.62v-1a3.33,3.33,0,0,1,0-.63,3.32,3.32,0,0,0,0,.63Z" transform="translate(-117.66 -70.99)"/><path class="cls-5" d="M242.45,444.16v.6a2.66,2.66,0,0,1,0,.63,2.66,2.66,0,0,0,0-.63v-.6a3.32,3.32,0,0,1,0-.63,3.32,3.32,0,0,0,0,.63Z" transform="translate(-117.66 -70.99)"/><path class="cls-5" d="M244.46,446.78v.2a3.32,3.32,0,0,1,0,.63,3.32,3.32,0,0,0,0-.63v-.2a3.32,3.32,0,0,1,0-.63,3.32,3.32,0,0,0,0,.63Z" transform="translate(-117.66 -70.99)"/><path class="cls-5" d="M247.28,449.8V451a3.32,3.32,0,0,1,0,.63,3.32,3.32,0,0,0,0-.63V449.8a3.22,3.22,0,0,1,0-.62,3.21,3.21,0,0,0,0,.62Z" transform="translate(-117.66 -70.99)"/><path class="cls-5" d="M243.25,452.42v.2a3.33,3.33,0,0,1,0,.63,3.32,3.32,0,0,0,0-.63v-.2a3.22,3.22,0,0,1,0-.62,3.2,3.2,0,0,0,0,.62Z" transform="translate(-117.66 -70.99)"/><path class="cls-5" d="M246.69,455.06s0-1.25,0-1.25,0,1.25,0,1.25Z" transform="translate(-117.66 -70.99)"/><path class="cls-5" d="M239.63,413.53v.81a2.66,2.66,0,0,1,0,.63,2.66,2.66,0,0,0,0-.63v-.81a3.21,3.21,0,0,1,0-.62,3.21,3.21,0,0,0,0,.62Z" transform="translate(-117.66 -70.99)"/><path class="cls-5" d="M247.29,409.93s0-1.25,0-1.25,0,1.25,0,1.25Z" transform="translate(-117.66 -70.99)"/><path class="cls-5" d="M243.26,410.72s0-1.25,0-1.25,0,1.25,0,1.25Z" transform="translate(-117.66 -70.99)"/><path class="cls-5" d="M243.66,411.52v.6a2.66,2.66,0,0,1,0,.63,2.66,2.66,0,0,0,0-.63v-.6a3.32,3.32,0,0,1,0-.63,3.32,3.32,0,0,0,0,.63Z" transform="translate(-117.66 -70.99)"/><path class="cls-5" d="M238.62,409.71v1a3.33,3.33,0,0,1,0,.63,3.31,3.31,0,0,0,0-.63v-1a2.66,2.66,0,0,1,0-.63,2.66,2.66,0,0,0,0,.63Z" transform="translate(-117.66 -70.99)"/><path class="cls-6" d="M237.72,414.84a2,2,0,0,1-.64,2.19" transform="translate(-117.66 -70.99)"/><path class="cls-6" d="M237.74,411.89a2,2,0,0,0-.7,1.62" transform="translate(-117.66 -70.99)"/><path class="cls-6" d="M242.28,412.58a1.07,1.07,0,0,0,.54,1.22" transform="translate(-117.66 -70.99)"/><path class="cls-6" d="M247.88,412.76v1.5" transform="translate(-117.66 -70.99)"/><path class="cls-6" d="M250.5,412a2.14,2.14,0,0,0,.82,1.44" transform="translate(-117.66 -70.99)"/><path class="cls-6" d="M251.34,410a2.3,2.3,0,0,0,.49,1.49" transform="translate(-117.66 -70.99)"/><path class="cls-6" d="M250.7,415.66a3.26,3.26,0,0,1,.85,1.78" transform="translate(-117.66 -70.99)"/><path class="cls-6" d="M249.84,420.82a2,2,0,0,0,.49,1.12" transform="translate(-117.66 -70.99)"/><path class="cls-6" d="M246.78,417.08a1.33,1.33,0,0,0,.24,1.23" transform="translate(-117.66 -70.99)"/><path class="cls-6" d="M243.37,416.57a6.74,6.74,0,0,0-1.1.88" transform="translate(-117.66 -70.99)"/><path class="cls-6" d="M240.68,421.11l-.48.64" transform="translate(-117.66 -70.99)"/><path class="cls-6" d="M244.79,420.82v.94" transform="translate(-117.66 -70.99)"/><path class="cls-6" d="M238.68,423.52a1.37,1.37,0,0,0-.25,1.14" transform="translate(-117.66 -70.99)"/><path class="cls-6" d="M239.55,426.91l-.85,1.31" transform="translate(-117.66 -70.99)"/><path class="cls-6" d="M246.3,425.69a2.87,2.87,0,0,0,.91,1.33" transform="translate(-117.66 -70.99)"/><path class="cls-6" d="M249.75,425.79a1.92,1.92,0,0,0,1,1.71" transform="translate(-117.66 -70.99)"/><path class="cls-6" d="M250,432a1.7,1.7,0,0,0,.39,1.12" transform="translate(-117.66 -70.99)"/><path class="cls-6" d="M244.42,430.28v1" transform="translate(-117.66 -70.99)"/><path class="cls-6" d="M242.83,430.1a1.06,1.06,0,0,0-.76.46" transform="translate(-117.66 -70.99)"/><path class="cls-6" d="M239.18,431.61l-.85.46" transform="translate(-117.66 -70.99)"/><path class="cls-6" d="M239.79,433.57a2.33,2.33,0,0,1-.6,2.26" transform="translate(-117.66 -70.99)"/><path class="cls-6" d="M250.67,435.67a2,2,0,0,0,1.05.27" transform="translate(-117.66 -70.99)"/><polygon class="cls-7" points="112.84 336.55 173.96 336.55 190.82 271.16 95.98 271.16 112.84 336.55"/><line class="cls-8" x1="142.9" y1="283.69" x2="142.9" y2="336.55"/><path class="cls-9" d="M222.77,354l13.13,53.16h-5.72l-15.43-61S221.14,352.69,222.77,354Z" transform="translate(-117.66 -70.99)"/><path class="cls-9" d="M287.42,379.87l4.12,3.08,7.76-5.21L302,376l-1.37-3.24s-8.69,7.63-13.18,7.16l-2,15.94s8.32-.17,10.46-4.74l3.3-12.8" transform="translate(-117.66 -70.99)"/><path class="cls-10" d="M287.42,379.87l4.16,3h-.08c3.44-2.39,6.91-4.73,10.38-7.08l-.06.19-1.38-3.23.27.06a51.79,51.79,0,0,1-6.13,4.59,25,25,0,0,1-3.38,1.83,8.1,8.1,0,0,1-3.81.85l.27-.21c-.65,5.31-1.38,10.62-2.06,15.93l-.2-.21a22.56,22.56,0,0,0,3-.33,16.59,16.59,0,0,0,2.87-.75,9.83,9.83,0,0,0,2.62-1.34,6.17,6.17,0,0,0,1.9-2.19v0c1.1-4.27,2.3-8.52,3.44-12.77-1.06,4.28-2.07,8.57-3.17,12.84h0a6.5,6.5,0,0,1-2,2.32,10.6,10.6,0,0,1-2.69,1.4,16.26,16.26,0,0,1-2.91.79,20.27,20.27,0,0,1-3,.36h-.22l0-.23c.65-5.31,1.27-10.63,2-15.94l0-.23.23,0a7.7,7.7,0,0,0,3.58-.78,25.53,25.53,0,0,0,3.35-1.77,52.61,52.61,0,0,0,6.12-4.5l.18-.16.09.22,1.35,3.25.06.12-.11.07c-3.49,2.32-7,4.65-10.49,6.92l0,0,0,0Z" transform="translate(-117.66 -70.99)"/><path class="cls-9" d="M234.84,379.87,230.73,383,223,377.74,220.29,376l1.37-3.24s8.69,7.63,13.18,7.16l2,15.94s-8.32-.17-10.46-4.74l-3.3-12.8" transform="translate(-117.66 -70.99)"/><path class="cls-10" d="M234.84,379.87,230.76,383l0,0,0,0c-3.51-2.27-7-4.6-10.48-6.92l-.11-.07.05-.12,1.35-3.25.09-.22.19.16a51.77,51.77,0,0,0,6.12,4.5,25.41,25.41,0,0,0,3.34,1.77,7.7,7.7,0,0,0,3.58.78l.23,0,0,.23c.69,5.31,1.31,10.63,2,15.94l0,.23h-.23a20.14,20.14,0,0,1-3-.36,16.59,16.59,0,0,1-2.92-.79,10.6,10.6,0,0,1-2.69-1.4,6.6,6.6,0,0,1-2-2.32h0c-1.1-4.27-2.11-8.56-3.16-12.84,1.14,4.25,2.33,8.5,3.43,12.77v0a6.26,6.26,0,0,0,1.9,2.19,10,10,0,0,0,2.62,1.34,16.83,16.83,0,0,0,2.87.75,22.76,22.76,0,0,0,3,.33l-.19.21c-.69-5.31-1.41-10.62-2.06-15.93l.26.21a8.12,8.12,0,0,1-3.81-.85,25.64,25.64,0,0,1-3.38-1.83,51.79,51.79,0,0,1-6.13-4.59l.27-.06L220.44,376l-.06-.19c3.47,2.35,6.94,4.69,10.38,7.08h-.07Z" transform="translate(-117.66 -70.99)"/><path class="cls-9" d="M261.06,369.14a52.19,52.19,0,0,0,7.2-.5l-.86,38.89h-6.34Z" transform="translate(-117.66 -70.99)"/><path class="cls-11" d="M312.89,159.22s146.39,19.42,64.47,177.92L355.6,326.52" transform="translate(-117.66 -70.99)"/><path class="cls-12" d="M207,159.22S60.65,178.64,142.57,337.14l21.76-10.62" transform="translate(-117.66 -70.99)"/><ellipse class="cls-13" cx="142.82" cy="196.11" rx="109.09" ry="123.25"/><path class="cls-14" d="M199.79,350.53" transform="translate(-117.66 -70.99)"/><path class="cls-15" d="M145.92,335.73s6.76,11.31,25.78,7.6l1.76-1,.38-.36s-9-14-9.37-16.33" transform="translate(-117.66 -70.99)"/><path class="cls-15" d="M375.36,336.94s-6.75,11.31-25.77,7.6l-1.76-1-.38-.37s9-14,9.37-16.32" transform="translate(-117.66 -70.99)"/><polyline class="cls-16" points="143.46 317.92 143.46 108.84 159.19 122.26 189.18 95.12"/><path class="cls-17" d="M187.31,224.45s-11.66,23.31-6.71,33.41l13.26,7.38L210,260.19l7.42-33.41" transform="translate(-117.66 -70.99)"/><polyline class="cls-16" points="141.23 317.92 141.23 108.84 125.5 122.26 95.51 95.12"/><path class="cls-18" d="M207.21,190.31l.09-.21a3.24,3.24,0,0,1,.89-1.23,4.21,4.21,0,0,1,4.46-.64s0,0,.08,0l2.35-3.2a1.23,1.23,0,0,1,1.12-.5l.14,0,1.31.27h0l-.18.68-.06,0-1.22-.25a.43.43,0,0,0-.5.17c-.23.32-.46.64-.7,1a.13.13,0,0,1,0,0h.06l6.27,1.33a.08.08,0,0,0,.09,0l.47-.52,0-.05h-.06l-1.06-.22a.36.36,0,0,1-.3-.29.34.34,0,0,1,.19-.36.4.4,0,0,1,.3,0l2.85.6h0l-.18.68h-.06l-.84-.18a.07.07,0,0,0-.08,0c-.25.29-.51.56-.76.85a.11.11,0,0,0,0,.05l.51,2.14v0l.37,0a4.42,4.42,0,0,1,1.31.19,3.74,3.74,0,0,1,2.1,1.57,3,3,0,0,1,.49,1.83,3.34,3.34,0,0,1-2,2.85,4.06,4.06,0,0,1-2.18.43l-.35,0h0l-.42-.09h0l-.59-.22a3.6,3.6,0,0,1-1.74-1.59,2.93,2.93,0,0,1-.36-1.78,1.36,1.36,0,0,1,0-.2H219L217.4,193a.48.48,0,0,1-.32-.23l-.48-.8-1.25-2.11-1.1-1.85-.2-.34-.7,1h0l.05,0a3.24,3.24,0,0,1,1.37,3,2.93,2.93,0,0,1-.38,1.17,3.77,3.77,0,0,1-2.27,1.74,4.25,4.25,0,0,1-1.63.14l-.25,0-.43-.09,0,0c-.19-.07-.38-.12-.56-.2a3.56,3.56,0,0,1-2-2.1,3,3,0,0,1-.14-1.37,1.57,1.57,0,0,0,0-.23Zm5.69-1.08,0,0-1.17,1.6-.42.57a.42.42,0,0,1-.52.12.33.33,0,0,1-.12-.51l1.59-2.16,0,0a3.29,3.29,0,0,0-4,1.06,2.55,2.55,0,0,0,1,3.7,3.32,3.32,0,0,0,4.21-.77A2.51,2.51,0,0,0,212.9,189.23Zm6.93,4.28a2.63,2.63,0,0,0,1.59,2.74,3.36,3.36,0,0,0,3.74-.59,2.5,2.5,0,0,0,.27-3.33,3.19,3.19,0,0,0-2.79-1.2l.12.49c.16.7.33,1.39.5,2.09a.41.41,0,0,1,0,.22.4.4,0,0,1-.47.2l-2.88-.61Zm-5.3-6.5,3,5,3.32-3.67Zm7.18,3.55-.4-1.65-3.17,3.51,1.09.23A3.72,3.72,0,0,1,221.71,190.56ZM220,192.82l2.34.5-.49-2.06A3,3,0,0,0,220,192.82Z" transform="translate(-117.66 -70.99)"/><path class="cls-18" d="M213.59,214.57l0-.23a3.12,3.12,0,0,1,.55-1.38,3.83,3.83,0,0,1,2.43-1.55,4.25,4.25,0,0,1,1.74,0s.06,0,.07,0c.48-1.19,1-2.39,1.45-3.59a1.18,1.18,0,0,1,1-.72h1.52v.7H221a.41.41,0,0,0-.44.28c-.15.36-.29.71-.43,1.07,0,0,0,0,0,.05h6.51a.08.08,0,0,0,.08,0c.1-.21.21-.41.32-.61,0,0,0,0,0-.05h-1.16a.4.4,0,0,1-.37-.22.33.33,0,0,1,.1-.39.45.45,0,0,1,.28-.09h3v.7H228s-.06,0-.07,0l-.52,1a.06.06,0,0,0,0,.06l1,2v0l.36-.09a4.2,4.2,0,0,1,1.32-.09,4,4,0,0,1,2.46,1.1,3.18,3.18,0,0,1-.22,4.85,3.91,3.91,0,0,1-2,.88l-.36,0h-.53c-.21,0-.43,0-.63-.09a3.86,3.86,0,0,1-2.11-1.18,3.22,3.22,0,0,1-.82-1.66l0-.2h-1.68a.46.46,0,0,1-.37-.14l-.67-.68-1.78-1.8-1.55-1.57-.29-.29-.43,1.07h0l.05,0a3.4,3.4,0,0,1,2.12,2.64,2.75,2.75,0,0,1-.06,1.21,3.43,3.43,0,0,1-1.75,2.16,4,4,0,0,1-1.55.48l-.25,0h-.49a5.59,5.59,0,0,1-.59-.08,3.81,3.81,0,0,1-2.49-1.62,3.19,3.19,0,0,1-.5-1.31l0-.23Zm5.25-2.23s0,0,0,0l-.72,1.79-.26.65a.4.4,0,0,1-.48.22.33.33,0,0,1-.24-.47c.32-.81.65-1.62,1-2.43,0,0,0,0,0-.05a3.12,3.12,0,0,0-3.57,1.85,2.66,2.66,0,0,0,1.91,3.39,3.18,3.18,0,0,0,3.89-1.61A2.59,2.59,0,0,0,218.84,212.34Zm7.86,2.73a2.84,2.84,0,0,0,2.26,2.34,3.23,3.23,0,0,0,3.49-1.34,2.52,2.52,0,0,0-.61-3.3,3.32,3.32,0,0,0-3-.59l.24.45,1,1.93a.29.29,0,0,1,0,.22.38.38,0,0,1-.41.29h-3Zm-6.84-5.22,4.2,4.25,2.27-4.25Zm7.9,2L227,210.3l-2.17,4.06h1.12A3.49,3.49,0,0,1,227.76,211.81Zm-1,2.55h2.41l-1-1.9A2.77,2.77,0,0,0,226.71,214.36Z" transform="translate(-117.66 -70.99)"/><path class="cls-18" d="M225.14,238.87l0-.23a3.12,3.12,0,0,1,.55-1.38,3.8,3.8,0,0,1,2.43-1.55,4.25,4.25,0,0,1,1.74,0s.06,0,.07,0c.48-1.2,1-2.39,1.45-3.59a1.17,1.17,0,0,1,1-.72l.14,0h1.38v.7h-1.31a.4.4,0,0,0-.44.28c-.15.35-.29.71-.44,1.07a.2.2,0,0,0,0,0h6.51s.06,0,.07,0l.33-.6a.17.17,0,0,1,0-.05h-1.15a.4.4,0,0,1-.37-.22.33.33,0,0,1,.1-.39.45.45,0,0,1,.28-.09h3v.7h-.93a.05.05,0,0,0-.06,0c-.18.32-.35.65-.52,1a.06.06,0,0,0,0,.06c.34.66.69,1.32,1.05,2v0l.36-.09a4.2,4.2,0,0,1,1.32-.09,4,4,0,0,1,2.46,1.1,3.2,3.2,0,0,1,.95,1.68,3.14,3.14,0,0,1-1.18,3.17,3.86,3.86,0,0,1-2,.87l-.35,0H241c-.21,0-.43,0-.64-.09a3.86,3.86,0,0,1-2.1-1.18,3.15,3.15,0,0,1-.82-1.66l0-.2h-1.68a.48.48,0,0,1-.38-.15l-.67-.67-1.77-1.8-1.55-1.57-.29-.29-.43,1.06h0l0,0a3.44,3.44,0,0,1,2.12,2.64,2.75,2.75,0,0,1-.06,1.21A3.45,3.45,0,0,1,231,242a3.91,3.91,0,0,1-1.54.48l-.25,0h-.49c-.2,0-.4,0-.59-.08a3.83,3.83,0,0,1-2.5-1.63,3.08,3.08,0,0,1-.49-1.3l0-.23Zm5.25-2.23,0,.05-.72,1.79c-.09.22-.18.43-.26.65a.41.41,0,0,1-.48.22.34.34,0,0,1-.25-.47c.33-.81.66-1.62,1-2.43l0,0a3.12,3.12,0,0,0-3.57,1.85,2.65,2.65,0,0,0,1.91,3.39,3.19,3.19,0,0,0,3.89-1.61A2.61,2.61,0,0,0,230.39,236.64Zm7.86,2.73a2.83,2.83,0,0,0,2.26,2.34,3.25,3.25,0,0,0,3.49-1.34,2.53,2.53,0,0,0-.61-3.3,3.29,3.29,0,0,0-3-.59l.24.45c.34.64.68,1.29,1,1.93a.34.34,0,0,1,0,.22.39.39,0,0,1-.41.29h-3Zm-6.85-5.23,4.21,4.26,2.26-4.26Zm7.91,2-.82-1.51-2.16,4.06h1.12A3.46,3.46,0,0,1,239.31,236.11Zm-1.05,2.55h2.41l-1-1.9A2.74,2.74,0,0,0,238.26,238.66Z" transform="translate(-117.66 -70.99)"/><path class="cls-18" d="M229.45,269l0-.22a3.07,3.07,0,0,1,.55-1.38,3.8,3.8,0,0,1,2.43-1.55,4.08,4.08,0,0,1,1.74,0,.07.07,0,0,0,.07,0c.48-1.2,1-2.4,1.45-3.6a1.17,1.17,0,0,1,1-.72h1.52v.7h-1.31a.41.41,0,0,0-.44.27c-.15.36-.29.72-.44,1.07,0,0,0,0,0,.05h6.51s.06,0,.07,0l.33-.6s0,0,0-.05h-1.15a.4.4,0,0,1-.37-.22.33.33,0,0,1,.1-.39.39.39,0,0,1,.28-.09h3v.7h-.93a.09.09,0,0,0-.07,0l-.51,1a.13.13,0,0,0,0,.06l1.05,2,0,0,.36-.09a4.16,4.16,0,0,1,1.32-.09,4,4,0,0,1,2.46,1.09,3.24,3.24,0,0,1,.95,1.68,3.15,3.15,0,0,1-1.18,3.18,3.86,3.86,0,0,1-2,.87l-.35,0h-.53c-.21,0-.43-.05-.64-.09a3.82,3.82,0,0,1-2.1-1.19,3.11,3.11,0,0,1-.82-1.66l0-.19h-1.68a.52.52,0,0,1-.38-.15l-.67-.68-1.77-1.79-1.55-1.58-.29-.29-.43,1.07h0l0,0a3.47,3.47,0,0,1,2.12,2.64,2.79,2.79,0,0,1-.06,1.22,3.47,3.47,0,0,1-1.76,2.16,4.08,4.08,0,0,1-1.54.48l-.25,0h-.49c-.2,0-.4,0-.59-.08A3.87,3.87,0,0,1,230,271a3,3,0,0,1-.49-1.3l0-.23Zm5.25-2.22s0,0,0,0l-.72,1.8c-.09.22-.18.43-.26.64a.41.41,0,0,1-.48.23.34.34,0,0,1-.25-.47c.33-.81.66-1.62,1-2.43,0,0,0,0,0-.05a3.12,3.12,0,0,0-3.57,1.84,2.66,2.66,0,0,0,1.91,3.4,3.19,3.19,0,0,0,3.89-1.61A2.61,2.61,0,0,0,234.7,266.81Zm7.86,2.73a2.81,2.81,0,0,0,2.26,2.33,3.24,3.24,0,0,0,3.49-1.33,2.53,2.53,0,0,0-.61-3.3,3.29,3.29,0,0,0-3-.59l.24.44,1,1.94a.39.39,0,0,1,0,.21.39.39,0,0,1-.41.3h-3Zm-6.85-5.23,4.21,4.25,2.26-4.25Zm7.91,2-.82-1.52-2.16,4.07h1.11A3.48,3.48,0,0,1,243.62,266.28Zm-1.05,2.55H245l-1-1.9A2.74,2.74,0,0,0,242.57,268.83Z" transform="translate(-117.66 -70.99)"/><path class="cls-18" d="M229.45,300.64l0-.22A3.11,3.11,0,0,1,230,299a3.8,3.8,0,0,1,2.43-1.55,4.25,4.25,0,0,1,1.74,0s.05,0,.07,0c.48-1.2,1-2.4,1.45-3.6a1.17,1.17,0,0,1,1-.72h1.52v.69h-1.31a.4.4,0,0,0-.44.28l-.44,1.07a.43.43,0,0,0,0,.05h6.51s.06,0,.07,0l.33-.6a.14.14,0,0,1,0-.06h-1.15a.4.4,0,0,1-.37-.22.33.33,0,0,1,.1-.39.45.45,0,0,1,.28-.09h3v.7h-.93a.08.08,0,0,0-.07,0l-.51,1a.15.15,0,0,0,0,.06l1.05,2,0,0,.36-.09a3.89,3.89,0,0,1,1.32-.08,4,4,0,0,1,2.46,1.09,3.24,3.24,0,0,1,.95,1.68,3.13,3.13,0,0,1-1.18,3.17,3.87,3.87,0,0,1-2,.88l-.35,0h-.53c-.21,0-.43,0-.64-.09a3.86,3.86,0,0,1-2.1-1.18,3.15,3.15,0,0,1-.82-1.66l0-.19h-1.68a.52.52,0,0,1-.38-.15c-.22-.23-.44-.46-.67-.68l-1.77-1.8L235.7,297l-.29-.29-.43,1.07h0l0,0a3.46,3.46,0,0,1,2.12,2.64,2.75,2.75,0,0,1-.06,1.21,3.47,3.47,0,0,1-1.76,2.17,3.9,3.9,0,0,1-1.54.47l-.25,0h-.49a4.14,4.14,0,0,1-3.09-1.7,3,3,0,0,1-.49-1.31l0-.23Zm5.25-2.23,0,0-.72,1.8c-.09.21-.18.42-.26.64a.41.41,0,0,1-.48.22.34.34,0,0,1-.25-.47c.33-.81.66-1.62,1-2.43l0-.05A3.12,3.12,0,0,0,230.4,300a2.66,2.66,0,0,0,1.91,3.4,3.2,3.2,0,0,0,3.89-1.62A2.61,2.61,0,0,0,234.7,298.41Zm7.86,2.74a2.83,2.83,0,0,0,2.26,2.33,3.23,3.23,0,0,0,3.49-1.34,2.53,2.53,0,0,0-.61-3.3,3.32,3.32,0,0,0-3-.59l.24.45c.34.64.68,1.29,1,1.93a.41.41,0,0,1,0,.22.39.39,0,0,1-.41.29h-3Zm-6.85-5.23,4.21,4.25,2.26-4.25Zm7.91,2-.82-1.51-2.16,4.06h1.11A3.5,3.5,0,0,1,243.62,297.88Zm-1.05,2.55H245l-1-1.9A2.74,2.74,0,0,0,242.57,300.43Z" transform="translate(-117.66 -70.99)"/><path class="cls-18" d="M229.45,323.78l0-.22a3.15,3.15,0,0,1,.55-1.39,3.83,3.83,0,0,1,2.43-1.54,4.08,4.08,0,0,1,1.74,0s.05,0,.07,0c.48-1.2,1-2.4,1.45-3.6a1.17,1.17,0,0,1,1-.72h1.52v.7h-1.31a.41.41,0,0,0-.44.27c-.15.36-.29.72-.44,1.07,0,0,0,0,0,.05h6.51s.06,0,.07,0l.33-.6s0,0,0-.06h-1.15a.38.38,0,0,1-.37-.22.31.31,0,0,1,.1-.38.4.4,0,0,1,.28-.1h3v.7h-.93a.08.08,0,0,0-.07,0l-.51,1s0,0,0,.06l1.05,2,0,0,.36-.1a4.48,4.48,0,0,1,1.32-.08,4,4,0,0,1,2.46,1.09,3.24,3.24,0,0,1,.95,1.68,3.15,3.15,0,0,1-1.18,3.18,3.86,3.86,0,0,1-2,.87l-.35,0h-.53c-.21,0-.43-.05-.64-.09a3.82,3.82,0,0,1-2.1-1.19,3.11,3.11,0,0,1-.82-1.66l0-.19h-1.68a.52.52,0,0,1-.38-.15l-.67-.68-1.77-1.8-1.55-1.57-.29-.29-.43,1.07h0l0,0a3.46,3.46,0,0,1,2.12,2.64,2.79,2.79,0,0,1-.06,1.22,3.47,3.47,0,0,1-1.76,2.16,4.08,4.08,0,0,1-1.54.48l-.25,0h-.49c-.2,0-.4,0-.59-.08a3.87,3.87,0,0,1-2.5-1.63,3,3,0,0,1-.49-1.3l0-.24Zm5.25-2.23s0,0,0,.05l-.72,1.8c-.09.21-.18.43-.26.64a.41.41,0,0,1-.48.23.34.34,0,0,1-.25-.47c.33-.81.66-1.63,1-2.44,0,0,0,0,0-.05a3.13,3.13,0,0,0-3.57,1.85,2.66,2.66,0,0,0,1.91,3.4,3.19,3.19,0,0,0,3.89-1.62A2.61,2.61,0,0,0,234.7,321.55Zm7.86,2.74a2.82,2.82,0,0,0,2.26,2.33,3.23,3.23,0,0,0,3.49-1.34,2.53,2.53,0,0,0-.61-3.3,3.35,3.35,0,0,0-3-.59l.24.45,1,1.94a.35.35,0,0,1-.37.51h-3Zm-6.85-5.23,4.21,4.25,2.26-4.25Zm7.91,2-.82-1.52-2.16,4.07h1.11A3.48,3.48,0,0,1,243.62,321Zm-1.05,2.55H245l-1-1.91A2.74,2.74,0,0,0,242.57,323.58Z" transform="translate(-117.66 -70.99)"/><path class="cls-18" d="M228.94,354.49c0-.07,0-.15,0-.22a3.07,3.07,0,0,1,.55-1.38,3.86,3.86,0,0,1,2.43-1.55,4.08,4.08,0,0,1,1.74,0s.06,0,.07,0l1.46-3.6a1.15,1.15,0,0,1,.95-.72h1.53v.7h-1.32a.41.41,0,0,0-.44.27c-.14.36-.29.72-.43,1.07l0,.05H242a.08.08,0,0,0,.08,0c.1-.2.21-.4.32-.6l0-.05h-1.16a.4.4,0,0,1-.37-.22.34.34,0,0,1,.1-.39.41.41,0,0,1,.28-.09h3v.7h-.92s-.06,0-.07,0l-.52,1a.06.06,0,0,0,0,.06l1,2,0,0c.12,0,.23-.07.36-.09a4.12,4.12,0,0,1,1.31-.09,4,4,0,0,1,2.46,1.09,3.11,3.11,0,0,1,.95,1.68,3.17,3.17,0,0,1-1.17,3.18,3.86,3.86,0,0,1-2,.87l-.35,0h-.54l-.63-.09a3.84,3.84,0,0,1-2.11-1.19,3.18,3.18,0,0,1-.82-1.66l0-.19h-1.68a.5.5,0,0,1-.37-.15l-.67-.68c-.59-.6-1.18-1.2-1.78-1.79s-1-1.05-1.55-1.58l-.29-.29-.43,1.07h0l.05,0a3.46,3.46,0,0,1,2.13,2.64,3,3,0,0,1-.07,1.22,3.46,3.46,0,0,1-1.75,2.16,4.13,4.13,0,0,1-1.55.48l-.25,0h-.49c-.2,0-.4,0-.59-.08a3.82,3.82,0,0,1-2.49-1.63,3,3,0,0,1-.49-1.3,2.08,2.08,0,0,1,0-.23Zm5.25-2.22,0,0-.72,1.8c-.09.22-.17.43-.26.64a.4.4,0,0,1-.47.23.33.33,0,0,1-.25-.47c.32-.81.65-1.62,1-2.43a.43.43,0,0,1,0-.05,3.12,3.12,0,0,0-3.57,1.84,2.67,2.67,0,0,0,1.91,3.4,3.19,3.19,0,0,0,3.89-1.61A2.59,2.59,0,0,0,234.19,352.27ZM242,355a2.82,2.82,0,0,0,2.27,2.33,3.23,3.23,0,0,0,3.48-1.33,2.51,2.51,0,0,0-.61-3.3,3.29,3.29,0,0,0-3-.59l.24.44,1,1.94a.27.27,0,0,1,0,.21.38.38,0,0,1-.41.3h-3Zm-6.84-5.23,4.2,4.26,2.27-4.26Zm7.9,2-.81-1.52-2.17,4.07h1.12A3.47,3.47,0,0,1,243.1,351.74Zm-1,2.55h2.41l-1-1.9A2.76,2.76,0,0,0,242.05,354.29Z" transform="translate(-117.66 -70.99)"/><path class="cls-18" d="M215.27,376.57l-.09-.21a2.94,2.94,0,0,1-.23-1.46,3.25,3.25,0,0,1,1.36-2.36,3.88,3.88,0,0,1,1.54-.71c.05,0,.05,0,.05-.06l-.57-3.79a1,1,0,0,1,.48-1l.12-.07,1.19-.55h0l.37.62-.06,0-1.11.51a.35.35,0,0,0-.25.42c.05.38.11.75.17,1.13a.11.11,0,0,0,0,.05l.05,0,5.73-2.63s.05,0,.05-.07l0-.66v-.06l-.06,0-1,.45a.41.41,0,0,1-.44-.05.32.32,0,0,1-.11-.38.43.43,0,0,1,.2-.2l2.6-1.19,0,0,.36.63-.05,0-.77.35s0,0,0,.07c0,.35,0,.71,0,1.07a.07.07,0,0,0,0,.06l2,1.32,0,0,.27-.23a3.88,3.88,0,0,1,1.13-.62,4.28,4.28,0,0,1,2.74,0,3.73,3.73,0,0,1,1.72,1.11,3.08,3.08,0,0,1,.6,3.3,3.37,3.37,0,0,1-1.34,1.59l-.29.18,0,0-.38.18h-.06c-.2.06-.4.14-.61.19a4.2,4.2,0,0,1-2.48-.2,3.73,3.73,0,0,1-1.58-1.14,1,1,0,0,1-.13-.16l-.06,0-1.43.66a.53.53,0,0,1-.41,0l-1-.33-2.5-.87-2.19-.76-.41-.14.17,1.12h.07A4,4,0,0,1,222,373.2a3.14,3.14,0,0,1,.13,3.75A3.53,3.53,0,0,1,221,378l-.21.13-.4.18h0c-.19.06-.38.13-.57.17a4.24,4.24,0,0,1-3.05-.42,3.45,3.45,0,0,1-1.11-1l-.15-.19Zm3.51-4.13v.06c.1.63.19,1.26.29,1.89,0,.22.07.45.1.67a.36.36,0,0,1-.31.4.38.38,0,0,1-.46-.32l-.39-2.56a.09.09,0,0,0,0-.05,2.75,2.75,0,0,0-2.22,3.1,3.05,3.05,0,0,0,3.46,2.24,2.82,2.82,0,0,0,2.62-3A3,3,0,0,0,218.78,372.44Zm8.39-.78a3.22,3.22,0,0,0,3.21,1.15,2.84,2.84,0,0,0,2.41-2.61,2.79,2.79,0,0,0-2.25-2.68,3.25,3.25,0,0,0-3,.71l.45.3,1.92,1.29a.36.36,0,0,1,.14.18.34.34,0,0,1-.21.43l-2.62,1.2Zm-8.78-1.85,5.93,2.07-.19-4.71Zm8-1.48-1.5-1,.17,4.5,1-.46A3.14,3.14,0,0,1,226.42,368.33Zm.39,2.7,2.14-1-1.89-1.27A2.49,2.49,0,0,0,226.81,371Z" transform="translate(-117.66 -70.99)"/><path class="cls-18" d="M189.65,354.94l-.06-.22a3,3,0,0,1,0-1.47,3.43,3.43,0,0,1,1.73-2.16,4.12,4.12,0,0,1,1.65-.5s0,0,0,0c0-1.27,0-2.55.07-3.82a1.06,1.06,0,0,1,.64-1l.13-.05,1.27-.39h0l.25.66-.06,0-1.18.36a.38.38,0,0,0-.32.39c0,.38,0,.75,0,1.13v.05h.06l6.1-1.86s.06,0,.06-.06l.09-.66v-.06l-.06,0-1,.31a.42.42,0,0,1-.43-.1.35.35,0,0,1-.05-.4.45.45,0,0,1,.23-.17l2.78-.84h0l.26.66h0L201,345a.06.06,0,0,0-.05.05c0,.36-.09.72-.13,1.07,0,0,0,.05,0,.06l1.71,1.56,0,0,.3-.19a4,4,0,0,1,1.22-.46,4.24,4.24,0,0,1,2.72.33,3.42,3.42,0,0,1,1.51,1.32,3,3,0,0,1,0,3.34,3.54,3.54,0,0,1-1.58,1.4l-.32.14,0,0-.4.12H206c-.21,0-.42.08-.63.1a4.25,4.25,0,0,1-2.43-.51,3.7,3.7,0,0,1-1.38-1.34l-.09-.17h-.06l-1.53.47a.53.53,0,0,1-.41,0l-.88-.45-2.34-1.19-2-1-.38-.19v1.13h.06a3.83,3.83,0,0,1,3,1.89,3,3,0,0,1,.39,1.17,3.16,3.16,0,0,1-.88,2.55,3.8,3.8,0,0,1-1.28.9l-.23.09-.42.13h-.05a5.81,5.81,0,0,1-.58.09,4.16,4.16,0,0,1-3-.82,3.37,3.37,0,0,1-.94-1.09,2.12,2.12,0,0,0-.11-.21Zm4.15-3.62v.05l0,1.91c0,.23,0,.45,0,.68a.37.37,0,0,1-.37.35.37.37,0,0,1-.41-.37c0-.86,0-1.72,0-2.59v-.05a2.85,2.85,0,0,0-2.7,2.78,3.1,3.1,0,0,0,6.13,0A2.83,2.83,0,0,0,193.8,351.32Zm8.43.32a3.12,3.12,0,0,0,3,1.56,3,3,0,0,0,2.81-2.27,2.68,2.68,0,0,0-1.78-2.95,3.34,3.34,0,0,0-3.07.31l.39.36,1.68,1.53a.36.36,0,0,1,.12.19.35.35,0,0,1-.28.4l-2.79.85Zm-8.38-3,5.53,2.81.59-4.68Zm8.2-.42-1.33-1.2-.57,4.47,1.06-.32A3.2,3.2,0,0,1,202.05,348.25ZM202,351l2.28-.7-1.65-1.5A2.5,2.5,0,0,0,202,351Z" transform="translate(-117.66 -70.99)"/><path class="cls-18" d="M185.85,325.23c0-.07,0-.15,0-.22a2.93,2.93,0,0,1,0-1.47,3.43,3.43,0,0,1,1.73-2.16,3.92,3.92,0,0,1,1.65-.5s.05,0,.05-.05l.06-3.82a1.06,1.06,0,0,1,.64-1,.59.59,0,0,1,.14-.06l1.26-.39h0l.25.66-.06,0-1.18.36a.38.38,0,0,0-.32.39c0,.38,0,.76,0,1.14v0l.05,0,6.11-1.86a.06.06,0,0,0,.05-.06l.09-.66v-.06h-.06l-1,.32a.42.42,0,0,1-.43-.1.35.35,0,0,1-.05-.4.45.45,0,0,1,.23-.17l2.77-.84.05,0,.26.67h0l-.83.25s0,0-.05.06c0,.36-.09.71-.13,1.07a.07.07,0,0,0,0,.06l1.71,1.56,0,0,.31-.19a3.7,3.7,0,0,1,1.21-.46,4.17,4.17,0,0,1,2.72.32,3.55,3.55,0,0,1,1.52,1.31,3.06,3.06,0,0,1,.05,3.35,3.49,3.49,0,0,1-1.58,1.4l-.32.14,0,0-.41.12h-.06c-.21,0-.42.08-.63.1a4.12,4.12,0,0,1-2.42-.51,3.63,3.63,0,0,1-1.39-1.33,1.62,1.62,0,0,0-.1-.18l-.06,0-1.52.47a.58.58,0,0,1-.41,0l-.88-.45L192.45,321l-2-1-.38-.19,0,1.14h.07a3.79,3.79,0,0,1,3,1.88,3,3,0,0,1,.39,1.17,3.15,3.15,0,0,1-.87,2.55,3.66,3.66,0,0,1-1.28.9l-.23.1-.42.13h0c-.2,0-.39.08-.59.1a4.14,4.14,0,0,1-2.95-.82,3.37,3.37,0,0,1-.94-1.09,2.12,2.12,0,0,1-.11-.21ZM190,321.6v.06l0,1.9c0,.23,0,.46,0,.69a.39.39,0,0,1-.77,0l0-2.58v-.05a2.85,2.85,0,0,0-2.7,2.78,3.1,3.1,0,0,0,6.13,0A2.83,2.83,0,0,0,190,321.6Zm8.43.32a3.13,3.13,0,0,0,3,1.55,3,3,0,0,0,2.81-2.27,2.69,2.69,0,0,0-1.78-2.95,3.33,3.33,0,0,0-3.07.32l.39.35,1.68,1.53a.41.41,0,0,1,.12.2.35.35,0,0,1-.28.39l-2.79.86Zm-8.38-3,5.53,2.81.58-4.68Zm8.19-.42-1.32-1.2-.57,4.47,1.06-.32A3.22,3.22,0,0,1,198.24,318.53Zm-.06,2.71,2.28-.69L198.8,319A2.54,2.54,0,0,0,198.18,321.24Z" transform="translate(-117.66 -70.99)"/><path class="cls-18" d="M159.89,308.15c0-.07,0-.15,0-.22a2.94,2.94,0,0,1,.06-1.47,3.46,3.46,0,0,1,1.79-2.12,4.12,4.12,0,0,1,1.66-.46c.05,0,.05,0,.06-.05.05-1.28.11-2.55.16-3.82a1.08,1.08,0,0,1,.67-.95l.14-.05,1.28-.36h0l.24.67-.06,0-1.2.33a.37.37,0,0,0-.32.38c0,.38,0,.76,0,1.14v.05l0,0,6.16-1.72a.06.06,0,0,0,.05-.06c0-.22.07-.44.11-.66a.13.13,0,0,1,0-.06l-.07,0-1,.29a.42.42,0,0,1-.42-.11.33.33,0,0,1,0-.4.45.45,0,0,1,.24-.16l2.79-.78.05,0,.24.67h-.06l-.83.24a.06.06,0,0,0,0,0c-.05.36-.11.71-.16,1.07,0,0,0,0,0,.06l1.66,1.6,0,0,.31-.19a4,4,0,0,1,1.23-.43,4.2,4.2,0,0,1,2.71.39,3.51,3.51,0,0,1,1.48,1.34,3,3,0,0,1-.05,3.35,3.51,3.51,0,0,1-1.62,1.36l-.32.13,0,0-.42.12h0c-.21,0-.42.07-.64.08a4.2,4.2,0,0,1-2.41-.56,3.59,3.59,0,0,1-1.34-1.37c0-.06-.06-.11-.09-.18l-.06,0-1.55.43a.47.47,0,0,1-.4,0l-.87-.47-2.3-1.23-2-1.09-.38-.2-.05,1.13h.07a3.81,3.81,0,0,1,2.92,1.95,2.88,2.88,0,0,1,.35,1.17,3.2,3.2,0,0,1-.94,2.54,3.85,3.85,0,0,1-1.31.87l-.23.09-.42.12h-.05c-.2,0-.39.07-.59.09a4.14,4.14,0,0,1-2.93-.89,3.45,3.45,0,0,1-.91-1.11l-.11-.22Zm4.25-3.53v.05c0,.64-.06,1.27-.08,1.91l0,.68a.39.39,0,0,1-.78,0c0-.86.08-1.72.11-2.58v-.05a2.73,2.73,0,1,0,.2,5.44,2.93,2.93,0,0,0,3.15-2.58A2.81,2.81,0,0,0,164.14,304.62Zm8.42.51a3.11,3.11,0,0,0,2.95,1.62,3,3,0,0,0,2.87-2.21,2.67,2.67,0,0,0-1.7-3,3.36,3.36,0,0,0-3.08.25l.38.36,1.64,1.57a.33.33,0,0,1,.11.2.35.35,0,0,1-.29.39l-2.81.79Zm-8.3-3.16,5.45,2.93.72-4.66Zm8.21-.24-1.29-1.22-.69,4.45,1.06-.3A3.23,3.23,0,0,1,172.47,301.73Zm-.14,2.72,2.3-.65L173,302.26A2.53,2.53,0,0,0,172.33,304.45Z" transform="translate(-117.66 -70.99)"/><path class="cls-18" d="M189.57,291.65l0-.23a3.12,3.12,0,0,1,.55-1.38,3.83,3.83,0,0,1,2.43-1.55,4.25,4.25,0,0,1,1.74,0s.06,0,.07,0c.48-1.2,1-2.4,1.45-3.59a1.18,1.18,0,0,1,1-.72l.15,0h1.38v.7H197a.41.41,0,0,0-.44.28c-.14.35-.29.71-.43,1.07,0,0,0,0,0,0h6.51a.07.07,0,0,0,.08-.05c.1-.2.21-.4.32-.6,0,0,0,0,0-.05H201.9a.4.4,0,0,1-.37-.22.33.33,0,0,1,.1-.39.47.47,0,0,1,.28-.09h3v.7H204s-.06,0-.07,0l-.52,1a.06.06,0,0,0,0,.06l1.05,2,0,0,.35-.09a4.2,4.2,0,0,1,1.32-.09,4,4,0,0,1,2.46,1.1,3.1,3.1,0,0,1,.95,1.68,3.15,3.15,0,0,1-1.17,3.17,3.89,3.89,0,0,1-2,.87l-.35,0h-.54c-.21,0-.43,0-.63-.09a3.86,3.86,0,0,1-2.11-1.18,3.22,3.22,0,0,1-.82-1.66l0-.2h-1.68a.46.46,0,0,1-.37-.15c-.23-.22-.45-.45-.67-.68l-1.78-1.79c-.51-.53-1-1-1.55-1.57l-.29-.29-.43,1.06h0l0,0a3.46,3.46,0,0,1,2.13,2.65,2.92,2.92,0,0,1-.07,1.21,3.46,3.46,0,0,1-1.75,2.16,4,4,0,0,1-1.55.48l-.25,0h-.49c-.2,0-.4,0-.59-.08a3.79,3.79,0,0,1-2.49-1.63,3.09,3.09,0,0,1-.5-1.3l0-.23Zm5.25-2.23s0,0,0,.05l-.72,1.79-.26.65a.4.4,0,0,1-.48.22.33.33,0,0,1-.24-.47c.32-.81.65-1.62,1-2.43,0,0,0,0,0-.05a3.13,3.13,0,0,0-3.57,1.84,2.66,2.66,0,0,0,1.91,3.4,3.19,3.19,0,0,0,3.89-1.61A2.59,2.59,0,0,0,194.82,289.42Zm7.86,2.73a2.82,2.82,0,0,0,2.27,2.33,3.22,3.22,0,0,0,3.48-1.33,2.52,2.52,0,0,0-.61-3.3,3.29,3.29,0,0,0-3-.59l.24.45,1,1.93a.29.29,0,0,1,0,.22.38.38,0,0,1-.41.29h-3Zm-6.84-5.23,4.2,4.26,2.27-4.26Zm7.9,2-.81-1.51-2.17,4.06h1.12A3.49,3.49,0,0,1,203.74,288.89Zm-1.05,2.55h2.41l-1-1.9A2.77,2.77,0,0,0,202.69,291.44Z" transform="translate(-117.66 -70.99)"/><path class="cls-18" d="M155.7,270.26l0-.22a3.07,3.07,0,0,1,.55-1.38,3.8,3.8,0,0,1,2.43-1.55,4.08,4.08,0,0,1,1.74,0s.06,0,.07,0c.48-1.2,1-2.4,1.45-3.6a1.17,1.17,0,0,1,1-.72h1.52v.7h-1.31a.41.41,0,0,0-.44.27c-.15.36-.29.72-.44,1.07,0,0,0,0,0,0h6.51s.06,0,.07,0l.33-.6s0,0,0-.06H168a.38.38,0,0,1-.37-.22.31.31,0,0,1,.1-.38.4.4,0,0,1,.28-.1h3v.7h-.93a.05.05,0,0,0-.06,0l-.52,1s0,0,0,.06l1.06,2v0l.36-.1a4.52,4.52,0,0,1,1.32-.08,4,4,0,0,1,2.46,1.09,3.24,3.24,0,0,1,.95,1.68,3.15,3.15,0,0,1-1.18,3.18,3.86,3.86,0,0,1-2,.87l-.35,0h-.53c-.21,0-.43,0-.64-.09a3.82,3.82,0,0,1-2.1-1.19A3.11,3.11,0,0,1,168,271l0-.19h-1.68a.52.52,0,0,1-.38-.15l-.67-.68-1.77-1.8L162,266.57c-.1-.09-.19-.19-.29-.29l-.43,1.07h0l0,0a3.46,3.46,0,0,1,2.12,2.64,2.79,2.79,0,0,1-.06,1.22,3.47,3.47,0,0,1-1.76,2.16,4.08,4.08,0,0,1-1.54.48l-.25,0h-.49c-.2,0-.4,0-.59-.08a3.87,3.87,0,0,1-2.5-1.63,3.13,3.13,0,0,1-.49-1.3l0-.24ZM161,268s0,0,0,.05l-.72,1.8c-.09.21-.18.43-.26.64a.41.41,0,0,1-.48.23.34.34,0,0,1-.25-.47c.33-.81.66-1.63,1-2.44,0,0,0,0,0,0a3.12,3.12,0,0,0-3.57,1.84,2.66,2.66,0,0,0,1.91,3.4,3.19,3.19,0,0,0,3.89-1.62A2.61,2.61,0,0,0,161,268Zm7.86,2.74a2.82,2.82,0,0,0,2.26,2.33,3.23,3.23,0,0,0,3.49-1.34,2.53,2.53,0,0,0-.61-3.3,3.35,3.35,0,0,0-3-.59l.24.45,1,1.94a.32.32,0,0,1,0,.21.4.4,0,0,1-.41.3h-3ZM162,265.54l4.21,4.25,2.26-4.25Zm7.91,2-.82-1.52-2.16,4.07H168A3.45,3.45,0,0,1,169.87,267.51Zm-1.05,2.55h2.41l-1-1.91A2.74,2.74,0,0,0,168.82,270.06Z" transform="translate(-117.66 -70.99)"/><path class="cls-18" d="M156.87,233.29l0-.22a3.15,3.15,0,0,1,.55-1.39,3.87,3.87,0,0,1,2.43-1.55,4.25,4.25,0,0,1,1.74,0s.06,0,.07,0l1.45-3.6a1.18,1.18,0,0,1,1-.72h1.52v.69h-1.31a.41.41,0,0,0-.44.28c-.15.36-.29.71-.43,1.07,0,0,0,0,0,.05h6.51a.08.08,0,0,0,.08,0c.1-.2.21-.4.32-.6,0,0,0,0,0-.06H169.2a.4.4,0,0,1-.37-.22.33.33,0,0,1,.1-.39.45.45,0,0,1,.28-.09h3v.7h-.92s-.06,0-.07,0l-.52,1a.06.06,0,0,0,0,.06l1,2v0l.36-.09a4.26,4.26,0,0,1,3.78,1,3.19,3.19,0,0,1-.22,4.86,4,4,0,0,1-2,.87l-.36,0h-.53c-.21,0-.43,0-.63-.09a3.86,3.86,0,0,1-2.11-1.18,3.22,3.22,0,0,1-.82-1.66l0-.19h-.06c-.54,0-1.08,0-1.62,0a.5.5,0,0,1-.37-.15l-.67-.68-1.78-1.8-1.55-1.57-.29-.29-.43,1.07h0l.05,0a3.42,3.42,0,0,1,2.12,2.64,2.75,2.75,0,0,1-.06,1.21,3.45,3.45,0,0,1-1.75,2.17,3.94,3.94,0,0,1-1.55.47l-.25,0h-.49a4.11,4.11,0,0,1-3.08-1.7,3.13,3.13,0,0,1-.5-1.31l0-.23Zm5.25-2.23s0,0,0,.05l-.72,1.8c-.09.21-.17.43-.26.64a.4.4,0,0,1-.48.22.33.33,0,0,1-.24-.47c.32-.81.65-1.62,1-2.43a.43.43,0,0,0,0-.05,3.12,3.12,0,0,0-3.57,1.85,2.67,2.67,0,0,0,1.91,3.4,3.19,3.19,0,0,0,3.89-1.62A2.59,2.59,0,0,0,162.12,231.06ZM170,233.8a2.84,2.84,0,0,0,2.26,2.33,3.23,3.23,0,0,0,3.49-1.34,2.52,2.52,0,0,0-.61-3.3,3.35,3.35,0,0,0-3-.59l.24.45c.34.65.69,1.29,1,1.93a.29.29,0,0,1,0,.22.39.39,0,0,1-.41.3h-3Zm-6.84-5.23,4.2,4.25,2.27-4.25Zm7.9,2-.81-1.51-2.17,4.07h1.12A3.49,3.49,0,0,1,171,230.53Zm-1,2.55h2.41l-1-1.9A2.77,2.77,0,0,0,170,233.08Z" transform="translate(-117.66 -70.99)"/><path class="cls-18" d="M174.78,198.77l.09-.21a3.25,3.25,0,0,1,.88-1.24,4.23,4.23,0,0,1,4.46-.66s0,0,.07,0l2.33-3.22a1.26,1.26,0,0,1,1.12-.51l.14,0,1.31.27h0l-.17.68H185l-1.22-.25a.42.42,0,0,0-.49.18l-.7,1s0,0,0,0h.05l6.29,1.3s.06,0,.08,0l.47-.52,0-.05h-.06l-1.07-.22a.37.37,0,0,1-.3-.29.37.37,0,0,1,.2-.36.48.48,0,0,1,.29,0l2.85.59h.06l-.18.68h-.06l-.84-.18s-.06,0-.08,0l-.75.84a.07.07,0,0,0,0,.06c.17.71.35,1.42.52,2.13v0l.38,0a4.35,4.35,0,0,1,1.3.19,3.72,3.72,0,0,1,2.12,1.55,3,3,0,0,1,.5,1.83,3.33,3.33,0,0,1-2,2.86,4.16,4.16,0,0,1-2.18.45l-.35,0h-.05l-.42-.09,0,0a5.89,5.89,0,0,1-.59-.21A3.63,3.63,0,0,1,187,203.7a3,3,0,0,1-.37-1.78,1.23,1.23,0,0,1,0-.19h-.07l-1.57-.33a.46.46,0,0,1-.33-.22l-.48-.79c-.42-.71-.85-1.41-1.27-2.11l-1.11-1.84-.21-.34-.69.95h0l.05,0a3.24,3.24,0,0,1,1.4,3,3.08,3.08,0,0,1-.37,1.17,3.74,3.74,0,0,1-2.26,1.76,4.26,4.26,0,0,1-1.63.16l-.25,0-.43-.09,0,0a5.27,5.27,0,0,1-.56-.19,3.53,3.53,0,0,1-2-2.09,2.87,2.87,0,0,1-.16-1.36,2,2,0,0,1,0-.24Zm5.68-1.12,0,0-1.16,1.6-.42.58a.41.41,0,0,1-.52.12.33.33,0,0,1-.12-.51c.53-.72,1-1.45,1.57-2.17l0,0a3.28,3.28,0,0,0-3.95,1.09,2.55,2.55,0,0,0,1,3.69,3.3,3.3,0,0,0,4.19-.8A2.51,2.51,0,0,0,180.46,197.65Zm7,4.24a2.64,2.64,0,0,0,1.61,2.73,3.34,3.34,0,0,0,3.73-.61,2.51,2.51,0,0,0,.25-3.34,3.22,3.22,0,0,0-2.8-1.18l.12.49c.17.7.35,1.39.52,2.09a.28.28,0,0,1,0,.22.41.41,0,0,1-.47.21l-2.88-.6Zm-5.35-6.46,3,5,3.29-3.69Zm7.2,3.49-.41-1.63-3.14,3.52,1.09.23A3.8,3.8,0,0,1,189.28,198.92Zm-1.66,2.28,2.34.48-.5-2.06A3,3,0,0,0,187.62,201.2Z" transform="translate(-117.66 -70.99)"/><path class="cls-18" d="M190.28,176.08l.11-.2a3.38,3.38,0,0,1,1-1.16,4.27,4.27,0,0,1,4.5-.29s.06,0,.08,0l2.66-3a1.25,1.25,0,0,1,1.17-.41l.14,0,1.27.38h0l-.24.66h-.07l-1.18-.36a.46.46,0,0,0-.52.14l-.79.89,0,0h.05l6.12,1.82a.08.08,0,0,0,.09,0l.52-.48,0,0-.06,0-1-.31a.34.34,0,0,1,0-.65.44.44,0,0,1,.3,0l2.78.83h.05l-.25.67-.06,0-.82-.25a.07.07,0,0,0-.08,0l-.84.78s0,0,0,.06c.09.72.19,1.44.29,2.16v0l.37,0a3.92,3.92,0,0,1,1.28.29,3.6,3.6,0,0,1,1.94,1.73,2.87,2.87,0,0,1,.31,1.86,3.47,3.47,0,0,1-2.25,2.68,4.16,4.16,0,0,1-2.21.26l-.35-.07h-.05l-.41-.12,0,0a5.86,5.86,0,0,1-.57-.26A3.53,3.53,0,0,1,201.9,182a3.12,3.12,0,0,1-.18-1.81c0-.06,0-.13,0-.19l-.06,0-1.53-.46a.45.45,0,0,1-.31-.24c-.12-.28-.26-.56-.39-.83l-1-2.21c-.3-.64-.61-1.28-.91-1.93-.06-.11-.11-.23-.17-.35l-.79.89h0l0,0a3.17,3.17,0,0,1,1.08,3.11,2.93,2.93,0,0,1-.5,1.13,3.86,3.86,0,0,1-2.43,1.56,4.31,4.31,0,0,1-1.64,0l-.24-.05-.42-.12,0,0c-.17-.08-.36-.15-.53-.24a3.46,3.46,0,0,1-1.78-2.25,2.89,2.89,0,0,1,0-1.37l.06-.23Zm5.77-.63,0,0-1.32,1.5-.48.54a.41.41,0,0,1-.53.07.32.32,0,0,1-.07-.51l1.8-2,0,0a3.29,3.29,0,0,0-4,.74,2.52,2.52,0,0,0,.6,3.76,3.33,3.33,0,0,0,4.26-.43A2.5,2.5,0,0,0,196.05,175.45Zm6.48,4.81a2.58,2.58,0,0,0,1.32,2.85,3.37,3.37,0,0,0,3.78-.29,2.53,2.53,0,0,0,.6-3.3,3.12,3.12,0,0,0-2.66-1.41c0,.16,0,.33.07.49.09.71.19,1.42.29,2.13a.32.32,0,0,1,0,.21.42.42,0,0,1-.49.17l-2.81-.84Zm-4.63-6.89,2.47,5.22,3.67-3.4Zm6.8,4.09-.24-1.67L201,179l1.06.32A3.86,3.86,0,0,1,204.7,177.46Zm-1.91,2.12,2.29.68-.29-2.09A3.09,3.09,0,0,0,202.79,179.58Z" transform="translate(-117.66 -70.99)"/><path class="cls-18" d="M267.09,329.36l0-.22a3.15,3.15,0,0,1,.55-1.39,3.84,3.84,0,0,1,2.43-1.55,4.25,4.25,0,0,1,1.74,0s.05,0,.07,0c.48-1.2,1-2.4,1.45-3.6a1.17,1.17,0,0,1,1-.72h1.52v.69h-1.31a.4.4,0,0,0-.44.28l-.44,1.07a.43.43,0,0,0,0,.05h6.51s.06,0,.07,0l.33-.6a.14.14,0,0,1,0-.06h-1.15a.4.4,0,0,1-.37-.22.33.33,0,0,1,.1-.39.45.45,0,0,1,.28-.09h3v.7h-.93a.08.08,0,0,0-.07,0l-.51,1a.17.17,0,0,0,0,.07l1.05,2,0,0,.36-.09a3.89,3.89,0,0,1,1.32-.08,4,4,0,0,1,2.46,1.09,3.24,3.24,0,0,1,.95,1.68,3.15,3.15,0,0,1-1.18,3.18,3.94,3.94,0,0,1-2,.87l-.35,0H283c-.21,0-.43,0-.64-.08a3.94,3.94,0,0,1-2.1-1.19,3.15,3.15,0,0,1-.82-1.66l0-.19h-1.68a.5.5,0,0,1-.38-.15c-.22-.23-.44-.46-.67-.68l-1.77-1.8-1.55-1.57-.29-.29-.43,1.07h0l.05,0a3.46,3.46,0,0,1,2.12,2.64,2.75,2.75,0,0,1-.06,1.21A3.47,3.47,0,0,1,273,332.5a4.08,4.08,0,0,1-1.54.48l-.25,0h-.49a5.6,5.6,0,0,1-.59-.07,3.87,3.87,0,0,1-2.5-1.63,3,3,0,0,1-.49-1.31l0-.23Zm5.25-2.23,0,.05-.72,1.8c-.09.21-.18.43-.26.64a.41.41,0,0,1-.48.22.34.34,0,0,1-.25-.47c.33-.81.66-1.62,1-2.43,0,0,0,0,0-.05a3.12,3.12,0,0,0-3.57,1.85,2.66,2.66,0,0,0,1.91,3.4,3.18,3.18,0,0,0,3.88-1.62A2.6,2.6,0,0,0,272.34,327.13Zm7.86,2.74a2.83,2.83,0,0,0,2.26,2.33,3.23,3.23,0,0,0,3.49-1.34,2.53,2.53,0,0,0-.61-3.3,3.35,3.35,0,0,0-3-.59l.24.45c.34.65.68,1.29,1,1.93a.41.41,0,0,1,0,.22.4.4,0,0,1-.41.3h-3Zm-6.85-5.23,4.21,4.25,2.26-4.25Zm7.91,2-.82-1.51-2.16,4.07h1.11A3.5,3.5,0,0,1,281.26,326.6Zm-1.05,2.55h2.41l-1-1.9A2.74,2.74,0,0,0,280.21,329.15Z" transform="translate(-117.66 -70.99)"/><path class="cls-18" d="M265.14,360.07l0-.22a3.15,3.15,0,0,1,.55-1.39,3.83,3.83,0,0,1,2.43-1.54,4.08,4.08,0,0,1,1.74,0s.06,0,.07,0l1.45-3.6a1.18,1.18,0,0,1,1-.72h1.52v.7h-1.31a.41.41,0,0,0-.44.27c-.15.36-.29.71-.43,1.07,0,0,0,0,0,0h6.51s.06,0,.07,0l.33-.6,0-.06h-1.15a.38.38,0,0,1-.37-.22.31.31,0,0,1,.1-.38.4.4,0,0,1,.28-.1h3v.7h-.93a.05.05,0,0,0-.06,0l-.52,1a.06.06,0,0,0,0,.06l1.05,2v0l.36-.1a4.2,4.2,0,0,1,1.32-.08,4,4,0,0,1,2.46,1.09,3.18,3.18,0,0,1-.23,4.86,3.94,3.94,0,0,1-2,.87l-.36,0H281c-.21,0-.43,0-.63-.08a3.81,3.81,0,0,1-2.11-1.19,3.11,3.11,0,0,1-.82-1.66l0-.19h-1.68a.52.52,0,0,1-.38-.15l-.66-.68-1.78-1.8-1.55-1.57-.29-.29-.43,1.07h0l.05,0a3.44,3.44,0,0,1,2.12,2.64,2.79,2.79,0,0,1-.06,1.22,3.44,3.44,0,0,1-1.76,2.16,4.08,4.08,0,0,1-1.54.48l-.25,0h-.49a5.6,5.6,0,0,1-.59-.07,3.82,3.82,0,0,1-2.49-1.63,3.14,3.14,0,0,1-.5-1.3l0-.24Zm5.25-2.23s0,0,0,.05l-.72,1.8c-.09.21-.17.43-.26.64a.41.41,0,0,1-.48.23.34.34,0,0,1-.24-.47c.32-.82.65-1.63,1-2.44a.08.08,0,0,0,0,0,3.12,3.12,0,0,0-3.57,1.85,2.67,2.67,0,0,0,1.91,3.4,3.19,3.19,0,0,0,3.89-1.62A2.61,2.61,0,0,0,270.39,357.84Zm7.86,2.74a2.84,2.84,0,0,0,2.26,2.33,3.23,3.23,0,0,0,3.49-1.34,2.53,2.53,0,0,0-.61-3.3,3.35,3.35,0,0,0-3-.59l.24.45,1,1.94a.27.27,0,0,1,0,.21.4.4,0,0,1-.41.3h-3Zm-6.84-5.23,4.2,4.25,2.26-4.25Zm7.9,2-.82-1.52-2.16,4.07h1.12A3.45,3.45,0,0,1,279.31,357.32Zm-1.05,2.55h2.41l-1-1.91A2.77,2.77,0,0,0,278.26,359.87Z" transform="translate(-117.66 -70.99)"/><path class="cls-18" d="M286,366l.21-.13a4,4,0,0,1,1.52-.58,4.23,4.23,0,0,1,2.92.56,3.55,3.55,0,0,1,1.17,1.14s0,0,.08,0l4-1.47a1.32,1.32,0,0,1,1.25.14l.11.09.9.88,0,0-.58.47,0,0-.84-.82a.45.45,0,0,0-.53-.1l-1.18.43-.05,0,0,0,4.35,4.24s0,0,.08,0l.72-.19.06,0,0,0-.74-.72a.32.32,0,0,1-.06-.39.39.39,0,0,1,.39-.19.36.36,0,0,1,.26.12l2,1.92,0,0-.58.47,0,0-.58-.57a.08.08,0,0,0-.08,0l-1.16.32a.07.07,0,0,0-.05,0l-.93,2v0l.31.18a3.45,3.45,0,0,1,1,.81,3.11,3.11,0,0,1,.75,2.35,3.06,3.06,0,0,1-.75,1.75,4,4,0,0,1-3.43,1.37,3.9,3.9,0,0,1-2.08-.73l-.27-.21,0,0-.29-.29,0,0c-.12-.16-.25-.31-.35-.47a3.05,3.05,0,0,1-.44-2.19,3.17,3.17,0,0,1,.83-1.65l.14-.15,0-.05-1.09-1.06a.36.36,0,0,1-.13-.34c0-.3.07-.6.11-.9l.3-2.38c.09-.69.17-1.38.26-2.07,0-.13,0-.26.05-.39l-1.18.44h0v.05a3.11,3.11,0,0,1-.76,3.17,3.55,3.55,0,0,1-1.05.78,4.26,4.26,0,0,1-3,.3,3.85,3.85,0,0,1-1.44-.69l-.19-.15-.3-.29,0,0c-.11-.15-.23-.29-.33-.45a3.08,3.08,0,0,1-.33-2.73,3.28,3.28,0,0,1,.75-1.2l.18-.18Zm5.39,1.95h-.05l-2,.74-.71.26a.4.4,0,0,1-.51-.16.33.33,0,0,1,.23-.48l2.68-1,.05,0a3.27,3.27,0,0,0-3.94-1.1,2.61,2.61,0,0,0-1.54,3.55,3.22,3.22,0,0,0,4,1.46A2.63,2.63,0,0,0,291.35,367.9Zm3,7A2.48,2.48,0,0,0,294,378a3.22,3.22,0,0,0,3.46,1.39,2.82,2.82,0,0,0,2.33-2.63,2.66,2.66,0,0,0-1.54-2.38l-.21.46-.92,2a.31.31,0,0,1-.15.17.43.43,0,0,1-.52-.07l-2-1.94Zm-.27-8-.71,5.63,5.07-1.38Zm3.69,6.52.71-1.56-4.84,1.32.75.73A4.33,4.33,0,0,1,297.8,373.4Zm-2.83,1L296.6,376l.89-1.95A3.4,3.4,0,0,0,295,374.43Z" transform="translate(-117.66 -70.99)"/><path class="cls-18" d="M307,348.21l.13-.2a3.53,3.53,0,0,1,1.16-1,4.19,4.19,0,0,1,2.93-.49,4,4,0,0,1,1.58.66s.05,0,.08,0l3-2.71a1.29,1.29,0,0,1,1.21-.3l.14.05,1.21.5,0,0-.33.63-.06,0-1.13-.47a.44.44,0,0,0-.53.09l-.9.8,0,0,.05,0,5.85,2.43a.05.05,0,0,0,.08,0l.58-.42.05,0-.05,0-1-.41a.36.36,0,0,1-.23-.34.38.38,0,0,1,.27-.32.5.5,0,0,1,.3,0l2.65,1.1.05,0-.33.63-.05,0-.79-.33a.08.08,0,0,0-.08,0l-.94.69a.11.11,0,0,0,0,.06c0,.72,0,1.45,0,2.18v0l.37.05a3.74,3.74,0,0,1,1.23.42,3.49,3.49,0,0,1,1.71,1.91,3,3,0,0,1,.06,1.88,3.56,3.56,0,0,1-2.58,2.44,4.12,4.12,0,0,1-2.23,0l-.34-.1h-.05l-.39-.16,0,0a5.89,5.89,0,0,1-.54-.32,3.34,3.34,0,0,1-1.34-1.87,3,3,0,0,1,.05-1.81,1.34,1.34,0,0,1,.07-.18l-.06,0-1.47-.61a.43.43,0,0,1-.27-.27c-.09-.29-.18-.58-.28-.87l-.75-2.3-.66-2-.12-.38-.9.81h0l0,0a3.16,3.16,0,0,1,0,4.27,4,4,0,0,1-2.62,1.3,4.27,4.27,0,0,1-1.63-.15l-.24-.07-.4-.17,0,0c-.16-.1-.34-.19-.5-.3a3.33,3.33,0,0,1-1.48-2.41,2.92,2.92,0,0,1,.18-1.37c0-.07.05-.14.08-.22Zm5.81,0,0,0-1.51,1.36-.54.48a.41.41,0,0,1-.54,0,.32.32,0,0,1,0-.51l2.05-1.84,0,0a3.34,3.34,0,0,0-4.12.33,2.52,2.52,0,0,0,.11,3.8,3.34,3.34,0,0,0,4.29,0A2.49,2.49,0,0,0,312.83,348.16Zm5.82,5.44a2.54,2.54,0,0,0,.94,3,3.38,3.38,0,0,0,3.79.1,2.55,2.55,0,0,0,1-3.22,3,3,0,0,0-2.45-1.67v.49c0,.72,0,1.43,0,2.14a.31.31,0,0,1-.06.21.43.43,0,0,1-.51.12l-2.68-1.11Zm-3.71-7.31,1.78,5.43,4.08-3Zm6.22,4.75v-1.67l-3.9,2.86,1,.42A4,4,0,0,1,321.16,351ZM319,353l2.18.91v-2.11A3.18,3.18,0,0,0,319,353Z" transform="translate(-117.66 -70.99)"/><path class="cls-18" d="M263.44,206.41l0-.23a2.94,2.94,0,0,1,.54-1.38,3.86,3.86,0,0,1,2.43-1.55,4.08,4.08,0,0,1,1.74,0c.05,0,.06,0,.07,0,.49-1.2,1-2.4,1.46-3.59a1.15,1.15,0,0,1,1-.73h1.52v.7h-1.32a.41.41,0,0,0-.44.28l-.43,1.06,0,0h6.51a.08.08,0,0,0,.08,0c.1-.2.21-.4.32-.6l0-.05h-1.16a.39.39,0,0,1-.36-.22.33.33,0,0,1,.1-.39.37.37,0,0,1,.27-.09h3v.7h-.93a.08.08,0,0,0-.07,0l-.52,1a.06.06,0,0,0,0,.06l1.05,2,0,0c.12,0,.24-.07.36-.09a4.16,4.16,0,0,1,1.32-.09,3.94,3.94,0,0,1,2.45,1.1,3,3,0,0,1,.95,1.68,3.13,3.13,0,0,1-1.17,3.17,3.86,3.86,0,0,1-2,.87l-.35,0h-.53c-.22,0-.43,0-.64-.09a3.89,3.89,0,0,1-2.11-1.18,3.3,3.3,0,0,1-.82-1.66l0-.2h-1.68a.5.5,0,0,1-.37-.15l-.67-.68-1.77-1.79-1.56-1.58-.28-.29-.44,1.07h0l0,0a3.46,3.46,0,0,1,2.13,2.64,2.79,2.79,0,0,1-.07,1.22,3.46,3.46,0,0,1-1.75,2.16,4.08,4.08,0,0,1-1.54.48l-.26,0H267c-.19,0-.39,0-.59-.08a3.79,3.79,0,0,1-2.49-1.63,3,3,0,0,1-.49-1.3l0-.23Zm5.25-2.23,0,0c-.25.6-.49,1.2-.73,1.8-.08.22-.17.43-.26.64a.39.39,0,0,1-.47.23.34.34,0,0,1-.25-.47l1-2.43s0,0,0-.05a3.15,3.15,0,0,0-3.58,1.84,2.67,2.67,0,0,0,1.92,3.4,3.18,3.18,0,0,0,3.88-1.61A2.59,2.59,0,0,0,268.69,204.18Zm7.85,2.73a2.82,2.82,0,0,0,2.27,2.33,3.21,3.21,0,0,0,3.48-1.33,2.51,2.51,0,0,0-.61-3.3,3.28,3.28,0,0,0-3-.59l.24.45c.35.64.69,1.29,1,1.93a.29.29,0,0,1,0,.22.37.37,0,0,1-.4.29h-3Zm-6.84-5.23,4.2,4.26,2.27-4.26Zm7.9,2-.81-1.52-2.17,4.07h1.12A3.47,3.47,0,0,1,277.6,203.65Zm-1.05,2.55H279l-1-1.9A2.76,2.76,0,0,0,276.55,206.2Z" transform="translate(-117.66 -70.99)"/><path class="cls-18" d="M291.46,198.09a1.64,1.64,0,0,1,0-.22,3.07,3.07,0,0,1,.55-1.38,3.86,3.86,0,0,1,2.43-1.55,4.25,4.25,0,0,1,1.74,0c.05,0,.06,0,.07,0,.49-1.2,1-2.4,1.45-3.6a1.18,1.18,0,0,1,1-.72h1.53v.7h-1.32a.41.41,0,0,0-.44.27c-.14.36-.29.72-.43,1.07l0,0h6.51a.08.08,0,0,0,.08,0c.1-.2.21-.4.32-.6a.13.13,0,0,1,0-.05h-1.16a.38.38,0,0,1-.37-.22.33.33,0,0,1,.1-.38.42.42,0,0,1,.28-.1h3V192h-.92s-.06,0-.07,0l-.52,1a.06.06,0,0,0,0,.06l1.05,2,0,0,.35-.1a4.52,4.52,0,0,1,1.32-.08,4,4,0,0,1,2.46,1.09,3.11,3.11,0,0,1,1,1.68,3.17,3.17,0,0,1-1.17,3.18,3.89,3.89,0,0,1-2,.87l-.35,0h-.54c-.21,0-.43,0-.63-.09a3.81,3.81,0,0,1-2.11-1.19,3.18,3.18,0,0,1-.82-1.66l0-.19h-1.68a.5.5,0,0,1-.37-.15l-.67-.68L299.25,196c-.51-.53-1-1-1.55-1.58l-.29-.29-.43,1.07h0l.05,0a3.45,3.45,0,0,1,2.13,2.64,3,3,0,0,1-.07,1.22,3.46,3.46,0,0,1-1.75,2.16,4.13,4.13,0,0,1-1.55.48l-.25,0h-.49c-.2,0-.4,0-.59-.08A3.82,3.82,0,0,1,292,200a3.14,3.14,0,0,1-.5-1.3,1.94,1.94,0,0,1,0-.24Zm5.24-2.23a.08.08,0,0,1,0,0l-.72,1.8c-.09.21-.17.43-.26.64a.4.4,0,0,1-.48.23.33.33,0,0,1-.24-.47c.32-.81.65-1.62,1-2.44v0a3.12,3.12,0,0,0-3.57,1.84,2.66,2.66,0,0,0,1.91,3.4,3.18,3.18,0,0,0,3.89-1.62A2.6,2.6,0,0,0,296.7,195.86Zm7.86,2.74a2.83,2.83,0,0,0,2.27,2.33,3.22,3.22,0,0,0,3.48-1.34,2.52,2.52,0,0,0-.61-3.3,3.35,3.35,0,0,0-3-.59l.24.45,1,1.94a.27.27,0,0,1,0,.21.39.39,0,0,1-.41.3h-3Zm-6.84-5.23,4.2,4.25,2.27-4.25Zm7.9,2-.81-1.52-2.17,4.07h1.12A3.47,3.47,0,0,1,305.62,195.34Zm-1.05,2.55H307L306,196A2.77,2.77,0,0,0,304.57,197.89Z" transform="translate(-117.66 -70.99)"/><path class="cls-18" d="M299.59,177l0-.22a3.07,3.07,0,0,1,.55-1.38,3.8,3.8,0,0,1,2.43-1.55,4.25,4.25,0,0,1,1.74,0s.05,0,.07,0c.48-1.2,1-2.4,1.45-3.6a1.17,1.17,0,0,1,1-.72h1.52v.7H307a.41.41,0,0,0-.44.27c-.15.36-.29.72-.44,1.07,0,0,0,0,0,.05h6.51s.06,0,.07,0l.33-.6s0,0,0,0h-1.15a.4.4,0,0,1-.37-.22.33.33,0,0,1,.1-.39.39.39,0,0,1,.28-.09h3v.7H314a0,0,0,0,0-.06,0l-.52,1a.13.13,0,0,0,0,.06l1.05,2,0,0,.36-.09a4.18,4.18,0,0,1,1.32-.09,4,4,0,0,1,2.46,1.09,3.24,3.24,0,0,1,.95,1.68,3.15,3.15,0,0,1-1.18,3.18,3.86,3.86,0,0,1-2,.87l-.35,0h-.53c-.21,0-.43-.05-.64-.09a3.82,3.82,0,0,1-2.1-1.19,3.11,3.11,0,0,1-.82-1.66l0-.19h-1.68a.52.52,0,0,1-.38-.15l-.67-.68-1.77-1.79-1.55-1.58-.29-.29-.43,1.07h0l.05,0a3.47,3.47,0,0,1,2.12,2.64,2.79,2.79,0,0,1-.06,1.22,3.47,3.47,0,0,1-1.76,2.16,4.08,4.08,0,0,1-1.54.48l-.25,0h-.49c-.2,0-.4,0-.59-.08a3.87,3.87,0,0,1-2.5-1.63,3,3,0,0,1-.49-1.3l0-.23Zm5.25-2.22,0,0-.72,1.8c-.09.21-.18.43-.26.64a.41.41,0,0,1-.48.23.34.34,0,0,1-.25-.47c.33-.81.66-1.62,1-2.43,0,0,0,0,0,0a3.12,3.12,0,0,0-3.57,1.84,2.66,2.66,0,0,0,1.91,3.4,3.19,3.19,0,0,0,3.89-1.62A2.6,2.6,0,0,0,304.84,174.79Zm7.86,2.73a2.81,2.81,0,0,0,2.26,2.33,3.24,3.24,0,0,0,3.49-1.33,2.54,2.54,0,0,0-.61-3.31,3.35,3.35,0,0,0-3-.59l.24.45,1,1.94a.39.39,0,0,1,0,.21.39.39,0,0,1-.41.3h-3Zm-6.85-5.23,4.21,4.25,2.26-4.25Zm7.91,2-.82-1.52-2.16,4.07h1.11A3.48,3.48,0,0,1,313.76,174.26Zm-1.05,2.55h2.41l-1-1.9A2.72,2.72,0,0,0,312.71,176.81Z" transform="translate(-117.66 -70.99)"/><path class="cls-18" d="M298.64,224c0-.07,0-.15,0-.22a3.07,3.07,0,0,1,.55-1.38,3.86,3.86,0,0,1,2.43-1.55,4.08,4.08,0,0,1,1.74,0c.05,0,.06,0,.07,0l1.46-3.6a1.15,1.15,0,0,1,.95-.72h1.53v.7h-1.32a.41.41,0,0,0-.44.27c-.14.36-.29.72-.43,1.07l0,.05h6.51a.08.08,0,0,0,.08,0c.1-.2.21-.4.32-.6l0,0H311a.4.4,0,0,1-.37-.22.34.34,0,0,1,.1-.39.41.41,0,0,1,.28-.09h3v.7H313s-.06,0-.07,0l-.52,1a.06.06,0,0,0,0,.06l1.05,2,0,0c.12,0,.23-.07.35-.09a4.2,4.2,0,0,1,1.32-.09,4,4,0,0,1,2.46,1.09,3.11,3.11,0,0,1,.95,1.68,3.16,3.16,0,0,1-1.17,3.18,3.86,3.86,0,0,1-2,.87l-.35,0h-.54l-.63-.09a3.84,3.84,0,0,1-2.11-1.19,3.18,3.18,0,0,1-.82-1.66l0-.19h-1.68a.5.5,0,0,1-.37-.15l-.67-.68-1.78-1.79c-.51-.53-1-1.05-1.55-1.58l-.29-.29-.43,1.07h0l.05,0a3.46,3.46,0,0,1,2.13,2.64,3,3,0,0,1-.07,1.22,3.46,3.46,0,0,1-1.75,2.16,4.13,4.13,0,0,1-1.55.48l-.25,0h-.49c-.2,0-.4,0-.59-.08a3.82,3.82,0,0,1-2.49-1.63,3.14,3.14,0,0,1-.5-1.3c0-.08,0-.16,0-.23Zm5.25-2.22,0,0-.72,1.8c-.09.22-.17.43-.26.64a.4.4,0,0,1-.47.23.33.33,0,0,1-.25-.47c.32-.81.65-1.62,1-2.43a.43.43,0,0,1,0,0,3.12,3.12,0,0,0-3.57,1.84,2.67,2.67,0,0,0,1.91,3.4,3.19,3.19,0,0,0,3.89-1.61A2.59,2.59,0,0,0,303.89,221.76Zm7.85,2.73a2.82,2.82,0,0,0,2.27,2.33,3.23,3.23,0,0,0,3.48-1.33,2.51,2.51,0,0,0-.61-3.3,3.29,3.29,0,0,0-3-.59l.24.45c.34.64.69,1.28,1,1.93a.27.27,0,0,1,0,.21.38.38,0,0,1-.41.3h-3Zm-6.84-5.23,4.2,4.26,2.27-4.26Zm7.9,2-.81-1.52-2.17,4.07h1.12A3.47,3.47,0,0,1,312.8,221.23Zm-1.05,2.55h2.41l-1-1.9A2.76,2.76,0,0,0,311.75,223.78Z" transform="translate(-117.66 -70.99)"/><path class="cls-18" d="M330.23,231.2a1.77,1.77,0,0,1,0-.23,3,3,0,0,1,.3-1.44,3.65,3.65,0,0,1,2.13-1.86,4.17,4.17,0,0,1,1.72-.23c.05,0,.06,0,.07-.05l.81-3.75a1.1,1.1,0,0,1,.82-.84l.14,0,1.33-.19h0l.12.69h-.07l-1.23.17a.39.39,0,0,0-.39.33l-.24,1.12s0,0,0,0h.06l6.37-.88s.06,0,.07-.05l.21-.64,0-.06h-.06l-1.08.15a.42.42,0,0,1-.4-.17.33.33,0,0,1,0-.4.4.4,0,0,1,.26-.12l2.89-.4h.06l.12.69h-.06l-.86.12a.05.05,0,0,0-.06,0c-.11.35-.23.69-.34,1a0,0,0,0,0,0,.06l1.37,1.8,0,0,.33-.14a4.22,4.22,0,0,1,3.91.48,3.33,3.33,0,0,1,1.23,1.53,3.09,3.09,0,0,1-.61,3.3,3.8,3.8,0,0,1-1.84,1.13l-.34.08-.05,0-.42.06h-.7a4.05,4.05,0,0,1-2.29-.89,3.33,3.33,0,0,1-1.09-1.52l-.06-.19h-.07l-1.6.22a.51.51,0,0,1-.39-.1l-.78-.58L337.57,228l-1.81-1.34-.33-.25-.24,1.11h0l.05,0a3.64,3.64,0,0,1,2.56,2.32,2.92,2.92,0,0,1,.14,1.21,3.27,3.27,0,0,1-1.36,2.37,3.85,3.85,0,0,1-1.44.69l-.25.06-.43.06s0,0-.05,0h-.6a4,4,0,0,1-2.74-1.27,3.09,3.09,0,0,1-.71-1.22,1.87,1.87,0,0,1-.07-.22Zm4.8-2.92s0,0,0,.05c-.14.62-.27,1.25-.41,1.87-.05.23-.09.45-.14.67a.39.39,0,0,1-.43.29.35.35,0,0,1-.33-.43c.18-.85.37-1.69.55-2.54a.11.11,0,0,1,0-.05,3,3,0,0,0-3.22,2.31,2.78,2.78,0,0,0,2.48,3.1,3.07,3.07,0,0,0,3.56-2.13A2.69,2.69,0,0,0,335,228.28Zm8.24,1.63a2.94,2.94,0,0,0,2.64,2,3.12,3.12,0,0,0,3.21-1.79,2.58,2.58,0,0,0-1.17-3.18,3.36,3.36,0,0,0-3.09-.17l.31.41,1.36,1.77a.27.27,0,0,1,.07.21.35.35,0,0,1-.35.34l-2.92.41Zm-7.67-4.23,4.89,3.62,1.5-4.51Zm8.15.86-1.07-1.39-1.44,4.32,1.11-.15A3.33,3.33,0,0,1,343.75,226.54Zm-.6,2.66,2.38-.33-1.33-1.74A2.67,2.67,0,0,0,343.15,229.2Z" transform="translate(-117.66 -70.99)"/><path class="cls-18" d="M330.4,207.46c0-.08,0-.15,0-.23a2.91,2.91,0,0,1,.21-1.45,3.57,3.57,0,0,1,2-2,4.11,4.11,0,0,1,1.7-.31c.05,0,.06,0,.06-.05.19-1.26.38-2.53.58-3.79a1.07,1.07,0,0,1,.76-.88l.14,0,1.31-.25h0l.16.68-.06,0-1.22.23a.39.39,0,0,0-.37.35c-.06.38-.11.75-.17,1.13v.05h.05l6.31-1.2s.06,0,.07-.06c.05-.21.11-.43.17-.65a.43.43,0,0,0,0-.05h-.06l-1.07.2a.42.42,0,0,1-.41-.15.32.32,0,0,1,0-.39.41.41,0,0,1,.25-.15l2.86-.54h0l.17.68h-.06l-.85.17a0,0,0,0,0,0,0c-.1.35-.19.7-.28,1.05,0,0,0,0,0,.06.5.57,1,1.15,1.49,1.73l0,0,.32-.16a4.66,4.66,0,0,1,1.27-.33,4.16,4.16,0,0,1,2.66.62,3.33,3.33,0,0,1,1.33,1.46,3.06,3.06,0,0,1-.4,3.33,3.65,3.65,0,0,1-1.76,1.22l-.33.1-.05,0-.42.08h-.06c-.21,0-.42,0-.64,0a4.09,4.09,0,0,1-2.34-.77,3.39,3.39,0,0,1-1.19-1.47c0-.06-.05-.12-.07-.19l-.07,0-1.58.3a.51.51,0,0,1-.4-.08l-.81-.54-2.16-1.42-1.89-1.25-.35-.23-.17,1.12h.07a3.71,3.71,0,0,1,2.7,2.19,2.91,2.91,0,0,1,.22,1.2,3.24,3.24,0,0,1-1.21,2.44,3.9,3.9,0,0,1-1.39.75l-.24.08-.44.08h0c-.2,0-.4,0-.6,0a4.06,4.06,0,0,1-2.82-1.12,3.22,3.22,0,0,1-.79-1.19,1.43,1.43,0,0,1-.08-.22ZM335,204.3a.43.43,0,0,1,0,0c-.09.63-.19,1.26-.28,1.9,0,.22-.07.45-.1.67a.39.39,0,0,1-.42.31.35.35,0,0,1-.35-.41c.13-.86.26-1.71.38-2.56a.11.11,0,0,0,0,0,3,3,0,0,0-3.06,2.47,2.81,2.81,0,0,0,2.67,3,3,3,0,0,0,3.42-2.3A2.75,2.75,0,0,0,335,204.3Zm8.33,1.21a3,3,0,0,0,2.76,1.86,3.06,3.06,0,0,0,3.09-2,2.61,2.61,0,0,0-1.37-3.12,3.33,3.33,0,0,0-3.09,0l.34.39c.49.57,1,1.14,1.46,1.7a.33.33,0,0,1,.09.2.36.36,0,0,1-.33.37l-2.88.55Zm-7.93-3.83,5.11,3.37,1.22-4.58Zm8.19.45-1.15-1.33-1.16,4.38,1.09-.21A3.3,3.3,0,0,1,343.6,202.13Zm-.42,2.69,2.36-.45-1.45-1.67A2.6,2.6,0,0,0,343.18,204.82Z" transform="translate(-117.66 -70.99)"/><path class="cls-18" d="M304.52,254.11l0-.22a3.15,3.15,0,0,1,.55-1.39,3.86,3.86,0,0,1,2.43-1.54,4.08,4.08,0,0,1,1.74,0s.06,0,.07,0l1.45-3.6a1.18,1.18,0,0,1,1-.72h1.52v.7H312a.41.41,0,0,0-.44.27c-.15.36-.29.71-.43,1.07,0,0,0,0,0,.05h6.51a.08.08,0,0,0,.08,0c.1-.2.21-.4.32-.6l0-.06h-1.16a.38.38,0,0,1-.37-.22.31.31,0,0,1,.1-.38.4.4,0,0,1,.28-.1h3v.7h-.92s-.06,0-.07,0l-.52,1a.06.06,0,0,0,0,.06l1.05,2v0l.36-.1a4.2,4.2,0,0,1,1.32-.08,4,4,0,0,1,2.46,1.09,3.19,3.19,0,0,1-.22,4.86,4,4,0,0,1-2,.87l-.36,0h-.53c-.21,0-.43,0-.63-.08a3.87,3.87,0,0,1-2.11-1.19,3.18,3.18,0,0,1-.82-1.66l0-.19h-1.68a.5.5,0,0,1-.37-.15l-.67-.68-1.78-1.8-1.55-1.57-.29-.29-.43,1.07h0l.05,0a3.42,3.42,0,0,1,2.12,2.64,2.79,2.79,0,0,1-.06,1.22,3.46,3.46,0,0,1-1.75,2.16,4.13,4.13,0,0,1-1.55.48l-.25,0h-.49a5.6,5.6,0,0,1-.59-.07,3.82,3.82,0,0,1-2.49-1.63,3.14,3.14,0,0,1-.5-1.3l0-.24Zm5.25-2.23a.08.08,0,0,1,0,.05l-.72,1.8c-.09.21-.17.43-.26.64a.39.39,0,0,1-.48.22.33.33,0,0,1-.24-.47c.32-.81.65-1.62,1-2.43a.43.43,0,0,0,0-.05,3.12,3.12,0,0,0-3.57,1.85,2.67,2.67,0,0,0,1.91,3.4,3.19,3.19,0,0,0,3.89-1.62A2.61,2.61,0,0,0,309.77,251.88Zm7.86,2.74a2.84,2.84,0,0,0,2.26,2.33,3.23,3.23,0,0,0,3.49-1.34,2.52,2.52,0,0,0-.61-3.3,3.35,3.35,0,0,0-3-.59l.24.45,1,1.94a.27.27,0,0,1,0,.21.4.4,0,0,1-.41.3h-3Zm-6.84-5.23,4.2,4.25,2.27-4.25Zm7.9,2-.81-1.52-2.17,4.07h1.12A3.47,3.47,0,0,1,318.69,251.36Zm-1.05,2.55h2.41L319,252A2.77,2.77,0,0,0,317.64,253.91Z" transform="translate(-117.66 -70.99)"/><path class="cls-18" d="M270.84,269.67l0-.22a3.11,3.11,0,0,1,.55-1.39,3.84,3.84,0,0,1,2.43-1.55,4.25,4.25,0,0,1,1.74,0s.05,0,.07,0c.48-1.2,1-2.4,1.45-3.6a1.17,1.17,0,0,1,1-.72h1.52v.69h-1.31a.4.4,0,0,0-.44.28l-.44,1.07a.43.43,0,0,0,0,.05h6.51s.06,0,.07,0l.33-.6a.14.14,0,0,1,0-.06h-1.15a.4.4,0,0,1-.37-.22.33.33,0,0,1,.1-.39.45.45,0,0,1,.28-.09h3v.7h-.93a.05.05,0,0,0-.06,0c-.18.32-.35.65-.52,1a.15.15,0,0,0,0,.06l1.05,2,0,0,.36-.09a3.89,3.89,0,0,1,1.32-.08,4,4,0,0,1,2.46,1.09,3.24,3.24,0,0,1,.95,1.68,3.15,3.15,0,0,1-1.18,3.18,3.94,3.94,0,0,1-2,.87l-.35,0h-.53c-.21,0-.43,0-.64-.09A3.86,3.86,0,0,1,284,272a3.15,3.15,0,0,1-.82-1.66l0-.19h-1.68a.52.52,0,0,1-.38-.15c-.22-.23-.44-.46-.67-.68l-1.77-1.8L277.09,266l-.29-.29-.43,1.07h0l.05,0a3.46,3.46,0,0,1,2.12,2.64,2.75,2.75,0,0,1-.06,1.21,3.47,3.47,0,0,1-1.76,2.17,3.9,3.9,0,0,1-1.54.47l-.25,0h-.49a4.14,4.14,0,0,1-3.09-1.7,3,3,0,0,1-.49-1.31l0-.23Zm5.25-2.23,0,.05-.72,1.8c-.09.21-.18.43-.26.64a.41.41,0,0,1-.48.22.34.34,0,0,1-.25-.47c.33-.81.66-1.62,1-2.43l0-.05a3.12,3.12,0,0,0-3.57,1.85,2.66,2.66,0,0,0,1.91,3.4,3.2,3.2,0,0,0,3.89-1.62A2.61,2.61,0,0,0,276.09,267.44Zm7.86,2.74a2.83,2.83,0,0,0,2.26,2.33,3.23,3.23,0,0,0,3.49-1.34,2.53,2.53,0,0,0-.61-3.3,3.35,3.35,0,0,0-3-.59l.24.45c.34.64.68,1.29,1,1.93a.41.41,0,0,1,0,.22.4.4,0,0,1-.41.3h-3ZM277.1,265l4.21,4.25,2.26-4.25Zm7.91,2-.82-1.51L282,269.46h1.11A3.5,3.5,0,0,1,285,266.91ZM284,269.46h2.41l-1-1.9A2.74,2.74,0,0,0,284,269.46Z" transform="translate(-117.66 -70.99)"/><path class="cls-18" d="M304.52,289.67l0-.23a3.12,3.12,0,0,1,.55-1.38,3.83,3.83,0,0,1,2.43-1.55,4.25,4.25,0,0,1,1.74,0s.06,0,.07,0c.48-1.2,1-2.4,1.45-3.59a1.18,1.18,0,0,1,1-.72l.15,0h1.37v.7H312a.41.41,0,0,0-.44.28c-.15.35-.29.71-.43,1.07,0,0,0,0,0,0h6.51a.07.07,0,0,0,.08-.05c.1-.2.21-.4.32-.6,0,0,0,0,0-.05h-1.16a.4.4,0,0,1-.37-.22.33.33,0,0,1,.1-.39.45.45,0,0,1,.28-.09h3v.7h-.92s-.06,0-.07,0l-.52,1a.06.06,0,0,0,0,.06l1.05,2v0l.36-.09a4.2,4.2,0,0,1,1.32-.09,4,4,0,0,1,2.46,1.1,3.1,3.1,0,0,1,1,1.68,3.15,3.15,0,0,1-1.17,3.17,3.89,3.89,0,0,1-2,.87l-.36,0h-.53c-.21,0-.43,0-.63-.09a3.86,3.86,0,0,1-2.11-1.18,3.22,3.22,0,0,1-.82-1.66l0-.2h-1.68a.46.46,0,0,1-.37-.15c-.23-.22-.45-.45-.67-.68l-1.78-1.79c-.51-.53-1-1.05-1.55-1.57-.09-.1-.19-.19-.29-.29l-.43,1.06h0l.05,0a3.43,3.43,0,0,1,2.12,2.65,2.75,2.75,0,0,1-.06,1.21,3.46,3.46,0,0,1-1.75,2.16,4,4,0,0,1-1.55.48l-.25,0h-.49c-.2,0-.4,0-.59-.08a3.79,3.79,0,0,1-2.49-1.63,3.09,3.09,0,0,1-.5-1.3l0-.23Zm5.25-2.23s0,0,0,.05l-.72,1.79-.26.65a.4.4,0,0,1-.48.22.33.33,0,0,1-.24-.47c.32-.81.65-1.62,1-2.43,0,0,0,0,0-.05a3.13,3.13,0,0,0-3.57,1.84,2.66,2.66,0,0,0,1.91,3.4,3.19,3.19,0,0,0,3.89-1.61A2.6,2.6,0,0,0,309.77,287.44Zm7.86,2.73a2.82,2.82,0,0,0,2.26,2.33,3.23,3.23,0,0,0,3.49-1.33,2.52,2.52,0,0,0-.61-3.3,3.29,3.29,0,0,0-3-.59l.24.45,1,1.93a.29.29,0,0,1,0,.22.39.39,0,0,1-.41.29h-3Zm-6.84-5.23,4.2,4.26,2.27-4.26Zm7.9,2-.81-1.51-2.17,4.06h1.12A3.49,3.49,0,0,1,318.69,286.91Zm-1.05,2.55h2.41l-1-1.9A2.77,2.77,0,0,0,317.64,289.46Z" transform="translate(-117.66 -70.99)"/><path class="cls-18" d="M332.48,274.74a2,2,0,0,1,.1-.21,3.33,3.33,0,0,1,1-1.19,4.21,4.21,0,0,1,4.48-.45.05.05,0,0,0,.08,0l2.53-3.09a1.26,1.26,0,0,1,1.14-.45l.15,0,1.28.33h0l-.22.67H343l-1.2-.32a.45.45,0,0,0-.51.16l-.75.92,0,0,0,0,6.2,1.6a.08.08,0,0,0,.08,0l.5-.5,0-.05h-.06l-1-.27a.36.36,0,0,1-.28-.3.35.35,0,0,1,.22-.35.36.36,0,0,1,.29,0l2.82.72.05,0-.22.67h-.06l-.83-.22a.07.07,0,0,0-.08,0l-.8.81a0,0,0,0,0,0,.06l.39,2.15v0h.38a4,4,0,0,1,1.29.24,3.69,3.69,0,0,1,2,1.66,3,3,0,0,1,.38,1.85,3.37,3.37,0,0,1-2.12,2.76,4,4,0,0,1-2.2.34l-.35-.05h-.05l-.41-.1,0,0a6.14,6.14,0,0,1-.59-.25,3.5,3.5,0,0,1-1.65-1.66,3,3,0,0,1-.26-1.79l0-.2h-.06l-1.56-.4a.5.5,0,0,1-.31-.24c-.14-.27-.28-.55-.43-.82l-1.14-2.16-1-1.9a3.9,3.9,0,0,1-.19-.35l-.75.92h0l0,0a3.21,3.21,0,0,1,1.21,3.07,2.89,2.89,0,0,1-.44,1.15,3.82,3.82,0,0,1-2.37,1.64,4.25,4.25,0,0,1-1.63.08l-.25,0-.42-.11-.05,0a5.09,5.09,0,0,1-.54-.22,3.48,3.48,0,0,1-1.88-2.18,2.93,2.93,0,0,1-.07-1.38c0-.07,0-.15.05-.23Zm5.74-.84,0,0c-.42.51-.84,1-1.25,1.55-.16.18-.3.36-.46.55a.43.43,0,0,1-.52.1.33.33,0,0,1-.09-.52l1.7-2.09,0,0a3.3,3.3,0,0,0-4,.88,2.54,2.54,0,0,0,.77,3.74,3.33,3.33,0,0,0,4.24-.59A2.5,2.5,0,0,0,338.22,273.9Zm6.69,4.57a2.59,2.59,0,0,0,1.44,2.8,3.34,3.34,0,0,0,3.76-.42,2.51,2.51,0,0,0,.46-3.32,3.14,3.14,0,0,0-2.72-1.31l.09.49c.13.7.25,1.41.38,2.11a.28.28,0,0,1,0,.22.42.42,0,0,1-.48.18l-2.84-.73ZM340,271.75l2.7,5.13,3.52-3.52Zm7,3.85-.31-1.65-3.36,3.36,1.08.28A3.83,3.83,0,0,1,347,275.6Zm-1.81,2.19,2.31.6-.38-2.08A3,3,0,0,0,345.14,277.79Z" transform="translate(-117.66 -70.99)"/><path class="cls-18" d="M338.63,254.57l.06-.21a3.35,3.35,0,0,1,.78-1.3,4.24,4.24,0,0,1,4.39-.95.05.05,0,0,0,.08,0c.68-1.12,1.36-2.24,2.05-3.36a1.21,1.21,0,0,1,1.07-.58h.15l1.32.18h0l-.12.69h-.06l-1.24-.17a.42.42,0,0,0-.48.22l-.62,1s0,0,0,.05h.06l6.37.88s.06,0,.08,0c.14-.19.29-.37.43-.55l0,0h-.06l-1.08-.15a.37.37,0,0,1-.32-.27.33.33,0,0,1,.16-.37.49.49,0,0,1,.29,0l2.9.4h.05l-.12.69h-.06l-.86-.12s0,0-.07,0c-.23.3-.46.59-.68.89a.07.07,0,0,0,0,.06l.69,2.09,0,0,.37,0a3.93,3.93,0,0,1,1.32.1,3.76,3.76,0,0,1,2.23,1.41,3,3,0,0,1,.65,1.79,3.25,3.25,0,0,1-1.71,3,4.08,4.08,0,0,1-2.13.59l-.35,0h-.05l-.43-.06-.05,0c-.21-.06-.42-.1-.61-.17a3.73,3.73,0,0,1-1.88-1.46,3,3,0,0,1-.52-1.75v-.2h-.06l-1.6-.22a.49.49,0,0,1-.35-.2l-.54-.76-1.44-2-1.26-1.77c-.08-.11-.16-.21-.24-.33l-.61,1h0l0,0a3.29,3.29,0,0,1,1.65,2.9,2.92,2.92,0,0,1-.28,1.19,3.63,3.63,0,0,1-2.1,1.9,4.19,4.19,0,0,1-1.61.26H342l-.43-.06h-.05c-.19-.06-.38-.09-.57-.16a3.67,3.67,0,0,1-2.18-1.95,2.88,2.88,0,0,1-.26-1.35,1.93,1.93,0,0,1,0-.24Zm5.57-1.48,0,0c-.34.56-.68,1.12-1,1.68l-.36.6a.42.42,0,0,1-.51.16.33.33,0,0,1-.17-.5l1.39-2.27,0-.05a3.24,3.24,0,0,0-3.85,1.34,2.58,2.58,0,0,0,1.3,3.62,3.27,3.27,0,0,0,4.12-1.07A2.53,2.53,0,0,0,344.2,253.09Zm7.29,3.77a2.7,2.7,0,0,0,1.84,2.62,3.32,3.32,0,0,0,3.67-.85,2.5,2.5,0,0,0,0-3.34,3.24,3.24,0,0,0-2.89-1c.06.16.11.32.16.48l.69,2a.33.33,0,0,1,0,.22.4.4,0,0,1-.45.23l-2.92-.4Zm-5.86-6.1,3.42,4.78,3-3.9Zm7.47,3-.54-1.6-2.85,3.72,1.11.15A3.67,3.67,0,0,1,353.1,253.78Zm-1.48,2.38,2.38.33-.67-2A2.91,2.91,0,0,0,351.62,256.16Z" transform="translate(-117.66 -70.99)"/><path class="cls-18" d="M294.13,322l0-.23a3.12,3.12,0,0,1,.55-1.38,3.8,3.8,0,0,1,2.43-1.55,4.25,4.25,0,0,1,1.74,0s.05,0,.07,0c.48-1.2,1-2.39,1.45-3.59a1.17,1.17,0,0,1,1-.72l.14,0h1.38v.7h-1.31a.4.4,0,0,0-.44.28c-.15.35-.29.71-.44,1.07a.2.2,0,0,0,0,0h6.51s.06,0,.07,0l.33-.6,0-.05h-1.15a.4.4,0,0,1-.37-.22.33.33,0,0,1,.1-.39.45.45,0,0,1,.28-.09h3v.7h-.93a.05.05,0,0,0-.06,0c-.18.32-.35.65-.52,1a.15.15,0,0,0,0,.06c.35.66.7,1.32,1.06,2v0l.36-.09a4.2,4.2,0,0,1,1.32-.09,4,4,0,0,1,2.46,1.1,3.2,3.2,0,0,1,.95,1.68,3.14,3.14,0,0,1-1.18,3.17,3.86,3.86,0,0,1-2,.87l-.35,0H310c-.21,0-.43,0-.64-.09a3.86,3.86,0,0,1-2.1-1.18,3.15,3.15,0,0,1-.82-1.66l0-.2h-1.68a.48.48,0,0,1-.38-.15l-.67-.67-1.77-1.8-1.55-1.57-.29-.29-.43,1.06h0l.05,0a3.44,3.44,0,0,1,2.12,2.64,2.75,2.75,0,0,1-.06,1.21,3.45,3.45,0,0,1-1.76,2.16,3.91,3.91,0,0,1-1.54.48l-.25,0h-.49c-.2,0-.4,0-.59-.08a3.83,3.83,0,0,1-2.5-1.63,3.08,3.08,0,0,1-.49-1.3l0-.23Zm5.25-2.23,0,.05-.72,1.79c-.09.22-.18.43-.26.65a.41.41,0,0,1-.48.22.34.34,0,0,1-.25-.47c.33-.81.66-1.62,1-2.43l0,0a3.12,3.12,0,0,0-3.57,1.85,2.65,2.65,0,0,0,1.91,3.39,3.19,3.19,0,0,0,3.89-1.61A2.61,2.61,0,0,0,299.38,319.78Zm7.86,2.73a2.83,2.83,0,0,0,2.26,2.34,3.25,3.25,0,0,0,3.49-1.34,2.53,2.53,0,0,0-.61-3.3,3.29,3.29,0,0,0-3-.59l.24.45c.34.64.68,1.29,1,1.93a.41.41,0,0,1,0,.22.39.39,0,0,1-.41.29h-3Zm-6.85-5.23,4.21,4.26,2.26-4.26Zm7.91,2-.82-1.51-2.16,4.06h1.11A3.5,3.5,0,0,1,308.3,319.25Zm-1.05,2.55h2.41l-1-1.9A2.74,2.74,0,0,0,307.25,321.8Z" transform="translate(-117.66 -70.99)"/><path class="cls-18" d="M329.61,312.56l.09-.21a3.21,3.21,0,0,1,.92-1.22,4.06,4.06,0,0,1,2.78-1,4,4,0,0,1,1.68.39.05.05,0,0,0,.08,0l2.41-3.17a1.24,1.24,0,0,1,1.13-.48l.14,0,1.3.29h0l-.2.67h-.06l-1.21-.27a.41.41,0,0,0-.5.17l-.72.94,0,0h.05l6.26,1.42a.06.06,0,0,0,.08,0l.48-.51,0-.05h-.06l-1.06-.24a.37.37,0,0,1-.29-.3.34.34,0,0,1,.2-.35.45.45,0,0,1,.3,0l2.84.64.05,0-.2.67h0l-.85-.19a.06.06,0,0,0-.07,0l-.77.83s0,0,0,.06c.15.71.31,1.43.47,2.14v0h.37a4.07,4.07,0,0,1,1.3.21,3.71,3.71,0,0,1,2.08,1.6,2.94,2.94,0,0,1,.45,1.84,3.35,3.35,0,0,1-2,2.81,4.1,4.1,0,0,1-2.19.41l-.35-.05h-.05l-.42-.09-.05,0c-.19-.08-.4-.14-.59-.23a3.57,3.57,0,0,1-1.71-1.61,3.09,3.09,0,0,1-.33-1.79,1.11,1.11,0,0,0,0-.19l-.06,0-1.56-.35a.47.47,0,0,1-.33-.23l-.46-.8-1.21-2.13c-.36-.62-.72-1.24-1.07-1.87l-.2-.34-.72.94h0l0,0a3.21,3.21,0,0,1,1.33,3,3,3,0,0,1-.4,1.16,3.77,3.77,0,0,1-2.3,1.71,4.27,4.27,0,0,1-1.63.13l-.25,0-.43-.09-.05,0c-.18-.07-.37-.12-.55-.21a3.52,3.52,0,0,1-2-2.12,3,3,0,0,1-.12-1.37,2.23,2.23,0,0,0,0-.23Zm5.71-1,0,0-1.2,1.58-.43.57a.4.4,0,0,1-.52.11.32.32,0,0,1-.11-.51l1.62-2.14,0,0a3.28,3.28,0,0,0-4,1,2.54,2.54,0,0,0,.91,3.71,3.3,3.3,0,0,0,4.21-.71A2.51,2.51,0,0,0,335.32,311.55Zm6.85,4.38a2.62,2.62,0,0,0,1.54,2.75,3.33,3.33,0,0,0,3.75-.53,2.5,2.5,0,0,0,.33-3.33,3.16,3.16,0,0,0-2.76-1.23c0,.16.07.32.1.49.16.7.31,1.4.47,2.1a.38.38,0,0,1,0,.21.41.41,0,0,1-.48.2l-2.86-.65ZM337,309.36l2.89,5,3.38-3.62ZM344.1,313l-.37-1.65-3.23,3.47,1.09.24A3.78,3.78,0,0,1,344.1,313Zm-1.72,2.24,2.33.53-.45-2.07A3,3,0,0,0,342.38,315.24Z" transform="translate(-117.66 -70.99)"/><path class="cls-18" d="M271.28,303.18l0-.22a3.15,3.15,0,0,1,.55-1.39,3.86,3.86,0,0,1,2.43-1.54,4.08,4.08,0,0,1,1.74,0s.06,0,.07,0l1.45-3.6a1.18,1.18,0,0,1,1-.72H280v.7h-1.31a.4.4,0,0,0-.44.27c-.15.36-.29.71-.43,1.07,0,0,0,0,0,.05h6.51a.08.08,0,0,0,.08,0c.1-.2.21-.4.32-.6l0-.06h-1.15a.38.38,0,0,1-.37-.22.33.33,0,0,1,.1-.39.45.45,0,0,1,.28-.09h3v.7h-.93a.05.05,0,0,0-.06,0l-.52,1a.06.06,0,0,0,0,.06l1.05,2v0l.36-.09a3.92,3.92,0,0,1,1.32-.08,4,4,0,0,1,2.46,1.09,3.19,3.19,0,0,1-.22,4.86,4,4,0,0,1-2,.87l-.36,0h-.53c-.21,0-.43,0-.63-.08a3.87,3.87,0,0,1-2.11-1.19,3.18,3.18,0,0,1-.82-1.66l0-.19H281.9a.5.5,0,0,1-.37-.15l-.67-.68-1.78-1.8-1.55-1.57-.29-.29-.43,1.07h0l.05,0a3.44,3.44,0,0,1,2.12,2.64,2.75,2.75,0,0,1-.06,1.21,3.45,3.45,0,0,1-1.75,2.17,4.13,4.13,0,0,1-1.55.48l-.25,0h-.49a5.6,5.6,0,0,1-.59-.07,3.82,3.82,0,0,1-2.49-1.63,3.14,3.14,0,0,1-.5-1.3l0-.24Zm5.25-2.23a.08.08,0,0,1,0,.05l-.72,1.8c-.09.21-.17.43-.26.64a.39.39,0,0,1-.48.22.33.33,0,0,1-.24-.47l1-2.43a.08.08,0,0,0,0-.05,3.12,3.12,0,0,0-3.57,1.85,2.67,2.67,0,0,0,1.91,3.4,3.2,3.2,0,0,0,3.89-1.62A2.61,2.61,0,0,0,276.53,301Zm7.86,2.74a2.84,2.84,0,0,0,2.26,2.33,3.23,3.23,0,0,0,3.49-1.34,2.52,2.52,0,0,0-.61-3.3,3.35,3.35,0,0,0-3-.59l.24.45,1,1.94a.26.26,0,0,1,0,.21.4.4,0,0,1-.41.3h-3Zm-6.84-5.23,4.2,4.25,2.27-4.25Zm7.9,2-.81-1.51L282.47,303h1.12A3.49,3.49,0,0,1,285.45,300.42ZM284.4,303h2.41l-1-1.91A2.77,2.77,0,0,0,284.4,303Z" transform="translate(-117.66 -70.99)"/><path class="cls-18" d="M270.59,241.2l0-.22a3,3,0,0,1,.54-1.39,3.88,3.88,0,0,1,2.43-1.54,4.08,4.08,0,0,1,1.74,0c.05,0,.06,0,.07,0l1.46-3.6a1.15,1.15,0,0,1,.95-.72h1.53v.7H278a.41.41,0,0,0-.44.27c-.14.36-.29.71-.43,1.07,0,0,0,0,0,.05h6.51a.08.08,0,0,0,.08,0c.1-.2.21-.4.32-.6a.33.33,0,0,0,0-.06h-1.16a.37.37,0,0,1-.36-.22.32.32,0,0,1,.09-.38.42.42,0,0,1,.28-.1h3v.7H285s-.06,0-.07,0l-.52,1a.06.06,0,0,0,0,.06l1.05,2,0,0,.36-.1a4.48,4.48,0,0,1,1.32-.08,4,4,0,0,1,2.45,1.09,3.11,3.11,0,0,1,1,1.68,3.17,3.17,0,0,1-1.17,3.18,3.94,3.94,0,0,1-2,.87l-.35,0h-.54c-.21,0-.42,0-.63-.08a3.84,3.84,0,0,1-2.11-1.19,3.26,3.26,0,0,1-.82-1.66l0-.19H281.2a.5.5,0,0,1-.37-.15l-.67-.68-1.78-1.8-1.55-1.57-.29-.29-.43,1.07h0l.05,0A3.45,3.45,0,0,1,278.3,241a3,3,0,0,1-.07,1.22,3.46,3.46,0,0,1-1.75,2.16,4.13,4.13,0,0,1-1.55.48l-.25,0h-.49a5.93,5.93,0,0,1-.59-.07,3.82,3.82,0,0,1-2.49-1.63,3,3,0,0,1-.49-1.3l0-.24Zm5.25-2.23,0,.05-.72,1.8c-.09.21-.17.43-.26.64a.4.4,0,0,1-.47.23.34.34,0,0,1-.25-.47c.32-.82.65-1.63,1-2.44l0-.05a3.13,3.13,0,0,0-3.58,1.85,2.67,2.67,0,0,0,1.92,3.4,3.17,3.17,0,0,0,3.88-1.62A2.6,2.6,0,0,0,275.84,239Zm7.85,2.74A2.84,2.84,0,0,0,286,244a3.22,3.22,0,0,0,3.48-1.34,2.52,2.52,0,0,0-.61-3.3,3.35,3.35,0,0,0-3-.59l.24.45,1,1.94a.27.27,0,0,1,0,.21.38.38,0,0,1-.4.3h-3Zm-6.84-5.23,4.2,4.25,2.27-4.25Zm7.9,2-.81-1.52L281.77,241h1.12A3.47,3.47,0,0,1,284.75,238.45ZM283.7,241h2.41l-1-1.91A2.75,2.75,0,0,0,283.7,241Z" transform="translate(-117.66 -70.99)"/><path class="cls-19" d="M323.59,98.73" transform="translate(-117.66 -70.99)"/><ellipse class="cls-20" cx="143.21" cy="63.74" rx="49.59" ry="63.74"/><rect class="cls-21" x="233.5" y="110.2" width="23.86" height="14.83" rx="4.43" ry="4.43" transform="translate(373.19 164.24) rotate(180)"/><rect class="cls-22" x="264.58" y="110.2" width="23.86" height="14.83" rx="4.43" ry="4.43" transform="translate(435.36 164.24) rotate(180)"/><ellipse class="cls-23" cx="127.76" cy="46.63" rx="2.37" ry="2.94"/><ellipse class="cls-23" cx="158.85" cy="46.63" rx="2.37" ry="2.94"/><path class="cls-24" d="M211.86,123l21-35.52s38.49,6.71,53,0l22.3,31.32s-6-26.15-20-36.88c-9.84-7.49-12.77-8-13.6-8.47-1.26-.78-2-.5-2.66-.71-4.86-1.54-21-4.27-37.15,7.48C215.27,94.33,211.86,123,211.86,123Z" transform="translate(-117.66 -70.99)"/><path class="cls-25" d="M285.91,87.57l22.08,31s-5.9-25.91-19.84-36.51C286.81,81.05,290,83.65,285.91,87.57Z" transform="translate(-117.66 -70.99)"/><path class="cls-26" d="M309.42,144s-46,62.65-98.77,0c0,0,5.59,52.76,49.59,55.62C260.24,199.62,302.51,201.08,309.42,144Z" transform="translate(-117.66 -70.99)"/><line class="cls-19" x1="130.13" y1="96.85" x2="156.48" y2="96.85"/><path class="cls-27" d="M247.79,167.84a25.13,25.13,0,0,1,6.59-2,39.59,39.59,0,0,1,6.59-.54,38.42,38.42,0,0,1,6.58.53,24.57,24.57,0,0,1,6.59,2,24.91,24.91,0,0,1-6.59,2,38.42,38.42,0,0,1-6.58.53,39.59,39.59,0,0,1-6.59-.54A25.48,25.48,0,0,1,247.79,167.84Z" transform="translate(-117.66 -70.99)"/><line class="cls-19" x1="128.69" y1="96.85" x2="158.18" y2="96.85"/><path class="cls-28" d="M246.35,167.84c2.46-.16,4.92-.23,7.38-.29s4.91-.06,7.37-.09,4.91,0,7.37.09,4.91.13,7.37.29c-2.46.15-4.91.22-7.37.28s-4.92.06-7.37.09-4.92,0-7.37-.09S248.81,168,246.35,167.84Z" transform="translate(-117.66 -70.99)"/><polyline class="cls-29" points="148.84 78.63 143.81 80.17 137.77 78.41 142.74 55.15"/><polyline class="cls-30" points="143.81 80.17 137.77 78.41 142.74 55.15"/><path class="cls-20" d="M263.89,117.44s-2.55-3.35-5.85,0" transform="translate(-117.66 -70.99)"/><path class="cls-31" d="M263.85,117.47a8.58,8.58,0,0,0-2.86-.61,5.1,5.1,0,0,0-1.27.18c-.24,0-.49.14-.76.2a5.9,5.9,0,0,1-.88.23l-.07-.07.62-.57a5.53,5.53,0,0,1,.71-.48,3.49,3.49,0,0,1,1.64-.49,3.9,3.9,0,0,1,2.95,1.55Z" transform="translate(-117.66 -70.99)"/><ellipse class="cls-32" cx="158.85" cy="46.63" rx="1.21" ry="1.5"/><ellipse class="cls-32" cx="127.76" cy="46.63" rx="1.21" ry="1.5"/><path class="cls-33" d="M210.65,144s12.82,39.13,30.44,49.19C241.09,193.19,220.61,190.26,210.65,144Z" transform="translate(-117.66 -70.99)"/></svg>