<svg id="Layer_1" data-name="Layer 1" xmlns="http://www.w3.org/2000/svg" xmlns:xlink="http://www.w3.org/1999/xlink" viewBox="0 0 296.61 417.9"><defs><style>.cls-1{fill:#e4e1c7;}.cls-2{fill:#512e2a;}.cls-3,.cls-4{fill:#9e2b20;}.cls-14,.cls-23,.cls-4,.cls-6{stroke:#231f20;}.cls-14,.cls-15,.cls-16,.cls-17,.cls-21,.cls-22,.cls-23,.cls-32,.cls-4,.cls-6,.cls-8{stroke-miterlimit:10;}.cls-5{fill:#231f20;}.cls-16,.cls-6,.cls-8{fill:none;}.cls-23,.cls-6{stroke-width:0.25px;}.cls-7{fill:#c2b59b;}.cls-8{stroke:#9b8579;}.cls-9{fill:#b1a58e;}.cls-10{fill:#9b8579;}.cls-11{fill:#1e4496;}.cls-12,.cls-17{fill:#234093;}.cls-13{fill:#124b9a;}.cls-14,.cls-15,.cls-20,.cls-21,.cls-22,.cls-23{fill:#fff;}.cls-15{stroke:#f9a560;}.cls-16{stroke:#283c91;}.cls-17{stroke:#262262;stroke-width:0.5px;}.cls-18{fill:#fff200;}.cls-19{fill:#d1d3d4;}.cls-21{stroke:url(#White_Black);}.cls-22{stroke:url(#White_Black-2);}.cls-24{fill:#fde79e;}.cls-25{fill:#fbeac8;}.cls-26{fill:#e5e1c5;}.cls-27{fill:#f9c9de;}.cls-28{fill:#8d536f;}.cls-29{fill:#e3e2db;}.cls-30{fill:#d0cca8;}.cls-31{fill:url(#White_Black-3);}.cls-32{fill:#2e3192;stroke:#00aeef;}.cls-33{fill:#cfcdb4;}</style><linearGradient id="White_Black" x1="265.63" y1="117.61" x2="290.49" y2="117.61" gradientTransform="matrix(1, 0, 0, -1, -32.63, 235.23)" gradientUnits="userSpaceOnUse"><stop offset="0" stop-color="#fff"/><stop offset="1" stop-color="#231f20"/></linearGradient><linearGradient id="White_Black-2" x1="234.55" y1="117.61" x2="259.41" y2="117.61" gradientTransform="matrix(1, 0, 0, -1, 29.53, 235.23)" xlink:href="#White_Black"/><linearGradient id="White_Black-3" x1="264.29" y1="116.67" x2="257.69" y2="116.67" gradientTransform="matrix(1, 0, 0, 1, 0, 0)" xlink:href="#White_Black"/></defs><title>12</title><polyline class="cls-1" points="170.66 334.96 164.05 400.24 156.61 399.87 155.86 334.22"/><polyline class="cls-1" points="124.55 334.96 131.16 400.24 138.59 399.87 139.34 334.22"/><path class="cls-2" d="M230.77,475.18s-20.25,10.71-7.52,12.21l12.73,1.5h16.19s6.73-4.74,6.73-11.59" transform="translate(-112.09 -70.99)"/><path class="cls-2" d="M286.2,475.18s20.24,10.71,7.52,12.21L281,488.89H264.8s-5.9-4.74-5.9-11.59" transform="translate(-112.09 -70.99)"/><path class="cls-3" d="M244.2,470.46s-33.1,10.7-20.38,12.2l12.73,1.49h16.19s6.16,0,6.16-6.85l-7.23-6.23h-.53" transform="translate(-112.09 -70.99)"/><path class="cls-3" d="M266.6,470.13l-7.39,7.17c0,6.85,6.16,6.85,6.16,6.85h16.19l12.73-1.49c12.73-1.5-18.15-12.21-18.15-12.21" transform="translate(-112.09 -70.99)"/><path class="cls-4" d="M259.31,477" transform="translate(-112.09 -70.99)"/><path class="cls-5" d="M270.57,414.52v2.22a3.22,3.22,0,0,1,0,.62,3.21,3.21,0,0,0,0-.62v-2.22a2.57,2.57,0,0,1,0-.62,2.57,2.57,0,0,0,0,.62Z" transform="translate(-112.09 -70.99)"/><path class="cls-5" d="M275.4,418.15v1.21a3.22,3.22,0,0,1,0,.62,3.2,3.2,0,0,0,0-.62v-1.21a3.22,3.22,0,0,1,0-.62,3.2,3.2,0,0,0,0,.62Z" transform="translate(-112.09 -70.99)"/><path class="cls-5" d="M277,422v1.21a2.57,2.57,0,0,1,0,.62,2.57,2.57,0,0,0,0-.62V422a3.33,3.33,0,0,1,0-.63,3.32,3.32,0,0,0,0,.63Z" transform="translate(-112.09 -70.99)"/><path class="cls-5" d="M280,421.78v.2a3.22,3.22,0,0,1,0,.62,3.21,3.21,0,0,0,0-.62v-.2a2.66,2.66,0,0,1,0-.63,2.66,2.66,0,0,0,0,.63Z" transform="translate(-112.09 -70.99)"/><path class="cls-5" d="M274,429.86s0-1.25,0-1.25,0,1.25,0,1.25Z" transform="translate(-112.09 -70.99)"/><path class="cls-5" d="M271.38,422v1.41a3.21,3.21,0,0,1,0,.62,3.21,3.21,0,0,0,0-.62V422a3.33,3.33,0,0,1,0-.63,3.32,3.32,0,0,0,0,.63Z" transform="translate(-112.09 -70.99)"/><path class="cls-5" d="M271.58,431v1.62a2.57,2.57,0,0,1,0,.62,2.57,2.57,0,0,0,0-.62V431a3.21,3.21,0,0,1,0-.62,3.21,3.21,0,0,0,0,.62Z" transform="translate(-112.09 -70.99)"/><path class="cls-5" d="M277.82,434.07v.6a3.33,3.33,0,0,1,0,.63,3.32,3.32,0,0,0,0-.63v-.6a3.33,3.33,0,0,1,0-.63,3.32,3.32,0,0,0,0,.63Z" transform="translate(-112.09 -70.99)"/><path class="cls-5" d="M275.81,436.28v1.62a2.57,2.57,0,0,1,0,.62,2.57,2.57,0,0,0,0-.62v-1.62a3.21,3.21,0,0,1,0-.62,3.21,3.21,0,0,0,0,.62Z" transform="translate(-112.09 -70.99)"/><path class="cls-5" d="M273.19,437.29v1a2.57,2.57,0,0,1,0,.62,2.57,2.57,0,0,0,0-.62v-1a3.22,3.22,0,0,1,0-.62,3.21,3.21,0,0,0,0,.62Z" transform="translate(-112.09 -70.99)"/><path class="cls-5" d="M271.17,437.49v.2a3.33,3.33,0,0,1,0,.63,3.32,3.32,0,0,0,0-.63v-.2a3.22,3.22,0,0,1,0-.62,3.21,3.21,0,0,0,0,.62Z" transform="translate(-112.09 -70.99)"/><path class="cls-5" d="M270.77,441.72v1a3.32,3.32,0,0,1,0,.63,3.31,3.31,0,0,0,0-.63v-1a2.57,2.57,0,0,1,0-.62,2.57,2.57,0,0,0,0,.62Z" transform="translate(-112.09 -70.99)"/><path class="cls-5" d="M276.82,443.34v.6a3.21,3.21,0,0,1,0,.62,3.2,3.2,0,0,0,0-.62v-.6a3.33,3.33,0,0,1,0-.63,3.32,3.32,0,0,0,0,.63Z" transform="translate(-112.09 -70.99)"/><path class="cls-5" d="M274.8,446v.21a3.21,3.21,0,0,1,0,.62,3.21,3.21,0,0,0,0-.62V446a2.57,2.57,0,0,1,0-.62,2.57,2.57,0,0,0,0,.62Z" transform="translate(-112.09 -70.99)"/><path class="cls-5" d="M272,449v1.21a3.21,3.21,0,0,1,0,.62,3.21,3.21,0,0,0,0-.62V449a2.66,2.66,0,0,1,0-.63,2.66,2.66,0,0,0,0,.63Z" transform="translate(-112.09 -70.99)"/><path class="cls-5" d="M276,451.6v.2a3.22,3.22,0,0,1,0,.62,3.21,3.21,0,0,0,0-.62v-.2a2.66,2.66,0,0,1,0-.63,2.66,2.66,0,0,0,0,.63Z" transform="translate(-112.09 -70.99)"/><path class="cls-5" d="M272.59,454.24s0-1.25,0-1.25,0,1.25,0,1.25Z" transform="translate(-112.09 -70.99)"/><path class="cls-5" d="M279.64,412.71v.81a3.21,3.21,0,0,1,0,.62,2.57,2.57,0,0,0,0-.62v-.81a3.22,3.22,0,0,1,0-.62,3.21,3.21,0,0,0,0,.62Z" transform="translate(-112.09 -70.99)"/><path class="cls-5" d="M272,411.1s0-1.25,0-1.25,0,1.25,0,1.25Z" transform="translate(-112.09 -70.99)"/><path class="cls-5" d="M276,409.9v-1.25s0,1.25,0,1.25Z" transform="translate(-112.09 -70.99)"/><path class="cls-5" d="M275.61,410.7v.6a3.21,3.21,0,0,1,0,.62,2.56,2.56,0,0,0,0-.62v-.6a3.33,3.33,0,0,1,0-.63,3.32,3.32,0,0,0,0,.63Z" transform="translate(-112.09 -70.99)"/><path class="cls-5" d="M280.64,408.88v1a3.22,3.22,0,0,1,0,.62,3.2,3.2,0,0,0,0-.62v-1a3.22,3.22,0,0,1,0-.62,3.21,3.21,0,0,0,0,.62Z" transform="translate(-112.09 -70.99)"/><path class="cls-5" d="M244.38,409.27v.4a3.31,3.31,0,0,1,0,.63,2.66,2.66,0,0,0,0-.63v-.4a3.22,3.22,0,0,1,0-.62,3.21,3.21,0,0,0,0,.62Z" transform="translate(-112.09 -70.99)"/><path class="cls-5" d="M248.82,409.31v-1.25s0,1.25,0,1.25Z" transform="translate(-112.09 -70.99)"/><path class="cls-6" d="M281.56,414a2,2,0,0,0,.64,2.18" transform="translate(-112.09 -70.99)"/><path class="cls-6" d="M281.53,411.07a2,2,0,0,1,.7,1.62" transform="translate(-112.09 -70.99)"/><path class="cls-6" d="M277,411.75a1.07,1.07,0,0,1-.55,1.22" transform="translate(-112.09 -70.99)"/><path class="cls-6" d="M271.39,411.94v1.5" transform="translate(-112.09 -70.99)"/><path class="cls-6" d="M268.77,411.19a2.15,2.15,0,0,1-.82,1.44" transform="translate(-112.09 -70.99)"/><path class="cls-6" d="M267.94,409.13a2.32,2.32,0,0,1-.5,1.48" transform="translate(-112.09 -70.99)"/><path class="cls-6" d="M268.58,414.84a3.35,3.35,0,0,0-.86,1.78" transform="translate(-112.09 -70.99)"/><path class="cls-6" d="M269.44,420a2.06,2.06,0,0,1-.49,1.12" transform="translate(-112.09 -70.99)"/><path class="cls-6" d="M272.49,416.26a1.31,1.31,0,0,1-.23,1.23" transform="translate(-112.09 -70.99)"/><path class="cls-6" d="M275.91,415.75a6.64,6.64,0,0,1,1.1.88" transform="translate(-112.09 -70.99)"/><path class="cls-6" d="M278.6,420.28l.48.65" transform="translate(-112.09 -70.99)"/><path class="cls-6" d="M274.48,420v.93" transform="translate(-112.09 -70.99)"/><path class="cls-6" d="M280.6,422.7a1.34,1.34,0,0,1,.24,1.13" transform="translate(-112.09 -70.99)"/><path class="cls-6" d="M279.72,426.09l.86,1.3" transform="translate(-112.09 -70.99)"/><path class="cls-6" d="M273,424.86a2.8,2.8,0,0,1-.91,1.34" transform="translate(-112.09 -70.99)"/><path class="cls-6" d="M269.52,425a1.92,1.92,0,0,1-1,1.71" transform="translate(-112.09 -70.99)"/><path class="cls-6" d="M269.24,431.15a1.72,1.72,0,0,1-.38,1.11" transform="translate(-112.09 -70.99)"/><path class="cls-6" d="M274.86,429.46v1" transform="translate(-112.09 -70.99)"/><path class="cls-6" d="M276.45,429.28a1,1,0,0,1,.75.46" transform="translate(-112.09 -70.99)"/><path class="cls-6" d="M280.1,430.78l.84.47" transform="translate(-112.09 -70.99)"/><path class="cls-6" d="M279.48,432.75a2.32,2.32,0,0,0,.61,2.25" transform="translate(-112.09 -70.99)"/><path class="cls-6" d="M268.61,434.85a2.07,2.07,0,0,1-1.06.27" transform="translate(-112.09 -70.99)"/><path class="cls-5" d="M248.69,415.35v2.21a3.33,3.33,0,0,1,0,.63,3.32,3.32,0,0,0,0-.63v-2.21a3.33,3.33,0,0,1,0-.63,3.32,3.32,0,0,0,0,.63Z" transform="translate(-112.09 -70.99)"/><path class="cls-5" d="M243.86,419v1.21a2.66,2.66,0,0,1,0,.63,2.66,2.66,0,0,0,0-.63V419a3.21,3.21,0,0,1,0-.62,3.21,3.21,0,0,0,0,.62Z" transform="translate(-112.09 -70.99)"/><path class="cls-5" d="M242.25,422.8V424a2.66,2.66,0,0,1,0,.63,2.66,2.66,0,0,0,0-.63V422.8a3.21,3.21,0,0,1,0-.62,3.21,3.21,0,0,0,0,.62Z" transform="translate(-112.09 -70.99)"/><path class="cls-5" d="M239.22,422.6v.2a3.33,3.33,0,0,1,0,.63,3.32,3.32,0,0,0,0-.63v-.2a3.22,3.22,0,0,1,0-.62,3.21,3.21,0,0,0,0,.62Z" transform="translate(-112.09 -70.99)"/><path class="cls-5" d="M245.28,430.68v-1.25s0,1.25,0,1.25Z" transform="translate(-112.09 -70.99)"/><path class="cls-5" d="M247.89,422.8v1.41a2.66,2.66,0,0,1,0,.63,2.66,2.66,0,0,0,0-.63V422.8a3.21,3.21,0,0,1,0-.62,3.21,3.21,0,0,0,0,.62Z" transform="translate(-112.09 -70.99)"/><path class="cls-5" d="M247.69,431.87v1.61a2.66,2.66,0,0,1,0,.63,2.66,2.66,0,0,0,0-.63v-1.61a3.32,3.32,0,0,1,0-.63,3.31,3.31,0,0,0,0,.63Z" transform="translate(-112.09 -70.99)"/><path class="cls-5" d="M241.44,434.89v.61a3.21,3.21,0,0,1,0,.62,3.21,3.21,0,0,0,0-.62v-.61a2.57,2.57,0,0,1,0-.62,2.57,2.57,0,0,0,0,.62Z" transform="translate(-112.09 -70.99)"/><path class="cls-5" d="M243.46,437.11v1.61a3.21,3.21,0,0,1,0,.62,2.56,2.56,0,0,0,0-.62v-1.61a3.33,3.33,0,0,1,0-.63,3.32,3.32,0,0,0,0,.63Z" transform="translate(-112.09 -70.99)"/><path class="cls-5" d="M246.07,438.12v1a3.33,3.33,0,0,1,0,.63,3.32,3.32,0,0,0,0-.63v-1a3.33,3.33,0,0,1,0-.63,3.32,3.32,0,0,0,0,.63Z" transform="translate(-112.09 -70.99)"/><path class="cls-5" d="M248.09,438.32v.2a3.22,3.22,0,0,1,0,.62,3.21,3.21,0,0,0,0-.62v-.2a2.66,2.66,0,0,1,0-.63,2.66,2.66,0,0,0,0,.63Z" transform="translate(-112.09 -70.99)"/><path class="cls-5" d="M248.49,442.55v1a3.21,3.21,0,0,1,0,.62,3.21,3.21,0,0,0,0-.62v-1a3.33,3.33,0,0,1,0-.63,3.32,3.32,0,0,0,0,.63Z" transform="translate(-112.09 -70.99)"/><path class="cls-5" d="M242.45,444.16v.6a2.66,2.66,0,0,1,0,.63,2.66,2.66,0,0,0,0-.63v-.6a3.32,3.32,0,0,1,0-.63,3.32,3.32,0,0,0,0,.63Z" transform="translate(-112.09 -70.99)"/><path class="cls-5" d="M244.46,446.78v.2a3.32,3.32,0,0,1,0,.63,3.32,3.32,0,0,0,0-.63v-.2a3.32,3.32,0,0,1,0-.63,3.32,3.32,0,0,0,0,.63Z" transform="translate(-112.09 -70.99)"/><path class="cls-5" d="M247.28,449.8V451a3.32,3.32,0,0,1,0,.63,3.32,3.32,0,0,0,0-.63V449.8a3.22,3.22,0,0,1,0-.62,3.21,3.21,0,0,0,0,.62Z" transform="translate(-112.09 -70.99)"/><path class="cls-5" d="M243.25,452.42v.2a3.33,3.33,0,0,1,0,.63,3.32,3.32,0,0,0,0-.63v-.2a3.22,3.22,0,0,1,0-.62,3.2,3.2,0,0,0,0,.62Z" transform="translate(-112.09 -70.99)"/><path class="cls-5" d="M246.69,455.06s0-1.25,0-1.25,0,1.25,0,1.25Z" transform="translate(-112.09 -70.99)"/><path class="cls-5" d="M239.63,413.53v.81a2.66,2.66,0,0,1,0,.63,2.66,2.66,0,0,0,0-.63v-.81a3.21,3.21,0,0,1,0-.62,3.21,3.21,0,0,0,0,.62Z" transform="translate(-112.09 -70.99)"/><path class="cls-5" d="M247.29,409.93s0-1.25,0-1.25,0,1.25,0,1.25Z" transform="translate(-112.09 -70.99)"/><path class="cls-5" d="M243.26,410.72s0-1.25,0-1.25,0,1.25,0,1.25Z" transform="translate(-112.09 -70.99)"/><path class="cls-5" d="M243.66,411.52v.6a2.66,2.66,0,0,1,0,.63,2.66,2.66,0,0,0,0-.63v-.6a3.32,3.32,0,0,1,0-.63,3.32,3.32,0,0,0,0,.63Z" transform="translate(-112.09 -70.99)"/><path class="cls-5" d="M238.62,409.71v1a3.33,3.33,0,0,1,0,.63,3.31,3.31,0,0,0,0-.63v-1a2.66,2.66,0,0,1,0-.63,2.66,2.66,0,0,0,0,.63Z" transform="translate(-112.09 -70.99)"/><path class="cls-6" d="M237.72,414.84a2,2,0,0,1-.64,2.19" transform="translate(-112.09 -70.99)"/><path class="cls-6" d="M237.74,411.89a2,2,0,0,0-.7,1.62" transform="translate(-112.09 -70.99)"/><path class="cls-6" d="M242.28,412.58a1.07,1.07,0,0,0,.54,1.22" transform="translate(-112.09 -70.99)"/><path class="cls-6" d="M247.88,412.76v1.5" transform="translate(-112.09 -70.99)"/><path class="cls-6" d="M250.5,412a2.14,2.14,0,0,0,.82,1.44" transform="translate(-112.09 -70.99)"/><path class="cls-6" d="M251.34,410a2.3,2.3,0,0,0,.49,1.49" transform="translate(-112.09 -70.99)"/><path class="cls-6" d="M250.7,415.66a3.26,3.26,0,0,1,.85,1.78" transform="translate(-112.09 -70.99)"/><path class="cls-6" d="M249.84,420.82a2,2,0,0,0,.49,1.12" transform="translate(-112.09 -70.99)"/><path class="cls-6" d="M246.78,417.08a1.33,1.33,0,0,0,.24,1.23" transform="translate(-112.09 -70.99)"/><path class="cls-6" d="M243.37,416.57a6.74,6.74,0,0,0-1.1.88" transform="translate(-112.09 -70.99)"/><path class="cls-6" d="M240.68,421.11l-.48.64" transform="translate(-112.09 -70.99)"/><path class="cls-6" d="M244.79,420.82v.94" transform="translate(-112.09 -70.99)"/><path class="cls-6" d="M238.68,423.52a1.37,1.37,0,0,0-.25,1.14" transform="translate(-112.09 -70.99)"/><path class="cls-6" d="M239.55,426.91l-.85,1.31" transform="translate(-112.09 -70.99)"/><path class="cls-6" d="M246.3,425.69a2.87,2.87,0,0,0,.91,1.33" transform="translate(-112.09 -70.99)"/><path class="cls-6" d="M249.75,425.79a1.92,1.92,0,0,0,1,1.71" transform="translate(-112.09 -70.99)"/><path class="cls-6" d="M250,432a1.7,1.7,0,0,0,.39,1.12" transform="translate(-112.09 -70.99)"/><path class="cls-6" d="M244.42,430.28v1" transform="translate(-112.09 -70.99)"/><path class="cls-6" d="M242.83,430.1a1.06,1.06,0,0,0-.76.46" transform="translate(-112.09 -70.99)"/><path class="cls-6" d="M239.18,431.61l-.85.46" transform="translate(-112.09 -70.99)"/><path class="cls-6" d="M239.79,433.57a2.33,2.33,0,0,1-.6,2.26" transform="translate(-112.09 -70.99)"/><path class="cls-6" d="M250.67,435.67a2,2,0,0,0,1.05.27" transform="translate(-112.09 -70.99)"/><polygon class="cls-7" points="118.41 336.55 179.53 336.55 196.39 271.16 101.55 271.16 118.41 336.55"/><line class="cls-8" x1="148.47" y1="283.69" x2="148.47" y2="336.55"/><path class="cls-9" d="M222.77,354l13.13,53.16h-5.72l-15.43-61S221.14,352.69,222.77,354Z" transform="translate(-112.09 -70.99)"/><path class="cls-9" d="M287.42,379.87l4.12,3.08,7.76-5.21L302,376l-1.37-3.24s-8.69,7.63-13.18,7.16l-2,15.94s8.32-.17,10.46-4.74l3.3-12.8" transform="translate(-112.09 -70.99)"/><path class="cls-10" d="M287.42,379.87l4.16,3h-.08c3.44-2.39,6.91-4.73,10.38-7.08l-.06.19-1.38-3.23.27.06a51.79,51.79,0,0,1-6.13,4.59,25,25,0,0,1-3.38,1.83,8.1,8.1,0,0,1-3.81.85l.27-.21c-.65,5.31-1.38,10.62-2.06,15.93l-.2-.21a22.56,22.56,0,0,0,3-.33,16.59,16.59,0,0,0,2.87-.75,9.83,9.83,0,0,0,2.62-1.34,6.17,6.17,0,0,0,1.9-2.19v0c1.1-4.27,2.3-8.52,3.44-12.77-1.06,4.28-2.07,8.57-3.17,12.84h0a6.5,6.5,0,0,1-2,2.32,10.6,10.6,0,0,1-2.69,1.4,16.26,16.26,0,0,1-2.91.79,20.27,20.27,0,0,1-3,.36h-.22l0-.23c.65-5.31,1.27-10.63,2-15.94l0-.23.23,0a7.7,7.7,0,0,0,3.58-.78,25.53,25.53,0,0,0,3.35-1.77,52.61,52.61,0,0,0,6.12-4.5l.18-.16.09.22,1.35,3.25.06.12-.11.07c-3.49,2.32-7,4.65-10.49,6.92l0,0,0,0Z" transform="translate(-112.09 -70.99)"/><path class="cls-9" d="M234.84,379.87,230.73,383,223,377.74,220.29,376l1.37-3.24s8.69,7.63,13.18,7.16l2,15.94s-8.32-.17-10.46-4.74l-3.3-12.8" transform="translate(-112.09 -70.99)"/><path class="cls-10" d="M234.84,379.87,230.76,383l0,0,0,0c-3.51-2.27-7-4.6-10.48-6.92l-.11-.07.05-.12,1.35-3.25.09-.22.19.16a51.77,51.77,0,0,0,6.12,4.5,25.41,25.41,0,0,0,3.34,1.77,7.7,7.7,0,0,0,3.58.78l.23,0,0,.23c.69,5.31,1.31,10.63,2,15.94l0,.23h-.23a20.14,20.14,0,0,1-3-.36,16.59,16.59,0,0,1-2.92-.79,10.6,10.6,0,0,1-2.69-1.4,6.6,6.6,0,0,1-2-2.32h0c-1.1-4.27-2.11-8.56-3.16-12.84,1.14,4.25,2.33,8.5,3.43,12.77v0a6.26,6.26,0,0,0,1.9,2.19,10,10,0,0,0,2.62,1.34,16.83,16.83,0,0,0,2.87.75,22.76,22.76,0,0,0,3,.33l-.19.21c-.69-5.31-1.41-10.62-2.06-15.93l.26.21a8.12,8.12,0,0,1-3.81-.85,25.64,25.64,0,0,1-3.38-1.83,51.79,51.79,0,0,1-6.13-4.59l.27-.06L220.44,376l-.06-.19c3.47,2.35,6.94,4.69,10.38,7.08h-.07Z" transform="translate(-112.09 -70.99)"/><path class="cls-9" d="M261.06,369.14a52.19,52.19,0,0,0,7.2-.5l-.86,38.89h-6.34Z" transform="translate(-112.09 -70.99)"/><path class="cls-11" d="M315.56,159.22s152.56,19.42,67.19,177.92l-22.68-10.62" transform="translate(-112.09 -70.99)"/><path class="cls-12" d="M205.24,159.22S52.68,178.64,138.05,337.14l22.68-10.62" transform="translate(-112.09 -70.99)"/><ellipse class="cls-13" cx="148.85" cy="196.11" rx="113.7" ry="123.25"/><path class="cls-14" d="M197.69,350.53" transform="translate(-112.09 -70.99)"/><path class="cls-15" d="M141.55,335.73s7,11.31,26.86,7.6l1.84-1,.39-.36s-9.38-14-9.76-16.33" transform="translate(-112.09 -70.99)"/><path class="cls-15" d="M380.67,336.94s-7,11.31-26.86,7.6l-1.84-1-.39-.37s9.38-14,9.76-16.32" transform="translate(-112.09 -70.99)"/><polyline class="cls-16" points="149.51 317.92 149.51 108.84 165.91 122.26 197.16 95.12"/><path class="cls-17" d="M184.68,224.45s-12.16,23.31-7,33.41l13.82,7.38,16.84-5.05,7.75-33.41" transform="translate(-112.09 -70.99)"/><polyline class="cls-16" points="147.19 317.92 147.19 108.84 130.79 122.26 99.54 95.12"/><path class="cls-18" d="M205.42,190.31l.09-.21a3.24,3.24,0,0,1,.93-1.23,4.54,4.54,0,0,1,4.65-.64.05.05,0,0,0,.08,0l2.45-3.2a1.31,1.31,0,0,1,1.17-.5l.15,0,1.36.27h0l-.19.68-.07,0-1.27-.25a.45.45,0,0,0-.52.17l-.73,1,0,0h.06l6.54,1.33a.08.08,0,0,0,.09,0c.16-.17.32-.35.49-.52l0-.05h-.06l-1.11-.22a.37.37,0,0,1-.31-.29.34.34,0,0,1,.2-.36.42.42,0,0,1,.31,0l3,.6h.05l-.19.68h-.05l-.89-.18a.08.08,0,0,0-.08,0c-.26.29-.52.56-.79.85a.11.11,0,0,0,0,.05c.18.72.36,1.43.53,2.14v0l.39,0a4.75,4.75,0,0,1,1.36.19,3.89,3.89,0,0,1,2.19,1.57,2.84,2.84,0,0,1,.51,1.83,3.34,3.34,0,0,1-2.05,2.85,4.42,4.42,0,0,1-2.28.43l-.37,0h0l-.43-.09h-.06l-.62-.22a3.72,3.72,0,0,1-1.81-1.59,3,3,0,0,1-.38-1.78l0-.2h-.07L216,193a.55.55,0,0,1-.34-.23l-.49-.8-1.31-2.11L212.76,188l-.22-.34-.73,1h0l.05,0a3.17,3.17,0,0,1,1.43,3,2.81,2.81,0,0,1-.4,1.17,3.9,3.9,0,0,1-2.36,1.74,4.62,4.62,0,0,1-1.7.14l-.26,0-.45-.09,0,0c-.2-.07-.4-.12-.58-.2a3.63,3.63,0,0,1-2.09-2.1,2.89,2.89,0,0,1-.14-1.37l0-.23Zm5.93-1.08,0,0-1.22,1.6-.44.57a.44.44,0,0,1-.54.12.32.32,0,0,1-.12-.51l1.65-2.16,0,0a3.5,3.5,0,0,0-4.12,1.06,2.5,2.5,0,0,0,1,3.7,3.56,3.56,0,0,0,4.38-.77A2.44,2.44,0,0,0,211.35,189.23Zm7.22,4.28a2.63,2.63,0,0,0,1.66,2.74,3.6,3.6,0,0,0,3.89-.59,2.41,2.41,0,0,0,.28-3.33,3.37,3.37,0,0,0-2.9-1.2l.12.49c.18.7.35,1.39.52,2.09a.28.28,0,0,1,0,.22.41.41,0,0,1-.49.2l-3-.61Zm-5.52-6.5,3.1,5,3.46-3.67Zm7.48,3.55-.41-1.65-3.31,3.51,1.14.23A3.83,3.83,0,0,1,220.53,190.56Zm-1.76,2.26,2.44.5-.51-2.06A3,3,0,0,0,218.77,192.82Z" transform="translate(-112.09 -70.99)"/><path class="cls-18" d="M212.07,214.57l0-.23a3,3,0,0,1,.57-1.38,4,4,0,0,1,2.54-1.55,4.6,4.6,0,0,1,1.81,0s.06,0,.07,0c.51-1.19,1-2.39,1.52-3.59a1.21,1.21,0,0,1,1-.72h1.58v.7h-1.37a.43.43,0,0,0-.46.28l-.45,1.07a.17.17,0,0,1,0,.05h6.79a.08.08,0,0,0,.08,0l.33-.61,0-.05h-1.2a.41.41,0,0,1-.38-.22.33.33,0,0,1,.1-.39.48.48,0,0,1,.29-.09H228v.7h-1a.07.07,0,0,0-.07,0l-.54,1a.06.06,0,0,0,0,.06l1.09,2,0,0,.38-.09a4.5,4.5,0,0,1,1.37-.09,4.27,4.27,0,0,1,2.56,1.1,3.1,3.1,0,0,1-.23,4.85,4.17,4.17,0,0,1-2.1.88l-.36,0h-.56c-.22,0-.44,0-.66-.09a4.12,4.12,0,0,1-2.2-1.18,3.2,3.2,0,0,1-.85-1.66l0-.2h-1.75a.48.48,0,0,1-.39-.14l-.7-.68-1.85-1.8-1.62-1.57c-.09-.1-.19-.19-.3-.29l-.45,1.07h0l0,0a3.47,3.47,0,0,1,2.22,2.64,2.75,2.75,0,0,1-.07,1.21,3.44,3.44,0,0,1-1.83,2.16,4.19,4.19,0,0,1-1.61.48l-.26,0h-.51c-.2,0-.41,0-.62-.08a4,4,0,0,1-2.59-1.62,3.09,3.09,0,0,1-.52-1.31l0-.23Zm5.47-2.23s0,0,0,0l-.75,1.79-.27.65a.43.43,0,0,1-.5.22.34.34,0,0,1-.26-.47l1-2.43s0,0,0-.05a3.29,3.29,0,0,0-3.72,1.85,2.64,2.64,0,0,0,2,3.39,3.36,3.36,0,0,0,4-1.61A2.57,2.57,0,0,0,217.54,212.34Zm8.19,2.73a2.89,2.89,0,0,0,2.36,2.34,3.42,3.42,0,0,0,3.63-1.34,2.45,2.45,0,0,0-.63-3.3,3.58,3.58,0,0,0-3.15-.59l.25.45,1.08,1.93a.41.41,0,0,1,0,.22.4.4,0,0,1-.43.29h-3.15Zm-7.13-5.22L223,214.1l2.36-4.25Zm8.24,2L226,210.3l-2.26,4.06h1.17A3.47,3.47,0,0,1,226.84,211.81Zm-1.1,2.55h2.51l-1.05-1.9A2.79,2.79,0,0,0,225.74,214.36Z" transform="translate(-112.09 -70.99)"/><path class="cls-18" d="M224.11,238.87l0-.23a3,3,0,0,1,.57-1.38,4,4,0,0,1,2.53-1.55,4.59,4.59,0,0,1,1.81,0s.06,0,.08,0c.5-1.2,1-2.39,1.51-3.59a1.21,1.21,0,0,1,1-.72l.15,0h1.44v.7h-1.37a.42.42,0,0,0-.46.28L231,233.4s0,0,0,0h6.79s.06,0,.07,0l.34-.6,0-.05H237a.41.41,0,0,1-.38-.22.33.33,0,0,1,.1-.39.51.51,0,0,1,.3-.09h3.1v.7h-1s-.06,0-.07,0c-.18.32-.37.65-.54,1,0,0,0,.05,0,.06.37.66.73,1.32,1.1,2l0,0,.37-.09a4.55,4.55,0,0,1,1.38-.09,4.24,4.24,0,0,1,2.55,1.1,3.08,3.08,0,0,1-.23,4.85,4.09,4.09,0,0,1-2.09.87l-.37,0h-.55c-.22,0-.45,0-.67-.09a4.09,4.09,0,0,1-2.19-1.18,3.21,3.21,0,0,1-.86-1.66l0-.2h-1.75a.51.51,0,0,1-.39-.15l-.7-.67-1.84-1.8-1.62-1.57-.3-.29-.45,1.06h0l.05,0a3.44,3.44,0,0,1,2.21,2.64,2.75,2.75,0,0,1-.06,1.21,3.5,3.5,0,0,1-1.83,2.16,4.19,4.19,0,0,1-1.61.48l-.26,0h-.51c-.21,0-.42,0-.62-.08a4,4,0,0,1-2.6-1.63,2.86,2.86,0,0,1-.51-1.3l0-.23Zm5.47-2.23s0,0,0,.05c-.25.6-.51,1.19-.76,1.79l-.27.65a.41.41,0,0,1-.49.22.33.33,0,0,1-.26-.47l1-2.43,0,0a3.31,3.31,0,0,0-3.73,1.85,2.65,2.65,0,0,0,2,3.39,3.38,3.38,0,0,0,4-1.61A2.57,2.57,0,0,0,229.58,236.64Zm8.19,2.73a2.88,2.88,0,0,0,2.36,2.34,3.45,3.45,0,0,0,3.63-1.34,2.45,2.45,0,0,0-.64-3.3,3.53,3.53,0,0,0-3.14-.59c.08.15.16.3.25.45l1.07,1.93a.29.29,0,0,1,0,.22.39.39,0,0,1-.42.29h-3.15Zm-7.14-5.23L235,238.4l2.37-4.26Zm8.24,2L238,234.6l-2.26,4.06h1.17A3.52,3.52,0,0,1,238.87,236.11Zm-1.09,2.55h2.51l-1.06-1.9A2.75,2.75,0,0,0,237.78,238.66Z" transform="translate(-112.09 -70.99)"/><path class="cls-18" d="M228.6,269l0-.22a3,3,0,0,1,.57-1.38,4,4,0,0,1,2.53-1.55,4.46,4.46,0,0,1,1.82,0,.07.07,0,0,0,.07,0l1.51-3.6a1.21,1.21,0,0,1,1-.72h1.59v.7h-1.37a.42.42,0,0,0-.46.27l-.45,1.07,0,.05h6.79s.06,0,.07,0l.34-.6,0-.05h-1.21a.41.41,0,0,1-.38-.22.32.32,0,0,1,.11-.39.42.42,0,0,1,.29-.09h3.1v.7h-1s-.06,0-.07,0l-.54,1a.13.13,0,0,0,0,.06l1.1,2,0,0,.37-.09a4.55,4.55,0,0,1,1.38-.09,4.29,4.29,0,0,1,2.56,1.09,3.18,3.18,0,0,1,1,1.68,3.09,3.09,0,0,1-1.23,3.18,4.09,4.09,0,0,1-2.09.87l-.37,0h-.55c-.22,0-.45-.05-.67-.09a4,4,0,0,1-2.19-1.19,3.09,3.09,0,0,1-.85-1.66,1.06,1.06,0,0,1,0-.19h-1.75a.54.54,0,0,1-.39-.15l-.7-.68-1.84-1.79-1.62-1.58-.3-.29-.45,1.07h0l0,0a3.47,3.47,0,0,1,2.21,2.64,2.65,2.65,0,0,1-.06,1.22,3.53,3.53,0,0,1-1.83,2.16,4.37,4.37,0,0,1-1.61.48l-.26,0h-.51c-.21,0-.42,0-.62-.08a4,4,0,0,1-2.6-1.63,3,3,0,0,1-.51-1.3l0-.23Zm5.47-2.22a.08.08,0,0,0,0,0c-.25.6-.5,1.2-.76,1.8l-.27.64a.41.41,0,0,1-.49.23.33.33,0,0,1-.26-.47l1-2.43s0,0,0-.05a3.3,3.3,0,0,0-3.73,1.84,2.66,2.66,0,0,0,2,3.4,3.38,3.38,0,0,0,4-1.61A2.57,2.57,0,0,0,234.07,266.81Zm8.19,2.73a2.86,2.86,0,0,0,2.36,2.33,3.44,3.44,0,0,0,3.63-1.33,2.46,2.46,0,0,0-.63-3.3,3.55,3.55,0,0,0-3.15-.59c.08.15.16.3.25.44.35.65.71,1.29,1.07,1.94a.27.27,0,0,1,0,.21.39.39,0,0,1-.42.3h-3.15Zm-7.13-5.23,4.37,4.25,2.37-4.25Zm8.23,2-.85-1.52-2.25,4.07h1.16A3.5,3.5,0,0,1,243.36,266.28Zm-1.09,2.55h2.51l-1.06-1.9A2.77,2.77,0,0,0,242.27,268.83Z" transform="translate(-112.09 -70.99)"/><path class="cls-18" d="M228.6,300.64l0-.22a3,3,0,0,1,.57-1.39,4,4,0,0,1,2.53-1.55,4.65,4.65,0,0,1,1.82,0s0,0,.07,0l1.51-3.6a1.21,1.21,0,0,1,1-.72h1.59v.69h-1.37a.42.42,0,0,0-.46.28l-.45,1.07s0,0,0,.05h6.79s.06,0,.07,0l.34-.6,0-.06h-1.21a.41.41,0,0,1-.38-.22.32.32,0,0,1,.11-.39.48.48,0,0,1,.29-.09h3.1v.7h-1s-.06,0-.07,0l-.54,1a.15.15,0,0,0,0,.06c.37.66.73,1.32,1.1,2l0,0,.37-.09a4.58,4.58,0,0,1,3.94,1,3.18,3.18,0,0,1,1,1.68,3.07,3.07,0,0,1-1.23,3.17,4.1,4.1,0,0,1-2.09.88l-.37,0h-.55c-.22,0-.45,0-.67-.09A4.09,4.09,0,0,1,242.3,303a3.12,3.12,0,0,1-.85-1.66,1.29,1.29,0,0,1,0-.19h-1.75a.54.54,0,0,1-.39-.15c-.23-.23-.46-.46-.7-.68l-1.84-1.8L235.11,297l-.3-.29-.45,1.07h0l0,0a3.45,3.45,0,0,1,2.21,2.64,2.61,2.61,0,0,1-.06,1.21,3.52,3.52,0,0,1-1.83,2.17,4.18,4.18,0,0,1-1.61.47l-.26,0h-.51a4.2,4.2,0,0,1-.62-.08,4,4,0,0,1-2.6-1.62,3.07,3.07,0,0,1-.51-1.31l0-.23Zm5.47-2.23s0,0,0,0c-.25.6-.5,1.2-.76,1.8l-.27.64a.41.41,0,0,1-.49.22.33.33,0,0,1-.26-.47l1-2.43,0-.05a3.31,3.31,0,0,0-3.73,1.85,2.67,2.67,0,0,0,2,3.4,3.38,3.38,0,0,0,4-1.62A2.57,2.57,0,0,0,234.07,298.41Zm8.19,2.74a2.88,2.88,0,0,0,2.36,2.33,3.43,3.43,0,0,0,3.63-1.34,2.46,2.46,0,0,0-.63-3.3,3.58,3.58,0,0,0-3.15-.59c.08.15.16.3.25.45l1.07,1.93a.29.29,0,0,1,0,.22.39.39,0,0,1-.42.29h-3.15Zm-7.13-5.23,4.37,4.25,2.37-4.25Zm8.23,2-.85-1.51-2.25,4.06h1.16A3.52,3.52,0,0,1,243.36,297.88Zm-1.09,2.55h2.51l-1.06-1.9A2.77,2.77,0,0,0,242.27,300.43Z" transform="translate(-112.09 -70.99)"/><path class="cls-18" d="M228.6,323.78l0-.22a3.07,3.07,0,0,1,.57-1.39,4,4,0,0,1,2.53-1.54,4.46,4.46,0,0,1,1.82,0s0,0,.07,0l1.51-3.6a1.21,1.21,0,0,1,1-.72h1.59v.7h-1.37a.42.42,0,0,0-.46.27l-.45,1.07,0,.05h6.79s.06,0,.07,0l.34-.6,0-.06h-1.21a.4.4,0,0,1-.38-.22.31.31,0,0,1,.11-.38.43.43,0,0,1,.29-.1h3.1v.7h-1s-.06,0-.07,0l-.54,1s0,0,0,.06c.37.65.73,1.31,1.1,2l0,0,.37-.1a4.89,4.89,0,0,1,1.38-.08,4.29,4.29,0,0,1,2.56,1.09,3.18,3.18,0,0,1,1,1.68,3.09,3.09,0,0,1-1.23,3.18,4.09,4.09,0,0,1-2.09.87l-.37,0h-.55c-.22,0-.45-.05-.67-.09a4,4,0,0,1-2.19-1.19,3.09,3.09,0,0,1-.85-1.66,1.29,1.29,0,0,1,0-.19h-1.75a.54.54,0,0,1-.39-.15l-.7-.68-1.84-1.8-1.62-1.57-.3-.29-.45,1.07h0l0,0a3.45,3.45,0,0,1,2.21,2.64,2.65,2.65,0,0,1-.06,1.22,3.53,3.53,0,0,1-1.83,2.16,4.37,4.37,0,0,1-1.61.48l-.26,0h-.51c-.21,0-.42,0-.62-.08a4,4,0,0,1-2.6-1.63,3,3,0,0,1-.51-1.3l0-.24Zm5.47-2.23a.17.17,0,0,0,0,.05c-.25.6-.5,1.2-.76,1.8L233,324a.41.41,0,0,1-.49.23.33.33,0,0,1-.26-.47l1-2.44s0,0,0-.05a3.32,3.32,0,0,0-3.73,1.85,2.66,2.66,0,0,0,2,3.4,3.37,3.37,0,0,0,4-1.62A2.57,2.57,0,0,0,234.07,321.55Zm8.19,2.74a2.87,2.87,0,0,0,2.36,2.33,3.43,3.43,0,0,0,3.63-1.34,2.46,2.46,0,0,0-.63-3.3,3.61,3.61,0,0,0-3.15-.59c.08.15.16.3.25.45.35.65.71,1.29,1.07,1.94a.27.27,0,0,1,0,.21.4.4,0,0,1-.42.3h-3.15Zm-7.13-5.23,4.37,4.25,2.37-4.25Zm8.23,2-.85-1.52-2.25,4.07h1.16A3.5,3.5,0,0,1,243.36,321Zm-1.09,2.55h2.51l-1.06-1.91A2.77,2.77,0,0,0,242.27,323.58Z" transform="translate(-112.09 -70.99)"/><path class="cls-18" d="M228.06,354.49l0-.22a3,3,0,0,1,.57-1.38,4,4,0,0,1,2.54-1.55,4.42,4.42,0,0,1,1.81,0s.06,0,.07,0l1.52-3.6a1.2,1.2,0,0,1,1-.72h1.59v.7h-1.37a.43.43,0,0,0-.46.27L234.9,349s0,0,0,.05h6.79a.08.08,0,0,0,.08,0l.33-.6,0-.05h-1.2a.4.4,0,0,1-.38-.22.3.3,0,0,1,.1-.39.42.42,0,0,1,.29-.09H244v.7h-1a.08.08,0,0,0-.07,0l-.54,1a.06.06,0,0,0,0,.06l1.09,2,0,0,.37-.09a4.57,4.57,0,0,1,1.38-.09,4.26,4.26,0,0,1,2.56,1.09,3.11,3.11,0,0,1-.23,4.86,4.16,4.16,0,0,1-2.1.87l-.36,0h-.56c-.22,0-.45-.05-.66-.09a4.06,4.06,0,0,1-2.2-1.19,3.16,3.16,0,0,1-.85-1.66l0-.19h-1.75a.53.53,0,0,1-.39-.15l-.7-.68-1.85-1.79-1.62-1.58-.3-.29-.45,1.07h0l0,0a3.5,3.5,0,0,1,2.22,2.64,2.79,2.79,0,0,1-.07,1.22,3.49,3.49,0,0,1-1.83,2.16,4.37,4.37,0,0,1-1.61.48l-.26,0h-.51c-.21,0-.41,0-.62-.08a4,4,0,0,1-2.59-1.63,3,3,0,0,1-.52-1.3l0-.23Zm5.47-2.22s0,0,0,0l-.75,1.8-.27.64a.43.43,0,0,1-.5.23.34.34,0,0,1-.26-.47l1-2.43a.17.17,0,0,0,0-.05,3.28,3.28,0,0,0-3.72,1.84,2.65,2.65,0,0,0,2,3.4,3.37,3.37,0,0,0,4.05-1.61A2.57,2.57,0,0,0,233.53,352.27Zm8.19,2.73a2.87,2.87,0,0,0,2.36,2.33,3.44,3.44,0,0,0,3.63-1.33,2.45,2.45,0,0,0-.63-3.3,3.55,3.55,0,0,0-3.15-.59l.25.44c.36.65.72,1.29,1.07,1.94a.33.33,0,0,1,.05.21.4.4,0,0,1-.43.3h-3.15Zm-7.13-5.23L239,354l2.36-4.26Zm8.24,2-.85-1.52-2.26,4.07h1.16A3.49,3.49,0,0,1,242.83,351.74Zm-1.1,2.55h2.51l-1.06-1.9A2.77,2.77,0,0,0,241.73,354.29Z" transform="translate(-112.09 -70.99)"/><path class="cls-18" d="M213.82,376.57a2,2,0,0,1-.1-.21,3,3,0,0,1-.24-1.46,3.26,3.26,0,0,1,1.42-2.36,4.11,4.11,0,0,1,1.61-.71c.05,0,.06,0,.05-.06-.2-1.26-.4-2.52-.59-3.79a1,1,0,0,1,.5-1l.12-.07,1.24-.55h0l.37.62-.06,0-1.15.51a.35.35,0,0,0-.26.42c.06.38.11.75.17,1.13a.07.07,0,0,1,0,.05l.06,0,6-2.63s.05,0,.05-.07l0-.66v-.06l-.06,0-1,.45a.45.45,0,0,1-.46-.05.32.32,0,0,1-.12-.38.41.41,0,0,1,.21-.2l2.71-1.19,0,0,.38.63,0,0-.81.35a.07.07,0,0,0,0,.07c0,.35,0,.71,0,1.07a.08.08,0,0,0,0,.06l2,1.32,0,0,.28-.23a4,4,0,0,1,1.18-.62,4.66,4.66,0,0,1,2.86,0,3.9,3.9,0,0,1,1.79,1.11,3,3,0,0,1,.62,3.3,3.37,3.37,0,0,1-1.39,1.59l-.31.18,0,0-.4.18h-.05c-.21.06-.42.14-.64.19a4.58,4.58,0,0,1-2.59-.2,3.89,3.89,0,0,1-1.65-1.14l-.13-.16-.06,0-1.5.66a.55.55,0,0,1-.42,0l-1-.33-2.61-.87-2.28-.76-.42-.14.17,1.12h.07a4.22,4.22,0,0,1,3.39,1.47,3.17,3.17,0,0,1,.6,1.11A3,3,0,0,1,221,377a3.71,3.71,0,0,1-1.17,1.05l-.22.13-.41.18h0c-.2.06-.39.13-.59.17a4.59,4.59,0,0,1-3.18-.42,3.64,3.64,0,0,1-1.16-1l-.15-.19Zm3.65-4.13a.13.13,0,0,1,0,.06l.3,1.89c0,.22.07.45.11.67a.37.37,0,0,1-.32.4.41.41,0,0,1-.49-.32c-.13-.85-.27-1.71-.4-2.56,0,0,0,0,0-.05a2.74,2.74,0,0,0-2.31,3.1,3.17,3.17,0,0,0,3.6,2.24,2.84,2.84,0,0,0,2.72-3A3.05,3.05,0,0,0,217.47,372.44Zm8.75-.78a3.43,3.43,0,0,0,3.35,1.15,2.88,2.88,0,0,0,2.51-2.61,2.83,2.83,0,0,0-2.34-2.68,3.5,3.5,0,0,0-3.12.71l.47.3,2,1.29a.4.4,0,0,1,.16.18.34.34,0,0,1-.22.43l-2.74,1.2Zm-9.15-1.85,6.18,2.07-.19-4.71Zm8.37-1.48-1.57-1,.19,4.5,1-.46A3.07,3.07,0,0,1,225.44,368.33Zm.41,2.7,2.23-1-2-1.27A2.38,2.38,0,0,0,225.85,371Z" transform="translate(-112.09 -70.99)"/><path class="cls-18" d="M187.12,354.94l-.06-.22a2.93,2.93,0,0,1,0-1.47,3.49,3.49,0,0,1,1.81-2.16,4.39,4.39,0,0,1,1.72-.5c.05,0,.06,0,.06,0l.06-3.82a1.06,1.06,0,0,1,.67-1l.14-.05,1.32-.39h0l.27.66-.07,0-1.23.36c-.23.07-.33.18-.33.39,0,.38,0,.75,0,1.13v.05h.06l6.36-1.86A.07.07,0,0,0,198,346l.09-.66v-.06l-.06,0-1.07.31a.45.45,0,0,1-.45-.1.32.32,0,0,1-.05-.4.48.48,0,0,1,.24-.17l2.89-.84h0l.27.66h-.06L199,345s0,0,0,.05c-.05.36-.1.72-.14,1.07,0,0,0,.05,0,.06l1.78,1.56,0,0,.32-.19a4.19,4.19,0,0,1,1.27-.46,4.61,4.61,0,0,1,2.84.33,3.58,3.58,0,0,1,1.57,1.32,2.94,2.94,0,0,1,0,3.34,3.57,3.57,0,0,1-1.65,1.4l-.33.14-.05,0-.42.12h-.06c-.22,0-.44.08-.66.1a4.57,4.57,0,0,1-2.53-.51,3.63,3.63,0,0,1-1.43-1.34l-.11-.17h-.06l-1.59.47a.58.58,0,0,1-.43,0l-.92-.45L194,350.69l-2.13-1-.39-.19,0,1.13h.07a4,4,0,0,1,3.1,1.89,2.8,2.8,0,0,1,.39,1.17,3,3,0,0,1-.9,2.55,4.05,4.05,0,0,1-1.34.9l-.24.09-.44.13h0a6,6,0,0,1-.61.09,4.46,4.46,0,0,1-3.08-.82,3.5,3.5,0,0,1-1-1.09,2.12,2.12,0,0,1-.11-.21Zm4.33-3.62s0,0,0,.05l0,1.91c0,.23,0,.45,0,.68a.37.37,0,0,1-.38.35.38.38,0,0,1-.43-.37c0-.86,0-1.72,0-2.59v-.05a2.92,2.92,0,0,0-2.83,2.78,3.26,3.26,0,0,0,6.4,0A2.89,2.89,0,0,0,191.45,351.32Zm8.78.32a3.29,3.29,0,0,0,3.12,1.56,3.06,3.06,0,0,0,2.93-2.27,2.69,2.69,0,0,0-1.86-2.95,3.61,3.61,0,0,0-3.2.31l.41.36,1.75,1.53a.36.36,0,0,1,.12.19.35.35,0,0,1-.29.4l-2.91.85Zm-8.73-3,5.76,2.81.62-4.68Zm8.54-.42-1.38-1.2-.59,4.47,1.1-.32A3.09,3.09,0,0,1,200,348.25ZM200,351l2.38-.7-1.73-1.5A2.46,2.46,0,0,0,200,351Z" transform="translate(-112.09 -70.99)"/><path class="cls-18" d="M183.16,325.23l-.06-.22a2.82,2.82,0,0,1,0-1.47,3.41,3.41,0,0,1,1.8-2.16,4.19,4.19,0,0,1,1.72-.5s.05,0,.05-.05l.06-3.82a1.06,1.06,0,0,1,.67-1l.14-.06,1.32-.39h0l.27.66-.07,0-1.23.36c-.23.07-.33.18-.33.39,0,.38,0,.76,0,1.14v0l.06,0,6.36-1.86a.07.07,0,0,0,.06-.06l.09-.66v-.06h-.06l-1.07.32a.45.45,0,0,1-.45-.1.32.32,0,0,1-.05-.4.44.44,0,0,1,.24-.17l2.89-.84,0,0,.26.67h0l-.86.25a.06.06,0,0,0,0,.06c-.05.36-.1.71-.14,1.07a.14.14,0,0,0,0,.06l1.79,1.56,0,0,.32-.19a4,4,0,0,1,1.27-.46,4.53,4.53,0,0,1,2.84.32,3.66,3.66,0,0,1,1.58,1.31,3,3,0,0,1,.05,3.35,3.57,3.57,0,0,1-1.65,1.4l-.33.14,0,0-.42.12h-.06c-.22,0-.44.08-.66.1a4.48,4.48,0,0,1-2.53-.51,3.61,3.61,0,0,1-1.43-1.33l-.11-.18-.06,0-1.59.47a.64.64,0,0,1-.43,0l-.92-.45L190,321l-2.13-1-.4-.19v1.14h.07a4,4,0,0,1,3.1,1.88,3,3,0,0,1,.4,1.17,3.09,3.09,0,0,1-.91,2.55,3.72,3.72,0,0,1-1.34.9l-.24.1-.43.13h-.05c-.21,0-.41.08-.61.1a4.46,4.46,0,0,1-3.08-.82,3.38,3.38,0,0,1-1-1.09l-.12-.21Zm4.32-3.63v.06l0,1.9c0,.23,0,.46,0,.69a.37.37,0,0,1-.38.35.37.37,0,0,1-.42-.38l0-2.58v-.05a2.92,2.92,0,0,0-2.82,2.78,3.26,3.26,0,0,0,6.4,0A2.9,2.9,0,0,0,187.48,321.6Zm8.79.32a3.31,3.31,0,0,0,3.12,1.55,3,3,0,0,0,2.92-2.27,2.67,2.67,0,0,0-1.85-2.95,3.59,3.59,0,0,0-3.2.32l.4.35,1.76,1.53a.41.41,0,0,1,.12.2.35.35,0,0,1-.29.39l-2.91.86Zm-8.74-3,5.76,2.81.62-4.68Zm8.54-.42-1.38-1.2-.58,4.47,1.1-.32A3.11,3.11,0,0,1,196.07,318.53Zm-.06,2.71,2.37-.69L196.66,319A2.44,2.44,0,0,0,196,321.24Z" transform="translate(-112.09 -70.99)"/><path class="cls-18" d="M156.1,308.15a1.74,1.74,0,0,0,0-.22,2.83,2.83,0,0,1,.06-1.47,3.5,3.5,0,0,1,1.87-2.12,4.4,4.4,0,0,1,1.73-.46s.06,0,.06-.05c0-1.28.11-2.55.17-3.82a1.08,1.08,0,0,1,.7-.95l.14-.05,1.33-.36h0l.25.67-.07,0-1.24.33c-.23.06-.33.17-.34.38,0,.38,0,.76-.05,1.14v.05l.05,0,6.42-1.72a.07.07,0,0,0,.06-.06c0-.22.07-.44.11-.66v-.06l-.06,0-1.08.29a.48.48,0,0,1-.45-.11.33.33,0,0,1,0-.4.44.44,0,0,1,.25-.16l2.91-.78,0,0,.25.67h-.06l-.86.24s-.05,0-.06,0c-.05.36-.11.71-.17,1.07a.14.14,0,0,0,0,.06l1.74,1.6,0,0,.32-.19a4.39,4.39,0,0,1,1.28-.43,4.57,4.57,0,0,1,2.83.39,3.61,3.61,0,0,1,1.54,1.34,3,3,0,0,1-.05,3.35,3.65,3.65,0,0,1-1.69,1.36l-.34.13,0,0-.43.12h-.06c-.22,0-.44.07-.66.08a4.49,4.49,0,0,1-2.51-.56,3.62,3.62,0,0,1-1.4-1.37l-.1-.18-.06,0-1.61.43a.51.51,0,0,1-.42,0l-.91-.47-2.39-1.23L161,303l-.39-.2-.05,1.13h.07a4,4,0,0,1,3,1.95A2.75,2.75,0,0,1,164,307a3.1,3.1,0,0,1-1,2.54,4,4,0,0,1-1.36.87l-.24.09-.44.12H161c-.21,0-.41.07-.62.09a4.45,4.45,0,0,1-3-.89,3.45,3.45,0,0,1-1-1.11l-.11-.22Zm4.43-3.53v.05l-.09,1.91,0,.68a.36.36,0,0,1-.39.34.37.37,0,0,1-.41-.38c0-.86.07-1.72.11-2.58v-.05a2.73,2.73,0,1,0,.2,5.44,3,3,0,0,0,3.29-2.58A2.85,2.85,0,0,0,160.53,304.62Zm8.78.51a3.27,3.27,0,0,0,3.07,1.62,3.09,3.09,0,0,0,3-2.21,2.66,2.66,0,0,0-1.77-3,3.63,3.63,0,0,0-3.21.25l.4.36,1.71,1.57a.33.33,0,0,1,.11.2.35.35,0,0,1-.3.39l-2.93.79ZM160.66,302l5.68,2.93.75-4.66Zm8.55-.24-1.34-1.22-.72,4.45,1.11-.3A3.15,3.15,0,0,1,169.21,301.73Zm-.14,2.72,2.39-.65-1.68-1.54A2.44,2.44,0,0,0,169.07,304.45Z" transform="translate(-112.09 -70.99)"/><path class="cls-18" d="M187,291.65l0-.23a3,3,0,0,1,.57-1.38,4,4,0,0,1,2.53-1.55,4.65,4.65,0,0,1,1.82,0s.06,0,.07,0c.5-1.2,1-2.4,1.51-3.59a1.21,1.21,0,0,1,1-.72l.15,0h1.44v.7h-1.37a.43.43,0,0,0-.46.28l-.45,1.07s0,0,0,0h6.79a.07.07,0,0,0,.08-.05l.33-.6,0-.05h-1.2a.42.42,0,0,1-.39-.22.32.32,0,0,1,.11-.39.48.48,0,0,1,.29-.09H203v.7h-1s-.06,0-.07,0l-.54,1a.06.06,0,0,0,0,.06c.36.66.72,1.32,1.09,2l0,0,.37-.09a4.55,4.55,0,0,1,1.38-.09,4.3,4.3,0,0,1,2.56,1.1,3,3,0,0,1,1,1.68,3.08,3.08,0,0,1-1.23,3.17,4.09,4.09,0,0,1-2.09.87l-.37,0h-.55c-.22,0-.45,0-.66-.09a4.08,4.08,0,0,1-2.2-1.18,3.12,3.12,0,0,1-.85-1.66l0-.2H198.1a.52.52,0,0,1-.39-.15l-.69-.68-1.85-1.79L193.55,288l-.3-.29-.45,1.06h0l.05,0a3.5,3.5,0,0,1,2.22,2.65,2.76,2.76,0,0,1-.07,1.21,3.53,3.53,0,0,1-1.83,2.16,4.19,4.19,0,0,1-1.61.48l-.26,0h-.51c-.21,0-.42,0-.62-.08a4,4,0,0,1-2.6-1.63,3,3,0,0,1-.51-1.3l0-.23Zm5.47-2.23,0,.05-.75,1.79c-.09.22-.18.43-.28.65a.41.41,0,0,1-.49.22.33.33,0,0,1-.26-.47l1-2.43,0-.05A3.29,3.29,0,0,0,188,291a2.65,2.65,0,0,0,2,3.4,3.38,3.38,0,0,0,4-1.61A2.57,2.57,0,0,0,192.51,289.42Zm8.19,2.73a2.86,2.86,0,0,0,2.36,2.33,3.42,3.42,0,0,0,3.63-1.33,2.45,2.45,0,0,0-.63-3.3,3.55,3.55,0,0,0-3.15-.59c.08.15.16.3.25.45l1.07,1.93a.29.29,0,0,1,0,.22.39.39,0,0,1-.42.29H200.7Zm-7.13-5.23,4.38,4.26,2.36-4.26Zm8.23,2-.85-1.51-2.25,4.06h1.16A3.52,3.52,0,0,1,201.8,288.89Zm-1.09,2.55h2.51l-1.06-1.9A2.77,2.77,0,0,0,200.71,291.44Z" transform="translate(-112.09 -70.99)"/><path class="cls-18" d="M151.74,270.26l0-.22a3,3,0,0,1,.57-1.38,4,4,0,0,1,2.53-1.55,4.42,4.42,0,0,1,1.81,0s.06,0,.08,0c.5-1.2,1-2.4,1.51-3.6a1.21,1.21,0,0,1,1-.72h1.59v.7h-1.37a.42.42,0,0,0-.46.27l-.45,1.07,0,0h6.78s.07,0,.08,0l.34-.6a.33.33,0,0,0,0-.06h-1.21a.4.4,0,0,1-.38-.22.31.31,0,0,1,.1-.38.45.45,0,0,1,.3-.1h3.1v.7h-1s-.06,0-.07,0l-.55,1s0,0,0,.06l1.1,2,0,0,.37-.1A4.89,4.89,0,0,1,169,267a4.23,4.23,0,0,1,2.55,1.09,3.2,3.2,0,0,1,1,1.68,3.09,3.09,0,0,1-1.23,3.18,4.09,4.09,0,0,1-2.09.87l-.37,0h-.55c-.22,0-.45,0-.67-.09a4,4,0,0,1-2.19-1.19,3.18,3.18,0,0,1-.86-1.66l0-.19H162.8a.54.54,0,0,1-.39-.15l-.7-.68-1.84-1.8-1.62-1.57-.3-.29-.45,1.07h0l.05,0a3.45,3.45,0,0,1,2.21,2.64,2.79,2.79,0,0,1-.06,1.22,3.53,3.53,0,0,1-1.83,2.16,4.43,4.43,0,0,1-1.61.48l-.26,0h-.51c-.21,0-.42,0-.62-.08a4,4,0,0,1-2.6-1.63,2.91,2.91,0,0,1-.51-1.3l0-.24Zm5.47-2.23,0,.05-.76,1.8-.27.64a.41.41,0,0,1-.49.23.33.33,0,0,1-.26-.47l1-2.44,0,0a3.3,3.3,0,0,0-3.73,1.84,2.66,2.66,0,0,0,2,3.4,3.37,3.37,0,0,0,4.05-1.62A2.57,2.57,0,0,0,157.21,268Zm8.19,2.74a2.87,2.87,0,0,0,2.36,2.33,3.43,3.43,0,0,0,3.63-1.34,2.45,2.45,0,0,0-.64-3.3,3.59,3.59,0,0,0-3.14-.59c.08.15.16.3.25.45.35.65.71,1.29,1.07,1.94a.27.27,0,0,1,0,.21.4.4,0,0,1-.42.3H165.4Zm-7.14-5.23,4.38,4.25,2.37-4.25Zm8.24,2-.85-1.52-2.26,4.07h1.17A3.5,3.5,0,0,1,166.5,267.51Zm-1.09,2.55h2.51l-1.06-1.91A2.74,2.74,0,0,0,165.41,270.06Z" transform="translate(-112.09 -70.99)"/><path class="cls-18" d="M153,233.29l0-.22a3.07,3.07,0,0,1,.57-1.39,4,4,0,0,1,2.53-1.55,4.65,4.65,0,0,1,1.82,0s.06,0,.07,0l1.51-3.6a1.21,1.21,0,0,1,1-.72h1.59v.69h-1.37a.42.42,0,0,0-.46.28l-.45,1.07s0,0,0,.05h6.79a.08.08,0,0,0,.08,0l.33-.6,0-.06h-1.2a.42.42,0,0,1-.39-.22.32.32,0,0,1,.11-.39.48.48,0,0,1,.29-.09h3.1v.7h-1s-.06,0-.07,0l-.54,1a.06.06,0,0,0,0,.06c.36.66.72,1.32,1.09,2l0,0,.37-.09a4.58,4.58,0,0,1,3.94,1,3.1,3.1,0,0,1-.24,4.86,4.17,4.17,0,0,1-2.09.87l-.37,0h-.55c-.22,0-.45,0-.66-.09a4.08,4.08,0,0,1-2.2-1.18,3.12,3.12,0,0,1-.85-1.66l0-.19h-.07c-.56,0-1.12,0-1.69,0a.56.56,0,0,1-.39-.15l-.69-.68-1.85-1.8-1.62-1.57-.3-.29-.45,1.07h0l.05,0a3.49,3.49,0,0,1,2.22,2.64,2.75,2.75,0,0,1-.07,1.21,3.52,3.52,0,0,1-1.83,2.17,4.18,4.18,0,0,1-1.61.47l-.26,0h-.51a4.2,4.2,0,0,1-.62-.08,4,4,0,0,1-2.6-1.62,3,3,0,0,1-.51-1.31l0-.23Zm5.47-2.23s0,0,0,.05c-.25.6-.5,1.2-.76,1.8-.09.21-.17.43-.27.64a.41.41,0,0,1-.49.22.33.33,0,0,1-.26-.47l1-2.43s0,0,0-.05a3.29,3.29,0,0,0-3.72,1.85,2.65,2.65,0,0,0,2,3.4,3.38,3.38,0,0,0,4.05-1.62A2.57,2.57,0,0,0,158.43,231.06Zm8.19,2.74a2.88,2.88,0,0,0,2.36,2.33,3.43,3.43,0,0,0,3.63-1.34,2.45,2.45,0,0,0-.63-3.3,3.61,3.61,0,0,0-3.15-.59c.08.15.16.3.25.45l1.07,1.93a.29.29,0,0,1,0,.22.4.4,0,0,1-.42.3h-3.15Zm-7.13-5.23,4.38,4.25,2.36-4.25Zm8.23,2-.85-1.51-2.25,4.07h1.16A3.52,3.52,0,0,1,167.72,230.53Zm-1.09,2.55h2.51l-1.06-1.9A2.77,2.77,0,0,0,166.63,233.08Z" transform="translate(-112.09 -70.99)"/><path class="cls-18" d="M171.63,198.77l.08-.21a3.27,3.27,0,0,1,.93-1.24,4.36,4.36,0,0,1,2.87-1,4.45,4.45,0,0,1,1.77.36s.05,0,.08,0c.8-1.08,1.61-2.15,2.42-3.22a1.34,1.34,0,0,1,1.17-.51l.15,0,1.36.27h0l-.18.68h-.07l-1.27-.25a.47.47,0,0,0-.52.18l-.72,1,0,0h.06l6.55,1.3s.07,0,.09,0l.49-.52,0-.05h-.07l-1.1-.22a.39.39,0,0,1-.32-.29.36.36,0,0,1,.21-.36.5.5,0,0,1,.3,0l3,.59h0l-.19.68h0l-.89-.18s0,0-.07,0l-.79.84a.14.14,0,0,0,0,.06c.18.71.37,1.42.55,2.13v0l.39,0a4.75,4.75,0,0,1,1.36.19,3.89,3.89,0,0,1,2.21,1.55,2.91,2.91,0,0,1,.52,1.83,3.33,3.33,0,0,1-2,2.86,4.49,4.49,0,0,1-2.27.45l-.37,0h-.05l-.44-.09,0,0a6.45,6.45,0,0,1-.62-.21,3.71,3.71,0,0,1-1.83-1.58,2.94,2.94,0,0,1-.39-1.78,1.23,1.23,0,0,1,0-.19h-.07l-1.64-.33a.48.48,0,0,1-.34-.22l-.5-.79c-.44-.71-.88-1.41-1.33-2.11l-1.16-1.84-.21-.34L178,197h0l.05,0a3.21,3.21,0,0,1,1.46,3,2.8,2.8,0,0,1-.39,1.17,3.85,3.85,0,0,1-2.35,1.76,4.59,4.59,0,0,1-1.69.16l-.27,0-.44-.09,0,0a4.92,4.92,0,0,1-.58-.19,3.58,3.58,0,0,1-2.1-2.09,2.75,2.75,0,0,1-.16-1.36l0-.24Zm5.91-1.12,0,0-1.21,1.6c-.14.19-.29.38-.43.58a.44.44,0,0,1-.54.12.32.32,0,0,1-.13-.51l1.63-2.17,0,0a3.51,3.51,0,0,0-4.12,1.09,2.49,2.49,0,0,0,1.05,3.69,3.55,3.55,0,0,0,4.37-.8A2.45,2.45,0,0,0,177.54,197.65Zm7.26,4.24a2.64,2.64,0,0,0,1.68,2.73,3.59,3.59,0,0,0,3.89-.61,2.43,2.43,0,0,0,.26-3.34,3.43,3.43,0,0,0-2.91-1.18l.12.49.54,2.09a.28.28,0,0,1,0,.22.44.44,0,0,1-.49.21l-3-.6Zm-5.57-6.46,3.14,5,3.43-3.69Zm7.51,3.49-.43-1.63L183,200.81l1.13.23A3.91,3.91,0,0,1,186.74,198.92ZM185,201.2l2.44.48-.52-2.06A3.08,3.08,0,0,0,185,201.2Z" transform="translate(-112.09 -70.99)"/><path class="cls-18" d="M187.77,176.08a1.28,1.28,0,0,0,.11-.2,3.65,3.65,0,0,1,1.06-1.16,4.61,4.61,0,0,1,4.69-.29s.06,0,.09,0l2.77-3a1.33,1.33,0,0,1,1.21-.41l.15,0,1.33.38h0l-.26.66h-.06l-1.24-.36a.47.47,0,0,0-.53.14c-.28.3-.55.6-.83.89l0,0h.05l6.38,1.82a.08.08,0,0,0,.09,0l.54-.48.05,0-.06,0-1.08-.31a.35.35,0,0,1-.28-.31.36.36,0,0,1,.24-.34.47.47,0,0,1,.31,0l2.89.83h.06l-.26.67-.06,0-.86-.25a.08.08,0,0,0-.08,0l-.88.78a.11.11,0,0,0,0,.06c.1.72.2,1.44.31,2.16v0l.39,0a4.34,4.34,0,0,1,1.34.29,3.7,3.7,0,0,1,2,1.73,2.82,2.82,0,0,1,.32,1.86,3.49,3.49,0,0,1-2.34,2.68,4.53,4.53,0,0,1-2.31.26l-.36-.07h0l-.43-.12-.05,0a6.39,6.39,0,0,1-.6-.26,3.57,3.57,0,0,1-1.64-1.71,2.9,2.9,0,0,1-.19-1.81c0-.06,0-.13,0-.19l-.06,0-1.6-.46a.47.47,0,0,1-.32-.24c-.13-.28-.27-.56-.41-.83l-1.08-2.21c-.32-.64-.64-1.28-1-1.93l-.18-.35-.82.89h0l0,0a3.09,3.09,0,0,1,1.12,3.11,2.81,2.81,0,0,1-.51,1.13,4.08,4.08,0,0,1-2.54,1.56,4.63,4.63,0,0,1-1.7,0l-.26-.05-.44-.12,0,0c-.19-.08-.38-.15-.56-.24a3.5,3.5,0,0,1-1.86-2.25,2.88,2.88,0,0,1,0-1.37l.06-.23Zm6-.63,0,0-1.38,1.5-.5.54a.44.44,0,0,1-.55.07.31.31,0,0,1-.07-.51l1.87-2a.08.08,0,0,1,0,0,3.55,3.55,0,0,0-4.22.74,2.46,2.46,0,0,0,.63,3.76,3.58,3.58,0,0,0,4.44-.43A2.43,2.43,0,0,0,193.79,175.45Zm6.75,4.81a2.55,2.55,0,0,0,1.37,2.85,3.63,3.63,0,0,0,3.94-.29,2.45,2.45,0,0,0,.63-3.3,3.28,3.28,0,0,0-2.77-1.41c0,.16,0,.33.07.49l.3,2.13a.27.27,0,0,1,0,.21.44.44,0,0,1-.51.17l-2.92-.84Zm-4.82-6.89,2.57,5.22,3.82-3.4Zm7.08,4.09-.24-1.67L198.91,179l1.1.32A4,4,0,0,1,202.8,177.46Zm-2,2.12,2.38.68-.3-2.09A3.18,3.18,0,0,0,200.82,179.58Z" transform="translate(-112.09 -70.99)"/><path class="cls-18" d="M267.83,329.36l0-.22a3.07,3.07,0,0,1,.57-1.39A4,4,0,0,1,271,326.2a4.6,4.6,0,0,1,1.81,0c.05,0,.06,0,.08,0,.5-1.2,1-2.4,1.51-3.6a1.21,1.21,0,0,1,1-.72H277v.69h-1.37a.42.42,0,0,0-.46.28l-.45,1.07s0,0,0,.05h6.78a.08.08,0,0,0,.08,0l.34-.6,0-.06h-1.21a.41.41,0,0,1-.38-.22.33.33,0,0,1,.1-.39.5.5,0,0,1,.29-.09h3.11v.7h-1s-.06,0-.07,0l-.55,1a.09.09,0,0,0,0,.07c.37.65.73,1.31,1.1,2l0,0,.37-.09a4.56,4.56,0,0,1,3.93,1,3.11,3.11,0,0,1,1,1.68,3.07,3.07,0,0,1-1.22,3.18,4.17,4.17,0,0,1-2.09.87l-.37,0h-.55c-.23,0-.45,0-.67-.08a4.13,4.13,0,0,1-2.19-1.19,3.14,3.14,0,0,1-.86-1.66l0-.19h-1.75a.53.53,0,0,1-.39-.15c-.23-.23-.46-.46-.7-.68l-1.85-1.8-1.61-1.57-.3-.29-.45,1.07h0l0,0a3.45,3.45,0,0,1,2.21,2.64,2.75,2.75,0,0,1-.06,1.21A3.52,3.52,0,0,1,274,332.5a4.43,4.43,0,0,1-1.61.48l-.26,0h-.51a6.18,6.18,0,0,1-.62-.07,4,4,0,0,1-2.6-1.63,2.9,2.9,0,0,1-.51-1.31l0-.23Zm5.47-2.23s0,0,0,.05c-.26.6-.51,1.2-.76,1.8l-.27.64a.41.41,0,0,1-.49.22.33.33,0,0,1-.26-.47l1-2.43,0-.05a3.3,3.3,0,0,0-3.73,1.85,2.66,2.66,0,0,0,2,3.4,3.38,3.38,0,0,0,4.05-1.62A2.57,2.57,0,0,0,273.3,327.13Zm8.19,2.74a2.88,2.88,0,0,0,2.36,2.33,3.43,3.43,0,0,0,3.63-1.34,2.45,2.45,0,0,0-.64-3.3,3.59,3.59,0,0,0-3.14-.59l.24.45,1.08,1.93a.29.29,0,0,1,0,.22.4.4,0,0,1-.42.3h-3.15Zm-7.14-5.23,4.38,4.25,2.37-4.25Zm8.24,2-.85-1.51-2.26,4.07h1.17A3.52,3.52,0,0,1,282.59,326.6Zm-1.09,2.55H284l-1.06-1.9A2.75,2.75,0,0,0,281.5,329.15Z" transform="translate(-112.09 -70.99)"/><path class="cls-18" d="M265.8,360.07l0-.22a3.07,3.07,0,0,1,.57-1.39,4,4,0,0,1,2.53-1.54,4.42,4.42,0,0,1,1.81,0c.05,0,.06,0,.08,0,.5-1.2,1-2.4,1.51-3.6a1.21,1.21,0,0,1,1-.72h1.59v.7h-1.37a.42.42,0,0,0-.46.27l-.45,1.07s0,0,0,0h6.78a.08.08,0,0,0,.08,0l.34-.6,0-.06h-1.21a.4.4,0,0,1-.38-.22.31.31,0,0,1,.1-.38.45.45,0,0,1,.29-.1h3.11v.7h-1s-.06,0-.07,0l-.55,1a.06.06,0,0,0,0,.06c.37.65.73,1.31,1.1,2l0,0,.37-.1a4.5,4.5,0,0,1,1.37-.08,4.24,4.24,0,0,1,2.56,1.09,3.11,3.11,0,0,1,1,1.68,3.07,3.07,0,0,1-1.22,3.18,4.17,4.17,0,0,1-2.09.87c-.12,0-.25,0-.37,0h-.55c-.23,0-.45,0-.67-.08a4,4,0,0,1-2.19-1.19,3.1,3.1,0,0,1-.86-1.66l0-.19h-1.75a.53.53,0,0,1-.39-.15l-.7-.68-1.84-1.8-1.62-1.57-.3-.29-.45,1.07h0l.05,0a3.45,3.45,0,0,1,2.21,2.64,2.79,2.79,0,0,1-.06,1.22,3.53,3.53,0,0,1-1.83,2.16,4.43,4.43,0,0,1-1.61.48l-.26,0h-.51a6.18,6.18,0,0,1-.62-.07,4,4,0,0,1-2.6-1.63,2.91,2.91,0,0,1-.51-1.3l0-.24Zm5.47-2.23,0,.05c-.26.6-.51,1.2-.76,1.8l-.27.64a.41.41,0,0,1-.49.23.34.34,0,0,1-.26-.47l1-2.44,0,0a3.31,3.31,0,0,0-3.73,1.85,2.66,2.66,0,0,0,2,3.4,3.37,3.37,0,0,0,4.05-1.62A2.57,2.57,0,0,0,271.27,357.84Zm8.19,2.74a2.88,2.88,0,0,0,2.36,2.33,3.43,3.43,0,0,0,3.63-1.34,2.45,2.45,0,0,0-.64-3.3,3.59,3.59,0,0,0-3.14-.59l.24.45,1.08,1.94a.27.27,0,0,1,0,.21.4.4,0,0,1-.42.3h-3.15Zm-7.14-5.23,4.38,4.25,2.37-4.25Zm8.24,2-.85-1.52-2.26,4.07h1.17A3.5,3.5,0,0,1,280.56,357.32Zm-1.09,2.55H282L280.92,358A2.74,2.74,0,0,0,279.47,359.87Z" transform="translate(-112.09 -70.99)"/><path class="cls-18" d="M287.5,366l.21-.13a4.36,4.36,0,0,1,1.58-.58,4.57,4.57,0,0,1,3,.56,3.62,3.62,0,0,1,1.22,1.14s0,0,.08,0l4.13-1.47a1.42,1.42,0,0,1,1.3.14l.11.09.94.88,0,0-.61.47,0,0-.88-.82a.48.48,0,0,0-.55-.1l-1.23.43,0,0,0,0,4.53,4.24a.08.08,0,0,0,.09,0l.75-.19.06,0,0,0-.77-.72a.31.31,0,0,1-.07-.39.47.47,0,0,1,.69-.07l2.05,1.92,0,0-.61.47,0,0-.61-.57a.07.07,0,0,0-.08,0l-1.21.32a.07.07,0,0,0-.05,0l-1,2v0l.33.18a3.78,3.78,0,0,1,1,.81,3.05,3.05,0,0,1,.78,2.35,3,3,0,0,1-.79,1.75,4.53,4.53,0,0,1-5.74.64l-.28-.21,0,0-.3-.29,0,0c-.13-.16-.26-.31-.37-.47a3,3,0,0,1-.46-2.19,3.09,3.09,0,0,1,.87-1.65l.14-.15,0-.05-1.14-1.06a.38.38,0,0,1-.13-.34l.12-.9c.1-.79.2-1.58.31-2.38l.27-2.07c0-.13,0-.26.05-.39l-1.23.44h0l0,.05a3,3,0,0,1-.8,3.17,3.65,3.65,0,0,1-1.1.78,4.59,4.59,0,0,1-3.1.3,4.12,4.12,0,0,1-1.5-.69l-.2-.15-.31-.29,0,0c-.11-.15-.25-.29-.35-.45a3,3,0,0,1-.34-2.73,3.14,3.14,0,0,1,.79-1.2l.18-.18Zm5.61,1.95h-.05l-2.07.74-.74.26a.41.41,0,0,1-.52-.16c-.11-.19,0-.39.23-.48l2.79-1,.06,0a3.5,3.5,0,0,0-4.11-1.1,2.58,2.58,0,0,0-1.6,3.55,3.42,3.42,0,0,0,4.13,1.46A2.62,2.62,0,0,0,293.11,367.9Zm3.15,7a2.42,2.42,0,0,0-.43,3.06,3.43,3.43,0,0,0,3.61,1.39,2.88,2.88,0,0,0,2.43-2.63,2.66,2.66,0,0,0-1.61-2.38c-.08.15-.15.31-.22.46-.32.66-.64,1.32-1,2a.37.37,0,0,1-.16.17.45.45,0,0,1-.54-.07c-.7-.64-1.39-1.29-2.08-1.94Zm-.28-8-.73,5.63,5.28-1.38Zm3.85,6.52.74-1.56-5,1.32.78.73A4.68,4.68,0,0,1,299.83,373.4Zm-2.94,1,1.69,1.58.93-1.95A3.65,3.65,0,0,0,296.89,374.43Z" transform="translate(-112.09 -70.99)"/><path class="cls-18" d="M309.44,348.21a2.43,2.43,0,0,1,.14-.2,3.68,3.68,0,0,1,1.2-1,4.55,4.55,0,0,1,3.06-.49,4.17,4.17,0,0,1,1.64.66.06.06,0,0,0,.09,0l3.15-2.71a1.4,1.4,0,0,1,1.27-.3l.14.05,1.27.5,0,0-.35.63-.06,0-1.18-.47a.47.47,0,0,0-.55.09l-.94.8,0,0,.05,0,6.1,2.43a.06.06,0,0,0,.09,0l.6-.42.05,0-.06,0-1-.41a.34.34,0,0,1-.23-.34.38.38,0,0,1,.28-.32.54.54,0,0,1,.31,0l2.77,1.1,0,0-.34.63-.06,0-.82-.33a.08.08,0,0,0-.08,0l-1,.69a.08.08,0,0,0,0,.06c0,.72,0,1.45,0,2.18v0l.38.05a4.07,4.07,0,0,1,1.29.42,3.55,3.55,0,0,1,1.78,1.91,2.82,2.82,0,0,1,.06,1.88,3.66,3.66,0,0,1-2.68,2.44,4.49,4.49,0,0,1-2.33,0l-.35-.1h-.05l-.41-.16-.05,0a6.05,6.05,0,0,1-.55-.32,3.31,3.31,0,0,1-1.4-1.87,2.88,2.88,0,0,1,.05-1.81,1.34,1.34,0,0,1,.07-.18l-.06,0-1.53-.61a.42.42,0,0,1-.28-.27l-.3-.87-.78-2.3c-.23-.66-.45-1.33-.68-2,0-.13-.09-.25-.13-.38l-.94.81h0l0,0a3,3,0,0,1,.7,3.19,3.06,3.06,0,0,1-.67,1.08,4.2,4.2,0,0,1-2.73,1.3,4.59,4.59,0,0,1-1.69-.15l-.25-.07-.42-.17,0,0c-.17-.1-.36-.19-.52-.3a3.32,3.32,0,0,1-1.55-2.41,2.81,2.81,0,0,1,.19-1.37c0-.07,0-.14.08-.22Zm6.06,0,0,0-1.58,1.36-.56.48a.44.44,0,0,1-.56,0,.3.3,0,0,1,0-.51l2.13-1.84,0,0a3.59,3.59,0,0,0-4.29.33,2.44,2.44,0,0,0,.12,3.8,3.59,3.59,0,0,0,4.47,0A2.44,2.44,0,0,0,315.5,348.16Zm6.06,5.44a2.47,2.47,0,0,0,1,3,3.65,3.65,0,0,0,3.95.1,2.51,2.51,0,0,0,1.07-3.22,3.14,3.14,0,0,0-2.56-1.67v.49c0,.72,0,1.43,0,2.14a.26.26,0,0,1-.06.21.47.47,0,0,1-.54.12l-2.78-1.11Zm-3.86-7.31,1.85,5.43,4.25-3Zm6.48,4.75,0-1.67-4.06,2.86,1.06.42A4.22,4.22,0,0,1,324.18,351ZM321.92,353l2.28.91,0-2.11A3.37,3.37,0,0,0,321.92,353Z" transform="translate(-112.09 -70.99)"/><path class="cls-18" d="M264,206.41l0-.23a3,3,0,0,1,.57-1.38,4,4,0,0,1,2.53-1.55,4.46,4.46,0,0,1,1.82,0s.06,0,.07,0c.5-1.2,1-2.4,1.51-3.59a1.21,1.21,0,0,1,1-.73h1.59v.7h-1.37a.42.42,0,0,0-.46.28l-.45,1.06,0,0h6.79a.08.08,0,0,0,.08,0l.33-.6,0-.05h-1.2a.42.42,0,0,1-.39-.22.32.32,0,0,1,.11-.39.42.42,0,0,1,.29-.09H280v.7h-1s-.06,0-.07,0l-.54,1a.06.06,0,0,0,0,.06l1.09,2,0,0,.37-.09a4.55,4.55,0,0,1,1.38-.09,4.24,4.24,0,0,1,2.56,1.1,3,3,0,0,1,1,1.68,3.08,3.08,0,0,1-1.23,3.17,4.09,4.09,0,0,1-2.09.87l-.37,0h-.55c-.22,0-.45,0-.66-.09a4.08,4.08,0,0,1-2.2-1.18,3.12,3.12,0,0,1-.85-1.66l0-.2h-1.76a.56.56,0,0,1-.39-.15l-.69-.68-1.85-1.79-1.62-1.58-.3-.29-.45,1.07h0l0,0a3.5,3.5,0,0,1,2.22,2.64,2.79,2.79,0,0,1-.07,1.22,3.53,3.53,0,0,1-1.83,2.16,4.37,4.37,0,0,1-1.61.48l-.26,0h-.51c-.21,0-.42,0-.62-.08a4,4,0,0,1-2.6-1.63,3,3,0,0,1-.51-1.3l0-.23Zm5.47-2.23,0,0c-.25.6-.5,1.2-.76,1.8-.09.22-.17.43-.27.64a.4.4,0,0,1-.49.23.33.33,0,0,1-.26-.47l1-2.43s0,0,0-.05a3.29,3.29,0,0,0-3.72,1.84,2.65,2.65,0,0,0,2,3.4,3.38,3.38,0,0,0,4.05-1.61A2.57,2.57,0,0,0,269.49,204.18Zm8.19,2.73a2.86,2.86,0,0,0,2.36,2.33,3.43,3.43,0,0,0,3.63-1.33,2.45,2.45,0,0,0-.63-3.3,3.55,3.55,0,0,0-3.15-.59c.08.15.16.3.25.45l1.07,1.93a.29.29,0,0,1,0,.22.39.39,0,0,1-.42.29h-3.15Zm-7.13-5.23,4.38,4.26,2.36-4.26Zm8.23,2-.85-1.52-2.25,4.07h1.16A3.5,3.5,0,0,1,278.78,203.65Zm-1.09,2.55h2.51l-1.06-1.9A2.77,2.77,0,0,0,277.69,206.2Z" transform="translate(-112.09 -70.99)"/><path class="cls-18" d="M293.22,198.09l0-.22a3,3,0,0,1,.57-1.38,4,4,0,0,1,2.53-1.55,4.65,4.65,0,0,1,1.82,0s.06,0,.07,0l1.51-3.6a1.21,1.21,0,0,1,1-.72h1.59v.7H301a.42.42,0,0,0-.46.27l-.45,1.07,0,0h6.79s.06,0,.07,0l.34-.6,0-.05h-1.21a.4.4,0,0,1-.38-.22.31.31,0,0,1,.11-.38.43.43,0,0,1,.29-.1h3.1V192h-1s-.06,0-.07,0l-.54,1s0,0,0,.06l1.1,2,0,0,.37-.1a4.89,4.89,0,0,1,1.38-.08A4.29,4.29,0,0,1,313,196a3.1,3.1,0,0,1-.24,4.86,4.09,4.09,0,0,1-2.09.87l-.37,0h-.55c-.22,0-.45,0-.67-.09a4,4,0,0,1-2.19-1.19,3.09,3.09,0,0,1-.85-1.66c0-.06,0-.12,0-.19h-1.75a.54.54,0,0,1-.39-.15l-.69-.68L301.35,196l-1.62-1.58-.3-.29-.45,1.07h0l.05,0a3.45,3.45,0,0,1,2.21,2.64,2.65,2.65,0,0,1-.06,1.22,3.53,3.53,0,0,1-1.83,2.16,4.37,4.37,0,0,1-1.61.48l-.26,0H297c-.21,0-.42,0-.62-.08a4,4,0,0,1-2.6-1.63,3,3,0,0,1-.51-1.3l0-.24Zm5.47-2.23,0,0c-.25.6-.5,1.2-.76,1.8l-.27.64a.41.41,0,0,1-.49.23.33.33,0,0,1-.26-.47l1-2.44s0,0,0,0a3.3,3.3,0,0,0-3.73,1.84,2.66,2.66,0,0,0,2,3.4,3.37,3.37,0,0,0,4.05-1.62A2.57,2.57,0,0,0,298.69,195.86Zm8.19,2.74a2.87,2.87,0,0,0,2.36,2.33,3.43,3.43,0,0,0,3.63-1.34,2.46,2.46,0,0,0-.63-3.3,3.61,3.61,0,0,0-3.15-.59c.08.15.16.3.25.45l1.07,1.94a.27.27,0,0,1,0,.21.4.4,0,0,1-.42.3h-3.15Zm-7.13-5.23,4.37,4.25,2.37-4.25Zm8.23,2-.85-1.52-2.25,4.07H306A3.5,3.5,0,0,1,308,195.34Zm-1.09,2.55h2.51L308.34,196A2.77,2.77,0,0,0,306.89,197.89Z" transform="translate(-112.09 -70.99)"/><path class="cls-18" d="M301.7,177l0-.22a3,3,0,0,1,.57-1.38,4,4,0,0,1,2.53-1.55,4.65,4.65,0,0,1,1.82,0s.05,0,.07,0l1.51-3.6a1.21,1.21,0,0,1,1-.72h1.59v.7h-1.37a.42.42,0,0,0-.46.27l-.45,1.07,0,.05h6.79s.06,0,.07,0l.34-.6,0,0h-1.21a.41.41,0,0,1-.38-.22.32.32,0,0,1,.11-.39.42.42,0,0,1,.29-.09h3.1v.7h-1s-.06,0-.07,0l-.54,1a.13.13,0,0,0,0,.06l1.1,2,0,0,.37-.09a4.55,4.55,0,0,1,1.38-.09,4.29,4.29,0,0,1,2.56,1.09,3.18,3.18,0,0,1,1,1.68,3.09,3.09,0,0,1-1.23,3.18,4.09,4.09,0,0,1-2.09.87l-.37,0h-.55c-.22,0-.45-.05-.67-.09a4,4,0,0,1-2.19-1.19,3.09,3.09,0,0,1-.85-1.66,1.06,1.06,0,0,1,0-.19h-1.75a.54.54,0,0,1-.39-.15l-.7-.68-1.84-1.79-1.62-1.58-.3-.29-.45,1.07h0l0,0a3.47,3.47,0,0,1,2.21,2.64,2.65,2.65,0,0,1-.06,1.22,3.53,3.53,0,0,1-1.83,2.16,4.37,4.37,0,0,1-1.61.48l-.26,0h-.51c-.21,0-.42,0-.62-.08a4,4,0,0,1-2.6-1.63,3,3,0,0,1-.51-1.3l0-.23Zm5.47-2.22a.08.08,0,0,0,0,0c-.25.6-.5,1.2-.76,1.8l-.27.64a.41.41,0,0,1-.49.23.33.33,0,0,1-.26-.47l1-2.43s0,0,0,0a3.3,3.3,0,0,0-3.73,1.84,2.66,2.66,0,0,0,2,3.4,3.37,3.37,0,0,0,4.05-1.62A2.56,2.56,0,0,0,307.17,174.79Zm8.19,2.73a2.86,2.86,0,0,0,2.36,2.33,3.44,3.44,0,0,0,3.63-1.33,2.47,2.47,0,0,0-.63-3.31,3.61,3.61,0,0,0-3.15-.59c.08.15.16.3.25.45.35.65.71,1.29,1.07,1.94a.27.27,0,0,1,0,.21.39.39,0,0,1-.42.3h-3.15Zm-7.13-5.23,4.37,4.25,2.37-4.25Zm8.23,2-.85-1.52-2.25,4.07h1.16A3.5,3.5,0,0,1,316.46,174.26Zm-1.09,2.55h2.51l-1.06-1.9A2.75,2.75,0,0,0,315.37,176.81Z" transform="translate(-112.09 -70.99)"/><path class="cls-18" d="M300.7,224l0-.22a3,3,0,0,1,.57-1.38,4,4,0,0,1,2.54-1.55,4.42,4.42,0,0,1,1.81,0s.06,0,.07,0l1.52-3.6a1.2,1.2,0,0,1,1-.72h1.58v.7h-1.37a.44.44,0,0,0-.46.27l-.45,1.07s0,0,0,.05h6.79a.08.08,0,0,0,.08,0l.33-.6,0,0h-1.2a.4.4,0,0,1-.38-.22.31.31,0,0,1,.1-.39.42.42,0,0,1,.29-.09h3.11v.7h-1a.08.08,0,0,0-.07,0l-.54,1a.06.06,0,0,0,0,.06l1.09,2,0,0,.37-.09a4.59,4.59,0,0,1,1.38-.09,4.26,4.26,0,0,1,2.56,1.09,3.11,3.11,0,0,1-.23,4.86,4.16,4.16,0,0,1-2.1.87l-.36,0h-.56c-.22,0-.45-.05-.66-.09a4.06,4.06,0,0,1-2.2-1.19,3.16,3.16,0,0,1-.85-1.66l0-.19h-1.75a.53.53,0,0,1-.39-.15l-.7-.68-1.85-1.79-1.62-1.58-.3-.29-.45,1.07h0l0,0a3.5,3.5,0,0,1,2.22,2.64,2.79,2.79,0,0,1-.07,1.22,3.46,3.46,0,0,1-1.83,2.16,4.37,4.37,0,0,1-1.61.48l-.26,0h-.51c-.2,0-.41,0-.62-.08a4,4,0,0,1-2.59-1.63,3,3,0,0,1-.52-1.3l0-.23Zm5.47-2.22a.08.08,0,0,1,0,0l-.75,1.8-.27.64a.43.43,0,0,1-.5.23.34.34,0,0,1-.26-.47l1-2.43,0,0a3.28,3.28,0,0,0-3.72,1.84,2.65,2.65,0,0,0,2,3.4,3.37,3.37,0,0,0,4.05-1.61A2.57,2.57,0,0,0,306.17,221.76Zm8.19,2.73a2.87,2.87,0,0,0,2.36,2.33,3.43,3.43,0,0,0,3.63-1.33,2.45,2.45,0,0,0-.63-3.3,3.55,3.55,0,0,0-3.15-.59l.25.45L317.9,224a.39.39,0,0,1,0,.21.4.4,0,0,1-.43.3h-3.15Zm-7.13-5.23,4.38,4.26,2.36-4.26Zm8.24,2-.85-1.52-2.26,4.07h1.17A3.46,3.46,0,0,1,315.47,221.23Zm-1.1,2.55h2.51l-1.06-1.9A2.8,2.8,0,0,0,314.37,223.78Z" transform="translate(-112.09 -70.99)"/><path class="cls-18" d="M333.63,231.2a1.77,1.77,0,0,1,0-.23,2.91,2.91,0,0,1,.31-1.44,3.76,3.76,0,0,1,2.23-1.86,4.49,4.49,0,0,1,1.79-.23c.05,0,.06,0,.07-.05l.84-3.75a1.13,1.13,0,0,1,.86-.84.4.4,0,0,1,.15,0l1.38-.19h0l.12.69h-.06l-1.29.17a.41.41,0,0,0-.41.33c-.08.37-.16.74-.25,1.12a.13.13,0,0,1,0,0h.06l6.65-.88s.06,0,.07-.05c.07-.22.15-.43.22-.64,0,0,0,0,0-.06h-.07l-1.12.15a.46.46,0,0,1-.42-.17.33.33,0,0,1,0-.4.45.45,0,0,1,.27-.12l3-.4h.05l.13.69h-.06l-.89.12s-.06,0-.07,0l-.36,1a.13.13,0,0,0,0,.06l1.44,1.8,0,0,.36-.14a4.32,4.32,0,0,1,1.34-.27,4.44,4.44,0,0,1,2.73.75A3.31,3.31,0,0,1,354.1,228a3,3,0,0,1-.64,3.3,3.93,3.93,0,0,1-1.91,1.13l-.36.08-.05,0-.44.06H350a4.3,4.3,0,0,1-2.38-.89,3.37,3.37,0,0,1-1.14-1.52c0-.07-.05-.13-.07-.19h-.06l-1.67.22a.54.54,0,0,1-.41-.1l-.81-.58L341.28,228l-1.88-1.34-.35-.25-.25,1.11h0l.05,0a3.74,3.74,0,0,1,2.67,2.32,2.77,2.77,0,0,1,.15,1.21,3.28,3.28,0,0,1-1.42,2.37,4.12,4.12,0,0,1-1.5.69l-.26.06-.45.06s0,0-.05,0h-.63a4.24,4.24,0,0,1-2.86-1.27,3.16,3.16,0,0,1-.74-1.22l-.07-.22Zm5-2.92s0,0,0,.05l-.42,1.87-.15.67a.41.41,0,0,1-.45.29.35.35,0,0,1-.34-.43l.57-2.54a.11.11,0,0,1,0-.05,3.13,3.13,0,0,0-3.35,2.31,2.8,2.8,0,0,0,2.58,3.1,3.2,3.2,0,0,0,3.71-2.13A2.7,2.7,0,0,0,338.63,228.28Zm8.59,1.63a3.06,3.06,0,0,0,2.75,2,3.28,3.28,0,0,0,3.35-1.79,2.54,2.54,0,0,0-1.23-3.18,3.61,3.61,0,0,0-3.21-.17l.33.41,1.41,1.77a.32.32,0,0,1,.08.21.37.37,0,0,1-.37.34l-3,.41Zm-8-4.23,5.09,3.62,1.57-4.51Zm8.49.86-1.11-1.39-1.5,4.32,1.15-.15A3.32,3.32,0,0,1,347.72,226.54Zm-.62,2.66,2.48-.33-1.39-1.74A2.6,2.6,0,0,0,347.1,229.2Z" transform="translate(-112.09 -70.99)"/><path class="cls-18" d="M333.81,207.46a1.79,1.79,0,0,1,0-.23,2.8,2.8,0,0,1,.21-1.45,3.68,3.68,0,0,1,2.1-2,4.41,4.41,0,0,1,1.77-.31c.05,0,.06,0,.07-.05.2-1.26.39-2.53.59-3.79a1.1,1.1,0,0,1,.8-.88l.15,0,1.37-.25h0l.17.68-.06,0-1.28.23a.41.41,0,0,0-.38.35l-.18,1.13v.05h.06l6.57-1.2s.06,0,.07-.06L346,199s0,0,0-.05H346l-1.11.2a.44.44,0,0,1-.43-.15.3.3,0,0,1,0-.39.4.4,0,0,1,.26-.15l3-.54h.06l.17.68h-.06l-.89.17a.06.06,0,0,0-.06,0c-.09.35-.19.7-.29,1.05a.08.08,0,0,0,0,.06c.52.57,1,1.15,1.55,1.73l0,0,.34-.16a4.92,4.92,0,0,1,1.32-.33,4.47,4.47,0,0,1,2.77.62A3.42,3.42,0,0,1,354,203.3a3,3,0,0,1-.42,3.33,3.85,3.85,0,0,1-1.83,1.22l-.35.1-.05,0-.44.08h-.06c-.22,0-.44,0-.67,0a4.35,4.35,0,0,1-2.43-.77,3.39,3.39,0,0,1-1.25-1.47c0-.06-.05-.12-.07-.19l-.07,0-1.65.3a.53.53,0,0,1-.41-.08l-.85-.54-2.25-1.42-2-1.25-.37-.23-.17,1.12h.06a3.84,3.84,0,0,1,2.82,2.19,2.76,2.76,0,0,1,.23,1.2,3.2,3.2,0,0,1-1.26,2.44,4,4,0,0,1-1.45.75l-.25.08-.45.08h-.05c-.21,0-.42,0-.62,0a4.32,4.32,0,0,1-2.94-1.12,3.21,3.21,0,0,1-.83-1.19c0-.07-.05-.14-.08-.22Zm4.8-3.16a.07.07,0,0,1,0,0c-.1.63-.19,1.26-.29,1.9,0,.22-.07.45-.11.67a.39.39,0,0,1-.43.31.36.36,0,0,1-.37-.41c.14-.86.27-1.71.4-2.56a.11.11,0,0,0,0,0,3,3,0,0,0-3.19,2.47,2.86,2.86,0,0,0,2.79,3,3.14,3.14,0,0,0,3.56-2.3A2.76,2.76,0,0,0,338.61,204.3Zm8.68,1.21a3.14,3.14,0,0,0,2.88,1.86,3.19,3.19,0,0,0,3.22-2A2.57,2.57,0,0,0,352,202.3a3.6,3.6,0,0,0-3.22,0l.35.39,1.53,1.7a.33.33,0,0,1,.09.2.36.36,0,0,1-.34.37l-3,.55ZM339,201.68l5.33,3.37,1.27-4.58Zm8.54.45-1.2-1.33-1.21,4.38,1.14-.21A3.21,3.21,0,0,1,347.57,202.13Zm-.44,2.69,2.45-.45-1.5-1.67A2.52,2.52,0,0,0,347.13,204.82Z" transform="translate(-112.09 -70.99)"/><path class="cls-18" d="M306.84,254.11l0-.22a3.07,3.07,0,0,1,.57-1.39A4,4,0,0,1,310,251a4.46,4.46,0,0,1,1.82,0s.06,0,.07,0l1.51-3.6a1.21,1.21,0,0,1,1-.72H316v.7h-1.37a.42.42,0,0,0-.46.27l-.45,1.07s0,0,0,.05h6.79a.08.08,0,0,0,.08,0l.33-.6,0-.06h-1.2a.4.4,0,0,1-.39-.22.31.31,0,0,1,.11-.38.43.43,0,0,1,.29-.1h3.1v.7h-1s-.06,0-.07,0l-.54,1a.06.06,0,0,0,0,.06l1.09,2,0,0,.37-.1a4.55,4.55,0,0,1,1.38-.08,4.29,4.29,0,0,1,2.56,1.09,3.1,3.1,0,0,1-.24,4.86,4.17,4.17,0,0,1-2.09.87l-.37,0h-.55c-.22,0-.45,0-.66-.08a4.09,4.09,0,0,1-2.2-1.19,3.09,3.09,0,0,1-.85-1.66l0-.19H317.9a.56.56,0,0,1-.39-.15l-.69-.68L315,252l-1.62-1.57-.3-.29-.45,1.07h0l.05,0a3.49,3.49,0,0,1,2.22,2.64,2.79,2.79,0,0,1-.07,1.22,3.53,3.53,0,0,1-1.83,2.16,4.37,4.37,0,0,1-1.61.48l-.26,0h-.51a6.18,6.18,0,0,1-.62-.07,4,4,0,0,1-2.6-1.63,3,3,0,0,1-.51-1.3l0-.24Zm5.47-2.23s0,0,0,.05c-.25.6-.5,1.2-.76,1.8-.09.21-.17.43-.27.64a.4.4,0,0,1-.49.22.33.33,0,0,1-.26-.47l1-2.43s0,0,0-.05a3.29,3.29,0,0,0-3.72,1.85,2.65,2.65,0,0,0,2,3.4,3.38,3.38,0,0,0,4.05-1.62A2.57,2.57,0,0,0,312.31,251.88Zm8.19,2.74a2.88,2.88,0,0,0,2.36,2.33,3.43,3.43,0,0,0,3.63-1.34,2.45,2.45,0,0,0-.63-3.3,3.61,3.61,0,0,0-3.15-.59c.08.15.16.3.25.45l1.07,1.94a.27.27,0,0,1,0,.21.4.4,0,0,1-.42.3H320.5Zm-7.13-5.23,4.38,4.25,2.36-4.25Zm8.23,2-.85-1.52-2.25,4.07h1.16A3.5,3.5,0,0,1,321.6,251.36Zm-1.09,2.55H323L322,252A2.77,2.77,0,0,0,320.51,253.91Z" transform="translate(-112.09 -70.99)"/><path class="cls-18" d="M271.74,269.67l0-.22a2.92,2.92,0,0,1,.57-1.39,4,4,0,0,1,2.53-1.55,4.6,4.6,0,0,1,1.81,0c.05,0,.06,0,.08,0,.5-1.2,1-2.4,1.51-3.6a1.21,1.21,0,0,1,1-.72h1.59v.69h-1.38a.42.42,0,0,0-.45.28l-.45,1.07a.08.08,0,0,0,0,.05h6.78a.08.08,0,0,0,.08,0l.34-.6s0,0,0-.06h-1.21a.41.41,0,0,1-.38-.22.33.33,0,0,1,.1-.39.48.48,0,0,1,.29-.09h3.11v.7h-1a.08.08,0,0,0-.07,0l-.54,1a.06.06,0,0,0,0,.06l1.1,2v0l.38-.09a4.56,4.56,0,0,1,3.93,1,3.11,3.11,0,0,1,1,1.68,3.07,3.07,0,0,1-1.22,3.18,4.21,4.21,0,0,1-2.09.87l-.37,0h-.56c-.22,0-.44,0-.66-.09a4.05,4.05,0,0,1-2.19-1.18,3.14,3.14,0,0,1-.86-1.66l0-.19H282.8a.53.53,0,0,1-.39-.15l-.7-.68-1.85-1.8L278.25,266l-.3-.29-.45,1.07h0l.05,0a3.49,3.49,0,0,1,2.21,2.64,2.61,2.61,0,0,1-.07,1.21,3.47,3.47,0,0,1-1.82,2.17,4.28,4.28,0,0,1-1.61.47l-.27,0h-.51a4.25,4.25,0,0,1-.61-.08,4,4,0,0,1-2.6-1.62,3,3,0,0,1-.51-1.31l0-.23Zm5.47-2.23,0,.05-.75,1.8-.27.64a.43.43,0,0,1-.5.22.33.33,0,0,1-.25-.47l1-2.43s0,0,0-.05a3.3,3.3,0,0,0-3.73,1.85,2.65,2.65,0,0,0,2,3.4,3.37,3.37,0,0,0,4-1.62A2.57,2.57,0,0,0,277.21,267.44Zm8.19,2.74a2.88,2.88,0,0,0,2.35,2.33,3.44,3.44,0,0,0,3.64-1.34,2.46,2.46,0,0,0-.64-3.3,3.61,3.61,0,0,0-3.15-.59c.09.15.17.3.25.45l1.08,1.93a.29.29,0,0,1,0,.22.4.4,0,0,1-.42.3H285.4ZM278.26,265l4.38,4.25L285,265Zm8.24,2-.85-1.51-2.26,4.06h1.17A3.5,3.5,0,0,1,286.5,266.91Zm-1.09,2.55h2.51l-1.06-1.9A2.75,2.75,0,0,0,285.41,269.46Z" transform="translate(-112.09 -70.99)"/><path class="cls-18" d="M306.84,289.67l0-.23a3,3,0,0,1,.57-1.38,4,4,0,0,1,2.53-1.55,4.65,4.65,0,0,1,1.82,0s.06,0,.07,0c.5-1.2,1-2.4,1.51-3.59a1.21,1.21,0,0,1,1-.72l.15,0H316v.7h-1.37a.42.42,0,0,0-.46.28l-.45,1.07s0,0,0,0h6.79a.07.07,0,0,0,.08-.05l.33-.6,0-.05h-1.2a.42.42,0,0,1-.39-.22.32.32,0,0,1,.11-.39.48.48,0,0,1,.29-.09h3.1v.7h-1s-.06,0-.07,0l-.54,1a.06.06,0,0,0,0,.06c.36.66.72,1.32,1.09,2l0,0,.37-.09a4.55,4.55,0,0,1,1.38-.09,4.3,4.3,0,0,1,2.56,1.1,3,3,0,0,1,1,1.68,3.08,3.08,0,0,1-1.23,3.17,4.09,4.09,0,0,1-2.09.87l-.37,0h-.55c-.22,0-.45,0-.66-.09a4.08,4.08,0,0,1-2.2-1.18,3.12,3.12,0,0,1-.85-1.66l0-.2H317.9a.52.52,0,0,1-.39-.15l-.69-.68L315,287.55,313.35,286l-.3-.29-.45,1.06h0l.05,0a3.5,3.5,0,0,1,2.22,2.65,2.76,2.76,0,0,1-.07,1.21A3.53,3.53,0,0,1,313,292.8a4.19,4.19,0,0,1-1.61.48l-.26,0h-.51c-.21,0-.42,0-.62-.08a4,4,0,0,1-2.6-1.63,3,3,0,0,1-.51-1.3l0-.23Zm5.47-2.23,0,.05c-.25.6-.5,1.19-.76,1.79-.09.22-.17.43-.27.65a.41.41,0,0,1-.49.22.33.33,0,0,1-.26-.47l1-2.43,0-.05a3.29,3.29,0,0,0-3.72,1.84,2.65,2.65,0,0,0,2,3.4,3.38,3.38,0,0,0,4.05-1.61A2.57,2.57,0,0,0,312.31,287.44Zm8.19,2.73a2.86,2.86,0,0,0,2.36,2.33,3.43,3.43,0,0,0,3.63-1.33,2.45,2.45,0,0,0-.63-3.3,3.55,3.55,0,0,0-3.15-.59c.08.15.16.3.25.45l1.07,1.93a.29.29,0,0,1,0,.22.39.39,0,0,1-.42.29H320.5Zm-7.13-5.23,4.38,4.26,2.36-4.26Zm8.23,2-.85-1.51-2.25,4.06h1.16A3.52,3.52,0,0,1,321.6,286.91Zm-1.09,2.55H323l-1.06-1.9A2.77,2.77,0,0,0,320.51,289.46Z" transform="translate(-112.09 -70.99)"/><path class="cls-18" d="M336,274.74l.11-.21a3.34,3.34,0,0,1,1-1.19,4.36,4.36,0,0,1,2.94-.89,4.47,4.47,0,0,1,1.73.44s.06,0,.09,0l2.63-3.09a1.33,1.33,0,0,1,1.19-.45l.15,0,1.34.33h0l-.23.67h-.06l-1.26-.32a.48.48,0,0,0-.53.16l-.78.92,0,0,.06,0,6.45,1.6a.1.1,0,0,0,.09,0l.52-.5.05-.05h-.07l-1.09-.27a.35.35,0,0,1-.29-.3.33.33,0,0,1,.22-.35.41.41,0,0,1,.31,0l2.93.72,0,0-.23.67h-.05l-.87-.22a.07.07,0,0,0-.08,0l-.84.81a0,0,0,0,0,0,.06c.13.71.27,1.43.41,2.15v0h.39a4.35,4.35,0,0,1,1.35.24,3.83,3.83,0,0,1,2.1,1.66,2.85,2.85,0,0,1,.4,1.85,3.41,3.41,0,0,1-2.21,2.76,4.38,4.38,0,0,1-2.3.34l-.36-.05h-.05l-.43-.1-.05,0a5.56,5.56,0,0,1-.61-.25,3.56,3.56,0,0,1-1.72-1.66,2.86,2.86,0,0,1-.28-1.79,1.42,1.42,0,0,1,0-.2h-.07l-1.62-.4a.47.47,0,0,1-.32-.24l-.45-.82-1.19-2.16-1-1.9-.19-.35-.78.92h0l.05,0a3.15,3.15,0,0,1,1.26,3.07,2.93,2.93,0,0,1-.46,1.15,4,4,0,0,1-2.47,1.64,4.61,4.61,0,0,1-1.7.08l-.26,0-.44-.11,0,0a5.59,5.59,0,0,1-.57-.22,3.5,3.5,0,0,1-2-2.18,2.81,2.81,0,0,1-.07-1.38c0-.07,0-.15.05-.23Zm6-.84,0,0c-.44.51-.87,1-1.31,1.55l-.47.55a.47.47,0,0,1-.55.1.32.32,0,0,1-.1-.52c.6-.69,1.19-1.39,1.78-2.09l0,0a3.54,3.54,0,0,0-4.18.88,2.48,2.48,0,0,0,.81,3.74,3.56,3.56,0,0,0,4.41-.59A2.42,2.42,0,0,0,342,273.9Zm7,4.57a2.56,2.56,0,0,0,1.5,2.8,3.6,3.6,0,0,0,3.92-.42,2.43,2.43,0,0,0,.47-3.32,3.32,3.32,0,0,0-2.83-1.31c0,.16.06.33.1.49.13.7.26,1.41.4,2.11a.33.33,0,0,1,0,.22.46.46,0,0,1-.51.18l-2.95-.73Zm-5.14-6.72,2.81,5.13,3.66-3.52Zm7.26,3.85-.32-1.65-3.5,3.36,1.12.28A4,4,0,0,1,351.05,275.6Zm-1.88,2.19,2.41.6-.39-2.08A3.13,3.13,0,0,0,349.17,277.79Z" transform="translate(-112.09 -70.99)"/><path class="cls-18" d="M342.38,254.57c0-.07.05-.14.07-.21a3.31,3.31,0,0,1,.81-1.3,4.24,4.24,0,0,1,2.79-1.19,4.3,4.3,0,0,1,1.78.24c.05,0,.06,0,.08,0l2.15-3.36a1.27,1.27,0,0,1,1.11-.58h.15l1.39.18h0l-.12.69h-.07l-1.29-.17a.44.44,0,0,0-.5.22c-.21.33-.42.66-.64,1l0,.05h.06l6.64.88a.1.1,0,0,0,.09,0c.14-.19.29-.37.44-.55l0,0h-.06l-1.13-.15a.37.37,0,0,1-.33-.27.33.33,0,0,1,.17-.37.5.5,0,0,1,.3,0l3,.4h.05l-.12.69h-.06l-.9-.12s-.05,0-.07,0c-.24.3-.48.59-.71.89a.07.07,0,0,0,0,.06c.24.7.49,1.4.73,2.09v0l.39,0a4.21,4.21,0,0,1,1.37.1,4,4,0,0,1,2.34,1.41,3,3,0,0,1,.67,1.79,3.24,3.24,0,0,1-1.78,3,4.41,4.41,0,0,1-2.22.59l-.37,0h-.05l-.45-.06-.05,0c-.21-.06-.43-.1-.64-.17a3.9,3.9,0,0,1-2-1.46A3,3,0,0,1,355,257v-.2h-.06l-1.67-.22a.51.51,0,0,1-.36-.2l-.56-.76-1.51-2-1.31-1.77-.25-.33-.63,1h0l0,0a3.25,3.25,0,0,1,1.71,2.9,2.77,2.77,0,0,1-.28,1.19,3.73,3.73,0,0,1-2.2,1.9,4.46,4.46,0,0,1-1.67.26h-.27l-.45-.06h-.05c-.2-.06-.4-.09-.59-.16a3.78,3.78,0,0,1-2.28-1.95,2.89,2.89,0,0,1-.27-1.35c0-.08,0-.16,0-.24Zm5.81-1.48,0,0-1.07,1.68c-.13.2-.26.4-.38.6a.45.45,0,0,1-.53.16.32.32,0,0,1-.17-.5l1.44-2.27,0-.05a3.45,3.45,0,0,0-4,1.34,2.54,2.54,0,0,0,1.36,3.62,3.49,3.49,0,0,0,4.29-1.07A2.48,2.48,0,0,0,348.19,253.09Zm7.6,3.77a2.7,2.7,0,0,0,1.91,2.62,3.57,3.57,0,0,0,3.83-.85,2.43,2.43,0,0,0,0-3.34,3.46,3.46,0,0,0-3-1l.17.48c.23.68.47,1.37.71,2a.28.28,0,0,1,0,.22.42.42,0,0,1-.47.23l-3-.4Zm-6.11-6.1,3.56,4.78,3.1-3.9Zm7.79,3-.57-1.6-3,3.72,1.15.15A3.74,3.74,0,0,1,357.47,253.78Zm-1.54,2.38,2.48.33-.71-2A2.94,2.94,0,0,0,355.93,256.16Z" transform="translate(-112.09 -70.99)"/><path class="cls-18" d="M296,322l0-.23a3,3,0,0,1,.57-1.38,4,4,0,0,1,2.53-1.55,4.65,4.65,0,0,1,1.82,0s.05,0,.07,0c.5-1.2,1-2.39,1.51-3.59a1.21,1.21,0,0,1,1-.72l.15,0h1.44v.7h-1.37a.42.42,0,0,0-.46.28l-.45,1.07s0,0,0,0h6.79s.06,0,.07,0l.34-.6,0-.05h-1.21a.41.41,0,0,1-.38-.22.32.32,0,0,1,.11-.39.48.48,0,0,1,.29-.09H312v.7h-1s-.06,0-.07,0l-.54,1a.15.15,0,0,0,0,.06c.37.66.73,1.32,1.1,2l0,0,.37-.09a4.55,4.55,0,0,1,1.38-.09,4.3,4.3,0,0,1,2.56,1.1,3.14,3.14,0,0,1,1,1.68,3.08,3.08,0,0,1-1.23,3.17,4.09,4.09,0,0,1-2.09.87l-.37,0h-.55c-.22,0-.45,0-.67-.09a4.09,4.09,0,0,1-2.19-1.18,3.12,3.12,0,0,1-.85-1.66,1.42,1.42,0,0,1,0-.2h-1.75a.51.51,0,0,1-.39-.15l-.7-.67-1.84-1.8-1.62-1.57-.3-.29-.45,1.06h0l.05,0a3.44,3.44,0,0,1,2.21,2.64A2.75,2.75,0,0,1,304,323a3.5,3.5,0,0,1-1.83,2.16,4.19,4.19,0,0,1-1.61.48l-.26,0h-.51c-.21,0-.42,0-.62-.08a4,4,0,0,1-2.6-1.63,2.86,2.86,0,0,1-.51-1.3l0-.23Zm5.47-2.23s0,0,0,.05c-.25.6-.5,1.19-.76,1.79l-.27.65a.41.41,0,0,1-.49.22.33.33,0,0,1-.26-.47l1-2.43,0,0a3.31,3.31,0,0,0-3.73,1.85,2.66,2.66,0,0,0,2,3.39,3.38,3.38,0,0,0,4.05-1.61A2.57,2.57,0,0,0,301.48,319.78Zm8.19,2.73a2.88,2.88,0,0,0,2.36,2.34,3.45,3.45,0,0,0,3.63-1.34,2.46,2.46,0,0,0-.63-3.3,3.55,3.55,0,0,0-3.15-.59c.08.15.16.3.25.45L313.2,322a.29.29,0,0,1,0,.22.39.39,0,0,1-.42.29h-3.15Zm-7.13-5.23,4.37,4.26,2.37-4.26Zm8.23,2-.85-1.51-2.25,4.06h1.16A3.52,3.52,0,0,1,310.77,319.25Zm-1.09,2.55h2.51l-1.06-1.9A2.75,2.75,0,0,0,309.68,321.8Z" transform="translate(-112.09 -70.99)"/><path class="cls-18" d="M333,312.56a2,2,0,0,0,.1-.21,3.29,3.29,0,0,1,.95-1.22,4.56,4.56,0,0,1,4.66-.58.05.05,0,0,0,.08,0l2.51-3.17a1.32,1.32,0,0,1,1.18-.48l.15,0,1.35.29h0l-.2.67h-.07l-1.26-.27a.45.45,0,0,0-.53.17c-.25.31-.5.62-.74.94l0,0h.06l6.52,1.42a.08.08,0,0,0,.09,0l.5-.51,0-.05h-.06l-1.11-.24a.38.38,0,0,1-.3-.3.34.34,0,0,1,.21-.35.47.47,0,0,1,.31,0l3,.64.05,0-.21.67h-.05l-.88-.19a.07.07,0,0,0-.08,0l-.81.83a.14.14,0,0,0,0,.06c.17.71.33,1.43.49,2.14v0h.39a4.44,4.44,0,0,1,1.36.21,3.83,3.83,0,0,1,2.16,1.6,2.84,2.84,0,0,1,.48,1.84,3.36,3.36,0,0,1-2.11,2.81,4.41,4.41,0,0,1-2.28.41l-.37-.05h-.05l-.43-.09,0,0c-.21-.08-.42-.14-.62-.23a3.67,3.67,0,0,1-1.79-1.61,3,3,0,0,1-.34-1.79l0-.19-.07,0-1.63-.35a.47.47,0,0,1-.34-.23l-.48-.8c-.42-.71-.84-1.42-1.27-2.13l-1.11-1.87-.21-.34-.74.94h0l0,0a3.17,3.17,0,0,1,1.38,3,2.76,2.76,0,0,1-.42,1.16,3.85,3.85,0,0,1-2.4,1.71,4.58,4.58,0,0,1-1.69.13l-.27,0-.44-.09-.05,0a5.54,5.54,0,0,1-.57-.21,3.59,3.59,0,0,1-2.05-2.12,2.91,2.91,0,0,1-.12-1.37c0-.08,0-.16,0-.23Zm5.95-1,0,0-1.26,1.58-.44.57a.44.44,0,0,1-.55.11.31.31,0,0,1-.11-.51c.56-.71,1.13-1.42,1.69-2.14l0,0a3.51,3.51,0,0,0-4.14,1,2.49,2.49,0,0,0,.95,3.71,3.54,3.54,0,0,0,4.39-.71A2.44,2.44,0,0,0,338.93,311.55Zm7.14,4.38a2.62,2.62,0,0,0,1.61,2.75,3.59,3.59,0,0,0,3.91-.53,2.43,2.43,0,0,0,.34-3.33,3.36,3.36,0,0,0-2.88-1.23c0,.16.08.32.11.49l.48,2.1a.26.26,0,0,1,0,.21.42.42,0,0,1-.49.2l-3-.65Zm-5.39-6.57,3,5,3.52-3.62Zm7.41,3.64-.39-1.65-3.36,3.47,1.13.24A3.89,3.89,0,0,1,348.09,313Zm-1.8,2.24,2.43.53-.47-2.07A3.1,3.1,0,0,0,346.29,315.24Z" transform="translate(-112.09 -70.99)"/><path class="cls-18" d="M272.2,303.18l0-.22a3.07,3.07,0,0,1,.57-1.39,4,4,0,0,1,2.53-1.54,4.42,4.42,0,0,1,1.81,0c.05,0,.06,0,.08,0,.5-1.2,1-2.4,1.51-3.6a1.21,1.21,0,0,1,1-.72h1.59v.7H280c-.25,0-.38.07-.46.27l-.45,1.07s0,0,0,.05h6.78a.08.08,0,0,0,.08,0l.34-.6,0-.06H285a.4.4,0,0,1-.38-.22.33.33,0,0,1,.1-.39.5.5,0,0,1,.29-.09h3.11v.7h-1s-.06,0-.07,0l-.55,1a.06.06,0,0,0,0,.06c.37.65.73,1.31,1.1,2v0l.38-.09a4.56,4.56,0,0,1,3.93,1,3.11,3.11,0,0,1,1,1.68,3.07,3.07,0,0,1-1.22,3.18,4.17,4.17,0,0,1-2.09.87l-.37,0h-.55c-.23,0-.45,0-.67-.08a4.06,4.06,0,0,1-2.19-1.19,3.1,3.1,0,0,1-.86-1.66l0-.19h-1.75a.53.53,0,0,1-.39-.15l-.7-.68-1.85-1.8-1.61-1.57-.3-.29-.45,1.07h0l0,0a3.47,3.47,0,0,1,2.21,2.64,2.75,2.75,0,0,1-.06,1.21,3.52,3.52,0,0,1-1.83,2.17,4.43,4.43,0,0,1-1.61.48l-.26,0H276a6.18,6.18,0,0,1-.62-.07,4,4,0,0,1-2.6-1.63,2.91,2.91,0,0,1-.51-1.3l0-.24Zm5.47-2.23,0,.05c-.26.6-.51,1.2-.76,1.8l-.27.64a.4.4,0,0,1-.49.22.33.33,0,0,1-.26-.47l1-2.43,0-.05a3.3,3.3,0,0,0-3.73,1.85,2.66,2.66,0,0,0,2,3.4,3.38,3.38,0,0,0,4.05-1.62A2.57,2.57,0,0,0,277.67,301Zm8.19,2.74a2.88,2.88,0,0,0,2.36,2.33,3.43,3.43,0,0,0,3.63-1.34,2.45,2.45,0,0,0-.64-3.3,3.59,3.59,0,0,0-3.14-.59l.24.45,1.08,1.94a.26.26,0,0,1,0,.21.4.4,0,0,1-.42.3h-3.15Zm-7.14-5.23,4.38,4.25,2.37-4.25Zm8.24,2-.85-1.51L283.85,303H285A3.49,3.49,0,0,1,287,300.42ZM285.87,303h2.51l-1.06-1.91A2.74,2.74,0,0,0,285.87,303Z" transform="translate(-112.09 -70.99)"/><path class="cls-18" d="M271.47,241.2l0-.22a3.07,3.07,0,0,1,.57-1.39,4,4,0,0,1,2.53-1.54,4.46,4.46,0,0,1,1.82,0s.06,0,.07,0l1.51-3.6a1.21,1.21,0,0,1,1-.72h1.59v.7h-1.37a.42.42,0,0,0-.46.27l-.45,1.07s0,0,0,.05h6.79a.08.08,0,0,0,.08,0l.33-.6a.33.33,0,0,0,0-.06h-1.2a.4.4,0,0,1-.39-.22.31.31,0,0,1,.11-.38.43.43,0,0,1,.29-.1h3.1v.7h-1s-.06,0-.07,0l-.54,1a.06.06,0,0,0,0,.06l1.09,2,0,0,.37-.1a4.89,4.89,0,0,1,1.38-.08,4.29,4.29,0,0,1,2.56,1.09,3.1,3.1,0,0,1-.24,4.86,4.17,4.17,0,0,1-2.09.87c-.12,0-.24,0-.37,0H288c-.22,0-.45,0-.66-.08a4,4,0,0,1-2.2-1.19,3.09,3.09,0,0,1-.85-1.66l0-.19h-1.76a.56.56,0,0,1-.39-.15l-.69-.68-1.85-1.8L278,237.51l-.3-.29-.45,1.07h0l.05,0a3.49,3.49,0,0,1,2.22,2.64,2.79,2.79,0,0,1-.07,1.22,3.53,3.53,0,0,1-1.83,2.16,4.37,4.37,0,0,1-1.61.48l-.26,0h-.51a6.18,6.18,0,0,1-.62-.07,4,4,0,0,1-2.6-1.63,3,3,0,0,1-.51-1.3l0-.24Zm5.47-2.23s0,0,0,.05c-.25.6-.5,1.2-.76,1.8-.09.21-.17.43-.27.64a.41.41,0,0,1-.49.23.34.34,0,0,1-.26-.47l1-2.44s0,0,0-.05a3.29,3.29,0,0,0-3.72,1.85,2.65,2.65,0,0,0,2,3.4,3.37,3.37,0,0,0,4.05-1.62A2.57,2.57,0,0,0,276.94,239Zm8.19,2.74a2.88,2.88,0,0,0,2.36,2.33,3.43,3.43,0,0,0,3.63-1.34,2.45,2.45,0,0,0-.63-3.3,3.61,3.61,0,0,0-3.15-.59c.08.15.16.3.25.45l1.07,1.94a.27.27,0,0,1,0,.21.4.4,0,0,1-.42.3h-3.15ZM278,236.48l4.38,4.25,2.36-4.25Zm8.23,2-.85-1.52L283.13,241h1.16A3.5,3.5,0,0,1,286.23,238.45ZM285.14,241h2.51l-1.06-1.91A2.77,2.77,0,0,0,285.14,241Z" transform="translate(-112.09 -70.99)"/><path class="cls-19" d="M323.59,98.73" transform="translate(-112.09 -70.99)"/><ellipse class="cls-20" cx="148.78" cy="63.74" rx="49.59" ry="63.74"/><rect class="cls-21" x="233.5" y="110.2" width="23.86" height="14.83" rx="4.43" ry="4.43" transform="translate(378.76 164.24) rotate(180)"/><rect class="cls-22" x="264.58" y="110.2" width="23.86" height="14.83" rx="4.43" ry="4.43" transform="translate(440.92 164.24) rotate(180)"/><ellipse class="cls-23" cx="133.33" cy="46.63" rx="2.37" ry="2.94"/><ellipse class="cls-23" cx="164.42" cy="46.63" rx="2.37" ry="2.94"/><path class="cls-24" d="M211.86,123l21-35.52s38.49,6.71,53,0l22.3,31.32s-6-26.15-20-36.88c-9.84-7.49-12.77-8-13.6-8.47-1.26-.78-2-.5-2.66-.71-4.86-1.54-21-4.27-37.15,7.48C215.27,94.33,211.86,123,211.86,123Z" transform="translate(-112.09 -70.99)"/><path class="cls-25" d="M285.91,87.57l22.08,31s-5.9-25.91-19.84-36.51C286.81,81.05,290,83.65,285.91,87.57Z" transform="translate(-112.09 -70.99)"/><path class="cls-26" d="M309.42,144s-46,62.65-98.77,0c0,0,5.59,52.76,49.59,55.62C260.24,199.62,302.51,201.08,309.42,144Z" transform="translate(-112.09 -70.99)"/><line class="cls-19" x1="135.7" y1="96.85" x2="162.05" y2="96.85"/><path class="cls-27" d="M247.79,167.84a25.13,25.13,0,0,1,6.59-2,39.59,39.59,0,0,1,6.59-.54,38.42,38.42,0,0,1,6.58.53,24.57,24.57,0,0,1,6.59,2,24.91,24.91,0,0,1-6.59,2,38.42,38.42,0,0,1-6.58.53,39.59,39.59,0,0,1-6.59-.54A25.48,25.48,0,0,1,247.79,167.84Z" transform="translate(-112.09 -70.99)"/><line class="cls-19" x1="134.26" y1="96.85" x2="163.75" y2="96.85"/><path class="cls-28" d="M246.35,167.84c2.46-.16,4.92-.23,7.38-.29s4.91-.06,7.37-.09,4.91,0,7.37.09,4.91.13,7.37.29c-2.46.15-4.91.22-7.37.28s-4.92.06-7.37.09-4.92,0-7.37-.09S248.81,168,246.35,167.84Z" transform="translate(-112.09 -70.99)"/><polyline class="cls-29" points="154.41 78.63 149.38 80.17 143.34 78.41 148.31 55.15"/><polyline class="cls-30" points="149.38 80.17 143.34 78.41 148.31 55.15"/><path class="cls-20" d="M263.89,117.44s-2.55-3.35-5.85,0" transform="translate(-112.09 -70.99)"/><path class="cls-31" d="M263.85,117.47a8.58,8.58,0,0,0-2.86-.61,5.1,5.1,0,0,0-1.27.18c-.24,0-.49.14-.76.2a5.9,5.9,0,0,1-.88.23l-.07-.07.62-.57a5.53,5.53,0,0,1,.71-.48,3.49,3.49,0,0,1,1.64-.49,3.9,3.9,0,0,1,2.95,1.55Z" transform="translate(-112.09 -70.99)"/><ellipse class="cls-32" cx="164.42" cy="46.63" rx="1.21" ry="1.5"/><ellipse class="cls-32" cx="133.33" cy="46.63" rx="1.21" ry="1.5"/><path class="cls-33" d="M210.65,144s12.82,39.13,30.44,49.19C241.09,193.19,220.61,190.26,210.65,144Z" transform="translate(-112.09 -70.99)"/></svg>