<svg id="Layer_1" data-name="Layer 1" xmlns="http://www.w3.org/2000/svg" xmlns:xlink="http://www.w3.org/1999/xlink" viewBox="0 0 308.22 417.9"><defs><style>.cls-1{fill:#e4e1c7;}.cls-2{fill:#512e2a;}.cls-3,.cls-4{fill:#9e2b20;}.cls-14,.cls-23,.cls-4,.cls-6{stroke:#231f20;}.cls-14,.cls-15,.cls-16,.cls-17,.cls-21,.cls-22,.cls-23,.cls-32,.cls-4,.cls-6,.cls-8{stroke-miterlimit:10;}.cls-5{fill:#231f20;}.cls-16,.cls-6,.cls-8{fill:none;}.cls-23,.cls-6{stroke-width:0.25px;}.cls-7{fill:#c2b59b;}.cls-8{stroke:#9b8579;}.cls-9{fill:#b1a58e;}.cls-10{fill:#9b8579;}.cls-11{fill:#1e4496;}.cls-12,.cls-17{fill:#234093;}.cls-13{fill:#124b9a;}.cls-14,.cls-15,.cls-20,.cls-21,.cls-22,.cls-23{fill:#fff;}.cls-15{stroke:#f9a560;}.cls-16{stroke:#283c91;}.cls-17{stroke:#262262;stroke-width:0.5px;}.cls-18{fill:#fff200;}.cls-19{fill:#d1d3d4;}.cls-21{stroke:url(#White_Black);}.cls-22{stroke:url(#White_Black-2);}.cls-24{fill:#fde79e;}.cls-25{fill:#fbeac8;}.cls-26{fill:#e5e1c5;}.cls-27{fill:#f9c9de;}.cls-28{fill:#8d536f;}.cls-29{fill:#e3e2db;}.cls-30{fill:#d0cca8;}.cls-31{fill:url(#White_Black-3);}.cls-32{fill:#2e3192;stroke:#00aeef;}.cls-33{fill:#cfcdb4;}</style><linearGradient id="White_Black" x1="266.1" y1="119.85" x2="292.1" y2="119.85" gradientTransform="matrix(1, 0, 0, -1, -34.71, 239.69)" gradientUnits="userSpaceOnUse"><stop offset="0" stop-color="#fff"/><stop offset="1" stop-color="#231f20"/></linearGradient><linearGradient id="White_Black-2" x1="233.53" y1="119.85" x2="259.53" y2="119.85" gradientTransform="matrix(1, 0, 0, -1, 30.43, 239.69)" xlink:href="#White_Black"/><linearGradient id="White_Black-3" x1="264.14" y1="118.85" x2="257.25" y2="118.85" gradientTransform="matrix(1, 0, 0, 1, 0, 0)" xlink:href="#White_Black"/></defs><title>13</title><polyline class="cls-1" points="176.46 334.96 169.85 400.24 162.42 399.87 161.67 334.22"/><polyline class="cls-1" points="130.35 334.96 136.96 400.24 144.4 399.87 145.15 334.22"/><path class="cls-2" d="M230.77,475.18s-20.25,10.71-7.52,12.21l12.73,1.5h16.19s6.73-4.74,6.73-11.59" transform="translate(-106.29 -70.99)"/><path class="cls-2" d="M286.2,475.18s20.24,10.71,7.52,12.21L281,488.89H264.8s-5.9-4.74-5.9-11.59" transform="translate(-106.29 -70.99)"/><path class="cls-3" d="M244.2,470.46s-33.1,10.7-20.38,12.2l12.73,1.49h16.19s6.16,0,6.16-6.85l-7.23-6.23h-.53" transform="translate(-106.29 -70.99)"/><path class="cls-3" d="M266.6,470.13l-7.39,7.17c0,6.85,6.16,6.85,6.16,6.85h16.19l12.73-1.49c12.73-1.5-18.15-12.21-18.15-12.21" transform="translate(-106.29 -70.99)"/><path class="cls-4" d="M259.31,477" transform="translate(-106.29 -70.99)"/><path class="cls-5" d="M270.57,414.52v2.22a3.22,3.22,0,0,1,0,.62,3.21,3.21,0,0,0,0-.62v-2.22a2.57,2.57,0,0,1,0-.62,2.57,2.57,0,0,0,0,.62Z" transform="translate(-106.29 -70.99)"/><path class="cls-5" d="M275.4,418.15v1.21a3.22,3.22,0,0,1,0,.62,3.2,3.2,0,0,0,0-.62v-1.21a3.22,3.22,0,0,1,0-.62,3.2,3.2,0,0,0,0,.62Z" transform="translate(-106.29 -70.99)"/><path class="cls-5" d="M277,422v1.21a2.57,2.57,0,0,1,0,.62,2.57,2.57,0,0,0,0-.62V422a3.33,3.33,0,0,1,0-.63,3.32,3.32,0,0,0,0,.63Z" transform="translate(-106.29 -70.99)"/><path class="cls-5" d="M280,421.78v.2a3.22,3.22,0,0,1,0,.62,3.21,3.21,0,0,0,0-.62v-.2a2.66,2.66,0,0,1,0-.63,2.66,2.66,0,0,0,0,.63Z" transform="translate(-106.29 -70.99)"/><path class="cls-5" d="M274,429.86s0-1.25,0-1.25,0,1.25,0,1.25Z" transform="translate(-106.29 -70.99)"/><path class="cls-5" d="M271.38,422v1.41a3.21,3.21,0,0,1,0,.62,3.21,3.21,0,0,0,0-.62V422a3.33,3.33,0,0,1,0-.63,3.32,3.32,0,0,0,0,.63Z" transform="translate(-106.29 -70.99)"/><path class="cls-5" d="M271.58,431v1.62a2.57,2.57,0,0,1,0,.62,2.57,2.57,0,0,0,0-.62V431a3.21,3.21,0,0,1,0-.62,3.21,3.21,0,0,0,0,.62Z" transform="translate(-106.29 -70.99)"/><path class="cls-5" d="M277.82,434.07v.6a3.33,3.33,0,0,1,0,.63,3.32,3.32,0,0,0,0-.63v-.6a3.33,3.33,0,0,1,0-.63,3.32,3.32,0,0,0,0,.63Z" transform="translate(-106.29 -70.99)"/><path class="cls-5" d="M275.81,436.28v1.62a2.57,2.57,0,0,1,0,.62,2.57,2.57,0,0,0,0-.62v-1.62a3.21,3.21,0,0,1,0-.62,3.21,3.21,0,0,0,0,.62Z" transform="translate(-106.29 -70.99)"/><path class="cls-5" d="M273.19,437.29v1a2.57,2.57,0,0,1,0,.62,2.57,2.57,0,0,0,0-.62v-1a3.22,3.22,0,0,1,0-.62,3.21,3.21,0,0,0,0,.62Z" transform="translate(-106.29 -70.99)"/><path class="cls-5" d="M271.17,437.49v.2a3.33,3.33,0,0,1,0,.63,3.32,3.32,0,0,0,0-.63v-.2a3.22,3.22,0,0,1,0-.62,3.21,3.21,0,0,0,0,.62Z" transform="translate(-106.29 -70.99)"/><path class="cls-5" d="M270.77,441.72v1a3.32,3.32,0,0,1,0,.63,3.31,3.31,0,0,0,0-.63v-1a2.57,2.57,0,0,1,0-.62,2.57,2.57,0,0,0,0,.62Z" transform="translate(-106.29 -70.99)"/><path class="cls-5" d="M276.82,443.34v.6a3.21,3.21,0,0,1,0,.62,3.2,3.2,0,0,0,0-.62v-.6a3.33,3.33,0,0,1,0-.63,3.32,3.32,0,0,0,0,.63Z" transform="translate(-106.29 -70.99)"/><path class="cls-5" d="M274.8,446v.21a3.21,3.21,0,0,1,0,.62,3.21,3.21,0,0,0,0-.62V446a2.57,2.57,0,0,1,0-.62,2.57,2.57,0,0,0,0,.62Z" transform="translate(-106.29 -70.99)"/><path class="cls-5" d="M272,449v1.21a3.21,3.21,0,0,1,0,.62,3.21,3.21,0,0,0,0-.62V449a2.66,2.66,0,0,1,0-.63,2.66,2.66,0,0,0,0,.63Z" transform="translate(-106.29 -70.99)"/><path class="cls-5" d="M276,451.6v.2a3.22,3.22,0,0,1,0,.62,3.21,3.21,0,0,0,0-.62v-.2a2.66,2.66,0,0,1,0-.63,2.66,2.66,0,0,0,0,.63Z" transform="translate(-106.29 -70.99)"/><path class="cls-5" d="M272.59,454.24s0-1.25,0-1.25,0,1.25,0,1.25Z" transform="translate(-106.29 -70.99)"/><path class="cls-5" d="M279.64,412.71v.81a3.21,3.21,0,0,1,0,.62,2.57,2.57,0,0,0,0-.62v-.81a3.22,3.22,0,0,1,0-.62,3.21,3.21,0,0,0,0,.62Z" transform="translate(-106.29 -70.99)"/><path class="cls-5" d="M272,411.1s0-1.25,0-1.25,0,1.25,0,1.25Z" transform="translate(-106.29 -70.99)"/><path class="cls-5" d="M276,409.9v-1.25s0,1.25,0,1.25Z" transform="translate(-106.29 -70.99)"/><path class="cls-5" d="M275.61,410.7v.6a3.21,3.21,0,0,1,0,.62,2.56,2.56,0,0,0,0-.62v-.6a3.33,3.33,0,0,1,0-.63,3.32,3.32,0,0,0,0,.63Z" transform="translate(-106.29 -70.99)"/><path class="cls-5" d="M280.64,408.88v1a3.22,3.22,0,0,1,0,.62,3.2,3.2,0,0,0,0-.62v-1a3.22,3.22,0,0,1,0-.62,3.21,3.21,0,0,0,0,.62Z" transform="translate(-106.29 -70.99)"/><path class="cls-5" d="M244.38,409.27v.4a3.31,3.31,0,0,1,0,.63,2.66,2.66,0,0,0,0-.63v-.4a3.22,3.22,0,0,1,0-.62,3.21,3.21,0,0,0,0,.62Z" transform="translate(-106.29 -70.99)"/><path class="cls-5" d="M248.82,409.31v-1.25s0,1.25,0,1.25Z" transform="translate(-106.29 -70.99)"/><path class="cls-6" d="M281.56,414a2,2,0,0,0,.64,2.18" transform="translate(-106.29 -70.99)"/><path class="cls-6" d="M281.53,411.07a2,2,0,0,1,.7,1.62" transform="translate(-106.29 -70.99)"/><path class="cls-6" d="M277,411.75a1.07,1.07,0,0,1-.55,1.22" transform="translate(-106.29 -70.99)"/><path class="cls-6" d="M271.39,411.94v1.5" transform="translate(-106.29 -70.99)"/><path class="cls-6" d="M268.77,411.19a2.15,2.15,0,0,1-.82,1.44" transform="translate(-106.29 -70.99)"/><path class="cls-6" d="M267.94,409.13a2.32,2.32,0,0,1-.5,1.48" transform="translate(-106.29 -70.99)"/><path class="cls-6" d="M268.58,414.84a3.35,3.35,0,0,0-.86,1.78" transform="translate(-106.29 -70.99)"/><path class="cls-6" d="M269.44,420a2.06,2.06,0,0,1-.49,1.12" transform="translate(-106.29 -70.99)"/><path class="cls-6" d="M272.49,416.26a1.31,1.31,0,0,1-.23,1.23" transform="translate(-106.29 -70.99)"/><path class="cls-6" d="M275.91,415.75a6.64,6.64,0,0,1,1.1.88" transform="translate(-106.29 -70.99)"/><path class="cls-6" d="M278.6,420.28l.48.65" transform="translate(-106.29 -70.99)"/><path class="cls-6" d="M274.48,420v.93" transform="translate(-106.29 -70.99)"/><path class="cls-6" d="M280.6,422.7a1.34,1.34,0,0,1,.24,1.13" transform="translate(-106.29 -70.99)"/><path class="cls-6" d="M279.72,426.09l.86,1.3" transform="translate(-106.29 -70.99)"/><path class="cls-6" d="M273,424.86a2.8,2.8,0,0,1-.91,1.34" transform="translate(-106.29 -70.99)"/><path class="cls-6" d="M269.52,425a1.92,1.92,0,0,1-1,1.71" transform="translate(-106.29 -70.99)"/><path class="cls-6" d="M269.24,431.15a1.72,1.72,0,0,1-.38,1.11" transform="translate(-106.29 -70.99)"/><path class="cls-6" d="M274.86,429.46v1" transform="translate(-106.29 -70.99)"/><path class="cls-6" d="M276.45,429.28a1,1,0,0,1,.75.46" transform="translate(-106.29 -70.99)"/><path class="cls-6" d="M280.1,430.78l.84.47" transform="translate(-106.29 -70.99)"/><path class="cls-6" d="M279.48,432.75a2.32,2.32,0,0,0,.61,2.25" transform="translate(-106.29 -70.99)"/><path class="cls-6" d="M268.61,434.85a2.07,2.07,0,0,1-1.06.27" transform="translate(-106.29 -70.99)"/><path class="cls-5" d="M248.69,415.35v2.21a3.33,3.33,0,0,1,0,.63,3.32,3.32,0,0,0,0-.63v-2.21a3.33,3.33,0,0,1,0-.63,3.32,3.32,0,0,0,0,.63Z" transform="translate(-106.29 -70.99)"/><path class="cls-5" d="M243.86,419v1.21a2.66,2.66,0,0,1,0,.63,2.66,2.66,0,0,0,0-.63V419a3.21,3.21,0,0,1,0-.62,3.21,3.21,0,0,0,0,.62Z" transform="translate(-106.29 -70.99)"/><path class="cls-5" d="M242.25,422.8V424a2.66,2.66,0,0,1,0,.63,2.66,2.66,0,0,0,0-.63V422.8a3.21,3.21,0,0,1,0-.62,3.21,3.21,0,0,0,0,.62Z" transform="translate(-106.29 -70.99)"/><path class="cls-5" d="M239.22,422.6v.2a3.33,3.33,0,0,1,0,.63,3.32,3.32,0,0,0,0-.63v-.2a3.22,3.22,0,0,1,0-.62,3.21,3.21,0,0,0,0,.62Z" transform="translate(-106.29 -70.99)"/><path class="cls-5" d="M245.28,430.68v-1.25s0,1.25,0,1.25Z" transform="translate(-106.29 -70.99)"/><path class="cls-5" d="M247.89,422.8v1.41a2.66,2.66,0,0,1,0,.63,2.66,2.66,0,0,0,0-.63V422.8a3.21,3.21,0,0,1,0-.62,3.21,3.21,0,0,0,0,.62Z" transform="translate(-106.29 -70.99)"/><path class="cls-5" d="M247.69,431.87v1.61a2.66,2.66,0,0,1,0,.63,2.66,2.66,0,0,0,0-.63v-1.61a3.32,3.32,0,0,1,0-.63,3.31,3.31,0,0,0,0,.63Z" transform="translate(-106.29 -70.99)"/><path class="cls-5" d="M241.44,434.89v.61a3.21,3.21,0,0,1,0,.62,3.21,3.21,0,0,0,0-.62v-.61a2.57,2.57,0,0,1,0-.62,2.57,2.57,0,0,0,0,.62Z" transform="translate(-106.29 -70.99)"/><path class="cls-5" d="M243.46,437.11v1.61a3.21,3.21,0,0,1,0,.62,2.56,2.56,0,0,0,0-.62v-1.61a3.33,3.33,0,0,1,0-.63,3.32,3.32,0,0,0,0,.63Z" transform="translate(-106.29 -70.99)"/><path class="cls-5" d="M246.07,438.12v1a3.33,3.33,0,0,1,0,.63,3.32,3.32,0,0,0,0-.63v-1a3.33,3.33,0,0,1,0-.63,3.32,3.32,0,0,0,0,.63Z" transform="translate(-106.29 -70.99)"/><path class="cls-5" d="M248.09,438.32v.2a3.22,3.22,0,0,1,0,.62,3.21,3.21,0,0,0,0-.62v-.2a2.66,2.66,0,0,1,0-.63,2.66,2.66,0,0,0,0,.63Z" transform="translate(-106.29 -70.99)"/><path class="cls-5" d="M248.49,442.55v1a3.21,3.21,0,0,1,0,.62,3.21,3.21,0,0,0,0-.62v-1a3.33,3.33,0,0,1,0-.63,3.32,3.32,0,0,0,0,.63Z" transform="translate(-106.29 -70.99)"/><path class="cls-5" d="M242.45,444.16v.6a2.66,2.66,0,0,1,0,.63,2.66,2.66,0,0,0,0-.63v-.6a3.32,3.32,0,0,1,0-.63,3.32,3.32,0,0,0,0,.63Z" transform="translate(-106.29 -70.99)"/><path class="cls-5" d="M244.46,446.78v.2a3.32,3.32,0,0,1,0,.63,3.32,3.32,0,0,0,0-.63v-.2a3.32,3.32,0,0,1,0-.63,3.32,3.32,0,0,0,0,.63Z" transform="translate(-106.29 -70.99)"/><path class="cls-5" d="M247.28,449.8V451a3.32,3.32,0,0,1,0,.63,3.32,3.32,0,0,0,0-.63V449.8a3.22,3.22,0,0,1,0-.62,3.21,3.21,0,0,0,0,.62Z" transform="translate(-106.29 -70.99)"/><path class="cls-5" d="M243.25,452.42v.2a3.33,3.33,0,0,1,0,.63,3.32,3.32,0,0,0,0-.63v-.2a3.22,3.22,0,0,1,0-.62,3.2,3.2,0,0,0,0,.62Z" transform="translate(-106.29 -70.99)"/><path class="cls-5" d="M246.69,455.06s0-1.25,0-1.25,0,1.25,0,1.25Z" transform="translate(-106.29 -70.99)"/><path class="cls-5" d="M239.63,413.53v.81a2.66,2.66,0,0,1,0,.63,2.66,2.66,0,0,0,0-.63v-.81a3.21,3.21,0,0,1,0-.62,3.21,3.21,0,0,0,0,.62Z" transform="translate(-106.29 -70.99)"/><path class="cls-5" d="M247.29,409.93s0-1.25,0-1.25,0,1.25,0,1.25Z" transform="translate(-106.29 -70.99)"/><path class="cls-5" d="M243.26,410.72s0-1.25,0-1.25,0,1.25,0,1.25Z" transform="translate(-106.29 -70.99)"/><path class="cls-5" d="M243.66,411.52v.6a2.66,2.66,0,0,1,0,.63,2.66,2.66,0,0,0,0-.63v-.6a3.32,3.32,0,0,1,0-.63,3.32,3.32,0,0,0,0,.63Z" transform="translate(-106.29 -70.99)"/><path class="cls-5" d="M238.62,409.71v1a3.33,3.33,0,0,1,0,.63,3.31,3.31,0,0,0,0-.63v-1a2.66,2.66,0,0,1,0-.63,2.66,2.66,0,0,0,0,.63Z" transform="translate(-106.29 -70.99)"/><path class="cls-6" d="M237.72,414.84a2,2,0,0,1-.64,2.19" transform="translate(-106.29 -70.99)"/><path class="cls-6" d="M237.74,411.89a2,2,0,0,0-.7,1.62" transform="translate(-106.29 -70.99)"/><path class="cls-6" d="M242.28,412.58a1.07,1.07,0,0,0,.54,1.22" transform="translate(-106.29 -70.99)"/><path class="cls-6" d="M247.88,412.76v1.5" transform="translate(-106.29 -70.99)"/><path class="cls-6" d="M250.5,412a2.14,2.14,0,0,0,.82,1.44" transform="translate(-106.29 -70.99)"/><path class="cls-6" d="M251.34,410a2.3,2.3,0,0,0,.49,1.49" transform="translate(-106.29 -70.99)"/><path class="cls-6" d="M250.7,415.66a3.26,3.26,0,0,1,.85,1.78" transform="translate(-106.29 -70.99)"/><path class="cls-6" d="M249.84,420.82a2,2,0,0,0,.49,1.12" transform="translate(-106.29 -70.99)"/><path class="cls-6" d="M246.78,417.08a1.33,1.33,0,0,0,.24,1.23" transform="translate(-106.29 -70.99)"/><path class="cls-6" d="M243.37,416.57a6.74,6.74,0,0,0-1.1.88" transform="translate(-106.29 -70.99)"/><path class="cls-6" d="M240.68,421.11l-.48.64" transform="translate(-106.29 -70.99)"/><path class="cls-6" d="M244.79,420.82v.94" transform="translate(-106.29 -70.99)"/><path class="cls-6" d="M238.68,423.52a1.37,1.37,0,0,0-.25,1.14" transform="translate(-106.29 -70.99)"/><path class="cls-6" d="M239.55,426.91l-.85,1.31" transform="translate(-106.29 -70.99)"/><path class="cls-6" d="M246.3,425.69a2.87,2.87,0,0,0,.91,1.33" transform="translate(-106.29 -70.99)"/><path class="cls-6" d="M249.75,425.79a1.92,1.92,0,0,0,1,1.71" transform="translate(-106.29 -70.99)"/><path class="cls-6" d="M250,432a1.7,1.7,0,0,0,.39,1.12" transform="translate(-106.29 -70.99)"/><path class="cls-6" d="M244.42,430.28v1" transform="translate(-106.29 -70.99)"/><path class="cls-6" d="M242.83,430.1a1.06,1.06,0,0,0-.76.46" transform="translate(-106.29 -70.99)"/><path class="cls-6" d="M239.18,431.61l-.85.46" transform="translate(-106.29 -70.99)"/><path class="cls-6" d="M239.79,433.57a2.33,2.33,0,0,1-.6,2.26" transform="translate(-106.29 -70.99)"/><path class="cls-6" d="M250.67,435.67a2,2,0,0,0,1.05.27" transform="translate(-106.29 -70.99)"/><polygon class="cls-7" points="124.22 336.55 185.33 336.55 202.19 271.16 107.36 271.16 124.22 336.55"/><line class="cls-8" x1="154.27" y1="283.69" x2="154.27" y2="336.55"/><path class="cls-9" d="M222.77,354l13.13,53.16h-5.72l-15.43-61S221.14,352.69,222.77,354Z" transform="translate(-106.29 -70.99)"/><path class="cls-9" d="M287.42,379.87l4.12,3.08,7.76-5.21L302,376l-1.37-3.24s-8.69,7.63-13.18,7.16l-2,15.94s8.32-.17,10.46-4.74l3.3-12.8" transform="translate(-106.29 -70.99)"/><path class="cls-10" d="M287.42,379.87l4.16,3h-.08c3.44-2.39,6.91-4.73,10.38-7.08l-.06.19-1.38-3.23.27.06a51.79,51.79,0,0,1-6.13,4.59,25,25,0,0,1-3.38,1.83,8.1,8.1,0,0,1-3.81.85l.27-.21c-.65,5.31-1.38,10.62-2.06,15.93l-.2-.21a22.56,22.56,0,0,0,3-.33,16.59,16.59,0,0,0,2.87-.75,9.83,9.83,0,0,0,2.62-1.34,6.17,6.17,0,0,0,1.9-2.19v0c1.1-4.27,2.3-8.52,3.44-12.77-1.06,4.28-2.07,8.57-3.17,12.84h0a6.5,6.5,0,0,1-2,2.32,10.6,10.6,0,0,1-2.69,1.4,16.26,16.26,0,0,1-2.91.79,20.27,20.27,0,0,1-3,.36h-.22l0-.23c.65-5.31,1.27-10.63,2-15.94l0-.23.23,0a7.7,7.7,0,0,0,3.58-.78,25.53,25.53,0,0,0,3.35-1.77,52.61,52.61,0,0,0,6.12-4.5l.18-.16.09.22,1.35,3.25.06.12-.11.07c-3.49,2.32-7,4.65-10.49,6.92l0,0,0,0Z" transform="translate(-106.29 -70.99)"/><path class="cls-9" d="M234.84,379.87,230.73,383,223,377.74,220.29,376l1.37-3.24s8.69,7.63,13.18,7.16l2,15.94s-8.32-.17-10.46-4.74l-3.3-12.8" transform="translate(-106.29 -70.99)"/><path class="cls-10" d="M234.84,379.87,230.76,383l0,0,0,0c-3.51-2.27-7-4.6-10.48-6.92l-.11-.07.05-.12,1.35-3.25.09-.22.19.16a51.77,51.77,0,0,0,6.12,4.5,25.41,25.41,0,0,0,3.34,1.77,7.7,7.7,0,0,0,3.58.78l.23,0,0,.23c.69,5.31,1.31,10.63,2,15.94l0,.23h-.23a20.14,20.14,0,0,1-3-.36,16.59,16.59,0,0,1-2.92-.79,10.6,10.6,0,0,1-2.69-1.4,6.6,6.6,0,0,1-2-2.32h0c-1.1-4.27-2.11-8.56-3.16-12.84,1.14,4.25,2.33,8.5,3.43,12.77v0a6.26,6.26,0,0,0,1.9,2.19,10,10,0,0,0,2.62,1.34,16.83,16.83,0,0,0,2.87.75,22.76,22.76,0,0,0,3,.33l-.19.21c-.69-5.31-1.41-10.62-2.06-15.93l.26.21a8.12,8.12,0,0,1-3.81-.85,25.64,25.64,0,0,1-3.38-1.83,51.79,51.79,0,0,1-6.13-4.59l.27-.06L220.44,376l-.06-.19c3.47,2.35,6.94,4.69,10.38,7.08h-.07Z" transform="translate(-106.29 -70.99)"/><path class="cls-9" d="M261.06,369.14a52.19,52.19,0,0,0,7.2-.5l-.86,38.89h-6.34Z" transform="translate(-106.29 -70.99)"/><path class="cls-11" d="M317.72,159.22s158.53,19.42,69.81,177.92L364,326.52" transform="translate(-106.29 -70.99)"/><path class="cls-12" d="M203.08,159.22S44.55,178.64,133.27,337.14l23.56-10.62" transform="translate(-106.29 -70.99)"/><ellipse class="cls-13" cx="154.67" cy="196.11" rx="118.15" ry="123.25"/><path class="cls-14" d="M195.24,350.53" transform="translate(-106.29 -70.99)"/><path class="cls-15" d="M136.9,335.73s7.31,11.31,27.91,7.6l1.91-1,.4-.36s-9.74-14-10.14-16.33" transform="translate(-106.29 -70.99)"/><path class="cls-15" d="M385.38,336.94s-7.32,11.31-27.91,7.6l-1.92-1-.4-.37s9.74-14,10.14-16.32" transform="translate(-106.29 -70.99)"/><polyline class="cls-16" points="155.37 317.92 155.37 108.84 172.4 122.26 204.88 95.12"/><path class="cls-17" d="M181.71,224.45s-12.63,23.31-7.26,33.41l14.36,7.38,17.51-5.05,8-33.41" transform="translate(-106.29 -70.99)"/><polyline class="cls-16" points="152.95 317.92 152.95 108.84 135.91 122.26 103.43 95.12"/><path class="cls-18" d="M203.27,190.31l.09-.21a3.25,3.25,0,0,1,1-1.23,4.63,4.63,0,0,1,3-1,4.75,4.75,0,0,1,1.83.37.05.05,0,0,0,.08,0l2.55-3.2a1.37,1.37,0,0,1,1.21-.5l.16,0,1.41.27h0l-.2.68-.06,0-1.32-.25a.48.48,0,0,0-.54.17l-.76,1,0,0h.06l6.79,1.33s.07,0,.09,0l.51-.52,0-.05h-.07l-1.15-.22a.39.39,0,0,1-.32-.29.33.33,0,0,1,.21-.36.44.44,0,0,1,.32,0l3.09.6h.05l-.2.68h-.06l-.91-.18a.07.07,0,0,0-.08,0l-.83.85a.11.11,0,0,0,0,.05c.19.72.37,1.43.55,2.14v0l.41,0a5.16,5.16,0,0,1,1.41.19,4,4,0,0,1,2.28,1.57,2.79,2.79,0,0,1,.52,1.83,3.35,3.35,0,0,1-2.13,2.85,4.72,4.72,0,0,1-2.36.43l-.38,0h-.06l-.45-.09H219l-.64-.22a3.76,3.76,0,0,1-1.88-1.59,2.89,2.89,0,0,1-.4-1.78l0-.2H216l-1.7-.33a.57.57,0,0,1-.36-.23l-.51-.8c-.45-.7-.91-1.4-1.36-2.11L210.89,188l-.22-.34-.76,1h0l.05,0a3.15,3.15,0,0,1,1.49,3,2.85,2.85,0,0,1-.42,1.17,4,4,0,0,1-2.45,1.74,5,5,0,0,1-1.77.14l-.27,0-.46-.09-.05,0c-.2-.07-.41-.12-.6-.2a3.69,3.69,0,0,1-2.17-2.1,2.77,2.77,0,0,1-.15-1.37,2.23,2.23,0,0,1,0-.23Zm6.16-1.08,0,0c-.42.53-.85,1.06-1.27,1.6l-.45.57a.48.48,0,0,1-.57.12.31.31,0,0,1-.13-.51l1.72-2.16,0,0a3.75,3.75,0,0,0-4.29,1.06,2.45,2.45,0,0,0,1.05,3.7,3.79,3.79,0,0,0,4.55-.77A2.38,2.38,0,0,0,209.43,189.23Zm7.5,4.28a2.62,2.62,0,0,0,1.72,2.74,3.86,3.86,0,0,0,4-.59,2.37,2.37,0,0,0,.3-3.33,3.6,3.6,0,0,0-3-1.2c0,.16.08.33.13.49.18.7.35,1.39.54,2.09a.33.33,0,0,1,0,.22.45.45,0,0,1-.52.2l-3.11-.61ZM211.2,187l3.22,5,3.59-3.67Zm7.77,3.55-.43-1.65-3.43,3.51,1.17.23A4,4,0,0,1,219,190.56Zm-1.83,2.26,2.54.5-.53-2.06A3.14,3.14,0,0,0,217.14,192.82Z" transform="translate(-106.29 -70.99)"/><path class="cls-18" d="M210.18,214.57l0-.23a3,3,0,0,1,.6-1.38,4.19,4.19,0,0,1,2.63-1.55,5,5,0,0,1,1.88,0c.05,0,.06,0,.08,0,.52-1.19,1-2.39,1.57-3.59a1.26,1.26,0,0,1,1-.72h1.65v.7h-1.43a.43.43,0,0,0-.47.28c-.16.36-.32.71-.47,1.07,0,0,0,0,0,.05h7a.08.08,0,0,0,.08,0l.35-.61,0-.05h-1.25a.45.45,0,0,1-.4-.22.32.32,0,0,1,.11-.39.53.53,0,0,1,.3-.09h3.23v.7h-1a.08.08,0,0,0-.08,0l-.56,1a.06.06,0,0,0,0,.06l1.14,2,0,0,.39-.09a4.83,4.83,0,0,1,1.42-.09,4.51,4.51,0,0,1,2.66,1.1,3.07,3.07,0,0,1,1,1.68,3,3,0,0,1-1.27,3.17,4.37,4.37,0,0,1-2.17.88l-.39,0h-.57c-.23,0-.47,0-.69-.09a4.32,4.32,0,0,1-2.28-1.18,3.12,3.12,0,0,1-.89-1.66l0-.2h-1.82a.53.53,0,0,1-.41-.14l-.72-.68-1.92-1.8L217,210.88l-.32-.29-.46,1.07h0l0,0a3.48,3.48,0,0,1,2.3,2.64,2.48,2.48,0,0,1-.07,1.21,3.5,3.5,0,0,1-1.9,2.16,4.48,4.48,0,0,1-1.67.48l-.27,0h-.53c-.22,0-.43,0-.64-.08a4.18,4.18,0,0,1-2.7-1.62,3,3,0,0,1-.54-1.31l0-.23Zm5.69-2.23,0,0-.78,1.79c-.09.22-.19.43-.28.65a.45.45,0,0,1-.52.22.33.33,0,0,1-.26-.47c.35-.81.7-1.62,1.06-2.43,0,0,0,0,0-.05a3.46,3.46,0,0,0-3.87,1.85c-.55,1.41.37,2.9,2.07,3.39a3.55,3.55,0,0,0,4.21-1.61A2.55,2.55,0,0,0,215.87,212.34Zm8.51,2.73a2.93,2.93,0,0,0,2.45,2.34,3.63,3.63,0,0,0,3.77-1.34,2.39,2.39,0,0,0-.66-3.3,3.83,3.83,0,0,0-3.27-.59l.26.45c.37.64.74,1.29,1.12,1.93a.29.29,0,0,1,0,.22.41.41,0,0,1-.44.29h-3.27ZM217,209.85l4.55,4.25,2.46-4.25Zm8.56,2-.88-1.51-2.35,4.06h1.22A3.52,3.52,0,0,1,225.52,211.81Zm-1.13,2.55H227l-1.1-1.9A2.78,2.78,0,0,0,224.39,214.36Z" transform="translate(-106.29 -70.99)"/><path class="cls-18" d="M222.69,238.87l0-.23a3,3,0,0,1,.59-1.38,4.19,4.19,0,0,1,2.63-1.55,5,5,0,0,1,1.89,0s.06,0,.07,0l1.58-3.59a1.25,1.25,0,0,1,1-.72l.15,0h1.49v.7h-1.42a.45.45,0,0,0-.48.28l-.47,1.07a.2.2,0,0,0,0,0h7.05a.07.07,0,0,0,.08,0c.11-.2.23-.4.35-.6l0-.05H236a.44.44,0,0,1-.4-.22.32.32,0,0,1,.11-.39.49.49,0,0,1,.3-.09h3.23v.7h-1a.07.07,0,0,0-.07,0l-.56,1a.06.06,0,0,0,0,.06c.37.66.75,1.32,1.13,2l0,0,.39-.09a4.9,4.9,0,0,1,1.43-.09,4.53,4.53,0,0,1,2.66,1.1,3.09,3.09,0,0,1,1,1.68,3,3,0,0,1-1.27,3.17,4.4,4.4,0,0,1-2.18.87l-.38,0h-.58c-.23,0-.46,0-.68-.09a4.31,4.31,0,0,1-2.29-1.18,3.11,3.11,0,0,1-.88-1.66,1.42,1.42,0,0,0,0-.2h-1.82a.53.53,0,0,1-.4-.15l-.73-.67-1.92-1.8-1.68-1.57-.31-.29-.47,1.06h0l.06,0a3.52,3.52,0,0,1,2.3,2.64,2.62,2.62,0,0,1-.07,1.21,3.52,3.52,0,0,1-1.9,2.16,4.48,4.48,0,0,1-1.67.48l-.28,0h-.53c-.21,0-.43,0-.64-.08a4.15,4.15,0,0,1-2.7-1.63,2.9,2.9,0,0,1-.53-1.3l0-.23Zm5.68-2.23,0,.05-.78,1.79c-.1.22-.19.43-.28.65a.45.45,0,0,1-.52.22.34.34,0,0,1-.27-.47c.36-.81.71-1.62,1.06-2.43,0,0,0,0,0,0a3.46,3.46,0,0,0-3.87,1.85c-.55,1.41.38,2.9,2.07,3.39A3.56,3.56,0,0,0,230,240,2.53,2.53,0,0,0,228.37,236.64Zm8.51,2.73a2.94,2.94,0,0,0,2.45,2.34,3.67,3.67,0,0,0,3.78-1.34,2.4,2.4,0,0,0-.66-3.3,3.8,3.8,0,0,0-3.27-.59c.08.15.17.3.26.45l1.11,1.93a.34.34,0,0,1,0,.22.42.42,0,0,1-.44.29h-3.28Zm-7.41-5.23L234,238.4l2.46-4.26Zm8.56,2-.88-1.51-2.35,4.06H236A3.51,3.51,0,0,1,238,236.11Zm-1.14,2.55h2.61l-1.1-1.9A2.78,2.78,0,0,0,236.89,238.66Z" transform="translate(-106.29 -70.99)"/><path class="cls-18" d="M227.35,269c0-.07,0-.15,0-.22a2.83,2.83,0,0,1,.59-1.38,4.19,4.19,0,0,1,2.63-1.55,4.76,4.76,0,0,1,1.88,0s.07,0,.08,0l1.57-3.6a1.26,1.26,0,0,1,1-.72h1.65v.7h-1.42a.45.45,0,0,0-.48.27c-.16.36-.31.72-.47,1.07,0,0,0,0,0,.05h7.05s.07,0,.09,0l.34-.6,0-.05H240.7a.42.42,0,0,1-.39-.22.3.3,0,0,1,.1-.39.46.46,0,0,1,.3-.09h3.23v.7h-1s-.06,0-.07,0l-.57,1a.06.06,0,0,0,0,.06l1.14,2,0,0,.39-.09a4.88,4.88,0,0,1,1.43-.09,4.52,4.52,0,0,1,2.66,1.09,3.13,3.13,0,0,1,1,1.68,3,3,0,0,1-1.28,3.18,4.32,4.32,0,0,1-2.17.87l-.38,0h-.58l-.69-.09a4.26,4.26,0,0,1-2.28-1.19,3.09,3.09,0,0,1-.89-1.66l0-.19h-1.82a.55.55,0,0,1-.4-.15l-.73-.68-1.92-1.79-1.68-1.58-.31-.29-.47,1.07h0l.05,0a3.51,3.51,0,0,1,2.3,2.64,2.52,2.52,0,0,1-.07,1.22,3.49,3.49,0,0,1-1.9,2.16,4.68,4.68,0,0,1-1.67.48l-.27,0h-.53c-.21,0-.43,0-.64-.08a4.19,4.19,0,0,1-2.7-1.63,2.83,2.83,0,0,1-.53-1.3,1.57,1.57,0,0,0,0-.23Zm5.69-2.22a.08.08,0,0,0,0,0l-.79,1.8c-.09.22-.18.43-.28.64a.45.45,0,0,1-.51.23.33.33,0,0,1-.27-.47l1.06-2.43s0,0,0-.05a3.45,3.45,0,0,0-3.87,1.84c-.55,1.42.37,2.91,2.07,3.4a3.57,3.57,0,0,0,4.21-1.61A2.55,2.55,0,0,0,233,266.81Zm8.51,2.73a2.91,2.91,0,0,0,2.45,2.33,3.64,3.64,0,0,0,3.77-1.33,2.39,2.39,0,0,0-.65-3.3,3.82,3.82,0,0,0-3.28-.59l.26.44,1.12,1.94a.27.27,0,0,1,0,.21.41.41,0,0,1-.44.3h-3.27Zm-7.41-5.23,4.55,4.25,2.45-4.25Zm8.56,2-.89-1.52-2.34,4.07h1.21A3.49,3.49,0,0,1,242.7,266.28Zm-1.14,2.55h2.61l-1.1-1.9A2.78,2.78,0,0,0,241.56,268.83Z" transform="translate(-106.29 -70.99)"/><path class="cls-18" d="M227.35,300.64c0-.08,0-.15,0-.22A2.86,2.86,0,0,1,228,299a4.19,4.19,0,0,1,2.63-1.55,5,5,0,0,1,1.88,0s.07,0,.08,0l1.57-3.6a1.26,1.26,0,0,1,1-.72h1.65v.69h-1.42a.45.45,0,0,0-.48.28l-.47,1.07,0,.05h7.05s.07,0,.09,0l.34-.6,0-.06H240.7a.42.42,0,0,1-.39-.22.31.31,0,0,1,.1-.39.53.53,0,0,1,.3-.09h3.23v.7h-1s-.06,0-.07,0l-.57,1a.06.06,0,0,0,0,.06l1.14,2,0,0,.39-.09a4.56,4.56,0,0,1,1.43-.08,4.46,4.46,0,0,1,2.66,1.09,3.13,3.13,0,0,1,1,1.68,3,3,0,0,1-1.28,3.17,4.34,4.34,0,0,1-2.17.88l-.38,0h-.58c-.23,0-.46,0-.69-.09a4.32,4.32,0,0,1-2.28-1.18,3.12,3.12,0,0,1-.89-1.66l0-.19h-1.82a.55.55,0,0,1-.4-.15l-.73-.68-1.92-1.8L234.12,297l-.31-.29-.47,1.07h0l.05,0a3.5,3.5,0,0,1,2.3,2.64,2.48,2.48,0,0,1-.07,1.21,3.48,3.48,0,0,1-1.9,2.17,4.47,4.47,0,0,1-1.67.47l-.27,0h-.53a4.66,4.66,0,0,1-.64-.08,4.14,4.14,0,0,1-2.7-1.62,2.87,2.87,0,0,1-.53-1.31,2.23,2.23,0,0,0,0-.23Zm5.69-2.23s0,0,0,0l-.79,1.8-.28.64a.44.44,0,0,1-.51.22.33.33,0,0,1-.27-.47l1.06-2.43,0-.05a3.46,3.46,0,0,0-3.87,1.85c-.55,1.41.37,2.9,2.07,3.4a3.57,3.57,0,0,0,4.21-1.62A2.55,2.55,0,0,0,233,298.41Zm8.51,2.74a2.93,2.93,0,0,0,2.45,2.33,3.63,3.63,0,0,0,3.77-1.34,2.39,2.39,0,0,0-.65-3.3,3.85,3.85,0,0,0-3.28-.59c.09.15.18.3.26.45.38.64.75,1.29,1.12,1.93a.29.29,0,0,1,0,.22.41.41,0,0,1-.44.29h-3.27Zm-7.41-5.23,4.55,4.25,2.45-4.25Zm8.56,2-.89-1.51-2.34,4.06h1.21A3.51,3.51,0,0,1,242.7,297.88Zm-1.14,2.55h2.61l-1.1-1.9A2.78,2.78,0,0,0,241.56,300.43Z" transform="translate(-106.29 -70.99)"/><path class="cls-18" d="M227.35,323.78c0-.07,0-.15,0-.22a2.9,2.9,0,0,1,.59-1.39,4.22,4.22,0,0,1,2.63-1.54,4.76,4.76,0,0,1,1.88,0s.07,0,.08,0l1.57-3.6a1.26,1.26,0,0,1,1-.72h1.65v.7h-1.42a.45.45,0,0,0-.48.27c-.16.36-.31.72-.47,1.07,0,0,0,0,0,.05h7.05s.07,0,.09,0l.34-.6,0-.06H240.7a.4.4,0,0,1-.39-.22.29.29,0,0,1,.1-.38.47.47,0,0,1,.3-.1h3.23v.7h-1s-.06,0-.07,0l-.57,1a.06.06,0,0,0,0,.06l1.14,2,0,0,.39-.1a5.25,5.25,0,0,1,1.43-.08,4.52,4.52,0,0,1,2.66,1.09,3.13,3.13,0,0,1,1,1.68,3,3,0,0,1-1.28,3.18,4.32,4.32,0,0,1-2.17.87l-.38,0h-.58l-.69-.09a4.26,4.26,0,0,1-2.28-1.19,3.09,3.09,0,0,1-.89-1.66l0-.19h-1.82a.55.55,0,0,1-.4-.15l-.73-.68-1.92-1.8-1.68-1.57-.31-.29-.47,1.07h0l.05,0a3.5,3.5,0,0,1,2.3,2.64,2.52,2.52,0,0,1-.07,1.22,3.49,3.49,0,0,1-1.9,2.16,4.68,4.68,0,0,1-1.67.48l-.27,0h-.53c-.21,0-.43,0-.64-.08a4.19,4.19,0,0,1-2.7-1.63,2.83,2.83,0,0,1-.53-1.3,2,2,0,0,0,0-.24Zm5.69-2.23a.17.17,0,0,0,0,.05l-.79,1.8c-.09.21-.18.43-.28.64a.45.45,0,0,1-.51.23.33.33,0,0,1-.27-.47l1.06-2.44s0,0,0-.05a3.47,3.47,0,0,0-3.87,1.85c-.55,1.42.37,2.91,2.07,3.4a3.56,3.56,0,0,0,4.21-1.62A2.55,2.55,0,0,0,233,321.55Zm8.51,2.74a2.92,2.92,0,0,0,2.45,2.33,3.63,3.63,0,0,0,3.77-1.34,2.39,2.39,0,0,0-.65-3.3,3.89,3.89,0,0,0-3.28-.59c.09.15.18.3.26.45l1.12,1.94a.27.27,0,0,1,0,.21.42.42,0,0,1-.44.3h-3.27Zm-7.41-5.23,4.55,4.25,2.45-4.25Zm8.56,2-.89-1.52-2.34,4.07h1.21A3.49,3.49,0,0,1,242.7,321Zm-1.14,2.55h2.61l-1.1-1.91A2.78,2.78,0,0,0,241.56,323.58Z" transform="translate(-106.29 -70.99)"/><path class="cls-18" d="M226.8,354.49l0-.22a2.92,2.92,0,0,1,.59-1.38,4.19,4.19,0,0,1,2.63-1.55,4.81,4.81,0,0,1,1.89,0s.06,0,.07,0l1.58-3.6a1.23,1.23,0,0,1,1-.72h1.65v.7h-1.42a.45.45,0,0,0-.48.27c-.15.36-.31.72-.47,1.07,0,0,0,0,0,.05h7.06a.08.08,0,0,0,.08,0c.11-.2.23-.4.35-.6a.13.13,0,0,1,0-.05h-1.26a.42.42,0,0,1-.39-.22.31.31,0,0,1,.1-.39.47.47,0,0,1,.31-.09h3.22v.7h-1s-.06,0-.07,0c-.19.33-.38.65-.56,1a.13.13,0,0,0,0,.06l1.14,2,0,0,.39-.09a4.9,4.9,0,0,1,1.43-.09,4.52,4.52,0,0,1,2.66,1.09,3.13,3.13,0,0,1,1,1.68,3.05,3.05,0,0,1-1.27,3.18,4.4,4.4,0,0,1-2.18.87l-.38,0H244l-.69-.09a4.26,4.26,0,0,1-2.28-1.19,3.07,3.07,0,0,1-.88-1.66,1.06,1.06,0,0,1,0-.19h-1.82a.57.57,0,0,1-.4-.15l-.73-.68-1.92-1.79-1.68-1.58-.31-.29-.47,1.07h0l.06,0a3.55,3.55,0,0,1,2.3,2.64,2.79,2.79,0,0,1-.07,1.22,3.55,3.55,0,0,1-1.9,2.16,4.79,4.79,0,0,1-1.68.48l-.27,0h-.53c-.21,0-.43,0-.64-.08a4.19,4.19,0,0,1-2.7-1.63,2.94,2.94,0,0,1-.53-1.3l0-.23Zm5.68-2.22,0,0c-.26.6-.52,1.2-.79,1.8-.09.22-.18.43-.28.64a.44.44,0,0,1-.51.23.34.34,0,0,1-.27-.47l1.06-2.43s0,0,0-.05a3.46,3.46,0,0,0-3.87,1.84c-.55,1.42.38,2.91,2.07,3.4a3.57,3.57,0,0,0,4.21-1.61A2.54,2.54,0,0,0,232.48,352.27ZM241,355a2.91,2.91,0,0,0,2.45,2.33,3.64,3.64,0,0,0,3.77-1.33,2.39,2.39,0,0,0-.65-3.3,3.8,3.8,0,0,0-3.27-.59l.25.44,1.12,1.94a.33.33,0,0,1,.05.21.43.43,0,0,1-.45.3H241Zm-7.41-5.23,4.55,4.26,2.45-4.26Zm8.56,2-.88-1.52-2.35,4.07h1.21A3.49,3.49,0,0,1,242.14,351.74ZM241,354.29h2.61l-1.1-1.9A2.78,2.78,0,0,0,241,354.29Z" transform="translate(-106.29 -70.99)"/><path class="cls-18" d="M212,376.57l-.09-.21a2.75,2.75,0,0,1-.25-1.46,3.23,3.23,0,0,1,1.47-2.36,4.38,4.38,0,0,1,1.67-.71c.05,0,.06,0,.05-.06-.2-1.26-.41-2.52-.61-3.79a1,1,0,0,1,.52-1l.13-.07,1.29-.55h0l.39.62-.06,0-1.2.51c-.23.09-.3.21-.27.42l.18,1.13a.43.43,0,0,1,0,.05l.06,0,6.21-2.63s0,0,0-.07c0-.22,0-.44,0-.66v-.06l-.07,0-1.05.45a.46.46,0,0,1-.47-.05.31.31,0,0,1-.12-.38.38.38,0,0,1,.21-.2l2.82-1.19,0,0,.39.63-.05,0-.84.35a.07.07,0,0,0,0,.07c0,.35,0,.71,0,1.07a.08.08,0,0,0,0,.06l2.11,1.32,0,0,.29-.23a4.31,4.31,0,0,1,1.23-.62,5,5,0,0,1,3,0,4,4,0,0,1,1.86,1.11,2.9,2.9,0,0,1,.64,3.3,3.38,3.38,0,0,1-1.44,1.59l-.32.18,0,0-.42.18h-.05c-.22.06-.44.14-.66.19a4.92,4.92,0,0,1-2.69-.2,4.06,4.06,0,0,1-1.72-1.14l-.14-.16-.06,0-1.55.66a.63.63,0,0,1-.45,0l-1-.33-2.71-.87-2.37-.76-.45-.14.19,1.12h.07a4.45,4.45,0,0,1,3.52,1.47,2.92,2.92,0,0,1,.62,1.11,2.88,2.88,0,0,1-.48,2.64A3.65,3.65,0,0,1,218.2,378l-.23.13-.42.18h-.06a6.09,6.09,0,0,1-.61.17,5,5,0,0,1-3.31-.42,3.8,3.8,0,0,1-1.2-1l-.16-.19Zm3.8-4.13a.13.13,0,0,1,0,.06c.1.63.21,1.26.31,1.89,0,.22.08.45.11.67a.36.36,0,0,1-.33.4.41.41,0,0,1-.5-.32l-.42-2.56s0,0,0-.05a2.77,2.77,0,0,0-2.41,3.1,3.31,3.31,0,0,0,3.75,2.24c1.78-.21,3-1.55,2.83-3A3.16,3.16,0,0,0,215.79,372.44Zm9.09-.78a3.65,3.65,0,0,0,3.49,1.15,2.93,2.93,0,0,0,2.6-2.61,2.87,2.87,0,0,0-2.43-2.68,3.72,3.72,0,0,0-3.24.71l.48.3,2.08,1.29a.4.4,0,0,1,.16.18.34.34,0,0,1-.23.43l-2.84,1.2Zm-9.51-1.85,6.42,2.07-.19-4.71Zm8.71-1.48-1.64-1,.2,4.5,1.07-.46A2.93,2.93,0,0,1,224.08,368.33Zm.41,2.7,2.32-1-2-1.27A2.33,2.33,0,0,0,224.49,371Z" transform="translate(-106.29 -70.99)"/><path class="cls-18" d="M184.25,354.94l-.06-.22a2.72,2.72,0,0,1,0-1.47,3.52,3.52,0,0,1,1.88-2.16,4.73,4.73,0,0,1,1.79-.5s.06,0,.06,0c0-1.27,0-2.55.07-3.82a1,1,0,0,1,.69-1l.15-.05,1.37-.39h0l.27.66-.06,0-1.28.36c-.24.07-.34.18-.35.39,0,.38,0,.75,0,1.13v.05h.06l6.62-1.86a.09.09,0,0,0,.06-.06l.09-.66a.13.13,0,0,1,0-.06l-.07,0-1.12.31a.47.47,0,0,1-.46-.1.31.31,0,0,1-.05-.4.47.47,0,0,1,.25-.17l3-.84h.05l.28.66h-.06l-.89.26s-.05,0-.06.05c0,.36-.1.72-.14,1.07a0,0,0,0,0,0,.06l1.85,1.56,0,0,.33-.19a4.6,4.6,0,0,1,1.32-.46,5,5,0,0,1,2.95.33,3.72,3.72,0,0,1,1.64,1.32,2.87,2.87,0,0,1,0,3.34,3.71,3.71,0,0,1-1.72,1.4l-.34.14,0,0-.44.12H202c-.23,0-.46.08-.69.1a4.86,4.86,0,0,1-2.62-.51,3.77,3.77,0,0,1-1.5-1.34l-.1-.17H197l-1.66.47a.61.61,0,0,1-.44,0l-.95-.45-2.53-1.19-2.21-1-.41-.19,0,1.13h.07a4.21,4.21,0,0,1,3.22,1.89,2.85,2.85,0,0,1,.42,1.17,3,3,0,0,1-.95,2.55,4.17,4.17,0,0,1-1.39.9l-.25.09-.45.13h-.05c-.22,0-.43.08-.64.09a4.77,4.77,0,0,1-3.2-.82,3.37,3.37,0,0,1-1-1.09,2.39,2.39,0,0,1-.13-.21Zm4.5-3.62s0,0,0,.05l0,1.91c0,.23,0,.45,0,.68a.38.38,0,0,1-.4.35.39.39,0,0,1-.44-.37c0-.86,0-1.72,0-2.59a.43.43,0,0,1,0-.05,3,3,0,0,0-2.93,2.78,3.41,3.41,0,0,0,6.65,0A2.94,2.94,0,0,0,188.75,351.32Zm9.13.32a3.45,3.45,0,0,0,3.24,1.56,3.16,3.16,0,0,0,3-2.27,2.67,2.67,0,0,0-1.93-2.95,3.86,3.86,0,0,0-3.32.31l.42.36,1.82,1.53a.36.36,0,0,1,.12.19c0,.19-.08.34-.3.4l-3,.85Zm-9.08-3,6,2.81.65-4.68Zm8.87-.42-1.43-1.2-.61,4.47,1.14-.32A3.06,3.06,0,0,1,197.67,348.25Zm-.06,2.72,2.46-.7-1.79-1.5A2.36,2.36,0,0,0,197.61,351Z" transform="translate(-106.29 -70.99)"/><path class="cls-18" d="M180.14,325.23l-.06-.22a2.72,2.72,0,0,1,0-1.47,3.49,3.49,0,0,1,1.88-2.16,4.46,4.46,0,0,1,1.78-.5c.05,0,.06,0,.06-.05l.06-3.82a1.06,1.06,0,0,1,.7-1,.59.59,0,0,1,.14-.06l1.37-.39h0l.28.66-.07,0-1.28.36c-.24.07-.34.18-.34.39,0,.38,0,.76,0,1.14v0l.06,0,6.61-1.86s.06,0,.06-.06l.09-.66a.13.13,0,0,0,0-.06h-.07l-1.11.32a.49.49,0,0,1-.47-.1.32.32,0,0,1-.05-.4.51.51,0,0,1,.25-.17l3-.84.05,0,.28.67h-.06l-.89.25a.06.06,0,0,0,0,.06l-.15,1.07a.14.14,0,0,0,0,.06l1.86,1.56,0,0,.33-.19a4.31,4.31,0,0,1,1.32-.46,4.88,4.88,0,0,1,2.95.32A3.77,3.77,0,0,1,200.4,319a2.88,2.88,0,0,1,0,3.35,3.73,3.73,0,0,1-1.71,1.4l-.35.14,0,0-.44.12h-.06c-.23,0-.46.08-.69.1a4.82,4.82,0,0,1-2.63-.51,3.79,3.79,0,0,1-1.49-1.33l-.11-.18-.07,0-1.65.47a.66.66,0,0,1-.44,0l-1-.45L187.28,321l-2.21-1-.41-.19,0,1.14h.08a4.19,4.19,0,0,1,3.22,1.88,2.7,2.7,0,0,1,.41,1.17,3,3,0,0,1-.94,2.55,3.93,3.93,0,0,1-1.39.9l-.25.1-.45.13h0c-.21,0-.42.08-.64.1a4.74,4.74,0,0,1-3.19-.82,3.44,3.44,0,0,1-1-1.09l-.12-.21Zm4.49-3.63v.06l0,1.9c0,.23,0,.46,0,.69a.42.42,0,0,1-.84,0c0-.86,0-1.72,0-2.58v-.05a3,3,0,0,0-2.93,2.78,3.4,3.4,0,0,0,6.64,0A3,3,0,0,0,184.63,321.6Zm9.13.32a3.46,3.46,0,0,0,3.24,1.55,3.14,3.14,0,0,0,3-2.27,2.68,2.68,0,0,0-1.93-2.95,3.88,3.88,0,0,0-3.33.32l.43.35,1.82,1.53a.44.44,0,0,1,.13.2.35.35,0,0,1-.3.39l-3,.86Zm-9.08-3,6,2.81.63-4.68Zm8.87-.42-1.43-1.2-.61,4.47,1.15-.32A3,3,0,0,1,193.55,318.53Zm-.06,2.71,2.47-.69-1.8-1.51A2.4,2.4,0,0,0,193.49,321.24Z" transform="translate(-106.29 -70.99)"/><path class="cls-18" d="M152,308.15c0-.07,0-.15-.05-.22a2.72,2.72,0,0,1,.06-1.47,3.53,3.53,0,0,1,1.94-2.12,4.74,4.74,0,0,1,1.8-.46s.06,0,.06-.05L156,300a1.08,1.08,0,0,1,.73-.95l.14-.05,1.39-.36h0l.26.67-.07,0-1.29.33c-.24.06-.34.17-.35.38l-.06,1.14v.05l.06,0,6.67-1.72a.07.07,0,0,0,.06-.06c0-.22.08-.44.11-.66a.13.13,0,0,0,0-.06l-.06,0-1.13.29a.5.5,0,0,1-.46-.11.31.31,0,0,1,0-.4.44.44,0,0,1,.25-.16l3-.78.05,0,.26.67h-.06l-.9.24s0,0,0,0l-.18,1.07s0,0,0,.06l1.8,1.6,0,0,.34-.19a4.61,4.61,0,0,1,1.33-.43,4.92,4.92,0,0,1,2.94.39,3.73,3.73,0,0,1,1.6,1.34,2.87,2.87,0,0,1-.05,3.35,3.85,3.85,0,0,1-1.76,1.36l-.35.13-.05,0-.44.12h-.06c-.23,0-.46.07-.69.08a4.82,4.82,0,0,1-2.61-.56,3.69,3.69,0,0,1-1.45-1.37,1,1,0,0,1-.1-.18l-.07,0-1.67.43a.56.56,0,0,1-.44,0l-.94-.47-2.49-1.23L157.12,303l-.4-.2-.06,1.13h.07a4.15,4.15,0,0,1,3.17,1.95,2.77,2.77,0,0,1,.37,1.17,3,3,0,0,1-1,2.54,4.19,4.19,0,0,1-1.41.87l-.26.09-.45.12h0l-.64.09a4.74,4.74,0,0,1-3.17-.89,3.35,3.35,0,0,1-1-1.11l-.12-.22Zm4.61-3.53a.11.11,0,0,0,0,.05l-.09,1.91,0,.68a.38.38,0,0,1-.41.34.38.38,0,0,1-.43-.38l.12-2.58v-.05A2.75,2.75,0,1,0,156,310a3.13,3.13,0,0,0,3.42-2.58A2.9,2.9,0,0,0,156.63,304.62Zm9.11.51a3.43,3.43,0,0,0,3.2,1.62,3.19,3.19,0,0,0,3.1-2.21,2.65,2.65,0,0,0-1.83-3,3.9,3.9,0,0,0-3.34.25l.41.36,1.78,1.57a.35.35,0,0,1,.12.2.37.37,0,0,1-.32.39l-3.05.79Zm-9-3.16,5.9,2.93.78-4.66Zm8.88-.24-1.4-1.22L163.5,305l1.15-.3A3.08,3.08,0,0,1,165.64,301.73Zm-.15,2.72,2.49-.65-1.75-1.54A2.41,2.41,0,0,0,165.49,304.45Z" transform="translate(-106.29 -70.99)"/><path class="cls-18" d="M184.17,291.65l0-.23a3,3,0,0,1,.59-1.38,4.19,4.19,0,0,1,2.64-1.55,5,5,0,0,1,1.88,0c.05,0,.06,0,.08,0,.52-1.2,1-2.4,1.57-3.59a1.26,1.26,0,0,1,1-.72l.15,0h1.5v.7h-1.43a.45.45,0,0,0-.48.28c-.15.35-.31.71-.46,1.07l0,0h7.05a.07.07,0,0,0,.08-.05c.11-.2.23-.4.35-.6l0-.05h-1.25a.44.44,0,0,1-.4-.22.32.32,0,0,1,.11-.39.49.49,0,0,1,.3-.09h3.23v.7h-1a.08.08,0,0,0-.07,0l-.56,1a.06.06,0,0,0,0,.06l1.13,2,0,0,.39-.09a4.9,4.9,0,0,1,1.43-.09,4.53,4.53,0,0,1,2.66,1.1,3.06,3.06,0,0,1,1,1.68,3,3,0,0,1-1.27,3.17,4.36,4.36,0,0,1-2.18.87l-.38,0h-.57c-.23,0-.47,0-.69-.09A4.31,4.31,0,0,1,198.4,294a3.11,3.11,0,0,1-.88-1.66l0-.2h-1.82a.54.54,0,0,1-.41-.15l-.72-.68c-.65-.59-1.29-1.19-1.93-1.79L190.93,288l-.31-.29-.47,1.06h0l.06,0a3.55,3.55,0,0,1,2.3,2.65,2.62,2.62,0,0,1-.07,1.21,3.52,3.52,0,0,1-1.9,2.16,4.48,4.48,0,0,1-1.67.48l-.28,0h-.53c-.21,0-.43,0-.64-.08a4.18,4.18,0,0,1-2.7-1.63,2.9,2.9,0,0,1-.53-1.3l0-.23Zm5.68-2.23s0,0,0,.05l-.78,1.79c-.1.22-.19.43-.28.65a.45.45,0,0,1-.52.22.34.34,0,0,1-.27-.47c.36-.81.71-1.62,1.06-2.43,0,0,0,0,0-.05a3.47,3.47,0,0,0-3.87,1.84c-.54,1.42.38,2.91,2.07,3.4a3.56,3.56,0,0,0,4.21-1.61A2.53,2.53,0,0,0,189.85,289.42Zm8.51,2.73a2.92,2.92,0,0,0,2.46,2.33,3.63,3.63,0,0,0,3.77-1.33,2.4,2.4,0,0,0-.66-3.3,3.8,3.8,0,0,0-3.27-.59c.08.15.17.3.26.45l1.11,1.93a.29.29,0,0,1,.05.22.41.41,0,0,1-.44.29h-3.28ZM191,286.92l4.55,4.26,2.46-4.26Zm8.56,2-.88-1.51-2.35,4.06h1.21A3.53,3.53,0,0,1,199.51,288.89Zm-1.14,2.55H201l-1.1-1.9A2.81,2.81,0,0,0,198.37,291.44Z" transform="translate(-106.29 -70.99)"/><path class="cls-18" d="M147.48,270.26a1.7,1.7,0,0,0,0-.22,2.83,2.83,0,0,1,.59-1.38,4.19,4.19,0,0,1,2.63-1.55,4.76,4.76,0,0,1,1.88,0s.07,0,.08,0c.53-1.2,1.05-2.4,1.57-3.6a1.26,1.26,0,0,1,1-.72H157v.7h-1.42a.45.45,0,0,0-.48.27c-.16.36-.31.72-.47,1.07,0,0,0,0,0,0h7.05s.07,0,.09,0c.11-.2.23-.4.35-.6,0,0,0,0,0-.06h-1.25a.4.4,0,0,1-.39-.22.3.3,0,0,1,.1-.38.48.48,0,0,1,.31-.1h3.22v.7h-1s-.06,0-.07,0c-.19.33-.38.65-.56,1a.06.06,0,0,0,0,.06l1.14,2,0,0,.39-.1a5.25,5.25,0,0,1,1.43-.08,4.52,4.52,0,0,1,2.66,1.09,3.13,3.13,0,0,1,1,1.68,3.05,3.05,0,0,1-1.27,3.18,4.4,4.4,0,0,1-2.18.87l-.38,0h-.58c-.23,0-.46,0-.69-.09a4.26,4.26,0,0,1-2.28-1.19,3.16,3.16,0,0,1-.89-1.66l0-.19H159a.55.55,0,0,1-.4-.15l-.73-.68-1.92-1.8-1.68-1.57-.31-.29-.47,1.07h0l.05,0a3.53,3.53,0,0,1,2.31,2.64,2.79,2.79,0,0,1-.07,1.22,3.55,3.55,0,0,1-1.9,2.16,4.79,4.79,0,0,1-1.68.48l-.27,0h-.53c-.21,0-.43,0-.64-.08a4.19,4.19,0,0,1-2.7-1.63,2.83,2.83,0,0,1-.53-1.3,2,2,0,0,0,0-.24Zm5.69-2.23,0,.05-.79,1.8c-.09.21-.18.43-.28.64a.44.44,0,0,1-.51.23.33.33,0,0,1-.27-.47l1.06-2.44,0,0a3.45,3.45,0,0,0-3.87,1.84c-.55,1.42.37,2.91,2.07,3.4a3.56,3.56,0,0,0,4.21-1.62A2.55,2.55,0,0,0,153.17,268Zm8.51,2.74a2.92,2.92,0,0,0,2.45,2.33,3.63,3.63,0,0,0,3.77-1.34,2.39,2.39,0,0,0-.65-3.3,3.89,3.89,0,0,0-3.28-.59c.09.15.18.3.26.45l1.12,1.94a.27.27,0,0,1,0,.21.42.42,0,0,1-.44.3h-3.27Zm-7.41-5.23,4.55,4.25,2.45-4.25Zm8.56,2-.89-1.52-2.34,4.07h1.21A3.49,3.49,0,0,1,162.83,267.51Zm-1.14,2.55h2.61l-1.1-1.91A2.78,2.78,0,0,0,161.69,270.06Z" transform="translate(-106.29 -70.99)"/><path class="cls-18" d="M148.75,233.29a2.07,2.07,0,0,0,0-.22,2.9,2.9,0,0,1,.59-1.39,4.23,4.23,0,0,1,2.63-1.55,5,5,0,0,1,1.88,0c.05,0,.07,0,.08,0l1.57-3.6a1.26,1.26,0,0,1,1-.72h1.65v.69h-1.42a.45.45,0,0,0-.48.28l-.47,1.07a.17.17,0,0,1,0,.05h7c.05,0,.07,0,.09,0,.11-.2.23-.4.35-.6a.14.14,0,0,1,0-.06H162.1a.42.42,0,0,1-.39-.22.31.31,0,0,1,.1-.39.54.54,0,0,1,.31-.09h3.22v.7h-1s-.06,0-.07,0l-.57,1s0,0,0,.06l1.14,2,0,0,.39-.09a4.56,4.56,0,0,1,1.43-.08,4.46,4.46,0,0,1,2.66,1.09,3.13,3.13,0,0,1,1,1.68,3,3,0,0,1-1.28,3.18,4.42,4.42,0,0,1-2.17.87l-.38,0H166c-.23,0-.46,0-.69-.09a4.32,4.32,0,0,1-2.28-1.18,3.19,3.19,0,0,1-.89-1.66l0-.19H162c-.58,0-1.17,0-1.75,0a.55.55,0,0,1-.4-.15l-.73-.68-1.92-1.8-1.68-1.57-.31-.29-.47,1.07h0l.05,0a3.5,3.5,0,0,1,2.3,2.64,2.48,2.48,0,0,1-.07,1.21,3.48,3.48,0,0,1-1.9,2.17,4.47,4.47,0,0,1-1.67.47l-.27,0h-.53a4.66,4.66,0,0,1-.64-.08,4.14,4.14,0,0,1-2.7-1.62,2.82,2.82,0,0,1-.53-1.31,2.23,2.23,0,0,0,0-.23Zm5.69-2.23s0,0,0,.05l-.79,1.8c-.09.21-.18.43-.28.64a.44.44,0,0,1-.51.22.33.33,0,0,1-.27-.47l1.06-2.43s0,0,0-.05a3.46,3.46,0,0,0-3.87,1.85c-.55,1.41.37,2.91,2.07,3.4a3.57,3.57,0,0,0,4.21-1.62A2.55,2.55,0,0,0,154.44,231.06ZM163,233.8a2.93,2.93,0,0,0,2.45,2.33,3.63,3.63,0,0,0,3.77-1.34,2.39,2.39,0,0,0-.65-3.3,3.89,3.89,0,0,0-3.28-.59c.09.15.18.3.26.45l1.12,1.93a.29.29,0,0,1,0,.22.42.42,0,0,1-.44.3H163Zm-7.41-5.23,4.55,4.25,2.45-4.25Zm8.56,2-.89-1.51-2.34,4.07h1.21A3.51,3.51,0,0,1,164.1,230.53ZM163,233.08h2.61l-1.1-1.9A2.78,2.78,0,0,0,163,233.08Z" transform="translate(-106.29 -70.99)"/><path class="cls-18" d="M168.15,198.77l.09-.21a3.36,3.36,0,0,1,1-1.24,4.87,4.87,0,0,1,4.82-.66s.06,0,.09,0c.84-1.08,1.67-2.15,2.52-3.22a1.4,1.4,0,0,1,1.21-.51l.15,0,1.42.27h0l-.2.68h-.06l-1.32-.25a.48.48,0,0,0-.54.18l-.75,1,0,0h.06l6.8,1.3c.05,0,.07,0,.1,0l.5-.52,0-.05H184l-1.15-.22a.38.38,0,0,1-.33-.29.35.35,0,0,1,.21-.36.58.58,0,0,1,.32,0l3.09.59h.05l-.19.68h-.06l-.92-.18a.09.09,0,0,0-.08,0l-.81.84s0,0,0,.06l.57,2.13v0l.4,0a5.18,5.18,0,0,1,1.42.19,4,4,0,0,1,2.29,1.55,2.87,2.87,0,0,1,.54,1.83,3.33,3.33,0,0,1-2.11,2.86,4.82,4.82,0,0,1-2.36.45l-.38,0h0l-.46-.09-.05,0c-.22-.07-.44-.12-.65-.21a3.84,3.84,0,0,1-1.9-1.58,2.88,2.88,0,0,1-.41-1.78l0-.19h-.07l-1.71-.33a.5.5,0,0,1-.35-.22l-.52-.79L177,198.27c-.4-.61-.8-1.23-1.21-1.84-.07-.11-.14-.23-.22-.34l-.75.95h0l.05,0a3.16,3.16,0,0,1,1.51,3,2.68,2.68,0,0,1-.4,1.17,4,4,0,0,1-2.44,1.76,5,5,0,0,1-1.76.16l-.28,0-.46-.09,0,0a6,6,0,0,1-.6-.19,3.68,3.68,0,0,1-2.19-2.09,2.75,2.75,0,0,1-.16-1.36l0-.24Zm6.15-1.12,0,0L173,199.3l-.45.58a.47.47,0,0,1-.56.12.32.32,0,0,1-.14-.51l1.7-2.17,0,0a3.73,3.73,0,0,0-4.28,1.09,2.45,2.45,0,0,0,1.09,3.69,3.78,3.78,0,0,0,4.54-.8A2.4,2.4,0,0,0,174.3,197.65Zm7.54,4.24a2.63,2.63,0,0,0,1.75,2.73,3.85,3.85,0,0,0,4-.61,2.37,2.37,0,0,0,.27-3.34,3.63,3.63,0,0,0-3-1.18c0,.17.09.33.13.49l.56,2.09a.28.28,0,0,1,0,.22.46.46,0,0,1-.51.21l-3.12-.6Zm-5.79-6.46,3.27,5,3.56-3.69Zm7.8,3.49-.44-1.63-3.4,3.52,1.18.23A4,4,0,0,1,183.85,198.92Zm-1.8,2.28,2.54.48-.55-2.06A3.19,3.19,0,0,0,182.05,201.2Z" transform="translate(-106.29 -70.99)"/><path class="cls-18" d="M184.93,176.08l.12-.2a3.53,3.53,0,0,1,1.09-1.16,4.79,4.79,0,0,1,3.1-.78,4.86,4.86,0,0,1,1.78.49s.06,0,.09,0c1-1,1.91-2,2.88-3a1.4,1.4,0,0,1,1.26-.41l.15,0,1.38.38h0l-.27.66h-.07l-1.28-.36a.52.52,0,0,0-.56.14c-.29.3-.57.6-.86.89l0,0h.05l6.63,1.82a.09.09,0,0,0,.1,0l.56-.48,0,0-.07,0-1.12-.31a.33.33,0,0,1,0-.65.5.5,0,0,1,.32,0l3,.83h.06l-.27.67-.06,0-.9-.25a.08.08,0,0,0-.08,0l-.91.78a0,0,0,0,0,0,.06c.1.72.21,1.44.31,2.16v0l.41,0a4.59,4.59,0,0,1,1.38.29,3.78,3.78,0,0,1,2.1,1.73,2.71,2.71,0,0,1,.33,1.86,3.52,3.52,0,0,1-2.43,2.68,4.87,4.87,0,0,1-2.4.26l-.37-.07h-.06l-.44-.12-.05,0c-.21-.08-.42-.16-.62-.26a3.63,3.63,0,0,1-1.71-1.71,2.83,2.83,0,0,1-.2-1.81c0-.06,0-.13.05-.19l-.07,0-1.66-.46a.49.49,0,0,1-.33-.24l-.42-.83c-.38-.74-.76-1.47-1.13-2.21l-1-1.93-.18-.35-.86.89h0l0,0a3,3,0,0,1,1.16,3.11,2.85,2.85,0,0,1-.53,1.13,4.24,4.24,0,0,1-2.64,1.56,5,5,0,0,1-1.77,0l-.27-.05-.45-.12-.05,0c-.19-.08-.39-.15-.57-.24a3.54,3.54,0,0,1-1.94-2.25,2.65,2.65,0,0,1,0-1.37l.06-.23Zm6.25-.63,0,0-1.43,1.5-.52.54a.47.47,0,0,1-.57.07.31.31,0,0,1-.08-.51l2-2,0,0a3.78,3.78,0,0,0-4.38.74,2.41,2.41,0,0,0,.66,3.76,3.83,3.83,0,0,0,4.61-.43A2.37,2.37,0,0,0,191.18,175.45Zm7,4.81a2.52,2.52,0,0,0,1.42,2.85,3.91,3.91,0,0,0,4.1-.29,2.39,2.39,0,0,0,.65-3.3,3.45,3.45,0,0,0-2.88-1.41c0,.16,0,.33.07.49.11.71.21,1.42.32,2.13a.32.32,0,0,1,0,.21.48.48,0,0,1-.54.17l-3-.84Zm-5-6.89,2.68,5.22,4-3.4Zm7.37,4.09-.26-1.67L196.5,179l1.15.32A4.19,4.19,0,0,1,200.55,177.46Zm-2.07,2.12,2.48.68-.31-2.09A3.38,3.38,0,0,0,198.48,179.58Z" transform="translate(-106.29 -70.99)"/><path class="cls-18" d="M268.12,329.36l0-.22a3,3,0,0,1,.59-1.39,4.23,4.23,0,0,1,2.63-1.55,5,5,0,0,1,1.89,0c.05,0,.06,0,.07,0l1.58-3.6a1.25,1.25,0,0,1,1-.72h1.64v.69h-1.42a.45.45,0,0,0-.48.28c-.15.36-.31.71-.46,1.07a.08.08,0,0,0,0,.05h7.05a.08.08,0,0,0,.08,0c.11-.2.23-.4.35-.6l0-.06h-1.25a.44.44,0,0,1-.4-.22.32.32,0,0,1,.11-.39.49.49,0,0,1,.3-.09h3.23v.7h-1a.07.07,0,0,0-.07,0l-.56,1a.09.09,0,0,0,0,.07l1.13,2,0,0,.39-.09a4.58,4.58,0,0,1,1.43-.08,4.46,4.46,0,0,1,2.66,1.09,3.13,3.13,0,0,1,1,1.68,3,3,0,0,1-1.27,3.18,4.49,4.49,0,0,1-2.18.87l-.38,0h-.58c-.23,0-.46,0-.68-.08a4.4,4.4,0,0,1-2.29-1.19,3.11,3.11,0,0,1-.88-1.66,1.29,1.29,0,0,0,0-.19h-1.82a.57.57,0,0,1-.4-.15c-.24-.23-.48-.46-.73-.68l-1.92-1.8-1.68-1.57-.31-.29-.47,1.07h0l.06,0a3.53,3.53,0,0,1,2.3,2.64,2.61,2.61,0,0,1-.07,1.21,3.54,3.54,0,0,1-1.9,2.17,4.68,4.68,0,0,1-1.67.48l-.28,0H272c-.21,0-.43,0-.64-.07a4.19,4.19,0,0,1-2.7-1.63,2.93,2.93,0,0,1-.53-1.31l0-.23Zm5.68-2.23,0,.05L273,329c-.1.21-.19.43-.28.64a.45.45,0,0,1-.52.22.34.34,0,0,1-.27-.47c.36-.81.71-1.62,1.06-2.43a.08.08,0,0,0,0-.05,3.46,3.46,0,0,0-3.87,1.85c-.55,1.41.38,2.91,2.07,3.4a3.57,3.57,0,0,0,4.21-1.62A2.54,2.54,0,0,0,273.8,327.13Zm8.51,2.74a3,3,0,0,0,2.45,2.33,3.65,3.65,0,0,0,3.78-1.34,2.4,2.4,0,0,0-.66-3.3,3.86,3.86,0,0,0-3.27-.59c.08.15.17.3.26.45l1.11,1.93a.34.34,0,0,1,0,.22.42.42,0,0,1-.44.3h-3.28Zm-7.41-5.23,4.55,4.25,2.46-4.25Zm8.56,2-.88-1.51-2.35,4.07h1.21A3.51,3.51,0,0,1,283.46,326.6Zm-1.14,2.55h2.61l-1.1-1.9A2.78,2.78,0,0,0,282.32,329.15Z" transform="translate(-106.29 -70.99)"/><path class="cls-18" d="M266,360.07l0-.22a3,3,0,0,1,.59-1.39,4.22,4.22,0,0,1,2.64-1.54,4.76,4.76,0,0,1,1.88,0c.05,0,.06,0,.08,0,.52-1.2,1-2.4,1.57-3.6a1.25,1.25,0,0,1,1-.72h1.65v.7h-1.43a.46.46,0,0,0-.48.27c-.15.36-.31.71-.46,1.07,0,0,0,0,0,0h7a.08.08,0,0,0,.08,0c.11-.2.23-.4.35-.6a.33.33,0,0,0,0-.06h-1.25a.42.42,0,0,1-.4-.22.31.31,0,0,1,.11-.38.44.44,0,0,1,.3-.1h3.23v.7h-1a.08.08,0,0,0-.07,0l-.56,1a.06.06,0,0,0,0,.06c.38.65.76,1.31,1.13,2l0,0,.39-.1a4.9,4.9,0,0,1,1.43-.08,4.52,4.52,0,0,1,2.66,1.09,3.13,3.13,0,0,1,1,1.68,3,3,0,0,1-1.27,3.18,4.45,4.45,0,0,1-2.18.87c-.12,0-.25,0-.38,0h-.58c-.22,0-.46,0-.68-.08a4.26,4.26,0,0,1-2.29-1.19,3.07,3.07,0,0,1-.88-1.66l0-.19h-1.82a.58.58,0,0,1-.41-.15l-.73-.68-1.92-1.8-1.68-1.57-.31-.29-.47,1.07h0l.06,0a3.53,3.53,0,0,1,2.3,2.64,2.65,2.65,0,0,1-.07,1.22,3.55,3.55,0,0,1-1.9,2.16,4.68,4.68,0,0,1-1.67.48l-.28,0h-.53c-.21,0-.43,0-.64-.07a4.19,4.19,0,0,1-2.7-1.63,2.94,2.94,0,0,1-.53-1.3l0-.24Zm5.68-2.23a.08.08,0,0,1,0,.05l-.78,1.8c-.1.21-.19.43-.28.64a.45.45,0,0,1-.52.23.34.34,0,0,1-.27-.47l1.06-2.44a.08.08,0,0,0,0,0,3.46,3.46,0,0,0-3.87,1.85c-.55,1.41.38,2.91,2.07,3.4a3.55,3.55,0,0,0,4.21-1.62A2.54,2.54,0,0,0,271.69,357.84Zm8.51,2.74a3,3,0,0,0,2.45,2.33,3.64,3.64,0,0,0,3.78-1.34,2.4,2.4,0,0,0-.66-3.3,3.86,3.86,0,0,0-3.27-.59c.08.15.17.3.26.45l1.11,1.94a.28.28,0,0,1,.05.21.42.42,0,0,1-.44.3H280.2Zm-7.41-5.23,4.55,4.25,2.46-4.25Zm8.56,2-.88-1.52-2.35,4.07h1.21A3.52,3.52,0,0,1,281.35,357.32Zm-1.14,2.55h2.61l-1.1-1.91A2.78,2.78,0,0,0,280.21,359.87Z" transform="translate(-106.29 -70.99)"/><path class="cls-18" d="M288.56,366l.22-.13a4.59,4.59,0,0,1,1.64-.58,4.92,4.92,0,0,1,3.17.56,3.66,3.66,0,0,1,1.26,1.14.07.07,0,0,0,.09,0l4.29-1.47a1.52,1.52,0,0,1,1.35.14l.12.09,1,.88,0,0-.63.47-.05,0-.91-.82a.52.52,0,0,0-.57-.1l-1.28.43-.06,0,.05,0,4.7,4.24s.05,0,.1,0l.77-.19.07,0,0,0-.79-.72a.3.3,0,0,1-.07-.39.44.44,0,0,1,.42-.19.43.43,0,0,1,.29.12l2.13,1.92,0,0-.63.47,0,0-.63-.57a.1.1,0,0,0-.09,0l-1.25.32a.07.07,0,0,0-.06,0l-1,2v0l.35.18a4,4,0,0,1,1,.81,3,3,0,0,1,.8,2.35,2.9,2.9,0,0,1-.81,1.75,4.86,4.86,0,0,1-6,.64l-.29-.21,0,0-.32-.29,0,0c-.13-.16-.27-.31-.38-.47a2.84,2.84,0,0,1-.47-2.19,3.06,3.06,0,0,1,.89-1.65l.16-.15-.05-.05-1.18-1.06a.37.37,0,0,1-.14-.34l.12-.9c.11-.79.22-1.58.32-2.38s.19-1.38.29-2.07c0-.13,0-.26.05-.39l-1.28.44h0l0,.05a3,3,0,0,1-.83,3.17,3.84,3.84,0,0,1-1.14.78,5,5,0,0,1-3.23.3,4.28,4.28,0,0,1-1.55-.69l-.21-.15-.32-.29,0,0a5.07,5.07,0,0,1-.36-.45,2.86,2.86,0,0,1-.36-2.73,3.11,3.11,0,0,1,.82-1.2l.18-.18Zm5.83,1.95h-.06l-2.14.74-.77.26a.45.45,0,0,1-.55-.16c-.11-.19,0-.39.24-.48l2.91-1,.06,0a3.73,3.73,0,0,0-4.27-1.1,2.55,2.55,0,0,0-1.67,3.55,3.62,3.62,0,0,0,4.29,1.46A2.61,2.61,0,0,0,294.39,367.9Zm3.28,7a2.35,2.35,0,0,0-.45,3.06,3.62,3.62,0,0,0,3.75,1.39,2.92,2.92,0,0,0,2.52-2.63,2.66,2.66,0,0,0-1.67-2.38l-.23.46-1,2a.33.33,0,0,1-.16.17.5.5,0,0,1-.57-.07l-2.15-1.94Zm-.29-8-.76,5.63,5.48-1.38Zm4,6.52.76-1.56-5.24,1.32.82.73A5,5,0,0,1,301.38,373.4Zm-3.07,1,1.76,1.58,1-1.95A4,4,0,0,0,298.31,374.43Z" transform="translate(-106.29 -70.99)"/><path class="cls-18" d="M311.36,348.21l.14-.2a3.76,3.76,0,0,1,1.25-1,4.92,4.92,0,0,1,3.19-.49,4.51,4.51,0,0,1,1.7.66s.05,0,.09,0l3.28-2.71a1.48,1.48,0,0,1,1.31-.3l.15.05,1.31.5,0,0-.36.63-.06,0-1.23-.47a.51.51,0,0,0-.58.09l-1,.8,0,0,.05,0,6.33,2.43a.08.08,0,0,0,.1,0l.63-.42.05,0-.06,0-1.07-.41a.35.35,0,0,1-.25-.34.39.39,0,0,1,.3-.32.59.59,0,0,1,.32,0l2.87,1.1,0,0-.36.63-.05,0-.86-.33a.08.08,0,0,0-.08,0l-1,.69a.11.11,0,0,0,0,.06c0,.72,0,1.45,0,2.18v0l.4.05a4.45,4.45,0,0,1,1.34.42,3.6,3.6,0,0,1,1.84,1.91,2.71,2.71,0,0,1,.07,1.88,3.75,3.75,0,0,1-2.79,2.44,4.84,4.84,0,0,1-2.42,0l-.37-.1h0l-.42-.16-.05,0a6.55,6.55,0,0,1-.58-.32,3.31,3.31,0,0,1-1.45-1.87,2.74,2.74,0,0,1,0-1.81l.07-.18-.06,0-1.59-.61a.44.44,0,0,1-.29-.27c-.1-.29-.2-.58-.31-.87l-.81-2.3c-.24-.66-.47-1.33-.71-2,0-.13-.09-.25-.13-.38l-1,.81h0l0,0a2.93,2.93,0,0,1,.73,3.19,3.11,3.11,0,0,1-.69,1.08,4.46,4.46,0,0,1-2.84,1.3,5,5,0,0,1-1.76-.15l-.26-.07-.44-.17,0,0c-.18-.1-.37-.19-.54-.3a3.28,3.28,0,0,1-1.6-2.41,2.8,2.8,0,0,1,.18-1.37c0-.07.07-.14.1-.22Zm6.3,0-.05,0L316,349.56l-.58.48a.47.47,0,0,1-.58,0,.3.3,0,0,1,0-.51c.73-.62,1.47-1.23,2.21-1.84a.08.08,0,0,0,0,0,3.84,3.84,0,0,0-4.45.33,2.39,2.39,0,0,0,.12,3.8,3.84,3.84,0,0,0,4.64,0A2.37,2.37,0,0,0,317.66,348.16ZM324,353.6a2.43,2.43,0,0,0,1,3,3.92,3.92,0,0,0,4.11.1,2.46,2.46,0,0,0,1.11-3.22,3.29,3.29,0,0,0-2.66-1.67v.49c0,.72,0,1.43,0,2.14a.27.27,0,0,1-.07.21.48.48,0,0,1-.55.12l-2.9-1.11Zm-4-7.31,1.93,5.43,4.41-3Zm6.74,4.75,0-1.67-4.22,2.86,1.09.42A4.49,4.49,0,0,1,326.68,351ZM324.33,353l2.36.91v-2.11A3.51,3.51,0,0,0,324.33,353Z" transform="translate(-106.29 -70.99)"/><path class="cls-18" d="M264.16,206.41l0-.23a2.94,2.94,0,0,1,.6-1.38,4.19,4.19,0,0,1,2.63-1.55,4.76,4.76,0,0,1,1.88,0c.05,0,.06,0,.08,0,.52-1.2,1-2.4,1.57-3.59a1.25,1.25,0,0,1,1-.73h1.65v.7h-1.43a.43.43,0,0,0-.47.28c-.16.35-.32.71-.47,1.06l0,0h7.05a.08.08,0,0,0,.08,0c.12-.2.24-.4.35-.6l0-.05h-1.25a.45.45,0,0,1-.4-.22.32.32,0,0,1,.11-.39.45.45,0,0,1,.3-.09h3.23v.7h-1a.1.1,0,0,0-.08,0c-.18.33-.37.65-.56,1a.06.06,0,0,0,0,.06l1.14,2,0,0c.13,0,.25-.07.38-.09a4.9,4.9,0,0,1,1.43-.09,4.44,4.44,0,0,1,2.66,1.1,3,3,0,0,1-.24,4.85,4.36,4.36,0,0,1-2.17.87l-.39,0h-.57c-.23,0-.47,0-.69-.09a4.28,4.28,0,0,1-2.28-1.18,3.12,3.12,0,0,1-.89-1.66l0-.2h-1.82a.58.58,0,0,1-.41-.15l-.72-.68-1.92-1.79-1.68-1.58-.32-.29-.46,1.07h0l0,0a3.51,3.51,0,0,1,2.3,2.64,2.65,2.65,0,0,1-.07,1.22,3.52,3.52,0,0,1-1.9,2.16,4.68,4.68,0,0,1-1.67.48l-.27,0h-.53c-.22,0-.43,0-.64-.08a4.15,4.15,0,0,1-2.7-1.63,3,3,0,0,1-.54-1.3l0-.23Zm5.69-2.23,0,0L269,206c-.09.22-.19.43-.28.64a.44.44,0,0,1-.52.23.33.33,0,0,1-.26-.47c.35-.81.7-1.62,1.06-2.43a.08.08,0,0,1,0-.05,3.46,3.46,0,0,0-3.87,1.84c-.55,1.42.37,2.91,2.07,3.4a3.57,3.57,0,0,0,4.21-1.61A2.55,2.55,0,0,0,269.85,204.18Zm8.51,2.73a2.91,2.91,0,0,0,2.45,2.33,3.62,3.62,0,0,0,3.77-1.33,2.39,2.39,0,0,0-.66-3.3,3.8,3.8,0,0,0-3.27-.59l.26.45c.37.64.74,1.29,1.12,1.93a.29.29,0,0,1,0,.22.41.41,0,0,1-.44.29h-3.27Zm-7.42-5.23,4.55,4.26,2.46-4.26Zm8.56,2-.88-1.52-2.35,4.07h1.22A3.5,3.5,0,0,1,279.5,203.65Zm-1.13,2.55H281l-1.1-1.9A2.78,2.78,0,0,0,278.37,206.2Z" transform="translate(-106.29 -70.99)"/><path class="cls-18" d="M294.5,198.09a1.7,1.7,0,0,1,0-.22,2.83,2.83,0,0,1,.59-1.38,4.19,4.19,0,0,1,2.63-1.55,5,5,0,0,1,1.88,0c.05,0,.07,0,.08,0l1.57-3.6a1.26,1.26,0,0,1,1-.72H304v.7h-1.42a.45.45,0,0,0-.48.27c-.16.36-.31.72-.47,1.07l0,0h7.05c.05,0,.07,0,.08,0,.12-.2.24-.4.35-.6l0-.05h-1.25a.4.4,0,0,1-.39-.22.29.29,0,0,1,.1-.38.47.47,0,0,1,.3-.1h3.23V192h-1s-.06,0-.07,0l-.57,1a.06.06,0,0,0,0,.06l1.14,2,0,0,.39-.1a5.25,5.25,0,0,1,1.43-.08,4.52,4.52,0,0,1,2.66,1.09,3.13,3.13,0,0,1,1,1.68,3,3,0,0,1-1.28,3.18,4.32,4.32,0,0,1-2.17.87l-.38,0h-.58c-.23,0-.46,0-.69-.09a4.26,4.26,0,0,1-2.28-1.19,3.09,3.09,0,0,1-.89-1.66l0-.19H306a.55.55,0,0,1-.4-.15l-.73-.68L303,196l-1.68-1.58-.31-.29-.47,1.07h0l.05,0a3.5,3.5,0,0,1,2.3,2.64,2.52,2.52,0,0,1-.07,1.22,3.52,3.52,0,0,1-1.9,2.16,4.68,4.68,0,0,1-1.67.48l-.27,0h-.53c-.21,0-.43,0-.64-.08a4.19,4.19,0,0,1-2.7-1.63,2.83,2.83,0,0,1-.53-1.3,2,2,0,0,1,0-.24Zm5.69-2.23,0,0c-.27.6-.53,1.2-.79,1.8-.09.21-.18.43-.28.64a.45.45,0,0,1-.51.23.33.33,0,0,1-.27-.47l1.06-2.44s0,0,0,0a3.45,3.45,0,0,0-3.87,1.84c-.55,1.42.37,2.91,2.07,3.4a3.56,3.56,0,0,0,4.21-1.62A2.55,2.55,0,0,0,300.19,195.86Zm8.51,2.74a2.92,2.92,0,0,0,2.45,2.33,3.63,3.63,0,0,0,3.77-1.34,2.38,2.38,0,0,0-.66-3.3,3.86,3.86,0,0,0-3.27-.59c.09.15.18.3.26.45l1.12,1.94a.27.27,0,0,1,0,.21.42.42,0,0,1-.44.3H308.7Zm-7.41-5.23,4.55,4.25,2.45-4.25Zm8.56,2-.89-1.52-2.34,4.07h1.21A3.49,3.49,0,0,1,309.85,195.34Zm-1.14,2.55h2.61l-1.1-1.91A2.78,2.78,0,0,0,308.71,197.89Z" transform="translate(-106.29 -70.99)"/><path class="cls-18" d="M303.32,177l0-.22a2.83,2.83,0,0,1,.59-1.38,4.19,4.19,0,0,1,2.63-1.55,5,5,0,0,1,1.89,0s.06,0,.07,0l1.58-3.6a1.23,1.23,0,0,1,1-.72h1.65v.7h-1.42a.45.45,0,0,0-.48.27c-.16.36-.31.72-.47,1.07,0,0,0,0,0,.05h7.05c.05,0,.07,0,.09,0,.11-.2.23-.4.35-.6a.13.13,0,0,1,0,0h-1.26a.42.42,0,0,1-.39-.22.31.31,0,0,1,.1-.39.47.47,0,0,1,.31-.09h3.22v.7h-1s-.06,0-.07,0c-.19.33-.38.65-.56,1a.07.07,0,0,0,0,.06l1.14,2,0,0,.39-.09a4.9,4.9,0,0,1,1.43-.09,4.52,4.52,0,0,1,2.66,1.09,3.13,3.13,0,0,1,1,1.68,3.05,3.05,0,0,1-1.27,3.18,4.4,4.4,0,0,1-2.18.87l-.38,0h-.58l-.69-.09a4.26,4.26,0,0,1-2.28-1.19,3.16,3.16,0,0,1-.89-1.66l0-.19h-1.82a.55.55,0,0,1-.4-.15l-.73-.68-1.92-1.79-1.68-1.58-.31-.29-.47,1.07h0l.05,0a3.54,3.54,0,0,1,2.31,2.64,2.79,2.79,0,0,1-.07,1.22,3.55,3.55,0,0,1-1.9,2.16,4.79,4.79,0,0,1-1.68.48l-.27,0h-.53c-.21,0-.43,0-.64-.08a4.19,4.19,0,0,1-2.7-1.63,2.94,2.94,0,0,1-.53-1.3l0-.23Zm5.68-2.22a.08.08,0,0,0,0,0c-.26.6-.52,1.2-.79,1.8-.09.21-.18.43-.28.64a.44.44,0,0,1-.51.23.33.33,0,0,1-.27-.47l1.06-2.43s0,0,0,0a3.45,3.45,0,0,0-3.87,1.84c-.55,1.42.37,2.91,2.07,3.4a3.56,3.56,0,0,0,4.21-1.62A2.53,2.53,0,0,0,309,174.79Zm8.51,2.73a2.91,2.91,0,0,0,2.45,2.33,3.64,3.64,0,0,0,3.77-1.33,2.4,2.4,0,0,0-.65-3.31,3.89,3.89,0,0,0-3.28-.59c.09.15.18.3.26.45l1.12,1.94a.27.27,0,0,1,0,.21.41.41,0,0,1-.44.3h-3.27Zm-7.41-5.23,4.55,4.25,2.45-4.25Zm8.56,2-.89-1.52-2.34,4.07h1.21A3.49,3.49,0,0,1,318.66,174.26Zm-1.14,2.55h2.61l-1.1-1.9A2.76,2.76,0,0,0,317.52,176.81Z" transform="translate(-106.29 -70.99)"/><path class="cls-18" d="M302.28,224l0-.22a2.92,2.92,0,0,1,.59-1.38,4.21,4.21,0,0,1,2.64-1.55,4.76,4.76,0,0,1,1.88,0c.05,0,.06,0,.08,0,.52-1.2,1-2.4,1.57-3.6a1.26,1.26,0,0,1,1-.72h1.65v.7h-1.43a.44.44,0,0,0-.47.27l-.47,1.07,0,.05h7.05a.08.08,0,0,0,.08,0l.35-.6,0,0h-1.25a.44.44,0,0,1-.4-.22.32.32,0,0,1,.11-.39.45.45,0,0,1,.3-.09h3.23v.7h-1a.1.1,0,0,0-.08,0c-.18.33-.37.65-.56,1a.06.06,0,0,0,0,.06l1.14,2v0l.39-.09a4.9,4.9,0,0,1,1.43-.09,4.52,4.52,0,0,1,2.66,1.09,3.07,3.07,0,0,1,1,1.68,3,3,0,0,1-1.27,3.18,4.36,4.36,0,0,1-2.18.87l-.38,0h-.57c-.23,0-.47-.05-.69-.09a4.19,4.19,0,0,1-2.28-1.19,3.09,3.09,0,0,1-.89-1.66l0-.19h-1.82a.58.58,0,0,1-.41-.15l-.72-.68-1.92-1.79-1.68-1.58-.32-.29-.46,1.07h0l.05,0a3.53,3.53,0,0,1,2.3,2.64,2.65,2.65,0,0,1-.07,1.22,3.52,3.52,0,0,1-1.9,2.16,4.68,4.68,0,0,1-1.67.48l-.27,0h-.53c-.22,0-.44,0-.65-.08a4.19,4.19,0,0,1-2.69-1.63,2.85,2.85,0,0,1-.54-1.3l0-.23Zm5.69-2.22,0,0-.78,1.8c-.09.22-.19.43-.28.64a.45.45,0,0,1-.52.23.34.34,0,0,1-.27-.47c.36-.81.71-1.62,1.06-2.43l0,0a3.46,3.46,0,0,0-3.87,1.84c-.54,1.42.38,2.91,2.08,3.4a3.55,3.55,0,0,0,4.2-1.61A2.53,2.53,0,0,0,308,221.76Zm8.5,2.73a2.92,2.92,0,0,0,2.46,2.33,3.64,3.64,0,0,0,3.77-1.33,2.4,2.4,0,0,0-.66-3.3,3.8,3.8,0,0,0-3.27-.59l.26.45,1.12,1.93a.27.27,0,0,1,0,.21.41.41,0,0,1-.44.3h-3.28Zm-7.41-5.23,4.55,4.26,2.46-4.26Zm8.56,2-.88-1.52-2.35,4.07h1.21A3.52,3.52,0,0,1,317.62,221.23Zm-1.13,2.55h2.6l-1.1-1.9A2.76,2.76,0,0,0,316.49,223.78Z" transform="translate(-106.29 -70.99)"/><path class="cls-18" d="M336.49,231.2a1.77,1.77,0,0,0,0-.23,2.82,2.82,0,0,1,.33-1.44,3.84,3.84,0,0,1,2.31-1.86,4.86,4.86,0,0,1,1.86-.23s.06,0,.07-.05c.3-1.25.59-2.5.88-3.75a1.16,1.16,0,0,1,.9-.84.37.37,0,0,1,.15,0l1.43-.19h0l.13.69h-.07l-1.34.17c-.25,0-.37.13-.41.33l-.27,1.12a.13.13,0,0,1,0,0h.07l6.9-.88s.06,0,.07-.05l.24-.64a.14.14,0,0,1,0-.06h-.07l-1.17.15a.46.46,0,0,1-.43-.17.31.31,0,0,1,0-.4.45.45,0,0,1,.28-.12l3.13-.4h.06l.13.69h-.06l-.93.12a.07.07,0,0,0-.07,0c-.12.35-.25.69-.37,1a.07.07,0,0,0,0,.06l1.49,1.8,0,0,.36-.14a4.9,4.9,0,0,1,4.23.48,3.33,3.33,0,0,1,1.34,1.53,2.9,2.9,0,0,1-.67,3.3,4.1,4.1,0,0,1-2,1.13l-.37.08-.05,0-.46.06h-.76a4.6,4.6,0,0,1-2.48-.89,3.33,3.33,0,0,1-1.18-1.52c0-.07-.05-.13-.07-.19h-.07l-1.73.22a.59.59,0,0,1-.43-.1l-.84-.58L344.44,228l-1.95-1.34-.36-.25-.27,1.11h0l.05,0a3.82,3.82,0,0,1,2.77,2.32,2.64,2.64,0,0,1,.16,1.21,3.25,3.25,0,0,1-1.47,2.37,4.37,4.37,0,0,1-1.57.69l-.26.06-.47.06s0,0-.06,0h-.64a4.5,4.5,0,0,1-3-1.27,3.23,3.23,0,0,1-.77-1.22l-.07-.22Zm5.21-2.92s0,0,0,.05c-.14.62-.29,1.25-.44,1.87l-.15.67a.43.43,0,0,1-.47.29c-.25,0-.41-.21-.35-.43.19-.85.39-1.69.59-2.54a.43.43,0,0,0,0-.05,3.24,3.24,0,0,0-3.48,2.31c-.28,1.47.91,2.83,2.68,3.1a3.35,3.35,0,0,0,3.86-2.13A2.71,2.71,0,0,0,341.7,228.28Zm8.91,1.63a3.18,3.18,0,0,0,2.86,2,3.42,3.42,0,0,0,3.48-1.79,2.49,2.49,0,0,0-1.27-3.18,3.89,3.89,0,0,0-3.34-.17l.34.41,1.47,1.77a.32.32,0,0,1,.08.21.37.37,0,0,1-.38.34l-3.16.41Zm-8.3-4.23,5.29,3.62,1.63-4.51Zm8.83.86L350,225.15l-1.55,4.32,1.19-.15A3.28,3.28,0,0,1,351.14,226.54Zm-.65,2.66,2.58-.33-1.44-1.74A2.6,2.6,0,0,0,350.49,229.2Z" transform="translate(-106.29 -70.99)"/><path class="cls-18" d="M336.68,207.46a1.79,1.79,0,0,0,0-.23,2.71,2.71,0,0,1,.22-1.45,3.77,3.77,0,0,1,2.18-2,4.77,4.77,0,0,1,1.85-.31s.06,0,.06-.05c.21-1.26.41-2.53.62-3.79a1.12,1.12,0,0,1,.83-.88l.15,0,1.42-.25h0l.18.68-.07,0-1.32.23a.41.41,0,0,0-.4.35l-.18,1.13a.07.07,0,0,0,0,.05h.06l6.84-1.2s.06,0,.07-.06l.18-.65s0,0,0-.05h-.07l-1.16.2a.47.47,0,0,1-.44-.15.29.29,0,0,1,0-.39.43.43,0,0,1,.27-.15l3.1-.54h.05l.18.68h-.06l-.92.17s-.05,0-.06,0l-.3,1.05s0,0,0,.06l1.62,1.73,0,0,.36-.16a5.16,5.16,0,0,1,1.38-.33,4.82,4.82,0,0,1,2.88.62,3.52,3.52,0,0,1,1.43,1.46,2.89,2.89,0,0,1-.43,3.33,4,4,0,0,1-1.91,1.22l-.36.1-.05,0-.46.08h-.05c-.24,0-.47,0-.7,0a4.63,4.63,0,0,1-2.53-.77,3.36,3.36,0,0,1-1.29-1.47l-.09-.19-.06,0-1.72.3a.58.58,0,0,1-.43-.08l-.88-.54-2.34-1.42-2-1.25-.38-.23-.19,1.12h.07a4,4,0,0,1,2.93,2.19A2.77,2.77,0,0,1,345,207a3.16,3.16,0,0,1-1.31,2.44,4.28,4.28,0,0,1-1.51.75l-.26.08-.47.08h-.05c-.22,0-.43,0-.65,0a4.59,4.59,0,0,1-3-1.12,3.3,3.3,0,0,1-.86-1.19l-.09-.22Zm5-3.16a.07.07,0,0,1,0,0l-.3,1.9c0,.22-.08.45-.11.67a.42.42,0,0,1-.45.31.36.36,0,0,1-.38-.41c.14-.86.27-1.71.41-2.56a.11.11,0,0,0,0,0,3.14,3.14,0,0,0-3.31,2.47c-.18,1.47,1.11,2.77,2.89,3a3.26,3.26,0,0,0,3.7-2.3A2.77,2.77,0,0,0,341.67,204.3Zm9,1.21a3.27,3.27,0,0,0,3,1.86,3.34,3.34,0,0,0,3.35-2,2.54,2.54,0,0,0-1.48-3.12,3.88,3.88,0,0,0-3.35,0l.37.39c.52.57,1.05,1.14,1.58,1.7a.3.3,0,0,1,.1.2.38.38,0,0,1-.36.37l-3.12.55Zm-8.58-3.83,5.53,3.37,1.32-4.58Zm8.87.45-1.25-1.33-1.25,4.38,1.18-.21A3.16,3.16,0,0,1,351,202.13Zm-.46,2.69,2.55-.45-1.56-1.67A2.51,2.51,0,0,0,350.52,204.82Z" transform="translate(-106.29 -70.99)"/><path class="cls-18" d="M308.66,254.11l0-.22a3,3,0,0,1,.59-1.39,4.22,4.22,0,0,1,2.63-1.54,4.81,4.81,0,0,1,1.89,0c.05,0,.06,0,.07,0l1.58-3.6a1.24,1.24,0,0,1,1-.72h1.64v.7h-1.42a.46.46,0,0,0-.48.27c-.15.36-.31.71-.47,1.07a.43.43,0,0,0,0,.05h7.05a.08.08,0,0,0,.08,0c.11-.2.23-.4.35-.6l0-.06H322a.42.42,0,0,1-.4-.22.31.31,0,0,1,.11-.38.44.44,0,0,1,.3-.1h3.23v.7h-1a.07.07,0,0,0-.07,0c-.19.33-.38.65-.56,1a.06.06,0,0,0,0,.06l1.13,2,0,0,.39-.1a4.9,4.9,0,0,1,1.43-.08,4.52,4.52,0,0,1,2.66,1.09,3.13,3.13,0,0,1,1,1.68,3,3,0,0,1-1.27,3.18,4.49,4.49,0,0,1-2.18.87l-.38,0h-.58c-.23,0-.46,0-.68-.08a4.32,4.32,0,0,1-2.29-1.19,3.07,3.07,0,0,1-.88-1.66,1.29,1.29,0,0,0,0-.19h-1.82a.57.57,0,0,1-.4-.15l-.73-.68L317.1,252l-1.68-1.57-.31-.29-.47,1.07h0l.06,0a3.53,3.53,0,0,1,2.3,2.64,2.65,2.65,0,0,1-.07,1.22,3.55,3.55,0,0,1-1.9,2.16,4.68,4.68,0,0,1-1.67.48l-.28,0h-.53c-.21,0-.43,0-.64-.07a4.19,4.19,0,0,1-2.7-1.63,2.94,2.94,0,0,1-.53-1.3l0-.24Zm5.68-2.23s0,0,0,.05l-.78,1.8c-.1.21-.19.43-.28.64a.44.44,0,0,1-.52.22.34.34,0,0,1-.27-.47l1.06-2.43s0,0,0-.05a3.46,3.46,0,0,0-3.87,1.85c-.55,1.41.38,2.91,2.07,3.4a3.57,3.57,0,0,0,4.21-1.62A2.54,2.54,0,0,0,314.34,251.88Zm8.51,2.74A3,3,0,0,0,325.3,257a3.65,3.65,0,0,0,3.78-1.34,2.4,2.4,0,0,0-.66-3.3,3.86,3.86,0,0,0-3.27-.59c.08.15.17.3.26.45l1.11,1.94a.33.33,0,0,1,.05.21.42.42,0,0,1-.44.3h-3.28Zm-7.41-5.23,4.55,4.25,2.46-4.25Zm8.56,2-.88-1.52-2.35,4.07H322A3.49,3.49,0,0,1,324,251.36Zm-1.14,2.55h2.61l-1.1-1.91A2.78,2.78,0,0,0,322.86,253.91Z" transform="translate(-106.29 -70.99)"/><path class="cls-18" d="M272.18,269.67l0-.22a3,3,0,0,1,.59-1.39,4.23,4.23,0,0,1,2.64-1.55,5,5,0,0,1,1.88,0c.05,0,.06,0,.08,0,.52-1.2,1-2.4,1.57-3.6a1.26,1.26,0,0,1,1-.72h1.65v.69h-1.43a.45.45,0,0,0-.48.28c-.15.36-.31.71-.46,1.07,0,0,0,0,0,.05h7.05a.08.08,0,0,0,.08,0c.11-.2.23-.4.35-.6l0-.06h-1.25a.44.44,0,0,1-.4-.22.32.32,0,0,1,.11-.39.49.49,0,0,1,.3-.09h3.23v.7h-1a.08.08,0,0,0-.07,0l-.56,1a.06.06,0,0,0,0,.06l1.14,2v0l.39-.09a4.58,4.58,0,0,1,1.43-.08,4.46,4.46,0,0,1,2.66,1.09,3.07,3.07,0,0,1,1,1.68,3,3,0,0,1-1.27,3.18,4.45,4.45,0,0,1-2.18.87l-.38,0h-.57c-.23,0-.47,0-.69-.09a4.31,4.31,0,0,1-2.29-1.18,3.11,3.11,0,0,1-.88-1.66l0-.19h-1.82a.58.58,0,0,1-.41-.15l-.72-.68-1.92-1.8L278.94,266l-.31-.29-.46,1.07h0l.05,0a3.52,3.52,0,0,1,2.3,2.64,2.61,2.61,0,0,1-.07,1.21,3.51,3.51,0,0,1-1.9,2.17,4.47,4.47,0,0,1-1.67.47l-.28,0h-.52a4.62,4.62,0,0,1-.65-.08,4.14,4.14,0,0,1-2.69-1.62,2.89,2.89,0,0,1-.54-1.31l0-.23Zm5.68-2.23s0,0,0,.05l-.78,1.8c-.1.21-.19.43-.28.64a.45.45,0,0,1-.52.22.34.34,0,0,1-.27-.47c.36-.81.71-1.62,1.06-2.43,0,0,0,0,0-.05a3.46,3.46,0,0,0-3.87,1.85c-.54,1.41.38,2.91,2.08,3.4a3.56,3.56,0,0,0,4.2-1.62A2.54,2.54,0,0,0,277.86,267.44Zm8.51,2.74a3,3,0,0,0,2.46,2.33,3.63,3.63,0,0,0,3.77-1.34,2.4,2.4,0,0,0-.66-3.3,3.86,3.86,0,0,0-3.27-.59l.26.45,1.11,1.93a.29.29,0,0,1,0,.22.42.42,0,0,1-.44.3h-3.28ZM279,265l4.55,4.25L286,265Zm8.56,2-.88-1.51-2.35,4.06h1.21A3.53,3.53,0,0,1,287.52,266.91Zm-1.14,2.55H289l-1.1-1.9A2.81,2.81,0,0,0,286.38,269.46Z" transform="translate(-106.29 -70.99)"/><path class="cls-18" d="M308.66,289.67l0-.23a3,3,0,0,1,.59-1.38,4.19,4.19,0,0,1,2.63-1.55,5,5,0,0,1,1.89,0c.05,0,.06,0,.07,0,.53-1.2,1.05-2.4,1.58-3.59a1.24,1.24,0,0,1,1-.72l.15,0h1.49v.7h-1.42a.45.45,0,0,0-.48.28l-.47,1.07s0,0,0,0h7.05a.07.07,0,0,0,.08-.05c.11-.2.23-.4.35-.6l0-.05H322a.44.44,0,0,1-.4-.22.32.32,0,0,1,.11-.39.49.49,0,0,1,.3-.09h3.23v.7h-1a.07.07,0,0,0-.07,0l-.56,1a.06.06,0,0,0,0,.06c.37.66.75,1.32,1.13,2l0,0,.39-.09a4.9,4.9,0,0,1,1.43-.09,4.53,4.53,0,0,1,2.66,1.1,3.06,3.06,0,0,1,1,1.68,3,3,0,0,1-1.27,3.17,4.4,4.4,0,0,1-2.18.87l-.38,0h-.58c-.23,0-.46,0-.68-.09a4.31,4.31,0,0,1-2.29-1.18,3.11,3.11,0,0,1-.88-1.66,1.42,1.42,0,0,0,0-.2h-1.82a.53.53,0,0,1-.4-.15l-.73-.68-1.92-1.79L315.42,286l-.31-.29-.47,1.06h0l.06,0a3.55,3.55,0,0,1,2.3,2.65,2.62,2.62,0,0,1-.07,1.21,3.55,3.55,0,0,1-1.9,2.16,4.48,4.48,0,0,1-1.67.48l-.28,0h-.53c-.21,0-.43,0-.64-.08a4.15,4.15,0,0,1-2.7-1.63,2.9,2.9,0,0,1-.53-1.3l0-.23Zm5.68-2.23,0,.05-.78,1.79c-.1.22-.19.43-.28.65a.45.45,0,0,1-.52.22.34.34,0,0,1-.27-.47l1.06-2.43,0-.05a3.47,3.47,0,0,0-3.87,1.84c-.55,1.42.38,2.91,2.07,3.4a3.56,3.56,0,0,0,4.21-1.61A2.53,2.53,0,0,0,314.34,287.44Zm8.51,2.73a2.92,2.92,0,0,0,2.45,2.33,3.64,3.64,0,0,0,3.78-1.33,2.4,2.4,0,0,0-.66-3.3,3.8,3.8,0,0,0-3.27-.59c.08.15.17.3.26.45l1.11,1.93a.34.34,0,0,1,.05.22.42.42,0,0,1-.44.29h-3.28Zm-7.41-5.23L320,289.2l2.46-4.26Zm8.56,2-.88-1.51-2.35,4.06H322A3.51,3.51,0,0,1,324,286.91Zm-1.14,2.55h2.61l-1.1-1.9A2.78,2.78,0,0,0,322.86,289.46Z" transform="translate(-106.29 -70.99)"/><path class="cls-18" d="M338.93,274.74l.11-.21a3.36,3.36,0,0,1,1-1.19,4.66,4.66,0,0,1,3.05-.89,4.82,4.82,0,0,1,1.81.44.05.05,0,0,0,.08,0l2.74-3.09a1.42,1.42,0,0,1,1.24-.45l.15,0,1.4.33h0l-.24.67h-.07L349,270a.51.51,0,0,0-.55.16l-.81.92,0,0,.06,0,6.71,1.6a.09.09,0,0,0,.09,0l.54-.5,0-.05H355l-1.13-.27a.38.38,0,0,1-.31-.3.35.35,0,0,1,.24-.35.44.44,0,0,1,.32,0l3,.72.06,0-.24.67h-.06l-.9-.22a.1.1,0,0,0-.09,0l-.87.81a.11.11,0,0,0,0,.06l.42,2.15v0h.41a4.73,4.73,0,0,1,1.4.24,3.92,3.92,0,0,1,2.18,1.66,2.75,2.75,0,0,1,.42,1.85,3.45,3.45,0,0,1-2.3,2.76,4.72,4.72,0,0,1-2.39.34l-.38-.05h0l-.45-.1,0,0c-.21-.08-.43-.15-.63-.25a3.64,3.64,0,0,1-1.79-1.66,2.8,2.8,0,0,1-.29-1.79c0-.07,0-.13,0-.2h-.07l-1.68-.4a.51.51,0,0,1-.34-.24l-.46-.82c-.42-.72-.83-1.44-1.24-2.16l-1.08-1.9-.2-.35-.81.92h0l0,0a3.09,3.09,0,0,1,1.31,3.07,2.83,2.83,0,0,1-.48,1.15,4.11,4.11,0,0,1-2.56,1.64,5,5,0,0,1-1.77.08l-.27,0-.45-.11-.05,0a6,6,0,0,1-.59-.22,3.61,3.61,0,0,1-2-2.18,2.81,2.81,0,0,1-.07-1.38c0-.07,0-.15.05-.23Zm6.22-.84,0,0-1.36,1.55c-.17.18-.33.36-.49.55a.5.5,0,0,1-.57.1.32.32,0,0,1-.1-.52l1.84-2.09,0,0a3.77,3.77,0,0,0-4.34.88,2.43,2.43,0,0,0,.83,3.74,3.82,3.82,0,0,0,4.59-.59A2.37,2.37,0,0,0,345.15,273.9Zm7.24,4.57a2.55,2.55,0,0,0,1.56,2.8,3.87,3.87,0,0,0,4.08-.42,2.38,2.38,0,0,0,.49-3.32,3.51,3.51,0,0,0-2.94-1.31l.09.49.42,2.11a.33.33,0,0,1,0,.22.48.48,0,0,1-.53.18l-3.07-.73Zm-5.34-6.72,2.92,5.13,3.81-3.52Zm7.55,3.85-.33-1.65-3.64,3.36,1.17.28A4.12,4.12,0,0,1,354.6,275.6Zm-2,2.19,2.51.6-.41-2.08A3.27,3.27,0,0,0,352.64,277.79Z" transform="translate(-106.29 -70.99)"/><path class="cls-18" d="M345.59,254.57l.07-.21a3.3,3.3,0,0,1,.85-1.3,4.46,4.46,0,0,1,2.89-1.19,4.68,4.68,0,0,1,1.86.24.05.05,0,0,0,.08,0c.74-1.12,1.48-2.24,2.23-3.36a1.35,1.35,0,0,1,1.16-.58h.15l1.44.18h0l-.13.69h-.07l-1.34-.17a.47.47,0,0,0-.52.22l-.67,1s0,0,0,.05h.06l6.9.88c.05,0,.07,0,.09,0,.15-.19.31-.37.46-.55l0,0h-.07l-1.17-.15a.41.41,0,0,1-.35-.27.33.33,0,0,1,.18-.37.57.57,0,0,1,.32,0l3.13.4h.06l-.14.69h-.05l-.94-.12a.09.09,0,0,0-.08,0l-.73.89a.07.07,0,0,0,0,.06c.25.7.51,1.4.76,2.09v0l.4,0a4.56,4.56,0,0,1,1.43.1,4.21,4.21,0,0,1,2.43,1.41,2.88,2.88,0,0,1,.7,1.79,3.22,3.22,0,0,1-1.85,3,4.75,4.75,0,0,1-2.31.59l-.39,0h-.05l-.46-.06-.06,0c-.22-.06-.45-.1-.66-.17a4,4,0,0,1-2-1.46,2.86,2.86,0,0,1-.57-1.75v-.2h-.06l-1.73-.22a.51.51,0,0,1-.38-.2l-.59-.76-1.56-2L353,251.78l-.25-.33-.66,1h0l.05,0a3.26,3.26,0,0,1,1.78,2.9,2.79,2.79,0,0,1-.3,1.19,3.87,3.87,0,0,1-2.28,1.9,4.87,4.87,0,0,1-1.74.26h-.28l-.47-.06h-.05c-.21-.06-.42-.09-.62-.16a3.86,3.86,0,0,1-2.36-1.95,2.79,2.79,0,0,1-.29-1.35c0-.08,0-.16,0-.24Zm6-1.48,0,0-1.11,1.68c-.13.2-.26.4-.4.6a.47.47,0,0,1-.55.16.32.32,0,0,1-.17-.5l1.5-2.27,0-.05a3.66,3.66,0,0,0-4.17,1.34,2.5,2.5,0,0,0,1.41,3.62,3.72,3.72,0,0,0,4.46-1.07A2.42,2.42,0,0,0,351.62,253.09Zm7.9,3.77a2.72,2.72,0,0,0,2,2.62,3.81,3.81,0,0,0,4-.85,2.36,2.36,0,0,0,0-3.34,3.67,3.67,0,0,0-3.12-1l.17.48c.25.68.5,1.37.74,2a.28.28,0,0,1,0,.22.45.45,0,0,1-.49.23l-3.17-.4Zm-6.35-6.1,3.71,4.78,3.22-3.9Zm8.09,3-.58-1.6-3.08,3.72,1.19.15A3.85,3.85,0,0,1,361.26,253.78Zm-1.59,2.38,2.57.33-.73-2A3,3,0,0,0,359.67,256.16Z" transform="translate(-106.29 -70.99)"/><path class="cls-18" d="M297.4,322l0-.23a3,3,0,0,1,.6-1.38,4.19,4.19,0,0,1,2.63-1.55,5,5,0,0,1,1.88,0s.06,0,.08,0c.52-1.2,1.05-2.39,1.57-3.59a1.26,1.26,0,0,1,1-.72l.16,0h1.49v.7h-1.43a.43.43,0,0,0-.47.28c-.16.35-.31.71-.47,1.07,0,0,0,0,0,0h7.05s.07,0,.08,0c.12-.2.24-.4.35-.6l0-.05h-1.25a.45.45,0,0,1-.4-.22.32.32,0,0,1,.11-.39.53.53,0,0,1,.3-.09H314v.7h-1a.08.08,0,0,0-.08,0l-.56,1a.06.06,0,0,0,0,.06l1.14,2,0,0,.39-.09a4.83,4.83,0,0,1,1.42-.09,4.48,4.48,0,0,1,2.66,1.1,3,3,0,0,1-.24,4.85,4.36,4.36,0,0,1-2.17.87l-.38,0h-.58c-.23,0-.46,0-.69-.09a4.32,4.32,0,0,1-2.28-1.18,3.12,3.12,0,0,1-.89-1.66l0-.2H308.9a.54.54,0,0,1-.41-.15l-.72-.67-1.92-1.8-1.68-1.57-.31-.29-.47,1.06h0l.05,0a3.48,3.48,0,0,1,2.3,2.64,2.49,2.49,0,0,1-.07,1.21,3.5,3.5,0,0,1-1.9,2.16,4.48,4.48,0,0,1-1.67.48l-.27,0h-.53c-.22,0-.43,0-.64-.08a4.15,4.15,0,0,1-2.7-1.63,2.91,2.91,0,0,1-.54-1.3l0-.23Zm5.69-2.23,0,.05-.78,1.79c-.09.22-.19.43-.28.65a.45.45,0,0,1-.52.22.33.33,0,0,1-.26-.47c.35-.81.7-1.62,1.06-2.43,0,0,0,0,0,0a3.46,3.46,0,0,0-3.87,1.85c-.55,1.41.37,2.9,2.07,3.39a3.57,3.57,0,0,0,4.21-1.61A2.55,2.55,0,0,0,303.09,319.78Zm8.51,2.73a2.93,2.93,0,0,0,2.45,2.34,3.64,3.64,0,0,0,3.77-1.34,2.39,2.39,0,0,0-.66-3.3,3.8,3.8,0,0,0-3.27-.59l.26.45,1.12,1.93a.29.29,0,0,1,0,.22.41.41,0,0,1-.44.29H311.6Zm-7.42-5.23,4.55,4.26,2.46-4.26Zm8.56,2-.88-1.51-2.34,4.06h1.21A3.52,3.52,0,0,1,312.74,319.25Zm-1.13,2.55h2.61l-1.1-1.9A2.78,2.78,0,0,0,311.61,321.8Z" transform="translate(-106.29 -70.99)"/><path class="cls-18" d="M335.82,312.56a2,2,0,0,0,.1-.21,3.3,3.3,0,0,1,1-1.22,4.89,4.89,0,0,1,4.84-.58c.05,0,.06,0,.09,0l2.6-3.17a1.42,1.42,0,0,1,1.23-.48l.15,0,1.41.29h0l-.21.67H347l-1.31-.27a.47.47,0,0,0-.55.17l-.77.94,0,0h.06l6.77,1.42a.08.08,0,0,0,.09,0l.52-.51,0-.05h-.06l-1.15-.24a.4.4,0,0,1-.32-.3.35.35,0,0,1,.22-.35.5.5,0,0,1,.32,0l3.08.64.05,0-.21.67h-.06l-.91-.19a.07.07,0,0,0-.08,0l-.84.83s0,0,0,.06l.51,2.14v0h.4a4.72,4.72,0,0,1,1.41.21,4,4,0,0,1,2.25,1.6,2.79,2.79,0,0,1,.49,1.84,3.37,3.37,0,0,1-2.19,2.81,4.75,4.75,0,0,1-2.37.41l-.38-.05h0l-.45-.09-.06,0c-.21-.08-.43-.14-.64-.23a3.73,3.73,0,0,1-1.85-1.61,2.83,2.83,0,0,1-.36-1.79l0-.19-.07,0-1.7-.35a.51.51,0,0,1-.35-.23l-.49-.8-1.32-2.13-1.16-1.87-.21-.34-.78.94h0l0,0a3.12,3.12,0,0,1,1.44,3,2.66,2.66,0,0,1-.44,1.16,4,4,0,0,1-2.49,1.71,4.94,4.94,0,0,1-1.76.13l-.27,0-.47-.09,0,0a6.08,6.08,0,0,1-.6-.21,3.68,3.68,0,0,1-2.13-2.12,2.67,2.67,0,0,1-.12-1.37,1.57,1.57,0,0,1,0-.23Zm6.18-1,0,0-1.3,1.58-.47.57a.46.46,0,0,1-.56.11.31.31,0,0,1-.12-.51l1.76-2.14,0,0a3.75,3.75,0,0,0-4.31,1,2.44,2.44,0,0,0,1,3.71,3.78,3.78,0,0,0,4.56-.71A2.38,2.38,0,0,0,342,311.55Zm7.43,4.38a2.57,2.57,0,0,0,1.67,2.75,3.84,3.84,0,0,0,4.06-.53,2.36,2.36,0,0,0,.35-3.33,3.56,3.56,0,0,0-3-1.23l.12.49c.16.7.33,1.4.5,2.1a.31.31,0,0,1,0,.21.46.46,0,0,1-.52.2l-3.1-.65Zm-5.61-6.57,3.13,5,3.66-3.62Zm7.7,3.64-.4-1.65-3.5,3.47,1.18.24A4,4,0,0,1,351.52,313Zm-1.87,2.24,2.53.53-.49-2.07A3.23,3.23,0,0,0,349.65,315.24Z" transform="translate(-106.29 -70.99)"/><path class="cls-18" d="M272.66,303.18l0-.22a3,3,0,0,1,.59-1.39,4.22,4.22,0,0,1,2.64-1.54,4.76,4.76,0,0,1,1.88,0c.05,0,.06,0,.08,0,.52-1.2,1-2.4,1.57-3.6a1.26,1.26,0,0,1,1-.72h1.65v.7h-1.43a.45.45,0,0,0-.48.27c-.15.36-.31.71-.46,1.07,0,0,0,0,0,.05h7.05a.08.08,0,0,0,.08,0c.11-.2.23-.4.35-.6l0-.06H286a.42.42,0,0,1-.4-.22.32.32,0,0,1,.11-.39.49.49,0,0,1,.3-.09h3.23v.7h-1a.08.08,0,0,0-.07,0l-.56,1a.06.06,0,0,0,0,.06c.38.65.76,1.31,1.13,2l0,0,.39-.09a4.58,4.58,0,0,1,1.43-.08,4.52,4.52,0,0,1,2.66,1.09,3.13,3.13,0,0,1,1,1.68,3,3,0,0,1-1.27,3.18,4.45,4.45,0,0,1-2.18.87l-.38,0h-.57c-.23,0-.47,0-.69-.08a4.32,4.32,0,0,1-2.29-1.19,3.07,3.07,0,0,1-.88-1.66l0-.19h-1.82a.58.58,0,0,1-.41-.15l-.72-.68-1.93-1.8-1.68-1.57-.31-.29-.47,1.07h0l.06,0a3.53,3.53,0,0,1,2.3,2.64,2.61,2.61,0,0,1-.07,1.21,3.51,3.51,0,0,1-1.9,2.17,4.68,4.68,0,0,1-1.67.48l-.28,0h-.53c-.21,0-.43,0-.64-.07a4.22,4.22,0,0,1-2.7-1.63,2.94,2.94,0,0,1-.53-1.3l0-.24Zm5.68-2.23a.08.08,0,0,1,0,.05l-.78,1.8c-.1.21-.19.43-.28.64a.44.44,0,0,1-.52.22.34.34,0,0,1-.27-.47c.36-.81.71-1.62,1.06-2.43a.08.08,0,0,0,0-.05,3.46,3.46,0,0,0-3.87,1.85c-.55,1.41.38,2.91,2.07,3.4a3.57,3.57,0,0,0,4.21-1.62A2.54,2.54,0,0,0,278.34,301Zm8.51,2.74A3,3,0,0,0,289.3,306a3.64,3.64,0,0,0,3.78-1.34,2.4,2.4,0,0,0-.66-3.3,3.86,3.86,0,0,0-3.27-.59c.08.15.17.3.26.45l1.11,1.94a.27.27,0,0,1,.05.21.42.42,0,0,1-.44.3h-3.28Zm-7.41-5.23,4.55,4.25,2.46-4.25Zm8.56,2-.88-1.51L284.77,303H286A3.53,3.53,0,0,1,288,300.42ZM286.86,303h2.61l-1.1-1.91A2.8,2.8,0,0,0,286.86,303Z" transform="translate(-106.29 -70.99)"/><path class="cls-18" d="M271.9,241.2l0-.22a3,3,0,0,1,.6-1.39,4.22,4.22,0,0,1,2.63-1.54,4.76,4.76,0,0,1,1.88,0s.06,0,.08,0l1.57-3.6a1.26,1.26,0,0,1,1-.72h1.65v.7H280a.44.44,0,0,0-.47.27l-.47,1.07s0,0,0,.05H286s.07,0,.08,0c.12-.2.24-.4.35-.6a.33.33,0,0,0,0-.06h-1.25a.43.43,0,0,1-.4-.22.31.31,0,0,1,.11-.38.47.47,0,0,1,.3-.1h3.23v.7h-1s-.06,0-.07,0l-.57,1a.06.06,0,0,0,0,.06l1.14,2,0,0,.39-.1a5.25,5.25,0,0,1,1.43-.08,4.47,4.47,0,0,1,2.65,1.09,3.07,3.07,0,0,1,1,1.68,3,3,0,0,1-1.27,3.18,4.46,4.46,0,0,1-2.17.87l-.38,0h-.58c-.23,0-.46,0-.69-.08a4.26,4.26,0,0,1-2.28-1.19,3.09,3.09,0,0,1-.89-1.66l0-.19H283.4a.59.59,0,0,1-.41-.15l-.72-.68-1.92-1.8-1.68-1.57-.31-.29-.47,1.07h0l.05,0a3.5,3.5,0,0,1,2.3,2.64,2.52,2.52,0,0,1-.07,1.22,3.52,3.52,0,0,1-1.9,2.16,4.68,4.68,0,0,1-1.67.48l-.27,0h-.53c-.21,0-.43,0-.64-.07a4.19,4.19,0,0,1-2.7-1.63,2.83,2.83,0,0,1-.53-1.3,2,2,0,0,1,0-.24Zm5.69-2.23a.17.17,0,0,0,0,.05c-.27.6-.53,1.2-.79,1.8-.09.21-.18.43-.28.64a.45.45,0,0,1-.51.23.34.34,0,0,1-.27-.47c.35-.82.7-1.63,1.06-2.44l0-.05a3.46,3.46,0,0,0-3.87,1.85c-.55,1.41.37,2.91,2.07,3.4a3.56,3.56,0,0,0,4.21-1.62A2.55,2.55,0,0,0,277.59,239Zm8.51,2.74a2.93,2.93,0,0,0,2.45,2.33,3.63,3.63,0,0,0,3.77-1.34,2.39,2.39,0,0,0-.66-3.3,3.86,3.86,0,0,0-3.27-.59c.09.15.18.3.26.45l1.12,1.94a.27.27,0,0,1,0,.21.42.42,0,0,1-.44.3H286.1Zm-7.42-5.23,4.56,4.25,2.45-4.25Zm8.56,2-.88-1.52L284,241h1.21A3.5,3.5,0,0,1,287.24,238.45ZM286.11,241h2.61l-1.1-1.91A2.78,2.78,0,0,0,286.11,241Z" transform="translate(-106.29 -70.99)"/><path class="cls-19" d="M326.29,100.05" transform="translate(-106.29 -70.99)"/><ellipse class="cls-20" cx="154.29" cy="66.8" rx="51.96" ry="66.8"/><rect class="cls-21" x="231.89" y="112.07" width="25" height="15.54" rx="4.43" ry="4.43" transform="translate(382.49 168.71) rotate(180)"/><rect class="cls-22" x="264.46" y="112.07" width="25" height="15.54" rx="4.43" ry="4.43" transform="translate(447.63 168.71) rotate(180)"/><ellipse class="cls-23" cx="138.1" cy="48.86" rx="2.48" ry="3.08"/><ellipse class="cls-23" cx="170.67" cy="48.86" rx="2.48" ry="3.08"/><path class="cls-24" d="M209.22,125.45l22-37.22s40.34,7,55.55,0l23.37,32.82s-6.26-27.41-21-38.64c-10.31-7.86-13.38-8.35-14.25-8.89-1.32-.81-2.11-.52-2.79-.73-5.09-1.62-22-4.48-38.93,7.83C212.79,95.45,209.22,125.45,209.22,125.45Z" transform="translate(-106.29 -70.99)"/><path class="cls-25" d="M286.81,88.36,310,120.86s-6.18-27.15-20.8-38.26C287.76,81.54,291.14,84.25,286.81,88.36Z" transform="translate(-106.29 -70.99)"/><path class="cls-26" d="M311.45,147.49s-48.2,65.65-103.5,0c0,0,5.86,55.29,52,58.29C259.91,205.78,304.2,207.31,311.45,147.49Z" transform="translate(-106.29 -70.99)"/><line class="cls-19" x1="140.58" y1="101.49" x2="168.19" y2="101.49"/><path class="cls-27" d="M246.87,172.47a28,28,0,0,1,6.9-2,45.83,45.83,0,0,1,6.9-.54,43.48,43.48,0,0,1,6.91.54,27.12,27.12,0,0,1,6.9,2,27.57,27.57,0,0,1-6.9,2,44.67,44.67,0,0,1-6.91.53,43.36,43.36,0,0,1-6.9-.54A27.54,27.54,0,0,1,246.87,172.47Z" transform="translate(-106.29 -70.99)"/><line class="cls-19" x1="139.07" y1="101.49" x2="169.97" y2="101.49"/><path class="cls-28" d="M245.36,172.47c2.58-.15,5.15-.23,7.72-.29s5.15-.05,7.73-.08,5.15,0,7.72.08,5.15.14,7.73.29c-2.58.16-5.15.23-7.73.29s-5.15.06-7.72.09-5.15,0-7.73-.09S247.94,172.63,245.36,172.47Z" transform="translate(-106.29 -70.99)"/><polyline class="cls-29" points="160.18 82.39 154.91 84.01 148.58 82.16 153.79 57.79"/><polyline class="cls-30" points="154.91 84.01 148.58 82.16 153.79 57.79"/><path class="cls-20" d="M263.74,119.66s-2.68-3.5-6.13,0" transform="translate(-106.29 -70.99)"/><path class="cls-31" d="M263.7,119.69a8.56,8.56,0,0,0-3-.68,5.89,5.89,0,0,0-1.36.2c-.24.06-.5.16-.79.23a6.77,6.77,0,0,1-.91.26l-.07-.07.66-.61c.25-.16.47-.36.74-.5a3.67,3.67,0,0,1,1.72-.51,4.09,4.09,0,0,1,3.09,1.62Z" transform="translate(-106.29 -70.99)"/><ellipse class="cls-32" cx="170.67" cy="48.86" rx="1.26" ry="1.57"/><ellipse class="cls-32" cx="138.1" cy="48.86" rx="1.26" ry="1.57"/><path class="cls-33" d="M208,147.49s13.43,41,31.9,51.56C239.85,199.05,218.39,196,208,147.49Z" transform="translate(-106.29 -70.99)"/></svg>