<svg id="Layer_1" data-name="Layer 1" xmlns="http://www.w3.org/2000/svg" xmlns:xlink="http://www.w3.org/1999/xlink" viewBox="0 0 322.45 417.9"><defs><style>.cls-1{fill:#e4e1c7;}.cls-2{fill:#512e2a;}.cls-3,.cls-4{fill:#9e2b20;}.cls-14,.cls-23,.cls-4,.cls-6{stroke:#231f20;}.cls-14,.cls-15,.cls-16,.cls-17,.cls-21,.cls-22,.cls-23,.cls-32,.cls-4,.cls-6,.cls-8{stroke-miterlimit:10;}.cls-5{fill:#231f20;}.cls-16,.cls-6,.cls-8{fill:none;}.cls-23,.cls-6{stroke-width:0.25px;}.cls-7{fill:#c2b59b;}.cls-8{stroke:#9b8579;}.cls-9{fill:#b1a58e;}.cls-10{fill:#9b8579;}.cls-11{fill:#1e4496;}.cls-12,.cls-17{fill:#234093;}.cls-13{fill:#124b9a;}.cls-14,.cls-15,.cls-20,.cls-21,.cls-22,.cls-23{fill:#fff;}.cls-15{stroke:#f9a560;}.cls-16{stroke:#283c91;}.cls-17{stroke:#262262;stroke-width:0.5px;}.cls-18{fill:#fff200;}.cls-19{fill:#d1d3d4;}.cls-21{stroke:url(#White_Black);}.cls-22{stroke:url(#White_Black-2);}.cls-24{fill:#fde79e;}.cls-25{fill:#fbeac8;}.cls-26{fill:#e5e1c5;}.cls-27{fill:#f9c9de;}.cls-28{fill:#8d536f;}.cls-29{fill:#e3e2db;}.cls-30{fill:#d0cca8;}.cls-31{fill:url(#White_Black-3);}.cls-32{fill:#2e3192;stroke:#00aeef;}.cls-33{fill:#cfcdb4;}</style><linearGradient id="White_Black" x1="266.1" y1="119.85" x2="292.1" y2="119.85" gradientTransform="matrix(1, 0, 0, -1, -34.71, 239.69)" gradientUnits="userSpaceOnUse"><stop offset="0" stop-color="#fff"/><stop offset="1" stop-color="#231f20"/></linearGradient><linearGradient id="White_Black-2" x1="233.53" y1="119.85" x2="259.53" y2="119.85" gradientTransform="matrix(1, 0, 0, -1, 30.43, 239.69)" xlink:href="#White_Black"/><linearGradient id="White_Black-3" x1="264.14" y1="118.85" x2="257.25" y2="118.85" gradientTransform="matrix(1, 0, 0, 1, 0, 0)" xlink:href="#White_Black"/></defs><title>14</title><polyline class="cls-1" points="184.14 334.96 177.54 400.24 170.1 399.87 169.35 334.22"/><polyline class="cls-1" points="138.04 334.96 144.65 400.24 152.08 399.87 152.83 334.22"/><path class="cls-2" d="M230.77,475.18s-20.25,10.71-7.52,12.21l12.73,1.5h16.19s6.73-4.74,6.73-11.59" transform="translate(-98.61 -70.99)"/><path class="cls-2" d="M286.2,475.18s20.24,10.71,7.52,12.21L281,488.89H264.8s-5.9-4.74-5.9-11.59" transform="translate(-98.61 -70.99)"/><path class="cls-3" d="M244.2,470.46s-33.1,10.7-20.38,12.2l12.73,1.49h16.19s6.16,0,6.16-6.85l-7.23-6.23h-.53" transform="translate(-98.61 -70.99)"/><path class="cls-3" d="M266.6,470.13l-7.39,7.17c0,6.85,6.16,6.85,6.16,6.85h16.19l12.73-1.49c12.73-1.5-18.15-12.21-18.15-12.21" transform="translate(-98.61 -70.99)"/><path class="cls-4" d="M259.31,477" transform="translate(-98.61 -70.99)"/><path class="cls-5" d="M270.57,414.52v2.22a3.22,3.22,0,0,1,0,.62,3.21,3.21,0,0,0,0-.62v-2.22a2.57,2.57,0,0,1,0-.62,2.57,2.57,0,0,0,0,.62Z" transform="translate(-98.61 -70.99)"/><path class="cls-5" d="M275.4,418.15v1.21a3.22,3.22,0,0,1,0,.62,3.2,3.2,0,0,0,0-.62v-1.21a3.22,3.22,0,0,1,0-.62,3.2,3.2,0,0,0,0,.62Z" transform="translate(-98.61 -70.99)"/><path class="cls-5" d="M277,422v1.21a2.57,2.57,0,0,1,0,.62,2.57,2.57,0,0,0,0-.62V422a3.33,3.33,0,0,1,0-.63,3.32,3.32,0,0,0,0,.63Z" transform="translate(-98.61 -70.99)"/><path class="cls-5" d="M280,421.78v.2a3.22,3.22,0,0,1,0,.62,3.21,3.21,0,0,0,0-.62v-.2a2.66,2.66,0,0,1,0-.63,2.66,2.66,0,0,0,0,.63Z" transform="translate(-98.61 -70.99)"/><path class="cls-5" d="M274,429.86s0-1.25,0-1.25,0,1.25,0,1.25Z" transform="translate(-98.61 -70.99)"/><path class="cls-5" d="M271.38,422v1.41a3.21,3.21,0,0,1,0,.62,3.21,3.21,0,0,0,0-.62V422a3.33,3.33,0,0,1,0-.63,3.32,3.32,0,0,0,0,.63Z" transform="translate(-98.61 -70.99)"/><path class="cls-5" d="M271.58,431v1.62a2.57,2.57,0,0,1,0,.62,2.57,2.57,0,0,0,0-.62V431a3.21,3.21,0,0,1,0-.62,3.21,3.21,0,0,0,0,.62Z" transform="translate(-98.61 -70.99)"/><path class="cls-5" d="M277.82,434.07v.6a3.33,3.33,0,0,1,0,.63,3.32,3.32,0,0,0,0-.63v-.6a3.33,3.33,0,0,1,0-.63,3.32,3.32,0,0,0,0,.63Z" transform="translate(-98.61 -70.99)"/><path class="cls-5" d="M275.81,436.28v1.62a2.57,2.57,0,0,1,0,.62,2.57,2.57,0,0,0,0-.62v-1.62a3.21,3.21,0,0,1,0-.62,3.21,3.21,0,0,0,0,.62Z" transform="translate(-98.61 -70.99)"/><path class="cls-5" d="M273.19,437.29v1a2.57,2.57,0,0,1,0,.62,2.57,2.57,0,0,0,0-.62v-1a3.22,3.22,0,0,1,0-.62,3.21,3.21,0,0,0,0,.62Z" transform="translate(-98.61 -70.99)"/><path class="cls-5" d="M271.17,437.49v.2a3.33,3.33,0,0,1,0,.63,3.32,3.32,0,0,0,0-.63v-.2a3.22,3.22,0,0,1,0-.62,3.21,3.21,0,0,0,0,.62Z" transform="translate(-98.61 -70.99)"/><path class="cls-5" d="M270.77,441.72v1a3.32,3.32,0,0,1,0,.63,3.31,3.31,0,0,0,0-.63v-1a2.57,2.57,0,0,1,0-.62,2.57,2.57,0,0,0,0,.62Z" transform="translate(-98.61 -70.99)"/><path class="cls-5" d="M276.82,443.34v.6a3.21,3.21,0,0,1,0,.62,3.2,3.2,0,0,0,0-.62v-.6a3.33,3.33,0,0,1,0-.63,3.32,3.32,0,0,0,0,.63Z" transform="translate(-98.61 -70.99)"/><path class="cls-5" d="M274.8,446v.21a3.21,3.21,0,0,1,0,.62,3.21,3.21,0,0,0,0-.62V446a2.57,2.57,0,0,1,0-.62,2.57,2.57,0,0,0,0,.62Z" transform="translate(-98.61 -70.99)"/><path class="cls-5" d="M272,449v1.21a3.21,3.21,0,0,1,0,.62,3.21,3.21,0,0,0,0-.62V449a2.66,2.66,0,0,1,0-.63,2.66,2.66,0,0,0,0,.63Z" transform="translate(-98.61 -70.99)"/><path class="cls-5" d="M276,451.6v.2a3.22,3.22,0,0,1,0,.62,3.21,3.21,0,0,0,0-.62v-.2a2.66,2.66,0,0,1,0-.63,2.66,2.66,0,0,0,0,.63Z" transform="translate(-98.61 -70.99)"/><path class="cls-5" d="M272.59,454.24s0-1.25,0-1.25,0,1.25,0,1.25Z" transform="translate(-98.61 -70.99)"/><path class="cls-5" d="M279.64,412.71v.81a3.21,3.21,0,0,1,0,.62,2.57,2.57,0,0,0,0-.62v-.81a3.22,3.22,0,0,1,0-.62,3.21,3.21,0,0,0,0,.62Z" transform="translate(-98.61 -70.99)"/><path class="cls-5" d="M272,411.1s0-1.25,0-1.25,0,1.25,0,1.25Z" transform="translate(-98.61 -70.99)"/><path class="cls-5" d="M276,409.9v-1.25s0,1.25,0,1.25Z" transform="translate(-98.61 -70.99)"/><path class="cls-5" d="M275.61,410.7v.6a3.21,3.21,0,0,1,0,.62,2.56,2.56,0,0,0,0-.62v-.6a3.33,3.33,0,0,1,0-.63,3.32,3.32,0,0,0,0,.63Z" transform="translate(-98.61 -70.99)"/><path class="cls-5" d="M280.64,408.88v1a3.22,3.22,0,0,1,0,.62,3.2,3.2,0,0,0,0-.62v-1a3.22,3.22,0,0,1,0-.62,3.21,3.21,0,0,0,0,.62Z" transform="translate(-98.61 -70.99)"/><path class="cls-5" d="M244.38,409.27v.4a3.31,3.31,0,0,1,0,.63,2.66,2.66,0,0,0,0-.63v-.4a3.22,3.22,0,0,1,0-.62,3.21,3.21,0,0,0,0,.62Z" transform="translate(-98.61 -70.99)"/><path class="cls-5" d="M248.82,409.31v-1.25s0,1.25,0,1.25Z" transform="translate(-98.61 -70.99)"/><path class="cls-6" d="M281.56,414a2,2,0,0,0,.64,2.18" transform="translate(-98.61 -70.99)"/><path class="cls-6" d="M281.53,411.07a2,2,0,0,1,.7,1.62" transform="translate(-98.61 -70.99)"/><path class="cls-6" d="M277,411.75a1.07,1.07,0,0,1-.55,1.22" transform="translate(-98.61 -70.99)"/><path class="cls-6" d="M271.39,411.94v1.5" transform="translate(-98.61 -70.99)"/><path class="cls-6" d="M268.77,411.19a2.15,2.15,0,0,1-.82,1.44" transform="translate(-98.61 -70.99)"/><path class="cls-6" d="M267.94,409.13a2.32,2.32,0,0,1-.5,1.48" transform="translate(-98.61 -70.99)"/><path class="cls-6" d="M268.58,414.84a3.35,3.35,0,0,0-.86,1.78" transform="translate(-98.61 -70.99)"/><path class="cls-6" d="M269.44,420a2.06,2.06,0,0,1-.49,1.12" transform="translate(-98.61 -70.99)"/><path class="cls-6" d="M272.49,416.26a1.31,1.31,0,0,1-.23,1.23" transform="translate(-98.61 -70.99)"/><path class="cls-6" d="M275.91,415.75a6.64,6.64,0,0,1,1.1.88" transform="translate(-98.61 -70.99)"/><path class="cls-6" d="M278.6,420.28l.48.65" transform="translate(-98.61 -70.99)"/><path class="cls-6" d="M274.48,420v.93" transform="translate(-98.61 -70.99)"/><path class="cls-6" d="M280.6,422.7a1.34,1.34,0,0,1,.24,1.13" transform="translate(-98.61 -70.99)"/><path class="cls-6" d="M279.72,426.09l.86,1.3" transform="translate(-98.61 -70.99)"/><path class="cls-6" d="M273,424.86a2.8,2.8,0,0,1-.91,1.34" transform="translate(-98.61 -70.99)"/><path class="cls-6" d="M269.52,425a1.92,1.92,0,0,1-1,1.71" transform="translate(-98.61 -70.99)"/><path class="cls-6" d="M269.24,431.15a1.72,1.72,0,0,1-.38,1.11" transform="translate(-98.61 -70.99)"/><path class="cls-6" d="M274.86,429.46v1" transform="translate(-98.61 -70.99)"/><path class="cls-6" d="M276.45,429.28a1,1,0,0,1,.75.46" transform="translate(-98.61 -70.99)"/><path class="cls-6" d="M280.1,430.78l.84.47" transform="translate(-98.61 -70.99)"/><path class="cls-6" d="M279.48,432.75a2.32,2.32,0,0,0,.61,2.25" transform="translate(-98.61 -70.99)"/><path class="cls-6" d="M268.61,434.85a2.07,2.07,0,0,1-1.06.27" transform="translate(-98.61 -70.99)"/><path class="cls-5" d="M248.69,415.35v2.21a3.33,3.33,0,0,1,0,.63,3.32,3.32,0,0,0,0-.63v-2.21a3.33,3.33,0,0,1,0-.63,3.32,3.32,0,0,0,0,.63Z" transform="translate(-98.61 -70.99)"/><path class="cls-5" d="M243.86,419v1.21a2.66,2.66,0,0,1,0,.63,2.66,2.66,0,0,0,0-.63V419a3.21,3.21,0,0,1,0-.62,3.21,3.21,0,0,0,0,.62Z" transform="translate(-98.61 -70.99)"/><path class="cls-5" d="M242.25,422.8V424a2.66,2.66,0,0,1,0,.63,2.66,2.66,0,0,0,0-.63V422.8a3.21,3.21,0,0,1,0-.62,3.21,3.21,0,0,0,0,.62Z" transform="translate(-98.61 -70.99)"/><path class="cls-5" d="M239.22,422.6v.2a3.33,3.33,0,0,1,0,.63,3.32,3.32,0,0,0,0-.63v-.2a3.22,3.22,0,0,1,0-.62,3.21,3.21,0,0,0,0,.62Z" transform="translate(-98.61 -70.99)"/><path class="cls-5" d="M245.28,430.68v-1.25s0,1.25,0,1.25Z" transform="translate(-98.61 -70.99)"/><path class="cls-5" d="M247.89,422.8v1.41a2.66,2.66,0,0,1,0,.63,2.66,2.66,0,0,0,0-.63V422.8a3.21,3.21,0,0,1,0-.62,3.21,3.21,0,0,0,0,.62Z" transform="translate(-98.61 -70.99)"/><path class="cls-5" d="M247.69,431.87v1.61a2.66,2.66,0,0,1,0,.63,2.66,2.66,0,0,0,0-.63v-1.61a3.32,3.32,0,0,1,0-.63,3.31,3.31,0,0,0,0,.63Z" transform="translate(-98.61 -70.99)"/><path class="cls-5" d="M241.44,434.89v.61a3.21,3.21,0,0,1,0,.62,3.21,3.21,0,0,0,0-.62v-.61a2.57,2.57,0,0,1,0-.62,2.57,2.57,0,0,0,0,.62Z" transform="translate(-98.61 -70.99)"/><path class="cls-5" d="M243.46,437.11v1.61a3.21,3.21,0,0,1,0,.62,2.56,2.56,0,0,0,0-.62v-1.61a3.33,3.33,0,0,1,0-.63,3.32,3.32,0,0,0,0,.63Z" transform="translate(-98.61 -70.99)"/><path class="cls-5" d="M246.07,438.12v1a3.33,3.33,0,0,1,0,.63,3.32,3.32,0,0,0,0-.63v-1a3.33,3.33,0,0,1,0-.63,3.32,3.32,0,0,0,0,.63Z" transform="translate(-98.61 -70.99)"/><path class="cls-5" d="M248.09,438.32v.2a3.22,3.22,0,0,1,0,.62,3.21,3.21,0,0,0,0-.62v-.2a2.66,2.66,0,0,1,0-.63,2.66,2.66,0,0,0,0,.63Z" transform="translate(-98.61 -70.99)"/><path class="cls-5" d="M248.49,442.55v1a3.21,3.21,0,0,1,0,.62,3.21,3.21,0,0,0,0-.62v-1a3.33,3.33,0,0,1,0-.63,3.32,3.32,0,0,0,0,.63Z" transform="translate(-98.61 -70.99)"/><path class="cls-5" d="M242.45,444.16v.6a2.66,2.66,0,0,1,0,.63,2.66,2.66,0,0,0,0-.63v-.6a3.32,3.32,0,0,1,0-.63,3.32,3.32,0,0,0,0,.63Z" transform="translate(-98.61 -70.99)"/><path class="cls-5" d="M244.46,446.78v.2a3.32,3.32,0,0,1,0,.63,3.32,3.32,0,0,0,0-.63v-.2a3.32,3.32,0,0,1,0-.63,3.32,3.32,0,0,0,0,.63Z" transform="translate(-98.61 -70.99)"/><path class="cls-5" d="M247.28,449.8V451a3.32,3.32,0,0,1,0,.63,3.32,3.32,0,0,0,0-.63V449.8a3.22,3.22,0,0,1,0-.62,3.21,3.21,0,0,0,0,.62Z" transform="translate(-98.61 -70.99)"/><path class="cls-5" d="M243.25,452.42v.2a3.33,3.33,0,0,1,0,.63,3.32,3.32,0,0,0,0-.63v-.2a3.22,3.22,0,0,1,0-.62,3.2,3.2,0,0,0,0,.62Z" transform="translate(-98.61 -70.99)"/><path class="cls-5" d="M246.69,455.06s0-1.25,0-1.25,0,1.25,0,1.25Z" transform="translate(-98.61 -70.99)"/><path class="cls-5" d="M239.63,413.53v.81a2.66,2.66,0,0,1,0,.63,2.66,2.66,0,0,0,0-.63v-.81a3.21,3.21,0,0,1,0-.62,3.21,3.21,0,0,0,0,.62Z" transform="translate(-98.61 -70.99)"/><path class="cls-5" d="M247.29,409.93s0-1.25,0-1.25,0,1.25,0,1.25Z" transform="translate(-98.61 -70.99)"/><path class="cls-5" d="M243.26,410.72s0-1.25,0-1.25,0,1.25,0,1.25Z" transform="translate(-98.61 -70.99)"/><path class="cls-5" d="M243.66,411.52v.6a2.66,2.66,0,0,1,0,.63,2.66,2.66,0,0,0,0-.63v-.6a3.32,3.32,0,0,1,0-.63,3.32,3.32,0,0,0,0,.63Z" transform="translate(-98.61 -70.99)"/><path class="cls-5" d="M238.62,409.71v1a3.33,3.33,0,0,1,0,.63,3.31,3.31,0,0,0,0-.63v-1a2.66,2.66,0,0,1,0-.63,2.66,2.66,0,0,0,0,.63Z" transform="translate(-98.61 -70.99)"/><path class="cls-6" d="M237.72,414.84a2,2,0,0,1-.64,2.19" transform="translate(-98.61 -70.99)"/><path class="cls-6" d="M237.74,411.89a2,2,0,0,0-.7,1.62" transform="translate(-98.61 -70.99)"/><path class="cls-6" d="M242.28,412.58a1.07,1.07,0,0,0,.54,1.22" transform="translate(-98.61 -70.99)"/><path class="cls-6" d="M247.88,412.76v1.5" transform="translate(-98.61 -70.99)"/><path class="cls-6" d="M250.5,412a2.14,2.14,0,0,0,.82,1.44" transform="translate(-98.61 -70.99)"/><path class="cls-6" d="M251.34,410a2.3,2.3,0,0,0,.49,1.49" transform="translate(-98.61 -70.99)"/><path class="cls-6" d="M250.7,415.66a3.26,3.26,0,0,1,.85,1.78" transform="translate(-98.61 -70.99)"/><path class="cls-6" d="M249.84,420.82a2,2,0,0,0,.49,1.12" transform="translate(-98.61 -70.99)"/><path class="cls-6" d="M246.78,417.08a1.33,1.33,0,0,0,.24,1.23" transform="translate(-98.61 -70.99)"/><path class="cls-6" d="M243.37,416.57a6.74,6.74,0,0,0-1.1.88" transform="translate(-98.61 -70.99)"/><path class="cls-6" d="M240.68,421.11l-.48.64" transform="translate(-98.61 -70.99)"/><path class="cls-6" d="M244.79,420.82v.94" transform="translate(-98.61 -70.99)"/><path class="cls-6" d="M238.68,423.52a1.37,1.37,0,0,0-.25,1.14" transform="translate(-98.61 -70.99)"/><path class="cls-6" d="M239.55,426.91l-.85,1.31" transform="translate(-98.61 -70.99)"/><path class="cls-6" d="M246.3,425.69a2.87,2.87,0,0,0,.91,1.33" transform="translate(-98.61 -70.99)"/><path class="cls-6" d="M249.75,425.79a1.92,1.92,0,0,0,1,1.71" transform="translate(-98.61 -70.99)"/><path class="cls-6" d="M250,432a1.7,1.7,0,0,0,.39,1.12" transform="translate(-98.61 -70.99)"/><path class="cls-6" d="M244.42,430.28v1" transform="translate(-98.61 -70.99)"/><path class="cls-6" d="M242.83,430.1a1.06,1.06,0,0,0-.76.46" transform="translate(-98.61 -70.99)"/><path class="cls-6" d="M239.18,431.61l-.85.46" transform="translate(-98.61 -70.99)"/><path class="cls-6" d="M239.79,433.57a2.33,2.33,0,0,1-.6,2.26" transform="translate(-98.61 -70.99)"/><path class="cls-6" d="M250.67,435.67a2,2,0,0,0,1.05.27" transform="translate(-98.61 -70.99)"/><polygon class="cls-7" points="129.95 336.55 193.89 336.55 211.53 271.16 112.31 271.16 129.95 336.55"/><line class="cls-8" x1="161.4" y1="283.69" x2="161.4" y2="336.55"/><path class="cls-9" d="M220.46,354l13.74,53.16h-6l-16.14-61S218.76,352.69,220.46,354Z" transform="translate(-98.61 -70.99)"/><path class="cls-9" d="M288.1,379.87l4.31,3.08,8.12-5.21,2.79-1.79-1.43-3.24s-9.09,7.63-13.79,7.16L286,395.81s8.71-.17,10.94-4.74l3.46-12.8" transform="translate(-98.61 -70.99)"/><path class="cls-10" d="M288.1,379.87l4.34,3h-.07c3.6-2.39,7.24-4.73,10.86-7.08l-.06.2-1.44-3.24.27.06a53.24,53.24,0,0,1-6.45,4.61,27.43,27.43,0,0,1-3.53,1.83,8.82,8.82,0,0,1-3.95.83l.27-.21c-.33,2.66-.72,5.31-1.07,8l-1.09,8-.19-.21a24.23,24.23,0,0,0,3.06-.32,19.21,19.21,0,0,0,3-.74,11,11,0,0,0,2.74-1.33,6.26,6.26,0,0,0,2-2.22v0c1.16-4.27,2.4-8.52,3.59-12.77-1.11,4.28-2.17,8.57-3.32,12.84h0a6.6,6.6,0,0,1-2.1,2.35,11.05,11.05,0,0,1-2.82,1.39,18.46,18.46,0,0,1-3,.78A23.12,23.12,0,0,1,286,396h-.23l0-.23,1-8c.35-2.66.67-5.32,1-8l0-.23.23,0a8.47,8.47,0,0,0,3.73-.77,25.92,25.92,0,0,0,3.49-1.76,55.19,55.19,0,0,0,6.44-4.52l.18-.15.09.21,1.42,3.25,0,.12-.11.08c-3.65,2.31-7.29,4.64-11,6.92l0,0,0,0Z" transform="translate(-98.61 -70.99)"/><path class="cls-9" d="M233.1,379.87,228.79,383l-8.13-5.21L217.87,376l1.44-3.24s9.09,7.63,13.79,7.16l2.1,15.94s-8.7-.17-10.94-4.74l-3.45-12.8" transform="translate(-98.61 -70.99)"/><path class="cls-10" d="M233.1,379.87,228.83,383l0,0,0,0c-3.67-2.28-7.31-4.61-11-6.92l-.12-.08.06-.12,1.42-3.25.09-.21.18.15a54.24,54.24,0,0,0,6.43,4.52,26,26,0,0,0,3.5,1.76,8.4,8.4,0,0,0,3.72.77l.23,0,0,.23c.38,2.65.7,5.31,1,8l1,8,0,.23h-.22a23.27,23.27,0,0,1-3.12-.35,19,19,0,0,1-3-.78,11.15,11.15,0,0,1-2.81-1.39,6.51,6.51,0,0,1-2.1-2.35h0c-1.15-4.27-2.22-8.56-3.32-12.84,1.19,4.25,2.43,8.5,3.58,12.77v0a6.35,6.35,0,0,0,2,2.22,11.1,11.1,0,0,0,2.75,1.33,18.93,18.93,0,0,0,3,.74,24.23,24.23,0,0,0,3.06.32l-.2.21-1.08-8c-.36-2.66-.74-5.31-1.07-8l.26.21a8.77,8.77,0,0,1-3.94-.83,26.92,26.92,0,0,1-3.54-1.83,54,54,0,0,1-6.45-4.61l.28-.06L218,376l-.06-.2c3.63,2.35,7.26,4.69,10.86,7.08h-.07Z" transform="translate(-98.61 -70.99)"/><path class="cls-9" d="M260.53,369.14a56.86,56.86,0,0,0,7.52-.5l-.9,38.89h-6.62Z" transform="translate(-98.61 -70.99)"/><path class="cls-11" d="M319.8,159.22s165.85,19.42,73,177.92l-24.66-10.62" transform="translate(-98.61 -70.99)"/><path class="cls-12" d="M199.86,159.22S34,178.64,126.83,337.14l24.65-10.62" transform="translate(-98.61 -70.99)"/><ellipse class="cls-13" cx="161.81" cy="196.11" rx="123.6" ry="123.25"/><path class="cls-14" d="M191.66,350.53" transform="translate(-98.61 -70.99)"/><path class="cls-15" d="M130.62,335.73s7.66,11.31,29.2,7.6l2-1,.43-.36s-10.2-14-10.61-16.33" transform="translate(-98.61 -70.99)"/><path class="cls-15" d="M390.58,336.94s-7.65,11.31-29.2,7.6l-2-1-.42-.37s10.19-14,10.6-16.32" transform="translate(-98.61 -70.99)"/><polyline class="cls-16" points="162.54 317.92 162.54 108.84 180.36 122.26 214.34 95.12"/><path class="cls-17" d="M177.51,224.45s-13.21,23.31-7.59,33.41l15,7.38,18.31-5.05,8.42-33.41" transform="translate(-98.61 -70.99)"/><polyline class="cls-16" points="160.01 317.92 160.01 108.84 142.19 122.26 108.21 95.12"/><path class="cls-18" d="M200.06,190.31l.1-.21a3.37,3.37,0,0,1,1-1.23,5,5,0,0,1,3.14-1,5.11,5.11,0,0,1,1.91.37c.05,0,.07,0,.09,0L209,185a1.48,1.48,0,0,1,1.27-.5l.16,0,1.48.27h0l-.21.68-.07,0-1.38-.25a.51.51,0,0,0-.56.17c-.27.32-.53.64-.8,1l0,0h.06l7.11,1.33s.07,0,.1,0l.53-.52,0-.05h-.07l-1.21-.22a.39.39,0,0,1-.33-.29.33.33,0,0,1,.22-.36.47.47,0,0,1,.33,0l3.23.6H219l-.21.68h-.06l-1-.18a.07.07,0,0,0-.08,0l-.87.85s0,0,0,.05l.57,2.14s0,0,0,0l.42,0a5.61,5.61,0,0,1,1.48.19,4.19,4.19,0,0,1,2.38,1.57,2.66,2.66,0,0,1,.55,1.83,3.36,3.36,0,0,1-2.23,2.85,5.13,5.13,0,0,1-2.47.43l-.4,0H217l-.47-.09h-.06c-.22-.08-.46-.14-.67-.22a3.91,3.91,0,0,1-2-1.59,2.71,2.71,0,0,1-.41-1.78,1.36,1.36,0,0,1,0-.2h-.07l-1.78-.33a.57.57,0,0,1-.37-.23l-.54-.8-1.42-2.11L208,188l-.23-.34-.8,1h0l0,0a3.1,3.1,0,0,1,1.56,3,2.73,2.73,0,0,1-.43,1.17,4.26,4.26,0,0,1-2.58,1.74,5.38,5.38,0,0,1-1.84.14l-.28,0-.49-.09,0,0c-.21-.07-.43-.12-.63-.2a3.75,3.75,0,0,1-2.26-2.1,2.57,2.57,0,0,1-.16-1.37l0-.23Zm6.45-1.08,0,0c-.45.53-.89,1.06-1.33,1.6l-.48.57a.51.51,0,0,1-.59.12.31.31,0,0,1-.13-.51l1.8-2.16,0,0a4,4,0,0,0-4.48,1.06c-1,1.27-.48,2.9,1.1,3.7a4.1,4.1,0,0,0,4.76-.77A2.33,2.33,0,0,0,206.51,189.23Zm7.84,4.28a2.62,2.62,0,0,0,1.81,2.74,4.18,4.18,0,0,0,4.23-.59,2.28,2.28,0,0,0,.31-3.33,3.85,3.85,0,0,0-3.15-1.2c0,.16.08.33.13.49l.56,2.09a.28.28,0,0,1,0,.22.47.47,0,0,1-.53.2l-3.26-.61Zm-6-6.5,3.37,5,3.76-3.67Zm8.13,3.55-.45-1.65-3.59,3.51,1.23.23A4.11,4.11,0,0,1,216.49,190.56Zm-1.91,2.26,2.65.5-.56-2.06A3.25,3.25,0,0,0,214.58,192.82Z" transform="translate(-98.61 -70.99)"/><path class="cls-18" d="M207.29,214.57a1.85,1.85,0,0,0,0-.23A2.82,2.82,0,0,1,208,213a4.43,4.43,0,0,1,2.75-1.55,5.43,5.43,0,0,1,2,0c.05,0,.07,0,.08,0l1.65-3.59a1.3,1.3,0,0,1,1.08-.72h1.73v.7h-1.49a.46.46,0,0,0-.5.28c-.16.36-.33.71-.49,1.07,0,0,0,0,0,.05h7.38a.08.08,0,0,0,.08,0c.12-.21.25-.41.37-.61l0-.05h-1.31a.47.47,0,0,1-.42-.22.31.31,0,0,1,.12-.39.54.54,0,0,1,.31-.09h3.38v.7H223.6a.08.08,0,0,0-.08,0l-.58,1s0,0,0,.06l1.19,2s0,0,0,0l.41-.09a5.32,5.32,0,0,1,1.49-.09,4.87,4.87,0,0,1,2.79,1.1,3.08,3.08,0,0,1,1.07,1.68,3,3,0,0,1-1.33,3.17,4.65,4.65,0,0,1-2.27.88l-.4,0h-.6c-.24,0-.49,0-.72-.09a4.55,4.55,0,0,1-2.39-1.18,3.13,3.13,0,0,1-.93-1.66l0-.2h-1.91a.55.55,0,0,1-.42-.14l-.76-.68-2-1.8-1.76-1.57-.32-.29-.49,1.07h0l.05,0a3.56,3.56,0,0,1,2.41,2.64,2.48,2.48,0,0,1-.07,1.21,3.56,3.56,0,0,1-2,2.16,4.89,4.89,0,0,1-1.75.48l-.28,0h-.56c-.22,0-.45,0-.67-.08a4.41,4.41,0,0,1-2.82-1.62,2.81,2.81,0,0,1-.56-1.31,2.23,2.23,0,0,0,0-.23Zm6-2.23,0,0c-.27.6-.55,1.2-.82,1.79l-.3.65a.46.46,0,0,1-.53.22c-.26-.06-.38-.26-.28-.47.36-.81.73-1.62,1.1-2.43,0,0,0,0,0-.05a3.66,3.66,0,0,0-4,1.85c-.58,1.41.39,2.9,2.16,3.39a3.8,3.8,0,0,0,4.41-1.61C215.59,214.36,214.76,212.93,213.24,212.34Zm8.9,2.73a3,3,0,0,0,2.57,2.34,3.9,3.9,0,0,0,3.95-1.34,2.34,2.34,0,0,0-.69-3.3,4.16,4.16,0,0,0-3.42-.59l.27.45,1.17,1.93a.29.29,0,0,1,0,.22.43.43,0,0,1-.46.29h-3.43Zm-7.75-5.22,4.76,4.25,2.57-4.25Zm9,2-.92-1.51L220,214.36h1.26A3.57,3.57,0,0,1,223.34,211.81Zm-1.18,2.55h2.73l-1.16-1.9A2.79,2.79,0,0,0,222.16,214.36Z" transform="translate(-98.61 -70.99)"/><path class="cls-18" d="M220.38,238.87l0-.23a2.92,2.92,0,0,1,.62-1.38,4.43,4.43,0,0,1,2.76-1.55,5.44,5.44,0,0,1,2,0c.05,0,.06,0,.08,0,.54-1.2,1.09-2.39,1.64-3.59a1.32,1.32,0,0,1,1.09-.72l.16,0h1.56v.7H228.8a.47.47,0,0,0-.5.28c-.16.35-.32.71-.49,1.07l0,0h7.38a.09.09,0,0,0,.09,0l.36-.6,0-.05h-1.31a.44.44,0,0,1-.41-.22.31.31,0,0,1,.11-.39.57.57,0,0,1,.32-.09h3.37v.7h-1s-.06,0-.07,0l-.59,1a.06.06,0,0,0,0,.06c.39.66.79,1.32,1.19,2,0,0,0,0,0,0l.4-.09a5.37,5.37,0,0,1,1.5-.09,4.84,4.84,0,0,1,2.78,1.1,3.07,3.07,0,0,1,1.08,1.68,3,3,0,0,1-1.33,3.17,4.72,4.72,0,0,1-2.28.87l-.4,0h-.6c-.24,0-.49,0-.72-.09a4.59,4.59,0,0,1-2.39-1.18,3.13,3.13,0,0,1-.93-1.66l0-.2h-1.9a.57.57,0,0,1-.43-.15l-.76-.67-2-1.8-1.75-1.57-.33-.29-.49,1.06h0l.06,0a3.54,3.54,0,0,1,2.4,2.64,2.49,2.49,0,0,1-.07,1.21,3.56,3.56,0,0,1-2,2.16,4.84,4.84,0,0,1-1.75.48l-.28,0h-.56c-.22,0-.45,0-.67-.08a4.38,4.38,0,0,1-2.82-1.63,2.84,2.84,0,0,1-.56-1.3l0-.23Zm6-2.23,0,.05c-.27.6-.54,1.19-.82,1.79l-.29.65a.48.48,0,0,1-.54.22c-.26-.06-.38-.26-.28-.47l1.11-2.43,0,0a3.67,3.67,0,0,0-4.05,1.85c-.57,1.41.39,2.9,2.17,3.39A3.8,3.8,0,0,0,228,240C228.67,238.66,227.85,237.23,226.33,236.64Zm8.9,2.73a3,3,0,0,0,2.56,2.34,3.92,3.92,0,0,0,4-1.34,2.32,2.32,0,0,0-.69-3.3,4.12,4.12,0,0,0-3.42-.59l.27.45,1.17,1.93a.29.29,0,0,1,0,.22.43.43,0,0,1-.46.29h-3.42Zm-7.76-5.23,4.76,4.26,2.57-4.26Zm9,2-.92-1.51-2.46,4.06h1.27A3.55,3.55,0,0,1,236.43,236.11Zm-1.19,2.55H238l-1.15-1.9A2.81,2.81,0,0,0,235.24,238.66Z" transform="translate(-98.61 -70.99)"/><path class="cls-18" d="M225.26,269l0-.22a2.88,2.88,0,0,1,.62-1.38,4.43,4.43,0,0,1,2.76-1.55,5.22,5.22,0,0,1,2,0c.05,0,.06,0,.08,0l1.64-3.6a1.33,1.33,0,0,1,1.09-.72h1.72v.7h-1.49a.46.46,0,0,0-.49.27c-.17.36-.33.72-.49,1.07,0,0,0,0,0,.05h7.37s.07,0,.09,0l.36-.6,0-.05h-1.3a.47.47,0,0,1-.42-.22.31.31,0,0,1,.11-.39.5.5,0,0,1,.32-.09h3.37v.7h-1a.1.1,0,0,0-.08,0l-.59,1a.06.06,0,0,0,0,.06c.39.66.79,1.31,1.19,2,0,0,0,0,0,0s.27-.07.41-.09a5.32,5.32,0,0,1,1.49-.09,4.83,4.83,0,0,1,2.78,1.09,3,3,0,0,1,1.08,1.68,3,3,0,0,1-1.33,3.18,4.72,4.72,0,0,1-2.28.87l-.4,0h-.6l-.72-.09a4.56,4.56,0,0,1-2.39-1.19,3,3,0,0,1-.92-1.66,1.06,1.06,0,0,1,0-.19h-1.9a.64.64,0,0,1-.43-.15l-.75-.68-2-1.79-1.76-1.58-.33-.29-.49,1.07h0l.06,0a3.59,3.59,0,0,1,2.41,2.64,2.53,2.53,0,0,1-.08,1.22,3.57,3.57,0,0,1-2,2.16,5.17,5.17,0,0,1-1.75.48l-.29,0h-.55c-.23,0-.46,0-.67-.08a4.42,4.42,0,0,1-2.83-1.63,2.89,2.89,0,0,1-.56-1.3l0-.23Zm6-2.22,0,0c-.27.6-.54,1.2-.82,1.8-.09.22-.19.43-.29.64a.47.47,0,0,1-.54.23.34.34,0,0,1-.28-.47l1.11-2.43s0,0,0-.05a3.67,3.67,0,0,0-4,1.84c-.57,1.42.39,2.91,2.17,3.4a3.8,3.8,0,0,0,4.4-1.61C233.56,268.83,232.73,267.4,231.21,266.81Zm8.9,2.73a3,3,0,0,0,2.57,2.33,3.9,3.9,0,0,0,3.94-1.33,2.32,2.32,0,0,0-.69-3.3,4.12,4.12,0,0,0-3.42-.59l.27.44L244,269a.33.33,0,0,1,.05.21.44.44,0,0,1-.47.3h-3.42Zm-7.75-5.23,4.76,4.25,2.57-4.25Zm8.95,2-.92-1.52-2.46,4.07h1.27A3.53,3.53,0,0,1,241.31,266.28Zm-1.19,2.55h2.73l-1.15-1.9A2.81,2.81,0,0,0,240.12,268.83Z" transform="translate(-98.61 -70.99)"/><path class="cls-18" d="M225.26,300.64l0-.22a2.91,2.91,0,0,1,.62-1.39,4.43,4.43,0,0,1,2.76-1.55,5.44,5.44,0,0,1,2,0c.05,0,.06,0,.08,0l1.64-3.6a1.33,1.33,0,0,1,1.09-.72h1.72v.69h-1.49a.46.46,0,0,0-.49.28c-.17.36-.33.71-.49,1.07a.08.08,0,0,0,0,.05h7.37s.07,0,.09,0l.36-.6,0-.06h-1.3a.47.47,0,0,1-.42-.22.31.31,0,0,1,.11-.39.57.57,0,0,1,.32-.09h3.37v.7h-1a.08.08,0,0,0-.08,0l-.59,1a.06.06,0,0,0,0,.06c.39.66.79,1.32,1.19,2l0,0,.41-.09a5,5,0,0,1,1.49-.08,4.76,4.76,0,0,1,2.78,1.09,3,3,0,0,1,1.08,1.68,3,3,0,0,1-1.33,3.17,4.73,4.73,0,0,1-2.28.88l-.4,0h-.6c-.24,0-.48,0-.72-.09a4.62,4.62,0,0,1-2.39-1.18,3,3,0,0,1-.92-1.66,1.29,1.29,0,0,1,0-.19h-1.9a.64.64,0,0,1-.43-.15l-.75-.68-2-1.8L232.34,297l-.33-.29-.49,1.07h0l.06,0A3.57,3.57,0,0,1,234,300.4a2.49,2.49,0,0,1-.08,1.21,3.56,3.56,0,0,1-2,2.17,4.94,4.94,0,0,1-1.75.47l-.29,0h-.55a4.72,4.72,0,0,1-.67-.08,4.37,4.37,0,0,1-2.83-1.62,2.92,2.92,0,0,1-.56-1.31l0-.23Zm6-2.23,0,0c-.27.6-.54,1.2-.82,1.8-.09.21-.19.42-.29.64a.47.47,0,0,1-.54.22.34.34,0,0,1-.28-.47l1.11-2.43,0-.05a3.67,3.67,0,0,0-4,1.85c-.57,1.41.39,2.9,2.17,3.4a3.8,3.8,0,0,0,4.4-1.62C233.56,300.43,232.73,299,231.21,298.41Zm8.9,2.74a3,3,0,0,0,2.57,2.33,3.88,3.88,0,0,0,3.94-1.34,2.32,2.32,0,0,0-.69-3.3,4.16,4.16,0,0,0-3.42-.59l.27.45,1.17,1.93a.34.34,0,0,1,.05.22.45.45,0,0,1-.47.29h-3.42Zm-7.75-5.23,4.76,4.25,2.57-4.25Zm8.95,2-.92-1.51-2.46,4.06h1.27A3.55,3.55,0,0,1,241.31,297.88Zm-1.19,2.55h2.73l-1.15-1.9A2.81,2.81,0,0,0,240.12,300.43Z" transform="translate(-98.61 -70.99)"/><path class="cls-18" d="M225.26,323.78l0-.22a3,3,0,0,1,.62-1.39,4.46,4.46,0,0,1,2.76-1.54,5.22,5.22,0,0,1,2,0c.05,0,.06,0,.08,0l1.64-3.6a1.33,1.33,0,0,1,1.09-.72h1.72v.7h-1.49a.46.46,0,0,0-.49.27c-.17.36-.33.72-.49,1.07,0,0,0,0,0,.05h7.37s.07,0,.09,0l.36-.6,0-.06h-1.3a.45.45,0,0,1-.42-.22.29.29,0,0,1,.11-.38.51.51,0,0,1,.32-.1h3.37v.7h-1a.08.08,0,0,0-.08,0l-.59,1a.06.06,0,0,0,0,.06l1.19,2s0,0,0,0l.41-.1a5.72,5.72,0,0,1,1.49-.08,4.83,4.83,0,0,1,2.78,1.09,3,3,0,0,1,1.08,1.68,3,3,0,0,1-1.33,3.18,4.72,4.72,0,0,1-2.28.87l-.4,0h-.6l-.72-.09a4.56,4.56,0,0,1-2.39-1.19,3,3,0,0,1-.92-1.66,1.29,1.29,0,0,1,0-.19h-1.9a.64.64,0,0,1-.43-.15l-.75-.68-2-1.8c-.59-.52-1.18-1-1.76-1.57l-.33-.29-.49,1.07h0l.06,0a3.57,3.57,0,0,1,2.41,2.64,2.53,2.53,0,0,1-.08,1.22,3.57,3.57,0,0,1-2,2.16,5.17,5.17,0,0,1-1.75.48l-.29,0h-.55c-.23,0-.46,0-.67-.08a4.42,4.42,0,0,1-2.83-1.63,2.89,2.89,0,0,1-.56-1.3l0-.24Zm6-2.23,0,.05c-.27.6-.54,1.2-.82,1.8-.09.21-.19.43-.29.64a.47.47,0,0,1-.54.23.34.34,0,0,1-.28-.47l1.11-2.44s0,0,0-.05a3.69,3.69,0,0,0-4,1.85c-.57,1.42.39,2.91,2.17,3.4a3.79,3.79,0,0,0,4.4-1.62C233.56,323.58,232.73,322.15,231.21,321.55Zm8.9,2.74a3,3,0,0,0,2.57,2.33,3.88,3.88,0,0,0,3.94-1.34,2.32,2.32,0,0,0-.69-3.3,4.19,4.19,0,0,0-3.42-.59l.27.45,1.17,1.94a.33.33,0,0,1,.05.21.45.45,0,0,1-.47.3h-3.42Zm-7.75-5.23,4.76,4.25,2.57-4.25Zm8.95,2-.92-1.52-2.46,4.07h1.27A3.53,3.53,0,0,1,241.31,321Zm-1.19,2.55h2.73l-1.15-1.91A2.8,2.8,0,0,0,240.12,323.58Z" transform="translate(-98.61 -70.99)"/><path class="cls-18" d="M224.68,354.49l0-.22a2.88,2.88,0,0,1,.62-1.38,4.43,4.43,0,0,1,2.75-1.55,5.22,5.22,0,0,1,2,0s.07,0,.08,0l1.65-3.6a1.3,1.3,0,0,1,1.09-.72h1.72v.7H233.1a.48.48,0,0,0-.5.27c-.16.36-.33.72-.49,1.07,0,0,0,0,0,.05h7.38a.08.08,0,0,0,.08,0l.37-.6,0-.05h-1.31a.44.44,0,0,1-.41-.22.3.3,0,0,1,.11-.39.47.47,0,0,1,.31-.09H242v.7H241s-.06,0-.07,0c-.2.33-.4.65-.59,1a.06.06,0,0,0,0,.06c.39.66.79,1.31,1.19,2v0c.14,0,.27-.07.41-.09a5.37,5.37,0,0,1,1.5-.09,4.83,4.83,0,0,1,2.78,1.09,3.16,3.16,0,0,1,1.08,1.68,3,3,0,0,1-1.33,3.18,4.72,4.72,0,0,1-2.28.87l-.4,0h-.6c-.24,0-.49-.05-.72-.09a4.49,4.49,0,0,1-2.39-1.19,3.09,3.09,0,0,1-.93-1.66l0-.19H236.7a.6.6,0,0,1-.42-.15l-.76-.68-2-1.79-1.76-1.58-.32-.29-.49,1.07h0l.05,0a3.57,3.57,0,0,1,2.41,2.64,2.52,2.52,0,0,1-.07,1.22,3.59,3.59,0,0,1-2,2.16,5,5,0,0,1-1.75.48l-.28,0h-.56c-.22,0-.45,0-.67-.08a4.42,4.42,0,0,1-2.82-1.63,2.78,2.78,0,0,1-.56-1.3l0-.23Zm5.94-2.22a.08.08,0,0,1,0,0l-.82,1.8c-.1.22-.19.43-.29.64a.48.48,0,0,1-.54.23c-.26-.06-.38-.26-.28-.47l1.11-2.43a.08.08,0,0,1,0-.05,3.66,3.66,0,0,0-4.05,1.84c-.58,1.42.39,2.91,2.17,3.4a3.8,3.8,0,0,0,4.4-1.61C233,354.29,232.14,352.86,230.62,352.27Zm8.91,2.73a3,3,0,0,0,2.56,2.33A3.91,3.91,0,0,0,246,356a2.34,2.34,0,0,0-.69-3.3,4.12,4.12,0,0,0-3.42-.59l.27.44,1.17,1.94a.27.27,0,0,1,0,.21.42.42,0,0,1-.46.3h-3.42Zm-7.76-5.23,4.76,4.26,2.57-4.26Zm9,2-.93-1.52-2.45,4.07h1.27A3.53,3.53,0,0,1,240.73,351.74Zm-1.19,2.55h2.73l-1.15-1.9A2.78,2.78,0,0,0,239.54,354.29Z" transform="translate(-98.61 -70.99)"/><path class="cls-18" d="M209.19,376.57l-.1-.21a2.58,2.58,0,0,1-.26-1.46,3.18,3.18,0,0,1,1.54-2.36,4.68,4.68,0,0,1,1.75-.71s.06,0,0-.06c-.21-1.26-.43-2.52-.64-3.79a1,1,0,0,1,.54-1l.14-.07,1.35-.55h0l.41.62-.06,0-1.26.51c-.24.09-.32.21-.28.42.06.38.13.75.19,1.13a.43.43,0,0,1,0,.05l.06,0,6.49-2.63s.06,0,0-.07c0-.22,0-.44,0-.66,0,0,0,0,0-.06l-.06,0-1.1.45a.52.52,0,0,1-.5-.05.3.3,0,0,1-.13-.38.46.46,0,0,1,.23-.2l2.95-1.19.05,0,.41.63-.06,0-.87.35s-.05,0-.05.07c0,.35,0,.71.05,1.07a.11.11,0,0,0,0,.06l2.22,1.32,0,0a3.55,3.55,0,0,1,.31-.23,4.55,4.55,0,0,1,1.27-.62,5.52,5.52,0,0,1,3.12,0A4.29,4.29,0,0,1,229,368a2.79,2.79,0,0,1,.67,3.3,3.44,3.44,0,0,1-1.51,1.59l-.33.18a.05.05,0,0,0,0,0l-.44.18h-.06c-.23.06-.45.14-.69.19a5.36,5.36,0,0,1-2.81-.2,4.28,4.28,0,0,1-1.8-1.14l-.14-.16-.07,0-1.62.66a.69.69,0,0,1-.47,0l-1.07-.33-2.83-.87-2.49-.76-.46-.14.2,1.12h.07a4.79,4.79,0,0,1,3.69,1.47,3,3,0,0,1,.64,1.11A2.78,2.78,0,0,1,217,377a3.89,3.89,0,0,1-1.27,1.05l-.24.13-.44.18H215c-.22.06-.43.13-.65.17a5.39,5.39,0,0,1-3.46-.42,4.05,4.05,0,0,1-1.26-1l-.16-.19Zm4-4.13v.06l.33,1.89c0,.22.08.45.11.67s-.11.36-.34.4a.44.44,0,0,1-.53-.32c-.15-.85-.29-1.71-.44-2.56a.09.09,0,0,0,0-.05c-1.61.34-2.84,1.61-2.51,3.1s2.05,2.44,3.91,2.24,3.19-1.55,3-3S214.86,372.42,213.17,372.44Zm9.5-.78a3.93,3.93,0,0,0,3.65,1.15A3,3,0,0,0,229,370.2a2.91,2.91,0,0,0-2.54-2.68,4,4,0,0,0-3.39.71l.51.3,2.17,1.29a.4.4,0,0,1,.16.18c.07.18,0,.34-.23.43l-3,1.2Zm-9.94-1.85,6.71,2.07-.2-4.71Zm9.1-1.48-1.71-1,.2,4.5,1.13-.46A2.85,2.85,0,0,1,221.83,368.33Zm.44,2.7,2.42-1-2.13-1.27A2.24,2.24,0,0,0,222.27,371Z" transform="translate(-98.61 -70.99)"/><path class="cls-18" d="M180.16,354.94l-.06-.22a2.63,2.63,0,0,1,0-1.47,3.53,3.53,0,0,1,2-2.16,5.08,5.08,0,0,1,1.87-.5c.05,0,.06,0,.06,0,0-1.27.05-2.55.07-3.82a1.06,1.06,0,0,1,.73-1l.15-.05,1.44-.39h0l.29.66-.07,0-1.34.36c-.25.07-.35.18-.36.39,0,.38,0,.75,0,1.13v.05H185l6.92-1.86s.06,0,.06-.06c0-.22.07-.44.1-.66,0,0,0,0,0-.06l-.07,0-1.17.31a.5.5,0,0,1-.48-.1.3.3,0,0,1-.06-.4.54.54,0,0,1,.26-.17l3.14-.84h.06l.29.66H194l-.94.26s-.05,0-.05.05c0,.36-.11.72-.16,1.07a.07.07,0,0,0,0,.06l1.94,1.56s0,0,0,0l.34-.19a5,5,0,0,1,1.38-.46,5.41,5.41,0,0,1,3.09.33,3.82,3.82,0,0,1,1.71,1.32,2.75,2.75,0,0,1,0,3.34,3.8,3.8,0,0,1-1.79,1.4l-.37.14,0,0-.47.12h-.06c-.24,0-.47.08-.71.1a5.31,5.31,0,0,1-2.75-.51,3.82,3.82,0,0,1-1.56-1.34l-.12-.17h-.07l-1.73.47a.66.66,0,0,1-.46,0l-1-.45-2.64-1.19-2.31-1-.43-.19,0,1.13H185a4.44,4.44,0,0,1,3.37,1.89,2.73,2.73,0,0,1,.43,1.17,2.92,2.92,0,0,1-1,2.55,4.24,4.24,0,0,1-1.45.9l-.26.09-.47.13h-.06c-.22,0-.44.08-.67.09a5.15,5.15,0,0,1-3.34-.82,3.58,3.58,0,0,1-1.07-1.09l-.12-.21Zm4.71-3.62v.05c0,.64,0,1.27,0,1.91,0,.23,0,.45,0,.68a.39.39,0,0,1-.42.35.4.4,0,0,1-.46-.37c0-.86,0-1.72.05-2.59v-.05c-1.66.15-3.11,1.27-3.07,2.78s1.57,2.65,3.45,2.66,3.45-1.16,3.5-2.64S186.55,351.49,184.87,351.32Zm9.55.32a3.67,3.67,0,0,0,3.39,1.56,3.27,3.27,0,0,0,3.18-2.27,2.66,2.66,0,0,0-2-2.95,4.21,4.21,0,0,0-3.48.31l.44.36,1.9,1.53a.41.41,0,0,1,.14.19c0,.19-.09.34-.32.4l-3.16.85Zm-9.49-3,6.26,2.81.67-4.68Zm9.28-.42-1.5-1.2-.64,4.47,1.2-.32A2.94,2.94,0,0,1,194.21,348.25Zm-.07,2.72,2.58-.7-1.87-1.5A2.32,2.32,0,0,0,194.14,351Z" transform="translate(-98.61 -70.99)"/><path class="cls-18" d="M175.86,325.23l-.06-.22a2.72,2.72,0,0,1,0-1.47,3.55,3.55,0,0,1,2-2.16,4.85,4.85,0,0,1,1.86-.5c.05,0,.06,0,.06-.05,0-1.28.05-2.55.07-3.82a1.06,1.06,0,0,1,.73-1,.94.94,0,0,1,.15-.06l1.44-.39h0l.29.66-.07,0-1.34.36c-.25.07-.35.18-.35.39,0,.38,0,.76,0,1.14v0l.06,0,6.91-1.86a.08.08,0,0,0,.07-.06l.09-.66a.13.13,0,0,0,0-.06h-.07l-1.17.32a.51.51,0,0,1-.48-.1.31.31,0,0,1-.06-.4.54.54,0,0,1,.26-.17l3.14-.84.06,0,.29.67h-.06l-.93.25s-.06,0-.06.06l-.15,1.07s0,0,0,.06L190.5,318l0,0,.35-.19a4.49,4.49,0,0,1,1.38-.46,5.29,5.29,0,0,1,3.08.32,3.9,3.9,0,0,1,1.72,1.31,2.76,2.76,0,0,1,.05,3.35,3.8,3.8,0,0,1-1.79,1.4l-.36.14-.05,0-.46.12h-.06c-.24,0-.48.08-.72.1a5.23,5.23,0,0,1-2.75-.51,3.93,3.93,0,0,1-1.56-1.33l-.11-.18-.07,0-1.73.47a.75.75,0,0,1-.47,0l-1-.45L183.34,321l-2.31-1-.43-.19,0,1.14h.07a4.4,4.4,0,0,1,3.37,1.88,2.62,2.62,0,0,1,.44,1.17,3,3,0,0,1-1,2.55,4.1,4.1,0,0,1-1.45.9l-.26.1-.47.13h-.06c-.22,0-.44.08-.66.1a5.18,5.18,0,0,1-3.35-.82,3.58,3.58,0,0,1-1.07-1.09l-.12-.21Zm4.7-3.63v.06l0,1.9c0,.23,0,.46,0,.69a.39.39,0,0,1-.42.35.4.4,0,0,1-.46-.38c0-.86,0-1.72,0-2.58v-.05c-1.66.15-3.11,1.27-3.06,2.78s1.57,2.65,3.46,2.66,3.43-1.17,3.49-2.65S182.25,321.78,180.56,321.6Zm9.56.32a3.67,3.67,0,0,0,3.39,1.55,3.28,3.28,0,0,0,3.18-2.27,2.69,2.69,0,0,0-2-2.95,4.2,4.2,0,0,0-3.48.32l.44.35,1.91,1.53a.44.44,0,0,1,.13.2c0,.18-.09.33-.32.39l-3.16.86Zm-9.5-3,6.26,2.81.67-4.68Zm9.28-.42-1.5-1.2-.64,4.47,1.2-.32A2.94,2.94,0,0,1,189.9,318.53Zm-.07,2.71,2.58-.69L190.53,319A2.35,2.35,0,0,0,189.83,321.24Z" transform="translate(-98.61 -70.99)"/><path class="cls-18" d="M146.45,308.15l-.06-.22a2.72,2.72,0,0,1,.06-1.47,3.62,3.62,0,0,1,2-2.12,5.15,5.15,0,0,1,1.88-.46s.06,0,.06-.05c.06-1.28.13-2.55.19-3.82a1.1,1.1,0,0,1,.76-.95l.15-.05,1.45-.36h0l.27.67-.07,0-1.35.33c-.25.06-.36.17-.37.38l-.06,1.14v.05l.06,0,7-1.72s.06,0,.06-.06l.12-.66s0,0,0-.06l-.07,0-1.18.29a.53.53,0,0,1-.48-.11.29.29,0,0,1,0-.4.46.46,0,0,1,.26-.16l3.17-.78,0,0,.27.67h-.06l-.94.24s-.05,0-.06,0l-.18,1.07s0,0,0,.06l1.89,1.6,0,0,.35-.19a5,5,0,0,1,1.39-.43,5.37,5.37,0,0,1,3.08.39,3.82,3.82,0,0,1,1.67,1.34,2.78,2.78,0,0,1-.05,3.35,4,4,0,0,1-1.84,1.36l-.37.13-.05,0-.46.12H165c-.24,0-.48.07-.72.08a5.23,5.23,0,0,1-2.73-.56,3.7,3.7,0,0,1-1.52-1.37,1.08,1.08,0,0,1-.11-.18l-.07,0-1.75.43a.61.61,0,0,1-.46,0l-1-.47-2.61-1.23L151.78,303l-.42-.2-.06,1.13h.08a4.36,4.36,0,0,1,3.31,1.95,2.54,2.54,0,0,1,.39,1.17,3,3,0,0,1-1.06,2.54,4.47,4.47,0,0,1-1.49.87l-.26.09-.48.12h0l-.67.09a5.14,5.14,0,0,1-3.32-.89,3.61,3.61,0,0,1-1-1.11l-.12-.22Zm4.82-3.53a.11.11,0,0,0,0,.05l-.09,1.91c0,.23,0,.46,0,.68a.39.39,0,0,1-.42.34.39.39,0,0,1-.45-.38l.12-2.58v-.05c-1.66.12-3.14,1.21-3.15,2.71s1.49,2.69,3.37,2.73,3.48-1.09,3.58-2.58S152.94,304.83,151.27,304.62Zm9.53.51a3.63,3.63,0,0,0,3.34,1.62,3.35,3.35,0,0,0,3.26-2.21,2.65,2.65,0,0,0-1.93-3,4.25,4.25,0,0,0-3.49.25l.43.36,1.86,1.57a.37.37,0,0,1,.13.2c0,.18-.1.33-.33.39l-3.19.79ZM151.4,302l6.17,2.93.82-4.66Zm9.3-.24-1.46-1.22-.79,4.45,1.21-.3A3,3,0,0,1,160.7,301.73Zm-.16,2.72,2.6-.65-1.82-1.54A2.36,2.36,0,0,0,160.54,304.45Z" transform="translate(-98.61 -70.99)"/><path class="cls-18" d="M180.08,291.65l0-.23a2.92,2.92,0,0,1,.62-1.38,4.43,4.43,0,0,1,2.76-1.55,5.44,5.44,0,0,1,2,0s.06,0,.08,0c.55-1.2,1.09-2.4,1.64-3.59a1.33,1.33,0,0,1,1.09-.72l.16,0H190v.7h-1.5a.46.46,0,0,0-.49.28c-.17.35-.33.71-.49,1.07,0,0,0,0,0,0h7.37s.07,0,.09-.05l.36-.6,0-.05h-1.3a.47.47,0,0,1-.42-.22.31.31,0,0,1,.11-.39.57.57,0,0,1,.32-.09h3.38v.7h-1.05a.08.08,0,0,0-.08,0l-.59,1a.06.06,0,0,0,0,.06c.4.66.79,1.32,1.19,2l0,0,.41-.09a5.32,5.32,0,0,1,1.49-.09,4.84,4.84,0,0,1,2.78,1.1,2.95,2.95,0,0,1-.25,4.85,4.72,4.72,0,0,1-2.28.87l-.39,0h-.61c-.24,0-.48,0-.72-.09A4.62,4.62,0,0,1,195,294a3,3,0,0,1-.92-1.66,1.42,1.42,0,0,1,0-.2h-1.9a.6.6,0,0,1-.43-.15l-.75-.68-2-1.79L187.16,288l-.33-.29-.49,1.06h0l.06,0a3.58,3.58,0,0,1,2.41,2.65,2.49,2.49,0,0,1-.08,1.21,3.57,3.57,0,0,1-2,2.16,5,5,0,0,1-1.75.48l-.29,0h-.55c-.23,0-.45,0-.67-.08a4.38,4.38,0,0,1-2.83-1.63,3,3,0,0,1-.56-1.3l0-.23Zm5.95-2.23,0,.05c-.27.6-.54,1.19-.82,1.79-.09.22-.19.43-.29.65a.47.47,0,0,1-.54.22.34.34,0,0,1-.28-.47l1.11-2.43,0-.05a3.68,3.68,0,0,0-4,1.84c-.57,1.42.39,2.91,2.17,3.4a3.8,3.8,0,0,0,4.4-1.61C188.38,291.44,187.55,290,186,289.42Zm8.9,2.73a3,3,0,0,0,2.57,2.33,3.88,3.88,0,0,0,3.94-1.33,2.32,2.32,0,0,0-.69-3.3,4.12,4.12,0,0,0-3.42-.59l.27.45,1.17,1.93a.29.29,0,0,1,0,.22.44.44,0,0,1-.46.29h-3.43Zm-7.75-5.23,4.76,4.26,2.57-4.26Zm8.95,2-.92-1.51-2.46,4.06H194A3.55,3.55,0,0,1,196.13,288.89Zm-1.19,2.55h2.73l-1.15-1.9A2.81,2.81,0,0,0,194.94,291.44Z" transform="translate(-98.61 -70.99)"/><path class="cls-18" d="M141.7,270.26c0-.07,0-.15,0-.22a2.79,2.79,0,0,1,.62-1.38,4.43,4.43,0,0,1,2.75-1.55,5.22,5.22,0,0,1,2,0s.07,0,.08,0l1.65-3.6a1.3,1.3,0,0,1,1.08-.72h1.73v.7h-1.49a.47.47,0,0,0-.5.27c-.17.36-.33.72-.49,1.07l0,0h7.38a.08.08,0,0,0,.08,0c.12-.2.24-.4.37-.6l0-.06h-1.31a.45.45,0,0,1-.42-.22.31.31,0,0,1,.11-.38.51.51,0,0,1,.32-.1h3.38v.7H158a.08.08,0,0,0-.08,0c-.19.33-.39.65-.59,1a.06.06,0,0,0,0,.06l1.19,2,0,0,.41-.1a5.72,5.72,0,0,1,1.49-.08,4.89,4.89,0,0,1,2.79,1.09,3.08,3.08,0,0,1,1.07,1.68A3,3,0,0,1,163,273a4.64,4.64,0,0,1-2.27.87l-.4,0h-.61c-.24,0-.48,0-.72-.09a4.49,4.49,0,0,1-2.38-1.19,3,3,0,0,1-.93-1.66l0-.19h-1.91a.6.6,0,0,1-.42-.15l-.76-.68-2-1.8-1.76-1.57-.33-.29-.48,1.07h0l.05,0a3.57,3.57,0,0,1,2.41,2.64,2.52,2.52,0,0,1-.07,1.22,3.62,3.62,0,0,1-2,2.16,5.11,5.11,0,0,1-1.75.48l-.29,0h-.55c-.22,0-.45,0-.67-.08a4.4,4.4,0,0,1-2.82-1.63,2.78,2.78,0,0,1-.56-1.3,2,2,0,0,1,0-.24Zm6-2.23,0,.05c-.28.6-.55,1.2-.82,1.8l-.3.64a.47.47,0,0,1-.54.23.34.34,0,0,1-.28-.47l1.11-2.44,0,0a3.67,3.67,0,0,0-4,1.84c-.57,1.42.4,2.91,2.17,3.4a3.79,3.79,0,0,0,4.4-1.62C150,270.06,149.17,268.63,147.65,268Zm8.9,2.74a3,3,0,0,0,2.57,2.33,3.88,3.88,0,0,0,3.94-1.34,2.33,2.33,0,0,0-.68-3.3,4.22,4.22,0,0,0-3.43-.59l.27.45,1.17,1.94a.24.24,0,0,1,.05.21.43.43,0,0,1-.46.3h-3.43Zm-7.75-5.23,4.76,4.25,2.57-4.25Zm8.95,2-.92-1.52-2.45,4.07h1.26A3.53,3.53,0,0,1,157.75,267.51Zm-1.19,2.55h2.73l-1.15-1.91A2.83,2.83,0,0,0,156.56,270.06Z" transform="translate(-98.61 -70.99)"/><path class="cls-18" d="M143,233.29l0-.22a2.87,2.87,0,0,1,.63-1.39,4.42,4.42,0,0,1,2.75-1.55,5.44,5.44,0,0,1,2,0c.05,0,.06,0,.08,0,.55-1.2,1.09-2.4,1.65-3.6a1.3,1.3,0,0,1,1.08-.72H153v.69h-1.5a.46.46,0,0,0-.49.28c-.17.36-.33.71-.49,1.07,0,0,0,0,0,.05h7.37c.05,0,.07,0,.09,0l.36-.6a.21.21,0,0,1,0-.06H157a.47.47,0,0,1-.42-.22.31.31,0,0,1,.11-.39.57.57,0,0,1,.32-.09h3.38v.7h-1a.08.08,0,0,0-.08,0l-.59,1a.06.06,0,0,0,0,.06l1.19,2s0,0,0,0l.41-.09a5,5,0,0,1,1.49-.08,4.76,4.76,0,0,1,2.78,1.09,3,3,0,0,1,1.08,1.68,3,3,0,0,1-1.33,3.18,4.78,4.78,0,0,1-2.27.87l-.4,0H161c-.24,0-.48,0-.72-.09a4.62,4.62,0,0,1-2.39-1.18A3,3,0,0,1,157,234c0-.06,0-.13,0-.19h-.07c-.61,0-1.22,0-1.83,0a.6.6,0,0,1-.42-.15l-.76-.68-2-1.8-1.76-1.57-.33-.29-.49,1.07h0l.06,0a3.57,3.57,0,0,1,2.41,2.64,2.49,2.49,0,0,1-.08,1.21,3.56,3.56,0,0,1-2,2.17,4.88,4.88,0,0,1-1.75.47l-.29,0h-.55a4.91,4.91,0,0,1-.67-.08,4.37,4.37,0,0,1-2.83-1.62,2.86,2.86,0,0,1-.55-1.31,1.57,1.57,0,0,1,0-.23Zm5.95-2.23s0,0,0,.05c-.28.6-.55,1.2-.82,1.8l-.3.64a.47.47,0,0,1-.54.22.34.34,0,0,1-.28-.47l1.11-2.43s0,0,0-.05a3.67,3.67,0,0,0-4.05,1.85c-.57,1.41.4,2.91,2.17,3.4a3.8,3.8,0,0,0,4.4-1.62C151.33,233.09,150.5,231.65,149,231.06Zm8.9,2.74a3,3,0,0,0,2.57,2.33,3.88,3.88,0,0,0,3.94-1.34,2.32,2.32,0,0,0-.69-3.3,4.19,4.19,0,0,0-3.42-.59l.27.45,1.17,1.93a.29.29,0,0,1,.05.22.44.44,0,0,1-.46.3h-3.43Zm-7.75-5.23,4.76,4.25,2.57-4.25Zm9,2-.92-1.51-2.46,4.07H157A3.54,3.54,0,0,1,159.08,230.53Zm-1.19,2.55h2.73l-1.15-1.9A2.81,2.81,0,0,0,157.89,233.08Z" transform="translate(-98.61 -70.99)"/><path class="cls-18" d="M163.32,198.77a2,2,0,0,0,.1-.21,3.37,3.37,0,0,1,1-1.24,5,5,0,0,1,3.13-1,5.2,5.2,0,0,1,1.92.36s.06,0,.08,0l2.64-3.22a1.51,1.51,0,0,1,1.27-.51l.16,0,1.48.27h0l-.2.68h-.07l-1.38-.25a.53.53,0,0,0-.57.18l-.78,1,0,0h.06l7.12,1.3a.12.12,0,0,0,.1,0l.53-.52,0-.05h-.07l-1.2-.22a.4.4,0,0,1-.35-.29.37.37,0,0,1,.22-.36.65.65,0,0,1,.34,0l3.23.59h.06l-.2.68h-.06l-1-.18a.1.1,0,0,0-.09,0l-.85.84s0,0,0,.06c.2.71.39,1.42.59,2.13a0,0,0,0,1,0,0l.43,0a5.67,5.67,0,0,1,1.48.19,4.21,4.21,0,0,1,2.39,1.55,2.68,2.68,0,0,1,.57,1.83,3.36,3.36,0,0,1-2.21,2.86,5.2,5.2,0,0,1-2.46.45l-.4,0h-.06l-.47-.09-.06,0c-.23-.07-.46-.12-.68-.21a3.91,3.91,0,0,1-2-1.58,2.71,2.71,0,0,1-.43-1.78c0-.06,0-.13,0-.19h-.07l-1.78-.33a.52.52,0,0,1-.37-.22l-.55-.79-1.44-2.11-1.26-1.84-.24-.34-.78.95h0l0,0a3.09,3.09,0,0,1,1.58,3,2.59,2.59,0,0,1-.42,1.17,4.15,4.15,0,0,1-2.55,1.76,5.47,5.47,0,0,1-1.85.16l-.28,0-.49-.09-.05,0a6.55,6.55,0,0,1-.63-.19,3.77,3.77,0,0,1-2.28-2.09,2.55,2.55,0,0,1-.17-1.36l0-.24Zm6.44-1.12,0,0-1.31,1.6c-.16.19-.32.38-.47.58a.52.52,0,0,1-.59.12.3.3,0,0,1-.14-.51c.59-.72,1.18-1.45,1.78-2.17l0,0a4,4,0,0,0-4.47,1.09c-1,1.27-.46,2.9,1.13,3.69a4.08,4.08,0,0,0,4.75-.8A2.33,2.33,0,0,0,169.76,197.65Zm7.89,4.24a2.61,2.61,0,0,0,1.83,2.73,4.18,4.18,0,0,0,4.23-.61,2.29,2.29,0,0,0,.27-3.34,3.88,3.88,0,0,0-3.16-1.18c0,.17.09.33.13.49l.59,2.09a.28.28,0,0,1,0,.22.5.5,0,0,1-.54.21l-3.26-.6Zm-6.06-6.46,3.42,5,3.72-3.69Zm8.16,3.49-.46-1.63-3.56,3.52L177,201A4.19,4.19,0,0,1,179.75,198.92Zm-1.89,2.28,2.66.48-.57-2.06A3.32,3.32,0,0,0,177.86,201.2Z" transform="translate(-98.61 -70.99)"/><path class="cls-18" d="M180.88,176.08l.12-.2a3.53,3.53,0,0,1,1.15-1.16,5.15,5.15,0,0,1,3.23-.78,5.27,5.27,0,0,1,1.87.49s.06,0,.09,0l3-3a1.52,1.52,0,0,1,1.32-.41l.16,0,1.44.38h0l-.28.66H193l-1.34-.36a.57.57,0,0,0-.59.14c-.29.3-.59.6-.89.89l0,0h.06l6.94,1.82a.08.08,0,0,0,.09,0l.59-.48.05,0-.06,0-1.18-.31a.36.36,0,0,1-.3-.31.35.35,0,0,1,.26-.34.56.56,0,0,1,.34,0l3.14.83h.06l-.28.67-.06,0-.94-.25a.1.1,0,0,0-.09,0l-.95.78s0,0,0,.06l.33,2.16s0,0,0,0l.42,0a5,5,0,0,1,1.45.29,4,4,0,0,1,2.2,1.73,2.61,2.61,0,0,1,.34,1.86A3.58,3.58,0,0,1,200,184a5.32,5.32,0,0,1-2.51.26l-.39-.07H197l-.46-.12,0,0a6.29,6.29,0,0,1-.65-.26,3.69,3.69,0,0,1-1.79-1.71,2.71,2.71,0,0,1-.21-1.81c0-.06,0-.13,0-.19l-.07,0-1.74-.46a.51.51,0,0,1-.34-.24l-.45-.83-1.18-2.21c-.34-.64-.69-1.28-1-1.93l-.19-.35-.9.89h0l0,0a3,3,0,0,1,1.22,3.11,2.79,2.79,0,0,1-.56,1.13,4.48,4.48,0,0,1-2.76,1.56,5.47,5.47,0,0,1-1.85,0l-.28-.05-.47-.12-.05,0c-.21-.08-.42-.15-.61-.24a3.59,3.59,0,0,1-2-2.25,2.55,2.55,0,0,1,0-1.37l.06-.23Zm6.54-.63,0,0-1.51,1.5-.54.54a.51.51,0,0,1-.6.07.3.3,0,0,1-.07-.51l2-2s0,0,0,0a4.11,4.11,0,0,0-4.59.74,2.35,2.35,0,0,0,.69,3.76,4.16,4.16,0,0,0,4.83-.43A2.31,2.31,0,0,0,187.42,175.45Zm7.34,4.81a2.48,2.48,0,0,0,1.49,2.85,4.23,4.23,0,0,0,4.28-.29,2.32,2.32,0,0,0,.68-3.3,3.67,3.67,0,0,0-3-1.41c0,.16.05.33.08.49l.33,2.13a.28.28,0,0,1-.05.21.5.5,0,0,1-.55.17l-3.18-.84Zm-5.25-6.89,2.8,5.22,4.16-3.4Zm7.7,4.09-.26-1.67L193,179l1.2.32A4.39,4.39,0,0,1,197.21,177.46Zm-2.15,2.12,2.59.68-.33-2.09A3.48,3.48,0,0,0,195.06,179.58Z" transform="translate(-98.61 -70.99)"/><path class="cls-18" d="M267.91,329.36l0-.22a3,3,0,0,1,.62-1.39,4.48,4.48,0,0,1,2.75-1.55,5.43,5.43,0,0,1,2,0c.05,0,.07,0,.08,0l1.65-3.6a1.3,1.3,0,0,1,1.09-.72h1.72v.69h-1.49a.46.46,0,0,0-.5.28c-.16.36-.33.71-.49,1.07l0,.05h7.38a.08.08,0,0,0,.08,0l.37-.6,0-.06h-1.31a.44.44,0,0,1-.41-.22.3.3,0,0,1,.11-.39.54.54,0,0,1,.31-.09h3.38v.7h-1.05a.08.08,0,0,0-.08,0l-.58,1a.09.09,0,0,0,0,.07c.4.65.8,1.31,1.19,2l0,0,.41-.09a5,5,0,0,1,1.5-.08,4.76,4.76,0,0,1,2.78,1.09,3.16,3.16,0,0,1,1.08,1.68,3,3,0,0,1-1.33,3.18,4.82,4.82,0,0,1-2.28.87l-.4,0h-.6c-.24,0-.49,0-.72-.08a4.64,4.64,0,0,1-2.39-1.19,3.13,3.13,0,0,1-.93-1.66l0-.19h-1.91a.6.6,0,0,1-.42-.15l-.76-.68-2-1.8L275,325.67l-.32-.29-.49,1.07h0l.05,0a3.55,3.55,0,0,1,2.41,2.64,2.48,2.48,0,0,1-.07,1.21,3.58,3.58,0,0,1-2,2.17,5,5,0,0,1-1.75.48l-.28,0H272c-.22,0-.45,0-.67-.07a4.42,4.42,0,0,1-2.82-1.63,2.77,2.77,0,0,1-.56-1.31l0-.23Zm5.94-2.23,0,.05L273,329c-.1.21-.2.43-.29.64a.48.48,0,0,1-.54.22.33.33,0,0,1-.28-.47l1.11-2.43,0-.05a3.67,3.67,0,0,0-4,1.85c-.58,1.41.39,2.91,2.17,3.4a3.8,3.8,0,0,0,4.4-1.62C276.2,329.16,275.37,327.72,273.85,327.13Zm8.91,2.74a3,3,0,0,0,2.56,2.33,3.9,3.9,0,0,0,3.95-1.34,2.34,2.34,0,0,0-.69-3.3,4.2,4.2,0,0,0-3.42-.59l.27.45,1.17,1.93a.29.29,0,0,1,0,.22.43.43,0,0,1-.46.3h-3.42ZM275,324.64l4.76,4.25,2.57-4.25Zm9,2-.93-1.51-2.45,4.07h1.27A3.54,3.54,0,0,1,284,326.6Zm-1.19,2.55h2.73l-1.15-1.9A2.78,2.78,0,0,0,282.77,329.15Z" transform="translate(-98.61 -70.99)"/><path class="cls-18" d="M265.7,360.07l0-.22a3,3,0,0,1,.62-1.39,4.46,4.46,0,0,1,2.76-1.54,5.22,5.22,0,0,1,2,0c.05,0,.06,0,.08,0,.54-1.2,1.09-2.4,1.64-3.6a1.32,1.32,0,0,1,1.09-.72h1.72v.7h-1.49a.48.48,0,0,0-.5.27c-.16.36-.32.71-.49,1.07a.43.43,0,0,0,0,0h7.37c.05,0,.07,0,.09,0l.36-.6,0-.06h-1.31a.44.44,0,0,1-.41-.22.29.29,0,0,1,.11-.38.51.51,0,0,1,.32-.1h3.37v.7H282s-.06,0-.07,0c-.2.33-.4.65-.59,1a.06.06,0,0,0,0,.06l1.19,2,0,0,.4-.1a5.39,5.39,0,0,1,1.5-.08,4.83,4.83,0,0,1,2.78,1.09,3,3,0,0,1,1.08,1.68A3,3,0,0,1,287,362.8a4.82,4.82,0,0,1-2.28.87c-.13,0-.26,0-.4,0h-.6c-.24,0-.48,0-.72-.08a4.53,4.53,0,0,1-2.39-1.19,3.09,3.09,0,0,1-.93-1.66l0-.19h-1.9a.63.63,0,0,1-.43-.15l-.76-.68-2-1.8c-.59-.52-1.18-1-1.76-1.57l-.33-.29-.49,1.07h0l.06,0a3.56,3.56,0,0,1,2.4,2.64,2.52,2.52,0,0,1-.07,1.22,3.56,3.56,0,0,1-2,2.16,5,5,0,0,1-1.75.48l-.28,0h-.55c-.23,0-.46,0-.68-.07a4.42,4.42,0,0,1-2.82-1.63,2.89,2.89,0,0,1-.56-1.3l0-.24Zm5.95-2.23,0,.05c-.27.6-.54,1.2-.82,1.8-.09.21-.19.43-.29.64a.47.47,0,0,1-.54.23c-.25-.06-.38-.27-.28-.47l1.11-2.44s0,0,0,0a3.67,3.67,0,0,0-4.05,1.85c-.57,1.41.39,2.91,2.17,3.4a3.79,3.79,0,0,0,4.4-1.62C274,359.87,273.17,358.44,271.65,357.84Zm8.9,2.74a3,3,0,0,0,2.56,2.33,3.9,3.9,0,0,0,3.95-1.34,2.32,2.32,0,0,0-.69-3.3,4.19,4.19,0,0,0-3.42-.59l.27.45,1.17,1.94a.33.33,0,0,1,.05.21.45.45,0,0,1-.47.3h-3.42Zm-7.76-5.23,4.76,4.25,2.57-4.25Zm9,2-.92-1.52-2.46,4.07h1.27A3.53,3.53,0,0,1,281.75,357.32Zm-1.19,2.55h2.73L282.14,358A2.8,2.8,0,0,0,280.56,359.87Z" transform="translate(-98.61 -70.99)"/><path class="cls-18" d="M289.29,366l.23-.13a4.93,4.93,0,0,1,1.72-.58,5.37,5.37,0,0,1,3.32.56,3.88,3.88,0,0,1,1.32,1.14s0,0,.08,0l4.5-1.47a1.66,1.66,0,0,1,1.41.14l.12.09,1,.88,0,0-.65.47-.05,0-1-.82a.55.55,0,0,0-.59-.1l-1.34.43-.06,0,0,0,4.93,4.24s.05,0,.1,0l.81-.19.07,0,0,0-.83-.72a.29.29,0,0,1-.07-.39.52.52,0,0,1,.74-.07l2.23,1.92,0,0-.66.47,0,0-.66-.57a.1.1,0,0,0-.09,0l-1.31.32a.07.07,0,0,0-.06,0c-.36.67-.71,1.34-1.06,2a0,0,0,0,1,0,0l.36.18a3.92,3.92,0,0,1,1.09.81,2.86,2.86,0,0,1,.84,2.35,2.79,2.79,0,0,1-.85,1.75,5.25,5.25,0,0,1-6.24.64l-.3-.21-.05,0-.33-.29,0,0a5.56,5.56,0,0,1-.4-.47,2.78,2.78,0,0,1-.5-2.19,3.08,3.08,0,0,1,.94-1.65l.16-.15-.05-.05-1.23-1.06a.35.35,0,0,1-.15-.34c.05-.3.09-.6.13-.9.11-.79.22-1.58.34-2.38s.19-1.38.29-2.07l.06-.39-1.34.44h0l0,.05a2.86,2.86,0,0,1-.87,3.17,4,4,0,0,1-1.19.78,5.42,5.42,0,0,1-3.38.3,4.75,4.75,0,0,1-1.63-.69l-.21-.15-.34-.29,0,0a5.32,5.32,0,0,1-.38-.45,2.78,2.78,0,0,1-.37-2.73,3.19,3.19,0,0,1,.85-1.2l.2-.18Zm6.1,1.95h-.06l-2.24.74-.8.26a.49.49,0,0,1-.58-.16c-.12-.19,0-.39.25-.48l3-1,.06,0a4,4,0,0,0-4.46-1.1c-1.72.62-2.48,2.19-1.74,3.55a3.86,3.86,0,0,0,4.48,1.46C295.07,370.62,295.86,369.18,295.39,367.9Zm3.43,7a2.28,2.28,0,0,0-.47,3.06,3.88,3.88,0,0,0,3.92,1.39,3,3,0,0,0,2.64-2.63,2.67,2.67,0,0,0-1.75-2.38l-.24.46-1,2a.4.4,0,0,1-.17.17.53.53,0,0,1-.59-.07l-2.26-1.94Zm-.3-8-.8,5.63,5.74-1.38Zm4.18,6.52.8-1.56L298,373.16l.85.73A5.48,5.48,0,0,1,302.7,373.4Zm-3.2,1,1.84,1.58,1-1.95A4.28,4.28,0,0,0,299.5,374.43Z" transform="translate(-98.61 -70.99)"/><path class="cls-18" d="M313.14,348.21l.15-.2a4,4,0,0,1,1.31-1,5.34,5.34,0,0,1,3.33-.49,4.82,4.82,0,0,1,1.78.66.06.06,0,0,0,.09,0l3.44-2.71a1.6,1.6,0,0,1,1.37-.3l.15.05,1.38.5,0,0-.38.63-.06,0-1.29-.47a.55.55,0,0,0-.6.09l-1,.8,0,0,.06,0,6.62,2.43a.08.08,0,0,0,.1,0l.65-.42.06,0-.07,0-1.12-.41a.35.35,0,0,1-.25-.34.39.39,0,0,1,.31-.32.61.61,0,0,1,.33,0l3,1.1.05,0-.37.63-.06,0-.9-.33a.08.08,0,0,0-.08,0l-1.06.69a.08.08,0,0,0,0,.06c0,.72,0,1.45,0,2.18v0l.42.05a4.73,4.73,0,0,1,1.4.42,3.71,3.71,0,0,1,1.93,1.91,2.65,2.65,0,0,1,.07,1.88,3.87,3.87,0,0,1-2.92,2.44,5.28,5.28,0,0,1-2.53,0l-.39-.1h0l-.44-.16-.05,0a5.86,5.86,0,0,1-.61-.32,3.4,3.4,0,0,1-1.52-1.87,2.74,2.74,0,0,1,.05-1.81l.08-.18-.07,0-1.66-.61a.45.45,0,0,1-.3-.27c-.1-.29-.21-.58-.32-.87-.28-.77-.57-1.53-.85-2.3s-.5-1.33-.74-2c-.05-.13-.1-.25-.14-.38l-1,.81h0l0,0a2.86,2.86,0,0,1,.76,3.19,3.09,3.09,0,0,1-.73,1.08,4.73,4.73,0,0,1-3,1.3,5.46,5.46,0,0,1-1.85-.15l-.27-.07-.45-.17-.05,0c-.19-.1-.39-.19-.56-.3a3.25,3.25,0,0,1-1.68-2.41,2.6,2.6,0,0,1,.2-1.37l.09-.22Zm6.59,0-.05,0L318,349.56l-.61.48a.51.51,0,0,1-.61,0,.29.29,0,0,1,0-.51l2.32-1.84,0,0a4.17,4.17,0,0,0-4.66.33,2.33,2.33,0,0,0,.13,3.8,4.18,4.18,0,0,0,4.86,0A2.31,2.31,0,0,0,319.73,348.16Zm6.59,5.44a2.37,2.37,0,0,0,1.07,3,4.25,4.25,0,0,0,4.29.1,2.4,2.4,0,0,0,1.16-3.22,3.45,3.45,0,0,0-2.78-1.67v.49c0,.72,0,1.43,0,2.14a.28.28,0,0,1-.08.21.53.53,0,0,1-.58.12l-3-1.11Zm-4.2-7.31,2,5.43,4.63-3Zm7.05,4.75,0-1.67-4.42,2.86,1.15.42A4.75,4.75,0,0,1,329.17,351ZM326.72,353l2.47.91,0-2.11A3.71,3.71,0,0,0,326.72,353Z" transform="translate(-98.61 -70.99)"/><path class="cls-18" d="M263.77,206.41l0-.23a2.88,2.88,0,0,1,.62-1.38,4.43,4.43,0,0,1,2.75-1.55,5.22,5.22,0,0,1,2,0c.05,0,.07,0,.08,0l1.65-3.59a1.29,1.29,0,0,1,1.09-.73h1.72v.7h-1.49a.47.47,0,0,0-.5.28c-.16.35-.32.71-.49,1.06,0,0,0,0,0,0h7.38s.07,0,.08,0l.37-.6,0-.05h-1.31a.44.44,0,0,1-.41-.22.3.3,0,0,1,.11-.39.47.47,0,0,1,.31-.09h3.38v.7h-1.05s-.06,0-.07,0c-.2.33-.4.65-.59,1a.06.06,0,0,0,0,.06c.39.66.79,1.31,1.19,2,0,0,0,0,0,0l.41-.09a5.37,5.37,0,0,1,1.5-.09,4.77,4.77,0,0,1,2.78,1.1,3.09,3.09,0,0,1,1.08,1.68,3,3,0,0,1-1.33,3.17,4.72,4.72,0,0,1-2.28.87l-.4,0h-.6c-.24,0-.49,0-.72-.09a4.59,4.59,0,0,1-2.39-1.18,3.13,3.13,0,0,1-.93-1.66l0-.2h-1.91a.6.6,0,0,1-.42-.15l-.76-.68-2-1.79-1.76-1.58-.32-.29-.49,1.07h0l.06,0a3.57,3.57,0,0,1,2.4,2.64,2.52,2.52,0,0,1-.07,1.22,3.59,3.59,0,0,1-2,2.16,5,5,0,0,1-1.75.48l-.28,0h-.56c-.22,0-.45,0-.67-.08a4.38,4.38,0,0,1-2.82-1.63,2.78,2.78,0,0,1-.56-1.3l0-.23Zm5.94-2.23a.08.08,0,0,1,0,0l-.82,1.8c-.1.22-.19.43-.29.64a.47.47,0,0,1-.54.23c-.26-.06-.38-.26-.28-.47l1.11-2.43a.08.08,0,0,1,0-.05,3.67,3.67,0,0,0-4.05,1.84c-.57,1.42.39,2.91,2.17,3.4a3.8,3.8,0,0,0,4.4-1.61C272.06,206.2,271.23,204.77,269.71,204.18Zm8.91,2.73a3,3,0,0,0,2.56,2.33,3.9,3.9,0,0,0,3.95-1.33,2.34,2.34,0,0,0-.69-3.3A4.12,4.12,0,0,0,281,204l.27.45,1.17,1.93a.29.29,0,0,1,0,.22.43.43,0,0,1-.46.29h-3.42Zm-7.76-5.23,4.76,4.26,2.57-4.26Zm9,2-.93-1.52-2.45,4.07h1.27A3.53,3.53,0,0,1,279.82,203.65Zm-1.19,2.55h2.73l-1.15-1.9A2.78,2.78,0,0,0,278.63,206.2Z" transform="translate(-98.61 -70.99)"/><path class="cls-18" d="M295.51,198.09l0-.22a2.88,2.88,0,0,1,.62-1.38,4.43,4.43,0,0,1,2.76-1.55,5.44,5.44,0,0,1,2,0c.05,0,.06,0,.08,0l1.64-3.6a1.33,1.33,0,0,1,1.09-.72h1.72v.7h-1.49a.46.46,0,0,0-.49.27c-.17.36-.33.72-.49,1.07,0,0,0,0,0,0h7.37c.05,0,.07,0,.09,0l.36-.6,0-.05h-1.31a.44.44,0,0,1-.41-.22.29.29,0,0,1,.11-.38.51.51,0,0,1,.32-.1h3.37V192h-1.05a.08.08,0,0,0-.07,0l-.59,1a.06.06,0,0,0,0,.06c.39.66.79,1.31,1.19,2l0,0,.41-.1a5.72,5.72,0,0,1,1.49-.08A4.83,4.83,0,0,1,317,196a3,3,0,0,1,1.08,1.68,3,3,0,0,1-1.33,3.18,4.72,4.72,0,0,1-2.28.87l-.4,0h-.6c-.24,0-.48,0-.72-.09a4.53,4.53,0,0,1-2.39-1.19,3,3,0,0,1-.92-1.66,1.06,1.06,0,0,1,0-.19h-1.9a.64.64,0,0,1-.43-.15l-.75-.68-2-1.79-1.76-1.58-.33-.29-.49,1.07h0l.06,0a3.57,3.57,0,0,1,2.41,2.64,2.53,2.53,0,0,1-.08,1.22,3.56,3.56,0,0,1-2,2.16,5.05,5.05,0,0,1-1.74.48l-.29,0h-.55c-.23,0-.46,0-.67-.08A4.42,4.42,0,0,1,296.1,200a2.89,2.89,0,0,1-.56-1.3l0-.24Zm5.95-2.23,0,0c-.27.6-.54,1.2-.82,1.8-.09.21-.19.43-.29.64a.47.47,0,0,1-.54.23c-.25-.06-.38-.26-.28-.47l1.11-2.44s0,0,0,0a3.67,3.67,0,0,0-4.05,1.84c-.57,1.42.39,2.91,2.17,3.4a3.79,3.79,0,0,0,4.4-1.62C303.81,197.89,303,196.46,301.46,195.86Zm8.9,2.74a3,3,0,0,0,2.56,2.33,3.89,3.89,0,0,0,3.95-1.34,2.32,2.32,0,0,0-.69-3.3,4.19,4.19,0,0,0-3.42-.59l.27.45,1.17,1.94a.33.33,0,0,1,.05.21.45.45,0,0,1-.47.3h-3.42Zm-7.75-5.23,4.76,4.25,2.56-4.25Zm8.95,2-.92-1.52-2.46,4.07h1.27A3.53,3.53,0,0,1,311.56,195.34Zm-1.19,2.55h2.73L312,196A2.8,2.8,0,0,0,310.37,197.89Z" transform="translate(-98.61 -70.99)"/><path class="cls-18" d="M304.73,177l0-.22a2.88,2.88,0,0,1,.62-1.38,4.43,4.43,0,0,1,2.76-1.55,5.44,5.44,0,0,1,2,0c.05,0,.06,0,.08,0,.54-1.2,1.09-2.4,1.64-3.6a1.32,1.32,0,0,1,1.09-.72h1.72v.7h-1.49a.48.48,0,0,0-.5.27c-.16.36-.32.72-.49,1.07,0,0,0,0,0,.05h7.38a.1.1,0,0,0,.09,0l.36-.6,0,0h-1.31a.44.44,0,0,1-.41-.22.31.31,0,0,1,.11-.39.5.5,0,0,1,.32-.09h3.37v.7H321s-.06,0-.07,0c-.2.33-.4.65-.59,1a.06.06,0,0,0,0,.06c.39.66.79,1.31,1.19,2l0,0,.4-.09a5.39,5.39,0,0,1,1.5-.09,4.83,4.83,0,0,1,2.78,1.09,3,3,0,0,1,1.08,1.68,3,3,0,0,1-1.33,3.18,4.72,4.72,0,0,1-2.28.87l-.4,0h-.6c-.24,0-.49-.05-.72-.09a4.53,4.53,0,0,1-2.39-1.19,3.09,3.09,0,0,1-.93-1.66l0-.19h-1.9a.63.63,0,0,1-.43-.15l-.76-.68-2-1.79-1.75-1.58-.33-.29L311,174.1h0l.06,0a3.57,3.57,0,0,1,2.4,2.64,2.52,2.52,0,0,1-.07,1.22,3.59,3.59,0,0,1-2,2.16,5,5,0,0,1-1.75.48l-.28,0h-.56c-.22,0-.45,0-.67-.08a4.42,4.42,0,0,1-2.82-1.63,2.89,2.89,0,0,1-.56-1.3l0-.23Zm5.95-2.22,0,0c-.27.6-.54,1.2-.82,1.8-.1.21-.19.43-.29.64a.47.47,0,0,1-.54.23c-.26-.06-.38-.26-.28-.47l1.11-2.43s0,0,0,0a3.67,3.67,0,0,0-4.05,1.84c-.57,1.42.39,2.91,2.17,3.4a3.79,3.79,0,0,0,4.4-1.62C313,176.81,312.2,175.38,310.68,174.79Zm8.9,2.73a3,3,0,0,0,2.56,2.33,3.91,3.91,0,0,0,3.95-1.33,2.33,2.33,0,0,0-.69-3.31,4.19,4.19,0,0,0-3.42-.59l.27.45,1.17,1.94a.27.27,0,0,1,0,.21.42.42,0,0,1-.46.3h-3.42Zm-7.76-5.23,4.76,4.25,2.57-4.25Zm9,2-.92-1.52-2.46,4.07h1.27A3.53,3.53,0,0,1,320.78,174.26Zm-1.19,2.55h2.73l-1.15-1.9A2.79,2.79,0,0,0,319.59,176.81Z" transform="translate(-98.61 -70.99)"/><path class="cls-18" d="M303.65,224l0-.22a2.88,2.88,0,0,1,.62-1.38,4.43,4.43,0,0,1,2.75-1.55,5.22,5.22,0,0,1,2,0c.05,0,.07,0,.08,0l1.65-3.6a1.3,1.3,0,0,1,1.08-.72h1.73v.7h-1.49a.47.47,0,0,0-.5.27c-.16.36-.33.72-.49,1.07l0,.05h7.38a.08.08,0,0,0,.08,0l.37-.6,0,0h-1.31a.44.44,0,0,1-.41-.22.3.3,0,0,1,.11-.39.47.47,0,0,1,.31-.09H321v.7H320a.1.1,0,0,0-.08,0l-.58,1a.07.07,0,0,0,0,.06c.4.66.8,1.31,1.19,2l0,0c.14,0,.27-.07.41-.09a5.37,5.37,0,0,1,1.5-.09,4.83,4.83,0,0,1,2.78,1.09,3.08,3.08,0,0,1,1.07,1.68,3,3,0,0,1-1.33,3.18,4.64,4.64,0,0,1-2.27.87l-.4,0h-.6c-.24,0-.49-.05-.72-.09a4.49,4.49,0,0,1-2.39-1.19,3.09,3.09,0,0,1-.93-1.66l0-.19h-1.91a.6.6,0,0,1-.42-.15l-.76-.68-2-1.79-1.76-1.58-.32-.29-.49,1.07h0l.05,0a3.57,3.57,0,0,1,2.41,2.64,2.52,2.52,0,0,1-.07,1.22,3.59,3.59,0,0,1-2,2.16,5.11,5.11,0,0,1-1.75.48l-.28,0h-.56c-.22,0-.45,0-.67-.08a4.42,4.42,0,0,1-2.82-1.63,2.78,2.78,0,0,1-.56-1.3l0-.23Zm5.94-2.22,0,0-.82,1.8c-.1.22-.2.43-.29.64a.49.49,0,0,1-.54.23c-.26-.06-.38-.26-.28-.47.37-.81.74-1.62,1.1-2.43l0,0a3.66,3.66,0,0,0-4,1.84c-.58,1.42.39,2.91,2.16,3.4a3.81,3.81,0,0,0,4.41-1.61C311.94,223.78,311.11,222.35,309.59,221.76Zm8.91,2.73a3,3,0,0,0,2.56,2.33,3.91,3.91,0,0,0,3.95-1.33,2.34,2.34,0,0,0-.69-3.3,4.12,4.12,0,0,0-3.42-.59l.27.45,1.17,1.93a.27.27,0,0,1,0,.21.42.42,0,0,1-.46.3H318.5Zm-7.76-5.23,4.76,4.26,2.57-4.26Zm9,2-.93-1.52-2.45,4.07h1.27A3.53,3.53,0,0,1,319.7,221.23Zm-1.19,2.55h2.73l-1.16-1.9A2.79,2.79,0,0,0,318.51,223.78Z" transform="translate(-98.61 -70.99)"/><path class="cls-18" d="M339.44,231.2c0-.08,0-.15,0-.23a2.73,2.73,0,0,1,.34-1.44,4,4,0,0,1,2.42-1.86,5.28,5.28,0,0,1,1.95-.23c.05,0,.06,0,.07-.05.31-1.25.61-2.5.92-3.75a1.17,1.17,0,0,1,.93-.84.45.45,0,0,1,.16,0l1.5-.19h0l.14.69h-.07l-1.4.17c-.26,0-.39.13-.44.33l-.27,1.12s0,0,0,0h.06l7.22-.88c.05,0,.07,0,.08-.05l.24-.64a.14.14,0,0,0,0-.06h-.07l-1.22.15a.49.49,0,0,1-.45-.17.3.3,0,0,1,0-.4.51.51,0,0,1,.3-.12l3.27-.4h.06l.14.69h-.06l-1,.12a.07.07,0,0,0-.07,0c-.12.35-.26.69-.39,1a.13.13,0,0,0,0,.06l1.57,1.8,0,0,.38-.14a5.35,5.35,0,0,1,4.43.48,3.34,3.34,0,0,1,1.39,1.53,2.79,2.79,0,0,1-.69,3.3,4.39,4.39,0,0,1-2.08,1.13l-.39.08,0,0-.48.06h-.79a4.91,4.91,0,0,1-2.59-.89,3.34,3.34,0,0,1-1.24-1.52c0-.07-.05-.13-.08-.19h-.07l-1.81.22a.61.61,0,0,1-.44-.1l-.89-.58L347.76,228l-2.05-1.34-.38-.25-.27,1.11h0l.06,0a3.93,3.93,0,0,1,2.89,2.32,2.52,2.52,0,0,1,.17,1.21,3.23,3.23,0,0,1-1.54,2.37,4.72,4.72,0,0,1-1.64.69l-.27.06-.5.06s0,0-.05,0h-.68A4.8,4.8,0,0,1,340.4,233a3.22,3.22,0,0,1-.81-1.22l-.07-.22Zm5.44-2.92a.09.09,0,0,0,0,.05c-.16.62-.31,1.25-.46,1.87-.06.23-.11.45-.17.67a.43.43,0,0,1-.49.29c-.26,0-.42-.21-.36-.43.2-.85.41-1.69.61-2.54,0,0,0,0,0-.05-1.67-.08-3.35.83-3.64,2.31s.95,2.83,2.8,3.1,3.65-.67,4-2.13S346.5,228.68,344.88,228.28Zm9.33,1.63a3.31,3.31,0,0,0,3,2,3.62,3.62,0,0,0,3.64-1.79,2.45,2.45,0,0,0-1.33-3.18,4.23,4.23,0,0,0-3.49-.17c.12.13.23.27.35.41l1.54,1.77a.28.28,0,0,1,.08.21c0,.18-.16.32-.39.34l-3.31.41Zm-8.68-4.23,5.53,3.62,1.71-4.51Zm9.23.86-1.21-1.39-1.63,4.32,1.25-.15A3.24,3.24,0,0,1,354.76,226.54Zm-.68,2.66,2.7-.33-1.51-1.74A2.58,2.58,0,0,0,354.08,229.2Z" transform="translate(-98.61 -70.99)"/><path class="cls-18" d="M339.64,207.46l0-.23a2.63,2.63,0,0,1,.24-1.45,3.86,3.86,0,0,1,2.28-2,5.13,5.13,0,0,1,1.92-.31c.06,0,.07,0,.07-.05.22-1.26.43-2.53.65-3.79a1.15,1.15,0,0,1,.87-.88l.16,0,1.49-.25h0l.18.68-.07,0-1.39.23a.42.42,0,0,0-.41.35c-.06.38-.13.75-.19,1.13a.07.07,0,0,0,0,.05h.06l7.15-1.2c.05,0,.07,0,.08-.06.06-.21.13-.43.19-.65,0,0,0,0,0-.05h-.07l-1.21.2a.51.51,0,0,1-.47-.15.28.28,0,0,1,0-.39.48.48,0,0,1,.28-.15l3.25-.54h.06l.18.68h-.06l-1,.17a.07.07,0,0,0-.07,0c-.1.35-.21.7-.31,1.05,0,0,0,0,0,.06l1.69,1.73,0,0,.37-.16a5.8,5.8,0,0,1,1.44-.33,5.21,5.21,0,0,1,3,.62,3.61,3.61,0,0,1,1.51,1.46,2.8,2.8,0,0,1-.46,3.33,4.16,4.16,0,0,1-2,1.22l-.38.1-.05,0-.48.08h-.06c-.24,0-.49,0-.73,0a5,5,0,0,1-2.65-.77,3.51,3.51,0,0,1-1.35-1.47,1.08,1.08,0,0,1-.08-.19l-.08,0-1.79.3a.64.64,0,0,1-.45-.08l-.92-.54-2.45-1.42c-.71-.42-1.42-.84-2.14-1.25l-.39-.23-.2,1.12h.08a4.15,4.15,0,0,1,3.06,2.19,2.64,2.64,0,0,1,.25,1.2,3.12,3.12,0,0,1-1.37,2.44,4.53,4.53,0,0,1-1.58.75l-.27.08-.49.08h-.06c-.22,0-.45,0-.67,0a5,5,0,0,1-3.2-1.12,3.27,3.27,0,0,1-.89-1.19,1.47,1.47,0,0,1-.1-.22Zm5.22-3.16a.11.11,0,0,0,0,0c-.11.63-.22,1.26-.32,1.9l-.12.67a.42.42,0,0,1-.47.31.37.37,0,0,1-.4-.41c.15-.86.29-1.71.44-2.56a.07.07,0,0,1,0,0c-1.68,0-3.29,1-3.47,2.47s1.16,2.77,3,3,3.59-.83,3.87-2.3S346.5,204.63,344.86,204.3Zm9.43,1.21a3.42,3.42,0,0,0,3.13,1.86,3.53,3.53,0,0,0,3.51-2,2.53,2.53,0,0,0-1.56-3.12,4.22,4.22,0,0,0-3.5,0l.38.39,1.66,1.7a.3.3,0,0,1,.1.2c0,.19-.13.33-.37.37l-3.27.55Zm-9-3.83,5.79,3.37,1.38-4.58Zm9.29.45-1.31-1.33L352,205.18l1.24-.21A3.12,3.12,0,0,1,354.6,202.13Zm-.49,2.69,2.67-.45-1.63-1.67A2.48,2.48,0,0,0,354.11,204.82Z" transform="translate(-98.61 -70.99)"/><path class="cls-18" d="M310.32,254.11l0-.22a3,3,0,0,1,.62-1.39,4.46,4.46,0,0,1,2.75-1.54,5.22,5.22,0,0,1,2,0c.05,0,.07,0,.08,0l1.65-3.6a1.32,1.32,0,0,1,1.09-.72h1.72v.7h-1.49a.48.48,0,0,0-.5.27c-.16.36-.32.71-.49,1.07a.17.17,0,0,1,0,.05h7.38s.07,0,.08,0l.37-.6,0-.06h-1.31a.42.42,0,0,1-.41-.22.28.28,0,0,1,.11-.38.48.48,0,0,1,.31-.1h3.38v.7h-1.05s-.06,0-.07,0c-.2.33-.4.65-.59,1a.06.06,0,0,0,0,.06l1.19,2s0,0,0,0l.4-.1a5.37,5.37,0,0,1,1.5-.08,4.83,4.83,0,0,1,2.78,1.09,3.16,3.16,0,0,1,1.08,1.68,3,3,0,0,1-1.33,3.18,4.82,4.82,0,0,1-2.28.87l-.4,0h-.6c-.24,0-.49,0-.72-.08a4.6,4.6,0,0,1-2.39-1.19,3.09,3.09,0,0,1-.93-1.66l0-.19h-1.91a.6.6,0,0,1-.42-.15l-.76-.68-2-1.8-1.75-1.57-.33-.29-.49,1.07h0l.06,0a3.56,3.56,0,0,1,2.4,2.64,2.52,2.52,0,0,1-.07,1.22,3.59,3.59,0,0,1-2,2.16,5,5,0,0,1-1.75.48l-.28,0h-.56c-.22,0-.45,0-.67-.07a4.42,4.42,0,0,1-2.82-1.63,2.78,2.78,0,0,1-.56-1.3l0-.24Zm5.95-2.23,0,.05-.82,1.8c-.1.21-.19.43-.29.64a.46.46,0,0,1-.54.22.33.33,0,0,1-.28-.47l1.11-2.43,0-.05a3.67,3.67,0,0,0-4.05,1.85c-.57,1.41.39,2.91,2.17,3.4a3.8,3.8,0,0,0,4.4-1.62C318.61,253.91,317.78,252.48,316.27,251.88Zm8.9,2.74a3,3,0,0,0,2.56,2.33,3.9,3.9,0,0,0,3.95-1.34,2.33,2.33,0,0,0-.69-3.3,4.2,4.2,0,0,0-3.42-.59l.27.45,1.17,1.94a.27.27,0,0,1,0,.21.43.43,0,0,1-.46.3h-3.42Zm-7.76-5.23,4.76,4.25,2.57-4.25Zm9,2-.93-1.52L323,253.91h1.27A3.53,3.53,0,0,1,326.37,251.36Zm-1.19,2.55h2.73L326.76,252A2.8,2.8,0,0,0,325.18,253.91Z" transform="translate(-98.61 -70.99)"/><path class="cls-18" d="M272.16,269.67l0-.22a2.82,2.82,0,0,1,.62-1.39,4.48,4.48,0,0,1,2.75-1.55,5.43,5.43,0,0,1,2,0c.05,0,.07,0,.08,0l1.65-3.6a1.3,1.3,0,0,1,1.08-.72h1.73v.69h-1.49a.46.46,0,0,0-.5.28c-.16.36-.33.71-.49,1.07,0,0,0,0,0,.05H287a.08.08,0,0,0,.08,0l.37-.6,0-.06h-1.31a.47.47,0,0,1-.42-.22.31.31,0,0,1,.12-.39.54.54,0,0,1,.31-.09h3.38v.7h-1.05a.08.08,0,0,0-.08,0l-.58,1s0,.05,0,.06c.4.66.8,1.32,1.19,2l0,0,.41-.09a5,5,0,0,1,1.49-.08,4.79,4.79,0,0,1,2.79,1.09,3.08,3.08,0,0,1,1.07,1.68,3,3,0,0,1-1.33,3.18,4.74,4.74,0,0,1-2.27.87l-.4,0h-.6c-.24,0-.49,0-.72-.09a4.55,4.55,0,0,1-2.39-1.18,3.13,3.13,0,0,1-.93-1.66l0-.19h-1.91a.6.6,0,0,1-.42-.15l-.76-.68-2-1.8L279.23,266l-.32-.29-.49,1.07h0l.05,0a3.57,3.57,0,0,1,2.41,2.64,2.48,2.48,0,0,1-.07,1.21,3.58,3.58,0,0,1-2,2.17,4.88,4.88,0,0,1-1.75.47l-.28,0h-.56a5.1,5.1,0,0,1-.67-.08,4.37,4.37,0,0,1-2.82-1.62,2.81,2.81,0,0,1-.56-1.31l0-.23Zm5.94-2.23,0,.05-.82,1.8c-.1.21-.2.43-.29.64a.48.48,0,0,1-.54.22.33.33,0,0,1-.28-.47c.36-.81.73-1.62,1.1-2.43l0-.05a3.67,3.67,0,0,0-4,1.85c-.58,1.41.39,2.91,2.16,3.4a3.81,3.81,0,0,0,4.41-1.62C280.45,269.47,279.62,268,278.1,267.44Zm8.9,2.74a3,3,0,0,0,2.57,2.33,3.9,3.9,0,0,0,3.95-1.34,2.34,2.34,0,0,0-.69-3.3,4.2,4.2,0,0,0-3.42-.59l.27.45,1.17,1.93a.29.29,0,0,1,0,.22.43.43,0,0,1-.46.3H287ZM279.25,265,284,269.2l2.57-4.25Zm9,2-.93-1.51-2.45,4.06h1.26A3.56,3.56,0,0,1,288.21,266.91ZM287,269.46h2.73l-1.16-1.9A2.79,2.79,0,0,0,287,269.46Z" transform="translate(-98.61 -70.99)"/><path class="cls-18" d="M310.32,289.67l0-.23a2.92,2.92,0,0,1,.62-1.38,4.43,4.43,0,0,1,2.75-1.55,5.43,5.43,0,0,1,2,0c.05,0,.07,0,.08,0l1.65-3.59a1.32,1.32,0,0,1,1.09-.72l.16,0h1.56v.7h-1.49a.47.47,0,0,0-.5.28c-.16.35-.32.71-.49,1.07l0,0h7.38s.07,0,.08-.05l.37-.6,0-.05h-1.31a.44.44,0,0,1-.41-.22.3.3,0,0,1,.11-.39.54.54,0,0,1,.31-.09h3.38v.7h-1.05s-.06,0-.07,0l-.59,1a.06.06,0,0,0,0,.06c.39.66.79,1.32,1.19,2,0,0,0,0,0,0l.4-.09a5.37,5.37,0,0,1,1.5-.09,4.84,4.84,0,0,1,2.78,1.1,3.09,3.09,0,0,1,1.08,1.68,3,3,0,0,1-1.33,3.17,4.72,4.72,0,0,1-2.28.87l-.4,0h-.6c-.24,0-.49,0-.72-.09a4.59,4.59,0,0,1-2.39-1.18,3.13,3.13,0,0,1-.93-1.66l0-.2h-1.91a.56.56,0,0,1-.42-.15l-.76-.68-2-1.79L317.4,286l-.33-.29-.49,1.06h0l.06,0a3.57,3.57,0,0,1,2.4,2.65,2.49,2.49,0,0,1-.07,1.21,3.59,3.59,0,0,1-2,2.16,4.84,4.84,0,0,1-1.75.48l-.28,0h-.56c-.22,0-.45,0-.67-.08a4.38,4.38,0,0,1-2.82-1.63,2.74,2.74,0,0,1-.56-1.3l0-.23Zm5.95-2.23,0,.05c-.27.6-.55,1.19-.82,1.79l-.29.65a.48.48,0,0,1-.54.22c-.26-.06-.38-.26-.28-.47l1.11-2.43s0,0,0-.05a3.67,3.67,0,0,0-4.05,1.84c-.57,1.42.39,2.91,2.17,3.4a3.8,3.8,0,0,0,4.4-1.61C318.61,289.46,317.78,288,316.27,287.44Zm8.9,2.73a3,3,0,0,0,2.56,2.33,3.9,3.9,0,0,0,3.95-1.33,2.33,2.33,0,0,0-.69-3.3,4.12,4.12,0,0,0-3.42-.59l.27.45,1.17,1.93a.29.29,0,0,1,0,.22.43.43,0,0,1-.46.29h-3.42Zm-7.76-5.23,4.76,4.26,2.57-4.26Zm9,2-.93-1.51L323,289.46h1.27A3.55,3.55,0,0,1,326.37,286.91Zm-1.19,2.55h2.73l-1.15-1.9A2.81,2.81,0,0,0,325.18,289.46Z" transform="translate(-98.61 -70.99)"/><path class="cls-18" d="M342,274.74l.11-.21a3.42,3.42,0,0,1,1.09-1.19,5,5,0,0,1,3.19-.89,5.13,5.13,0,0,1,1.89.44c.05,0,.07,0,.09,0l2.86-3.09a1.54,1.54,0,0,1,1.3-.45l.16,0,1.46.33h0l-.25.67h-.07L352.5,270a.55.55,0,0,0-.58.16l-.85.92,0,0,.06,0,7,1.6a.12.12,0,0,0,.1,0l.56-.5s0,0,.05-.05h-.07l-1.19-.27a.38.38,0,0,1-.32-.3.36.36,0,0,1,.25-.35.5.5,0,0,1,.34,0L361,272l.06,0-.25.67h-.06l-.95-.22a.07.07,0,0,0-.08,0l-.92.81a.11.11,0,0,0,0,.06c.15.71.3,1.43.44,2.15a0,0,0,0,1,0,0h.43a5.13,5.13,0,0,1,1.46.24,4.05,4.05,0,0,1,2.28,1.66,2.66,2.66,0,0,1,.44,1.85,3.49,3.49,0,0,1-2.4,2.76,5.15,5.15,0,0,1-2.5.34l-.4-.05h-.05l-.47-.1-.06,0c-.22-.08-.45-.15-.66-.25a3.78,3.78,0,0,1-1.87-1.66,2.68,2.68,0,0,1-.3-1.79c0-.07,0-.13,0-.2h-.07l-1.76-.4a.51.51,0,0,1-.35-.24l-.49-.82-1.29-2.16-1.13-1.9-.21-.35-.85.92h0l0,0a3,3,0,0,1,1.37,3.07,2.73,2.73,0,0,1-.5,1.15,4.31,4.31,0,0,1-2.68,1.64,5.45,5.45,0,0,1-1.85.08l-.28,0-.48-.11-.05,0a6.32,6.32,0,0,1-.61-.22,3.64,3.64,0,0,1-2.14-2.18,2.59,2.59,0,0,1-.07-1.38c0-.07,0-.15.05-.23Zm6.5-.84s0,0,0,0L347,275.49l-.51.55a.55.55,0,0,1-.6.1.31.31,0,0,1-.1-.52l1.93-2.09,0,0a4.07,4.07,0,0,0-4.54.88,2.38,2.38,0,0,0,.87,3.74,4.13,4.13,0,0,0,4.8-.59A2.3,2.3,0,0,0,348.49,273.9Zm7.58,4.57a2.53,2.53,0,0,0,1.63,2.8,4.21,4.21,0,0,0,4.27-.42,2.31,2.31,0,0,0,.51-3.32,3.75,3.75,0,0,0-3.08-1.31c0,.16.07.33.11.49.14.7.28,1.41.43,2.11a.28.28,0,0,1,0,.22.51.51,0,0,1-.55.18l-3.22-.73Zm-5.59-6.72,3.06,5.13,4-3.52Zm7.9,3.85L358,274l-3.8,3.36,1.22.28A4.31,4.31,0,0,1,358.38,275.6Zm-2.05,2.19,2.63.6-.43-2.08A3.41,3.41,0,0,0,356.33,277.79Z" transform="translate(-98.61 -70.99)"/><path class="cls-18" d="M349,254.57a1.8,1.8,0,0,0,.08-.21,3.27,3.27,0,0,1,.88-1.3,4.79,4.79,0,0,1,3-1.19,5.06,5.06,0,0,1,1.94.24c.05,0,.07,0,.09,0l2.33-3.36a1.43,1.43,0,0,1,1.21-.58h.17l1.5.18h0l-.14.69H360l-1.4-.17a.51.51,0,0,0-.55.22l-.69,1,0,.05h.07l7.22.88s.07,0,.09,0l.48-.55,0,0h-.07l-1.22-.15a.41.41,0,0,1-.37-.27.33.33,0,0,1,.19-.37.61.61,0,0,1,.33,0l3.28.4h.06l-.14.69h-.06l-1-.12s-.06,0-.08,0c-.26.3-.52.59-.77.89a.07.07,0,0,0,0,.06c.27.7.53,1.4.8,2.09a0,0,0,0,0,0,0l.42,0a5,5,0,0,1,1.49.1,4.41,4.41,0,0,1,2.54,1.41,2.8,2.8,0,0,1,.73,1.79,3.2,3.2,0,0,1-1.93,3,5.15,5.15,0,0,1-2.42.59l-.4,0h-.06l-.48-.06-.06,0c-.23-.06-.47-.1-.69-.17a4.19,4.19,0,0,1-2.13-1.46,2.82,2.82,0,0,1-.59-1.75v-.2h-.07l-1.81-.22a.53.53,0,0,1-.39-.2l-.62-.76-1.63-2-1.43-1.77-.27-.33-.69,1h0l0,0a3.22,3.22,0,0,1,1.86,2.9,2.54,2.54,0,0,1-.31,1.19,4,4,0,0,1-2.38,1.9,5.28,5.28,0,0,1-1.82.26h-.29l-.5-.06h-.05c-.21-.06-.44-.09-.65-.16a4,4,0,0,1-2.47-1.95,2.58,2.58,0,0,1-.29-1.35,1.93,1.93,0,0,1,0-.24Zm6.32-1.48s0,0,0,0l-1.16,1.68-.41.6a.52.52,0,0,1-.58.16.32.32,0,0,1-.19-.5l1.58-2.27,0-.05a3.94,3.94,0,0,0-4.37,1.34c-.84,1.33-.18,2.92,1.48,3.62a4,4,0,0,0,4.67-1.07A2.38,2.38,0,0,0,355.27,253.09Zm8.26,3.77a2.72,2.72,0,0,0,2.08,2.62,4.12,4.12,0,0,0,4.16-.85,2.28,2.28,0,0,0,0-3.34,4,4,0,0,0-3.26-1l.18.48c.26.68.52,1.37.77,2a.28.28,0,0,1,0,.22.48.48,0,0,1-.52.23l-3.3-.4Zm-6.64-6.1,3.87,4.78,3.37-3.9Zm8.46,3-.61-1.6-3.22,3.72,1.25.15A3.92,3.92,0,0,1,365.35,253.78Zm-1.67,2.38,2.7.33-.77-2A3.13,3.13,0,0,0,363.68,256.16Z" transform="translate(-98.61 -70.99)"/><path class="cls-18" d="M298.54,322a1.85,1.85,0,0,1,0-.23,2.82,2.82,0,0,1,.62-1.38,4.4,4.4,0,0,1,2.75-1.55,5.44,5.44,0,0,1,2,0c.05,0,.06,0,.08,0,.55-1.2,1.09-2.39,1.65-3.59a1.3,1.3,0,0,1,1.08-.72l.17,0h1.56v.7H307a.46.46,0,0,0-.5.28c-.17.35-.33.71-.49,1.07,0,0,0,0,0,0h7.38a.07.07,0,0,0,.08,0c.12-.2.24-.4.37-.6,0,0,0,0,0-.05h-1.31a.47.47,0,0,1-.42-.22.32.32,0,0,1,.11-.39.57.57,0,0,1,.32-.09h3.38v.7h-1a.08.08,0,0,0-.08,0l-.59,1a.06.06,0,0,0,0,.06c.4.66.79,1.32,1.19,2l0,0,.41-.09a5.32,5.32,0,0,1,1.49-.09,4.84,4.84,0,0,1,2.78,1.1,3,3,0,0,1,1.08,1.68,3,3,0,0,1-1.33,3.17,4.64,4.64,0,0,1-2.27.87l-.4,0h-.61c-.24,0-.48,0-.72-.09a4.55,4.55,0,0,1-2.38-1.18,3,3,0,0,1-.93-1.66,1.42,1.42,0,0,0,0-.2h-1.9a.56.56,0,0,1-.42-.15l-.76-.67-2-1.8-1.76-1.57-.33-.29-.49,1.06h0l.05,0a3.56,3.56,0,0,1,2.41,2.64,2.62,2.62,0,0,1-.07,1.21,3.59,3.59,0,0,1-2,2.16,4.89,4.89,0,0,1-1.75.48l-.29,0h-.55c-.22,0-.45,0-.67-.08a4.41,4.41,0,0,1-2.83-1.63,2.82,2.82,0,0,1-.55-1.3,1.85,1.85,0,0,1,0-.23Zm5.95-2.23s0,0,0,.05c-.28.6-.55,1.19-.82,1.79l-.3.65a.47.47,0,0,1-.54.22.34.34,0,0,1-.28-.47l1.11-2.43s0,0,0,0a3.68,3.68,0,0,0-4.05,1.85c-.57,1.41.4,2.9,2.17,3.39a3.79,3.79,0,0,0,4.4-1.61C306.84,321.8,306,320.37,304.49,319.78Zm8.9,2.73a3,3,0,0,0,2.57,2.34,3.9,3.9,0,0,0,3.94-1.34,2.33,2.33,0,0,0-.68-3.3,4.14,4.14,0,0,0-3.43-.59l.27.45,1.17,1.93a.29.29,0,0,1,0,.22.43.43,0,0,1-.46.29h-3.43Zm-7.75-5.23,4.76,4.26,2.57-4.26Zm8.95,2-.92-1.51-2.45,4.06h1.26A3.55,3.55,0,0,1,314.59,319.25Zm-1.19,2.55h2.73L315,319.9A2.83,2.83,0,0,0,313.4,321.8Z" transform="translate(-98.61 -70.99)"/><path class="cls-18" d="M338.74,312.56l.1-.21a3.35,3.35,0,0,1,1-1.22,5,5,0,0,1,3.15-1,5.09,5.09,0,0,1,1.91.39c.05,0,.06,0,.09,0l2.73-3.17a1.48,1.48,0,0,1,1.28-.48l.16,0,1.47.29h0l-.22.67h-.07l-1.37-.27a.5.5,0,0,0-.57.17l-.81.94,0,0h.07l7.08,1.42a.09.09,0,0,0,.1,0l.54-.51.05-.05h-.07l-1.2-.24a.41.41,0,0,1-.34-.3.34.34,0,0,1,.23-.35.56.56,0,0,1,.34,0l3.22.64.05,0-.22.67h-.06l-1-.19a.08.08,0,0,0-.08,0l-.88.83a.14.14,0,0,0,0,.06c.18.71.36,1.43.53,2.14a0,0,0,0,1,0,0h.43a5.17,5.17,0,0,1,1.47.21,4.12,4.12,0,0,1,2.35,1.6,2.71,2.71,0,0,1,.52,1.84,3.4,3.4,0,0,1-2.29,2.81,5.18,5.18,0,0,1-2.48.41l-.4-.05h-.05l-.48-.09,0,0c-.23-.08-.46-.14-.67-.23a3.82,3.82,0,0,1-1.94-1.61,2.72,2.72,0,0,1-.38-1.79l0-.19-.07,0-1.78-.35a.53.53,0,0,1-.36-.23l-.52-.8L348,312.22c-.41-.62-.81-1.24-1.21-1.87l-.23-.34-.81.94h0l0,0a3.07,3.07,0,0,1,1.5,3,2.68,2.68,0,0,1-.45,1.16,4.27,4.27,0,0,1-2.61,1.71,5.46,5.46,0,0,1-1.85.13l-.28,0-.49-.09-.05,0c-.2-.07-.42-.12-.62-.21a3.73,3.73,0,0,1-2.22-2.12,2.68,2.68,0,0,1-.14-1.37c0-.08,0-.16.05-.23Zm6.46-1,0,0-1.36,1.58-.49.57a.5.5,0,0,1-.59.11.31.31,0,0,1-.13-.51c.61-.71,1.23-1.42,1.84-2.14l0,0a4,4,0,0,0-4.51,1,2.39,2.39,0,0,0,1,3.71,4.1,4.1,0,0,0,4.78-.71A2.32,2.32,0,0,0,345.2,311.55Zm7.77,4.38a2.57,2.57,0,0,0,1.75,2.75,4.17,4.17,0,0,0,4.25-.53,2.31,2.31,0,0,0,.37-3.33,3.83,3.83,0,0,0-3.13-1.23l.12.49c.17.7.35,1.4.52,2.1a.26.26,0,0,1,0,.21.49.49,0,0,1-.54.2l-3.25-.65Zm-5.87-6.57,3.27,5,3.83-3.62Zm8.06,3.64-.42-1.65-3.66,3.47,1.23.24A4.2,4.2,0,0,1,355.16,313Zm-2,2.24,2.65.53-.52-2.07A3.37,3.37,0,0,0,353.2,315.24Z" transform="translate(-98.61 -70.99)"/><path class="cls-18" d="M272.66,303.18l0-.22a3,3,0,0,1,.62-1.39,4.46,4.46,0,0,1,2.75-1.54,5.22,5.22,0,0,1,2,0c.05,0,.07,0,.08,0l1.65-3.6a1.3,1.3,0,0,1,1.09-.72h1.72v.7h-1.49a.47.47,0,0,0-.5.27c-.16.36-.32.71-.49,1.07a.17.17,0,0,1,0,.05h7.38a.08.08,0,0,0,.08,0l.37-.6,0-.06h-1.31a.42.42,0,0,1-.41-.22.3.3,0,0,1,.11-.39.54.54,0,0,1,.31-.09H290v.7H289s-.06,0-.07,0c-.2.33-.4.65-.59,1a.06.06,0,0,0,0,.06l1.19,2v0l.41-.09a5,5,0,0,1,1.5-.08,4.83,4.83,0,0,1,2.78,1.09,3.16,3.16,0,0,1,1.08,1.68,3,3,0,0,1-1.33,3.18,4.82,4.82,0,0,1-2.28.87l-.4,0h-.6c-.24,0-.49,0-.72-.08a4.56,4.56,0,0,1-2.39-1.19,3.09,3.09,0,0,1-.93-1.66l0-.19h-1.91a.6.6,0,0,1-.42-.15l-.76-.68-2-1.8-1.76-1.57-.32-.29-.49,1.07h0l.06,0a3.56,3.56,0,0,1,2.4,2.64,2.48,2.48,0,0,1-.07,1.21,3.58,3.58,0,0,1-2,2.17,5,5,0,0,1-1.75.48l-.28,0h-.56c-.22,0-.45,0-.67-.07a4.42,4.42,0,0,1-2.82-1.63,2.78,2.78,0,0,1-.56-1.3l0-.24ZM278.6,301a.08.08,0,0,1,0,.05l-.82,1.8c-.1.21-.19.43-.29.64a.46.46,0,0,1-.54.22.33.33,0,0,1-.28-.47l1.11-2.43,0-.05a3.67,3.67,0,0,0-4,1.85c-.58,1.41.39,2.91,2.17,3.4a3.8,3.8,0,0,0,4.4-1.62C281,303,280.12,301.55,278.6,301Zm8.91,2.74a3,3,0,0,0,2.56,2.33,3.9,3.9,0,0,0,3.95-1.34,2.34,2.34,0,0,0-.69-3.3,4.2,4.2,0,0,0-3.42-.59l.27.45,1.17,1.94a.26.26,0,0,1,0,.21.43.43,0,0,1-.46.3h-3.42Zm-7.76-5.23,4.76,4.25,2.57-4.25Zm9,2-.93-1.51L285.33,303h1.27A3.54,3.54,0,0,1,288.71,300.42ZM287.52,303h2.73l-1.15-1.91A2.78,2.78,0,0,0,287.52,303Z" transform="translate(-98.61 -70.99)"/><path class="cls-18" d="M271.87,241.2l0-.22a3,3,0,0,1,.62-1.39,4.46,4.46,0,0,1,2.75-1.54,5.22,5.22,0,0,1,2,0c.05,0,.07,0,.08,0l1.65-3.6a1.3,1.3,0,0,1,1.09-.72h1.72v.7h-1.49a.47.47,0,0,0-.5.27c-.16.36-.33.71-.49,1.07a.17.17,0,0,1,0,.05h7.38a.08.08,0,0,0,.08,0l.37-.6a.33.33,0,0,0,0-.06h-1.31a.42.42,0,0,1-.41-.22.28.28,0,0,1,.11-.38.48.48,0,0,1,.31-.1h3.38v.7h-1.05a.08.08,0,0,0-.08,0l-.58,1a.06.06,0,0,0,0,.06c.4.65.8,1.31,1.19,2l0,0,.41-.1a5.77,5.77,0,0,1,1.5-.08,4.83,4.83,0,0,1,2.78,1.09,3.16,3.16,0,0,1,1.08,1.68,3,3,0,0,1-1.33,3.18,4.82,4.82,0,0,1-2.28.87c-.13,0-.27,0-.4,0h-.6c-.24,0-.49,0-.72-.08a4.49,4.49,0,0,1-2.39-1.19,3.09,3.09,0,0,1-.93-1.66l0-.19h-1.91a.6.6,0,0,1-.42-.15l-.76-.68-2-1.8-1.76-1.57-.32-.29-.49,1.07h0l.05,0A3.55,3.55,0,0,1,280.6,241a2.52,2.52,0,0,1-.07,1.22,3.59,3.59,0,0,1-2,2.16,5,5,0,0,1-1.75.48l-.28,0H276c-.22,0-.45,0-.67-.07a4.42,4.42,0,0,1-2.82-1.63,2.78,2.78,0,0,1-.56-1.3l0-.24Zm5.94-2.23s0,0,0,.05l-.82,1.8c-.1.21-.2.43-.29.64a.49.49,0,0,1-.54.23c-.26-.06-.38-.27-.28-.47l1.11-2.44,0-.05a3.67,3.67,0,0,0-4.05,1.85c-.58,1.41.39,2.91,2.17,3.4a3.79,3.79,0,0,0,4.4-1.62C280.16,241,279.33,239.57,277.81,239Zm8.91,2.74a3,3,0,0,0,2.56,2.33,3.9,3.9,0,0,0,4-1.34,2.34,2.34,0,0,0-.69-3.3,4.2,4.2,0,0,0-3.42-.59l.27.45,1.17,1.94a.27.27,0,0,1,0,.21.43.43,0,0,1-.46.3h-3.42ZM279,236.48l4.76,4.25,2.57-4.25Zm9,2-.93-1.52L284.54,241h1.27A3.53,3.53,0,0,1,287.92,238.45ZM286.73,241h2.73l-1.15-1.91A2.78,2.78,0,0,0,286.73,241Z" transform="translate(-98.61 -70.99)"/><path class="cls-19" d="M326.29,100.05" transform="translate(-98.61 -70.99)"/><ellipse class="cls-20" cx="161.97" cy="66.8" rx="51.96" ry="66.8"/><rect class="cls-21" x="231.89" y="112.07" width="25" height="15.54" rx="4.43" ry="4.43" transform="translate(390.17 168.71) rotate(180)"/><rect class="cls-22" x="264.46" y="112.07" width="25" height="15.54" rx="4.43" ry="4.43" transform="translate(455.31 168.71) rotate(180)"/><ellipse class="cls-23" cx="145.78" cy="48.86" rx="2.48" ry="3.08"/><ellipse class="cls-23" cx="178.35" cy="48.86" rx="2.48" ry="3.08"/><path class="cls-24" d="M209.22,125.45l22-37.22s40.34,7,55.55,0l23.37,32.82s-6.26-27.41-21-38.64c-10.31-7.86-13.38-8.35-14.25-8.89-1.32-.81-2.11-.52-2.79-.73-5.09-1.62-22-4.48-38.93,7.83C212.79,95.45,209.22,125.45,209.22,125.45Z" transform="translate(-98.61 -70.99)"/><path class="cls-25" d="M286.81,88.36,310,120.86s-6.18-27.15-20.8-38.26C287.76,81.54,291.14,84.25,286.81,88.36Z" transform="translate(-98.61 -70.99)"/><path class="cls-26" d="M311.45,147.49s-48.2,65.65-103.5,0c0,0,5.86,55.29,52,58.29C259.91,205.78,304.2,207.31,311.45,147.49Z" transform="translate(-98.61 -70.99)"/><line class="cls-19" x1="148.26" y1="101.49" x2="175.87" y2="101.49"/><path class="cls-27" d="M246.87,172.47a28,28,0,0,1,6.9-2,45.83,45.83,0,0,1,6.9-.54,43.48,43.48,0,0,1,6.91.54,27.12,27.12,0,0,1,6.9,2,27.57,27.57,0,0,1-6.9,2,44.67,44.67,0,0,1-6.91.53,43.36,43.36,0,0,1-6.9-.54A27.54,27.54,0,0,1,246.87,172.47Z" transform="translate(-98.61 -70.99)"/><line class="cls-19" x1="146.75" y1="101.49" x2="177.65" y2="101.49"/><path class="cls-28" d="M245.36,172.47c2.58-.15,5.15-.23,7.72-.29s5.15-.05,7.73-.08,5.15,0,7.72.08,5.15.14,7.73.29c-2.58.16-5.15.23-7.73.29s-5.15.06-7.72.09-5.15,0-7.73-.09S247.94,172.63,245.36,172.47Z" transform="translate(-98.61 -70.99)"/><polyline class="cls-29" points="167.87 82.39 162.59 84.01 156.27 82.16 161.48 57.79"/><polyline class="cls-30" points="162.59 84.01 156.27 82.16 161.48 57.79"/><path class="cls-20" d="M263.74,119.66s-2.68-3.5-6.13,0" transform="translate(-98.61 -70.99)"/><path class="cls-31" d="M263.7,119.69a8.56,8.56,0,0,0-3-.68,5.89,5.89,0,0,0-1.36.2c-.24.06-.5.16-.79.23a6.77,6.77,0,0,1-.91.26l-.07-.07.66-.61c.25-.16.47-.36.74-.5a3.67,3.67,0,0,1,1.72-.51,4.09,4.09,0,0,1,3.09,1.62Z" transform="translate(-98.61 -70.99)"/><ellipse class="cls-32" cx="178.35" cy="48.86" rx="1.26" ry="1.57"/><ellipse class="cls-32" cx="145.78" cy="48.86" rx="1.26" ry="1.57"/><path class="cls-33" d="M208,147.49s13.43,41,31.9,51.56C239.85,199.05,218.39,196,208,147.49Z" transform="translate(-98.61 -70.99)"/></svg>