<svg id="Layer_1" data-name="Layer 1" xmlns="http://www.w3.org/2000/svg" xmlns:xlink="http://www.w3.org/1999/xlink" viewBox="0 0 339.57 417.9"><defs><style>.cls-1{fill:#e4e1c7;}.cls-2{fill:#512e2a;}.cls-3,.cls-4{fill:#9e2b20;}.cls-14,.cls-23,.cls-4,.cls-6{stroke:#231f20;}.cls-14,.cls-15,.cls-16,.cls-17,.cls-21,.cls-22,.cls-23,.cls-32,.cls-4,.cls-6,.cls-8{stroke-miterlimit:10;}.cls-5{fill:#231f20;}.cls-16,.cls-6,.cls-8{fill:none;}.cls-23,.cls-6{stroke-width:0.25px;}.cls-7{fill:#c2b59b;}.cls-8{stroke:#9b8579;}.cls-9{fill:#b1a58e;}.cls-10{fill:#9b8579;}.cls-11{fill:#1e4496;}.cls-12,.cls-17{fill:#234093;}.cls-13{fill:#124b9a;}.cls-14,.cls-15,.cls-20,.cls-21,.cls-22,.cls-23{fill:#fff;}.cls-15{stroke:#f9a560;}.cls-16{stroke:#283c91;}.cls-17{stroke:#262262;stroke-width:0.5px;}.cls-18{fill:#fff200;}.cls-19{fill:#d1d3d4;}.cls-21{stroke:url(#White_Black);}.cls-22{stroke:url(#White_Black-2);}.cls-24{fill:#fde79e;}.cls-25{fill:#fbeac8;}.cls-26{fill:#e5e1c5;}.cls-27{fill:#f9c9de;}.cls-28{fill:#8d536f;}.cls-29{fill:#e3e2db;}.cls-30{fill:#d0cca8;}.cls-31{fill:url(#White_Black-3);}.cls-32{fill:#2e3192;stroke:#00aeef;}.cls-33{fill:#cfcdb4;}</style><linearGradient id="White_Black" x1="265.84" y1="119.85" x2="293.17" y2="119.85" gradientTransform="matrix(1, 0, 0, -1, -35.53, 239.69)" gradientUnits="userSpaceOnUse"><stop offset="0" stop-color="#fff"/><stop offset="1" stop-color="#231f20"/></linearGradient><linearGradient id="White_Black-2" x1="231.54" y1="119.85" x2="258.87" y2="119.85" gradientTransform="matrix(1, 0, 0, -1, 33.07, 239.69)" xlink:href="#White_Black"/><linearGradient id="White_Black-3" x1="264.75" y1="118.86" x2="257.55" y2="118.86" gradientTransform="matrix(1, 0, 0, 1, 0, 0)" xlink:href="#White_Black"/></defs><title>15</title><polyline class="cls-1" points="192.29 334.96 185.68 400.24 178.25 399.87 177.5 334.22"/><polyline class="cls-1" points="146.19 334.96 152.79 400.24 160.23 399.87 160.98 334.22"/><path class="cls-2" d="M230.77,475.18s-20.25,10.71-7.52,12.21l12.73,1.5h16.19s6.73-4.74,6.73-11.59" transform="translate(-90.46 -70.99)"/><path class="cls-2" d="M286.2,475.18s20.24,10.71,7.52,12.21L281,488.89H264.8s-5.9-4.74-5.9-11.59" transform="translate(-90.46 -70.99)"/><path class="cls-3" d="M244.2,470.46s-33.1,10.7-20.38,12.2l12.73,1.49h16.19s6.16,0,6.16-6.85l-7.23-6.23h-.53" transform="translate(-90.46 -70.99)"/><path class="cls-3" d="M266.6,470.13l-7.39,7.17c0,6.85,6.16,6.85,6.16,6.85h16.19l12.73-1.49c12.73-1.5-18.15-12.21-18.15-12.21" transform="translate(-90.46 -70.99)"/><path class="cls-4" d="M259.31,477" transform="translate(-90.46 -70.99)"/><path class="cls-5" d="M270.57,414.52v2.22a3.22,3.22,0,0,1,0,.62,3.21,3.21,0,0,0,0-.62v-2.22a2.57,2.57,0,0,1,0-.62,2.57,2.57,0,0,0,0,.62Z" transform="translate(-90.46 -70.99)"/><path class="cls-5" d="M275.4,418.15v1.21a3.22,3.22,0,0,1,0,.62,3.2,3.2,0,0,0,0-.62v-1.21a3.22,3.22,0,0,1,0-.62,3.2,3.2,0,0,0,0,.62Z" transform="translate(-90.46 -70.99)"/><path class="cls-5" d="M277,422v1.21a2.57,2.57,0,0,1,0,.62,2.57,2.57,0,0,0,0-.62V422a3.33,3.33,0,0,1,0-.63,3.32,3.32,0,0,0,0,.63Z" transform="translate(-90.46 -70.99)"/><path class="cls-5" d="M280,421.78v.2a3.22,3.22,0,0,1,0,.62,3.21,3.21,0,0,0,0-.62v-.2a2.66,2.66,0,0,1,0-.63,2.66,2.66,0,0,0,0,.63Z" transform="translate(-90.46 -70.99)"/><path class="cls-5" d="M274,429.86s0-1.25,0-1.25,0,1.25,0,1.25Z" transform="translate(-90.46 -70.99)"/><path class="cls-5" d="M271.38,422v1.41a3.21,3.21,0,0,1,0,.62,3.21,3.21,0,0,0,0-.62V422a3.33,3.33,0,0,1,0-.63,3.32,3.32,0,0,0,0,.63Z" transform="translate(-90.46 -70.99)"/><path class="cls-5" d="M271.58,431v1.62a2.57,2.57,0,0,1,0,.62,2.57,2.57,0,0,0,0-.62V431a3.21,3.21,0,0,1,0-.62,3.21,3.21,0,0,0,0,.62Z" transform="translate(-90.46 -70.99)"/><path class="cls-5" d="M277.82,434.07v.6a3.33,3.33,0,0,1,0,.63,3.32,3.32,0,0,0,0-.63v-.6a3.33,3.33,0,0,1,0-.63,3.32,3.32,0,0,0,0,.63Z" transform="translate(-90.46 -70.99)"/><path class="cls-5" d="M275.81,436.28v1.62a2.57,2.57,0,0,1,0,.62,2.57,2.57,0,0,0,0-.62v-1.62a3.21,3.21,0,0,1,0-.62,3.21,3.21,0,0,0,0,.62Z" transform="translate(-90.46 -70.99)"/><path class="cls-5" d="M273.19,437.29v1a2.57,2.57,0,0,1,0,.62,2.57,2.57,0,0,0,0-.62v-1a3.22,3.22,0,0,1,0-.62,3.21,3.21,0,0,0,0,.62Z" transform="translate(-90.46 -70.99)"/><path class="cls-5" d="M271.17,437.49v.2a3.33,3.33,0,0,1,0,.63,3.32,3.32,0,0,0,0-.63v-.2a3.22,3.22,0,0,1,0-.62,3.21,3.21,0,0,0,0,.62Z" transform="translate(-90.46 -70.99)"/><path class="cls-5" d="M270.77,441.72v1a3.32,3.32,0,0,1,0,.63,3.31,3.31,0,0,0,0-.63v-1a2.57,2.57,0,0,1,0-.62,2.57,2.57,0,0,0,0,.62Z" transform="translate(-90.46 -70.99)"/><path class="cls-5" d="M276.82,443.34v.6a3.21,3.21,0,0,1,0,.62,3.2,3.2,0,0,0,0-.62v-.6a3.33,3.33,0,0,1,0-.63,3.32,3.32,0,0,0,0,.63Z" transform="translate(-90.46 -70.99)"/><path class="cls-5" d="M274.8,446v.21a3.21,3.21,0,0,1,0,.62,3.21,3.21,0,0,0,0-.62V446a2.57,2.57,0,0,1,0-.62,2.57,2.57,0,0,0,0,.62Z" transform="translate(-90.46 -70.99)"/><path class="cls-5" d="M272,449v1.21a3.21,3.21,0,0,1,0,.62,3.21,3.21,0,0,0,0-.62V449a2.66,2.66,0,0,1,0-.63,2.66,2.66,0,0,0,0,.63Z" transform="translate(-90.46 -70.99)"/><path class="cls-5" d="M276,451.6v.2a3.22,3.22,0,0,1,0,.62,3.21,3.21,0,0,0,0-.62v-.2a2.66,2.66,0,0,1,0-.63,2.66,2.66,0,0,0,0,.63Z" transform="translate(-90.46 -70.99)"/><path class="cls-5" d="M272.59,454.24s0-1.25,0-1.25,0,1.25,0,1.25Z" transform="translate(-90.46 -70.99)"/><path class="cls-5" d="M279.64,412.71v.81a3.21,3.21,0,0,1,0,.62,2.57,2.57,0,0,0,0-.62v-.81a3.22,3.22,0,0,1,0-.62,3.21,3.21,0,0,0,0,.62Z" transform="translate(-90.46 -70.99)"/><path class="cls-5" d="M272,411.1s0-1.25,0-1.25,0,1.25,0,1.25Z" transform="translate(-90.46 -70.99)"/><path class="cls-5" d="M276,409.9v-1.25s0,1.25,0,1.25Z" transform="translate(-90.46 -70.99)"/><path class="cls-5" d="M275.61,410.7v.6a3.21,3.21,0,0,1,0,.62,2.56,2.56,0,0,0,0-.62v-.6a3.33,3.33,0,0,1,0-.63,3.32,3.32,0,0,0,0,.63Z" transform="translate(-90.46 -70.99)"/><path class="cls-5" d="M280.64,408.88v1a3.22,3.22,0,0,1,0,.62,3.2,3.2,0,0,0,0-.62v-1a3.22,3.22,0,0,1,0-.62,3.21,3.21,0,0,0,0,.62Z" transform="translate(-90.46 -70.99)"/><path class="cls-5" d="M244.38,409.27v.4a3.31,3.31,0,0,1,0,.63,2.66,2.66,0,0,0,0-.63v-.4a3.22,3.22,0,0,1,0-.62,3.21,3.21,0,0,0,0,.62Z" transform="translate(-90.46 -70.99)"/><path class="cls-5" d="M248.82,409.31v-1.25s0,1.25,0,1.25Z" transform="translate(-90.46 -70.99)"/><path class="cls-6" d="M281.56,414a2,2,0,0,0,.64,2.18" transform="translate(-90.46 -70.99)"/><path class="cls-6" d="M281.53,411.07a2,2,0,0,1,.7,1.62" transform="translate(-90.46 -70.99)"/><path class="cls-6" d="M277,411.75a1.07,1.07,0,0,1-.55,1.22" transform="translate(-90.46 -70.99)"/><path class="cls-6" d="M271.39,411.94v1.5" transform="translate(-90.46 -70.99)"/><path class="cls-6" d="M268.77,411.19a2.15,2.15,0,0,1-.82,1.44" transform="translate(-90.46 -70.99)"/><path class="cls-6" d="M267.94,409.13a2.32,2.32,0,0,1-.5,1.48" transform="translate(-90.46 -70.99)"/><path class="cls-6" d="M268.58,414.84a3.35,3.35,0,0,0-.86,1.78" transform="translate(-90.46 -70.99)"/><path class="cls-6" d="M269.44,420a2.06,2.06,0,0,1-.49,1.12" transform="translate(-90.46 -70.99)"/><path class="cls-6" d="M272.49,416.26a1.31,1.31,0,0,1-.23,1.23" transform="translate(-90.46 -70.99)"/><path class="cls-6" d="M275.91,415.75a6.64,6.64,0,0,1,1.1.88" transform="translate(-90.46 -70.99)"/><path class="cls-6" d="M278.6,420.28l.48.65" transform="translate(-90.46 -70.99)"/><path class="cls-6" d="M274.48,420v.93" transform="translate(-90.46 -70.99)"/><path class="cls-6" d="M280.6,422.7a1.34,1.34,0,0,1,.24,1.13" transform="translate(-90.46 -70.99)"/><path class="cls-6" d="M279.72,426.09l.86,1.3" transform="translate(-90.46 -70.99)"/><path class="cls-6" d="M273,424.86a2.8,2.8,0,0,1-.91,1.34" transform="translate(-90.46 -70.99)"/><path class="cls-6" d="M269.52,425a1.92,1.92,0,0,1-1,1.71" transform="translate(-90.46 -70.99)"/><path class="cls-6" d="M269.24,431.15a1.72,1.72,0,0,1-.38,1.11" transform="translate(-90.46 -70.99)"/><path class="cls-6" d="M274.86,429.46v1" transform="translate(-90.46 -70.99)"/><path class="cls-6" d="M276.45,429.28a1,1,0,0,1,.75.46" transform="translate(-90.46 -70.99)"/><path class="cls-6" d="M280.1,430.78l.84.47" transform="translate(-90.46 -70.99)"/><path class="cls-6" d="M279.48,432.75a2.32,2.32,0,0,0,.61,2.25" transform="translate(-90.46 -70.99)"/><path class="cls-6" d="M268.61,434.85a2.07,2.07,0,0,1-1.06.27" transform="translate(-90.46 -70.99)"/><path class="cls-5" d="M248.69,415.35v2.21a3.33,3.33,0,0,1,0,.63,3.32,3.32,0,0,0,0-.63v-2.21a3.33,3.33,0,0,1,0-.63,3.32,3.32,0,0,0,0,.63Z" transform="translate(-90.46 -70.99)"/><path class="cls-5" d="M243.86,419v1.21a2.66,2.66,0,0,1,0,.63,2.66,2.66,0,0,0,0-.63V419a3.21,3.21,0,0,1,0-.62,3.21,3.21,0,0,0,0,.62Z" transform="translate(-90.46 -70.99)"/><path class="cls-5" d="M242.25,422.8V424a2.66,2.66,0,0,1,0,.63,2.66,2.66,0,0,0,0-.63V422.8a3.21,3.21,0,0,1,0-.62,3.21,3.21,0,0,0,0,.62Z" transform="translate(-90.46 -70.99)"/><path class="cls-5" d="M239.22,422.6v.2a3.33,3.33,0,0,1,0,.63,3.32,3.32,0,0,0,0-.63v-.2a3.22,3.22,0,0,1,0-.62,3.21,3.21,0,0,0,0,.62Z" transform="translate(-90.46 -70.99)"/><path class="cls-5" d="M245.28,430.68v-1.25s0,1.25,0,1.25Z" transform="translate(-90.46 -70.99)"/><path class="cls-5" d="M247.89,422.8v1.41a2.66,2.66,0,0,1,0,.63,2.66,2.66,0,0,0,0-.63V422.8a3.21,3.21,0,0,1,0-.62,3.21,3.21,0,0,0,0,.62Z" transform="translate(-90.46 -70.99)"/><path class="cls-5" d="M247.69,431.87v1.61a2.66,2.66,0,0,1,0,.63,2.66,2.66,0,0,0,0-.63v-1.61a3.32,3.32,0,0,1,0-.63,3.31,3.31,0,0,0,0,.63Z" transform="translate(-90.46 -70.99)"/><path class="cls-5" d="M241.44,434.89v.61a3.21,3.21,0,0,1,0,.62,3.21,3.21,0,0,0,0-.62v-.61a2.57,2.57,0,0,1,0-.62,2.57,2.57,0,0,0,0,.62Z" transform="translate(-90.46 -70.99)"/><path class="cls-5" d="M243.46,437.11v1.61a3.21,3.21,0,0,1,0,.62,2.56,2.56,0,0,0,0-.62v-1.61a3.33,3.33,0,0,1,0-.63,3.32,3.32,0,0,0,0,.63Z" transform="translate(-90.46 -70.99)"/><path class="cls-5" d="M246.07,438.12v1a3.33,3.33,0,0,1,0,.63,3.32,3.32,0,0,0,0-.63v-1a3.33,3.33,0,0,1,0-.63,3.32,3.32,0,0,0,0,.63Z" transform="translate(-90.46 -70.99)"/><path class="cls-5" d="M248.09,438.32v.2a3.22,3.22,0,0,1,0,.62,3.21,3.21,0,0,0,0-.62v-.2a2.66,2.66,0,0,1,0-.63,2.66,2.66,0,0,0,0,.63Z" transform="translate(-90.46 -70.99)"/><path class="cls-5" d="M248.49,442.55v1a3.21,3.21,0,0,1,0,.62,3.21,3.21,0,0,0,0-.62v-1a3.33,3.33,0,0,1,0-.63,3.32,3.32,0,0,0,0,.63Z" transform="translate(-90.46 -70.99)"/><path class="cls-5" d="M242.45,444.16v.6a2.66,2.66,0,0,1,0,.63,2.66,2.66,0,0,0,0-.63v-.6a3.32,3.32,0,0,1,0-.63,3.32,3.32,0,0,0,0,.63Z" transform="translate(-90.46 -70.99)"/><path class="cls-5" d="M244.46,446.78v.2a3.32,3.32,0,0,1,0,.63,3.32,3.32,0,0,0,0-.63v-.2a3.32,3.32,0,0,1,0-.63,3.32,3.32,0,0,0,0,.63Z" transform="translate(-90.46 -70.99)"/><path class="cls-5" d="M247.28,449.8V451a3.32,3.32,0,0,1,0,.63,3.32,3.32,0,0,0,0-.63V449.8a3.22,3.22,0,0,1,0-.62,3.21,3.21,0,0,0,0,.62Z" transform="translate(-90.46 -70.99)"/><path class="cls-5" d="M243.25,452.42v.2a3.33,3.33,0,0,1,0,.63,3.32,3.32,0,0,0,0-.63v-.2a3.22,3.22,0,0,1,0-.62,3.2,3.2,0,0,0,0,.62Z" transform="translate(-90.46 -70.99)"/><path class="cls-5" d="M246.69,455.06s0-1.25,0-1.25,0,1.25,0,1.25Z" transform="translate(-90.46 -70.99)"/><path class="cls-5" d="M239.63,413.53v.81a2.66,2.66,0,0,1,0,.63,2.66,2.66,0,0,0,0-.63v-.81a3.21,3.21,0,0,1,0-.62,3.21,3.21,0,0,0,0,.62Z" transform="translate(-90.46 -70.99)"/><path class="cls-5" d="M247.29,409.93s0-1.25,0-1.25,0,1.25,0,1.25Z" transform="translate(-90.46 -70.99)"/><path class="cls-5" d="M243.26,410.72s0-1.25,0-1.25,0,1.25,0,1.25Z" transform="translate(-90.46 -70.99)"/><path class="cls-5" d="M243.66,411.52v.6a2.66,2.66,0,0,1,0,.63,2.66,2.66,0,0,0,0-.63v-.6a3.32,3.32,0,0,1,0-.63,3.32,3.32,0,0,0,0,.63Z" transform="translate(-90.46 -70.99)"/><path class="cls-5" d="M238.62,409.71v1a3.33,3.33,0,0,1,0,.63,3.31,3.31,0,0,0,0-.63v-1a2.66,2.66,0,0,1,0-.63,2.66,2.66,0,0,0,0,.63Z" transform="translate(-90.46 -70.99)"/><path class="cls-6" d="M237.72,414.84a2,2,0,0,1-.64,2.19" transform="translate(-90.46 -70.99)"/><path class="cls-6" d="M237.74,411.89a2,2,0,0,0-.7,1.62" transform="translate(-90.46 -70.99)"/><path class="cls-6" d="M242.28,412.58a1.07,1.07,0,0,0,.54,1.22" transform="translate(-90.46 -70.99)"/><path class="cls-6" d="M247.88,412.76v1.5" transform="translate(-90.46 -70.99)"/><path class="cls-6" d="M250.5,412a2.14,2.14,0,0,0,.82,1.44" transform="translate(-90.46 -70.99)"/><path class="cls-6" d="M251.34,410a2.3,2.3,0,0,0,.49,1.49" transform="translate(-90.46 -70.99)"/><path class="cls-6" d="M250.7,415.66a3.26,3.26,0,0,1,.85,1.78" transform="translate(-90.46 -70.99)"/><path class="cls-6" d="M249.84,420.82a2,2,0,0,0,.49,1.12" transform="translate(-90.46 -70.99)"/><path class="cls-6" d="M246.78,417.08a1.33,1.33,0,0,0,.24,1.23" transform="translate(-90.46 -70.99)"/><path class="cls-6" d="M243.37,416.57a6.74,6.74,0,0,0-1.1.88" transform="translate(-90.46 -70.99)"/><path class="cls-6" d="M240.68,421.11l-.48.64" transform="translate(-90.46 -70.99)"/><path class="cls-6" d="M244.79,420.82v.94" transform="translate(-90.46 -70.99)"/><path class="cls-6" d="M238.68,423.52a1.37,1.37,0,0,0-.25,1.14" transform="translate(-90.46 -70.99)"/><path class="cls-6" d="M239.55,426.91l-.85,1.31" transform="translate(-90.46 -70.99)"/><path class="cls-6" d="M246.3,425.69a2.87,2.87,0,0,0,.91,1.33" transform="translate(-90.46 -70.99)"/><path class="cls-6" d="M249.75,425.79a1.92,1.92,0,0,0,1,1.71" transform="translate(-90.46 -70.99)"/><path class="cls-6" d="M250,432a1.7,1.7,0,0,0,.39,1.12" transform="translate(-90.46 -70.99)"/><path class="cls-6" d="M244.42,430.28v1" transform="translate(-90.46 -70.99)"/><path class="cls-6" d="M242.83,430.1a1.06,1.06,0,0,0-.76.46" transform="translate(-90.46 -70.99)"/><path class="cls-6" d="M239.18,431.61l-.85.46" transform="translate(-90.46 -70.99)"/><path class="cls-6" d="M239.79,433.57a2.33,2.33,0,0,1-.6,2.26" transform="translate(-90.46 -70.99)"/><path class="cls-6" d="M250.67,435.67a2,2,0,0,0,1.05.27" transform="translate(-90.46 -70.99)"/><polygon class="cls-7" points="136.85 336.55 204.18 336.55 222.75 271.16 118.27 271.16 136.85 336.55"/><line class="cls-8" x1="169.96" y1="283.69" x2="169.96" y2="336.55"/><path class="cls-9" d="M218.78,354l14.47,53.16h-6.31l-17-61S217,352.69,218.78,354Z" transform="translate(-90.46 -70.99)"/><path class="cls-9" d="M290,379.87l4.54,3.08,8.55-5.21L306,376l-1.51-3.24S295,380.34,290,379.87l-2.22,15.94s9.17-.17,11.52-4.74l3.64-12.8" transform="translate(-90.46 -70.99)"/><path class="cls-10" d="M290,379.87l4.57,3h-.07c3.8-2.39,7.62-4.73,11.45-7.07l-.07.2-1.52-3.24.27.07a59.79,59.79,0,0,1-6.83,4.63,27.78,27.78,0,0,1-3.72,1.81,9.49,9.49,0,0,1-4.1.82l.26-.21L288,395.83l-.19-.21a24.23,24.23,0,0,0,6.32-1.05,11.51,11.51,0,0,0,2.9-1.32,6.24,6.24,0,0,0,2.18-2.24v0c1.22-4.27,2.52-8.52,3.77-12.77-1.17,4.28-2.3,8.57-3.5,12.84h0v0a6.78,6.78,0,0,1-2.27,2.37,12.47,12.47,0,0,1-3,1.38,20.32,20.32,0,0,1-3.17.76,25,25,0,0,1-3.25.35h-.22l0-.23,2.17-15.94,0-.23.23,0a9,9,0,0,0,3.9-.76,27.55,27.55,0,0,0,3.68-1.76,55.22,55.22,0,0,0,6.81-4.54l.18-.13.09.2,1.49,3.24.06.14-.12.07c-3.84,2.32-7.67,4.64-11.54,6.92l0,0,0,0Z" transform="translate(-90.46 -70.99)"/><path class="cls-9" d="M232.09,379.87,227.55,383,219,377.74,216.06,376l1.51-3.24s9.57,7.63,14.52,7.16l2.22,15.94s-9.17-.17-11.53-4.74l-3.64-12.8" transform="translate(-90.46 -70.99)"/><path class="cls-10" d="M232.09,379.87l-4.5,3.14,0,0,0,0c-3.87-2.28-7.7-4.6-11.55-6.92l-.12-.07.06-.14,1.5-3.24.09-.2.17.13a56.1,56.1,0,0,0,6.82,4.54,26.86,26.86,0,0,0,3.67,1.76,9.08,9.08,0,0,0,3.9.76l.24,0,0,.23,2.16,15.94,0,.23h-.22a25.07,25.07,0,0,1-3.24-.35,20,20,0,0,1-3.17-.76,12.36,12.36,0,0,1-3-1.38,6.84,6.84,0,0,1-2.26-2.37v0h0c-1.21-4.27-2.34-8.56-3.51-12.84,1.26,4.25,2.55,8.5,3.77,12.77v0a6.35,6.35,0,0,0,2.19,2.24,11.2,11.2,0,0,0,2.9,1.32,24.16,24.16,0,0,0,6.32,1.05l-.19.21-2.27-15.93.26.21a9.56,9.56,0,0,1-4.11-.82,28.39,28.39,0,0,1-3.72-1.81,58.8,58.8,0,0,1-6.82-4.63l.26-.07L216.2,376l-.06-.2c3.82,2.34,7.65,4.68,11.44,7.07h-.07Z" transform="translate(-90.46 -70.99)"/><path class="cls-9" d="M261,369.14a63.19,63.19,0,0,0,7.93-.5L268,407.53h-7Z" transform="translate(-90.46 -70.99)"/><path class="cls-11" d="M323.39,159.22s174.66,19.42,76.92,177.92l-26-10.62" transform="translate(-90.46 -70.99)"/><path class="cls-12" d="M197.09,159.22S22.44,178.64,120.18,337.14l26-10.62" transform="translate(-90.46 -70.99)"/><ellipse class="cls-13" cx="170.4" cy="196.11" rx="130.16" ry="123.25"/><path class="cls-14" d="M188.45,350.53" transform="translate(-90.46 -70.99)"/><path class="cls-15" d="M124.18,335.73s8.06,11.31,30.75,7.6l2.1-1,.45-.36s-10.74-14-11.17-16.33" transform="translate(-90.46 -70.99)"/><path class="cls-15" d="M397.93,336.94s-8.06,11.31-30.75,7.6l-2.11-1-.44-.37s10.73-14,11.17-16.32" transform="translate(-90.46 -70.99)"/><polyline class="cls-16" points="171.16 317.92 171.16 108.84 189.93 122.26 225.72 95.12"/><path class="cls-17" d="M173.55,224.45s-13.91,23.31-8,33.41l15.82,7.38,19.29-5.05,8.86-33.41" transform="translate(-90.46 -70.99)"/><polyline class="cls-16" points="168.5 317.92 168.5 108.84 149.74 122.26 113.95 95.12"/><path class="cls-18" d="M197.3,190.31l.1-.21a3.46,3.46,0,0,1,1.07-1.23,5.46,5.46,0,0,1,3.3-1,5.7,5.7,0,0,1,2,.37c.05,0,.06,0,.09,0l2.81-3.2a1.58,1.58,0,0,1,1.33-.5l.18,0,1.55.27h.05l-.22.68-.08,0-1.45-.25a.58.58,0,0,0-.6.17c-.27.32-.55.64-.83,1l0,0h.07l7.49,1.33a.09.09,0,0,0,.1,0l.56-.52,0-.05h-.07l-1.27-.22a.43.43,0,0,1-.36-.29.35.35,0,0,1,.24-.36.53.53,0,0,1,.35,0l3.4.6h.06l-.22.68h-.06l-1-.18a.09.09,0,0,0-.09,0l-.91.85s0,0,0,.05l.6,2.14a0,0,0,0,1,0,0l.45,0a6.29,6.29,0,0,1,1.56.19,4.5,4.5,0,0,1,2.51,1.57,2.64,2.64,0,0,1,.58,1.83,3.42,3.42,0,0,1-2.36,2.85,5.64,5.64,0,0,1-2.6.43l-.42,0h-.06l-.5-.09h-.06l-.71-.22a4.08,4.08,0,0,1-2.07-1.59,2.62,2.62,0,0,1-.44-1.78l0-.2h-.07l-1.88-.33a.62.62,0,0,1-.39-.23l-.56-.8-1.5-2.11L205.7,188l-.25-.34-.83,1h0l.05,0a3.07,3.07,0,0,1,1.64,3,2.64,2.64,0,0,1-.45,1.17,4.49,4.49,0,0,1-2.71,1.74,6,6,0,0,1-1.94.14l-.3,0-.52-.09-.05,0c-.22-.07-.45-.12-.66-.2a3.92,3.92,0,0,1-2.39-2.1,2.57,2.57,0,0,1-.16-1.37,2.23,2.23,0,0,1,0-.23Zm6.79-1.08,0,0c-.47.53-.94,1.06-1.4,1.6l-.51.57a.56.56,0,0,1-.62.12.3.3,0,0,1-.14-.51l1.9-2.16,0,0a4.4,4.4,0,0,0-4.72,1.06c-1,1.27-.51,2.9,1.16,3.7a4.49,4.49,0,0,0,5-.77A2.26,2.26,0,0,0,204.09,189.23Zm8.26,4.28a2.6,2.6,0,0,0,1.9,2.74,4.6,4.6,0,0,0,4.46-.59,2.21,2.21,0,0,0,.32-3.33,4.18,4.18,0,0,0-3.32-1.2c0,.16.09.33.14.49.2.7.4,1.39.59,2.09a.22.22,0,0,1,0,.22.51.51,0,0,1-.56.2l-3.43-.61ZM206,187l3.55,5,4-3.67Zm8.56,3.55-.48-1.65-3.78,3.51,1.3.23A4.32,4.32,0,0,1,214.6,190.56Zm-2,2.26,2.8.5-.59-2.06A3.43,3.43,0,0,0,212.58,192.82Z" transform="translate(-90.46 -70.99)"/><path class="cls-18" d="M204.92,214.57l0-.23a2.88,2.88,0,0,1,.65-1.38,4.76,4.76,0,0,1,2.9-1.55,6.05,6.05,0,0,1,2.08,0s.07,0,.08,0l1.74-3.59a1.38,1.38,0,0,1,1.14-.72h1.82v.7h-1.57a.51.51,0,0,0-.53.28l-.51,1.07a.08.08,0,0,0,0,.05h7.76s.07,0,.09,0l.39-.61,0-.05h-1.38a.49.49,0,0,1-.44-.22.3.3,0,0,1,.12-.39.64.64,0,0,1,.34-.09h3.55v.7h-1.1c-.05,0-.07,0-.08,0l-.62,1s0,0,0,.06c.41.66.83,1.32,1.25,2l0,0,.43-.09a5.88,5.88,0,0,1,1.57-.09,5.25,5.25,0,0,1,2.93,1.1,3.05,3.05,0,0,1,1.14,1.68,2.9,2.9,0,0,1-1.41,3.17,5.06,5.06,0,0,1-2.39.88l-.42,0h-.64c-.25,0-.51,0-.76-.09a4.94,4.94,0,0,1-2.51-1.18,3.09,3.09,0,0,1-1-1.66l0-.2h-2a.59.59,0,0,1-.44-.14l-.8-.68-2.12-1.8-1.85-1.57-.34-.29-.52,1.07h0l.06,0a3.63,3.63,0,0,1,2.54,2.64,2.37,2.37,0,0,1-.08,1.21A3.63,3.63,0,0,1,212,217.7a5.43,5.43,0,0,1-1.85.48l-.3,0h-.58c-.24,0-.48,0-.71-.08a4.68,4.68,0,0,1-3-1.62,2.87,2.87,0,0,1-.59-1.31l0-.23Zm6.26-2.23,0,0c-.28.6-.57,1.2-.86,1.79-.1.22-.2.43-.31.65a.51.51,0,0,1-.57.22c-.26-.06-.39-.26-.29-.47l1.17-2.43s0,0,0-.05c-1.72-.28-3.65.41-4.27,1.85s.42,2.9,2.29,3.39,3.93-.22,4.63-1.61S212.78,212.93,211.18,212.34Zm9.37,2.73a3.11,3.11,0,0,0,2.71,2.34,4.21,4.21,0,0,0,4.15-1.34,2.26,2.26,0,0,0-.72-3.3,4.6,4.6,0,0,0-3.61-.59l.29.45,1.23,1.93a.29.29,0,0,1,.05.22.47.47,0,0,1-.49.29h-3.61Zm-8.16-5.22,5,4.25,2.71-4.25Zm9.43,2-1-1.51-2.59,4.06h1.34A3.58,3.58,0,0,1,221.82,211.81Zm-1.25,2.55h2.87l-1.21-1.9A2.83,2.83,0,0,0,220.57,214.36Z" transform="translate(-90.46 -70.99)"/><path class="cls-18" d="M218.69,238.87a1.85,1.85,0,0,0,0-.23,2.79,2.79,0,0,1,.65-1.38,4.73,4.73,0,0,1,2.9-1.55,6.05,6.05,0,0,1,2.08,0s.07,0,.08,0l1.73-3.59a1.41,1.41,0,0,1,1.15-.72l.17,0h1.64v.7h-1.57a.49.49,0,0,0-.52.28c-.17.35-.34.71-.52,1.07l0,0h7.77s.07,0,.09,0l.39-.6,0-.05H233.4a.49.49,0,0,1-.44-.22.3.3,0,0,1,.12-.39.6.6,0,0,1,.33-.09H237v.7h-1.11a.08.08,0,0,0-.08,0l-.62,1a.06.06,0,0,0,0,.06l1.26,2s0,0,0,0l.42-.09a6,6,0,0,1,1.58-.09,5.25,5.25,0,0,1,2.93,1.1,3.05,3.05,0,0,1,1.13,1.68,2.89,2.89,0,0,1-1.4,3.17,5.09,5.09,0,0,1-2.39.87l-.42,0h-.64c-.25,0-.51,0-.76-.09a4.9,4.9,0,0,1-2.51-1.18,3,3,0,0,1-1-1.66l0-.2h-2a.63.63,0,0,1-.45-.15l-.8-.67-2.11-1.8-1.85-1.57-.35-.29-.51,1.06h0l.06,0a3.6,3.6,0,0,1,2.53,2.64,2.37,2.37,0,0,1-.07,1.21,3.67,3.67,0,0,1-2.1,2.16,5.32,5.32,0,0,1-1.84.48l-.3,0H223c-.24,0-.48,0-.71-.08a4.65,4.65,0,0,1-3-1.63,2.69,2.69,0,0,1-.59-1.3,1.85,1.85,0,0,0,0-.23Zm6.27-2.23,0,.05-.86,1.79c-.1.22-.21.43-.31.65a.51.51,0,0,1-.57.22c-.27-.06-.39-.26-.29-.47.39-.81.78-1.62,1.16-2.43l0,0c-1.72-.28-3.66.41-4.27,1.85s.42,2.9,2.29,3.39,3.93-.22,4.63-1.61S226.56,237.23,225,236.64Zm9.37,2.73a3.11,3.11,0,0,0,2.7,2.34,4.25,4.25,0,0,0,4.16-1.34,2.26,2.26,0,0,0-.73-3.3,4.53,4.53,0,0,0-3.6-.59l.29.45,1.23,1.93a.29.29,0,0,1,0,.22c0,.18-.23.29-.48.29h-3.61Zm-8.16-5.23,5,4.26,2.7-4.26Zm9.43,2-1-1.51L232,238.66h1.33A3.61,3.61,0,0,1,235.6,236.11Zm-1.26,2.55h2.88l-1.21-1.9A2.85,2.85,0,0,0,234.34,238.66Z" transform="translate(-90.46 -70.99)"/><path class="cls-18" d="M223.84,269l0-.22a2.84,2.84,0,0,1,.65-1.38,4.76,4.76,0,0,1,2.9-1.55,5.82,5.82,0,0,1,2.08,0c.05,0,.07,0,.08,0l1.74-3.6a1.38,1.38,0,0,1,1.14-.72h1.82v.7h-1.57a.51.51,0,0,0-.53.27l-.51,1.07,0,.05h7.77c.05,0,.07,0,.09,0l.39-.6,0-.05h-1.38a.49.49,0,0,1-.44-.22.3.3,0,0,1,.12-.39.55.55,0,0,1,.33-.09h3.56v.7H241s-.07,0-.08,0c-.21.33-.42.65-.62,1a.07.07,0,0,0,0,.06l1.26,2s0,0,0,0,.28-.07.43-.09a5.88,5.88,0,0,1,1.57-.09,5.24,5.24,0,0,1,2.93,1.09,3,3,0,0,1,1.13,1.68,2.89,2.89,0,0,1-1.4,3.18,5.09,5.09,0,0,1-2.39.87l-.42,0h-.64c-.25,0-.51-.05-.76-.09a4.87,4.87,0,0,1-2.51-1.19,3,3,0,0,1-1-1.66l0-.19h-2a.63.63,0,0,1-.44-.15l-.8-.68-2.12-1.79-1.85-1.58-.35-.29-.51,1.07h0l.06,0a3.63,3.63,0,0,1,2.53,2.64A2.3,2.3,0,0,1,233,270a3.64,3.64,0,0,1-2.1,2.16,5.55,5.55,0,0,1-1.84.48l-.3,0h-.58c-.24,0-.48,0-.71-.08a4.69,4.69,0,0,1-3-1.63,2.84,2.84,0,0,1-.59-1.3l0-.23Zm6.26-2.22,0,0c-.28.6-.57,1.2-.86,1.8-.1.22-.21.43-.31.64a.52.52,0,0,1-.57.23c-.27-.06-.39-.26-.29-.47l1.17-2.43a.08.08,0,0,1,0-.05c-1.72-.29-3.65.41-4.27,1.84s.42,2.91,2.29,3.4,3.93-.22,4.63-1.61S231.7,267.4,230.1,266.81Zm9.37,2.73a3.09,3.09,0,0,0,2.7,2.33,4.24,4.24,0,0,0,4.16-1.33,2.26,2.26,0,0,0-.72-3.3,4.56,4.56,0,0,0-3.61-.59c.1.15.19.3.29.44l1.23,1.94a.28.28,0,0,1,0,.21.46.46,0,0,1-.49.3h-3.61Zm-8.16-5.23,5,4.25,2.71-4.25Zm9.43,2-1-1.52-2.59,4.07h1.33A3.59,3.59,0,0,1,240.74,266.28Zm-1.25,2.55h2.87l-1.21-1.9A2.81,2.81,0,0,0,239.49,268.83Z" transform="translate(-90.46 -70.99)"/><path class="cls-18" d="M223.84,300.64l0-.22a2.87,2.87,0,0,1,.65-1.39,4.76,4.76,0,0,1,2.9-1.55,6.05,6.05,0,0,1,2.08,0c.05,0,.07,0,.08,0l1.74-3.6a1.38,1.38,0,0,1,1.14-.72h1.82v.69h-1.57a.51.51,0,0,0-.53.28l-.51,1.07,0,.05h7.77c.05,0,.07,0,.09,0l.39-.6,0-.06h-1.38a.49.49,0,0,1-.44-.22.3.3,0,0,1,.12-.39.63.63,0,0,1,.33-.09h3.56v.7H241s-.07,0-.08,0l-.62,1s0,.05,0,.06l1.26,2,0,0,.43-.09a5.49,5.49,0,0,1,1.57-.08,5.17,5.17,0,0,1,2.93,1.09,3,3,0,0,1,1.13,1.68,2.88,2.88,0,0,1-1.4,3.17,5.1,5.1,0,0,1-2.39.88l-.42,0h-.64c-.25,0-.51,0-.76-.09a4.94,4.94,0,0,1-2.51-1.18,3,3,0,0,1-1-1.66l0-.19h-2a.63.63,0,0,1-.44-.15l-.8-.68-2.12-1.8L231.29,297l-.35-.29-.51,1.07h0l.06,0A3.62,3.62,0,0,1,233,300.4a2.26,2.26,0,0,1-.07,1.21,3.63,3.63,0,0,1-2.1,2.17,5.31,5.31,0,0,1-1.84.47l-.3,0h-.58a5.51,5.51,0,0,1-.71-.08,4.64,4.64,0,0,1-3-1.62,2.87,2.87,0,0,1-.59-1.31l0-.23Zm6.26-2.23,0,0c-.28.6-.57,1.2-.86,1.8-.1.21-.21.42-.31.64a.51.51,0,0,1-.57.22c-.27-.05-.39-.26-.29-.47l1.17-2.43s0,0,0-.05c-1.72-.28-3.65.41-4.27,1.85s.42,2.9,2.29,3.4,3.93-.23,4.63-1.62S231.7,299,230.1,298.41Zm9.37,2.74a3.11,3.11,0,0,0,2.7,2.33,4.22,4.22,0,0,0,4.16-1.34,2.26,2.26,0,0,0-.72-3.3,4.6,4.6,0,0,0-3.61-.59l.29.45,1.23,1.93a.29.29,0,0,1,0,.22.47.47,0,0,1-.49.29h-3.61Zm-8.16-5.23,5,4.25,2.71-4.25Zm9.43,2-1-1.51-2.59,4.06h1.33A3.61,3.61,0,0,1,240.74,297.88Zm-1.25,2.55h2.87l-1.21-1.9A2.81,2.81,0,0,0,239.49,300.43Z" transform="translate(-90.46 -70.99)"/><path class="cls-18" d="M223.84,323.78l0-.22a2.91,2.91,0,0,1,.65-1.39,4.8,4.8,0,0,1,2.9-1.54,5.82,5.82,0,0,1,2.08,0c.05,0,.07,0,.08,0l1.74-3.6a1.38,1.38,0,0,1,1.14-.72h1.82v.7h-1.57a.51.51,0,0,0-.53.27l-.51,1.07,0,.05h7.77c.05,0,.07,0,.09,0l.39-.6,0-.06h-1.38a.47.47,0,0,1-.44-.22.29.29,0,0,1,.12-.38.56.56,0,0,1,.33-.1h3.56v.7H241s-.07,0-.08,0c-.21.33-.42.65-.62,1a.06.06,0,0,0,0,.06l1.26,2s0,0,0,0l.43-.1a6.32,6.32,0,0,1,1.57-.08,5.24,5.24,0,0,1,2.93,1.09,3,3,0,0,1,1.13,1.68,2.89,2.89,0,0,1-1.4,3.18,5.09,5.09,0,0,1-2.39.87l-.42,0h-.64c-.25,0-.51-.05-.76-.09a4.87,4.87,0,0,1-2.51-1.19,3,3,0,0,1-1-1.66l0-.19h-2a.63.63,0,0,1-.44-.15l-.8-.68-2.12-1.8-1.85-1.57-.35-.29-.51,1.07h0l.06,0a3.62,3.62,0,0,1,2.53,2.64,2.3,2.3,0,0,1-.07,1.22,3.64,3.64,0,0,1-2.1,2.16,5.55,5.55,0,0,1-1.84.48l-.3,0h-.58c-.24,0-.48,0-.71-.08a4.69,4.69,0,0,1-3-1.63,2.84,2.84,0,0,1-.59-1.3l0-.24Zm6.26-2.23,0,.05c-.28.6-.57,1.2-.86,1.8l-.31.64a.52.52,0,0,1-.57.23c-.27-.06-.39-.26-.29-.47l1.17-2.44,0-.05c-1.72-.28-3.65.42-4.27,1.85s.42,2.91,2.29,3.4,3.93-.22,4.63-1.62S231.7,322.15,230.1,321.55Zm9.37,2.74a3.1,3.1,0,0,0,2.7,2.33,4.22,4.22,0,0,0,4.16-1.34,2.26,2.26,0,0,0-.72-3.3,4.64,4.64,0,0,0-3.61-.59l.29.45,1.23,1.94a.28.28,0,0,1,0,.21.47.47,0,0,1-.49.3h-3.61Zm-8.16-5.23,5,4.25,2.71-4.25Zm9.43,2-1-1.52-2.59,4.07h1.33A3.59,3.59,0,0,1,240.74,321Zm-1.25,2.55h2.87l-1.21-1.91A2.8,2.8,0,0,0,239.49,323.58Z" transform="translate(-90.46 -70.99)"/><path class="cls-18" d="M223.22,354.49a1.7,1.7,0,0,1,0-.22,2.75,2.75,0,0,1,.65-1.38,4.7,4.7,0,0,1,2.9-1.55,5.76,5.76,0,0,1,2.07,0c.06,0,.07,0,.09,0,.57-1.2,1.15-2.4,1.73-3.6a1.39,1.39,0,0,1,1.14-.72h1.82v.7h-1.57a.49.49,0,0,0-.52.27c-.18.36-.35.72-.52,1.07l0,.05h7.77a.1.1,0,0,0,.09,0c.12-.2.25-.4.38-.6l0-.05h-1.37a.49.49,0,0,1-.44-.22.3.3,0,0,1,.12-.39.51.51,0,0,1,.33-.09h3.56v.7h-1.11a.1.1,0,0,0-.08,0l-.62,1a.06.06,0,0,0,0,.06l1.25,2,0,0,.43-.09a6,6,0,0,1,1.58-.09,5.3,5.3,0,0,1,2.93,1.09A3.09,3.09,0,0,1,247,354a2.91,2.91,0,0,1-1.4,3.18,5.09,5.09,0,0,1-2.4.87l-.42,0h-.63c-.26,0-.51-.05-.76-.09a4.87,4.87,0,0,1-2.52-1.19,3,3,0,0,1-1-1.66,1.06,1.06,0,0,1,0-.19h-2a.68.68,0,0,1-.45-.15l-.8-.68-2.11-1.79-1.86-1.58-.34-.29-.52,1.07h0l0,0a3.66,3.66,0,0,1,2.54,2.64,2.41,2.41,0,0,1-.08,1.22,3.65,3.65,0,0,1-2.09,2.16,5.55,5.55,0,0,1-1.84.48l-.3,0h-.59c-.23,0-.47,0-.7-.08a4.74,4.74,0,0,1-3-1.63,2.72,2.72,0,0,1-.58-1.3,2.23,2.23,0,0,1,0-.23Zm6.26-2.22s0,0,0,0c-.29.6-.58,1.2-.86,1.8l-.31.64a.52.52,0,0,1-.57.23c-.27-.06-.4-.26-.3-.47l1.17-2.43s0,0,0-.05c-1.72-.29-3.65.41-4.26,1.84s.41,2.91,2.28,3.4,3.93-.22,4.64-1.61S231.08,352.86,229.48,352.27Zm9.38,2.73a3.08,3.08,0,0,0,2.7,2.33,4.25,4.25,0,0,0,4.16-1.33,2.26,2.26,0,0,0-.73-3.3,4.53,4.53,0,0,0-3.6-.59l.28.44,1.23,1.94a.24.24,0,0,1,0,.21c0,.19-.23.3-.49.3h-3.6Zm-8.17-5.23,5,4.26,2.7-4.26Zm9.43,2-1-1.52-2.58,4.07h1.33A3.58,3.58,0,0,1,240.12,351.74Zm-1.25,2.55h2.87l-1.21-1.9A2.86,2.86,0,0,0,238.87,354.29Z" transform="translate(-90.46 -70.99)"/><path class="cls-18" d="M206.91,376.57a2.12,2.12,0,0,0-.11-.21,2.58,2.58,0,0,1-.27-1.46,3.21,3.21,0,0,1,1.62-2.36,5.1,5.1,0,0,1,1.85-.71c.05,0,.06,0,.05-.06-.22-1.26-.45-2.52-.68-3.79a1,1,0,0,1,.57-1l.15-.07,1.42-.55h0l.43.62-.07,0-1.32.51c-.25.09-.34.21-.3.42.07.38.13.75.2,1.13a.43.43,0,0,1,0,.05l.06,0,6.84-2.63s.06,0,.06-.07l0-.66a.13.13,0,0,0,0-.06l-.06,0-1.16.45a.56.56,0,0,1-.52-.05.3.3,0,0,1-.14-.38.44.44,0,0,1,.24-.2l3.1-1.19.06,0,.43.63-.06,0-.92.35s0,0,0,.07c0,.35,0,.71,0,1.07a.08.08,0,0,0,0,.06l2.33,1.32,0,0,.32-.23a4.9,4.9,0,0,1,1.35-.62,6.09,6.09,0,0,1,3.28,0,4.54,4.54,0,0,1,2,1.11,2.71,2.71,0,0,1,.71,3.3,3.54,3.54,0,0,1-1.59,1.59l-.35.18,0,0-.46.18H226c-.24.06-.48.14-.73.19a5.92,5.92,0,0,1-3-.2,4.49,4.49,0,0,1-1.89-1.14c-.06,0-.1-.1-.16-.16l-.06,0-1.72.66a.75.75,0,0,1-.49,0l-1.12-.33-3-.87-2.61-.76-.49-.14.2,1.12h.08a5.16,5.16,0,0,1,3.88,1.47,2.83,2.83,0,0,1,.68,1.11,2.69,2.69,0,0,1-.52,2.64,4.07,4.07,0,0,1-1.34,1.05l-.25.13-.47.18H213c-.22.06-.44.13-.67.17a6,6,0,0,1-3.65-.42,4.09,4.09,0,0,1-1.32-1l-.18-.19Zm4.19-4.13a.13.13,0,0,0,0,.06c.11.63.22,1.26.34,1.89l.12.67c0,.19-.12.36-.37.4a.46.46,0,0,1-.55-.32c-.15-.85-.31-1.71-.46-2.56,0,0,0,0,0-.05-1.7.34-3,1.61-2.65,3.1s2.16,2.44,4.12,2.24,3.36-1.55,3.12-3S212.89,372.42,211.1,372.44Zm10-.78a4.27,4.27,0,0,0,3.84,1.15c1.66-.28,2.83-1.35,2.87-2.61a3,3,0,0,0-2.68-2.68,4.42,4.42,0,0,0-3.57.71l.53.3,2.29,1.29a.33.33,0,0,1,.17.18c.08.18,0,.34-.24.43l-3.14,1.2Zm-10.48-1.85,7.08,2.07-.22-4.71Zm9.59-1.48-1.79-1,.21,4.5,1.18-.46A2.74,2.74,0,0,1,220.22,368.33Zm.46,2.7,2.56-1L221,368.77A2.15,2.15,0,0,0,220.68,371Z" transform="translate(-90.46 -70.99)"/><path class="cls-18" d="M176.35,354.94a1.87,1.87,0,0,1-.07-.22,2.46,2.46,0,0,1,0-1.47,3.59,3.59,0,0,1,2.07-2.16,5.55,5.55,0,0,1,2-.5c.06,0,.07,0,.07,0,0-1.27,0-2.55.07-3.82a1.08,1.08,0,0,1,.77-1l.16-.05,1.51-.39H183l.3.66-.07,0-1.42.36c-.26.07-.37.18-.37.39l0,1.13s0,0,0,.05h.06l7.29-1.86s.06,0,.06-.06c0-.22.07-.44.11-.66v-.06l-.07,0-1.23.31a.56.56,0,0,1-.51-.1.29.29,0,0,1-.06-.4.56.56,0,0,1,.28-.17l3.3-.84h.06l.3.66h-.06l-1,.26s-.06,0-.06.05c-.05.36-.11.72-.16,1.07,0,0,0,.05,0,.06l2,1.56,0,0,.36-.19a5.34,5.34,0,0,1,1.45-.46,6,6,0,0,1,3.25.33,4,4,0,0,1,1.8,1.32,2.62,2.62,0,0,1,.06,3.34,4,4,0,0,1-1.89,1.4l-.38.14-.05,0-.49.12h-.06c-.25,0-.5.08-.76.1a5.83,5.83,0,0,1-2.89-.51,4.11,4.11,0,0,1-1.65-1.34l-.11-.17h-.08l-1.82.47a.75.75,0,0,1-.49,0l-1.05-.45-2.78-1.19-2.44-1-.45-.19,0,1.13h.08a4.72,4.72,0,0,1,3.54,1.89,2.55,2.55,0,0,1,.46,1.17,2.86,2.86,0,0,1-1,2.55,4.67,4.67,0,0,1-1.54.9l-.27.09-.5.13H182c-.24,0-.47.08-.71.09a5.66,5.66,0,0,1-3.52-.82,3.65,3.65,0,0,1-1.12-1.09,2.39,2.39,0,0,1-.13-.21Zm5-3.62v.05c0,.64,0,1.27,0,1.91,0,.23,0,.45,0,.68s-.19.34-.44.35-.49-.15-.48-.37c0-.86,0-1.72,0-2.59v-.05c-1.75.15-3.27,1.27-3.23,2.78s1.66,2.65,3.64,2.66,3.62-1.16,3.68-2.64S183.07,351.49,181.3,351.32Zm10.06.32a3.93,3.93,0,0,0,3.57,1.56,3.43,3.43,0,0,0,3.35-2.27c.28-1.23-.61-2.45-2.12-2.95a4.66,4.66,0,0,0-3.67.31l.47.36,2,1.53a.31.31,0,0,1,.14.19c0,.19-.09.34-.33.4l-3.33.85Zm-10-3,6.59,2.81.71-4.68Zm9.78-.42-1.58-1.2-.68,4.47,1.26-.32A2.86,2.86,0,0,1,191.14,348.25Zm-.08,2.72,2.72-.7-2-1.5A2.23,2.23,0,0,0,191.06,351Z" transform="translate(-90.46 -70.99)"/><path class="cls-18" d="M171.82,325.23a1.87,1.87,0,0,1-.07-.22,2.46,2.46,0,0,1,0-1.47,3.6,3.6,0,0,1,2.06-2.16,5.35,5.35,0,0,1,2-.5s.06,0,.06-.05c0-1.28,0-2.55.07-3.82a1.06,1.06,0,0,1,.77-1,.76.76,0,0,1,.16-.06l1.51-.39h0l.3.66-.07,0-1.41.36c-.26.07-.37.18-.38.39,0,.38,0,.76,0,1.14v0l.07,0,7.28-1.86a.09.09,0,0,0,.07-.06c0-.22.07-.44.1-.66a.13.13,0,0,1,0-.06h-.08l-1.23.32a.56.56,0,0,1-.51-.1.29.29,0,0,1,0-.4.53.53,0,0,1,.27-.17l3.3-.84.06,0,.31.67h-.06l-1,.25a.07.07,0,0,0-.06.06c0,.36-.1.71-.16,1.07a.09.09,0,0,0,0,.06l2,1.56,0,0,.37-.19a5,5,0,0,1,1.45-.46,5.87,5.87,0,0,1,3.25.32,4,4,0,0,1,1.8,1.31,2.65,2.65,0,0,1,.07,3.35,4,4,0,0,1-1.89,1.4l-.38.14-.05,0-.49.12h-.06c-.25,0-.5.08-.76.1a5.72,5.72,0,0,1-2.89-.51,4,4,0,0,1-1.65-1.33l-.12-.18-.07,0-1.83.47a.78.78,0,0,1-.48,0l-1.05-.45L179.69,321l-2.44-1-.45-.19,0,1.14h.08a4.7,4.7,0,0,1,3.55,1.88,2.66,2.66,0,0,1,.46,1.17,2.86,2.86,0,0,1-1,2.55,4.46,4.46,0,0,1-1.53.9l-.27.1-.5.13h-.06c-.23,0-.47.08-.7.1a5.63,5.63,0,0,1-3.52-.82,3.69,3.69,0,0,1-1.13-1.09l-.13-.21Zm5-3.63s0,0,0,.06l0,1.9c0,.23,0,.46,0,.69s-.19.34-.44.35-.49-.15-.48-.38c0-.86,0-1.72,0-2.58v-.05c-1.75.15-3.28,1.27-3.23,2.78s1.66,2.65,3.64,2.66,3.62-1.17,3.68-2.65S178.54,321.78,176.77,321.6Zm10,.32a4,4,0,0,0,3.58,1.55,3.42,3.42,0,0,0,3.34-2.27c.28-1.23-.61-2.45-2.12-2.95a4.65,4.65,0,0,0-3.67.32l.47.35,2,1.53a.39.39,0,0,1,.14.2c0,.18-.1.33-.34.39l-3.33.86Zm-10-3,6.6,2.81.7-4.68Zm9.78-.42-1.58-1.2-.67,4.47,1.26-.32A2.85,2.85,0,0,1,186.6,318.53Zm-.07,2.71,2.71-.69-2-1.51A2.26,2.26,0,0,0,186.53,321.24Z" transform="translate(-90.46 -70.99)"/><path class="cls-18" d="M140.84,308.15l-.06-.22a2.55,2.55,0,0,1,.07-1.47,3.69,3.69,0,0,1,2.14-2.12,5.63,5.63,0,0,1,2-.46c.05,0,.06,0,.07-.05.06-1.28.13-2.55.2-3.82a1.09,1.09,0,0,1,.8-.95l.16-.05,1.52-.36h0l.29.67-.08,0-1.42.33c-.27.06-.38.17-.39.38l-.06,1.14v.05l.06,0,7.35-1.72a.09.09,0,0,0,.07-.06l.12-.66s0,0,0-.06l-.07,0-1.25.29a.57.57,0,0,1-.5-.11.3.3,0,0,1,0-.4.52.52,0,0,1,.28-.16l3.34-.78.06,0,.28.67h-.06l-1,.24s-.05,0-.06,0c-.06.36-.13.71-.19,1.07,0,0,0,0,0,.06l2,1.6,0,0,.37-.19a5.44,5.44,0,0,1,1.47-.43,5.89,5.89,0,0,1,3.23.39,4,4,0,0,1,1.76,1.34,2.65,2.65,0,0,1-.05,3.35,4.15,4.15,0,0,1-1.93,1.36l-.39.13-.05,0-.49.12h-.07c-.25,0-.5.07-.75.08a5.77,5.77,0,0,1-2.88-.56,3.94,3.94,0,0,1-1.6-1.37,1.08,1.08,0,0,1-.11-.18l-.08,0-1.84.43a.66.66,0,0,1-.48,0l-1-.47-2.74-1.23-2.4-1.09-.45-.2-.06,1.13H146a4.66,4.66,0,0,1,3.49,1.95,2.57,2.57,0,0,1,.41,1.17,2.92,2.92,0,0,1-1.12,2.54,4.82,4.82,0,0,1-1.56.87l-.28.09-.5.12h-.06l-.7.09a5.64,5.64,0,0,1-3.5-.89,3.45,3.45,0,0,1-1.08-1.11,1.59,1.59,0,0,1-.13-.22Zm5.07-3.53v.05c0,.64-.07,1.27-.1,1.91l0,.68a.42.42,0,0,1-.46.34.41.41,0,0,1-.47-.38c.05-.86.09-1.72.13-2.58a.09.09,0,0,0,0-.05c-1.76.12-3.32,1.21-3.33,2.71s1.57,2.69,3.55,2.73,3.66-1.09,3.77-2.58S147.68,304.83,145.91,304.62Zm10.05.51a3.89,3.89,0,0,0,3.52,1.62,3.5,3.5,0,0,0,3.42-2.21c.32-1.22-.53-2.46-2-3a4.69,4.69,0,0,0-3.68.25l.45.36,2,1.57a.32.32,0,0,1,.13.2c0,.18-.1.33-.34.39l-3.36.79Zm-9.9-3.16,6.5,2.93.86-4.66Zm9.79-.24-1.54-1.22-.83,4.45,1.28-.3A2.88,2.88,0,0,1,155.85,301.73Zm-.17,2.72,2.74-.65-1.92-1.54A2.28,2.28,0,0,0,155.68,304.45Z" transform="translate(-90.46 -70.99)"/><path class="cls-18" d="M176.26,291.65l0-.23A2.81,2.81,0,0,1,177,290a4.7,4.7,0,0,1,2.9-1.55,6,6,0,0,1,2.07,0c.05,0,.07,0,.09,0,.57-1.2,1.15-2.4,1.73-3.59a1.38,1.38,0,0,1,1.14-.72l.17,0h1.65v.7h-1.57a.51.51,0,0,0-.53.28l-.51,1.07,0,0h7.77a.1.1,0,0,0,.09-.05c.12-.2.25-.4.38-.6l0-.05H191a.49.49,0,0,1-.43-.22.3.3,0,0,1,.11-.39.64.64,0,0,1,.34-.09h3.55v.7h-1.1a.08.08,0,0,0-.08,0l-.62,1a.06.06,0,0,0,0,.06c.41.66.83,1.32,1.25,2l0,0,.43-.09a5.9,5.9,0,0,1,1.57-.09,5.25,5.25,0,0,1,2.93,1.1,3,3,0,0,1,1.14,1.68,2.89,2.89,0,0,1-1.4,3.17,5.09,5.09,0,0,1-2.4.87l-.42,0h-.64c-.25,0-.51,0-.75-.09a4.93,4.93,0,0,1-2.52-1.18,3.09,3.09,0,0,1-1-1.66l0-.2h-2a.61.61,0,0,1-.44-.15l-.8-.68-2.12-1.79c-.61-.53-1.23-1-1.85-1.57l-.34-.29-.52,1.06h0l.06,0a3.66,3.66,0,0,1,2.54,2.65,2.38,2.38,0,0,1-.08,1.21,3.65,3.65,0,0,1-2.09,2.16,5.38,5.38,0,0,1-1.84.48l-.31,0h-.58c-.23,0-.47,0-.71-.08a4.67,4.67,0,0,1-3-1.63,2.79,2.79,0,0,1-.59-1.3l0-.23Zm6.26-2.23s0,0,0,.05l-.87,1.79c-.1.22-.2.43-.31.65a.49.49,0,0,1-.56.22c-.27-.06-.4-.26-.3-.47l1.17-2.43,0-.05c-1.72-.28-3.65.41-4.26,1.84s.41,2.91,2.28,3.4,3.93-.22,4.63-1.61S184.12,290,182.52,289.42Zm9.38,2.73a3.07,3.07,0,0,0,2.7,2.33,4.2,4.2,0,0,0,4.15-1.33,2.26,2.26,0,0,0-.72-3.3,4.55,4.55,0,0,0-3.61-.59l.29.45,1.23,1.93a.29.29,0,0,1,.05.22.47.47,0,0,1-.49.29h-3.6Zm-8.17-5.23,5,4.26,2.71-4.26Zm9.43,2-1-1.51-2.59,4.06h1.34A3.6,3.6,0,0,1,193.16,288.89Zm-1.25,2.55h2.87l-1.21-1.9A2.83,2.83,0,0,0,191.91,291.44Z" transform="translate(-90.46 -70.99)"/><path class="cls-18" d="M135.84,270.26c0-.07,0-.15,0-.22a2.75,2.75,0,0,1,.65-1.38,4.73,4.73,0,0,1,2.9-1.55,5.82,5.82,0,0,1,2.08,0c.05,0,.06,0,.08,0l1.73-3.6a1.39,1.39,0,0,1,1.15-.72h1.81v.7h-1.57a.5.5,0,0,0-.52.27c-.17.36-.34.72-.52,1.07,0,0,0,0,0,0h7.77c.05,0,.07,0,.09,0l.39-.6,0-.06h-1.38a.47.47,0,0,1-.44-.22.29.29,0,0,1,.12-.38.54.54,0,0,1,.33-.1h3.56v.7H153a.08.08,0,0,0-.08,0c-.2.33-.41.65-.62,1a.06.06,0,0,0,0,.06l1.26,2,0,0,.42-.1a6.43,6.43,0,0,1,1.58-.08,5.24,5.24,0,0,1,2.93,1.09,3.09,3.09,0,0,1,1.13,1.68,2.91,2.91,0,0,1-1.4,3.18,5.09,5.09,0,0,1-2.39.87l-.42,0h-.64c-.25,0-.51,0-.76-.09a4.83,4.83,0,0,1-2.51-1.19,3,3,0,0,1-1-1.66,1.62,1.62,0,0,0,0-.19h-2a.68.68,0,0,1-.45-.15l-.8-.68-2.11-1.8c-.62-.52-1.24-1-1.85-1.57l-.35-.29-.51,1.07h0l.06,0A3.63,3.63,0,0,1,145,270a2.52,2.52,0,0,1-.07,1.22,3.7,3.7,0,0,1-2.1,2.16,5.55,5.55,0,0,1-1.84.48l-.3,0h-.58c-.24,0-.48,0-.71-.08a4.69,4.69,0,0,1-3-1.63,2.74,2.74,0,0,1-.59-1.3,2,2,0,0,0,0-.24Zm6.27-2.23,0,.05-.86,1.8-.31.64a.52.52,0,0,1-.57.23c-.27-.06-.4-.26-.29-.47.38-.81.77-1.63,1.16-2.44l0,0c-1.72-.29-3.66.41-4.27,1.84s.41,2.91,2.28,3.4,3.94-.22,4.64-1.62S143.71,268.63,142.11,268Zm9.37,2.74a3.1,3.1,0,0,0,2.7,2.33,4.23,4.23,0,0,0,4.16-1.34,2.26,2.26,0,0,0-.73-3.3,4.61,4.61,0,0,0-3.6-.59l.28.45,1.24,1.94a.27.27,0,0,1,0,.21.45.45,0,0,1-.48.3h-3.61Zm-8.17-5.23,5,4.25,2.7-4.25Zm9.44,2-1-1.52-2.58,4.07h1.33A3.57,3.57,0,0,1,152.75,267.51Zm-1.26,2.55h2.88l-1.21-1.91A2.84,2.84,0,0,0,151.49,270.06Z" transform="translate(-90.46 -70.99)"/><path class="cls-18" d="M137.24,233.29c0-.08,0-.15,0-.22a2.82,2.82,0,0,1,.65-1.39,4.75,4.75,0,0,1,2.9-1.55,6,6,0,0,1,2.07,0c.06,0,.07,0,.09,0l1.73-3.6a1.39,1.39,0,0,1,1.15-.72h1.81v.69h-1.57a.48.48,0,0,0-.52.28c-.17.36-.35.71-.52,1.07a.17.17,0,0,1,0,.05h7.77c.05,0,.07,0,.09,0,.13-.2.26-.4.38-.6l0-.06H152a.49.49,0,0,1-.44-.22.3.3,0,0,1,.12-.39.58.58,0,0,1,.33-.09h3.56v.7h-1.11a.08.08,0,0,0-.08,0l-.62,1a.06.06,0,0,0,0,.06c.42.66.84,1.32,1.25,2a0,0,0,0,1,0,0l.43-.09a5.58,5.58,0,0,1,1.58-.08,5.17,5.17,0,0,1,2.93,1.09,3.09,3.09,0,0,1,1.13,1.68,2.91,2.91,0,0,1-1.4,3.18,5.2,5.2,0,0,1-2.4.87l-.42,0h-.63c-.25,0-.51,0-.76-.09a4.86,4.86,0,0,1-2.51-1.18,3,3,0,0,1-1-1.66,1.29,1.29,0,0,0,0-.19h-.07c-.65,0-1.29,0-1.93,0a.68.68,0,0,1-.45-.15l-.8-.68-2.11-1.8-1.85-1.57-.35-.29-.51,1.07h0l.06,0a3.63,3.63,0,0,1,2.53,2.64,2.37,2.37,0,0,1-.08,1.21,3.64,3.64,0,0,1-2.09,2.17,5.31,5.31,0,0,1-1.84.47l-.3,0h-.58a5.51,5.51,0,0,1-.71-.08,4.64,4.64,0,0,1-3-1.62,2.64,2.64,0,0,1-.59-1.31,1.57,1.57,0,0,1,0-.23Zm6.27-2.23,0,.05c-.29.6-.58,1.2-.86,1.8-.11.21-.21.43-.31.64a.51.51,0,0,1-.57.22c-.27-.05-.4-.26-.3-.47l1.17-2.43a.08.08,0,0,0,0-.05c-1.72-.28-3.65.41-4.26,1.85s.41,2.91,2.28,3.4,3.94-.23,4.64-1.62S145.11,231.65,143.51,231.06Zm9.37,2.74a3.1,3.1,0,0,0,2.7,2.33,4.23,4.23,0,0,0,4.16-1.34,2.26,2.26,0,0,0-.73-3.3,4.61,4.61,0,0,0-3.6-.59l.28.45,1.23,1.93a.25.25,0,0,1,.05.22.45.45,0,0,1-.48.3h-3.61Zm-8.17-5.23,5,4.25,2.7-4.25Zm9.43,2-1-1.51-2.58,4.07h1.33A3.59,3.59,0,0,1,154.14,230.53Zm-1.25,2.55h2.88l-1.22-1.9A2.86,2.86,0,0,0,152.89,233.08Z" transform="translate(-90.46 -70.99)"/><path class="cls-18" d="M158.61,198.77a2,2,0,0,0,.1-.21,3.36,3.36,0,0,1,1.06-1.24,5.48,5.48,0,0,1,3.29-1,5.69,5.69,0,0,1,2,.36s.07,0,.09,0l2.78-3.22a1.62,1.62,0,0,1,1.33-.51l.17,0,1.56.27h0l-.21.68h-.07l-1.46-.25a.56.56,0,0,0-.59.18l-.83,1,0,0h.07l7.5,1.3a.12.12,0,0,0,.1,0l.55-.52,0-.05h-.07l-1.27-.22a.42.42,0,0,1-.36-.29.34.34,0,0,1,.23-.36.69.69,0,0,1,.35,0l3.41.59h.06l-.21.68h-.07l-1-.18a.1.1,0,0,0-.09,0l-.9.84a.14.14,0,0,0,0,.06l.63,2.13a0,0,0,0,0,0,0l.44,0a6.17,6.17,0,0,1,1.56.19,4.48,4.48,0,0,1,2.53,1.55,2.65,2.65,0,0,1,.59,1.83,3.38,3.38,0,0,1-2.32,2.86,5.78,5.78,0,0,1-2.6.45l-.42,0h-.06l-.5-.09-.06,0c-.24-.07-.48-.12-.71-.21a4.12,4.12,0,0,1-2.09-1.58,2.61,2.61,0,0,1-.45-1.78c0-.06,0-.13,0-.19h-.07l-1.88-.33a.55.55,0,0,1-.39-.22l-.57-.79-1.52-2.11c-.45-.61-.89-1.23-1.33-1.84-.08-.11-.16-.23-.25-.34l-.82.95h0l.06,0a3.07,3.07,0,0,1,1.67,3,2.64,2.64,0,0,1-.45,1.17,4.36,4.36,0,0,1-2.69,1.76,6,6,0,0,1-1.94.16l-.3,0-.51-.09,0,0a6.55,6.55,0,0,1-.67-.19,3.89,3.89,0,0,1-2.4-2.09,2.37,2.37,0,0,1-.18-1.36l0-.24Zm6.78-1.12,0,0c-.46.53-.92,1.07-1.39,1.6-.16.19-.33.38-.49.58a.56.56,0,0,1-.62.12.3.3,0,0,1-.15-.51c.63-.72,1.25-1.45,1.87-2.17l0,0a4.38,4.38,0,0,0-4.71,1.09c-1,1.27-.48,2.9,1.2,3.69a4.47,4.47,0,0,0,5-.8A2.27,2.27,0,0,0,165.39,197.65Zm8.3,4.24a2.63,2.63,0,0,0,1.93,2.73,4.58,4.58,0,0,0,4.45-.61,2.22,2.22,0,0,0,.3-3.34,4.25,4.25,0,0,0-3.34-1.18c.05.17.1.33.14.49l.62,2.09a.28.28,0,0,1,0,.22.53.53,0,0,1-.56.21l-3.44-.6Zm-6.37-6.46,3.6,5,3.92-3.69Zm8.59,3.49-.49-1.63-3.75,3.52L173,201A4.35,4.35,0,0,1,175.91,198.92Zm-2,2.28,2.8.48-.6-2.06A3.48,3.48,0,0,0,173.92,201.2Z" transform="translate(-90.46 -70.99)"/><path class="cls-18" d="M177.1,176.08l.13-.2a3.61,3.61,0,0,1,1.2-1.16,5.68,5.68,0,0,1,3.41-.78,5.82,5.82,0,0,1,2,.49s.06,0,.09,0l3.17-3a1.68,1.68,0,0,1,1.4-.41l.16,0,1.52.38h0l-.29.66h-.08l-1.41-.36a.62.62,0,0,0-.62.14l-.94.89,0,0h.06l7.31,1.82a.09.09,0,0,0,.1,0l.62-.48,0,0-.07,0-1.23-.31a.38.38,0,0,1-.33-.31.39.39,0,0,1,.28-.34.63.63,0,0,1,.36,0l3.31.83h.06l-.3.67-.06,0-1-.25a.1.1,0,0,0-.09,0l-1,.78a.07.07,0,0,0,0,.06c.12.72.24,1.44.35,2.16,0,0,0,0,0,0l.45,0a5.6,5.6,0,0,1,1.53.29,4.13,4.13,0,0,1,2.31,1.73,2.52,2.52,0,0,1,.36,1.86,3.66,3.66,0,0,1-2.68,2.68,5.85,5.85,0,0,1-2.64.26l-.41-.07h-.06l-.49-.12-.06,0c-.23-.08-.46-.16-.68-.26A3.82,3.82,0,0,1,191,182a2.54,2.54,0,0,1-.22-1.81,1.33,1.33,0,0,1,.05-.19l-.07,0-1.83-.46a.49.49,0,0,1-.36-.24l-.47-.83-1.25-2.21-1.09-1.93-.2-.35-.94.89h0l0,0a2.89,2.89,0,0,1,1.28,3.11,2.71,2.71,0,0,1-.58,1.13,4.82,4.82,0,0,1-2.91,1.56,6.08,6.08,0,0,1-2,0l-.3-.05-.49-.12-.06,0c-.21-.08-.43-.15-.63-.24a3.61,3.61,0,0,1-2.13-2.25,2.55,2.55,0,0,1,0-1.37c0-.08,0-.16.07-.23Zm6.89-.63-.05,0-1.58,1.5-.57.54a.56.56,0,0,1-.63.07.29.29,0,0,1-.08-.51l2.14-2s0,0,0,0a4.49,4.49,0,0,0-4.83.74c-1.17,1.2-.84,2.86.72,3.76a4.57,4.57,0,0,0,5.09-.43A2.24,2.24,0,0,0,184,175.45Zm7.72,4.81a2.45,2.45,0,0,0,1.58,2.85,4.66,4.66,0,0,0,4.51-.29,2.26,2.26,0,0,0,.71-3.3,4,4,0,0,0-3.17-1.41c0,.16.06.33.08.49.12.71.23,1.42.35,2.13a.28.28,0,0,1-.05.21.55.55,0,0,1-.58.17l-3.35-.84Zm-5.52-6.89,2.95,5.22,4.37-3.4Zm8.11,4.09-.28-1.67L189.84,179l1.27.32A4.66,4.66,0,0,1,194.3,177.46ZM192,179.58l2.72.68-.34-2.09A3.71,3.71,0,0,0,192,179.58Z" transform="translate(-90.46 -70.99)"/><path class="cls-18" d="M268.74,329.36a1.7,1.7,0,0,0,0-.22,2.82,2.82,0,0,1,.65-1.39,4.78,4.78,0,0,1,2.9-1.55,6.05,6.05,0,0,1,2.08,0s.07,0,.08,0c.58-1.2,1.15-2.4,1.74-3.6a1.38,1.38,0,0,1,1.14-.72h1.82v.69h-1.58a.5.5,0,0,0-.52.28c-.17.36-.34.71-.52,1.07l0,.05h7.77c.05,0,.07,0,.09,0l.39-.6,0-.06h-1.38A.49.49,0,0,1,283,323a.3.3,0,0,1,.12-.39.6.6,0,0,1,.33-.09H287v.7h-1.11a.08.08,0,0,0-.08,0l-.61,1a.06.06,0,0,0,0,.07l1.26,2,0,0,.43-.09a5.49,5.49,0,0,1,1.57-.08,5.17,5.17,0,0,1,2.93,1.09,3.09,3.09,0,0,1,1.13,1.68,2.91,2.91,0,0,1-1.4,3.18,5.2,5.2,0,0,1-2.39.87l-.42,0h-.64c-.25,0-.51,0-.76-.08a5,5,0,0,1-2.51-1.19,3,3,0,0,1-1-1.66l0-.19h-2a.68.68,0,0,1-.45-.15l-.79-.68-2.12-1.8-1.85-1.57-.35-.29-.51,1.07h0l.06,0a3.62,3.62,0,0,1,2.53,2.64,2.37,2.37,0,0,1-.07,1.21,3.66,3.66,0,0,1-2.1,2.17,5.55,5.55,0,0,1-1.84.48l-.3,0h-.58c-.24,0-.48,0-.71-.07a4.69,4.69,0,0,1-3-1.63,2.73,2.73,0,0,1-.59-1.31,2.23,2.23,0,0,0,0-.23Zm6.27-2.23,0,.05-.86,1.8-.31.64a.51.51,0,0,1-.57.22c-.27,0-.39-.26-.29-.47.39-.81.78-1.62,1.16-2.43l0-.05c-1.72-.28-3.66.41-4.27,1.85s.42,2.91,2.29,3.4,3.93-.23,4.63-1.62S276.61,327.72,275,327.13Zm9.37,2.74a3.11,3.11,0,0,0,2.7,2.33,4.23,4.23,0,0,0,4.16-1.34,2.26,2.26,0,0,0-.73-3.3,4.61,4.61,0,0,0-3.6-.59l.29.45,1.23,1.93a.34.34,0,0,1,.05.22.47.47,0,0,1-.49.3h-3.61Zm-8.16-5.23,5,4.25,2.7-4.25Zm9.43,2-1-1.51-2.58,4.07h1.33A3.61,3.61,0,0,1,285.65,326.6Zm-1.26,2.55h2.88l-1.21-1.9A2.85,2.85,0,0,0,284.39,329.15Z" transform="translate(-90.46 -70.99)"/><path class="cls-18" d="M266.42,360.07a1.7,1.7,0,0,1,0-.22,2.82,2.82,0,0,1,.65-1.39,4.74,4.74,0,0,1,2.9-1.54,5.76,5.76,0,0,1,2.07,0c.06,0,.07,0,.09,0,.57-1.2,1.15-2.4,1.73-3.6a1.39,1.39,0,0,1,1.14-.72h1.82v.7h-1.57a.49.49,0,0,0-.52.27c-.18.36-.35.71-.52,1.07,0,0,0,0,0,0H282a.1.1,0,0,0,.09,0c.12-.2.25-.4.38-.6l0-.06h-1.38a.47.47,0,0,1-.44-.22.29.29,0,0,1,.12-.38.52.52,0,0,1,.33-.1h3.56v.7h-1.11a.08.08,0,0,0-.08,0l-.62,1a.06.06,0,0,0,0,.06c.42.65.83,1.31,1.25,2l0,0,.43-.1a6,6,0,0,1,1.58-.08,5.27,5.27,0,0,1,2.93,1.09,3.09,3.09,0,0,1,1.13,1.68,2.91,2.91,0,0,1-1.4,3.18,5.2,5.2,0,0,1-2.4.87l-.42,0h-.63c-.26,0-.51,0-.76-.08a4.87,4.87,0,0,1-2.52-1.19,3,3,0,0,1-1-1.66,1.29,1.29,0,0,1,0-.19h-2a.68.68,0,0,1-.45-.15l-.8-.68-2.11-1.8-1.86-1.57-.34-.29-.51,1.07h0l.06,0a3.65,3.65,0,0,1,2.53,2.64,2.41,2.41,0,0,1-.08,1.22,3.65,3.65,0,0,1-2.09,2.16,5.55,5.55,0,0,1-1.84.48l-.3,0h-.59c-.23,0-.47,0-.7-.07a4.74,4.74,0,0,1-3-1.63,2.72,2.72,0,0,1-.58-1.3,2,2,0,0,1,0-.24Zm6.26-2.23s0,0,0,.05c-.29.6-.58,1.2-.86,1.8-.11.21-.21.43-.31.64a.52.52,0,0,1-.57.23c-.27-.06-.4-.27-.3-.47l1.17-2.44a.08.08,0,0,0,0,0c-1.72-.28-3.65.41-4.26,1.85s.41,2.91,2.28,3.4,3.93-.22,4.64-1.62S274.28,358.44,272.68,357.84Zm9.38,2.74a3.1,3.1,0,0,0,2.7,2.33,4.23,4.23,0,0,0,4.16-1.34,2.26,2.26,0,0,0-.73-3.3,4.61,4.61,0,0,0-3.6-.59l.28.45,1.23,1.94a.24.24,0,0,1,0,.21.46.46,0,0,1-.49.3h-3.6Zm-8.17-5.23,5,4.25,2.7-4.25Zm9.43,2-1-1.52-2.58,4.07h1.33A3.58,3.58,0,0,1,283.32,357.32Zm-1.25,2.55h2.87L283.73,358A2.85,2.85,0,0,0,282.07,359.87Z" transform="translate(-90.46 -70.99)"/><path class="cls-18" d="M291.26,366l.25-.13a5.34,5.34,0,0,1,1.81-.58,5.9,5.9,0,0,1,3.49.56,3.86,3.86,0,0,1,1.39,1.14.07.07,0,0,0,.09,0L303,365.5a1.82,1.82,0,0,1,1.48.14l.13.09,1.08.88,0,0-.69.47-.06,0-1-.82a.61.61,0,0,0-.63-.1l-1.41.43-.06,0,.05,0,5.18,4.24a.11.11,0,0,0,.11,0l.85-.19.08,0-.05,0-.88-.72a.28.28,0,0,1-.08-.39.51.51,0,0,1,.47-.19.48.48,0,0,1,.31.12l2.36,1.92,0,0-.7.47,0,0-.7-.57a.1.1,0,0,0-.09,0l-1.39.32a.08.08,0,0,0-.06,0l-1.11,2s0,0,0,0l.38.18a4,4,0,0,1,1.14.81,2.76,2.76,0,0,1,0,4.1,5.21,5.21,0,0,1-4.09,1.37,5.29,5.29,0,0,1-2.48-.73l-.32-.21,0,0-.35-.29,0,0c-.14-.16-.3-.31-.42-.47a2.64,2.64,0,0,1-.52-2.19,3,3,0,0,1,1-1.65l.17-.15,0-.05-1.3-1.06a.34.34,0,0,1-.16-.34c.05-.3.09-.6.14-.9.12-.79.23-1.58.35-2.38s.21-1.38.31-2.07l.06-.39-1.41.44h0l0,.05a2.77,2.77,0,0,1-.91,3.17,4.2,4.2,0,0,1-1.26.78,6,6,0,0,1-3.55.3,5.13,5.13,0,0,1-1.72-.69l-.23-.15-.35-.29,0,0c-.13-.15-.28-.29-.4-.45a2.65,2.65,0,0,1-.39-2.73,3.12,3.12,0,0,1,.9-1.2l.2-.18Zm6.43,1.95h-.06l-2.37.74-.84.26a.53.53,0,0,1-.61-.16c-.12-.19,0-.39.27-.48l3.2-1,.06,0a4.36,4.36,0,0,0-4.7-1.1c-1.81.62-2.61,2.19-1.83,3.55s2.87,2,4.72,1.46S298.18,369.18,297.69,367.9Zm3.61,7a2.19,2.19,0,0,0-.49,3.06,4.18,4.18,0,0,0,4.12,1.39c1.62-.3,2.78-1.4,2.79-2.63a2.72,2.72,0,0,0-1.85-2.38l-.25.46-1.09,2a.37.37,0,0,1-.18.17.58.58,0,0,1-.62-.07l-2.38-1.94Zm-.32-8-.84,5.63,6-1.38Zm4.4,6.52.85-1.56-5.77,1.32.9.73A6,6,0,0,1,305.38,373.4Zm-3.37,1L304,376l1.07-1.95A4.74,4.74,0,0,0,302,374.43Z" transform="translate(-90.46 -70.99)"/><path class="cls-18" d="M316.38,348.21l.16-.2a4.08,4.08,0,0,1,1.38-1,5.89,5.89,0,0,1,3.51-.49,5.2,5.2,0,0,1,1.87.66s.06,0,.1,0l3.61-2.71a1.77,1.77,0,0,1,1.45-.3l.16.05,1.45.5,0,0-.4.63-.07,0-1.35-.47a.6.6,0,0,0-.63.09l-1.08.8,0,0,.06,0,7,2.43a.09.09,0,0,0,.11,0l.69-.42.06,0-.07,0-1.18-.41a.36.36,0,0,1-.27-.34.4.4,0,0,1,.33-.32.69.69,0,0,1,.35,0l3.17,1.1.05,0-.4.63-.06,0-.94-.33a.1.1,0,0,0-.09,0l-1.12.69a.07.07,0,0,0,0,.06c0,.72,0,1.45,0,2.18a0,0,0,0,0,0,0l.44.05a5.18,5.18,0,0,1,1.47.42,3.74,3.74,0,0,1,2,1.91,2.46,2.46,0,0,1,.08,1.88,4,4,0,0,1-3.08,2.44,5.83,5.83,0,0,1-2.66,0l-.41-.1H332l-.47-.16-.05,0c-.21-.1-.44-.2-.64-.32a3.39,3.39,0,0,1-1.6-1.87,2.46,2.46,0,0,1,.06-1.81l.07-.18-.06,0-1.75-.61a.45.45,0,0,1-.32-.27l-.34-.87-.9-2.3-.78-2c-.05-.13-.09-.25-.15-.38l-1.07.81h0l0,0a2.74,2.74,0,0,1,.79,3.19,2.92,2.92,0,0,1-.76,1.08,5.13,5.13,0,0,1-3.12,1.3,6,6,0,0,1-1.94-.15l-.29-.07-.48-.17-.05,0c-.19-.1-.41-.19-.59-.3a3.27,3.27,0,0,1-1.77-2.41,2.51,2.51,0,0,1,.21-1.37c0-.07.07-.14.1-.22Zm6.94,0-.05,0-1.8,1.36-.65.48a.56.56,0,0,1-.64,0,.29.29,0,0,1,0-.51l2.44-1.84.05,0a4.59,4.59,0,0,0-4.91.33,2.26,2.26,0,0,0,.13,3.8,4.59,4.59,0,0,0,5.12,0A2.24,2.24,0,0,0,323.32,348.16Zm6.94,5.44a2.32,2.32,0,0,0,1.12,3,4.7,4.7,0,0,0,4.53.1,2.37,2.37,0,0,0,1.22-3.22,3.69,3.69,0,0,0-2.93-1.67v.49c0,.72,0,1.43,0,2.14a.27.27,0,0,1-.07.21.58.58,0,0,1-.61.12l-3.2-1.11Zm-4.43-7.31,2.13,5.43,4.87-3Zm7.43,4.75,0-1.67-4.65,2.86,1.21.42A5.08,5.08,0,0,1,333.26,351ZM330.68,353l2.6.91,0-2.11A4,4,0,0,0,330.68,353Z" transform="translate(-90.46 -70.99)"/><path class="cls-18" d="M264.39,206.41l0-.23a2.84,2.84,0,0,1,.65-1.38,4.76,4.76,0,0,1,2.9-1.55,5.82,5.82,0,0,1,2.08,0c.05,0,.07,0,.08,0l1.74-3.59a1.36,1.36,0,0,1,1.14-.73h1.82v.7h-1.57a.51.51,0,0,0-.53.28l-.51,1.06s0,0,0,0H280c.05,0,.07,0,.09,0l.39-.6,0-.05h-1.38a.49.49,0,0,1-.44-.22.3.3,0,0,1,.12-.39.55.55,0,0,1,.33-.09h3.56v.7h-1.1c-.05,0-.07,0-.08,0-.21.33-.42.65-.62,1a.07.07,0,0,0,0,.06l1.26,2,0,0c.14,0,.28-.07.43-.09a5.88,5.88,0,0,1,1.57-.09,5.18,5.18,0,0,1,2.93,1.1A3,3,0,0,1,288.2,206a2.9,2.9,0,0,1-1.41,3.17,5.09,5.09,0,0,1-2.39.87l-.42,0h-.64c-.25,0-.51,0-.76-.09a4.94,4.94,0,0,1-2.51-1.18,3.09,3.09,0,0,1-1-1.66l0-.2h-2a.63.63,0,0,1-.44-.15l-.8-.68-2.12-1.79-1.85-1.58-.35-.29-.51,1.07h0l.06,0a3.66,3.66,0,0,1,2.54,2.64,2.41,2.41,0,0,1-.08,1.22,3.64,3.64,0,0,1-2.1,2.16,5.55,5.55,0,0,1-1.84.48l-.3,0h-.58c-.24,0-.48,0-.71-.08a4.65,4.65,0,0,1-3-1.63,2.84,2.84,0,0,1-.59-1.3l0-.23Zm6.26-2.23,0,0c-.28.6-.57,1.2-.86,1.8-.1.22-.2.43-.31.64a.5.5,0,0,1-.57.23c-.26-.06-.39-.26-.29-.47l1.17-2.43a.08.08,0,0,1,0-.05c-1.72-.28-3.65.41-4.27,1.84s.42,2.91,2.29,3.4,3.93-.22,4.63-1.61S272.25,204.77,270.65,204.18Zm9.37,2.73a3.09,3.09,0,0,0,2.7,2.33,4.22,4.22,0,0,0,4.16-1.33,2.26,2.26,0,0,0-.72-3.3,4.56,4.56,0,0,0-3.61-.59l.29.45,1.23,1.93a.29.29,0,0,1,.05.22.47.47,0,0,1-.49.29H280Zm-8.16-5.23,5,4.26,2.71-4.26Zm9.43,2-1-1.52-2.59,4.07h1.34A3.56,3.56,0,0,1,281.29,203.65ZM280,206.2h2.87l-1.21-1.9A2.83,2.83,0,0,0,280,206.2Z" transform="translate(-90.46 -70.99)"/><path class="cls-18" d="M297.81,198.09a1.7,1.7,0,0,0,0-.22,2.75,2.75,0,0,1,.65-1.38,4.73,4.73,0,0,1,2.9-1.55,6.05,6.05,0,0,1,2.08,0s.06,0,.08,0l1.73-3.6a1.41,1.41,0,0,1,1.15-.72h1.81v.7h-1.57a.5.5,0,0,0-.52.27c-.17.36-.34.72-.52,1.07,0,0,0,0,0,0h7.77c.05,0,.07,0,.09,0l.39-.6,0-.05h-1.38a.47.47,0,0,1-.44-.22.29.29,0,0,1,.12-.38.54.54,0,0,1,.33-.1h3.56V192H315a.08.08,0,0,0-.08,0c-.2.33-.41.65-.62,1a.06.06,0,0,0,0,.06l1.26,2,0,0,.42-.1a6.43,6.43,0,0,1,1.58-.08,5.24,5.24,0,0,1,2.93,1.09,3.09,3.09,0,0,1,1.13,1.68,2.91,2.91,0,0,1-1.4,3.18,5.09,5.09,0,0,1-2.39.87l-.42,0h-.64c-.25,0-.51,0-.76-.09a4.83,4.83,0,0,1-2.51-1.19,3,3,0,0,1-1-1.66l0-.19h-2a.68.68,0,0,1-.45-.15l-.8-.68L307.12,196l-1.85-1.58-.35-.29-.51,1.07h0l.06,0a3.62,3.62,0,0,1,2.53,2.64,2.41,2.41,0,0,1-.07,1.22,3.7,3.7,0,0,1-2.1,2.16,5.55,5.55,0,0,1-1.84.48l-.3,0h-.58c-.24,0-.48,0-.71-.08a4.69,4.69,0,0,1-3-1.63,2.74,2.74,0,0,1-.59-1.3,2,2,0,0,0,0-.24Zm6.27-2.23,0,0-.86,1.8-.31.64a.52.52,0,0,1-.57.23c-.27-.06-.39-.26-.29-.47.39-.81.77-1.62,1.16-2.44l0,0c-1.72-.29-3.66.41-4.27,1.84s.42,2.91,2.28,3.4,3.94-.22,4.64-1.62S305.68,196.46,304.08,195.86Zm9.37,2.74a3.1,3.1,0,0,0,2.7,2.33,4.23,4.23,0,0,0,4.16-1.34,2.26,2.26,0,0,0-.73-3.3,4.61,4.61,0,0,0-3.6-.59l.29.45,1.23,1.94a.27.27,0,0,1,0,.21.45.45,0,0,1-.48.3h-3.61Zm-8.16-5.23,5,4.25,2.7-4.25Zm9.43,2-1-1.52-2.58,4.07h1.33A3.59,3.59,0,0,1,314.72,195.34Zm-1.26,2.55h2.88L315.13,196A2.84,2.84,0,0,0,313.46,197.89Z" transform="translate(-90.46 -70.99)"/><path class="cls-18" d="M307.52,177a1.7,1.7,0,0,1,0-.22,2.75,2.75,0,0,1,.65-1.38,4.7,4.7,0,0,1,2.9-1.55,6,6,0,0,1,2.07,0c.06,0,.07,0,.09,0l1.73-3.6a1.39,1.39,0,0,1,1.15-.72H318v.7h-1.57a.49.49,0,0,0-.52.27c-.17.36-.35.72-.52,1.07,0,0,0,0,0,.05h7.77s.07,0,.09,0c.13-.2.26-.4.38-.6l0,0h-1.38a.49.49,0,0,1-.44-.22.3.3,0,0,1,.12-.39.51.51,0,0,1,.33-.09h3.56v.7h-1.11a.06.06,0,0,0-.08,0c-.2.33-.41.65-.62,1a.06.06,0,0,0,0,.06c.42.66.84,1.31,1.25,2l0,0,.43-.09a6,6,0,0,1,1.58-.09,5.27,5.27,0,0,1,2.93,1.09,3.09,3.09,0,0,1,1.13,1.68,2.91,2.91,0,0,1-1.4,3.18,5.09,5.09,0,0,1-2.4.87l-.42,0h-.63c-.26,0-.51-.05-.76-.09a4.87,4.87,0,0,1-2.52-1.19,3,3,0,0,1-1-1.66,1.62,1.62,0,0,0,0-.19h-2a.68.68,0,0,1-.45-.15l-.8-.68-2.11-1.79L315,173.32l-.35-.29-.51,1.07h0l.06,0a3.65,3.65,0,0,1,2.53,2.64,2.41,2.41,0,0,1-.08,1.22,3.65,3.65,0,0,1-2.09,2.16,5.55,5.55,0,0,1-1.84.48l-.3,0h-.59c-.23,0-.47,0-.7-.08a4.69,4.69,0,0,1-3-1.63,2.64,2.64,0,0,1-.59-1.3,2.23,2.23,0,0,1,0-.23Zm6.27-2.22,0,0c-.29.6-.58,1.2-.86,1.8-.11.21-.21.43-.31.64a.52.52,0,0,1-.57.23c-.27-.06-.4-.26-.3-.47l1.17-2.43,0,0c-1.72-.29-3.65.41-4.26,1.84s.41,2.91,2.28,3.4,3.93-.22,4.64-1.62S315.39,175.38,313.79,174.79Zm9.37,2.73a3.08,3.08,0,0,0,2.7,2.33,4.25,4.25,0,0,0,4.16-1.33,2.27,2.27,0,0,0-.73-3.31,4.61,4.61,0,0,0-3.6-.59l.28.45L327.2,177a.24.24,0,0,1,.05.21c0,.19-.23.3-.48.3h-3.61ZM315,172.29l5,4.25,2.7-4.25Zm9.43,2-1-1.52-2.58,4.07h1.33A3.58,3.58,0,0,1,324.42,174.26Zm-1.25,2.55h2.88l-1.22-1.9A2.84,2.84,0,0,0,323.17,176.81Z" transform="translate(-90.46 -70.99)"/><path class="cls-18" d="M306.38,224a1.7,1.7,0,0,1,0-.22,2.75,2.75,0,0,1,.65-1.38,4.7,4.7,0,0,1,2.9-1.55,5.76,5.76,0,0,1,2.07,0c.06,0,.07,0,.09,0,.57-1.2,1.15-2.4,1.73-3.6a1.39,1.39,0,0,1,1.14-.72h1.82v.7h-1.57a.49.49,0,0,0-.52.27c-.18.36-.35.72-.52,1.07l0,.05H322a.1.1,0,0,0,.09,0c.12-.2.25-.4.38-.6l0,0h-1.38a.49.49,0,0,1-.44-.22.3.3,0,0,1,.12-.39.51.51,0,0,1,.33-.09h3.56v.7h-1.11a.1.1,0,0,0-.08,0c-.2.33-.41.65-.62,1a.06.06,0,0,0,0,.06l1.25,2,0,0,.43-.09a6,6,0,0,1,1.58-.09,5.27,5.27,0,0,1,2.93,1.09,3.09,3.09,0,0,1,1.13,1.68,2.9,2.9,0,0,1-1.4,3.18,5.09,5.09,0,0,1-2.4.87l-.42,0h-.63c-.26,0-.51-.05-.76-.09a4.87,4.87,0,0,1-2.52-1.19,3,3,0,0,1-1-1.66c0-.06,0-.12,0-.19h-2a.68.68,0,0,1-.45-.15l-.8-.68-2.11-1.79-1.86-1.58-.34-.29-.51,1.07h0l.06,0a3.67,3.67,0,0,1,2.53,2.64,2.41,2.41,0,0,1-.08,1.22,3.65,3.65,0,0,1-2.09,2.16,5.55,5.55,0,0,1-1.84.48l-.3,0h-.59c-.23,0-.47,0-.7-.08a4.74,4.74,0,0,1-3-1.63,2.72,2.72,0,0,1-.58-1.3,2.23,2.23,0,0,1,0-.23Zm6.26-2.22a.08.08,0,0,1,0,0c-.29.6-.58,1.2-.86,1.8l-.31.64a.52.52,0,0,1-.57.23c-.27-.06-.4-.26-.3-.47l1.17-2.43,0,0c-1.72-.29-3.65.41-4.26,1.84s.41,2.91,2.28,3.4,3.93-.22,4.64-1.61S314.24,222.35,312.64,221.76Zm9.38,2.73a3.08,3.08,0,0,0,2.7,2.33,4.25,4.25,0,0,0,4.16-1.33,2.26,2.26,0,0,0-.73-3.3,4.53,4.53,0,0,0-3.6-.59l.28.45,1.23,1.93a.24.24,0,0,1,.05.21c0,.19-.23.3-.48.3H322Zm-8.17-5.23,5,4.26,2.7-4.26Zm9.43,2-1-1.52-2.58,4.07h1.33A3.58,3.58,0,0,1,323.28,221.23ZM322,223.78h2.88l-1.22-1.9A2.86,2.86,0,0,0,322,223.78Z" transform="translate(-90.46 -70.99)"/><path class="cls-18" d="M344.07,231.2a1.77,1.77,0,0,0,0-.23,2.66,2.66,0,0,1,.36-1.44,4.19,4.19,0,0,1,2.55-1.86,5.86,5.86,0,0,1,2-.23c.05,0,.07,0,.08-.05.32-1.25.64-2.5,1-3.75a1.21,1.21,0,0,1,1-.84.47.47,0,0,1,.17,0l1.58-.19h0l.15.69h-.08l-1.48.17c-.27,0-.4.13-.46.33-.09.37-.19.74-.29,1.12a.13.13,0,0,1,0,0h.07l7.61-.88s.07,0,.08-.05c.08-.22.17-.43.26-.64a.14.14,0,0,1,0-.06h-.08l-1.29.15a.53.53,0,0,1-.47-.17.29.29,0,0,1,0-.4.54.54,0,0,1,.31-.12l3.46-.4h.06l.14.69h-.06l-1,.12s-.06,0-.07,0c-.14.35-.28.69-.41,1a0,0,0,0,0,0,.06l1.64,1.8,0,0,.4-.14a5.88,5.88,0,0,1,4.66.48,3.43,3.43,0,0,1,1.47,1.53,2.71,2.71,0,0,1-.73,3.3,4.68,4.68,0,0,1-2.19,1.13l-.41.08-.05,0-.51.06h-.83a5.37,5.37,0,0,1-2.73-.89,3.44,3.44,0,0,1-1.31-1.52c0-.07-.05-.13-.07-.19h-.08l-1.91.22a.7.7,0,0,1-.47-.1l-.93-.58L352.83,228l-2.15-1.34-.4-.25-.29,1.11h0l.07,0a4.16,4.16,0,0,1,3.05,2.32,2.52,2.52,0,0,1,.17,1.21,3.22,3.22,0,0,1-1.62,2.37,5.13,5.13,0,0,1-1.72.69l-.3.06-.52.06s0,0-.05,0h-.72a5.17,5.17,0,0,1-3.27-1.27,3.11,3.11,0,0,1-.85-1.22,2,2,0,0,1-.08-.22Zm5.73-2.92s0,0,0,.05l-.48,1.87-.18.67a.46.46,0,0,1-.51.29c-.28,0-.45-.21-.39-.43.22-.85.44-1.69.65-2.54a.07.07,0,0,0,0-.05c-1.75-.08-3.52.83-3.83,2.31s1,2.83,3,3.1,3.84-.67,4.25-2.13S351.51,228.68,349.8,228.28Zm9.83,1.63a3.48,3.48,0,0,0,3.15,2,3.88,3.88,0,0,0,3.83-1.79,2.4,2.4,0,0,0-1.39-3.18,4.7,4.7,0,0,0-3.69-.17c.13.13.25.27.38.41l1.61,1.77a.25.25,0,0,1,.09.21c0,.18-.17.32-.42.34l-3.48.41Zm-9.15-4.23,5.83,3.62,1.8-4.51Zm9.73.86-1.28-1.39-1.71,4.32,1.32-.15A3.18,3.18,0,0,1,360.21,226.54Zm-.71,2.66,2.84-.33-1.59-1.74A2.5,2.5,0,0,0,359.5,229.2Z" transform="translate(-90.46 -70.99)"/><path class="cls-18" d="M344.28,207.46l0-.23a2.55,2.55,0,0,1,.25-1.45,4,4,0,0,1,2.4-2,5.81,5.81,0,0,1,2-.31c.05,0,.06,0,.07-.05.22-1.26.45-2.53.68-3.79a1.17,1.17,0,0,1,.92-.88l.16,0,1.57-.25h0l.2.68-.08,0-1.46.23c-.27,0-.4.15-.43.35l-.21,1.13v.05h.06l7.53-1.2c.05,0,.07,0,.08-.06.06-.21.14-.43.2-.65,0,0,0,0,0-.05h-.07l-1.28.2a.55.55,0,0,1-.49-.15.28.28,0,0,1,0-.39.51.51,0,0,1,.3-.15l3.42-.54h.06l.19.68h-.06l-1,.17a.07.07,0,0,0-.07,0c-.1.35-.22.7-.33,1.05a.08.08,0,0,0,0,.06l1.78,1.73,0,0,.39-.16a6.25,6.25,0,0,1,1.51-.33,5.78,5.78,0,0,1,3.18.62,3.69,3.69,0,0,1,1.58,1.46,2.68,2.68,0,0,1-.48,3.33,4.42,4.42,0,0,1-2.1,1.22l-.4.1,0,0-.5.08h-.07c-.26,0-.51,0-.77,0a5.55,5.55,0,0,1-2.79-.77,3.57,3.57,0,0,1-1.42-1.47l-.09-.19-.07,0-1.89.3a.72.72,0,0,1-.48-.08l-1-.54-2.57-1.42-2.26-1.25-.41-.23-.21,1.12H350a4.31,4.31,0,0,1,3.22,2.19,2.54,2.54,0,0,1,.27,1.2,3.12,3.12,0,0,1-1.44,2.44,5,5,0,0,1-1.67.75l-.28.08-.52.08h-.06c-.24,0-.47,0-.71,0a5.37,5.37,0,0,1-3.36-1.12,3.34,3.34,0,0,1-.95-1.19l-.1-.22Zm5.5-3.16a.43.43,0,0,1,0,0c-.11.63-.23,1.26-.34,1.9l-.12.67a.45.45,0,0,1-.49.31c-.28,0-.46-.19-.42-.41l.45-2.56a.11.11,0,0,0,0,0c-1.76,0-3.45,1-3.65,2.47s1.22,2.77,3.19,3,3.78-.83,4.08-2.3S351.51,204.63,349.78,204.3Zm9.94,1.21a3.6,3.6,0,0,0,3.29,1.86,3.74,3.74,0,0,0,3.69-2,2.48,2.48,0,0,0-1.64-3.12,4.67,4.67,0,0,0-3.69,0l.41.39c.58.57,1.16,1.14,1.75,1.7a.37.37,0,0,1,.11.2c0,.19-.15.33-.4.37l-3.44.55Zm-9.46-3.83,6.1,3.37,1.45-4.58Zm9.78.45-1.38-1.33-1.39,4.38,1.31-.21A3.06,3.06,0,0,1,360,202.13Zm-.51,2.69,2.81-.45-1.72-1.67A2.41,2.41,0,0,0,359.53,204.82Z" transform="translate(-90.46 -70.99)"/><path class="cls-18" d="M313.41,254.11l0-.22a2.84,2.84,0,0,1,.66-1.39A4.75,4.75,0,0,1,317,251a5.82,5.82,0,0,1,2.08,0c.05,0,.07,0,.08,0l1.74-3.6a1.38,1.38,0,0,1,1.14-.72h1.82v.7h-1.57a.51.51,0,0,0-.53.27l-.51,1.07s0,0,0,.05H329s.07,0,.09,0l.39-.6a.33.33,0,0,0,0-.06h-1.38a.46.46,0,0,1-.43-.22.28.28,0,0,1,.11-.38.57.57,0,0,1,.34-.1h3.55v.7h-1.1s-.07,0-.08,0c-.21.33-.42.65-.62,1a.06.06,0,0,0,0,.06l1.25,2,0,0,.43-.1a5.9,5.9,0,0,1,1.57-.08,5.24,5.24,0,0,1,2.93,1.09,3.05,3.05,0,0,1,1.14,1.68,2.91,2.91,0,0,1-1.4,3.18,5.2,5.2,0,0,1-2.4.87l-.42,0h-.64c-.25,0-.51,0-.76-.08a5,5,0,0,1-2.51-1.19,3.06,3.06,0,0,1-1-1.66l0-.19h-2a.65.65,0,0,1-.44-.15l-.8-.68-2.12-1.8-1.85-1.57-.34-.29L320,251.2h0l.06,0a3.65,3.65,0,0,1,2.54,2.64,2.41,2.41,0,0,1-.08,1.22,3.65,3.65,0,0,1-2.09,2.16,5.61,5.61,0,0,1-1.85.48l-.3,0h-.58c-.24,0-.48,0-.71-.07a4.72,4.72,0,0,1-3-1.63,2.84,2.84,0,0,1-.59-1.3l0-.24Zm6.26-2.23,0,.05c-.28.6-.57,1.2-.86,1.8-.1.21-.2.43-.31.64a.5.5,0,0,1-.57.22c-.26-.05-.39-.26-.29-.47l1.17-2.43,0-.05c-1.72-.28-3.65.41-4.26,1.85s.41,2.91,2.28,3.4,3.93-.23,4.63-1.62S321.27,252.48,319.67,251.88Zm9.38,2.74a3.09,3.09,0,0,0,2.7,2.33,4.21,4.21,0,0,0,4.15-1.34,2.26,2.26,0,0,0-.72-3.3,4.64,4.64,0,0,0-3.61-.59l.29.45,1.23,1.94a.28.28,0,0,1,.05.21.47.47,0,0,1-.49.3h-3.6Zm-8.17-5.23,5,4.25,2.71-4.25Zm9.43,2-1-1.52-2.59,4.07h1.34A3.58,3.58,0,0,1,330.31,251.36Zm-1.25,2.55h2.87L330.72,252A2.83,2.83,0,0,0,329.06,253.91Z" transform="translate(-90.46 -70.99)"/><path class="cls-18" d="M273.22,269.67l0-.22a2.8,2.8,0,0,1,.66-1.39,4.75,4.75,0,0,1,2.9-1.55,6,6,0,0,1,2.07,0c.05,0,.07,0,.09,0,.57-1.2,1.15-2.4,1.73-3.6a1.38,1.38,0,0,1,1.14-.72h1.82v.69h-1.57a.51.51,0,0,0-.53.28l-.51,1.07s0,0,0,.05h7.77a.1.1,0,0,0,.09,0c.12-.2.25-.4.38-.6l0-.06h-1.37a.49.49,0,0,1-.44-.22.29.29,0,0,1,.12-.39.58.58,0,0,1,.33-.09h3.55v.7h-1.1a.08.08,0,0,0-.08,0l-.62,1a.06.06,0,0,0,0,.06c.41.66.83,1.32,1.25,2l0,0,.43-.09a5.51,5.51,0,0,1,1.57-.08,5.17,5.17,0,0,1,2.93,1.09,3.05,3.05,0,0,1,1.14,1.68,2.91,2.91,0,0,1-1.4,3.18,5.2,5.2,0,0,1-2.4.87l-.42,0h-.63c-.26,0-.52,0-.76-.09A4.93,4.93,0,0,1,288.9,272a3,3,0,0,1-1-1.66,1.29,1.29,0,0,1,0-.19h-2a.65.65,0,0,1-.44-.15l-.8-.68-2.12-1.8L280.67,266l-.34-.29-.52,1.07h0l.06,0a3.65,3.65,0,0,1,2.54,2.64,2.37,2.37,0,0,1-.08,1.21,3.64,3.64,0,0,1-2.09,2.17,5.37,5.37,0,0,1-1.84.47l-.3,0h-.59a5.56,5.56,0,0,1-.7-.08,4.69,4.69,0,0,1-3-1.62,2.87,2.87,0,0,1-.59-1.31l0-.23Zm6.26-2.23s0,0,0,.05l-.87,1.8c-.1.21-.2.43-.31.64a.49.49,0,0,1-.56.22c-.27,0-.4-.26-.3-.47l1.17-2.43,0-.05c-1.72-.28-3.65.41-4.26,1.85s.41,2.91,2.28,3.4,3.93-.23,4.64-1.62S281.08,268,279.48,267.44Zm9.38,2.74a3.09,3.09,0,0,0,2.7,2.33,4.21,4.21,0,0,0,4.15-1.34,2.26,2.26,0,0,0-.72-3.3,4.61,4.61,0,0,0-3.6-.59l.28.45,1.23,1.93a.25.25,0,0,1,.05.22.46.46,0,0,1-.49.3h-3.6ZM280.69,265l5,4.25,2.71-4.25Zm9.43,2-1-1.51-2.59,4.06h1.34A3.6,3.6,0,0,1,290.12,266.91Zm-1.25,2.55h2.87l-1.21-1.9A2.83,2.83,0,0,0,288.87,269.46Z" transform="translate(-90.46 -70.99)"/><path class="cls-18" d="M313.41,289.67l0-.23a2.81,2.81,0,0,1,.66-1.38,4.71,4.71,0,0,1,2.89-1.55,6.05,6.05,0,0,1,2.08,0c.05,0,.07,0,.08,0l1.74-3.59a1.38,1.38,0,0,1,1.14-.72l.17,0h1.65v.7h-1.57a.51.51,0,0,0-.53.28l-.51,1.07s0,0,0,0H329s.07,0,.09-.05l.39-.6,0-.05h-1.38a.47.47,0,0,1-.43-.22.3.3,0,0,1,.11-.39.64.64,0,0,1,.34-.09h3.55v.7h-1.1s-.07,0-.08,0l-.62,1a.06.06,0,0,0,0,.06c.41.66.83,1.32,1.25,2l0,0,.43-.09a5.9,5.9,0,0,1,1.57-.09,5.25,5.25,0,0,1,2.93,1.1,3,3,0,0,1,1.14,1.68,2.89,2.89,0,0,1-1.4,3.17,5.09,5.09,0,0,1-2.4.87l-.42,0h-.64c-.25,0-.51,0-.76-.09a4.94,4.94,0,0,1-2.51-1.18,3.09,3.09,0,0,1-1-1.66l0-.2h-2a.61.61,0,0,1-.44-.15l-.8-.68-2.12-1.79L320.86,286l-.34-.29-.52,1.06h0l.06,0a3.66,3.66,0,0,1,2.54,2.65,2.38,2.38,0,0,1-.08,1.21,3.65,3.65,0,0,1-2.09,2.16,5.37,5.37,0,0,1-1.85.48l-.3,0h-.58c-.24,0-.48,0-.71-.08a4.67,4.67,0,0,1-3-1.63,2.79,2.79,0,0,1-.59-1.3l0-.23Zm6.26-2.23,0,.05c-.28.6-.57,1.19-.86,1.79-.1.22-.2.43-.31.65a.51.51,0,0,1-.57.22c-.26-.06-.39-.26-.29-.47l1.17-2.43s0,0,0-.05c-1.72-.28-3.65.41-4.26,1.84s.41,2.91,2.28,3.4,3.93-.22,4.63-1.61S321.27,288,319.67,287.44Zm9.38,2.73a3.07,3.07,0,0,0,2.7,2.33,4.2,4.2,0,0,0,4.15-1.33,2.26,2.26,0,0,0-.72-3.3,4.56,4.56,0,0,0-3.61-.59l.29.45,1.23,1.93a.29.29,0,0,1,.05.22.47.47,0,0,1-.49.29h-3.6Zm-8.17-5.23,5,4.26,2.71-4.26Zm9.43,2-1-1.51-2.59,4.06h1.34A3.6,3.6,0,0,1,330.31,286.91Zm-1.25,2.55h2.87l-1.21-1.9A2.83,2.83,0,0,0,329.06,289.46Z" transform="translate(-90.46 -70.99)"/><path class="cls-18" d="M346.76,274.74l.12-.21a3.48,3.48,0,0,1,1.14-1.19,5.54,5.54,0,0,1,3.37-.89,5.72,5.72,0,0,1,2,.44s.06,0,.09,0l3-3.09a1.68,1.68,0,0,1,1.37-.45l.17,0,1.54.33h0l-.26.67h-.08l-1.43-.32a.6.6,0,0,0-.61.16l-.89.92,0,0,.07,0,7.39,1.6a.12.12,0,0,0,.1,0l.6-.5.05-.05h-.08l-1.25-.27a.37.37,0,0,1-.33-.3.34.34,0,0,1,.25-.35.56.56,0,0,1,.36,0l3.35.72.06,0-.26.67h-.06l-1-.22a.1.1,0,0,0-.09,0l-1,.81a.07.07,0,0,0,0,.06c.16.71.31,1.43.47,2.15v0h.44a5.7,5.7,0,0,1,1.55.24,4.29,4.29,0,0,1,2.4,1.66,2.57,2.57,0,0,1,.46,1.85,3.53,3.53,0,0,1-2.53,2.76,5.67,5.67,0,0,1-2.63.34l-.42-.05h0l-.5-.1-.06,0c-.23-.08-.47-.15-.69-.25a3.86,3.86,0,0,1-2-1.66,2.58,2.58,0,0,1-.32-1.79c0-.07,0-.13,0-.2h-.07l-1.86-.4a.58.58,0,0,1-.37-.24l-.51-.82-1.36-2.16-1.19-1.9-.22-.35-.9.92h0l.05,0a3,3,0,0,1,1.44,3.07,2.65,2.65,0,0,1-.52,1.15,4.63,4.63,0,0,1-2.82,1.64,6.07,6.07,0,0,1-1.95.08l-.3,0-.5-.11-.06,0c-.21-.07-.44-.13-.65-.22a3.71,3.71,0,0,1-2.24-2.18,2.5,2.5,0,0,1-.08-1.38,1.55,1.55,0,0,0,.05-.23Zm6.85-.84,0,0-1.5,1.55-.54.55a.6.6,0,0,1-.63.1.31.31,0,0,1-.11-.52c.68-.69,1.36-1.39,2-2.09l0,0a4.45,4.45,0,0,0-4.78.88c-1.11,1.24-.7,2.88.92,3.74a4.52,4.52,0,0,0,5.05-.59A2.24,2.24,0,0,0,353.61,273.9Zm8,4.57a2.5,2.5,0,0,0,1.72,2.8,4.62,4.62,0,0,0,4.49-.42,2.24,2.24,0,0,0,.54-3.32,4.06,4.06,0,0,0-3.24-1.31c0,.16.07.33.11.49l.45,2.11a.25.25,0,0,1,0,.22.56.56,0,0,1-.58.18l-3.38-.73Zm-5.89-6.72,3.23,5.13,4.19-3.52ZM364,275.6l-.36-1.65-4,3.36,1.28.28A4.54,4.54,0,0,1,364,275.6Zm-2.15,2.19,2.76.6-.46-2.08A3.58,3.58,0,0,0,361.87,277.79Z" transform="translate(-90.46 -70.99)"/><path class="cls-18" d="M354.1,254.57a1.8,1.8,0,0,1,.08-.21,3.11,3.11,0,0,1,.93-1.3,5.17,5.17,0,0,1,3.18-1.19,5.64,5.64,0,0,1,2,.24c.05,0,.07,0,.09,0l2.45-3.36a1.55,1.55,0,0,1,1.28-.58h.17l1.59.18h0l-.14.69h-.08l-1.48-.17a.53.53,0,0,0-.57.22l-.73,1,0,.05H363l7.6.88s.07,0,.1,0l.51-.55,0,0h-.08l-1.28-.15a.43.43,0,0,1-.39-.27.33.33,0,0,1,.2-.37.64.64,0,0,1,.34,0l3.46.4h.06l-.15.69h-.06l-1-.12a.1.1,0,0,0-.09,0l-.81.89a.07.07,0,0,0,0,.06c.27.7.55,1.4.83,2.09v0l.45,0a5.52,5.52,0,0,1,1.57.1,4.68,4.68,0,0,1,2.67,1.41,2.76,2.76,0,0,1,.78,1.79,3.22,3.22,0,0,1-2,3,5.66,5.66,0,0,1-2.55.59l-.42,0h-.06l-.51-.06-.06,0c-.25-.06-.5-.1-.73-.17a4.38,4.38,0,0,1-2.24-1.46,2.75,2.75,0,0,1-.63-1.75c0-.07,0-.13,0-.2h-.08l-1.9-.22a.56.56,0,0,1-.41-.2c-.22-.25-.44-.5-.65-.76l-1.72-2-1.51-1.77-.28-.33-.73,1h0l0,0a3.23,3.23,0,0,1,2,2.9,2.57,2.57,0,0,1-.33,1.19,4.16,4.16,0,0,1-2.51,1.9,5.9,5.9,0,0,1-1.92.26h-.31l-.52-.06h0c-.23-.06-.46-.09-.68-.16a4.19,4.19,0,0,1-2.61-1.95,2.6,2.6,0,0,1-.31-1.35c0-.08,0-.16,0-.24Zm6.64-1.48,0,0-1.22,1.68-.44.6a.56.56,0,0,1-.61.16c-.25-.09-.34-.31-.2-.5l1.66-2.27,0-.05a4.26,4.26,0,0,0-4.59,1.34c-.89,1.33-.19,2.92,1.55,3.62a4.38,4.38,0,0,0,4.92-1.07C362.77,255.37,362.2,253.86,360.74,253.09Zm8.7,3.77a2.75,2.75,0,0,0,2.19,2.62,4.53,4.53,0,0,0,4.39-.85,2.21,2.21,0,0,0,0-3.34,4.34,4.34,0,0,0-3.44-1c.06.16.12.32.19.48.27.68.54,1.37.82,2a.33.33,0,0,1,0,.22.5.5,0,0,1-.54.23l-3.49-.4Zm-7-6.1,4.08,4.78,3.55-3.9Zm8.91,3-.64-1.6-3.4,3.72,1.32.15A4.09,4.09,0,0,1,371.36,253.78Zm-1.76,2.38,2.84.33-.8-2A3.24,3.24,0,0,0,369.6,256.16Z" transform="translate(-90.46 -70.99)"/><path class="cls-18" d="M301,322l0-.23a2.81,2.81,0,0,1,.66-1.38,4.7,4.7,0,0,1,2.9-1.55,6,6,0,0,1,2.07,0c.05,0,.07,0,.08,0l1.74-3.59a1.38,1.38,0,0,1,1.14-.72l.17,0h1.65v.7h-1.57a.51.51,0,0,0-.53.28l-.51,1.07s0,0,0,0h7.76c.05,0,.07,0,.09,0l.39-.6,0-.05h-1.38a.47.47,0,0,1-.43-.22.3.3,0,0,1,.11-.39.64.64,0,0,1,.34-.09h3.55v.7h-1.1a.08.08,0,0,0-.08,0l-.62,1a.06.06,0,0,0,0,.06c.41.66.83,1.32,1.25,2l0,0,.43-.09a5.9,5.9,0,0,1,1.57-.09,5.25,5.25,0,0,1,2.93,1.1,3,3,0,0,1,1.14,1.68,2.89,2.89,0,0,1-1.4,3.17,5.09,5.09,0,0,1-2.4.87l-.42,0H320c-.25,0-.51,0-.76-.09a4.94,4.94,0,0,1-2.51-1.18,3.09,3.09,0,0,1-1-1.66l0-.2h-2a.61.61,0,0,1-.44-.15l-.8-.67-2.12-1.8-1.85-1.57-.34-.29-.52,1.06h0l.06,0a3.63,3.63,0,0,1,2.54,2.64,2.38,2.38,0,0,1-.08,1.21,3.63,3.63,0,0,1-2.09,2.16,5.37,5.37,0,0,1-1.85.48l-.3,0h-.58c-.24,0-.48,0-.71-.08a4.67,4.67,0,0,1-3-1.63,2.79,2.79,0,0,1-.59-1.3l0-.23Zm6.26-2.23s0,0,0,.05l-.87,1.79c-.1.22-.2.43-.31.65a.5.5,0,0,1-.56.22c-.27-.06-.4-.26-.3-.47l1.17-2.43,0,0c-1.72-.28-3.65.41-4.26,1.85s.41,2.9,2.28,3.39,3.93-.22,4.63-1.61S308.87,320.37,307.27,319.78Zm9.38,2.73a3.09,3.09,0,0,0,2.7,2.34,4.23,4.23,0,0,0,4.15-1.34,2.26,2.26,0,0,0-.72-3.3,4.55,4.55,0,0,0-3.61-.59l.29.45,1.23,1.93a.29.29,0,0,1,.05.22.47.47,0,0,1-.49.29h-3.6Zm-8.17-5.23,5,4.26,2.71-4.26Zm9.43,2-1-1.51-2.59,4.06h1.34A3.6,3.6,0,0,1,317.91,319.25Zm-1.25,2.55h2.87l-1.21-1.9A2.83,2.83,0,0,0,316.66,321.8Z" transform="translate(-90.46 -70.99)"/><path class="cls-18" d="M343.34,312.56a2.12,2.12,0,0,1,.11-.21,3.32,3.32,0,0,1,1.09-1.22,5.45,5.45,0,0,1,3.32-1,5.62,5.62,0,0,1,2,.39c.05,0,.06,0,.09,0l2.87-3.17a1.64,1.64,0,0,1,1.35-.48l.17,0,1.55.29H356l-.24.67h-.07l-1.45-.27a.54.54,0,0,0-.6.17c-.28.31-.57.62-.85.94l0,0h.07l7.46,1.42a.09.09,0,0,0,.1,0l.57-.51.05-.05h-.07l-1.26-.24a.4.4,0,0,1-.35-.3.33.33,0,0,1,.24-.35.6.6,0,0,1,.35,0l3.39.64.06,0-.24.67H363l-1-.19a.1.1,0,0,0-.09,0l-.92.83s0,0,0,.06c.18.71.37,1.43.56,2.14,0,0,0,0,0,0H362a5.74,5.74,0,0,1,1.55.21,4.42,4.42,0,0,1,2.48,1.6,2.63,2.63,0,0,1,.54,1.84,3.44,3.44,0,0,1-2.41,2.81,5.72,5.72,0,0,1-2.61.41l-.42-.05h-.06l-.5-.09-.06,0c-.24-.08-.48-.14-.71-.23a4,4,0,0,1-2-1.61,2.61,2.61,0,0,1-.39-1.79,1.48,1.48,0,0,1,0-.19l-.08,0-1.87-.35a.55.55,0,0,1-.38-.23l-.55-.8-1.45-2.13-1.28-1.87-.23-.34-.86.94h0l.05,0a3,3,0,0,1,1.58,3,2.61,2.61,0,0,1-.48,1.16,4.47,4.47,0,0,1-2.74,1.71,6.08,6.08,0,0,1-1.95.13l-.3,0-.5-.09-.06,0c-.22-.07-.45-.12-.66-.21a3.85,3.85,0,0,1-2.34-2.12,2.48,2.48,0,0,1-.14-1.37c0-.08,0-.16,0-.23Zm6.81-1,0,0c-.47.53-1,1.06-1.43,1.58l-.51.57a.55.55,0,0,1-.62.11.3.3,0,0,1-.14-.51c.65-.71,1.3-1.42,1.94-2.14,0,0,0,0,0,0a4.41,4.41,0,0,0-4.74,1c-1.06,1.26-.57,2.9,1.08,3.71a4.48,4.48,0,0,0,5-.71A2.26,2.26,0,0,0,350.15,311.55Zm8.17,4.38a2.57,2.57,0,0,0,1.85,2.75,4.57,4.57,0,0,0,4.47-.53,2.23,2.23,0,0,0,.39-3.33,4.13,4.13,0,0,0-3.3-1.23c0,.16.09.32.13.49.18.7.37,1.4.55,2.1a.26.26,0,0,1,0,.21.53.53,0,0,1-.57.2l-3.42-.65Zm-6.18-6.57,3.45,5,4-3.62Zm8.49,3.64-.44-1.65-3.85,3.47,1.29.24A4.42,4.42,0,0,1,360.63,313Zm-2.06,2.24,2.79.53-.55-2.07A3.51,3.51,0,0,0,358.57,315.24Z" transform="translate(-90.46 -70.99)"/><path class="cls-18" d="M273.75,303.18l0-.22a2.84,2.84,0,0,1,.66-1.39,4.74,4.74,0,0,1,2.9-1.54,5.76,5.76,0,0,1,2.07,0s.07,0,.08,0l1.74-3.6a1.38,1.38,0,0,1,1.14-.72h1.82v.7h-1.57c-.28,0-.43.07-.53.27l-.51,1.07s0,0,0,.05h7.76c.05,0,.07,0,.09,0l.39-.6,0-.06h-1.38a.46.46,0,0,1-.43-.22.3.3,0,0,1,.11-.39.64.64,0,0,1,.34-.09H292v.7h-1.1a.08.08,0,0,0-.08,0c-.21.33-.42.65-.62,1a.06.06,0,0,0,0,.06l1.25,2,0,0,.43-.09a5.51,5.51,0,0,1,1.57-.08,5.24,5.24,0,0,1,2.93,1.09,3.05,3.05,0,0,1,1.14,1.68,2.91,2.91,0,0,1-1.4,3.18,5.2,5.2,0,0,1-2.4.87l-.42,0h-.64c-.25,0-.51,0-.76-.08a5,5,0,0,1-2.51-1.19,3.06,3.06,0,0,1-1-1.66l0-.19h-2a.65.65,0,0,1-.44-.15l-.8-.68-2.12-1.8-1.85-1.57-.34-.29-.52,1.07h0l.06,0a3.65,3.65,0,0,1,2.54,2.64,2.37,2.37,0,0,1-.08,1.21,3.64,3.64,0,0,1-2.09,2.17,5.61,5.61,0,0,1-1.85.48l-.3,0h-.58c-.24,0-.48,0-.71-.07a4.72,4.72,0,0,1-3-1.63,2.84,2.84,0,0,1-.59-1.3l0-.24ZM280,301l0,.05-.87,1.8c-.1.21-.2.43-.31.64a.49.49,0,0,1-.56.22c-.27-.05-.4-.26-.3-.47l1.17-2.43s0,0,0-.05c-1.72-.28-3.65.41-4.26,1.85s.41,2.91,2.28,3.4,3.93-.23,4.63-1.62S281.61,301.55,280,301Zm9.38,2.74a3.09,3.09,0,0,0,2.7,2.33,4.21,4.21,0,0,0,4.15-1.34,2.26,2.26,0,0,0-.72-3.3,4.64,4.64,0,0,0-3.61-.59l.29.45,1.23,1.94a.27.27,0,0,1,.05.21.47.47,0,0,1-.49.3h-3.6Zm-8.17-5.23,5,4.25,2.71-4.25Zm9.43,2-1-1.51L287.09,303h1.34A3.59,3.59,0,0,1,290.65,300.42ZM289.4,303h2.87l-1.21-1.91A2.83,2.83,0,0,0,289.4,303Z" transform="translate(-90.46 -70.99)"/><path class="cls-18" d="M272.91,241.2a1.7,1.7,0,0,0,0-.22,2.82,2.82,0,0,1,.65-1.39,4.77,4.77,0,0,1,2.9-1.54,5.82,5.82,0,0,1,2.08,0c.05,0,.07,0,.08,0,.58-1.2,1.15-2.4,1.74-3.6a1.38,1.38,0,0,1,1.14-.72h1.82v.7h-1.58a.51.51,0,0,0-.52.27c-.17.36-.34.71-.52,1.07a.17.17,0,0,1,0,.05h7.77c.05,0,.07,0,.09,0l.39-.6a.33.33,0,0,0,0-.06h-1.38a.47.47,0,0,1-.44-.22.29.29,0,0,1,.12-.38.54.54,0,0,1,.33-.1h3.56v.7h-1.11a.08.08,0,0,0-.08,0l-.61,1s0,0,0,.06l1.26,2,0,0,.43-.1a6.32,6.32,0,0,1,1.57-.08,5.24,5.24,0,0,1,2.93,1.09,3.09,3.09,0,0,1,1.13,1.68,2.91,2.91,0,0,1-1.4,3.18,5.2,5.2,0,0,1-2.39.87l-.42,0h-.64c-.25,0-.51,0-.76-.08a4.87,4.87,0,0,1-2.51-1.19,3,3,0,0,1-1-1.66l0-.19h-2a.68.68,0,0,1-.45-.15l-.79-.68-2.12-1.8-1.85-1.57-.35-.29-.51,1.07h0l.06,0a3.62,3.62,0,0,1,2.53,2.64,2.41,2.41,0,0,1-.07,1.22,3.64,3.64,0,0,1-2.1,2.16,5.55,5.55,0,0,1-1.84.48l-.3,0h-.58c-.24,0-.48,0-.71-.07a4.69,4.69,0,0,1-3-1.63,2.74,2.74,0,0,1-.59-1.3,2,2,0,0,0,0-.24Zm6.27-2.23,0,.05-.86,1.8-.31.64a.52.52,0,0,1-.57.23c-.27-.06-.39-.27-.29-.47.39-.82.78-1.63,1.16-2.44l0-.05c-1.72-.28-3.66.41-4.27,1.85s.42,2.91,2.29,3.4,3.93-.22,4.63-1.62S280.78,239.57,279.18,239Zm9.37,2.74a3.11,3.11,0,0,0,2.7,2.33,4.23,4.23,0,0,0,4.16-1.34,2.26,2.26,0,0,0-.72-3.3,4.64,4.64,0,0,0-3.61-.59l.29.45,1.23,1.94a.33.33,0,0,1,0,.21.47.47,0,0,1-.49.3h-3.61Zm-8.16-5.23,5,4.25,2.71-4.25Zm9.43,2-1-1.52L286.26,241h1.33A3.59,3.59,0,0,1,289.82,238.45ZM288.57,241h2.87l-1.21-1.91A2.8,2.8,0,0,0,288.57,241Z" transform="translate(-90.46 -70.99)"/><path class="cls-19" d="M330.23,100.05" transform="translate(-90.46 -70.99)"/><ellipse class="cls-20" cx="170.57" cy="66.8" rx="54.72" ry="66.8"/><rect class="cls-21" x="230.81" y="112.07" width="26.33" height="15.54" rx="4.43" ry="4.43" transform="translate(397.5 168.71) rotate(180)"/><rect class="cls-22" x="265.11" y="112.07" width="26.33" height="15.54" rx="4.43" ry="4.43" transform="translate(466.1 168.71) rotate(180)"/><ellipse class="cls-23" cx="153.52" cy="48.86" rx="2.61" ry="3.08"/><ellipse class="cls-23" cx="187.82" cy="48.86" rx="2.61" ry="3.08"/><path class="cls-24" d="M206.94,125.45l23.22-37.22s42.47,7,58.49,0l24.61,32.82s-6.59-27.41-22.12-38.64c-10.85-7.86-14.08-8.35-15-8.89-1.39-.81-2.22-.52-2.93-.73-5.36-1.62-23.14-4.48-41,7.83C210.7,95.45,206.94,125.45,206.94,125.45Z" transform="translate(-90.46 -70.99)"/><path class="cls-25" d="M288.65,88.36,313,120.86s-6.51-27.15-21.9-38.26C289.65,81.54,293.21,84.25,288.65,88.36Z" transform="translate(-90.46 -70.99)"/><path class="cls-26" d="M314.6,147.49s-50.75,65.65-109,0c0,0,6.18,55.29,54.72,58.29C260.32,205.78,307,207.31,314.6,147.49Z" transform="translate(-90.46 -70.99)"/><line class="cls-19" x1="156.13" y1="101.49" x2="185.21" y2="101.49"/><path class="cls-27" d="M246.59,172.47a30.69,30.69,0,0,1,7.27-2,50.82,50.82,0,0,1,7.27-.54,48.17,48.17,0,0,1,7.27.54,29.89,29.89,0,0,1,7.27,2,30.38,30.38,0,0,1-7.27,2,49.5,49.5,0,0,1-7.27.53,48.08,48.08,0,0,1-7.27-.54A30.22,30.22,0,0,1,246.59,172.47Z" transform="translate(-90.46 -70.99)"/><line class="cls-19" x1="154.54" y1="101.49" x2="187.08" y2="101.49"/><path class="cls-28" d="M245,172.47c2.71-.15,5.43-.23,8.14-.29s5.42-.05,8.13-.08,5.42,0,8.14.08,5.42.14,8.13.29c-2.71.16-5.42.23-8.13.29s-5.43.06-8.14.09-5.42,0-8.13-.09S247.71,172.63,245,172.47Z" transform="translate(-90.46 -70.99)"/><polyline class="cls-29" points="176.78 82.39 171.23 84.01 164.56 82.16 170.05 57.79"/><polyline class="cls-30" points="171.23 84.01 164.56 82.16 170.05 57.79"/><path class="cls-20" d="M264.36,119.66s-2.82-3.5-6.46,0" transform="translate(-90.46 -70.99)"/><path class="cls-31" d="M264.32,119.69a9.23,9.23,0,0,0-3.17-.68,2.72,2.72,0,0,0-.69.06,5.45,5.45,0,0,0-.75.14c-.27.06-.53.16-.83.23a6.66,6.66,0,0,1-.94.26l-.07-.07.69-.61a8.18,8.18,0,0,1,.79-.51,4.1,4.1,0,0,1,1.79-.5,4.36,4.36,0,0,1,3.25,1.62Z" transform="translate(-90.46 -70.99)"/><ellipse class="cls-32" cx="187.82" cy="48.86" rx="1.33" ry="1.57"/><ellipse class="cls-32" cx="153.52" cy="48.86" rx="1.33" ry="1.57"/><path class="cls-33" d="M205.6,147.49s14.15,41,33.6,51.56C239.2,199.05,216.6,196,205.6,147.49Z" transform="translate(-90.46 -70.99)"/></svg>