<svg id="Layer_1" data-name="Layer 1" xmlns="http://www.w3.org/2000/svg" xmlns:xlink="http://www.w3.org/1999/xlink" viewBox="0 0 353.62 417.9"><defs><style>.cls-1{fill:#e4e1c7;}.cls-2{fill:#512e2a;}.cls-3,.cls-4{fill:#9e2b20;}.cls-14,.cls-23,.cls-4,.cls-6{stroke:#231f20;}.cls-14,.cls-15,.cls-16,.cls-17,.cls-21,.cls-22,.cls-23,.cls-32,.cls-4,.cls-6,.cls-8{stroke-miterlimit:10;}.cls-5{fill:#231f20;}.cls-16,.cls-6,.cls-8{fill:none;}.cls-23,.cls-6{stroke-width:0.25px;}.cls-7{fill:#c2b59b;}.cls-8{stroke:#9b8579;}.cls-9{fill:#b1a58e;}.cls-10{fill:#9b8579;}.cls-11{fill:#1e4496;}.cls-12,.cls-17{fill:#234093;}.cls-13{fill:#124b9a;}.cls-14,.cls-15,.cls-20,.cls-21,.cls-22,.cls-23{fill:#fff;}.cls-15{stroke:#f9a560;}.cls-16{stroke:#283c91;}.cls-17{stroke:#262262;stroke-width:0.5px;}.cls-18{fill:#fff200;}.cls-19{fill:#d1d3d4;}.cls-21{stroke:url(#White_Black);}.cls-22{stroke:url(#White_Black-2);}.cls-24{fill:#fde79e;}.cls-25{fill:#fbeac8;}.cls-26{fill:#e5e1c5;}.cls-27{fill:#f9c9de;}.cls-28{fill:#8d536f;}.cls-29{fill:#e3e2db;}.cls-30{fill:#d0cca8;}.cls-31{fill:url(#White_Black-3);}.cls-32{fill:#2e3192;stroke:#00aeef;}.cls-33{fill:#cfcdb4;}</style><linearGradient id="White_Black" x1="266.5" y1="119.85" x2="294.91" y2="119.85" gradientTransform="matrix(1, 0, 0, -1, -37.92, 239.69)" gradientUnits="userSpaceOnUse"><stop offset="0" stop-color="#fff"/><stop offset="1" stop-color="#231f20"/></linearGradient><linearGradient id="White_Black-2" x1="230.78" y1="119.85" x2="259.19" y2="119.85" gradientTransform="matrix(1, 0, 0, -1, 33.52, 239.69)" xlink:href="#White_Black"/><linearGradient id="White_Black-3" x1="264.39" y1="118.86" x2="256.94" y2="118.86" gradientTransform="matrix(1, 0, 0, 1, 0, 0)" xlink:href="#White_Black"/></defs><title>16</title><polyline class="cls-1" points="199.84 334.96 193.23 400.24 185.8 399.87 185.05 334.22"/><polyline class="cls-1" points="153.74 334.96 160.34 400.24 167.78 399.87 168.53 334.22"/><path class="cls-2" d="M230.77,475.18s-20.25,10.71-7.52,12.21l12.73,1.5h16.19s6.73-4.74,6.73-11.59" transform="translate(-82.91 -70.99)"/><path class="cls-2" d="M286.2,475.18s20.24,10.71,7.52,12.21L281,488.89H264.8s-5.9-4.74-5.9-11.59" transform="translate(-82.91 -70.99)"/><path class="cls-3" d="M244.2,470.46s-33.1,10.7-20.38,12.2l12.73,1.49h16.19s6.16,0,6.16-6.85l-7.23-6.23h-.53" transform="translate(-82.91 -70.99)"/><path class="cls-3" d="M266.6,470.13l-7.39,7.17c0,6.85,6.16,6.85,6.16,6.85h16.19l12.73-1.49c12.73-1.5-18.15-12.21-18.15-12.21" transform="translate(-82.91 -70.99)"/><path class="cls-4" d="M259.31,477" transform="translate(-82.91 -70.99)"/><path class="cls-5" d="M270.57,414.52v2.22a3.22,3.22,0,0,1,0,.62,3.21,3.21,0,0,0,0-.62v-2.22a2.57,2.57,0,0,1,0-.62,2.57,2.57,0,0,0,0,.62Z" transform="translate(-82.91 -70.99)"/><path class="cls-5" d="M275.4,418.15v1.21a3.22,3.22,0,0,1,0,.62,3.2,3.2,0,0,0,0-.62v-1.21a3.22,3.22,0,0,1,0-.62,3.2,3.2,0,0,0,0,.62Z" transform="translate(-82.91 -70.99)"/><path class="cls-5" d="M277,422v1.21a2.57,2.57,0,0,1,0,.62,2.57,2.57,0,0,0,0-.62V422a3.33,3.33,0,0,1,0-.63,3.32,3.32,0,0,0,0,.63Z" transform="translate(-82.91 -70.99)"/><path class="cls-5" d="M280,421.78v.2a3.22,3.22,0,0,1,0,.62,3.21,3.21,0,0,0,0-.62v-.2a2.66,2.66,0,0,1,0-.63,2.66,2.66,0,0,0,0,.63Z" transform="translate(-82.91 -70.99)"/><path class="cls-5" d="M274,429.86s0-1.25,0-1.25,0,1.25,0,1.25Z" transform="translate(-82.91 -70.99)"/><path class="cls-5" d="M271.38,422v1.41a3.21,3.21,0,0,1,0,.62,3.21,3.21,0,0,0,0-.62V422a3.33,3.33,0,0,1,0-.63,3.32,3.32,0,0,0,0,.63Z" transform="translate(-82.91 -70.99)"/><path class="cls-5" d="M271.58,431v1.62a2.57,2.57,0,0,1,0,.62,2.57,2.57,0,0,0,0-.62V431a3.21,3.21,0,0,1,0-.62,3.21,3.21,0,0,0,0,.62Z" transform="translate(-82.91 -70.99)"/><path class="cls-5" d="M277.82,434.07v.6a3.33,3.33,0,0,1,0,.63,3.32,3.32,0,0,0,0-.63v-.6a3.33,3.33,0,0,1,0-.63,3.32,3.32,0,0,0,0,.63Z" transform="translate(-82.91 -70.99)"/><path class="cls-5" d="M275.81,436.28v1.62a2.57,2.57,0,0,1,0,.62,2.57,2.57,0,0,0,0-.62v-1.62a3.21,3.21,0,0,1,0-.62,3.21,3.21,0,0,0,0,.62Z" transform="translate(-82.91 -70.99)"/><path class="cls-5" d="M273.19,437.29v1a2.57,2.57,0,0,1,0,.62,2.57,2.57,0,0,0,0-.62v-1a3.22,3.22,0,0,1,0-.62,3.21,3.21,0,0,0,0,.62Z" transform="translate(-82.91 -70.99)"/><path class="cls-5" d="M271.17,437.49v.2a3.33,3.33,0,0,1,0,.63,3.32,3.32,0,0,0,0-.63v-.2a3.22,3.22,0,0,1,0-.62,3.21,3.21,0,0,0,0,.62Z" transform="translate(-82.91 -70.99)"/><path class="cls-5" d="M270.77,441.72v1a3.32,3.32,0,0,1,0,.63,3.31,3.31,0,0,0,0-.63v-1a2.57,2.57,0,0,1,0-.62,2.57,2.57,0,0,0,0,.62Z" transform="translate(-82.91 -70.99)"/><path class="cls-5" d="M276.82,443.34v.6a3.21,3.21,0,0,1,0,.62,3.2,3.2,0,0,0,0-.62v-.6a3.33,3.33,0,0,1,0-.63,3.32,3.32,0,0,0,0,.63Z" transform="translate(-82.91 -70.99)"/><path class="cls-5" d="M274.8,446v.21a3.21,3.21,0,0,1,0,.62,3.21,3.21,0,0,0,0-.62V446a2.57,2.57,0,0,1,0-.62,2.57,2.57,0,0,0,0,.62Z" transform="translate(-82.91 -70.99)"/><path class="cls-5" d="M272,449v1.21a3.21,3.21,0,0,1,0,.62,3.21,3.21,0,0,0,0-.62V449a2.66,2.66,0,0,1,0-.63,2.66,2.66,0,0,0,0,.63Z" transform="translate(-82.91 -70.99)"/><path class="cls-5" d="M276,451.6v.2a3.22,3.22,0,0,1,0,.62,3.21,3.21,0,0,0,0-.62v-.2a2.66,2.66,0,0,1,0-.63,2.66,2.66,0,0,0,0,.63Z" transform="translate(-82.91 -70.99)"/><path class="cls-5" d="M272.59,454.24s0-1.25,0-1.25,0,1.25,0,1.25Z" transform="translate(-82.91 -70.99)"/><path class="cls-5" d="M279.64,412.71v.81a3.21,3.21,0,0,1,0,.62,2.57,2.57,0,0,0,0-.62v-.81a3.22,3.22,0,0,1,0-.62,3.21,3.21,0,0,0,0,.62Z" transform="translate(-82.91 -70.99)"/><path class="cls-5" d="M272,411.1s0-1.25,0-1.25,0,1.25,0,1.25Z" transform="translate(-82.91 -70.99)"/><path class="cls-5" d="M276,409.9v-1.25s0,1.25,0,1.25Z" transform="translate(-82.91 -70.99)"/><path class="cls-5" d="M275.61,410.7v.6a3.21,3.21,0,0,1,0,.62,2.56,2.56,0,0,0,0-.62v-.6a3.33,3.33,0,0,1,0-.63,3.32,3.32,0,0,0,0,.63Z" transform="translate(-82.91 -70.99)"/><path class="cls-5" d="M280.64,408.88v1a3.22,3.22,0,0,1,0,.62,3.2,3.2,0,0,0,0-.62v-1a3.22,3.22,0,0,1,0-.62,3.21,3.21,0,0,0,0,.62Z" transform="translate(-82.91 -70.99)"/><path class="cls-5" d="M244.38,409.27v.4a3.31,3.31,0,0,1,0,.63,2.66,2.66,0,0,0,0-.63v-.4a3.22,3.22,0,0,1,0-.62,3.21,3.21,0,0,0,0,.62Z" transform="translate(-82.91 -70.99)"/><path class="cls-5" d="M248.82,409.31v-1.25s0,1.25,0,1.25Z" transform="translate(-82.91 -70.99)"/><path class="cls-6" d="M281.56,414a2,2,0,0,0,.64,2.18" transform="translate(-82.91 -70.99)"/><path class="cls-6" d="M281.53,411.07a2,2,0,0,1,.7,1.62" transform="translate(-82.91 -70.99)"/><path class="cls-6" d="M277,411.75a1.07,1.07,0,0,1-.55,1.22" transform="translate(-82.91 -70.99)"/><path class="cls-6" d="M271.39,411.94v1.5" transform="translate(-82.91 -70.99)"/><path class="cls-6" d="M268.77,411.19a2.15,2.15,0,0,1-.82,1.44" transform="translate(-82.91 -70.99)"/><path class="cls-6" d="M267.94,409.13a2.32,2.32,0,0,1-.5,1.48" transform="translate(-82.91 -70.99)"/><path class="cls-6" d="M268.58,414.84a3.35,3.35,0,0,0-.86,1.78" transform="translate(-82.91 -70.99)"/><path class="cls-6" d="M269.44,420a2.06,2.06,0,0,1-.49,1.12" transform="translate(-82.91 -70.99)"/><path class="cls-6" d="M272.49,416.26a1.31,1.31,0,0,1-.23,1.23" transform="translate(-82.91 -70.99)"/><path class="cls-6" d="M275.91,415.75a6.64,6.64,0,0,1,1.1.88" transform="translate(-82.91 -70.99)"/><path class="cls-6" d="M278.6,420.28l.48.65" transform="translate(-82.91 -70.99)"/><path class="cls-6" d="M274.48,420v.93" transform="translate(-82.91 -70.99)"/><path class="cls-6" d="M280.6,422.7a1.34,1.34,0,0,1,.24,1.13" transform="translate(-82.91 -70.99)"/><path class="cls-6" d="M279.72,426.09l.86,1.3" transform="translate(-82.91 -70.99)"/><path class="cls-6" d="M273,424.86a2.8,2.8,0,0,1-.91,1.34" transform="translate(-82.91 -70.99)"/><path class="cls-6" d="M269.52,425a1.92,1.92,0,0,1-1,1.71" transform="translate(-82.91 -70.99)"/><path class="cls-6" d="M269.24,431.15a1.72,1.72,0,0,1-.38,1.11" transform="translate(-82.91 -70.99)"/><path class="cls-6" d="M274.86,429.46v1" transform="translate(-82.91 -70.99)"/><path class="cls-6" d="M276.45,429.28a1,1,0,0,1,.75.46" transform="translate(-82.91 -70.99)"/><path class="cls-6" d="M280.1,430.78l.84.47" transform="translate(-82.91 -70.99)"/><path class="cls-6" d="M279.48,432.75a2.32,2.32,0,0,0,.61,2.25" transform="translate(-82.91 -70.99)"/><path class="cls-6" d="M268.61,434.85a2.07,2.07,0,0,1-1.06.27" transform="translate(-82.91 -70.99)"/><path class="cls-5" d="M248.69,415.35v2.21a3.33,3.33,0,0,1,0,.63,3.32,3.32,0,0,0,0-.63v-2.21a3.33,3.33,0,0,1,0-.63,3.32,3.32,0,0,0,0,.63Z" transform="translate(-82.91 -70.99)"/><path class="cls-5" d="M243.86,419v1.21a2.66,2.66,0,0,1,0,.63,2.66,2.66,0,0,0,0-.63V419a3.21,3.21,0,0,1,0-.62,3.21,3.21,0,0,0,0,.62Z" transform="translate(-82.91 -70.99)"/><path class="cls-5" d="M242.25,422.8V424a2.66,2.66,0,0,1,0,.63,2.66,2.66,0,0,0,0-.63V422.8a3.21,3.21,0,0,1,0-.62,3.21,3.21,0,0,0,0,.62Z" transform="translate(-82.91 -70.99)"/><path class="cls-5" d="M239.22,422.6v.2a3.33,3.33,0,0,1,0,.63,3.32,3.32,0,0,0,0-.63v-.2a3.22,3.22,0,0,1,0-.62,3.21,3.21,0,0,0,0,.62Z" transform="translate(-82.91 -70.99)"/><path class="cls-5" d="M245.28,430.68v-1.25s0,1.25,0,1.25Z" transform="translate(-82.91 -70.99)"/><path class="cls-5" d="M247.89,422.8v1.41a2.66,2.66,0,0,1,0,.63,2.66,2.66,0,0,0,0-.63V422.8a3.21,3.21,0,0,1,0-.62,3.21,3.21,0,0,0,0,.62Z" transform="translate(-82.91 -70.99)"/><path class="cls-5" d="M247.69,431.87v1.61a2.66,2.66,0,0,1,0,.63,2.66,2.66,0,0,0,0-.63v-1.61a3.32,3.32,0,0,1,0-.63,3.31,3.31,0,0,0,0,.63Z" transform="translate(-82.91 -70.99)"/><path class="cls-5" d="M241.44,434.89v.61a3.21,3.21,0,0,1,0,.62,3.21,3.21,0,0,0,0-.62v-.61a2.57,2.57,0,0,1,0-.62,2.57,2.57,0,0,0,0,.62Z" transform="translate(-82.91 -70.99)"/><path class="cls-5" d="M243.46,437.11v1.61a3.21,3.21,0,0,1,0,.62,2.56,2.56,0,0,0,0-.62v-1.61a3.33,3.33,0,0,1,0-.63,3.32,3.32,0,0,0,0,.63Z" transform="translate(-82.91 -70.99)"/><path class="cls-5" d="M246.07,438.12v1a3.33,3.33,0,0,1,0,.63,3.32,3.32,0,0,0,0-.63v-1a3.33,3.33,0,0,1,0-.63,3.32,3.32,0,0,0,0,.63Z" transform="translate(-82.91 -70.99)"/><path class="cls-5" d="M248.09,438.32v.2a3.22,3.22,0,0,1,0,.62,3.21,3.21,0,0,0,0-.62v-.2a2.66,2.66,0,0,1,0-.63,2.66,2.66,0,0,0,0,.63Z" transform="translate(-82.91 -70.99)"/><path class="cls-5" d="M248.49,442.55v1a3.21,3.21,0,0,1,0,.62,3.21,3.21,0,0,0,0-.62v-1a3.33,3.33,0,0,1,0-.63,3.32,3.32,0,0,0,0,.63Z" transform="translate(-82.91 -70.99)"/><path class="cls-5" d="M242.45,444.16v.6a2.66,2.66,0,0,1,0,.63,2.66,2.66,0,0,0,0-.63v-.6a3.32,3.32,0,0,1,0-.63,3.32,3.32,0,0,0,0,.63Z" transform="translate(-82.91 -70.99)"/><path class="cls-5" d="M244.46,446.78v.2a3.32,3.32,0,0,1,0,.63,3.32,3.32,0,0,0,0-.63v-.2a3.32,3.32,0,0,1,0-.63,3.32,3.32,0,0,0,0,.63Z" transform="translate(-82.91 -70.99)"/><path class="cls-5" d="M247.28,449.8V451a3.32,3.32,0,0,1,0,.63,3.32,3.32,0,0,0,0-.63V449.8a3.22,3.22,0,0,1,0-.62,3.21,3.21,0,0,0,0,.62Z" transform="translate(-82.91 -70.99)"/><path class="cls-5" d="M243.25,452.42v.2a3.33,3.33,0,0,1,0,.63,3.32,3.32,0,0,0,0-.63v-.2a3.22,3.22,0,0,1,0-.62,3.2,3.2,0,0,0,0,.62Z" transform="translate(-82.91 -70.99)"/><path class="cls-5" d="M246.69,455.06s0-1.25,0-1.25,0,1.25,0,1.25Z" transform="translate(-82.91 -70.99)"/><path class="cls-5" d="M239.63,413.53v.81a2.66,2.66,0,0,1,0,.63,2.66,2.66,0,0,0,0-.63v-.81a3.21,3.21,0,0,1,0-.62,3.21,3.21,0,0,0,0,.62Z" transform="translate(-82.91 -70.99)"/><path class="cls-5" d="M247.29,409.93s0-1.25,0-1.25,0,1.25,0,1.25Z" transform="translate(-82.91 -70.99)"/><path class="cls-5" d="M243.26,410.72s0-1.25,0-1.25,0,1.25,0,1.25Z" transform="translate(-82.91 -70.99)"/><path class="cls-5" d="M243.66,411.52v.6a2.66,2.66,0,0,1,0,.63,2.66,2.66,0,0,0,0-.63v-.6a3.32,3.32,0,0,1,0-.63,3.32,3.32,0,0,0,0,.63Z" transform="translate(-82.91 -70.99)"/><path class="cls-5" d="M238.62,409.71v1a3.33,3.33,0,0,1,0,.63,3.31,3.31,0,0,0,0-.63v-1a2.66,2.66,0,0,1,0-.63,2.66,2.66,0,0,0,0,.63Z" transform="translate(-82.91 -70.99)"/><path class="cls-6" d="M237.72,414.84a2,2,0,0,1-.64,2.19" transform="translate(-82.91 -70.99)"/><path class="cls-6" d="M237.74,411.89a2,2,0,0,0-.7,1.62" transform="translate(-82.91 -70.99)"/><path class="cls-6" d="M242.28,412.58a1.07,1.07,0,0,0,.54,1.22" transform="translate(-82.91 -70.99)"/><path class="cls-6" d="M247.88,412.76v1.5" transform="translate(-82.91 -70.99)"/><path class="cls-6" d="M250.5,412a2.14,2.14,0,0,0,.82,1.44" transform="translate(-82.91 -70.99)"/><path class="cls-6" d="M251.34,410a2.3,2.3,0,0,0,.49,1.49" transform="translate(-82.91 -70.99)"/><path class="cls-6" d="M250.7,415.66a3.26,3.26,0,0,1,.85,1.78" transform="translate(-82.91 -70.99)"/><path class="cls-6" d="M249.84,420.82a2,2,0,0,0,.49,1.12" transform="translate(-82.91 -70.99)"/><path class="cls-6" d="M246.78,417.08a1.33,1.33,0,0,0,.24,1.23" transform="translate(-82.91 -70.99)"/><path class="cls-6" d="M243.37,416.57a6.74,6.74,0,0,0-1.1.88" transform="translate(-82.91 -70.99)"/><path class="cls-6" d="M240.68,421.11l-.48.64" transform="translate(-82.91 -70.99)"/><path class="cls-6" d="M244.79,420.82v.94" transform="translate(-82.91 -70.99)"/><path class="cls-6" d="M238.68,423.52a1.37,1.37,0,0,0-.25,1.14" transform="translate(-82.91 -70.99)"/><path class="cls-6" d="M239.55,426.91l-.85,1.31" transform="translate(-82.91 -70.99)"/><path class="cls-6" d="M246.3,425.69a2.87,2.87,0,0,0,.91,1.33" transform="translate(-82.91 -70.99)"/><path class="cls-6" d="M249.75,425.79a1.92,1.92,0,0,0,1,1.71" transform="translate(-82.91 -70.99)"/><path class="cls-6" d="M250,432a1.7,1.7,0,0,0,.39,1.12" transform="translate(-82.91 -70.99)"/><path class="cls-6" d="M244.42,430.28v1" transform="translate(-82.91 -70.99)"/><path class="cls-6" d="M242.83,430.1a1.06,1.06,0,0,0-.76.46" transform="translate(-82.91 -70.99)"/><path class="cls-6" d="M239.18,431.61l-.85.46" transform="translate(-82.91 -70.99)"/><path class="cls-6" d="M239.79,433.57a2.33,2.33,0,0,1-.6,2.26" transform="translate(-82.91 -70.99)"/><path class="cls-6" d="M250.67,435.67a2,2,0,0,0,1.05.27" transform="translate(-82.91 -70.99)"/><polygon class="cls-7" points="142.51 336.55 212.63 336.55 231.97 271.16 123.17 271.16 142.51 336.55"/><line class="cls-8" x1="177" y1="283.69" x2="177" y2="336.55"/><path class="cls-9" d="M216.54,354l15.06,53.16H225l-17.7-61S214.68,352.69,216.54,354Z" transform="translate(-82.91 -70.99)"/><path class="cls-9" d="M290.72,379.87l4.72,3.08,8.91-5.21,3.06-1.79-1.57-3.24s-10,7.63-15.12,7.16l-2.31,15.94s9.54-.17,12-4.74l3.79-12.8" transform="translate(-82.91 -70.99)"/><path class="cls-10" d="M290.72,379.87l4.76,3h-.07c3.95-2.39,7.94-4.73,11.92-7.08l-.07.21-1.58-3.23.27.06a62,62,0,0,1-7.14,4.65,28.92,28.92,0,0,1-3.87,1.8,10.19,10.19,0,0,1-4.25.81l.27-.21-2.36,15.93-.2-.21a26.4,26.4,0,0,0,6.55-1,12.57,12.57,0,0,0,3-1.31,6.61,6.61,0,0,0,2.31-2.27v0c1.27-4.26,2.61-8.51,3.92-12.76-1.23,4.28-2.41,8.57-3.66,12.84v0h0a6.84,6.84,0,0,1-2.39,2.39,13.12,13.12,0,0,1-3.09,1.37,26.73,26.73,0,0,1-6.64,1.1h-.22l0-.23,2.26-15.95,0-.22.23,0a9.82,9.82,0,0,0,4-.75,30.69,30.69,0,0,0,3.83-1.75,58.92,58.92,0,0,0,7.12-4.56l.18-.13.09.19,1.55,3.25.07.14-.13.07c-4,2.32-8,4.64-12,6.92l0,0,0,0Z" transform="translate(-82.91 -70.99)"/><path class="cls-9" d="M230.4,379.87,225.67,383l-8.91-5.21L213.7,376l1.57-3.24s10,7.63,15.13,7.16l2.31,15.94s-9.55-.17-12-4.74l-3.79-12.8" transform="translate(-82.91 -70.99)"/><path class="cls-10" d="M230.4,379.87,225.71,383l0,0,0,0c-4-2.28-8-4.6-12-6.92l-.12-.07.06-.14,1.56-3.25.09-.19.17.13a60.53,60.53,0,0,0,7.12,4.56,30.69,30.69,0,0,0,3.83,1.75,9.87,9.87,0,0,0,4,.75l.23,0,0,.22,2.26,15.95,0,.23h-.23a26.58,26.58,0,0,1-6.63-1.1,12.94,12.94,0,0,1-3.09-1.37,6.76,6.76,0,0,1-2.39-2.39h0v0c-1.26-4.27-2.44-8.56-3.66-12.84,1.3,4.25,2.65,8.5,3.92,12.76v0a6.53,6.53,0,0,0,2.31,2.27,12.67,12.67,0,0,0,3,1.31,26.47,26.47,0,0,0,6.55,1l-.19.21-2.36-15.93.26.21a10.14,10.14,0,0,1-4.24-.81,29,29,0,0,1-3.88-1.8,61,61,0,0,1-7.13-4.65l.26-.06L213.85,376l-.06-.21c4,2.35,8,4.69,11.92,7.08h-.07Z" transform="translate(-82.91 -70.99)"/><path class="cls-9" d="M260.48,369.14a68.41,68.41,0,0,0,8.25-.5l-1,38.89h-7.27Z" transform="translate(-82.91 -70.99)"/><path class="cls-11" d="M325.48,159.22s181.88,19.42,80.1,177.92l-27-10.62" transform="translate(-82.91 -70.99)"/><path class="cls-12" d="M194,159.22S12.07,178.64,113.86,337.14l27-10.62" transform="translate(-82.91 -70.99)"/><ellipse class="cls-13" cx="177.45" cy="196.11" rx="135.55" ry="123.25"/><path class="cls-14" d="M185,350.53" transform="translate(-82.91 -70.99)"/><path class="cls-15" d="M118,335.73s8.39,11.31,32,7.6l2.2-1,.46-.36s-11.18-14-11.63-16.33" transform="translate(-82.91 -70.99)"/><path class="cls-15" d="M403.1,336.94s-8.39,11.31-32,7.6l-2.19-1-.47-.37s11.18-14,11.64-16.32" transform="translate(-82.91 -70.99)"/><polyline class="cls-16" points="178.25 317.92 178.25 108.84 197.79 122.26 235.06 95.12"/><path class="cls-17" d="M169.44,224.45s-14.49,23.31-8.33,33.41l16.47,7.38,20.09-5.05,9.23-33.41" transform="translate(-82.91 -70.99)"/><polyline class="cls-16" points="175.48 317.92 175.48 108.84 155.93 122.26 118.67 95.12"/><path class="cls-18" d="M194.17,190.31l.11-.21a3.39,3.39,0,0,1,1.11-1.23,5.83,5.83,0,0,1,3.44-1,6.1,6.1,0,0,1,2.1.37s.07,0,.09,0L204,185a1.69,1.69,0,0,1,1.39-.5l.18,0,1.62.27h0l-.22.68-.08,0-1.51-.25a.6.6,0,0,0-.62.17l-.87,1,0,0h.07l7.8,1.33a.09.09,0,0,0,.1,0l.59-.52,0-.05h-.08l-1.32-.22a.43.43,0,0,1-.37-.29.33.33,0,0,1,.25-.36.55.55,0,0,1,.36,0l3.54.6h.06l-.22.68h-.07l-1-.18a.11.11,0,0,0-.1,0l-.94.85s0,0,0,.05l.63,2.14s0,0,0,0l.46,0a6.79,6.79,0,0,1,1.63.19,4.71,4.71,0,0,1,2.61,1.57,2.52,2.52,0,0,1,.6,1.83,3.44,3.44,0,0,1-2.45,2.85,6.09,6.09,0,0,1-2.71.43l-.44,0h-.06l-.52-.09h-.06l-.74-.22a4.24,4.24,0,0,1-2.16-1.59,2.52,2.52,0,0,1-.45-1.78l0-.2h-.08l-2-.33a.64.64,0,0,1-.4-.23l-.59-.8-1.56-2.11L202.92,188l-.26-.34-.87,1h0l.06,0a3.05,3.05,0,0,1,1.71,3,2.7,2.7,0,0,1-.48,1.17,4.67,4.67,0,0,1-2.82,1.74,6.5,6.5,0,0,1-2,.14l-.31,0-.54-.09-.05,0c-.23-.07-.47-.12-.69-.2a4,4,0,0,1-2.48-2.1,2.39,2.39,0,0,1-.18-1.37c0-.07,0-.15,0-.23Zm7.07-1.08,0,0c-.49.53-1,1.06-1.46,1.6l-.52.57a.61.61,0,0,1-.65.12c-.26-.1-.32-.32-.15-.51l2-2.16,0,0a4.72,4.72,0,0,0-4.92,1.06c-1.07,1.27-.52,2.9,1.21,3.7a4.82,4.82,0,0,0,5.22-.77C203.08,191.62,202.67,190.08,201.24,189.23Zm8.6,4.28c-.19.94.41,2.13,2,2.74a5,5,0,0,0,4.65-.59,2.16,2.16,0,0,0,.33-3.33,4.44,4.44,0,0,0-3.45-1.2c0,.16.09.33.14.49.2.7.41,1.39.62,2.09a.28.28,0,0,1,0,.22.56.56,0,0,1-.59.2l-3.57-.61Zm-6.57-6.5,3.7,5,4.12-3.67Zm8.91,3.55-.49-1.65-3.94,3.51,1.35.23A4.53,4.53,0,0,1,212.18,190.56Zm-2.09,2.26,2.91.5-.61-2.06A3.53,3.53,0,0,0,210.09,192.82Z" transform="translate(-82.91 -70.99)"/><path class="cls-18" d="M202.1,214.57c0-.08,0-.15,0-.23a2.76,2.76,0,0,1,.68-1.38,5,5,0,0,1,3-1.55,6.53,6.53,0,0,1,2.16,0c.05,0,.07,0,.09,0l1.8-3.59a1.45,1.45,0,0,1,1.19-.72H213v.7h-1.64a.53.53,0,0,0-.55.28l-.53,1.07a.08.08,0,0,0,0,.05h8.08a.11.11,0,0,0,.1,0c.13-.21.27-.41.4-.61l0-.05h-1.43a.52.52,0,0,1-.46-.22.3.3,0,0,1,.12-.39.68.68,0,0,1,.35-.09h3.7v.7H220a.08.08,0,0,0-.08,0l-.65,1a.06.06,0,0,0,0,.06c.44.66.87,1.32,1.31,2l0,0,.45-.09a6.33,6.33,0,0,1,1.63-.09,5.65,5.65,0,0,1,3.06,1.1,3.13,3.13,0,0,1,1.18,1.68,2.86,2.86,0,0,1-1.46,3.17,5.45,5.45,0,0,1-2.5.88l-.43,0h-.67c-.26,0-.53,0-.79-.09a5.24,5.24,0,0,1-2.62-1.18,3,3,0,0,1-1-1.66,1.18,1.18,0,0,1,0-.2h-2.09a.64.64,0,0,1-.46-.14l-.83-.68-2.21-1.8-1.93-1.57-.35-.29-.54,1.07h0l.06,0a3.69,3.69,0,0,1,2.64,2.64,2.17,2.17,0,0,1-.08,1.21,3.68,3.68,0,0,1-2.18,2.16,5.77,5.77,0,0,1-1.92.48l-.31,0h-.61c-.24,0-.49,0-.73-.08a5,5,0,0,1-3.1-1.62,2.81,2.81,0,0,1-.61-1.31c0-.07,0-.15,0-.23Zm6.53-2.23,0,0-.9,1.79-.32.65a.54.54,0,0,1-.59.22c-.28-.06-.42-.26-.31-.47l1.21-2.43,0-.05c-1.79-.28-3.81.41-4.44,1.85s.43,2.9,2.37,3.39,4.1-.22,4.83-1.61S210.29,212.93,208.63,212.34Zm9.76,2.73a3.18,3.18,0,0,0,2.81,2.34,4.51,4.51,0,0,0,4.33-1.34,2.21,2.21,0,0,0-.76-3.3,4.93,4.93,0,0,0-3.75-.59l.3.45,1.28,1.93a.25.25,0,0,1,.05.22c-.05.18-.24.29-.51.29h-3.75Zm-8.51-5.22,5.22,4.25,2.82-4.25Zm9.82,2-1-1.51L216,214.36h1.39A3.65,3.65,0,0,1,219.7,211.81Zm-1.3,2.55h3l-1.26-1.9A2.87,2.87,0,0,0,218.4,214.36Z" transform="translate(-82.91 -70.99)"/><path class="cls-18" d="M216.45,238.87a1.85,1.85,0,0,1,0-.23,2.68,2.68,0,0,1,.68-1.38,5,5,0,0,1,3-1.55,6.53,6.53,0,0,1,2.16,0c.05,0,.07,0,.09,0l1.8-3.59a1.45,1.45,0,0,1,1.19-.72l.18,0h1.71v.7h-1.63a.53.53,0,0,0-.55.28l-.54,1.07,0,0h8.09c.05,0,.08,0,.1,0l.4-.6,0-.05h-1.43a.52.52,0,0,1-.46-.22.3.3,0,0,1,.12-.39.68.68,0,0,1,.35-.09h3.7v.7h-1.15a.08.08,0,0,0-.08,0l-.65,1a.06.06,0,0,0,0,.06c.43.66.87,1.32,1.31,2,0,0,0,0,0,0l.44-.09a6.43,6.43,0,0,1,1.64-.09,5.58,5.58,0,0,1,3.05,1.1,3.07,3.07,0,0,1,1.19,1.68,2.86,2.86,0,0,1-1.46,3.17,5.45,5.45,0,0,1-2.5.87l-.44,0h-.66c-.26,0-.53,0-.79-.09a5.24,5.24,0,0,1-2.62-1.18,3,3,0,0,1-1-1.66,1.42,1.42,0,0,1,0-.2h-2.09a.64.64,0,0,1-.46-.15l-.84-.67-2.2-1.8-1.93-1.57c-.11-.1-.23-.19-.36-.29l-.53,1.06h0l.06,0a3.69,3.69,0,0,1,2.64,2.64,2.27,2.27,0,0,1-.08,1.21,3.68,3.68,0,0,1-2.18,2.16,5.77,5.77,0,0,1-1.92.48l-.31,0h-.61c-.24,0-.49,0-.73-.08a4.9,4.9,0,0,1-3.1-1.63,2.73,2.73,0,0,1-.61-1.3,1.85,1.85,0,0,1,0-.23Zm6.52-2.23s0,0,0,.05l-.9,1.79c-.11.22-.22.43-.32.65a.56.56,0,0,1-.6.22c-.27-.06-.41-.26-.3-.47l1.21-2.43,0,0c-1.8-.28-3.81.41-4.44,1.85s.43,2.9,2.37,3.39,4.1-.22,4.83-1.61S224.64,237.23,223,236.64Zm9.77,2.73a3.18,3.18,0,0,0,2.81,2.34,4.53,4.53,0,0,0,4.33-1.34,2.21,2.21,0,0,0-.76-3.3,4.89,4.89,0,0,0-3.75-.59l.3.45,1.28,1.93a.29.29,0,0,1,.05.22.48.48,0,0,1-.51.29h-3.75Zm-8.51-5.23,5.22,4.26,2.82-4.26Zm9.82,2-1-1.51-2.69,4.06h1.39A3.65,3.65,0,0,1,234.05,236.11Zm-1.3,2.55h3l-1.26-1.9A2.87,2.87,0,0,0,232.75,238.66Z" transform="translate(-82.91 -70.99)"/><path class="cls-18" d="M221.8,269a1.7,1.7,0,0,0,0-.22,2.72,2.72,0,0,1,.68-1.38,5,5,0,0,1,3-1.55,6.27,6.27,0,0,1,2.16,0c.06,0,.07,0,.09,0l1.8-3.6a1.47,1.47,0,0,1,1.2-.72h1.89v.7H231c-.29,0-.45.08-.54.27l-.54,1.07,0,.05H238a.1.1,0,0,0,.09,0l.4-.6,0-.05h-1.43a.53.53,0,0,1-.46-.22.3.3,0,0,1,.13-.39.54.54,0,0,1,.34-.09h3.71v.7h-1.15a.11.11,0,0,0-.09,0l-.64,1s0,0,0,.06l1.3,2,0,0,.45-.09a6.41,6.41,0,0,1,1.64-.09,5.63,5.63,0,0,1,3,1.09,3.08,3.08,0,0,1,1.18,1.68,2.87,2.87,0,0,1-1.46,3.18,5.45,5.45,0,0,1-2.5.87l-.43,0h-.66c-.27,0-.54-.05-.79-.09a5.12,5.12,0,0,1-2.62-1.19,3,3,0,0,1-1-1.66,1.62,1.62,0,0,0,0-.19H235a.71.71,0,0,1-.46-.15l-.83-.68-2.21-1.79-1.92-1.58-.36-.29-.54,1.07h0l.06,0a3.7,3.7,0,0,1,2.64,2.64,2.21,2.21,0,0,1-.08,1.22,3.71,3.71,0,0,1-2.18,2.16,6,6,0,0,1-1.91.48l-.32,0h-.6c-.25,0-.5,0-.74-.08a5,5,0,0,1-3.1-1.63,2.77,2.77,0,0,1-.61-1.3,1.57,1.57,0,0,0,0-.23Zm6.53-2.22,0,0-.9,1.8-.32.64a.54.54,0,0,1-.59.23c-.28-.06-.41-.26-.31-.47l1.22-2.43a.08.08,0,0,1,0-.05c-1.79-.29-3.8.41-4.44,1.84s.43,2.91,2.38,3.4,4.09-.22,4.82-1.61S230,267.4,228.33,266.81Zm9.76,2.73a3.16,3.16,0,0,0,2.81,2.33,4.53,4.53,0,0,0,4.33-1.33,2.21,2.21,0,0,0-.75-3.3,4.91,4.91,0,0,0-3.76-.59l.3.44L242.3,269a.24.24,0,0,1,0,.21.47.47,0,0,1-.5.3h-3.76Zm-8.5-5.23,5.22,4.25,2.81-4.25Zm9.82,2-1-1.52-2.69,4.07h1.39A3.62,3.62,0,0,1,239.41,266.28Zm-1.31,2.55h3l-1.27-1.9A2.9,2.9,0,0,0,238.1,268.83Z" transform="translate(-82.91 -70.99)"/><path class="cls-18" d="M221.8,300.64a2.07,2.07,0,0,0,0-.22,2.75,2.75,0,0,1,.68-1.39,5,5,0,0,1,3-1.55,6.53,6.53,0,0,1,2.16,0c.06,0,.07,0,.09,0l1.8-3.6a1.47,1.47,0,0,1,1.2-.72h1.89v.69H231c-.29,0-.45.08-.54.28l-.54,1.07s0,0,0,.05H238a.1.1,0,0,0,.09,0l.4-.6,0-.06h-1.43a.53.53,0,0,1-.46-.22.3.3,0,0,1,.13-.39.62.62,0,0,1,.34-.09h3.71v.7h-1.15c-.05,0-.07,0-.09,0l-.64,1s0,.05,0,.06c.43.66.86,1.32,1.3,2l0,0,.45-.09a6,6,0,0,1,1.64-.08,5.56,5.56,0,0,1,3,1.09,3.08,3.08,0,0,1,1.18,1.68,2.85,2.85,0,0,1-1.46,3.17,5.45,5.45,0,0,1-2.5.88l-.43,0h-.66c-.27,0-.54,0-.79-.09a5.2,5.2,0,0,1-2.62-1.18,3,3,0,0,1-1-1.66,1.29,1.29,0,0,0,0-.19H235a.71.71,0,0,1-.46-.15l-.83-.68-2.21-1.8L229.57,297l-.36-.29-.54,1.07h0l.06,0a3.69,3.69,0,0,1,2.64,2.64,2.17,2.17,0,0,1-.08,1.21,3.69,3.69,0,0,1-2.18,2.17,5.7,5.7,0,0,1-1.91.47l-.32,0h-.6a6,6,0,0,1-.74-.08,4.92,4.92,0,0,1-3.1-1.62,2.81,2.81,0,0,1-.61-1.31,2.23,2.23,0,0,0,0-.23Zm6.53-2.23,0,0-.9,1.8-.32.64a.54.54,0,0,1-.59.22c-.28-.05-.41-.26-.31-.47l1.22-2.43s0,0,0-.05c-1.79-.28-3.8.41-4.44,1.85s.43,2.9,2.38,3.4,4.09-.23,4.82-1.62S230,299,228.33,298.41Zm9.76,2.74a3.19,3.19,0,0,0,2.81,2.33,4.51,4.51,0,0,0,4.33-1.34,2.21,2.21,0,0,0-.75-3.3,5,5,0,0,0-3.76-.59l.3.45,1.28,1.93a.25.25,0,0,1,0,.22.47.47,0,0,1-.5.29h-3.76Zm-8.5-5.23,5.22,4.25,2.81-4.25Zm9.82,2-1-1.51-2.69,4.06h1.39A3.64,3.64,0,0,1,239.41,297.88Zm-1.31,2.55h3l-1.27-1.9A2.9,2.9,0,0,0,238.1,300.43Z" transform="translate(-82.91 -70.99)"/><path class="cls-18" d="M221.8,323.78a1.7,1.7,0,0,0,0-.22,2.79,2.79,0,0,1,.68-1.39,5,5,0,0,1,3-1.54,6.27,6.27,0,0,1,2.16,0c.06,0,.07,0,.09,0l1.8-3.6a1.47,1.47,0,0,1,1.2-.72h1.89v.7H231c-.29,0-.45.08-.54.27l-.54,1.07,0,.05H238a.1.1,0,0,0,.09,0l.4-.6,0-.06h-1.43a.51.51,0,0,1-.46-.22.28.28,0,0,1,.13-.38.55.55,0,0,1,.34-.1h3.71v.7h-1.15c-.05,0-.07,0-.09,0l-.64,1a0,0,0,0,0,0,.06l1.3,2,0,0,.45-.1a6.89,6.89,0,0,1,1.64-.08,5.63,5.63,0,0,1,3,1.09,3.08,3.08,0,0,1,1.18,1.68,2.87,2.87,0,0,1-1.46,3.18,5.45,5.45,0,0,1-2.5.87l-.43,0h-.66c-.27,0-.54-.05-.79-.09a5.12,5.12,0,0,1-2.62-1.19,3,3,0,0,1-1-1.66,1.29,1.29,0,0,0,0-.19H235a.71.71,0,0,1-.46-.15l-.83-.68-2.21-1.8-1.92-1.57-.36-.29-.54,1.07h0l.06,0a3.69,3.69,0,0,1,2.64,2.64,2.21,2.21,0,0,1-.08,1.22,3.71,3.71,0,0,1-2.18,2.16,6,6,0,0,1-1.91.48l-.32,0h-.6c-.25,0-.5,0-.74-.08a5,5,0,0,1-3.1-1.63,2.77,2.77,0,0,1-.61-1.3,2,2,0,0,0,0-.24Zm6.53-2.23,0,.05-.9,1.8-.32.64a.54.54,0,0,1-.59.23c-.28-.06-.41-.26-.31-.47l1.22-2.44,0-.05c-1.79-.28-3.8.42-4.44,1.85s.43,2.91,2.38,3.4,4.09-.22,4.82-1.62S230,322.15,228.33,321.55Zm9.76,2.74a3.17,3.17,0,0,0,2.81,2.33,4.51,4.51,0,0,0,4.33-1.34,2.21,2.21,0,0,0-.75-3.3,5,5,0,0,0-3.76-.59l.3.45,1.28,1.94a.24.24,0,0,1,0,.21.48.48,0,0,1-.5.3h-3.76Zm-8.5-5.23,5.22,4.25,2.81-4.25Zm9.82,2-1-1.52-2.69,4.07h1.39A3.62,3.62,0,0,1,239.41,321Zm-1.31,2.55h3l-1.27-1.91A2.89,2.89,0,0,0,238.1,323.58Z" transform="translate(-82.91 -70.99)"/><path class="cls-18" d="M221.16,354.49a1.7,1.7,0,0,0,0-.22,2.72,2.72,0,0,1,.68-1.38,5,5,0,0,1,3-1.55,6.27,6.27,0,0,1,2.16,0c.06,0,.07,0,.09,0l1.8-3.6a1.46,1.46,0,0,1,1.19-.72H232v.7H230.4c-.29,0-.45.08-.54.27l-.54,1.07,0,.05h8.09a.1.1,0,0,0,.09,0l.4-.6,0-.05h-1.43a.53.53,0,0,1-.46-.22.3.3,0,0,1,.13-.39.54.54,0,0,1,.34-.09h3.71v.7H239a.1.1,0,0,0-.08,0l-.64,1a.07.07,0,0,0,0,.06l1.31,2,0,0,.45-.09a6.41,6.41,0,0,1,1.64-.09,5.63,5.63,0,0,1,3.05,1.09A3.08,3.08,0,0,1,246,354a2.87,2.87,0,0,1-1.46,3.18,5.45,5.45,0,0,1-2.5.87l-.43,0h-.67c-.26,0-.53-.05-.79-.09a5.13,5.13,0,0,1-2.61-1.19,3,3,0,0,1-1-1.66,1.62,1.62,0,0,0,0-.19h-2.09a.71.71,0,0,1-.46-.15l-.83-.68-2.21-1.79-1.92-1.58-.36-.29-.54,1.07h0l.06,0a3.7,3.7,0,0,1,2.64,2.64,2.21,2.21,0,0,1-.08,1.22,3.71,3.71,0,0,1-2.18,2.16,6,6,0,0,1-1.91.48l-.32,0h-.6c-.25,0-.5,0-.74-.08a5,5,0,0,1-3.1-1.63,2.77,2.77,0,0,1-.61-1.3,1.57,1.57,0,0,0,0-.23Zm6.53-2.22,0,0-.9,1.8c-.11.22-.21.43-.32.64a.54.54,0,0,1-.59.23c-.28-.06-.41-.26-.31-.47l1.22-2.43a.08.08,0,0,1,0-.05c-1.79-.29-3.8.41-4.44,1.84s.43,2.91,2.38,3.4,4.09-.22,4.82-1.61S229.35,352.86,227.69,352.27Zm9.76,2.73a3.16,3.16,0,0,0,2.81,2.33,4.53,4.53,0,0,0,4.33-1.33,2.21,2.21,0,0,0-.75-3.3,4.91,4.91,0,0,0-3.76-.59l.3.44,1.28,1.94a.24.24,0,0,1,.05.21c-.05.19-.24.3-.51.3h-3.75Zm-8.51-5.23,5.23,4.26,2.81-4.26Zm9.83,2-1-1.52-2.69,4.07h1.39A3.62,3.62,0,0,1,238.77,351.74Zm-1.31,2.55h3l-1.26-1.9A2.9,2.9,0,0,0,237.46,354.29Z" transform="translate(-82.91 -70.99)"/><path class="cls-18" d="M204.18,376.57a2.12,2.12,0,0,1-.11-.21,2.44,2.44,0,0,1-.29-1.46,3.23,3.23,0,0,1,1.69-2.36,5.43,5.43,0,0,1,1.93-.71s.06,0,0-.06c-.24-1.26-.47-2.52-.71-3.79a1,1,0,0,1,.6-1l.15-.07,1.48-.55h0l.45.62-.07,0-1.38.51c-.26.09-.35.21-.31.42l.21,1.13a.43.43,0,0,1,0,.05l.06,0,7.13-2.63s0,0,0-.07l0-.66v-.06l-.07,0-1.21.45a.6.6,0,0,1-.54-.05.29.29,0,0,1-.14-.38.43.43,0,0,1,.25-.2l3.23-1.19,0,0,.45.63-.06,0-1,.35s0,0,0,.07l.06,1.07a.07.07,0,0,0,0,.06l2.43,1.32,0,0,.34-.23a5.23,5.23,0,0,1,1.4-.62,6.57,6.57,0,0,1,3.41,0,4.77,4.77,0,0,1,2.13,1.11,2.63,2.63,0,0,1,.75,3.3,3.67,3.67,0,0,1-1.66,1.59l-.37.18,0,0-.48.18h-.06c-.26.06-.5.14-.76.19a6.45,6.45,0,0,1-3.09-.2,4.73,4.73,0,0,1-2-1.14l-.16-.16-.07,0-1.78.66a.81.81,0,0,1-.51,0l-1.17-.33-3.11-.87-2.73-.76-.5-.14.21,1.12h.08a5.5,5.5,0,0,1,4,1.47,2.8,2.8,0,0,1,.71,1.11,2.59,2.59,0,0,1-.55,2.64A4.18,4.18,0,0,1,211.3,378l-.26.13-.49.18h-.06c-.23.06-.46.13-.7.17a6.44,6.44,0,0,1-3.8-.42,4.36,4.36,0,0,1-1.38-1l-.18-.19Zm4.36-4.13s0,0,0,.06c.12.63.24,1.26.35,1.89,0,.22.09.45.13.67s-.13.36-.38.4a.49.49,0,0,1-.58-.32l-.48-2.56a.09.09,0,0,0,0-.05c-1.77.34-3.11,1.61-2.76,3.1s2.25,2.44,4.3,2.24,3.49-1.55,3.25-3S210.4,372.42,208.54,372.44Zm10.43-.78a4.54,4.54,0,0,0,4,1.15c1.73-.28,2.95-1.35,3-2.61s-1.13-2.36-2.79-2.68a4.74,4.74,0,0,0-3.71.71l.55.3,2.38,1.29a.35.35,0,0,1,.18.18c.08.18,0,.34-.26.43l-3.26,1.2Zm-10.91-1.85,7.37,2.07-.23-4.71Zm10-1.48-1.87-1,.22,4.5,1.24-.46A2.64,2.64,0,0,1,218,368.33Zm.48,2.7,2.66-1-2.34-1.27A2.08,2.08,0,0,0,218.52,371Z" transform="translate(-82.91 -70.99)"/><path class="cls-18" d="M172.35,354.94l-.07-.22a2.46,2.46,0,0,1,0-1.47,3.7,3.7,0,0,1,2.16-2.16,5.94,5.94,0,0,1,2-.5c.06,0,.07,0,.07,0,0-1.27.05-2.55.08-3.82a1.07,1.07,0,0,1,.8-1l.16-.05,1.58-.39h0l.32.66-.08,0-1.47.36c-.27.07-.39.18-.39.39,0,.38,0,.75,0,1.13v.05h.07l7.58-1.86s.07,0,.07-.06c0-.22.07-.44.11-.66a.13.13,0,0,1,0-.06l-.08,0-1.28.31a.6.6,0,0,1-.53-.1.28.28,0,0,1-.06-.4.56.56,0,0,1,.28-.17l3.45-.84h.06l.31.66h-.06l-1,.26s-.05,0-.06.05c-.05.36-.11.72-.17,1.07a.07.07,0,0,0,0,.06l2.13,1.56,0,0,.38-.19a5.76,5.76,0,0,1,1.51-.46,6.42,6.42,0,0,1,3.38.33,4.13,4.13,0,0,1,1.88,1.32,2.55,2.55,0,0,1,.06,3.34,4.14,4.14,0,0,1-2,1.4l-.39.14-.06,0-.5.12h-.07c-.26,0-.52.08-.79.1a6.31,6.31,0,0,1-3-.51,4.17,4.17,0,0,1-1.71-1.34l-.13-.17H187l-1.9.47a.8.8,0,0,1-.51,0l-1.1-.45-2.89-1.19-2.54-1-.47-.19,0,1.13h.08a5,5,0,0,1,3.69,1.89,2.58,2.58,0,0,1,.48,1.17,2.81,2.81,0,0,1-1.09,2.55,4.82,4.82,0,0,1-1.59.9l-.29.09-.52.13h-.06c-.24,0-.48.08-.73.09a6.06,6.06,0,0,1-3.66-.82,3.62,3.62,0,0,1-1.17-1.09l-.14-.21Zm5.16-3.62v.05c0,.64,0,1.27,0,1.91,0,.23,0,.45,0,.68s-.2.34-.46.35-.51-.15-.5-.37c0-.86,0-1.72,0-2.59v-.05c-1.82.15-3.41,1.27-3.36,2.78s1.72,2.65,3.79,2.66,3.77-1.16,3.83-2.64S179.36,351.49,177.51,351.32Zm10.47.32a4.17,4.17,0,0,0,3.72,1.56c1.76-.09,3.2-1,3.49-2.27s-.63-2.45-2.21-2.95a5,5,0,0,0-3.82.31l.49.36,2.09,1.53a.35.35,0,0,1,.14.19c0,.19-.09.34-.34.4l-3.47.85Zm-10.41-3,6.87,2.81.74-4.68Zm10.18-.42-1.64-1.2-.71,4.47,1.32-.32A2.8,2.8,0,0,1,187.75,348.25Zm-.08,2.72,2.84-.7-2.06-1.5A2.21,2.21,0,0,0,187.67,351Z" transform="translate(-82.91 -70.99)"/><path class="cls-18" d="M167.63,325.23a1.87,1.87,0,0,0-.07-.22,2.46,2.46,0,0,1,0-1.47,3.68,3.68,0,0,1,2.15-2.16,5.77,5.77,0,0,1,2.05-.5c.05,0,.06,0,.07-.05,0-1.28,0-2.55.07-3.82a1.07,1.07,0,0,1,.8-1,.76.76,0,0,1,.16-.06l1.58-.39h0l.32.66-.08,0-1.47.36c-.27.07-.39.18-.39.39,0,.38,0,.76,0,1.14v0l.07,0,7.58-1.86a.09.09,0,0,0,.07-.06c0-.22.07-.44.1-.66a.13.13,0,0,0,0-.06h-.07l-1.29.32a.61.61,0,0,1-.53-.1.29.29,0,0,1-.06-.4.59.59,0,0,1,.29-.17l3.44-.84.06,0,.32.67h-.07l-1,.25s-.06,0-.06.06c-.06.36-.11.71-.17,1.07a.09.09,0,0,0,0,.06l2.13,1.56,0,0,.38-.19a5.41,5.41,0,0,1,1.51-.46,6.32,6.32,0,0,1,3.38.32,4.13,4.13,0,0,1,1.88,1.31,2.57,2.57,0,0,1,.07,3.35,4.14,4.14,0,0,1-2,1.4l-.39.14-.06,0-.5.12H188c-.26,0-.52.08-.79.1a6.19,6.19,0,0,1-3-.51,4.25,4.25,0,0,1-1.72-1.33l-.12-.18-.07,0-1.9.47a.88.88,0,0,1-.51,0l-1.1-.45-2.9-1.19-2.53-1-.48-.19,0,1.14h.09a5,5,0,0,1,3.69,1.88,2.58,2.58,0,0,1,.48,1.17,2.82,2.82,0,0,1-1.08,2.55,4.7,4.7,0,0,1-1.6.9l-.28.1-.52.13h-.06c-.24,0-.48.08-.73.1a6.1,6.1,0,0,1-3.67-.82,3.73,3.73,0,0,1-1.17-1.09l-.14-.21Zm5.16-3.63s0,0,0,.06l0,1.9c0,.23,0,.46,0,.69s-.2.34-.46.35-.51-.15-.5-.38c0-.86,0-1.72,0-2.58v-.05c-1.82.15-3.41,1.27-3.36,2.78s1.73,2.65,3.79,2.66,3.77-1.17,3.83-2.65S174.63,321.78,172.79,321.6Zm10.47.32a4.19,4.19,0,0,0,3.72,1.55c1.76-.09,3.2-1,3.49-2.27s-.64-2.45-2.22-2.95a5,5,0,0,0-3.81.32l.48.35,2.09,1.53a.36.36,0,0,1,.15.2c0,.18-.1.33-.35.39l-3.47.86Zm-10.42-3,6.87,2.81.74-4.68Zm10.18-.42-1.64-1.2-.7,4.47,1.32-.32A2.78,2.78,0,0,1,183,318.53Zm-.07,2.71,2.83-.69L183.72,319A2.2,2.2,0,0,0,183,321.24Z" transform="translate(-82.91 -70.99)"/><path class="cls-18" d="M135.37,308.15l-.06-.22a2.47,2.47,0,0,1,.07-1.47,3.77,3.77,0,0,1,2.23-2.12,6.07,6.07,0,0,1,2.06-.46c.06,0,.07,0,.07-.05L140,300a1.12,1.12,0,0,1,.84-.95L141,299l1.59-.36h0l.3.67-.08,0-1.48.33c-.28.06-.4.17-.41.38l-.06,1.14v.05l.07,0,7.65-1.72a.09.09,0,0,0,.07-.06c0-.22.08-.44.13-.66a.13.13,0,0,1,0-.06l-.08,0-1.29.29a.63.63,0,0,1-.53-.11.28.28,0,0,1,0-.4.54.54,0,0,1,.3-.16l3.47-.78.06,0,.29.67h-.06l-1,.24s0,0-.06,0c-.07.36-.14.71-.2,1.07,0,0,0,0,0,.06l2.07,1.6,0,0,.39-.19a5.76,5.76,0,0,1,1.53-.43A6.39,6.39,0,0,1,157,301a4.15,4.15,0,0,1,1.83,1.34,2.58,2.58,0,0,1-.05,3.35,4.34,4.34,0,0,1-2,1.36l-.4.13-.05,0-.52.12h-.06c-.27,0-.53.07-.79.08a6.24,6.24,0,0,1-3-.56,4.1,4.1,0,0,1-1.67-1.37c0-.06-.07-.11-.11-.18l-.08,0-1.91.43a.74.74,0,0,1-.51,0l-1.08-.47-2.86-1.23-2.5-1.09-.46-.2-.06,1.13h.08a4.86,4.86,0,0,1,3.63,1.95,2.49,2.49,0,0,1,.43,1.17,2.84,2.84,0,0,1-1.17,2.54,5,5,0,0,1-1.62.87l-.29.09-.52.12h-.07c-.24,0-.48.07-.73.09a6.07,6.07,0,0,1-3.64-.89,3.74,3.74,0,0,1-1.13-1.11c0-.07-.09-.14-.13-.22Zm5.29-3.53a.43.43,0,0,1,0,.05c0,.64-.07,1.27-.1,1.91,0,.23,0,.46,0,.68s-.21.34-.47.34-.5-.16-.49-.38c0-.86.09-1.72.14-2.58v-.05c-1.82.12-3.45,1.21-3.46,2.71s1.64,2.69,3.7,2.73,3.81-1.09,3.92-2.58S142.5,304.83,140.66,304.62Zm10.46.51a4.1,4.1,0,0,0,3.66,1.62c1.77-.06,3.23-1,3.57-2.21s-.55-2.46-2.11-3a5.06,5.06,0,0,0-3.83.25l.47.36,2,1.57a.39.39,0,0,1,.14.2c0,.18-.11.33-.36.39l-3.5.79ZM140.81,302l6.77,2.93.89-4.66Zm10.19-.24-1.6-1.22-.86,4.45,1.33-.3A2.83,2.83,0,0,1,151,301.73Zm-.17,2.72,2.85-.65-2-1.54A2.24,2.24,0,0,0,150.83,304.45Z" transform="translate(-82.91 -70.99)"/><path class="cls-18" d="M172.26,291.65l0-.23A2.85,2.85,0,0,1,173,290a5,5,0,0,1,3-1.55,6.59,6.59,0,0,1,2.17,0c.05,0,.07,0,.08,0,.6-1.2,1.2-2.4,1.81-3.59a1.44,1.44,0,0,1,1.19-.72l.18,0h1.71v.7H181.5a.53.53,0,0,0-.55.28l-.54,1.07,0,0h8.09c.05,0,.07,0,.09-.05.14-.2.27-.4.4-.6,0,0,0,0,0-.05h-1.44a.51.51,0,0,1-.45-.22.28.28,0,0,1,.12-.39.65.65,0,0,1,.35-.09h3.7v.7h-1.15s-.07,0-.08,0l-.65,1a.06.06,0,0,0,0,.06l1.3,2s0,0,0,0l.45-.09a6.43,6.43,0,0,1,1.64-.09,5.58,5.58,0,0,1,3.05,1.1,3,3,0,0,1,1.18,1.68,2.84,2.84,0,0,1-1.46,3.17,5.41,5.41,0,0,1-2.49.87l-.44,0H192c-.26,0-.53,0-.79-.09a5.24,5.24,0,0,1-2.62-1.18,3,3,0,0,1-1-1.66l0-.2h-2.09A.68.68,0,0,1,185,292l-.83-.68-2.2-1.79L180,288l-.36-.29-.53,1.06h0l.06,0a3.72,3.72,0,0,1,2.64,2.65,2.38,2.38,0,0,1-.08,1.21,3.76,3.76,0,0,1-2.18,2.16,5.77,5.77,0,0,1-1.92.48l-.31,0h-.61c-.25,0-.5,0-.74-.08a4.9,4.9,0,0,1-3.09-1.63,2.66,2.66,0,0,1-.62-1.3l0-.23Zm6.52-2.23,0,.05c-.3.6-.6,1.19-.89,1.79l-.33.65a.54.54,0,0,1-.59.22c-.28-.06-.41-.26-.31-.47l1.22-2.43s0,0,0-.05c-1.79-.28-3.8.41-4.44,1.84s.43,2.91,2.38,3.4,4.09-.22,4.83-1.61S180.45,290,178.78,289.42Zm9.76,2.73c.12,1,1.09,2,2.82,2.33a4.49,4.49,0,0,0,4.32-1.33,2.21,2.21,0,0,0-.75-3.3,4.89,4.89,0,0,0-3.75-.59l.29.45,1.29,1.93a.29.29,0,0,1,.05.22.48.48,0,0,1-.51.29h-3.76Zm-8.5-5.23,5.22,4.26,2.82-4.26Zm9.82,2-1-1.51-2.69,4.06h1.38A3.66,3.66,0,0,1,189.86,288.89Zm-1.3,2.55h3l-1.26-1.9A2.87,2.87,0,0,0,188.56,291.44Z" transform="translate(-82.91 -70.99)"/><path class="cls-18" d="M130.17,270.26a1.7,1.7,0,0,1,0-.22,2.65,2.65,0,0,1,.68-1.38,5,5,0,0,1,3-1.55,6.27,6.27,0,0,1,2.16,0c.05,0,.07,0,.09,0l1.8-3.6a1.45,1.45,0,0,1,1.19-.72H141v.7h-1.63a.54.54,0,0,0-.55.27l-.54,1.07s0,0,0,0h8.09a.11.11,0,0,0,.1,0l.4-.6a.33.33,0,0,0,0-.06h-1.43a.5.5,0,0,1-.46-.22.29.29,0,0,1,.12-.38.6.6,0,0,1,.35-.1h3.7v.7h-1.15a.08.08,0,0,0-.08,0l-.65,1a.06.06,0,0,0,0,.06c.43.66.87,1.31,1.31,2l0,0,.44-.1a6.92,6.92,0,0,1,1.64-.08,5.58,5.58,0,0,1,3.05,1.09,3.1,3.1,0,0,1,1.19,1.68,2.87,2.87,0,0,1-1.46,3.18,5.45,5.45,0,0,1-2.5.87l-.44,0h-.66c-.26,0-.53,0-.79-.09a5.16,5.16,0,0,1-2.62-1.19,2.94,2.94,0,0,1-1-1.66,1.06,1.06,0,0,1,0-.19h-2.09a.69.69,0,0,1-.46-.15l-.84-.68-2.2-1.8-1.93-1.57-.36-.29-.53,1.07h0l.06,0a3.7,3.7,0,0,1,2.64,2.64,2.3,2.3,0,0,1-.08,1.22,3.71,3.71,0,0,1-2.18,2.16,6,6,0,0,1-1.92.48l-.31,0h-.61c-.24,0-.49,0-.73-.08a5,5,0,0,1-3.1-1.63,2.77,2.77,0,0,1-.61-1.3,2,2,0,0,1,0-.24Zm6.52-2.23,0,.05-.9,1.8c-.11.21-.22.43-.32.64a.56.56,0,0,1-.6.23c-.27-.06-.41-.26-.3-.47l1.21-2.44,0,0c-1.79-.29-3.81.41-4.44,1.84s.43,2.91,2.37,3.4,4.1-.22,4.83-1.62S138.36,268.63,136.69,268Zm9.77,2.74a3.17,3.17,0,0,0,2.81,2.33,4.51,4.51,0,0,0,4.33-1.34,2.21,2.21,0,0,0-.76-3.3,5,5,0,0,0-3.75-.59l.3.45c.42.65.85,1.29,1.28,1.94a.28.28,0,0,1,.05.21.49.49,0,0,1-.51.3h-3.75ZM138,265.54l5.22,4.25,2.82-4.25Zm9.82,2-1-1.52-2.69,4.07h1.39A3.63,3.63,0,0,1,147.77,267.51Zm-1.3,2.55h3l-1.26-1.91A2.86,2.86,0,0,0,146.47,270.06Z" transform="translate(-82.91 -70.99)"/><path class="cls-18" d="M131.63,233.29l0-.22a2.88,2.88,0,0,1,.68-1.39,5.05,5.05,0,0,1,3-1.55,6.52,6.52,0,0,1,2.16,0c.06,0,.08,0,.09,0,.6-1.2,1.2-2.4,1.81-3.6a1.44,1.44,0,0,1,1.19-.72h1.89v.69h-1.64a.51.51,0,0,0-.54.28l-.54,1.07s0,0,0,.05h8.09c.05,0,.07,0,.09,0l.4-.6,0-.06h-1.44a.51.51,0,0,1-.45-.22.28.28,0,0,1,.12-.39.65.65,0,0,1,.35-.09h3.7v.7h-1.15s-.07,0-.09,0l-.64,1a.06.06,0,0,0,0,.06l1.3,2a0,0,0,0,1,0,0l.45-.09a6,6,0,0,1,1.64-.08,5.5,5.5,0,0,1,3.05,1.09,3,3,0,0,1,1.18,1.68A2.85,2.85,0,0,1,155,236a5.52,5.52,0,0,1-2.49.87l-.44,0h-.66c-.27,0-.53,0-.79-.09a5.24,5.24,0,0,1-2.62-1.18,3,3,0,0,1-1-1.66l0-.19h-.08c-.67,0-1.34,0-2,0a.73.73,0,0,1-.47-.15l-.83-.68-2.2-1.8-1.93-1.57-.36-.29-.54,1.07h0l.06,0a3.7,3.7,0,0,1,2.64,2.64,2.37,2.37,0,0,1-.08,1.21,3.75,3.75,0,0,1-2.18,2.17,5.76,5.76,0,0,1-1.92.47l-.31,0h-.61a6,6,0,0,1-.74-.08,4.89,4.89,0,0,1-3.09-1.62,2.69,2.69,0,0,1-.62-1.31l0-.23Zm6.52-2.23,0,.05-.9,1.8c-.1.21-.21.43-.32.64a.54.54,0,0,1-.59.22c-.28-.05-.41-.26-.31-.47l1.22-2.43s0,0,0-.05c-1.79-.28-3.8.41-4.44,1.85s.43,2.91,2.38,3.4,4.09-.23,4.83-1.62S139.82,231.65,138.15,231.06Zm9.76,2.74c.12.94,1.09,2,2.82,2.33a4.5,4.5,0,0,0,4.32-1.34,2.21,2.21,0,0,0-.75-3.3,5,5,0,0,0-3.75-.59c.09.15.19.3.29.45l1.28,1.93a.25.25,0,0,1,0,.22.47.47,0,0,1-.5.3h-3.76Zm-8.5-5.23,5.22,4.25,2.82-4.25Zm9.82,2-1-1.51-2.7,4.07h1.39A3.66,3.66,0,0,1,149.23,230.53Zm-1.3,2.55h3l-1.26-1.9A2.87,2.87,0,0,0,147.93,233.08Z" transform="translate(-82.91 -70.99)"/><path class="cls-18" d="M153.88,198.77l.11-.21a3.3,3.3,0,0,1,1.1-1.24,5.84,5.84,0,0,1,3.42-1,6.15,6.15,0,0,1,2.11.36s.07,0,.09,0l2.89-3.22a1.75,1.75,0,0,1,1.39-.51l.18,0,1.62.27h.05l-.22.68h-.08l-1.51-.25a.61.61,0,0,0-.62.18l-.86,1,0,0h.07l7.81,1.3c.05,0,.08,0,.11,0l.58-.52,0-.05h-.08l-1.32-.22a.43.43,0,0,1-.38-.29c0-.14.07-.28.25-.36a.72.72,0,0,1,.36,0l3.55.59h.06l-.22.68h-.07l-1.05-.18a.12.12,0,0,0-.1,0l-.93.84s0,0,0,.06c.21.71.43,1.42.65,2.13v0l.47,0a6.77,6.77,0,0,1,1.62.19,4.69,4.69,0,0,1,2.63,1.55,2.58,2.58,0,0,1,.62,1.83,3.42,3.42,0,0,1-2.42,2.86,6.24,6.24,0,0,1-2.71.45l-.43,0h-.07l-.52-.09-.06,0c-.25-.07-.5-.12-.74-.21a4.28,4.28,0,0,1-2.18-1.58,2.58,2.58,0,0,1-.47-1.78l0-.19h-.08l-2-.33a.57.57,0,0,1-.4-.22l-.6-.79L164,198.27c-.46-.61-.92-1.23-1.39-1.84-.08-.11-.16-.23-.25-.34l-.86.95h0l.05,0a3,3,0,0,1,1.74,3,2.55,2.55,0,0,1-.46,1.17A4.6,4.6,0,0,1,160,203a6.5,6.5,0,0,1-2,.16l-.32,0-.53-.09-.06,0c-.23-.06-.47-.11-.69-.19a4,4,0,0,1-2.5-2.09,2.38,2.38,0,0,1-.19-1.36,2,2,0,0,1,0-.24Zm7.06-1.12,0,0-1.44,1.6c-.18.19-.35.38-.52.58a.61.61,0,0,1-.65.12c-.25-.1-.32-.32-.15-.51l2-2.17,0,0a4.7,4.7,0,0,0-4.91,1.09c-1.06,1.27-.49,2.9,1.25,3.69a4.8,4.8,0,0,0,5.21-.8C162.81,200,162.37,198.5,160.94,197.65Zm8.65,4.24c-.18.94.43,2.13,2,2.73a4.94,4.94,0,0,0,4.64-.61,2.17,2.17,0,0,0,.31-3.34,4.53,4.53,0,0,0-3.48-1.18l.15.49c.22.7.43,1.39.64,2.09a.22.22,0,0,1,0,.22.55.55,0,0,1-.58.21l-3.58-.6ZM163,195.43l3.75,5,4.08-3.69Zm9,3.49-.51-1.63-3.9,3.52,1.35.23A4.53,4.53,0,0,1,171.9,198.92Zm-2.08,2.28,2.92.48-.63-2.06A3.63,3.63,0,0,0,169.82,201.2Z" transform="translate(-82.91 -70.99)"/><path class="cls-18" d="M173.13,176.08c.05-.06.09-.13.14-.2a3.7,3.7,0,0,1,1.25-1.16,6.12,6.12,0,0,1,3.55-.78,6.22,6.22,0,0,1,2.05.49s.07,0,.1,0l3.3-3A1.78,1.78,0,0,1,185,171l.18,0,1.58.38h0l-.31.66h-.07l-1.48-.36a.65.65,0,0,0-.64.14l-1,.89,0,0h.06l7.61,1.82a.11.11,0,0,0,.11,0l.64-.48.06,0-.08,0-1.28-.31a.38.38,0,0,1-.34-.31.37.37,0,0,1,.29-.34.66.66,0,0,1,.37,0l3.45.83h.06l-.31.67-.06,0-1-.25a.12.12,0,0,0-.1,0l-1,.78a.07.07,0,0,0,0,.06c.12.72.25,1.44.37,2.16a0,0,0,0,0,0,0l.46,0a6,6,0,0,1,1.59.29,4.28,4.28,0,0,1,2.41,1.73,2.4,2.4,0,0,1,.38,1.86,3.76,3.76,0,0,1-2.79,2.68,6.34,6.34,0,0,1-2.75.26l-.43-.07h-.07l-.5-.12-.06,0a7.43,7.43,0,0,1-.71-.26,3.89,3.89,0,0,1-2-1.71,2.5,2.5,0,0,1-.23-1.81,1.33,1.33,0,0,1,.05-.19l-.08,0-1.9-.46a.58.58,0,0,1-.38-.24c-.16-.28-.32-.56-.49-.83l-1.29-2.21c-.38-.64-.76-1.28-1.13-1.93l-.21-.35-1,.89h0l.05,0a2.87,2.87,0,0,1,1.34,3.11,2.81,2.81,0,0,1-.62,1.13,5,5,0,0,1-3,1.56,6.65,6.65,0,0,1-2,0l-.3-.05-.52-.12-.06,0c-.22-.08-.45-.15-.66-.24a3.72,3.72,0,0,1-2.22-2.25,2.45,2.45,0,0,1,0-1.37c0-.08.05-.16.07-.23Zm7.17-.63,0,0-1.65,1.5-.59.54a.61.61,0,0,1-.66.07.28.28,0,0,1-.08-.51l2.23-2,0,0a4.83,4.83,0,0,0-5,.74c-1.22,1.2-.88,2.86.75,3.76a4.92,4.92,0,0,0,5.3-.43A2.19,2.19,0,0,0,180.3,175.45Zm8,4.81c-.3.92.15,2.15,1.64,2.85a5,5,0,0,0,4.7-.29,2.21,2.21,0,0,0,.74-3.3,4.2,4.2,0,0,0-3.3-1.41l.09.49c.12.71.23,1.42.36,2.13a.28.28,0,0,1-.05.21.59.59,0,0,1-.61.17l-3.48-.84Zm-5.75-6.89,3.07,5.22,4.56-3.4Zm8.45,4.09-.29-1.67L186.4,179l1.32.32A4.88,4.88,0,0,1,191.05,177.46Zm-2.37,2.12,2.84.68-.36-2.09A3.91,3.91,0,0,0,188.68,179.58Z" transform="translate(-82.91 -70.99)"/><path class="cls-18" d="M268.57,329.36c0-.07,0-.15,0-.22a2.79,2.79,0,0,1,.68-1.39,5,5,0,0,1,3-1.55,6.53,6.53,0,0,1,2.16,0s.07,0,.09,0l1.8-3.6a1.45,1.45,0,0,1,1.19-.72h1.9v.69h-1.64a.53.53,0,0,0-.55.28l-.53,1.07a.08.08,0,0,0,0,.05h8.08a.11.11,0,0,0,.1,0l.4-.6,0-.06h-1.43a.52.52,0,0,1-.46-.22.3.3,0,0,1,.12-.39.68.68,0,0,1,.35-.09h3.7v.7h-1.15a.08.08,0,0,0-.08,0l-.65,1a.09.09,0,0,0,0,.07c.44.65.87,1.31,1.31,2l0,0,.45-.09a5.92,5.92,0,0,1,1.63-.08,5.56,5.56,0,0,1,3.06,1.09,3.13,3.13,0,0,1,1.18,1.68,2.87,2.87,0,0,1-1.46,3.18,5.56,5.56,0,0,1-2.5.87l-.43,0h-.67c-.26,0-.53,0-.79-.08a5.33,5.33,0,0,1-2.62-1.19,3,3,0,0,1-1-1.66,1.29,1.29,0,0,1,0-.19h-2.09a.69.69,0,0,1-.46-.15l-.83-.68-2.21-1.8-1.93-1.57-.35-.29-.54,1.07h0l.06,0a3.7,3.7,0,0,1,2.64,2.64,2.17,2.17,0,0,1-.08,1.21,3.69,3.69,0,0,1-2.18,2.17A6,6,0,0,1,274,333l-.31,0h-.61c-.24,0-.49,0-.73-.07a5,5,0,0,1-3.1-1.63,2.76,2.76,0,0,1-.61-1.31c0-.07,0-.15,0-.23Zm6.53-2.23,0,.05-.9,1.8c-.11.21-.21.43-.32.64a.54.54,0,0,1-.59.22c-.28,0-.42-.26-.31-.47l1.21-2.43,0-.05c-1.79-.28-3.81.41-4.44,1.85s.43,2.91,2.37,3.4,4.1-.23,4.83-1.62S276.76,327.72,275.1,327.13Zm9.76,2.74a3.19,3.19,0,0,0,2.81,2.33,4.51,4.51,0,0,0,4.33-1.34,2.21,2.21,0,0,0-.76-3.3,5,5,0,0,0-3.75-.59l.3.45c.42.65.85,1.29,1.28,1.93a.25.25,0,0,1,.05.22.48.48,0,0,1-.51.3h-3.75Zm-8.51-5.23,5.22,4.25,2.82-4.25Zm9.82,2-1-1.51-2.69,4.07h1.39A3.64,3.64,0,0,1,286.17,326.6Zm-1.3,2.55h3l-1.26-1.9A2.87,2.87,0,0,0,284.87,329.15Z" transform="translate(-82.91 -70.99)"/><path class="cls-18" d="M266.15,360.07c0-.07,0-.15,0-.22a2.79,2.79,0,0,1,.68-1.39,5,5,0,0,1,3-1.54,6.27,6.27,0,0,1,2.16,0c.05,0,.07,0,.09,0l1.8-3.6a1.45,1.45,0,0,1,1.19-.72H277v.7h-1.63a.54.54,0,0,0-.55.27l-.53,1.07,0,0h8.09a.11.11,0,0,0,.1,0l.4-.6a.33.33,0,0,0,0-.06h-1.43a.5.5,0,0,1-.46-.22.29.29,0,0,1,.12-.38.6.6,0,0,1,.35-.1h3.7v.7H284a.08.08,0,0,0-.08,0c-.21.33-.43.65-.65,1a.06.06,0,0,0,0,.06c.44.65.87,1.31,1.31,2l0,0,.45-.1a6.33,6.33,0,0,1,1.63-.08,5.64,5.64,0,0,1,3.06,1.09,3.13,3.13,0,0,1,1.18,1.68,2.87,2.87,0,0,1-1.46,3.18,5.56,5.56,0,0,1-2.5.87c-.14,0-.29,0-.44,0h-.66c-.26,0-.53,0-.79-.08a5.16,5.16,0,0,1-2.62-1.19,3,3,0,0,1-1-1.66,1.29,1.29,0,0,1,0-.19h-2.09a.69.69,0,0,1-.46-.15l-.83-.68-2.21-1.8-1.93-1.57-.35-.29-.54,1.07h0l.06,0a3.7,3.7,0,0,1,2.64,2.64,2.21,2.21,0,0,1-.08,1.22,3.71,3.71,0,0,1-2.18,2.16,6,6,0,0,1-1.92.48l-.31,0h-.61c-.24,0-.49,0-.73-.07a5,5,0,0,1-3.1-1.63,2.77,2.77,0,0,1-.61-1.3c0-.08,0-.16,0-.24Zm6.53-2.23,0,.05-.9,1.8c-.11.21-.21.43-.32.64a.54.54,0,0,1-.59.23c-.28-.06-.42-.27-.31-.47.4-.82.81-1.63,1.21-2.44l0,0c-1.79-.28-3.81.41-4.44,1.85s.43,2.91,2.37,3.4,4.1-.22,4.83-1.62S274.34,358.44,272.68,357.84Zm9.76,2.74a3.19,3.19,0,0,0,2.81,2.33,4.51,4.51,0,0,0,4.33-1.34,2.21,2.21,0,0,0-.76-3.3,5,5,0,0,0-3.75-.59l.3.45c.42.65.85,1.29,1.28,1.94a.24.24,0,0,1,.05.21.48.48,0,0,1-.51.3h-3.75Zm-8.51-5.23,5.22,4.25,2.82-4.25Zm9.82,2-1-1.52-2.69,4.07h1.39A3.63,3.63,0,0,1,283.75,357.32Zm-1.3,2.55h3L284.18,358A2.86,2.86,0,0,0,282.45,359.87Z" transform="translate(-82.91 -70.99)"/><path class="cls-18" d="M292,366l.26-.13a5.81,5.81,0,0,1,1.88-.58,6.38,6.38,0,0,1,3.64.56,4.09,4.09,0,0,1,1.45,1.14s.05,0,.09,0l4.93-1.47a2,2,0,0,1,1.55.14l.13.09,1.13.88,0,0-.72.47-.06,0-1.05-.82a.65.65,0,0,0-.65-.1l-1.46.43-.07,0,0,0,5.4,4.24s.06,0,.11,0l.89-.19.08,0-.06,0-.91-.72a.27.27,0,0,1-.08-.39.53.53,0,0,1,.48-.19.51.51,0,0,1,.33.12l2.45,1.92.05,0-.73.47,0,0-.73-.57a.11.11,0,0,0-.1,0l-1.44.32a.08.08,0,0,0-.06,0l-1.16,2s0,0,0,0l.39.18a4.36,4.36,0,0,1,1.2.81,2.72,2.72,0,0,1,.92,2.35,2.76,2.76,0,0,1-.93,1.75,6.22,6.22,0,0,1-6.85.64l-.33-.21,0,0-.36-.29,0,0c-.14-.16-.31-.31-.44-.47a2.62,2.62,0,0,1-.54-2.19,3,3,0,0,1,1-1.65l.18-.15-.06-.05-1.35-1.06a.34.34,0,0,1-.16-.34c0-.3.09-.6.14-.9.12-.79.25-1.58.37-2.38s.21-1.38.32-2.07l.06-.39-1.46.44h0v.05a2.7,2.7,0,0,1-.94,3.17,4.6,4.6,0,0,1-1.31.78,6.46,6.46,0,0,1-3.7.3,5.34,5.34,0,0,1-1.79-.69l-.24-.15-.37-.29,0,0a5.89,5.89,0,0,1-.42-.45,2.57,2.57,0,0,1-.4-2.73,3.11,3.11,0,0,1,.93-1.2l.22-.18Zm6.7,1.95h-.07l-2.46.74-.88.26a.56.56,0,0,1-.63-.16c-.13-.19,0-.39.28-.48l3.33-1,.06,0a4.66,4.66,0,0,0-4.89-1.1c-1.89.62-2.72,2.19-1.91,3.55s3,2,4.92,1.46S299.23,369.18,298.72,367.9Zm3.75,7A2.15,2.15,0,0,0,302,378a4.48,4.48,0,0,0,4.3,1.39c1.68-.3,2.89-1.4,2.9-2.63a2.73,2.73,0,0,0-1.92-2.38l-.27.46c-.37.66-.75,1.32-1.13,2a.4.4,0,0,1-.19.17.63.63,0,0,1-.65-.07l-2.47-1.94Zm-.33-8-.87,5.63,6.29-1.38Zm4.59,6.52.88-1.56-6,1.32.93.73A6.53,6.53,0,0,1,306.73,373.4Zm-3.51,1,2,1.58,1.12-1.95A5.12,5.12,0,0,0,303.22,374.43Z" transform="translate(-82.91 -70.99)"/><path class="cls-18" d="M318.18,348.21l.17-.2a4.2,4.2,0,0,1,1.43-1,6.36,6.36,0,0,1,3.65-.49,5.61,5.61,0,0,1,2,.66s.06,0,.1,0l3.76-2.71a1.9,1.9,0,0,1,1.51-.3l.17.05,1.51.5,0,0-.42.63-.07,0-1.41-.47a.63.63,0,0,0-.65.09l-1.12.8-.05,0,.06,0,7.27,2.43a.08.08,0,0,0,.1,0l.72-.42.07,0-.08,0-1.22-.41c-.19-.07-.3-.2-.29-.34a.43.43,0,0,1,.34-.32.77.77,0,0,1,.37,0l3.3,1.1.06,0-.42.63-.06,0-1-.33a.12.12,0,0,0-.1,0l-1.16.69a.08.08,0,0,0,0,.06c0,.72,0,1.45,0,2.18v0l.46.05a5.56,5.56,0,0,1,1.54.42,3.88,3.88,0,0,1,2.11,1.91,2.37,2.37,0,0,1,.08,1.88,4.15,4.15,0,0,1-3.2,2.44,6.36,6.36,0,0,1-2.78,0l-.42-.1h-.06l-.48-.16-.06,0c-.22-.1-.45-.2-.66-.32a3.45,3.45,0,0,1-1.67-1.87,2.46,2.46,0,0,1,.06-1.81l.08-.18-.07,0-1.82-.61a.46.46,0,0,1-.33-.27c-.12-.29-.24-.58-.35-.87-.32-.77-.63-1.53-.94-2.3l-.81-2c0-.13-.1-.25-.16-.38l-1.11.81h0l0,0a2.66,2.66,0,0,1,.83,3.19,2.9,2.9,0,0,1-.79,1.08,5.46,5.46,0,0,1-3.25,1.3,6.57,6.57,0,0,1-2-.15l-.29-.07-.5-.17-.05,0c-.21-.1-.43-.19-.62-.3a3.3,3.3,0,0,1-1.84-2.41,2.42,2.42,0,0,1,.21-1.37c0-.07.07-.14.11-.22Zm7.23,0-.05,0c-.63.45-1.26.9-1.88,1.36l-.67.48a.61.61,0,0,1-.67,0,.28.28,0,0,1,0-.51c.84-.62,1.69-1.23,2.54-1.84l.05,0a5,5,0,0,0-5.12.33,2.21,2.21,0,0,0,.15,3.8,4.93,4.93,0,0,0,5.32,0A2.19,2.19,0,0,0,325.41,348.16Zm7.22,5.44a2.27,2.27,0,0,0,1.17,3,5.06,5.06,0,0,0,4.71.1c1.4-.74,1.93-2.08,1.27-3.22a3.84,3.84,0,0,0-3-1.67c0,.16,0,.33,0,.49,0,.72,0,1.43,0,2.14a.28.28,0,0,1-.08.21.61.61,0,0,1-.63.12l-3.33-1.11ZM328,346.29l2.22,5.43,5.07-3Zm7.74,4.75,0-1.67-4.85,2.86,1.26.42A5.39,5.39,0,0,1,335.76,351ZM333.07,353l2.71.91,0-2.11A4.24,4.24,0,0,0,333.07,353Z" transform="translate(-82.91 -70.99)"/><path class="cls-18" d="M264,206.41a1.85,1.85,0,0,0,0-.23,2.72,2.72,0,0,1,.68-1.38,5,5,0,0,1,3-1.55,6.27,6.27,0,0,1,2.16,0c.05,0,.07,0,.09,0l1.8-3.59a1.45,1.45,0,0,1,1.19-.73h1.9v.7h-1.64a.53.53,0,0,0-.55.28l-.53,1.06s0,0,0,0h8.09a.1.1,0,0,0,.09,0l.4-.6,0-.05h-1.43a.53.53,0,0,1-.46-.22.3.3,0,0,1,.13-.39.54.54,0,0,1,.34-.09h3.71v.7h-1.16a.1.1,0,0,0-.08,0l-.64,1a0,0,0,0,0,0,.06l1.31,2,0,0c.15,0,.3-.07.45-.09a6.41,6.41,0,0,1,1.64-.09,5.56,5.56,0,0,1,3,1.1,3,3,0,0,1,1.18,1.68,2.86,2.86,0,0,1-1.46,3.17,5.45,5.45,0,0,1-2.5.87l-.43,0h-.67c-.26,0-.53,0-.79-.09a5.16,5.16,0,0,1-2.61-1.18,3,3,0,0,1-1-1.66c0-.07,0-.13,0-.2h-2.09a.69.69,0,0,1-.46-.15l-.83-.68-2.21-1.79-1.93-1.58-.35-.29-.54,1.07h0l.06,0a3.7,3.7,0,0,1,2.64,2.64,2.21,2.21,0,0,1-.08,1.22,3.71,3.71,0,0,1-2.18,2.16,6,6,0,0,1-1.91.48l-.32,0h-.61c-.24,0-.49,0-.73-.08a4.92,4.92,0,0,1-3.1-1.63,2.77,2.77,0,0,1-.61-1.3,1.57,1.57,0,0,0,0-.23Zm6.53-2.23,0,0-.9,1.8c-.11.22-.21.43-.32.64a.53.53,0,0,1-.59.23c-.28-.06-.42-.26-.31-.47.4-.81.81-1.62,1.22-2.43a.08.08,0,0,1,0-.05c-1.79-.28-3.8.41-4.44,1.84s.43,2.91,2.38,3.4,4.09-.22,4.82-1.61S272.22,204.77,270.56,204.18Zm9.76,2.73a3.16,3.16,0,0,0,2.81,2.33,4.5,4.5,0,0,0,4.33-1.33,2.21,2.21,0,0,0-.76-3.3A4.88,4.88,0,0,0,283,204l.3.45,1.28,1.93a.25.25,0,0,1,.05.22c-.05.18-.24.29-.51.29h-3.75Zm-8.51-5.23,5.22,4.26,2.82-4.26Zm9.82,2-1-1.52-2.69,4.07h1.39A3.63,3.63,0,0,1,281.63,203.65Zm-1.3,2.55h3l-1.26-1.9A2.87,2.87,0,0,0,280.33,206.2Z" transform="translate(-82.91 -70.99)"/><path class="cls-18" d="M298.84,198.09a1.7,1.7,0,0,0,0-.22,2.72,2.72,0,0,1,.68-1.38,5,5,0,0,1,3-1.55,6.53,6.53,0,0,1,2.16,0c.06,0,.07,0,.09,0l1.8-3.6a1.47,1.47,0,0,1,1.2-.72h1.89v.7h-1.64c-.29,0-.45.08-.54.27l-.54,1.07,0,0h8.09a.1.1,0,0,0,.09,0l.4-.6,0-.05h-1.43a.51.51,0,0,1-.46-.22.28.28,0,0,1,.13-.38.55.55,0,0,1,.34-.1h3.71V192h-1.15c-.05,0-.07,0-.09,0l-.64,1a0,0,0,0,0,0,.06l1.3,2,0,0,.45-.1a6.89,6.89,0,0,1,1.64-.08,5.63,5.63,0,0,1,3,1.09,3.08,3.08,0,0,1,1.18,1.68,2.87,2.87,0,0,1-1.46,3.18,5.45,5.45,0,0,1-2.49.87l-.44,0h-.66c-.27,0-.54,0-.79-.09a5.12,5.12,0,0,1-2.62-1.19,3,3,0,0,1-1-1.66,1.62,1.62,0,0,0,0-.19H312a.71.71,0,0,1-.46-.15l-.83-.68L308.53,196l-1.92-1.58-.36-.29-.54,1.07h0l.07,0a3.69,3.69,0,0,1,2.63,2.64,2.21,2.21,0,0,1-.08,1.22,3.71,3.71,0,0,1-2.18,2.16,5.89,5.89,0,0,1-1.91.48l-.32,0h-.6c-.25,0-.5,0-.74-.08a5,5,0,0,1-3.1-1.63,2.77,2.77,0,0,1-.61-1.3,2,2,0,0,0,0-.24Zm6.53-2.23,0,0-.9,1.8c-.11.21-.21.43-.32.64a.54.54,0,0,1-.59.23c-.28-.06-.41-.26-.31-.47l1.22-2.44s0,0,0,0c-1.79-.29-3.8.41-4.44,1.84s.43,2.91,2.38,3.4,4.09-.22,4.82-1.62S307,196.46,305.37,195.86Zm9.76,2.74a3.17,3.17,0,0,0,2.81,2.33,4.51,4.51,0,0,0,4.33-1.34,2.21,2.21,0,0,0-.75-3.3,5,5,0,0,0-3.76-.59l.3.45,1.28,1.94a.24.24,0,0,1,.05.21.48.48,0,0,1-.5.3h-3.76Zm-8.5-5.23,5.22,4.25,2.81-4.25Zm9.82,2-1-1.52-2.69,4.07h1.39A3.62,3.62,0,0,1,316.45,195.34Zm-1.31,2.55h3L316.87,196A2.89,2.89,0,0,0,315.14,197.89Z" transform="translate(-82.91 -70.99)"/><path class="cls-18" d="M309,177a1.7,1.7,0,0,0,0-.22,2.72,2.72,0,0,1,.68-1.38,5,5,0,0,1,3-1.55,6.53,6.53,0,0,1,2.16,0c.06,0,.07,0,.09,0l1.8-3.6a1.47,1.47,0,0,1,1.2-.72h1.89v.7h-1.64c-.29,0-.45.08-.54.27l-.54,1.07,0,.05h8.09a.1.1,0,0,0,.09,0l.4-.6,0,0h-1.43a.53.53,0,0,1-.46-.22.3.3,0,0,1,.13-.39.54.54,0,0,1,.34-.09H328v.7h-1.15s-.07,0-.09,0l-.64,1a.07.07,0,0,0,0,.06l1.31,2,0,0,.45-.09a6.41,6.41,0,0,1,1.64-.09,5.63,5.63,0,0,1,3.05,1.09,3.08,3.08,0,0,1,1.18,1.68,2.87,2.87,0,0,1-1.46,3.18,5.45,5.45,0,0,1-2.5.87l-.43,0h-.66c-.27,0-.54-.05-.8-.09a5.13,5.13,0,0,1-2.61-1.19,3,3,0,0,1-1-1.66,1.62,1.62,0,0,0,0-.19h-2.09a.71.71,0,0,1-.46-.15l-.83-.68-2.21-1.79-1.92-1.58-.36-.29-.54,1.07h0l.06,0a3.7,3.7,0,0,1,2.64,2.64,2.21,2.21,0,0,1-.08,1.22,3.71,3.71,0,0,1-2.18,2.16,6,6,0,0,1-1.91.48l-.32,0h-.6c-.25,0-.5,0-.74-.08a5,5,0,0,1-3.1-1.63,2.77,2.77,0,0,1-.61-1.3,1.57,1.57,0,0,0,0-.23Zm6.53-2.22,0,0-.9,1.8c-.11.21-.21.43-.32.64a.54.54,0,0,1-.59.23c-.28-.06-.41-.26-.31-.47l1.22-2.43a.08.08,0,0,1,0,0c-1.79-.29-3.8.41-4.44,1.84s.43,2.91,2.38,3.4,4.09-.22,4.82-1.62S317.14,175.38,315.48,174.79Zm9.76,2.73a3.16,3.16,0,0,0,2.81,2.33,4.53,4.53,0,0,0,4.33-1.33,2.22,2.22,0,0,0-.75-3.31,5,5,0,0,0-3.76-.59l.3.45,1.28,1.94a.24.24,0,0,1,.05.21c-.05.19-.24.3-.51.3h-3.75Zm-8.5-5.23,5.22,4.25,2.81-4.25Zm9.82,2-1-1.52-2.69,4.07h1.39A3.62,3.62,0,0,1,326.56,174.26Zm-1.31,2.55h3l-1.27-1.9A2.87,2.87,0,0,0,325.25,176.81Z" transform="translate(-82.91 -70.99)"/><path class="cls-18" d="M307.77,224l0-.22a2.81,2.81,0,0,1,.68-1.38,5,5,0,0,1,3-1.55,6.27,6.27,0,0,1,2.16,0c.06,0,.07,0,.09,0,.6-1.2,1.2-2.4,1.81-3.6a1.44,1.44,0,0,1,1.19-.72h1.89v.7H317a.52.52,0,0,0-.54.27l-.54,1.07,0,.05H324c.05,0,.07,0,.09,0l.4-.6,0,0h-1.44a.5.5,0,0,1-.45-.22.28.28,0,0,1,.12-.39.56.56,0,0,1,.34-.09h3.71v.7h-1.15a.11.11,0,0,0-.09,0l-.64,1a.06.06,0,0,0,0,.06l1.3,2,0,0,.45-.09a6.43,6.43,0,0,1,1.64-.09,5.61,5.61,0,0,1,3.05,1.09,3,3,0,0,1,1.18,1.68,2.86,2.86,0,0,1-1.46,3.18,5.45,5.45,0,0,1-2.49.87l-.44,0h-.66c-.27,0-.53-.05-.79-.09a5.12,5.12,0,0,1-2.62-1.19,3,3,0,0,1-1-1.66,1.62,1.62,0,0,0,0-.19H321a.73.73,0,0,1-.47-.15l-.83-.68-2.2-1.79-1.93-1.58-.36-.29-.54,1.07h0l.06,0a3.72,3.72,0,0,1,2.64,2.64,2.41,2.41,0,0,1-.08,1.22,3.76,3.76,0,0,1-2.18,2.16,6,6,0,0,1-1.92.48l-.31,0h-.61c-.25,0-.5,0-.74-.08a5,5,0,0,1-3.09-1.63,2.7,2.7,0,0,1-.62-1.3l0-.23Zm6.52-2.22,0,0-.9,1.8c-.1.22-.21.43-.32.64a.54.54,0,0,1-.59.23c-.28-.06-.41-.26-.31-.47l1.22-2.43s0,0,0,0c-1.79-.29-3.8.41-4.44,1.84s.43,2.91,2.38,3.4,4.09-.22,4.83-1.61S316,222.35,314.29,221.76Zm9.76,2.73a3.16,3.16,0,0,0,2.81,2.33,4.53,4.53,0,0,0,4.33-1.33,2.21,2.21,0,0,0-.75-3.3,4.91,4.91,0,0,0-3.76-.59l.3.45c.43.64.86,1.28,1.28,1.93a.24.24,0,0,1,.05.21c0,.19-.24.3-.5.3h-3.76Zm-8.5-5.23,5.22,4.26,2.82-4.26Zm9.82,2-1-1.52-2.7,4.07h1.39A3.62,3.62,0,0,1,325.37,221.23Zm-1.31,2.55h3l-1.27-1.9A2.9,2.9,0,0,0,324.06,223.78Z" transform="translate(-82.91 -70.99)"/><path class="cls-18" d="M347,231.2c0-.08,0-.15,0-.23a2.51,2.51,0,0,1,.37-1.44,4.36,4.36,0,0,1,2.65-1.86,6.37,6.37,0,0,1,2.14-.23c.06,0,.07,0,.08-.05.34-1.25.67-2.5,1-3.75a1.26,1.26,0,0,1,1-.84.57.57,0,0,1,.18,0l1.65-.19h0l.15.69h-.08l-1.54.17c-.28,0-.42.13-.48.33l-.3,1.12a.13.13,0,0,1,0,0H354l7.93-.88s.07,0,.08-.05l.27-.64a.14.14,0,0,1,0-.06h-.08l-1.34.15a.58.58,0,0,1-.5-.17.29.29,0,0,1,0-.4.54.54,0,0,1,.32-.12l3.6-.4h.06l.15.69h-.07l-1.07.12s-.06,0-.07,0c-.14.35-.29.69-.43,1a.13.13,0,0,0,0,.06l1.72,1.8,0,0L365,226a6.17,6.17,0,0,1,1.61-.27,6.08,6.08,0,0,1,3.25.75,3.5,3.5,0,0,1,1.52,1.53,2.63,2.63,0,0,1-.76,3.3,4.87,4.87,0,0,1-2.27,1.13l-.43.08-.06,0-.53.06h-.86a5.71,5.71,0,0,1-2.84-.89,3.47,3.47,0,0,1-1.37-1.52c0-.07-.05-.13-.07-.19h-.08l-2,.22a.75.75,0,0,1-.49-.1l-1-.58L356.14,228l-2.24-1.34-.42-.25-.3,1.11h0l.07,0a4.26,4.26,0,0,1,3.17,2.32,2.31,2.31,0,0,1,.19,1.21,3.22,3.22,0,0,1-1.69,2.37,5.48,5.48,0,0,1-1.8.69l-.3.06-.54.06s0,0-.06,0h-.75a5.49,5.49,0,0,1-3.4-1.27,3.12,3.12,0,0,1-.89-1.22l-.09-.22Zm6-2.92,0,.05c-.17.62-.33,1.25-.5,1.87l-.18.67a.49.49,0,0,1-.54.29c-.29,0-.46-.21-.4-.43.22-.85.45-1.69.68-2.54a.11.11,0,0,1,0-.05c-1.83-.08-3.67.83-4,2.31s1.05,2.83,3.08,3.1,4-.67,4.42-2.13S354.76,228.68,353,228.28Zm10.23,1.63a3.63,3.63,0,0,0,3.28,2,4.09,4.09,0,0,0,4-1.79c.59-1.17,0-2.5-1.45-3.18a5.08,5.08,0,0,0-3.84-.17l.39.41,1.68,1.77a.3.3,0,0,1,.1.21c0,.18-.18.32-.44.34l-3.62.41Zm-9.53-4.23,6.08,3.62,1.87-4.51Zm10.13.86-1.32-1.39-1.79,4.32,1.37-.15A3.18,3.18,0,0,1,363.82,226.54Zm-.74,2.66,3-.33-1.66-1.74A2.52,2.52,0,0,0,363.08,229.2Z" transform="translate(-82.91 -70.99)"/><path class="cls-18" d="M347.24,207.46l0-.23a2.4,2.4,0,0,1,.26-1.45,4.12,4.12,0,0,1,2.5-2,6.13,6.13,0,0,1,2.11-.31c.06,0,.07,0,.08-.05.23-1.26.47-2.53.71-3.79a1.18,1.18,0,0,1,.95-.88l.17,0,1.63-.25h.05l.2.68-.08,0-1.52.23c-.28,0-.41.15-.45.35l-.21,1.13a.11.11,0,0,1,0,.05h.07l7.84-1.2c.05,0,.07,0,.08-.06.07-.21.15-.43.22-.65a.43.43,0,0,0,0-.05h-.07l-1.33.2a.59.59,0,0,1-.51-.15.26.26,0,0,1,0-.39.51.51,0,0,1,.31-.15l3.56-.54h.06l.21.68H364l-1.06.17a.07.07,0,0,0-.07,0c-.11.35-.23.7-.35,1.05a.08.08,0,0,0,0,.06l1.85,1.73,0,0,.41-.16a6.82,6.82,0,0,1,1.58-.33,6.17,6.17,0,0,1,3.3.62,3.72,3.72,0,0,1,1.65,1.46,2.6,2.6,0,0,1-.5,3.33,4.65,4.65,0,0,1-2.18,1.22l-.42.1-.06,0-.52.08h-.07c-.26,0-.53,0-.79,0a6,6,0,0,1-2.91-.77,3.61,3.61,0,0,1-1.48-1.47l-.09-.19-.08,0-2,.3a.75.75,0,0,1-.49-.08l-1-.54-2.68-1.42-2.34-1.25-.44-.23-.21,1.12h.08a4.49,4.49,0,0,1,3.35,2.19,2.24,2.24,0,0,1,.28,1.2,3,3,0,0,1-1.5,2.44,5.22,5.22,0,0,1-1.73.75l-.3.08-.54.08h-.06c-.24,0-.49,0-.74,0a5.74,5.74,0,0,1-3.5-1.12,3.23,3.23,0,0,1-1-1.19l-.11-.22ZM353,204.3a.43.43,0,0,1,0,0c-.12.63-.23,1.26-.35,1.9,0,.22-.09.45-.13.67a.46.46,0,0,1-.51.31c-.29,0-.48-.19-.44-.41l.48-2.56a.07.07,0,0,1,0,0c-1.84,0-3.6,1-3.81,2.47s1.28,2.77,3.32,3,3.94-.83,4.25-2.3S354.77,204.63,353,204.3Zm10.35,1.21a3.79,3.79,0,0,0,3.43,1.86,3.92,3.92,0,0,0,3.84-2c.49-1.2-.22-2.49-1.7-3.12a5,5,0,0,0-3.84,0l.42.39,1.82,1.7a.31.31,0,0,1,.11.2c0,.19-.15.33-.41.37l-3.59.55Zm-9.85-3.83,6.35,3.37,1.51-4.58Zm10.18.45-1.43-1.33-1.44,4.38,1.36-.21A3,3,0,0,1,363.64,202.13Zm-.53,2.69,2.93-.45-1.79-1.67A2.37,2.37,0,0,0,363.11,204.82Z" transform="translate(-82.91 -70.99)"/><path class="cls-18" d="M315.08,254.11a1.7,1.7,0,0,0,0-.22,2.79,2.79,0,0,1,.68-1.39,5,5,0,0,1,3-1.54,6.27,6.27,0,0,1,2.16,0s.07,0,.09,0l1.8-3.6a1.46,1.46,0,0,1,1.19-.72H326v.7h-1.64a.54.54,0,0,0-.55.27c-.17.36-.35.71-.53,1.07,0,0,0,0,0,.05h8.09a.1.1,0,0,0,.09,0l.4-.6,0-.06H330.4a.51.51,0,0,1-.46-.22.28.28,0,0,1,.13-.38.55.55,0,0,1,.34-.1h3.71v.7H333a.08.08,0,0,0-.08,0l-.64,1s0,0,0,.06c.44.65.87,1.31,1.31,2,0,0,0,0,0,0l.45-.1a6.41,6.41,0,0,1,1.64-.08A5.63,5.63,0,0,1,338.7,252a3.08,3.08,0,0,1,1.18,1.68,2.87,2.87,0,0,1-1.46,3.18,5.56,5.56,0,0,1-2.5.87l-.43,0h-.67c-.26,0-.53,0-.79-.08a5.17,5.17,0,0,1-2.61-1.19,3,3,0,0,1-1-1.66c0-.06,0-.13,0-.19h-2.09a.69.69,0,0,1-.46-.15l-.83-.68-2.21-1.8-1.92-1.57-.36-.29L322,251.2h0l.06,0a3.69,3.69,0,0,1,2.64,2.64,2.21,2.21,0,0,1-.08,1.22,3.71,3.71,0,0,1-2.18,2.16,6,6,0,0,1-1.91.48l-.32,0h-.61c-.24,0-.49,0-.73-.07a5,5,0,0,1-3.1-1.63,2.77,2.77,0,0,1-.61-1.3,2,2,0,0,0,0-.24Zm6.53-2.23,0,.05-.9,1.8c-.11.21-.21.43-.32.64a.52.52,0,0,1-.59.22c-.28-.05-.42-.26-.31-.47.4-.81.81-1.62,1.22-2.43l0-.05c-1.79-.28-3.8.41-4.44,1.85s.43,2.91,2.38,3.4,4.09-.23,4.82-1.62S323.27,252.48,321.61,251.88Zm9.76,2.74a3.19,3.19,0,0,0,2.81,2.33,4.51,4.51,0,0,0,4.33-1.34,2.21,2.21,0,0,0-.76-3.3,5,5,0,0,0-3.75-.59l.3.45,1.28,1.94a.24.24,0,0,1,.05.21.48.48,0,0,1-.51.3h-3.75Zm-8.51-5.23,5.22,4.25,2.82-4.25Zm9.82,2-1-1.52L329,253.91h1.39A3.63,3.63,0,0,1,332.68,251.36Zm-1.3,2.55h3L333.11,252A2.86,2.86,0,0,0,331.38,253.91Z" transform="translate(-82.91 -70.99)"/><path class="cls-18" d="M273.23,269.67c0-.08,0-.15,0-.22a2.75,2.75,0,0,1,.68-1.39,5,5,0,0,1,3-1.55,6.53,6.53,0,0,1,2.16,0c.05,0,.07,0,.09,0l1.8-3.6a1.45,1.45,0,0,1,1.19-.72h1.89v.69h-1.63a.53.53,0,0,0-.55.28c-.18.36-.36.71-.53,1.07l0,.05h8.09a.11.11,0,0,0,.1,0l.4-.6,0-.06h-1.43a.52.52,0,0,1-.46-.22.3.3,0,0,1,.12-.39.68.68,0,0,1,.35-.09h3.7v.7h-1.15a.08.08,0,0,0-.08,0l-.65,1a.06.06,0,0,0,0,.06l1.31,2,0,0,.44-.09a6,6,0,0,1,1.64-.08,5.56,5.56,0,0,1,3.06,1.09,3.13,3.13,0,0,1,1.18,1.68,2.87,2.87,0,0,1-1.46,3.18,5.56,5.56,0,0,1-2.5.87l-.44,0H293c-.26,0-.53,0-.79-.09a5.24,5.24,0,0,1-2.62-1.18,3,3,0,0,1-1-1.66,1.29,1.29,0,0,1,0-.19h-2.09A.69.69,0,0,1,286,270l-.83-.68-2.21-1.8L281,266l-.35-.29-.54,1.07h0l.06,0a3.7,3.7,0,0,1,2.64,2.64,2.17,2.17,0,0,1-.08,1.21,3.69,3.69,0,0,1-2.18,2.17,5.76,5.76,0,0,1-1.92.47l-.31,0h-.61a6,6,0,0,1-.73-.08,4.92,4.92,0,0,1-3.1-1.62,2.81,2.81,0,0,1-.61-1.31c0-.07,0-.15,0-.23Zm6.52-2.23,0,.05-.9,1.8c-.11.21-.21.43-.32.64a.54.54,0,0,1-.59.22c-.28,0-.42-.26-.31-.47l1.21-2.43,0-.05c-1.79-.28-3.81.41-4.44,1.85s.43,2.91,2.37,3.4,4.1-.23,4.83-1.62S281.42,268,279.75,267.44Zm9.77,2.74a3.19,3.19,0,0,0,2.81,2.33,4.51,4.51,0,0,0,4.33-1.34,2.21,2.21,0,0,0-.76-3.3,5,5,0,0,0-3.75-.59l.3.45,1.28,1.93a.29.29,0,0,1,0,.22.48.48,0,0,1-.51.3h-3.75ZM281,265l5.22,4.25,2.82-4.25Zm9.82,2-1-1.51-2.69,4.06h1.39A3.65,3.65,0,0,1,290.83,266.91Zm-1.3,2.55h3l-1.26-1.9A2.87,2.87,0,0,0,289.53,269.46Z" transform="translate(-82.91 -70.99)"/><path class="cls-18" d="M315.08,289.67a1.85,1.85,0,0,0,0-.23,2.76,2.76,0,0,1,.68-1.38,5,5,0,0,1,3-1.55,6.53,6.53,0,0,1,2.16,0s.07,0,.09,0l1.8-3.59a1.46,1.46,0,0,1,1.19-.72l.18,0H326v.7h-1.64a.53.53,0,0,0-.55.28l-.53,1.07s0,0,0,0h8.09a.09.09,0,0,0,.09-.05l.4-.6,0-.05H330.4a.53.53,0,0,1-.46-.22.3.3,0,0,1,.13-.39.62.62,0,0,1,.34-.09h3.71v.7H333a.08.08,0,0,0-.08,0l-.64,1a0,0,0,0,0,0,.06c.44.66.87,1.32,1.31,2,0,0,0,0,0,0l.45-.09a6.41,6.41,0,0,1,1.64-.09,5.64,5.64,0,0,1,3.05,1.1,3,3,0,0,1,1.18,1.68,2.86,2.86,0,0,1-1.46,3.17,5.45,5.45,0,0,1-2.5.87l-.43,0h-.67c-.26,0-.53,0-.79-.09a5.16,5.16,0,0,1-2.61-1.18,3,3,0,0,1-1-1.66c0-.07,0-.13,0-.2h-2.09a.64.64,0,0,1-.46-.15l-.83-.68-2.21-1.79L322.85,286l-.36-.29-.54,1.06h0l.06,0a3.7,3.7,0,0,1,2.64,2.65,2.18,2.18,0,0,1-.08,1.21,3.71,3.71,0,0,1-2.18,2.16,5.71,5.71,0,0,1-1.91.48l-.32,0h-.61c-.24,0-.49,0-.73-.08a4.92,4.92,0,0,1-3.1-1.63,2.73,2.73,0,0,1-.61-1.3,1.85,1.85,0,0,0,0-.23Zm6.53-2.23,0,.05-.9,1.79-.32.65a.54.54,0,0,1-.59.22c-.28-.06-.42-.26-.31-.47.4-.81.81-1.62,1.22-2.43,0,0,0,0,0-.05-1.79-.28-3.8.41-4.44,1.84s.43,2.91,2.38,3.4,4.09-.22,4.82-1.61S323.27,288,321.61,287.44Zm9.76,2.73a3.16,3.16,0,0,0,2.81,2.33,4.5,4.5,0,0,0,4.33-1.33,2.21,2.21,0,0,0-.76-3.3,4.88,4.88,0,0,0-3.75-.59l.3.45,1.28,1.93a.25.25,0,0,1,.05.22c-.05.18-.24.29-.51.29h-3.75Zm-8.51-5.23,5.22,4.26,2.82-4.26Zm9.82,2-1-1.51L329,289.46h1.39A3.65,3.65,0,0,1,332.68,286.91Zm-1.3,2.55h3l-1.26-1.9A2.87,2.87,0,0,0,331.38,289.46Z" transform="translate(-82.91 -70.99)"/><path class="cls-18" d="M349.82,274.74l.12-.21a3.56,3.56,0,0,1,1.19-1.19,5.94,5.94,0,0,1,3.51-.89,6.22,6.22,0,0,1,2.07.44.08.08,0,0,0,.1,0l3.13-3.09a1.79,1.79,0,0,1,1.43-.45l.17,0,1.6.33h.05l-.27.67h-.08l-1.5-.32a.64.64,0,0,0-.63.16l-.93.92,0,0,.07,0,7.7,1.6a.12.12,0,0,0,.1,0l.62-.5.06-.05h-.08l-1.3-.27a.4.4,0,0,1-.35-.3.34.34,0,0,1,.27-.35.56.56,0,0,1,.36,0l3.5.72.06,0-.27.67h-.07l-1-.22a.1.1,0,0,0-.09,0l-1,.81a.07.07,0,0,0,0,.06c.16.71.33,1.43.49,2.15a0,0,0,0,0,0,0h.46a6.14,6.14,0,0,1,1.61.24,4.48,4.48,0,0,1,2.5,1.66,2.5,2.5,0,0,1,.48,1.85,3.6,3.6,0,0,1-2.64,2.76,6.08,6.08,0,0,1-2.73.34l-.44-.05h-.06l-.51-.1-.06,0c-.24-.08-.5-.15-.73-.25a4,4,0,0,1-2.05-1.66,2.48,2.48,0,0,1-.33-1.79c0-.07,0-.13,0-.2h-.07l-1.93-.4a.58.58,0,0,1-.39-.24l-.54-.82L360,274.64c-.42-.63-.83-1.27-1.24-1.9-.08-.11-.15-.23-.23-.35l-.93.92h0l.05,0a2.92,2.92,0,0,1,1.5,3.07,2.6,2.6,0,0,1-.55,1.15,4.86,4.86,0,0,1-2.94,1.64,6.51,6.51,0,0,1-2,.08l-.32,0-.52-.11-.06,0c-.22-.07-.46-.13-.67-.22a3.82,3.82,0,0,1-2.34-2.18,2.33,2.33,0,0,1-.08-1.38,1.55,1.55,0,0,0,.05-.23Zm7.13-.84,0,0c-.53.51-1.05,1-1.57,1.55l-.56.55a.63.63,0,0,1-.65.1c-.25-.12-.3-.34-.12-.52l2.12-2.09,0,0a4.78,4.78,0,0,0-5,.88c-1.16,1.24-.72,2.88,1,3.74a4.86,4.86,0,0,0,5.26-.59A2.19,2.19,0,0,0,357,273.9Zm8.31,4.57c-.26.93.26,2.15,1.79,2.8a5,5,0,0,0,4.68-.42,2.18,2.18,0,0,0,.56-3.32,4.31,4.31,0,0,0-3.37-1.31c0,.16.07.33.11.49.15.7.31,1.41.47,2.11a.25.25,0,0,1,0,.22.6.6,0,0,1-.61.18l-3.52-.73Zm-6.13-6.72,3.36,5.13,4.36-3.52Zm8.66,3.85-.38-1.65-4.17,3.36,1.34.28A4.73,4.73,0,0,1,367.79,275.6Zm-2.24,2.19,2.87.6-.47-2.08A3.74,3.74,0,0,0,365.55,277.79Z" transform="translate(-82.91 -70.99)"/><path class="cls-18" d="M357.46,254.57a1.8,1.8,0,0,1,.08-.21,3.22,3.22,0,0,1,1-1.3,5.53,5.53,0,0,1,3.31-1.19,6.13,6.13,0,0,1,2.14.24c.05,0,.07,0,.09,0l2.56-3.36a1.61,1.61,0,0,1,1.33-.58h.18l1.64.18h.05l-.15.69h-.08l-1.54-.17a.56.56,0,0,0-.59.22l-.76,1,0,.05h.07l7.93.88a.12.12,0,0,0,.1,0c.17-.19.35-.37.52-.55l.05,0h-.08l-1.34-.15a.44.44,0,0,1-.4-.27.32.32,0,0,1,.2-.37.72.72,0,0,1,.36,0l3.6.4h.06l-.15.69h-.06l-1.07-.12c-.05,0-.07,0-.09,0l-.85.89a.07.07,0,0,0,0,.06l.87,2.09,0,0,.46,0a6,6,0,0,1,1.64.1,5,5,0,0,1,2.78,1.41,2.65,2.65,0,0,1,.8,1.79,3.22,3.22,0,0,1-2.12,3,6.1,6.1,0,0,1-2.65.59l-.44,0h-.06l-.53-.06-.07,0c-.25-.06-.51-.1-.76-.17a4.61,4.61,0,0,1-2.33-1.46,2.66,2.66,0,0,1-.65-1.75v-.2h-.07l-2-.22a.6.6,0,0,1-.43-.2c-.22-.25-.45-.5-.67-.76l-1.8-2-1.56-1.77-.3-.33-.75,1h0l.05,0a3.21,3.21,0,0,1,2,2.9,2.36,2.36,0,0,1-.34,1.19,4.3,4.3,0,0,1-2.61,1.9,6.36,6.36,0,0,1-2,.26h-.32l-.54-.06h-.06c-.23-.06-.48-.09-.71-.16a4.36,4.36,0,0,1-2.71-1.95,2.43,2.43,0,0,1-.32-1.35c0-.08,0-.16,0-.24Zm6.92-1.48,0,0-1.27,1.68-.46.6a.59.59,0,0,1-.63.16c-.26-.09-.35-.31-.2-.5l1.72-2.27,0-.05a4.55,4.55,0,0,0-4.78,1.34c-.93,1.33-.2,2.92,1.62,3.62a4.69,4.69,0,0,0,5.12-1.07C366.49,255.37,365.9,253.86,364.38,253.09Zm9.06,3.77c-.09.95.65,2.11,2.28,2.62a4.84,4.84,0,0,0,4.56-.85,2.14,2.14,0,0,0,0-3.34,4.64,4.64,0,0,0-3.58-1l.2.48.85,2a.24.24,0,0,1,0,.22.52.52,0,0,1-.56.23l-3.63-.4Zm-7.28-6.1,4.24,4.78,3.7-3.9Zm9.28,3-.68-1.6-3.53,3.72,1.37.15A4.23,4.23,0,0,1,375.44,253.78Zm-1.84,2.38,3,.33-.84-2A3.35,3.35,0,0,0,373.6,256.16Z" transform="translate(-82.91 -70.99)"/><path class="cls-18" d="M302.17,322a1.85,1.85,0,0,1,0-.23,2.68,2.68,0,0,1,.68-1.38,5,5,0,0,1,3-1.55,6.53,6.53,0,0,1,2.16,0c.05,0,.07,0,.09,0l1.8-3.59a1.45,1.45,0,0,1,1.19-.72l.18,0H313v.7h-1.63a.53.53,0,0,0-.55.28l-.54,1.07,0,0h8.09a.1.1,0,0,0,.1,0l.4-.6,0-.05h-1.43a.52.52,0,0,1-.46-.22.3.3,0,0,1,.12-.39.68.68,0,0,1,.35-.09h3.7v.7h-1.15a.08.08,0,0,0-.08,0l-.65,1a.06.06,0,0,0,0,.06c.43.66.87,1.32,1.31,2l0,0,.44-.09a6.43,6.43,0,0,1,1.64-.09,5.58,5.58,0,0,1,3,1.1,3.07,3.07,0,0,1,1.19,1.68,2.86,2.86,0,0,1-1.46,3.17,5.45,5.45,0,0,1-2.5.87l-.44,0h-.66c-.26,0-.53,0-.79-.09a5.24,5.24,0,0,1-2.62-1.18,3,3,0,0,1-1-1.66,1.42,1.42,0,0,1,0-.2h-2.09a.64.64,0,0,1-.46-.15l-.84-.67-2.2-1.8-1.93-1.57c-.11-.1-.23-.19-.36-.29l-.53,1.06h0l.06,0a3.69,3.69,0,0,1,2.64,2.64,2.38,2.38,0,0,1-.08,1.21,3.68,3.68,0,0,1-2.18,2.16,5.77,5.77,0,0,1-1.92.48l-.31,0h-.61c-.24,0-.49,0-.73-.08a4.9,4.9,0,0,1-3.1-1.63,2.64,2.64,0,0,1-.61-1.3,1.85,1.85,0,0,1,0-.23Zm6.52-2.23s0,0,0,.05l-.9,1.79c-.11.22-.22.43-.32.65a.56.56,0,0,1-.6.22c-.28-.06-.41-.26-.3-.47l1.21-2.43,0,0c-1.8-.28-3.81.41-4.44,1.85s.43,2.9,2.37,3.39,4.1-.22,4.83-1.61S310.36,320.37,308.69,319.78Zm9.77,2.73a3.18,3.18,0,0,0,2.81,2.34,4.53,4.53,0,0,0,4.33-1.34,2.21,2.21,0,0,0-.76-3.3,4.89,4.89,0,0,0-3.75-.59l.3.45,1.28,1.93a.29.29,0,0,1,.05.22.48.48,0,0,1-.51.29h-3.75ZM310,317.28l5.22,4.26,2.82-4.26Zm9.82,2-1-1.51-2.69,4.06h1.39A3.65,3.65,0,0,1,319.77,319.25Zm-1.3,2.55h3l-1.26-1.9A2.87,2.87,0,0,0,318.47,321.8Z" transform="translate(-82.91 -70.99)"/><path class="cls-18" d="M346.25,312.56a2.12,2.12,0,0,0,.11-.21,3.47,3.47,0,0,1,1.14-1.22,5.86,5.86,0,0,1,3.46-1,6,6,0,0,1,2.09.39.08.08,0,0,0,.1,0l3-3.17a1.74,1.74,0,0,1,1.41-.48l.17,0,1.62.29h0l-.24.67h-.08l-1.5-.27a.59.59,0,0,0-.63.17l-.89.94,0,0h.06l7.77,1.42c.05,0,.08,0,.11,0l.59-.51.06-.05h-.08l-1.32-.24a.41.41,0,0,1-.36-.3.34.34,0,0,1,.25-.35.66.66,0,0,1,.37,0l3.53.64.06,0-.24.67h-.07l-1.05-.19a.1.1,0,0,0-.09,0l-1,.83a.09.09,0,0,0,0,.06c.2.71.39,1.43.59,2.14a0,0,0,0,0,0,0h.46a6.2,6.2,0,0,1,1.62.21,4.59,4.59,0,0,1,2.58,1.6,2.55,2.55,0,0,1,.56,1.84,3.46,3.46,0,0,1-2.51,2.81,6.15,6.15,0,0,1-2.72.41l-.43-.05h-.06l-.52-.09-.06,0c-.25-.08-.5-.14-.74-.23a4.19,4.19,0,0,1-2.13-1.61,2.57,2.57,0,0,1-.41-1.79l0-.19-.07,0-1.95-.35a.58.58,0,0,1-.4-.23l-.57-.8-1.52-2.13-1.32-1.87-.25-.34-.89.94h0l.05,0a3,3,0,0,1,1.65,3,2.54,2.54,0,0,1-.5,1.16,4.68,4.68,0,0,1-2.86,1.71,6.5,6.5,0,0,1-2,.13l-.31,0-.54-.09-.05,0c-.23-.07-.47-.12-.69-.21a3.92,3.92,0,0,1-2.43-2.12,2.4,2.4,0,0,1-.15-1.37c0-.08,0-.16.05-.23Zm7.09-1,0,0c-.5.53-1,1.06-1.49,1.58l-.54.57a.59.59,0,0,1-.65.11.29.29,0,0,1-.13-.51l2-2.14s0,0,0,0a4.73,4.73,0,0,0-4.94,1c-1.1,1.26-.59,2.9,1.13,3.71a4.81,4.81,0,0,0,5.23-.71C355.14,314,354.75,312.42,353.34,311.55Zm8.52,4.38c-.21.93.36,2.13,1.92,2.75a4.92,4.92,0,0,0,4.65-.53,2.17,2.17,0,0,0,.41-3.33,4.41,4.41,0,0,0-3.43-1.23c0,.16.09.32.13.49.19.7.38,1.4.58,2.1a.26.26,0,0,1,0,.21.56.56,0,0,1-.59.2l-3.56-.65Zm-6.44-6.57,3.59,5,4.2-3.62Zm8.84,3.64-.46-1.65-4,3.47,1.35.24A4.58,4.58,0,0,1,364.26,313Zm-2.14,2.24,2.9.53-.57-2.07A3.64,3.64,0,0,0,362.12,315.24Z" transform="translate(-82.91 -70.99)"/><path class="cls-18" d="M273.78,303.18c0-.07,0-.15,0-.22a2.79,2.79,0,0,1,.68-1.39,5,5,0,0,1,3-1.54,6.27,6.27,0,0,1,2.16,0c.05,0,.07,0,.09,0l1.8-3.6a1.45,1.45,0,0,1,1.19-.72h1.89v.7H283c-.29,0-.45.07-.55.27l-.53,1.07,0,.05H290a.11.11,0,0,0,.1,0l.4-.6,0-.06H289.1a.5.5,0,0,1-.46-.22.3.3,0,0,1,.12-.39.68.68,0,0,1,.35-.09h3.7v.7h-1.15a.08.08,0,0,0-.08,0c-.21.33-.43.65-.65,1a.06.06,0,0,0,0,.06c.44.65.87,1.31,1.31,2l0,0,.44-.09a6,6,0,0,1,1.64-.08,5.64,5.64,0,0,1,3.06,1.09,3.13,3.13,0,0,1,1.18,1.68,2.87,2.87,0,0,1-1.46,3.18,5.56,5.56,0,0,1-2.5.87l-.44,0h-.66c-.26,0-.53,0-.79-.08a5.25,5.25,0,0,1-2.62-1.19,3,3,0,0,1-1-1.66,1.29,1.29,0,0,1,0-.19H287a.69.69,0,0,1-.46-.15l-.83-.68-2.21-1.8-1.93-1.57-.35-.29-.54,1.07h0l.06,0a3.7,3.7,0,0,1,2.64,2.64,2.17,2.17,0,0,1-.08,1.21,3.69,3.69,0,0,1-2.18,2.17,6,6,0,0,1-1.92.48l-.31,0h-.61c-.24,0-.49,0-.73-.07a5,5,0,0,1-3.1-1.63,2.77,2.77,0,0,1-.61-1.3c0-.08,0-.16,0-.24Zm6.53-2.23s0,0,0,.05l-.9,1.8c-.11.21-.21.43-.32.64a.52.52,0,0,1-.59.22c-.28-.05-.42-.26-.31-.47l1.21-2.43,0-.05c-1.79-.28-3.81.41-4.44,1.85s.43,2.91,2.37,3.4,4.1-.23,4.83-1.62S282,301.55,280.31,301Zm9.76,2.74a3.19,3.19,0,0,0,2.81,2.33,4.51,4.51,0,0,0,4.33-1.34,2.21,2.21,0,0,0-.76-3.3,5,5,0,0,0-3.75-.59l.3.45c.42.65.85,1.29,1.28,1.94a.27.27,0,0,1,.05.21.48.48,0,0,1-.51.3h-3.75Zm-8.51-5.23,5.22,4.25,2.82-4.25Zm9.82,2-1-1.51L287.68,303h1.39A3.64,3.64,0,0,1,291.38,300.42Zm-1.3,2.56h3l-1.26-1.91A2.86,2.86,0,0,0,290.08,303Z" transform="translate(-82.91 -70.99)"/><path class="cls-18" d="M272.92,241.2l0-.22a2.88,2.88,0,0,1,.68-1.39,5,5,0,0,1,3-1.54,6.27,6.27,0,0,1,2.16,0c.06,0,.07,0,.09,0,.6-1.2,1.2-2.4,1.81-3.6a1.44,1.44,0,0,1,1.19-.72h1.89v.7h-1.64c-.29,0-.45.08-.54.27l-.54,1.07s0,0,0,.05h8.09c.05,0,.07,0,.09,0l.4-.6,0-.06h-1.44a.51.51,0,0,1-.46-.22.28.28,0,0,1,.13-.38.55.55,0,0,1,.34-.1H292v.7H290.8c-.05,0-.07,0-.09,0l-.64,1a0,0,0,0,0,0,.06l1.3,2,0,0,.45-.1a6.89,6.89,0,0,1,1.64-.08,5.63,5.63,0,0,1,3,1.09,3.08,3.08,0,0,1,1.18,1.68,2.87,2.87,0,0,1-1.46,3.18,5.56,5.56,0,0,1-2.49.87l-.44,0h-.66c-.27,0-.54,0-.79-.08a5.12,5.12,0,0,1-2.62-1.19,3,3,0,0,1-1-1.66,1.29,1.29,0,0,0,0-.19h-2.08a.72.72,0,0,1-.47-.15l-.83-.68-2.2-1.8-1.93-1.57-.36-.29-.54,1.07h0l.07,0A3.72,3.72,0,0,1,282.5,241a2.31,2.31,0,0,1-.09,1.22,3.71,3.71,0,0,1-2.17,2.16,6,6,0,0,1-1.92.48l-.32,0h-.6c-.25,0-.5,0-.74-.07a5,5,0,0,1-3.1-1.63,2.77,2.77,0,0,1-.61-1.3l0-.24Zm6.52-2.23,0,.05-.9,1.8c-.1.21-.21.43-.32.64a.54.54,0,0,1-.59.23c-.28-.06-.41-.27-.31-.47l1.22-2.44s0,0,0-.05c-1.79-.28-3.8.41-4.44,1.85s.43,2.91,2.38,3.4,4.09-.22,4.82-1.62S281.1,239.57,279.44,239Zm9.76,2.74A3.19,3.19,0,0,0,292,244a4.51,4.51,0,0,0,4.33-1.34,2.21,2.21,0,0,0-.75-3.3,5,5,0,0,0-3.76-.59l.3.45,1.28,1.94a.24.24,0,0,1,0,.21.48.48,0,0,1-.5.3H289.2Zm-8.5-5.23,5.22,4.25,2.81-4.25Zm9.82,2-1-1.52L286.81,241h1.39A3.62,3.62,0,0,1,290.52,238.45ZM289.21,241h3l-1.27-1.91A2.89,2.89,0,0,0,289.21,241Z" transform="translate(-82.91 -70.99)"/><path class="cls-19" d="M332.6,100.05" transform="translate(-82.91 -70.99)"/><ellipse class="cls-20" cx="177.63" cy="66.8" rx="56.99" ry="66.8"/><rect class="cls-21" x="229.07" y="112.07" width="27.42" height="15.54" rx="4.43" ry="4.43" transform="translate(402.65 168.71) rotate(180)"/><rect class="cls-22" x="264.79" y="112.07" width="27.42" height="15.54" rx="4.43" ry="4.43" transform="translate(474.09 168.71) rotate(180)"/><ellipse class="cls-23" cx="159.87" cy="48.86" rx="2.72" ry="3.08"/><ellipse class="cls-23" cx="195.59" cy="48.86" rx="2.72" ry="3.08"/><path class="cls-24" d="M204.21,125.45l24.18-37.22s44.23,7,60.91,0l25.63,32.82s-6.86-27.41-23-38.64c-11.31-7.86-14.67-8.35-15.63-8.89-1.44-.81-2.31-.52-3-.73-5.58-1.62-24.09-4.48-42.7,7.83C208.13,95.45,204.21,125.45,204.21,125.45Z" transform="translate(-82.91 -70.99)"/><path class="cls-25" d="M289.3,88.36l25.38,32.5S307.9,93.71,291.87,82.6C290.34,81.54,294.05,84.25,289.3,88.36Z" transform="translate(-82.91 -70.99)"/><path class="cls-26" d="M316.32,147.49s-52.85,65.65-113.5,0c0,0,6.43,55.29,57,58.29C259.8,205.78,308.38,207.31,316.32,147.49Z" transform="translate(-82.91 -70.99)"/><line class="cls-19" x1="162.59" y1="101.49" x2="192.87" y2="101.49"/><path class="cls-27" d="M245.5,172.47a33.14,33.14,0,0,1,7.57-2,55.06,55.06,0,0,1,7.57-.54,52.09,52.09,0,0,1,7.57.54,32,32,0,0,1,7.57,2,32.53,32.53,0,0,1-7.57,2,53.52,53.52,0,0,1-7.57.53,52.09,52.09,0,0,1-7.57-.54A32.63,32.63,0,0,1,245.5,172.47Z" transform="translate(-82.91 -70.99)"/><line class="cls-19" x1="160.94" y1="101.49" x2="194.82" y2="101.49"/><path class="cls-28" d="M243.85,172.47c2.82-.15,5.65-.23,8.47-.29s5.65-.05,8.47-.08,5.65,0,8.47.08,5.65.14,8.47.29c-2.82.16-5.65.23-8.47.29s-5.65.06-8.47.09-5.65,0-8.47-.09S246.67,172.63,243.85,172.47Z" transform="translate(-82.91 -70.99)"/><polyline class="cls-29" points="184.09 82.39 178.31 84.01 171.37 82.16 177.09 57.79"/><polyline class="cls-30" points="178.31 84.01 171.37 82.16 177.09 57.79"/><path class="cls-20" d="M264,119.66s-2.93-3.5-6.72,0" transform="translate(-82.91 -70.99)"/><path class="cls-31" d="M264,119.69a9.73,9.73,0,0,0-3.29-.68,3.7,3.7,0,0,0-.74.06c-.13,0-.26,0-.39.05a2.35,2.35,0,0,1-.4.09c-.27.06-.55.17-.85.23a7.72,7.72,0,0,1-1,.26l-.06-.07L258,119a7.46,7.46,0,0,1,.82-.5,4.26,4.26,0,0,1,1.85-.5,4.6,4.6,0,0,1,3.39,1.62Z" transform="translate(-82.91 -70.99)"/><ellipse class="cls-32" cx="195.59" cy="48.86" rx="1.39" ry="1.57"/><ellipse class="cls-32" cx="159.87" cy="48.86" rx="1.39" ry="1.57"/><path class="cls-33" d="M202.82,147.49s14.73,41,35,51.56C237.8,199.05,214.27,196,202.82,147.49Z" transform="translate(-82.91 -70.99)"/></svg>