<svg id="Layer_1" data-name="Layer 1" xmlns="http://www.w3.org/2000/svg" xmlns:xlink="http://www.w3.org/1999/xlink" viewBox="0 0 370.98 417.9"><defs><style>.cls-1{fill:#e4e1c7;}.cls-2{fill:#512e2a;}.cls-3,.cls-4{fill:#9e2b20;}.cls-14,.cls-23,.cls-4,.cls-6{stroke:#231f20;}.cls-14,.cls-15,.cls-16,.cls-17,.cls-21,.cls-22,.cls-23,.cls-32,.cls-4,.cls-6,.cls-8{stroke-miterlimit:10;}.cls-5{fill:#231f20;}.cls-16,.cls-6,.cls-8{fill:none;}.cls-23,.cls-6{stroke-width:0.25px;}.cls-7{fill:#c2b59b;}.cls-8{stroke:#9b8579;}.cls-9{fill:#b1a58e;}.cls-10{fill:#9b8579;}.cls-11{fill:#1e4496;}.cls-12,.cls-17{fill:#234093;}.cls-13{fill:#124b9a;}.cls-14,.cls-15,.cls-20,.cls-21,.cls-22,.cls-23{fill:#fff;}.cls-15{stroke:#f9a560;}.cls-16{stroke:#283c91;}.cls-17{stroke:#262262;stroke-width:0.5px;}.cls-18{fill:#fff200;}.cls-19{fill:#d1d3d4;}.cls-21{stroke:url(#White_Black);}.cls-22{stroke:url(#White_Black-2);}.cls-24{fill:#fde79e;}.cls-25{fill:#fbeac8;}.cls-26{fill:#e5e1c5;}.cls-27{fill:#f9c9de;}.cls-28{fill:#8d536f;}.cls-29{fill:#e3e2db;}.cls-30{fill:#d0cca8;}.cls-31{fill:url(#White_Black-3);}.cls-32{fill:#2e3192;stroke:#00aeef;}.cls-33{fill:#cfcdb4;}.cls-34{fill:#726658;}</style><linearGradient id="White_Black" x1="266.2" y1="119.85" x2="295.96" y2="119.85" gradientTransform="matrix(1, 0, 0, -1, -38.67, 239.69)" gradientUnits="userSpaceOnUse"><stop offset="0" stop-color="#fff"/><stop offset="1" stop-color="#231f20"/></linearGradient><linearGradient id="White_Black-2" x1="228.73" y1="119.85" x2="258.49" y2="119.85" gradientTransform="matrix(1, 0, 0, -1, 36.27, 239.69)" xlink:href="#White_Black"/><linearGradient id="White_Black-3" x1="265.04" y1="118.86" x2="257.29" y2="118.86" gradientTransform="matrix(1, 0, 0, 1, 0, 0)" xlink:href="#White_Black"/></defs><title>17</title><polyline class="cls-1" points="208.07 334.96 201.46 400.24 194.02 399.87 193.27 334.22"/><polyline class="cls-1" points="161.96 334.96 168.57 400.24 176 399.87 176.75 334.22"/><path class="cls-2" d="M230.77,475.18s-20.25,10.71-7.52,12.21l12.73,1.5h16.19s6.73-4.74,6.73-11.59" transform="translate(-74.68 -70.99)"/><path class="cls-2" d="M286.2,475.18s20.24,10.71,7.52,12.21L281,488.89H264.8s-5.9-4.74-5.9-11.59" transform="translate(-74.68 -70.99)"/><path class="cls-3" d="M244.2,470.46s-33.1,10.7-20.38,12.2l12.73,1.49h16.19s6.16,0,6.16-6.85l-7.23-6.23h-.53" transform="translate(-74.68 -70.99)"/><path class="cls-3" d="M266.6,470.13l-7.39,7.17c0,6.85,6.16,6.85,6.16,6.85h16.19l12.73-1.49c12.73-1.5-18.15-12.21-18.15-12.21" transform="translate(-74.68 -70.99)"/><path class="cls-4" d="M259.31,477" transform="translate(-74.68 -70.99)"/><path class="cls-5" d="M276,409.9v-1.25s0,1.25,0,1.25Z" transform="translate(-74.68 -70.99)"/><path class="cls-5" d="M244.38,409.27v.4a3.31,3.31,0,0,1,0,.63,2.66,2.66,0,0,0,0-.63v-.4a3.22,3.22,0,0,1,0-.62,3.21,3.21,0,0,0,0,.62Z" transform="translate(-74.68 -70.99)"/><path class="cls-5" d="M248.82,409.31v-1.25s0,1.25,0,1.25Z" transform="translate(-74.68 -70.99)"/><path class="cls-5" d="M270.57,414.52v2.22a3.22,3.22,0,0,1,0,.62,3.21,3.21,0,0,0,0-.62v-2.22a2.57,2.57,0,0,1,0-.62,2.57,2.57,0,0,0,0,.62Z" transform="translate(-74.68 -70.99)"/><path class="cls-5" d="M275.4,418.15v1.21a3.22,3.22,0,0,1,0,.62,3.2,3.2,0,0,0,0-.62v-1.21a3.22,3.22,0,0,1,0-.62,3.2,3.2,0,0,0,0,.62Z" transform="translate(-74.68 -70.99)"/><path class="cls-5" d="M277,422v1.21a2.57,2.57,0,0,1,0,.62,2.57,2.57,0,0,0,0-.62V422a3.33,3.33,0,0,1,0-.63,3.32,3.32,0,0,0,0,.63Z" transform="translate(-74.68 -70.99)"/><path class="cls-5" d="M280,421.78v.2a3.22,3.22,0,0,1,0,.62,3.21,3.21,0,0,0,0-.62v-.2a2.66,2.66,0,0,1,0-.63,2.66,2.66,0,0,0,0,.63Z" transform="translate(-74.68 -70.99)"/><path class="cls-5" d="M274,429.86s0-1.25,0-1.25,0,1.25,0,1.25Z" transform="translate(-74.68 -70.99)"/><path class="cls-5" d="M271.38,422v1.41a3.21,3.21,0,0,1,0,.62,3.21,3.21,0,0,0,0-.62V422a3.33,3.33,0,0,1,0-.63,3.32,3.32,0,0,0,0,.63Z" transform="translate(-74.68 -70.99)"/><path class="cls-5" d="M271.58,431v1.62a2.57,2.57,0,0,1,0,.62,2.57,2.57,0,0,0,0-.62V431a3.21,3.21,0,0,1,0-.62,3.21,3.21,0,0,0,0,.62Z" transform="translate(-74.68 -70.99)"/><path class="cls-5" d="M277.82,434.07v.6a3.33,3.33,0,0,1,0,.63,3.32,3.32,0,0,0,0-.63v-.6a3.33,3.33,0,0,1,0-.63,3.32,3.32,0,0,0,0,.63Z" transform="translate(-74.68 -70.99)"/><path class="cls-5" d="M275.81,436.28v1.62a2.57,2.57,0,0,1,0,.62,2.57,2.57,0,0,0,0-.62v-1.62a3.21,3.21,0,0,1,0-.62,3.21,3.21,0,0,0,0,.62Z" transform="translate(-74.68 -70.99)"/><path class="cls-5" d="M273.19,437.29v1a2.57,2.57,0,0,1,0,.62,2.57,2.57,0,0,0,0-.62v-1a3.22,3.22,0,0,1,0-.62,3.21,3.21,0,0,0,0,.62Z" transform="translate(-74.68 -70.99)"/><path class="cls-5" d="M271.17,437.49v.2a3.33,3.33,0,0,1,0,.63,3.32,3.32,0,0,0,0-.63v-.2a3.22,3.22,0,0,1,0-.62,3.21,3.21,0,0,0,0,.62Z" transform="translate(-74.68 -70.99)"/><path class="cls-5" d="M270.77,441.72v1a3.32,3.32,0,0,1,0,.63,3.31,3.31,0,0,0,0-.63v-1a2.57,2.57,0,0,1,0-.62,2.57,2.57,0,0,0,0,.62Z" transform="translate(-74.68 -70.99)"/><path class="cls-5" d="M276.82,443.34v.6a3.21,3.21,0,0,1,0,.62,3.2,3.2,0,0,0,0-.62v-.6a3.33,3.33,0,0,1,0-.63,3.32,3.32,0,0,0,0,.63Z" transform="translate(-74.68 -70.99)"/><path class="cls-5" d="M274.8,446v.21a3.21,3.21,0,0,1,0,.62,3.21,3.21,0,0,0,0-.62V446a2.57,2.57,0,0,1,0-.62,2.57,2.57,0,0,0,0,.62Z" transform="translate(-74.68 -70.99)"/><path class="cls-5" d="M272,449v1.21a3.21,3.21,0,0,1,0,.62,3.21,3.21,0,0,0,0-.62V449a2.66,2.66,0,0,1,0-.63,2.66,2.66,0,0,0,0,.63Z" transform="translate(-74.68 -70.99)"/><path class="cls-5" d="M276,451.6v.2a3.22,3.22,0,0,1,0,.62,3.21,3.21,0,0,0,0-.62v-.2a2.66,2.66,0,0,1,0-.63,2.66,2.66,0,0,0,0,.63Z" transform="translate(-74.68 -70.99)"/><path class="cls-5" d="M272.59,454.24s0-1.25,0-1.25,0,1.25,0,1.25Z" transform="translate(-74.68 -70.99)"/><path class="cls-5" d="M279.64,412.71v.81a3.21,3.21,0,0,1,0,.62,2.57,2.57,0,0,0,0-.62v-.81a3.22,3.22,0,0,1,0-.62,3.21,3.21,0,0,0,0,.62Z" transform="translate(-74.68 -70.99)"/><path class="cls-5" d="M272,411.1s0-1.25,0-1.25,0,1.25,0,1.25Z" transform="translate(-74.68 -70.99)"/><path class="cls-5" d="M275.61,410.7v.6a3.21,3.21,0,0,1,0,.62,2.56,2.56,0,0,0,0-.62v-.6a3.33,3.33,0,0,1,0-.63,3.32,3.32,0,0,0,0,.63Z" transform="translate(-74.68 -70.99)"/><path class="cls-5" d="M280.64,408.88v1a3.22,3.22,0,0,1,0,.62,3.2,3.2,0,0,0,0-.62v-1a3.22,3.22,0,0,1,0-.62,3.21,3.21,0,0,0,0,.62Z" transform="translate(-74.68 -70.99)"/><path class="cls-6" d="M281.56,414a2,2,0,0,0,.64,2.18" transform="translate(-74.68 -70.99)"/><path class="cls-6" d="M281.53,411.07a2,2,0,0,1,.7,1.62" transform="translate(-74.68 -70.99)"/><path class="cls-6" d="M277,411.75a1.07,1.07,0,0,1-.55,1.22" transform="translate(-74.68 -70.99)"/><path class="cls-6" d="M271.39,411.94v1.5" transform="translate(-74.68 -70.99)"/><path class="cls-6" d="M268.77,411.19a2.15,2.15,0,0,1-.82,1.44" transform="translate(-74.68 -70.99)"/><path class="cls-6" d="M267.94,409.13a2.32,2.32,0,0,1-.5,1.48" transform="translate(-74.68 -70.99)"/><path class="cls-6" d="M268.58,414.84a3.35,3.35,0,0,0-.86,1.78" transform="translate(-74.68 -70.99)"/><path class="cls-6" d="M269.44,420a2.06,2.06,0,0,1-.49,1.12" transform="translate(-74.68 -70.99)"/><path class="cls-6" d="M272.49,416.26a1.31,1.31,0,0,1-.23,1.23" transform="translate(-74.68 -70.99)"/><path class="cls-6" d="M275.91,415.75a6.64,6.64,0,0,1,1.1.88" transform="translate(-74.68 -70.99)"/><path class="cls-6" d="M278.6,420.28l.48.65" transform="translate(-74.68 -70.99)"/><path class="cls-6" d="M274.48,420v.93" transform="translate(-74.68 -70.99)"/><path class="cls-6" d="M280.6,422.7a1.34,1.34,0,0,1,.24,1.13" transform="translate(-74.68 -70.99)"/><path class="cls-6" d="M279.72,426.09l.86,1.3" transform="translate(-74.68 -70.99)"/><path class="cls-6" d="M273,424.86a2.8,2.8,0,0,1-.91,1.34" transform="translate(-74.68 -70.99)"/><path class="cls-6" d="M269.52,425a1.92,1.92,0,0,1-1,1.71" transform="translate(-74.68 -70.99)"/><path class="cls-6" d="M269.24,431.15a1.72,1.72,0,0,1-.38,1.11" transform="translate(-74.68 -70.99)"/><path class="cls-6" d="M274.86,429.46v1" transform="translate(-74.68 -70.99)"/><path class="cls-6" d="M276.45,429.28a1,1,0,0,1,.75.46" transform="translate(-74.68 -70.99)"/><path class="cls-6" d="M280.1,430.78l.84.47" transform="translate(-74.68 -70.99)"/><path class="cls-6" d="M279.48,432.75a2.32,2.32,0,0,0,.61,2.25" transform="translate(-74.68 -70.99)"/><path class="cls-6" d="M268.61,434.85a2.07,2.07,0,0,1-1.06.27" transform="translate(-74.68 -70.99)"/><path class="cls-5" d="M248.69,415.35v2.21a3.33,3.33,0,0,1,0,.63,3.32,3.32,0,0,0,0-.63v-2.21a3.33,3.33,0,0,1,0-.63,3.32,3.32,0,0,0,0,.63Z" transform="translate(-74.68 -70.99)"/><path class="cls-5" d="M243.86,419v1.21a2.66,2.66,0,0,1,0,.63,2.66,2.66,0,0,0,0-.63V419a3.21,3.21,0,0,1,0-.62,3.21,3.21,0,0,0,0,.62Z" transform="translate(-74.68 -70.99)"/><path class="cls-5" d="M242.25,422.8V424a2.66,2.66,0,0,1,0,.63,2.66,2.66,0,0,0,0-.63V422.8a3.21,3.21,0,0,1,0-.62,3.21,3.21,0,0,0,0,.62Z" transform="translate(-74.68 -70.99)"/><path class="cls-5" d="M239.22,422.6v.2a3.33,3.33,0,0,1,0,.63,3.32,3.32,0,0,0,0-.63v-.2a3.22,3.22,0,0,1,0-.62,3.21,3.21,0,0,0,0,.62Z" transform="translate(-74.68 -70.99)"/><path class="cls-5" d="M245.28,430.68v-1.25s0,1.25,0,1.25Z" transform="translate(-74.68 -70.99)"/><path class="cls-5" d="M247.89,422.8v1.41a2.66,2.66,0,0,1,0,.63,2.66,2.66,0,0,0,0-.63V422.8a3.21,3.21,0,0,1,0-.62,3.21,3.21,0,0,0,0,.62Z" transform="translate(-74.68 -70.99)"/><path class="cls-5" d="M247.69,431.87v1.61a2.66,2.66,0,0,1,0,.63,2.66,2.66,0,0,0,0-.63v-1.61a3.32,3.32,0,0,1,0-.63,3.31,3.31,0,0,0,0,.63Z" transform="translate(-74.68 -70.99)"/><path class="cls-5" d="M241.44,434.89v.61a3.21,3.21,0,0,1,0,.62,3.21,3.21,0,0,0,0-.62v-.61a2.57,2.57,0,0,1,0-.62,2.57,2.57,0,0,0,0,.62Z" transform="translate(-74.68 -70.99)"/><path class="cls-5" d="M243.46,437.11v1.61a3.21,3.21,0,0,1,0,.62,2.56,2.56,0,0,0,0-.62v-1.61a3.33,3.33,0,0,1,0-.63,3.32,3.32,0,0,0,0,.63Z" transform="translate(-74.68 -70.99)"/><path class="cls-5" d="M246.07,438.12v1a3.33,3.33,0,0,1,0,.63,3.32,3.32,0,0,0,0-.63v-1a3.33,3.33,0,0,1,0-.63,3.32,3.32,0,0,0,0,.63Z" transform="translate(-74.68 -70.99)"/><path class="cls-5" d="M248.09,438.32v.2a3.22,3.22,0,0,1,0,.62,3.21,3.21,0,0,0,0-.62v-.2a2.66,2.66,0,0,1,0-.63,2.66,2.66,0,0,0,0,.63Z" transform="translate(-74.68 -70.99)"/><path class="cls-5" d="M248.49,442.55v1a3.21,3.21,0,0,1,0,.62,3.21,3.21,0,0,0,0-.62v-1a3.33,3.33,0,0,1,0-.63,3.32,3.32,0,0,0,0,.63Z" transform="translate(-74.68 -70.99)"/><path class="cls-5" d="M242.45,444.16v.6a2.66,2.66,0,0,1,0,.63,2.66,2.66,0,0,0,0-.63v-.6a3.32,3.32,0,0,1,0-.63,3.32,3.32,0,0,0,0,.63Z" transform="translate(-74.68 -70.99)"/><path class="cls-5" d="M244.46,446.78v.2a3.32,3.32,0,0,1,0,.63,3.32,3.32,0,0,0,0-.63v-.2a3.32,3.32,0,0,1,0-.63,3.32,3.32,0,0,0,0,.63Z" transform="translate(-74.68 -70.99)"/><path class="cls-5" d="M247.28,449.8V451a3.32,3.32,0,0,1,0,.63,3.32,3.32,0,0,0,0-.63V449.8a3.22,3.22,0,0,1,0-.62,3.21,3.21,0,0,0,0,.62Z" transform="translate(-74.68 -70.99)"/><path class="cls-5" d="M243.25,452.42v.2a3.33,3.33,0,0,1,0,.63,3.32,3.32,0,0,0,0-.63v-.2a3.22,3.22,0,0,1,0-.62,3.2,3.2,0,0,0,0,.62Z" transform="translate(-74.68 -70.99)"/><path class="cls-5" d="M246.69,455.06s0-1.25,0-1.25,0,1.25,0,1.25Z" transform="translate(-74.68 -70.99)"/><path class="cls-5" d="M239.63,413.53v.81a2.66,2.66,0,0,1,0,.63,2.66,2.66,0,0,0,0-.63v-.81a3.21,3.21,0,0,1,0-.62,3.21,3.21,0,0,0,0,.62Z" transform="translate(-74.68 -70.99)"/><path class="cls-5" d="M247.29,409.93s0-1.25,0-1.25,0,1.25,0,1.25Z" transform="translate(-74.68 -70.99)"/><path class="cls-5" d="M243.26,410.72s0-1.25,0-1.25,0,1.25,0,1.25Z" transform="translate(-74.68 -70.99)"/><path class="cls-5" d="M243.66,411.52v.6a2.66,2.66,0,0,1,0,.63,2.66,2.66,0,0,0,0-.63v-.6a3.32,3.32,0,0,1,0-.63,3.32,3.32,0,0,0,0,.63Z" transform="translate(-74.68 -70.99)"/><path class="cls-5" d="M238.62,409.71v1a3.33,3.33,0,0,1,0,.63,3.31,3.31,0,0,0,0-.63v-1a2.66,2.66,0,0,1,0-.63,2.66,2.66,0,0,0,0,.63Z" transform="translate(-74.68 -70.99)"/><path class="cls-6" d="M237.72,414.84a2,2,0,0,1-.64,2.19" transform="translate(-74.68 -70.99)"/><path class="cls-6" d="M237.74,411.89a2,2,0,0,0-.7,1.62" transform="translate(-74.68 -70.99)"/><path class="cls-6" d="M242.28,412.58a1.07,1.07,0,0,0,.54,1.22" transform="translate(-74.68 -70.99)"/><path class="cls-6" d="M247.88,412.76v1.5" transform="translate(-74.68 -70.99)"/><path class="cls-6" d="M250.5,412a2.14,2.14,0,0,0,.82,1.44" transform="translate(-74.68 -70.99)"/><path class="cls-6" d="M251.34,410a2.3,2.3,0,0,0,.49,1.49" transform="translate(-74.68 -70.99)"/><path class="cls-6" d="M250.7,415.66a3.26,3.26,0,0,1,.85,1.78" transform="translate(-74.68 -70.99)"/><path class="cls-6" d="M249.84,420.82a2,2,0,0,0,.49,1.12" transform="translate(-74.68 -70.99)"/><path class="cls-6" d="M246.78,417.08a1.33,1.33,0,0,0,.24,1.23" transform="translate(-74.68 -70.99)"/><path class="cls-6" d="M243.37,416.57a6.74,6.74,0,0,0-1.1.88" transform="translate(-74.68 -70.99)"/><path class="cls-6" d="M240.68,421.11l-.48.64" transform="translate(-74.68 -70.99)"/><path class="cls-6" d="M244.79,420.82v.94" transform="translate(-74.68 -70.99)"/><path class="cls-6" d="M238.68,423.52a1.37,1.37,0,0,0-.25,1.14" transform="translate(-74.68 -70.99)"/><path class="cls-6" d="M239.55,426.91l-.85,1.31" transform="translate(-74.68 -70.99)"/><path class="cls-6" d="M246.3,425.69a2.87,2.87,0,0,0,.91,1.33" transform="translate(-74.68 -70.99)"/><path class="cls-6" d="M249.75,425.79a1.92,1.92,0,0,0,1,1.71" transform="translate(-74.68 -70.99)"/><path class="cls-6" d="M250,432a1.7,1.7,0,0,0,.39,1.12" transform="translate(-74.68 -70.99)"/><path class="cls-6" d="M244.42,430.28v1" transform="translate(-74.68 -70.99)"/><path class="cls-6" d="M242.83,430.1a1.06,1.06,0,0,0-.76.46" transform="translate(-74.68 -70.99)"/><path class="cls-6" d="M239.18,431.61l-.85.46" transform="translate(-74.68 -70.99)"/><path class="cls-6" d="M239.79,433.57a2.33,2.33,0,0,1-.6,2.26" transform="translate(-74.68 -70.99)"/><path class="cls-6" d="M250.67,435.67a2,2,0,0,0,1.05.27" transform="translate(-74.68 -70.99)"/><polygon class="cls-7" points="149.51 336.55 223.07 336.55 243.36 271.16 129.22 271.16 149.51 336.55"/><line class="cls-8" x1="185.69" y1="283.69" x2="185.69" y2="336.55"/><path class="cls-9" d="M214.88,354l15.8,53.16H223.8l-18.57-61S212.92,352.69,214.88,354Z" transform="translate(-74.68 -70.99)"/><path class="cls-9" d="M292.7,379.87l4.95,3.08,9.35-5.21,3.21-1.79-1.65-3.24s-10.46,7.63-15.86,7.16l-2.43,15.94s10-.17,12.59-4.74l4-12.8" transform="translate(-74.68 -70.99)"/><path class="cls-10" d="M292.7,379.87l5,3h-.07c4.15-2.39,8.33-4.73,12.51-7.08l-.07.22-1.66-3.24.26.06a64.59,64.59,0,0,1-7.52,4.67,32.61,32.61,0,0,1-4.05,1.8,11.18,11.18,0,0,1-4.42.79l.27-.2-2.48,15.93-.19-.22a29.3,29.3,0,0,0,6.83-1,13.55,13.55,0,0,0,3.18-1.3,6.61,6.61,0,0,0,2.46-2.29v0c1.34-4.26,2.74-8.51,4.11-12.76-1.29,4.28-2.54,8.57-3.85,12.84v0h0a7,7,0,0,1-2.55,2.42,13.89,13.89,0,0,1-3.24,1.35,29.37,29.37,0,0,1-6.91,1.09h-.23l0-.23,2.37-15.95,0-.22h.23a10.51,10.51,0,0,0,4.22-.74,30.18,30.18,0,0,0,4-1.74,64.54,64.54,0,0,0,7.51-4.57l.17-.12.09.18,1.63,3.25.07.14-.13.07c-4.2,2.32-8.39,4.65-12.61,6.92l0,0,0,0Z" transform="translate(-74.68 -70.99)"/><path class="cls-9" d="M229.42,379.87l-5,3.08-9.35-5.21L211.9,376l1.65-3.24s10.46,7.63,15.87,7.16l2.42,15.94s-10-.17-12.59-4.74l-4-12.8" transform="translate(-74.68 -70.99)"/><path class="cls-10" d="M229.42,379.87,224.49,383l0,0,0,0c-4.22-2.27-8.41-4.6-12.61-6.92l-.13-.07.07-.14,1.63-3.25.09-.18.17.12a64.54,64.54,0,0,0,7.51,4.57,30.18,30.18,0,0,0,4,1.74,10.51,10.51,0,0,0,4.22.74h.23l0,.22L232,395.78l0,.23h-.22a29.46,29.46,0,0,1-6.92-1.09,13.89,13.89,0,0,1-3.24-1.35,7,7,0,0,1-2.55-2.42h0v0c-1.31-4.27-2.56-8.56-3.85-12.84,1.37,4.25,2.77,8.5,4.11,12.76v0a6.61,6.61,0,0,0,2.46,2.29,13.45,13.45,0,0,0,3.19,1.3,29.14,29.14,0,0,0,6.82,1l-.19.22-2.48-15.93.27.2a11.1,11.1,0,0,1-4.41-.79,32.1,32.1,0,0,1-4.06-1.8,64.59,64.59,0,0,1-7.52-4.67l.26-.06L212.05,376l-.07-.22c4.18,2.35,8.36,4.69,12.51,7.08h-.07Z" transform="translate(-74.68 -70.99)"/><path class="cls-9" d="M261,369.14a75.25,75.25,0,0,0,8.66-.5l-1,38.89H261Z" transform="translate(-74.68 -70.99)"/><path class="cls-11" d="M329.17,159.22s190.81,19.42,84,177.92l-28.37-10.62" transform="translate(-74.68 -70.99)"/><path class="cls-12" d="M191.18,159.22s-190.81,19.42-84,177.92l28.36-10.62" transform="translate(-74.68 -70.99)"/><ellipse class="cls-13" cx="186.17" cy="196.11" rx="142.21" ry="123.25"/><path class="cls-14" d="M181.74,350.53" transform="translate(-74.68 -70.99)"/><path class="cls-15" d="M111.52,335.73s8.81,11.31,33.6,7.6l2.3-1,.49-.36s-11.73-14-12.21-16.33" transform="translate(-74.68 -70.99)"/><path class="cls-15" d="M410.6,336.94s-8.8,11.31-33.59,7.6l-2.31-1-.48-.37s11.73-14,12.2-16.32" transform="translate(-74.68 -70.99)"/><polyline class="cls-16" points="187 317.92 187 108.84 207.5 122.26 246.6 95.12"/><path class="cls-17" d="M165.47,224.45s-15.21,23.31-8.74,33.41L174,265.24l21.07-5.05,9.68-33.41" transform="translate(-74.68 -70.99)"/><polyline class="cls-16" points="184.09 317.92 184.09 108.84 163.59 122.26 124.5 95.12"/><path class="cls-18" d="M191.41,190.31l.11-.21a3.5,3.5,0,0,1,1.17-1.23,6.33,6.33,0,0,1,3.61-1,6.68,6.68,0,0,1,2.2.37.08.08,0,0,0,.1,0l3.07-3.2a1.83,1.83,0,0,1,1.46-.5l.18,0,1.71.27h0l-.24.68-.08,0-1.59-.25a.66.66,0,0,0-.65.17c-.3.32-.6.64-.91,1l0,0h.08l8.18,1.33a.11.11,0,0,0,.11,0l.61-.52s0,0,.05-.05h-.08l-1.38-.22a.45.45,0,0,1-.39-.29c0-.15.07-.29.26-.36a.62.62,0,0,1,.38,0l3.71.6h.07l-.24.68h-.07l-1.1-.18a.11.11,0,0,0-.1,0l-1,.85s0,0,0,.05l.66,2.14a0,0,0,0,0,0,0l.49,0a7.38,7.38,0,0,1,1.7.19,5,5,0,0,1,2.74,1.57,2.46,2.46,0,0,1,.63,1.83c-.11,1.26-1,2.22-2.57,2.85a6.68,6.68,0,0,1-2.84.43l-.46,0h-.06l-.55-.09h-.07l-.77-.22a4.43,4.43,0,0,1-2.27-1.59,2.44,2.44,0,0,1-.47-1.78l0-.2h-.09l-2.05-.33a.67.67,0,0,1-.42-.23l-.62-.8c-.54-.7-1.09-1.4-1.63-2.11L200.58,188l-.26-.34-.91,1h0l.05,0a3,3,0,0,1,1.8,3,2.62,2.62,0,0,1-.5,1.17,5,5,0,0,1-3,1.74,7.15,7.15,0,0,1-2.12.14l-.33,0-.56-.09-.06,0c-.24-.07-.49-.12-.72-.2a4.18,4.18,0,0,1-2.61-2.1,2.31,2.31,0,0,1-.18-1.37,1.57,1.57,0,0,0,0-.23Zm7.41-1.08,0,0-1.53,1.6-.55.57a.65.65,0,0,1-.68.12c-.26-.1-.33-.32-.15-.51l2.07-2.16,0,0a5.13,5.13,0,0,0-5.16,1.06c-1.12,1.27-.55,2.9,1.27,3.7a5.24,5.24,0,0,0,5.47-.77C200.76,191.62,200.32,190.08,198.82,189.23Zm9,4.28c-.2.94.43,2.13,2.08,2.74a5.41,5.41,0,0,0,4.87-.59,2.09,2.09,0,0,0,.35-3.33,4.81,4.81,0,0,0-3.62-1.2l.15.49c.21.7.43,1.39.64,2.09a.22.22,0,0,1,0,.22.59.59,0,0,1-.62.2l-3.74-.61ZM201,187l3.87,5,4.33-3.67Zm9.35,3.55-.52-1.65-4.13,3.51,1.42.23A4.71,4.71,0,0,1,210.31,190.56Zm-2.2,2.26,3,.5-.64-2.06A3.73,3.73,0,0,0,208.11,192.82Z" transform="translate(-74.68 -70.99)"/><path class="cls-18" d="M199.73,214.57c0-.08,0-.15,0-.23a2.74,2.74,0,0,1,.71-1.38,5.33,5.33,0,0,1,3.17-1.55,7.2,7.2,0,0,1,2.27,0c.05,0,.07,0,.09,0l1.89-3.59a1.55,1.55,0,0,1,1.25-.72h2v.7h-1.72c-.3,0-.47.08-.57.28l-.57,1.07a.17.17,0,0,1,0,.05h8.49a.11.11,0,0,0,.1,0l.42-.61,0-.05h-1.5a.55.55,0,0,1-.48-.22.28.28,0,0,1,.13-.39.69.69,0,0,1,.36-.09h3.89v.7h-1.21c-.05,0-.07,0-.09,0l-.68,1a.06.06,0,0,0,0,.06l1.37,2s0,0,0,0l.47-.09a7.07,7.07,0,0,1,1.72-.09,6,6,0,0,1,3.2,1.1,3.05,3.05,0,0,1,1.24,1.68c.32,1.24-.19,2.3-1.53,3.17a5.86,5.86,0,0,1-2.62.88l-.46,0h-.69c-.28,0-.56,0-.83-.09a5.62,5.62,0,0,1-2.75-1.18,3,3,0,0,1-1.06-1.66,1.18,1.18,0,0,1,0-.2h-2.19a.71.71,0,0,1-.49-.14l-.87-.68-2.31-1.8-2-1.57-.37-.29-.56,1.07h0l.06,0a3.78,3.78,0,0,1,2.77,2.64,2.17,2.17,0,0,1-.08,1.21,3.81,3.81,0,0,1-2.29,2.16,6.3,6.3,0,0,1-2,.48l-.33,0h-.64c-.26,0-.52,0-.77-.08a5.29,5.29,0,0,1-3.25-1.62,2.68,2.68,0,0,1-.64-1.31c0-.07,0-.15,0-.23Zm6.84-2.23s0,0,0,0c-.32.6-.63,1.2-1,1.79l-.34.65a.57.57,0,0,1-.62.22c-.29-.06-.43-.26-.32-.47l1.28-2.43,0-.05c-1.88-.28-4,.41-4.66,1.85s.45,2.9,2.5,3.39,4.29-.22,5.06-1.61S208.32,212.93,206.57,212.34Zm10.25,2.73c.12,1,1.14,2,3,2.34a4.87,4.87,0,0,0,4.54-1.34,2.16,2.16,0,0,0-.8-3.3,5.38,5.38,0,0,0-3.93-.59l.31.45,1.34,1.93a.26.26,0,0,1,.06.22c0,.18-.26.29-.53.29h-3.94Zm-8.93-5.22,5.48,4.25,3-4.25Zm10.31,2-1.07-1.51-2.82,4.06h1.46A3.71,3.71,0,0,1,218.2,211.81Zm-1.37,2.55H220l-1.33-1.9A2.93,2.93,0,0,0,216.83,214.36Z" transform="translate(-74.68 -70.99)"/><path class="cls-18" d="M214.78,238.87a1.85,1.85,0,0,0,0-.23,2.68,2.68,0,0,1,.72-1.38,5.28,5.28,0,0,1,3.16-1.55,7.2,7.2,0,0,1,2.27,0c.06,0,.07,0,.09,0l1.9-3.59a1.51,1.51,0,0,1,1.24-.72l.19,0h1.8v.7h-1.72c-.3,0-.47.08-.57.28s-.37.71-.56,1.07a.06.06,0,0,0,0,0h8.48s.08,0,.1,0l.42-.6,0-.05h-1.51a.55.55,0,0,1-.48-.22.3.3,0,0,1,.13-.39.71.71,0,0,1,.36-.09h3.89v.7h-1.21a.1.1,0,0,0-.09,0l-.67,1s0,.05,0,.06l1.36,2,0,0,.47-.09a7,7,0,0,1,1.72-.09,6.1,6.1,0,0,1,3.2,1.1,3.07,3.07,0,0,1,1.24,1.68c.31,1.24-.2,2.3-1.54,3.17a5.86,5.86,0,0,1-2.61.87l-.46,0h-.7c-.27,0-.55,0-.83-.09a5.58,5.58,0,0,1-2.74-1.18,3,3,0,0,1-1.07-1.66c0-.07,0-.13,0-.2h-2.19a.72.72,0,0,1-.49-.15l-.87-.67-2.31-1.8-2-1.57-.38-.29L222,236h0l.06,0a3.76,3.76,0,0,1,2.77,2.64,2.18,2.18,0,0,1-.08,1.21,3.81,3.81,0,0,1-2.29,2.16,6.23,6.23,0,0,1-2,.48l-.33,0h-.64c-.25,0-.52,0-.77-.08a5.24,5.24,0,0,1-3.25-1.63,2.61,2.61,0,0,1-.64-1.3,1.85,1.85,0,0,0,0-.23Zm6.85-2.23,0,.05-.94,1.79-.34.65a.58.58,0,0,1-.62.22c-.3-.06-.44-.26-.33-.47l1.28-2.43s0,0,0,0c-1.87-.28-4,.41-4.65,1.85s.45,2.9,2.49,3.39,4.3-.22,5.06-1.61S223.37,237.23,221.63,236.64Zm10.24,2.73c.12.95,1.14,2,2.95,2.34a4.89,4.89,0,0,0,4.54-1.34,2.15,2.15,0,0,0-.79-3.3,5.36,5.36,0,0,0-3.94-.59l.31.45,1.35,1.93a.29.29,0,0,1,.05.22c-.05.18-.26.29-.53.29h-3.94ZM223,234.14l5.47,4.26,3-4.26Zm10.3,2-1.06-1.51-2.83,4.06h1.46A3.71,3.71,0,0,1,233.25,236.11Zm-1.37,2.55H235l-1.32-1.9A2.93,2.93,0,0,0,231.88,238.66Z" transform="translate(-74.68 -70.99)"/><path class="cls-18" d="M220.4,269c0-.07,0-.15,0-.22a2.7,2.7,0,0,1,.71-1.38,5.33,5.33,0,0,1,3.17-1.55,6.92,6.92,0,0,1,2.27,0s.07,0,.09,0l1.89-3.6a1.53,1.53,0,0,1,1.25-.72h2v.7h-1.72c-.3,0-.47.08-.57.27l-.57,1.07s0,0,0,.05h8.49a.12.12,0,0,0,.1,0c.13-.2.28-.4.42-.6l0-.05h-1.5a.55.55,0,0,1-.48-.22.28.28,0,0,1,.13-.39.6.6,0,0,1,.36-.09h3.89v.7h-1.21a.11.11,0,0,0-.09,0c-.22.33-.45.65-.68,1a.06.06,0,0,0,0,.06l1.37,2,0,0,.47-.09a7.07,7.07,0,0,1,1.72-.09,6,6,0,0,1,3.2,1.09,3.05,3.05,0,0,1,1.24,1.68c.32,1.24-.19,2.31-1.53,3.18a5.85,5.85,0,0,1-2.62.87l-.46,0h-.69c-.28,0-.56-.05-.83-.09a5.54,5.54,0,0,1-2.75-1.19,3,3,0,0,1-1.06-1.66,1.06,1.06,0,0,1,0-.19h-2.19a.77.77,0,0,1-.49-.15l-.87-.68-2.31-1.79-2-1.58-.37-.29-.57,1.07h0l.06,0a3.81,3.81,0,0,1,2.77,2.64,2.21,2.21,0,0,1-.08,1.22,3.83,3.83,0,0,1-2.29,2.16,6.58,6.58,0,0,1-2,.48l-.33,0h-.64c-.26,0-.52,0-.77-.08a5.3,5.3,0,0,1-3.25-1.63,2.65,2.65,0,0,1-.64-1.3c0-.08,0-.16,0-.23Zm6.84-2.22a.08.08,0,0,0,0,0l-.95,1.8c-.11.22-.22.43-.34.64a.57.57,0,0,1-.62.23c-.29-.06-.43-.26-.32-.47l1.28-2.43s0,0,0-.05c-1.88-.29-4,.41-4.66,1.84s.45,2.91,2.5,3.4,4.29-.22,5.06-1.61S229,267.4,227.24,266.81Zm10.24,2.73c.13.95,1.15,2,3,2.33a4.89,4.89,0,0,0,4.54-1.33,2.16,2.16,0,0,0-.8-3.3,5.33,5.33,0,0,0-3.93-.59c.1.15.2.3.31.44L241.9,269a.25.25,0,0,1,.06.21c-.05.19-.26.3-.54.3h-3.94Zm-8.92-5.23,5.48,4.25,3-4.25Zm10.31,2-1.07-1.52L235,268.83h1.46A3.67,3.67,0,0,1,238.87,266.28Zm-1.37,2.55h3.14l-1.33-1.9A2.93,2.93,0,0,0,237.5,268.83Z" transform="translate(-74.68 -70.99)"/><path class="cls-18" d="M220.4,300.64c0-.08,0-.15,0-.22a2.73,2.73,0,0,1,.71-1.39,5.33,5.33,0,0,1,3.17-1.55,7.2,7.2,0,0,1,2.27,0s.07,0,.09,0l1.89-3.6a1.53,1.53,0,0,1,1.25-.72h2v.69h-1.72c-.3,0-.47.08-.57.28l-.57,1.07,0,.05h8.49a.12.12,0,0,0,.1,0c.13-.2.28-.4.42-.6l0-.06h-1.5a.55.55,0,0,1-.48-.22.28.28,0,0,1,.13-.39.69.69,0,0,1,.36-.09h3.89v.7h-1.21s-.07,0-.09,0l-.68,1a.06.06,0,0,0,0,.06c.46.66.91,1.32,1.37,2l0,0,.47-.09a6.6,6.6,0,0,1,1.72-.08,6,6,0,0,1,3.2,1.09,3.05,3.05,0,0,1,1.24,1.68c.32,1.24-.19,2.31-1.53,3.17a5.86,5.86,0,0,1-2.62.88l-.46,0h-.69c-.28,0-.56,0-.83-.09a5.62,5.62,0,0,1-2.75-1.18,3,3,0,0,1-1.06-1.66,1.29,1.29,0,0,1,0-.19h-2.19a.77.77,0,0,1-.49-.15l-.87-.68-2.31-1.8-2-1.57-.37-.29-.57,1.07h0l.06,0a3.8,3.8,0,0,1,2.77,2.64,2.17,2.17,0,0,1-.08,1.21,3.82,3.82,0,0,1-2.29,2.17,6.29,6.29,0,0,1-2,.47l-.33,0h-.64a6.48,6.48,0,0,1-.77-.08,5.24,5.24,0,0,1-3.25-1.62,2.68,2.68,0,0,1-.64-1.31c0-.07,0-.15,0-.23Zm6.84-2.23s0,0,0,0l-.95,1.8-.34.64a.57.57,0,0,1-.62.22c-.29-.05-.43-.26-.32-.47l1.28-2.43,0-.05c-1.88-.28-4,.41-4.66,1.85s.45,2.9,2.5,3.4,4.29-.23,5.06-1.62S229,299,227.24,298.41Zm10.24,2.74c.13.94,1.15,2,3,2.33a4.87,4.87,0,0,0,4.54-1.34,2.16,2.16,0,0,0-.8-3.3,5.38,5.38,0,0,0-3.93-.59l.31.45,1.34,1.93a.26.26,0,0,1,.06.22c-.05.18-.26.29-.54.29h-3.94Zm-8.92-5.23,5.48,4.25,3-4.25Zm10.31,2-1.07-1.51L235,300.43h1.46A3.69,3.69,0,0,1,238.87,297.88Zm-1.37,2.55h3.14l-1.33-1.9A2.93,2.93,0,0,0,237.5,300.43Z" transform="translate(-74.68 -70.99)"/><path class="cls-18" d="M220.4,323.78c0-.07,0-.15,0-.22a2.77,2.77,0,0,1,.71-1.39,5.38,5.38,0,0,1,3.17-1.54,6.92,6.92,0,0,1,2.27,0s.07,0,.09,0l1.89-3.6a1.53,1.53,0,0,1,1.25-.72h2v.7h-1.72c-.3,0-.47.08-.57.27l-.57,1.07s0,0,0,.05h8.49a.12.12,0,0,0,.1,0c.13-.2.28-.4.42-.6l0-.06h-1.5a.53.53,0,0,1-.48-.22.27.27,0,0,1,.13-.38.61.61,0,0,1,.36-.1h3.89v.7h-1.21s-.07,0-.09,0c-.22.33-.45.65-.68,1a.06.06,0,0,0,0,.06c.46.65.91,1.31,1.37,2l0,0,.47-.1a7.61,7.61,0,0,1,1.72-.08,6,6,0,0,1,3.2,1.09,3.05,3.05,0,0,1,1.24,1.68c.32,1.24-.19,2.31-1.53,3.18a5.85,5.85,0,0,1-2.62.87l-.46,0h-.69c-.28,0-.56-.05-.83-.09a5.54,5.54,0,0,1-2.75-1.19,3,3,0,0,1-1.06-1.66,1.29,1.29,0,0,1,0-.19h-2.19a.77.77,0,0,1-.49-.15l-.87-.68-2.31-1.8-2-1.57-.37-.29-.57,1.07h0l.06,0a3.8,3.8,0,0,1,2.77,2.64,2.21,2.21,0,0,1-.08,1.22,3.83,3.83,0,0,1-2.29,2.16,6.58,6.58,0,0,1-2,.48l-.33,0h-.64c-.26,0-.52,0-.77-.08a5.3,5.3,0,0,1-3.25-1.63,2.65,2.65,0,0,1-.64-1.3c0-.08,0-.16,0-.24Zm6.84-2.23a.17.17,0,0,0,0,.05l-.95,1.8c-.11.21-.22.43-.34.64a.57.57,0,0,1-.62.23c-.29-.06-.43-.26-.32-.47l1.28-2.44s0,0,0-.05c-1.88-.28-4,.42-4.66,1.85s.45,2.91,2.5,3.4,4.29-.22,5.06-1.62S229,322.15,227.24,321.55Zm10.24,2.74c.13.94,1.15,2,3,2.33a4.87,4.87,0,0,0,4.54-1.34c.87-1.09.53-2.46-.8-3.3a5.43,5.43,0,0,0-3.93-.59l.31.45,1.34,1.94a.25.25,0,0,1,.06.21.52.52,0,0,1-.54.3h-3.94Zm-8.92-5.23,5.48,4.25,3-4.25Zm10.31,2-1.07-1.52L235,323.58h1.46A3.67,3.67,0,0,1,238.87,321Zm-1.37,2.55h3.14l-1.33-1.91A2.92,2.92,0,0,0,237.5,323.58Z" transform="translate(-74.68 -70.99)"/><path class="cls-18" d="M219.73,354.49a1.7,1.7,0,0,1,0-.22,2.63,2.63,0,0,1,.71-1.38,5.3,5.3,0,0,1,3.17-1.55,6.86,6.86,0,0,1,2.26,0c.06,0,.08,0,.1,0l1.89-3.6a1.53,1.53,0,0,1,1.25-.72h2v.7h-1.71c-.31,0-.47.08-.57.27l-.57,1.07s0,0,0,.05h8.49c.05,0,.07,0,.09,0l.43-.6,0-.05h-1.51a.54.54,0,0,1-.47-.22.28.28,0,0,1,.13-.39.6.6,0,0,1,.36-.09h3.88v.7h-1.2a.11.11,0,0,0-.09,0l-.68,1a.06.06,0,0,0,0,.06l1.37,2,0,0c.16,0,.31-.07.47-.09a7.07,7.07,0,0,1,1.72-.09,6,6,0,0,1,3.2,1.09,3.05,3.05,0,0,1,1.24,1.68c.32,1.24-.2,2.31-1.53,3.18a5.9,5.9,0,0,1-2.62.87l-.46,0h-.69c-.28,0-.56-.05-.83-.09a5.54,5.54,0,0,1-2.75-1.19,2.92,2.92,0,0,1-1.06-1.66,1.06,1.06,0,0,1,0-.19h-2.19a.77.77,0,0,1-.49-.15l-.87-.68-2.32-1.79-2-1.58-.38-.29-.56,1.07h0l.06,0a3.81,3.81,0,0,1,2.77,2.64,2.12,2.12,0,0,1-.09,1.22,3.81,3.81,0,0,1-2.28,2.16,6.58,6.58,0,0,1-2,.48l-.33,0h-.64c-.26,0-.52,0-.77-.08a5.3,5.3,0,0,1-3.25-1.63,2.65,2.65,0,0,1-.64-1.3,2.23,2.23,0,0,1,0-.23Zm6.84-2.22,0,0-.94,1.8c-.11.22-.22.43-.34.64a.58.58,0,0,1-.62.23c-.29-.06-.43-.26-.32-.47.42-.81.85-1.62,1.28-2.43a.08.08,0,0,1,0-.05c-1.88-.29-4,.41-4.66,1.84s.45,2.91,2.49,3.4,4.3-.22,5.07-1.61S228.32,352.86,226.57,352.27ZM236.81,355c.13.95,1.15,2,2.95,2.33A4.88,4.88,0,0,0,244.3,356a2.15,2.15,0,0,0-.79-3.3,5.35,5.35,0,0,0-3.94-.59c.11.15.21.3.32.44.44.65.89,1.29,1.34,1.94a.21.21,0,0,1,.05.21c-.05.19-.25.3-.53.3h-3.94Zm-8.92-5.23,5.48,4.26,2.95-4.26Zm10.3,2-1.06-1.52-2.82,4.07h1.46A3.67,3.67,0,0,1,238.19,351.74Zm-1.36,2.55H240l-1.33-1.9A2.91,2.91,0,0,0,236.83,354.29Z" transform="translate(-74.68 -70.99)"/><path class="cls-18" d="M201.91,376.57l-.12-.21a2.45,2.45,0,0,1-.3-1.46,3.21,3.21,0,0,1,1.78-2.36,5.78,5.78,0,0,1,2-.71c.06,0,.07,0,.06-.06-.25-1.26-.5-2.52-.74-3.79-.08-.42.13-.76.62-1l.16-.07,1.56-.55h0l.47.62-.08,0-1.44.51c-.27.09-.37.21-.33.42.08.38.15.75.22,1.13a.43.43,0,0,1,0,.05l.07,0,7.47-2.63s.06,0,.06-.07l0-.66v-.06l-.08,0-1.26.45a.66.66,0,0,1-.57-.05.28.28,0,0,1-.15-.38.49.49,0,0,1,.26-.2l3.39-1.19.06,0,.47.63-.06,0-1,.35s-.06,0,0,.07c0,.35,0,.71,0,1.07a.08.08,0,0,0,0,.06l2.55,1.32,0,0,.36-.23a5.42,5.42,0,0,1,1.47-.62,7.23,7.23,0,0,1,3.58,0,5.1,5.1,0,0,1,2.23,1.11,2.55,2.55,0,0,1,.78,3.3,3.73,3.73,0,0,1-1.74,1.59l-.38.18-.05,0-.5.18h-.07c-.26.06-.52.14-.79.19a7.07,7.07,0,0,1-3.24-.2,5.06,5.06,0,0,1-2.07-1.14c-.05,0-.11-.1-.16-.16l-.08,0-1.87.66a.87.87,0,0,1-.53,0l-1.24-.33-3.26-.87-2.85-.76-.53-.14.22,1.12h.09a5.93,5.93,0,0,1,4.23,1.47,2.92,2.92,0,0,1,.75,1.11,2.52,2.52,0,0,1-.58,2.64,4.39,4.39,0,0,1-1.46,1.05l-.28.13-.51.18h-.06c-.24.06-.48.13-.73.17a7.07,7.07,0,0,1-4-.42,4.58,4.58,0,0,1-1.45-1l-.19-.19Zm4.58-4.13v.06c.13.63.25,1.26.38,1.89,0,.22.09.45.13.67s-.13.36-.4.4a.5.5,0,0,1-.6-.32l-.51-2.56s0,0,0-.05c-1.86.34-3.27,1.61-2.89,3.1s2.36,2.44,4.5,2.24,3.67-1.55,3.41-3S208.44,372.42,206.49,372.44Zm10.93-.78a4.94,4.94,0,0,0,4.2,1.15c1.81-.28,3.09-1.35,3.13-2.61s-1.19-2.36-2.93-2.68a5.16,5.16,0,0,0-3.89.71l.58.3,2.5,1.29a.47.47,0,0,1,.19.18c.07.18,0,.34-.28.43l-3.42,1.2ZM206,369.81l7.73,2.07-.24-4.71Zm10.47-1.48-2-1,.23,4.5,1.3-.46A2.55,2.55,0,0,1,216.45,368.33ZM217,371l2.79-1-2.46-1.27A2,2,0,0,0,217,371Z" transform="translate(-74.68 -70.99)"/><path class="cls-18" d="M168.52,354.94a1.87,1.87,0,0,1-.07-.22,2.24,2.24,0,0,1,0-1.47,3.8,3.8,0,0,1,2.27-2.16,6.45,6.45,0,0,1,2.14-.5c.06,0,.07,0,.07,0l.09-3.82q0-.64.84-1l.17-.05,1.65-.39h.05l.33.66-.08,0-1.54.36c-.29.07-.41.18-.41.39l0,1.13v.05h.07l8-1.86c.05,0,.07,0,.07-.06l.12-.66v-.06l-.07,0-1.35.31a.67.67,0,0,1-.56-.1.28.28,0,0,1-.06-.4.62.62,0,0,1,.3-.17l3.61-.84h.07l.33.66h-.07l-1.07.26c-.05,0-.06,0-.07.05l-.18,1.07a.07.07,0,0,0,0,.06l2.23,1.56,0,0,.4-.19a6,6,0,0,1,1.58-.46,7.06,7.06,0,0,1,3.55.33,4.37,4.37,0,0,1,2,1.32,2.46,2.46,0,0,1,.06,3.34,4.37,4.37,0,0,1-2.06,1.4l-.42.14-.05,0-.53.12h-.07c-.28,0-.55.08-.83.1a6.91,6.91,0,0,1-3.16-.51,4.35,4.35,0,0,1-1.8-1.34l-.13-.17h-.08l-2,.47a.87.87,0,0,1-.53,0l-1.15-.45-3-1.19-2.66-1-.5-.19,0,1.13H174a5.32,5.32,0,0,1,3.87,1.89,2.51,2.51,0,0,1,.5,1.17,2.74,2.74,0,0,1-1.14,2.55,5.23,5.23,0,0,1-1.67.9l-.3.09-.55.13h-.06c-.26,0-.51.08-.77.09a6.61,6.61,0,0,1-3.84-.82,3.75,3.75,0,0,1-1.23-1.09l-.15-.21Zm5.41-3.62v.05c0,.64,0,1.27,0,1.91,0,.23,0,.45,0,.68s-.21.34-.49.35-.53-.15-.52-.37c0-.86,0-1.72,0-2.59v-.05c-1.91.15-3.58,1.27-3.53,2.78s1.81,2.65,4,2.66,4-1.16,4-2.64S175.87,351.49,173.93,351.32Zm11,.32a4.46,4.46,0,0,0,3.9,1.56c1.85-.09,3.35-1,3.66-2.27s-.66-2.45-2.32-2.95a5.48,5.48,0,0,0-4,.31l.51.36,2.19,1.53a.37.37,0,0,1,.15.19c0,.19-.1.34-.36.4l-3.65.85Zm-10.92-3,7.2,2.81.77-4.68Zm10.68-.42-1.73-1.2-.74,4.47,1.38-.32A2.74,2.74,0,0,1,184.68,348.25Zm-.09,2.72,3-.7-2.16-1.5A2.14,2.14,0,0,0,184.59,351Z" transform="translate(-74.68 -70.99)"/><path class="cls-18" d="M163.57,325.23a1.87,1.87,0,0,1-.07-.22,2.24,2.24,0,0,1,0-1.47,3.78,3.78,0,0,1,2.26-2.16,6.33,6.33,0,0,1,2.15-.5c.06,0,.07,0,.07-.05,0-1.28,0-2.55.07-3.82,0-.43.3-.75.84-1l.17-.06,1.66-.39h0l.33.66-.07,0-1.55.36c-.29.07-.4.18-.41.39,0,.38,0,.76,0,1.14v0l.07,0,8-1.86a.09.09,0,0,0,.07-.06c0-.22.07-.44.11-.66,0,0,0,0,0-.06h-.08l-1.35.32a.64.64,0,0,1-.55-.1.27.27,0,0,1-.07-.4.62.62,0,0,1,.3-.17l3.61-.84.07,0,.33.67h-.07l-1.07.25s-.06,0-.06.06l-.18,1.07a.09.09,0,0,0,0,.06l2.23,1.56,0,0,.39-.19a5.85,5.85,0,0,1,1.59-.46,7,7,0,0,1,3.55.32,4.44,4.44,0,0,1,2,1.31,2.48,2.48,0,0,1,.07,3.35,4.42,4.42,0,0,1-2.06,1.4l-.42.14,0,0-.54.12h-.07c-.27,0-.54.08-.82.1a6.78,6.78,0,0,1-3.16-.51,4.33,4.33,0,0,1-1.8-1.33l-.13-.18-.08,0-2,.47a1,1,0,0,1-.53,0l-1.15-.45-3-1.19-2.66-1-.5-.19,0,1.14h.09a5.28,5.28,0,0,1,3.88,1.88,2.62,2.62,0,0,1,.5,1.17,2.75,2.75,0,0,1-1.13,2.55,5,5,0,0,1-1.68.9l-.3.1-.54.13h-.06c-.26,0-.51.08-.77.1a6.64,6.64,0,0,1-3.85-.82,3.86,3.86,0,0,1-1.23-1.09l-.15-.21ZM169,321.6s0,0,0,.06l0,1.9c0,.23,0,.46,0,.69s-.21.34-.48.35-.54-.15-.53-.38c0-.86,0-1.72,0-2.58v-.05c-1.91.15-3.57,1.27-3.52,2.78s1.81,2.65,4,2.66,4-1.17,4-2.65S170.91,321.78,169,321.6Zm11,.32a4.46,4.46,0,0,0,3.9,1.55c1.85-.09,3.35-1,3.65-2.27s-.66-2.45-2.32-2.95a5.48,5.48,0,0,0-4,.32l.51.35,2.19,1.53a.32.32,0,0,1,.15.2c0,.18-.1.33-.36.39l-3.64.86ZM169,319l7.2,2.81.77-4.68Zm10.68-.42-1.73-1.2-.73,4.47,1.38-.32A2.72,2.72,0,0,1,179.72,318.53Zm-.08,2.71,3-.69L180.45,319A2.13,2.13,0,0,0,179.64,321.24Z" transform="translate(-74.68 -70.99)"/><path class="cls-18" d="M129.73,308.15l-.07-.22a2.39,2.39,0,0,1,.07-1.47,3.91,3.91,0,0,1,2.34-2.12,6.66,6.66,0,0,1,2.17-.46c.06,0,.07,0,.07-.05.07-1.28.14-2.55.22-3.82,0-.43.32-.74.87-.95l.18-.05,1.66-.36h0l.31.67-.08,0-1.56.33c-.29.06-.41.17-.42.38,0,.38,0,.76-.07,1.14v.05l.07,0,8-1.72a.09.09,0,0,0,.07-.06c0-.22.09-.44.14-.66a.13.13,0,0,1,0-.06l-.08,0-1.36.29a.67.67,0,0,1-.55-.11.26.26,0,0,1-.05-.4.54.54,0,0,1,.3-.16l3.65-.78.06,0,.31.67H146l-1.08.24s-.06,0-.07,0l-.21,1.07s0,0,0,.06l2.17,1.6,0,0,.4-.19a6.35,6.35,0,0,1,1.61-.43,7,7,0,0,1,3.53.39,4.28,4.28,0,0,1,1.92,1.34,2.49,2.49,0,0,1-.05,3.35,4.56,4.56,0,0,1-2.12,1.36l-.42.13-.06,0-.53.12h-.07c-.28,0-.55.07-.83.08a6.79,6.79,0,0,1-3.14-.56,4.17,4.17,0,0,1-1.75-1.37c0-.06-.08-.11-.12-.18l-.08,0-2,.43a.79.79,0,0,1-.53,0l-1.14-.47-3-1.23L135.86,303l-.48-.2-.07,1.13h.09a5.14,5.14,0,0,1,3.8,1.95,2.34,2.34,0,0,1,.46,1.17,2.79,2.79,0,0,1-1.23,2.54,5.34,5.34,0,0,1-1.7.87l-.31.09-.54.12h-.07c-.25,0-.51.07-.77.09a6.56,6.56,0,0,1-3.81-.89,3.65,3.65,0,0,1-1.19-1.11l-.14-.22Zm5.54-3.53a.43.43,0,0,1,0,.05c0,.64-.07,1.27-.1,1.91,0,.23,0,.46,0,.68s-.22.34-.49.34-.53-.16-.52-.38c0-.86.1-1.72.14-2.58a.09.09,0,0,0,0-.05c-1.92.12-3.63,1.21-3.63,2.71s1.71,2.69,3.87,2.73,4-1.09,4.12-2.58S137.2,304.83,135.27,304.62Zm11,.51a4.4,4.4,0,0,0,3.85,1.62c1.85-.06,3.38-1,3.74-2.21s-.58-2.46-2.21-3a5.55,5.55,0,0,0-4,.25l.5.36,2.13,1.57a.36.36,0,0,1,.15.2c0,.18-.12.33-.38.39l-3.67.79ZM135.43,302l7.1,2.93.94-4.66Zm10.69-.24-1.68-1.22-.9,4.45,1.39-.3A2.78,2.78,0,0,1,146.12,301.73Zm-.18,2.72,3-.65-2.11-1.54A2.21,2.21,0,0,0,145.94,304.45Z" transform="translate(-74.68 -70.99)"/><path class="cls-18" d="M168.42,291.65c0-.08,0-.15,0-.23a2.74,2.74,0,0,1,.71-1.38,5.33,5.33,0,0,1,3.17-1.55,7.2,7.2,0,0,1,2.27,0s.07,0,.09,0l1.89-3.59a1.55,1.55,0,0,1,1.25-.72l.19,0h1.8v.7h-1.72c-.3,0-.47.08-.57.28s-.38.71-.56,1.07l0,0h8.49c.05,0,.08,0,.1-.05l.42-.6,0-.05h-1.5a.55.55,0,0,1-.48-.22.28.28,0,0,1,.13-.39.69.69,0,0,1,.36-.09h3.89v.7h-1.21c-.05,0-.07,0-.09,0l-.67,1a0,0,0,0,0,0,.06l1.37,2s0,0,0,0l.47-.09a7.07,7.07,0,0,1,1.72-.09,6,6,0,0,1,3.2,1.1,3,3,0,0,1,1.24,1.68c.32,1.24-.19,2.3-1.53,3.17a5.85,5.85,0,0,1-2.62.87l-.45,0h-.7c-.28,0-.56,0-.83-.09a5.54,5.54,0,0,1-2.74-1.18,3,3,0,0,1-1.07-1.66,1.42,1.42,0,0,1,0-.2h-2.19a.72.72,0,0,1-.49-.15l-.87-.68-2.31-1.79-2-1.57-.37-.29-.56,1.06h0l.06,0a3.81,3.81,0,0,1,2.77,2.65,2.18,2.18,0,0,1-.08,1.21,3.83,3.83,0,0,1-2.29,2.16,6.3,6.3,0,0,1-2,.48l-.33,0h-.64c-.26,0-.52,0-.77-.08a5.24,5.24,0,0,1-3.25-1.63,2.61,2.61,0,0,1-.64-1.3c0-.08,0-.15,0-.23Zm6.84-2.23s0,0,0,.05l-1,1.79-.34.65a.57.57,0,0,1-.62.22c-.29-.06-.43-.26-.32-.47l1.28-2.43,0-.05c-1.88-.28-4,.41-4.66,1.84s.45,2.91,2.5,3.4,4.29-.22,5.06-1.61S177,290,175.26,289.42Zm10.25,2.73c.12,1,1.14,2,3,2.33a4.86,4.86,0,0,0,4.54-1.33,2.16,2.16,0,0,0-.79-3.3,5.36,5.36,0,0,0-3.94-.59l.31.45,1.34,1.93a.26.26,0,0,1,.06.22c0,.18-.26.29-.53.29h-3.94Zm-8.93-5.23,5.48,4.26,3-4.26Zm10.31,2-1.07-1.51L183,291.44h1.46A3.71,3.71,0,0,1,186.89,288.89Zm-1.37,2.55h3.14l-1.33-1.9A2.93,2.93,0,0,0,185.52,291.44Z" transform="translate(-74.68 -70.99)"/><path class="cls-18" d="M124.27,270.26a1.7,1.7,0,0,1,0-.22,2.63,2.63,0,0,1,.71-1.38,5.3,5.3,0,0,1,3.17-1.55,6.86,6.86,0,0,1,2.26,0c.06,0,.08,0,.1,0l1.89-3.6a1.52,1.52,0,0,1,1.25-.72h2v.7H134c-.31,0-.47.08-.57.27l-.57,1.07,0,0h8.49c.05,0,.07,0,.09,0l.42-.6a.13.13,0,0,0,0-.06h-1.51a.51.51,0,0,1-.47-.22.27.27,0,0,1,.13-.38.61.61,0,0,1,.36-.1h3.88v.7H143c-.05,0-.07,0-.09,0l-.68,1a.06.06,0,0,0,0,.06c.45.66.91,1.31,1.37,2l0,0,.47-.1a7.58,7.58,0,0,1,1.72-.08,6.06,6.06,0,0,1,3.2,1.09,3.05,3.05,0,0,1,1.24,1.68,2.83,2.83,0,0,1-1.53,3.18,5.9,5.9,0,0,1-2.62.87l-.46,0H145c-.28,0-.56,0-.83-.09a5.54,5.54,0,0,1-2.75-1.19,3,3,0,0,1-1.07-1.66l0-.19h-2.2a.76.76,0,0,1-.48-.15l-.88-.68-2.31-1.8-2-1.57-.38-.29-.56,1.07h0l.07,0a3.8,3.8,0,0,1,2.77,2.64,2.21,2.21,0,0,1-.09,1.22A3.81,3.81,0,0,1,132,273.4a6.57,6.57,0,0,1-2,.48l-.32,0H129c-.26,0-.52,0-.77-.08a5.27,5.27,0,0,1-3.25-1.63,2.65,2.65,0,0,1-.64-1.3,2,2,0,0,1,0-.24Zm6.84-2.23,0,.05-.94,1.8-.34.64a.58.58,0,0,1-.62.23c-.29-.06-.43-.26-.32-.47l1.27-2.44,0,0c-1.88-.29-4,.41-4.66,1.84s.45,2.91,2.49,3.4,4.3-.22,5.07-1.62S132.86,268.63,131.11,268Zm10.24,2.74c.13.94,1.15,2,3,2.33a4.86,4.86,0,0,0,4.54-1.34c.87-1.09.54-2.46-.79-3.3a5.46,5.46,0,0,0-3.94-.59l.32.45c.44.65.89,1.29,1.34,1.94a.24.24,0,0,1,0,.21.5.5,0,0,1-.53.3h-3.94Zm-8.92-5.23,5.48,4.25,3-4.25Zm10.3,2L141.67,266l-2.82,4.07h1.45A3.71,3.71,0,0,1,142.73,267.51Zm-1.36,2.55h3.14l-1.33-1.91A2.9,2.9,0,0,0,141.37,270.06Z" transform="translate(-74.68 -70.99)"/><path class="cls-18" d="M125.8,233.29l0-.22a2.79,2.79,0,0,1,.72-1.39,5.33,5.33,0,0,1,3.17-1.55,7.14,7.14,0,0,1,2.26,0c.06,0,.08,0,.09,0,.63-1.2,1.26-2.4,1.9-3.6a1.52,1.52,0,0,1,1.25-.72h2v.69h-1.71a.56.56,0,0,0-.58.28c-.18.36-.37.71-.56,1.07,0,0,0,0,0,.05h8.48a.11.11,0,0,0,.1,0l.42-.6a.21.21,0,0,1,0-.06h-1.51a.57.57,0,0,1-.48-.22.3.3,0,0,1,.13-.39.75.75,0,0,1,.37-.09h3.88v.7h-1.21a.08.08,0,0,0-.08,0l-.68,1a.06.06,0,0,0,0,.06l1.37,2,0,0,.47-.09a6.58,6.58,0,0,1,1.72-.08,6,6,0,0,1,3.2,1.09,3.1,3.1,0,0,1,1.24,1.68,2.83,2.83,0,0,1-1.53,3.18,6,6,0,0,1-2.62.87l-.46,0h-.69c-.28,0-.56,0-.83-.09a5.62,5.62,0,0,1-2.75-1.18,3,3,0,0,1-1.07-1.66,1.29,1.29,0,0,0,0-.19h-.08c-.7,0-1.4,0-2.11,0a.76.76,0,0,1-.48-.15l-.88-.68-2.31-1.8-2-1.57-.38-.29-.56,1.07h0l.07,0a3.8,3.8,0,0,1,2.77,2.64,2.27,2.27,0,0,1-.09,1.21,3.8,3.8,0,0,1-2.28,2.17,6.29,6.29,0,0,1-2,.47l-.33,0h-.63a6.48,6.48,0,0,1-.77-.08,5.21,5.21,0,0,1-3.25-1.62,2.75,2.75,0,0,1-.65-1.31l0-.23Zm6.84-2.23,0,.05-.94,1.8-.34.64a.58.58,0,0,1-.62.22c-.29-.05-.43-.26-.32-.47l1.27-2.43,0-.05c-1.88-.28-4,.41-4.66,1.85s.45,2.91,2.49,3.4,4.3-.23,5.07-1.62S134.39,231.65,132.64,231.06Zm10.24,2.74c.13.94,1.14,2,3,2.33a4.87,4.87,0,0,0,4.54-1.34,2.15,2.15,0,0,0-.79-3.3,5.46,5.46,0,0,0-3.94-.59l.31.45,1.35,1.93a.25.25,0,0,1,0,.22.5.5,0,0,1-.53.3h-3.94ZM134,228.57l5.48,4.25,2.95-4.25Zm10.3,2L143.2,229l-2.82,4.07h1.45A3.72,3.72,0,0,1,144.26,230.53Zm-1.37,2.55H146l-1.32-1.9A3,3,0,0,0,142.89,233.08Z" transform="translate(-74.68 -70.99)"/><path class="cls-18" d="M149.14,198.77a2.12,2.12,0,0,0,.11-.21,3.46,3.46,0,0,1,1.15-1.24,6.4,6.4,0,0,1,3.6-1,6.74,6.74,0,0,1,2.21.36s.07,0,.1,0l3-3.22a1.87,1.87,0,0,1,1.46-.51l.19,0,1.7.27h.05l-.23.68h-.09l-1.59-.25a.66.66,0,0,0-.65.18l-.9,1,0,0h.08l8.19,1.3c.05,0,.08,0,.11,0l.61-.52s0,0,.05-.05h-.08l-1.38-.22a.44.44,0,0,1-.4-.29c0-.14.07-.28.26-.36a.81.81,0,0,1,.38,0l3.72.59h.07l-.23.68h-.08l-1.1-.18c-.05,0-.07,0-.1,0l-1,.84s0,0,0,.06c.22.71.45,1.42.68,2.13v0l.49,0a7.38,7.38,0,0,1,1.7.19A4.92,4.92,0,0,1,174,200.5a2.44,2.44,0,0,1,.65,1.83c-.1,1.26-.95,2.22-2.54,2.86a6.8,6.8,0,0,1-2.83.45l-.46,0h-.07l-.54-.09-.07,0c-.26-.07-.53-.12-.78-.21a4.49,4.49,0,0,1-2.28-1.58,2.46,2.46,0,0,1-.5-1.78l0-.19h-.08l-2-.33a.62.62,0,0,1-.43-.22l-.63-.79-1.65-2.11-1.46-1.84a4,4,0,0,0-.27-.34l-.9.95h0l.06,0c1.34.79,2,1.79,1.82,3a2.48,2.48,0,0,1-.48,1.17,4.84,4.84,0,0,1-2.94,1.76,7.16,7.16,0,0,1-2.12.16l-.33,0-.56-.09-.06,0c-.24-.06-.49-.11-.72-.19a4.15,4.15,0,0,1-2.63-2.09,2.3,2.3,0,0,1-.2-1.36,2,2,0,0,0,0-.24Zm7.4-1.12,0,0L155,199.3l-.54.58a.66.66,0,0,1-.68.12c-.27-.1-.34-.32-.16-.51.68-.72,1.36-1.45,2-2.17l0,0a5.1,5.1,0,0,0-5.15,1.09c-1.11,1.27-.52,2.9,1.31,3.69a5.22,5.22,0,0,0,5.46-.8C158.51,200,158.05,198.5,156.54,197.65Zm9.08,4.24c-.19.94.45,2.13,2.11,2.73a5.38,5.38,0,0,0,4.86-.61,2.1,2.1,0,0,0,.32-3.34,4.9,4.9,0,0,0-3.64-1.18l.15.49c.23.7.45,1.39.67,2.09a.22.22,0,0,1,0,.22.59.59,0,0,1-.61.21l-3.75-.6Zm-7-6.46,3.94,5,4.28-3.69Zm9.39,3.49-.53-1.63-4.1,3.52,1.42.23A4.79,4.79,0,0,1,168,198.92Zm-2.17,2.28,3.06.48-.66-2.06A3.75,3.75,0,0,0,165.87,201.2Z" transform="translate(-74.68 -70.99)"/><path class="cls-18" d="M169.34,176.08l.14-.2a3.86,3.86,0,0,1,1.32-1.16,6.63,6.63,0,0,1,3.72-.78,6.83,6.83,0,0,1,2.15.49c.05,0,.07,0,.1,0l3.47-3a1.93,1.93,0,0,1,1.52-.41l.18,0,1.66.38h.05l-.33.66h-.08l-1.55-.36a.71.71,0,0,0-.67.14c-.34.3-.68.6-1,.89l0,0H180l8,1.82a.11.11,0,0,0,.11,0l.68-.48.06,0-.08,0-1.35-.31a.39.39,0,0,1-.35-.31.37.37,0,0,1,.3-.34.74.74,0,0,1,.39,0l3.62.83h.06l-.32.67-.07,0-1.08-.25a.12.12,0,0,0-.1,0l-1.09.78s0,0,0,.06c.12.72.25,1.44.38,2.16a0,0,0,0,0,0,0l.48,0a6.64,6.64,0,0,1,1.68.29,4.49,4.49,0,0,1,2.52,1.73,2.33,2.33,0,0,1,.4,1.86c-.28,1.24-1.26,2.14-2.93,2.68a7,7,0,0,1-2.89.26l-.45-.07h-.06l-.53-.12-.07,0c-.25-.08-.51-.16-.74-.26a4.1,4.1,0,0,1-2.06-1.71,2.41,2.41,0,0,1-.24-1.81l.06-.19-.08,0-2-.46a.6.6,0,0,1-.4-.24c-.16-.28-.34-.56-.51-.83L180,176.27l-1.19-1.93-.22-.35-1,.89h0l.05,0A2.8,2.8,0,0,1,179,178a2.64,2.64,0,0,1-.64,1.13,5.4,5.4,0,0,1-3.18,1.56,7.24,7.24,0,0,1-2.13,0l-.32-.05-.54-.12-.06,0c-.23-.08-.48-.15-.7-.24a3.77,3.77,0,0,1-2.32-2.25,2.29,2.29,0,0,1,0-1.37c0-.08,0-.16.08-.23Zm7.52-.63-.05,0-1.72,1.5-.62.54a.67.67,0,0,1-.7.07.28.28,0,0,1-.08-.51l2.34-2s0,0,0,0a5.25,5.25,0,0,0-5.27.74c-1.29,1.2-.93,2.86.78,3.76a5.37,5.37,0,0,0,5.56-.43A2.13,2.13,0,0,0,176.86,175.45Zm8.45,4.81c-.32.92.15,2.15,1.71,2.85a5.51,5.51,0,0,0,4.93-.29c1.33-.85,1.65-2.23.78-3.3a4.5,4.5,0,0,0-3.46-1.41l.09.49c.12.71.25,1.42.38,2.13a.28.28,0,0,1-.05.21.66.66,0,0,1-.65.17l-3.65-.84Zm-6-6.89,3.22,5.22,4.78-3.4Zm8.86,4.09-.3-1.67L183.26,179l1.38.32A5.19,5.19,0,0,1,188.13,177.46Zm-2.48,2.12,3,.68-.37-2.09A4.16,4.16,0,0,0,185.65,179.58Z" transform="translate(-74.68 -70.99)"/><path class="cls-18" d="M269.46,329.36a1.7,1.7,0,0,0,0-.22,2.71,2.71,0,0,1,.72-1.39,5.33,5.33,0,0,1,3.16-1.55,7.2,7.2,0,0,1,2.27,0c.06,0,.08,0,.09,0,.63-1.2,1.26-2.4,1.9-3.6a1.52,1.52,0,0,1,1.25-.72h2v.69h-1.72a.56.56,0,0,0-.57.28l-.56,1.07s0,0,0,.05h8.48a.11.11,0,0,0,.1,0l.42-.6a.21.21,0,0,1,0-.06h-1.51a.55.55,0,0,1-.48-.22.3.3,0,0,1,.13-.39.71.71,0,0,1,.36-.09h3.89v.7h-1.21s-.07,0-.08,0l-.68,1s0,.05,0,.07l1.37,2,0,0,.47-.09a6.58,6.58,0,0,1,1.72-.08,6,6,0,0,1,3.2,1.09,3.1,3.1,0,0,1,1.24,1.68,2.83,2.83,0,0,1-1.53,3.18,6.07,6.07,0,0,1-2.62.87l-.46,0h-.7c-.27,0-.55,0-.82-.08a5.68,5.68,0,0,1-2.75-1.19,3,3,0,0,1-1.07-1.66,1.29,1.29,0,0,0,0-.19H283.3a.77.77,0,0,1-.49-.15l-.87-.68-2.31-1.8-2-1.57-.38-.29-.56,1.07h0l.07,0a3.78,3.78,0,0,1,2.76,2.64,2.17,2.17,0,0,1-.08,1.21,3.79,3.79,0,0,1-2.29,2.17,6.51,6.51,0,0,1-2,.48l-.33,0h-.63c-.26,0-.52,0-.78-.07a5.27,5.27,0,0,1-3.24-1.63,2.58,2.58,0,0,1-.65-1.31,2.23,2.23,0,0,0,0-.23Zm6.85-2.23,0,.05c-.32.6-.63,1.2-.94,1.8-.12.21-.23.43-.34.64a.58.58,0,0,1-.62.22c-.3,0-.44-.26-.33-.47.43-.81.86-1.62,1.28-2.43a.08.08,0,0,0,0-.05c-1.87-.28-4,.41-4.65,1.85s.45,2.91,2.49,3.4,4.3-.23,5.06-1.62S278.06,327.72,276.31,327.13Zm10.24,2.74c.12.94,1.14,2,2.95,2.33a4.87,4.87,0,0,0,4.54-1.34c.87-1.09.54-2.46-.79-3.3a5.46,5.46,0,0,0-3.94-.59l.31.45,1.35,1.93a.25.25,0,0,1,0,.22.51.51,0,0,1-.53.3h-3.94Zm-8.92-5.23,5.47,4.25,3-4.25Zm10.3,2-1.06-1.51L284,329.16h1.46A3.7,3.7,0,0,1,287.93,326.6Zm-1.37,2.55h3.14l-1.32-1.9A2.93,2.93,0,0,0,286.56,329.15Z" transform="translate(-74.68 -70.99)"/><path class="cls-18" d="M266.93,360.07l0-.22a2.79,2.79,0,0,1,.72-1.39,5.32,5.32,0,0,1,3.16-1.54,6.92,6.92,0,0,1,2.27,0c.06,0,.08,0,.09,0,.63-1.2,1.26-2.4,1.9-3.6a1.52,1.52,0,0,1,1.25-.72h2v.7h-1.71a.57.57,0,0,0-.58.27l-.56,1.07s0,0,0,0h8.48a.11.11,0,0,0,.1,0l.42-.6,0-.06H283a.53.53,0,0,1-.48-.22.28.28,0,0,1,.13-.38.64.64,0,0,1,.37-.1h3.88v.7h-1.21a.08.08,0,0,0-.08,0c-.23.33-.46.65-.68,1a.06.06,0,0,0,0,.06l1.37,2,0,0,.47-.1a7,7,0,0,1,1.72-.08,6.09,6.09,0,0,1,3.2,1.09,3.1,3.1,0,0,1,1.24,1.68,2.83,2.83,0,0,1-1.53,3.18,6.07,6.07,0,0,1-2.62.87c-.15,0-.31,0-.46,0h-.69c-.28,0-.56,0-.83-.08a5.54,5.54,0,0,1-2.75-1.19,3,3,0,0,1-1.07-1.66,1.29,1.29,0,0,0,0-.19h-2.19a.74.74,0,0,1-.48-.15l-.88-.68-2.31-1.8-2-1.57-.38-.29-.56,1.07h0l.07,0a3.8,3.8,0,0,1,2.77,2.64,2.31,2.31,0,0,1-.09,1.22,3.81,3.81,0,0,1-2.29,2.16,6.51,6.51,0,0,1-2,.48l-.33,0h-.63c-.26,0-.52,0-.78-.07a5.27,5.27,0,0,1-3.24-1.63,2.76,2.76,0,0,1-.65-1.3l0-.24Zm6.84-2.23,0,.05-.94,1.8c-.12.21-.23.43-.34.64a.59.59,0,0,1-.62.23c-.29-.06-.43-.27-.32-.47.42-.82.85-1.63,1.27-2.44l0,0c-1.88-.28-4,.41-4.66,1.85s.45,2.91,2.49,3.4,4.3-.22,5.07-1.62S275.52,358.44,273.77,357.84ZM284,360.58c.13.94,1.14,2,2.95,2.33a4.87,4.87,0,0,0,4.54-1.34c.87-1.09.54-2.46-.79-3.3a5.46,5.46,0,0,0-3.94-.59l.31.45,1.35,1.94a.24.24,0,0,1,.05.21.5.5,0,0,1-.53.3H284Zm-8.92-5.23,5.47,4.25,3-4.25Zm10.3,2-1.06-1.52-2.83,4.07H283A3.69,3.69,0,0,1,285.39,357.32ZM284,359.87h3.14L285.84,358A2.94,2.94,0,0,0,284,359.87Z" transform="translate(-74.68 -70.99)"/><path class="cls-18" d="M294.06,366l.27-.13a6.33,6.33,0,0,1,2-.58,6.94,6.94,0,0,1,3.81.56,4.11,4.11,0,0,1,1.52,1.14.08.08,0,0,0,.1,0l5.18-1.47a2.16,2.16,0,0,1,1.62.14l.14.09,1.18.88,0,0-.76.47-.05,0-1.1-.82a.72.72,0,0,0-.69-.1l-1.53.43-.07,0,.05,0,5.67,4.24s.06,0,.11,0l.93-.19.08,0,0,0-1-.72a.26.26,0,0,1-.08-.39.55.55,0,0,1,.5-.19.59.59,0,0,1,.35.12l2.57,1.92.05,0-.76.47,0,0-.77-.57a.11.11,0,0,0-.1,0l-1.51.32a.08.08,0,0,0-.07,0c-.4.67-.8,1.34-1.21,2,0,0,0,0,0,0l.41.18a4.49,4.49,0,0,1,1.25.81,2.67,2.67,0,0,1,1,2.35,2.72,2.72,0,0,1-1,1.75,6,6,0,0,1-4.47,1.37,6.17,6.17,0,0,1-2.71-.73l-.35-.21-.05,0-.38-.29,0,0c-.16-.16-.33-.31-.47-.47a2.51,2.51,0,0,1-.57-2.19,3,3,0,0,1,1.08-1.65l.19-.15-.06-.05-1.42-1.06a.35.35,0,0,1-.17-.34c.06-.3.1-.6.15-.9l.39-2.38c.11-.69.23-1.38.34-2.07l.06-.39-1.54.44h0a.08.08,0,0,1,0,.05,2.62,2.62,0,0,1-1,3.17,4.8,4.8,0,0,1-1.37.78,7.11,7.11,0,0,1-3.89.3,5.79,5.79,0,0,1-1.87-.69l-.25-.15-.39-.29,0,0a6.2,6.2,0,0,1-.44-.45,2.44,2.44,0,0,1-.42-2.73,3.13,3.13,0,0,1,1-1.2l.23-.18Zm7,1.95H301l-2.58.74-.93.26a.61.61,0,0,1-.66-.16c-.13-.19,0-.39.29-.48l3.5-1,.07,0a5.08,5.08,0,0,0-5.14-1.1c-2,.62-2.85,2.19-2,3.55s3.13,2,5.16,1.46S301.63,369.18,301.09,367.9Zm3.94,7a2.09,2.09,0,0,0-.54,3.06,4.84,4.84,0,0,0,4.51,1.39c1.77-.3,3-1.4,3-2.63a2.76,2.76,0,0,0-2-2.38c-.1.15-.19.31-.28.46l-1.19,2a.38.38,0,0,1-.2.17.69.69,0,0,1-.68-.07l-2.59-1.94Zm-.35-8-.92,5.63,6.6-1.38Zm4.81,6.52.93-1.56-6.31,1.32,1,.73A7.13,7.13,0,0,1,309.49,373.4Zm-3.68,1,2.12,1.58,1.16-1.95A5.6,5.6,0,0,0,305.81,374.43Z" transform="translate(-74.68 -70.99)"/><path class="cls-18" d="M321.51,348.21l.17-.2a4.45,4.45,0,0,1,1.51-1,7,7,0,0,1,3.83-.49,6.1,6.1,0,0,1,2.05.66.08.08,0,0,0,.1,0l3.95-2.71a2.07,2.07,0,0,1,1.58-.3l.18.05,1.58.5.05,0-.44.63-.07,0-1.48-.47a.7.7,0,0,0-.69.09l-1.18.8,0,0,.07,0,7.62,2.43a.1.1,0,0,0,.12,0l.75-.42.07,0-.08,0-1.29-.41c-.19-.07-.31-.2-.29-.34a.42.42,0,0,1,.35-.32.85.85,0,0,1,.39,0l3.46,1.1.06,0-.44.63-.06,0-1-.33a.11.11,0,0,0-.1,0l-1.22.69a.08.08,0,0,0,0,.06c0,.72,0,1.45,0,2.18v0l.48.05a6.05,6.05,0,0,1,1.61.42,4,4,0,0,1,2.22,1.91,2.29,2.29,0,0,1,.08,1.88,4.31,4.31,0,0,1-3.36,2.44,7,7,0,0,1-2.91,0l-.44-.1h-.06l-.51-.16-.06,0a7.27,7.27,0,0,1-.69-.32,3.52,3.52,0,0,1-1.76-1.87,2.33,2.33,0,0,1,.07-1.81l.08-.18-.07,0-1.91-.61a.48.48,0,0,1-.35-.27l-.37-.87-1-2.3c-.28-.66-.57-1.33-.85-2-.06-.13-.11-.25-.16-.38l-1.18.81h0l0,0a2.59,2.59,0,0,1,.87,3.19,2.91,2.91,0,0,1-.83,1.08,5.89,5.89,0,0,1-3.41,1.3,7.16,7.16,0,0,1-2.12-.15l-.32-.07-.52-.17-.05,0c-.22-.1-.45-.19-.65-.3a3.31,3.31,0,0,1-1.93-2.41,2.28,2.28,0,0,1,.23-1.37c0-.07.07-.14.1-.22Zm7.58,0,0,0c-.66.45-1.32.9-2,1.36l-.71.48a.66.66,0,0,1-.7,0c-.23-.13-.23-.36,0-.51l2.66-1.84.06,0A5.41,5.41,0,0,0,323,348a2.16,2.16,0,0,0,.15,3.8,5.4,5.4,0,0,0,5.59,0A2.14,2.14,0,0,0,329.09,348.16Zm7.58,5.44c-.47.89-.21,2.15,1.23,3a5.54,5.54,0,0,0,4.94.1c1.46-.74,2-2.08,1.33-3.22a4.11,4.11,0,0,0-3.2-1.67v.49c0,.72,0,1.43,0,2.14a.25.25,0,0,1-.09.21.66.66,0,0,1-.66.12l-3.49-1.11Zm-4.83-7.31,2.32,5.43,5.31-3ZM340,351l0-1.67-5.09,2.86,1.32.42A5.8,5.8,0,0,1,340,351ZM337.12,353l2.85.91,0-2.11A4.58,4.58,0,0,0,337.12,353Z" transform="translate(-74.68 -70.99)"/><path class="cls-18" d="M264.7,206.41c0-.08,0-.15,0-.23a2.7,2.7,0,0,1,.71-1.38,5.33,5.33,0,0,1,3.17-1.55,6.92,6.92,0,0,1,2.27,0c.06,0,.07,0,.09,0l1.89-3.59a1.53,1.53,0,0,1,1.25-.73h2v.7h-1.72c-.3,0-.47.08-.57.28l-.56,1.06,0,0h8.49a.11.11,0,0,0,.1,0l.42-.6,0-.05h-1.5a.55.55,0,0,1-.48-.22.28.28,0,0,1,.13-.39.6.6,0,0,1,.36-.09h3.89v.7h-1.21a.11.11,0,0,0-.09,0l-.67,1a0,0,0,0,0,0,.06c.46.66.92,1.31,1.37,2l0,0,.46-.09a7.07,7.07,0,0,1,1.72-.09,6,6,0,0,1,3.2,1.1,3,3,0,0,1,1.24,1.68c.32,1.24-.19,2.3-1.53,3.17a5.86,5.86,0,0,1-2.61.87l-.46,0h-.7c-.27,0-.56,0-.83-.09a5.58,5.58,0,0,1-2.74-1.18,3,3,0,0,1-1.07-1.66c0-.07,0-.13,0-.2h-2.19a.77.77,0,0,1-.49-.15l-.87-.68-2.31-1.79-2-1.58-.37-.29-.56,1.07h0l.06,0a3.8,3.8,0,0,1,2.77,2.64,2.21,2.21,0,0,1-.08,1.22,3.83,3.83,0,0,1-2.29,2.16,6.58,6.58,0,0,1-2,.48l-.33,0h-.64c-.25,0-.52,0-.77-.08a5.24,5.24,0,0,1-3.25-1.63,2.65,2.65,0,0,1-.64-1.3c0-.08,0-.16,0-.23Zm6.85-2.23a.05.05,0,0,0,0,0l-.95,1.8-.33.64a.57.57,0,0,1-.62.23c-.3-.06-.44-.26-.33-.47l1.28-2.43s0,0,0-.05c-1.88-.28-4,.41-4.66,1.84s.46,2.91,2.5,3.4,4.29-.22,5.06-1.61S273.29,204.77,271.55,204.18Zm10.24,2.73c.12,1,1.14,2,2.95,2.33a4.86,4.86,0,0,0,4.54-1.33,2.16,2.16,0,0,0-.79-3.3,5.36,5.36,0,0,0-3.94-.59l.31.45,1.35,1.93a.29.29,0,0,1,.05.22c-.05.18-.26.29-.53.29h-3.94Zm-8.93-5.23,5.48,4.26,3-4.26Zm10.31,2-1.06-1.52-2.83,4.07h1.46A3.69,3.69,0,0,1,283.17,203.65Zm-1.37,2.55h3.14l-1.32-1.9A2.93,2.93,0,0,0,281.8,206.2Z" transform="translate(-74.68 -70.99)"/><path class="cls-18" d="M301.22,198.09a1.7,1.7,0,0,0,0-.22,2.7,2.7,0,0,1,.71-1.38,5.33,5.33,0,0,1,3.17-1.55,7.2,7.2,0,0,1,2.27,0c.06,0,.07,0,.09,0,.63-1.2,1.26-2.4,1.9-3.6a1.51,1.51,0,0,1,1.24-.72h2v.7h-1.72c-.3,0-.47.08-.57.27l-.56,1.07,0,0h8.49a.11.11,0,0,0,.1,0l.42-.6,0-.05h-1.51a.53.53,0,0,1-.48-.22.28.28,0,0,1,.13-.38.63.63,0,0,1,.36-.1h3.89V192H320a.1.1,0,0,0-.09,0l-.67,1a0,0,0,0,0,0,.06l1.36,2,0,0,.46-.1a7.61,7.61,0,0,1,1.72-.08A6.09,6.09,0,0,1,326,196a3.08,3.08,0,0,1,1.23,1.68c.32,1.24-.19,2.31-1.53,3.18a5.86,5.86,0,0,1-2.61.87l-.46,0h-.7c-.27,0-.56,0-.83-.09a5.5,5.5,0,0,1-2.74-1.19,2.94,2.94,0,0,1-1.07-1.66c0-.06,0-.12,0-.19h-2.19a.77.77,0,0,1-.49-.15l-.87-.68L311.39,196l-2-1.58-.38-.29-.56,1.07h0l.06,0a3.78,3.78,0,0,1,2.77,2.64,2.21,2.21,0,0,1-.08,1.22,3.83,3.83,0,0,1-2.29,2.16,6.51,6.51,0,0,1-2,.48l-.33,0h-.64c-.25,0-.52,0-.77-.08A5.3,5.3,0,0,1,301.9,200a2.65,2.65,0,0,1-.64-1.3,2,2,0,0,0,0-.24Zm6.85-2.23,0,0-1,1.8-.33.64a.59.59,0,0,1-.62.23c-.3-.06-.44-.26-.33-.47l1.28-2.44a.08.08,0,0,0,0,0c-1.88-.29-4,.41-4.65,1.84s.45,2.91,2.49,3.4,4.3-.22,5.06-1.62S309.81,196.46,308.07,195.86Zm10.24,2.74c.12.94,1.14,2,2.95,2.33a4.87,4.87,0,0,0,4.54-1.34c.87-1.09.53-2.46-.79-3.3a5.46,5.46,0,0,0-3.94-.59l.31.45,1.35,1.94a.28.28,0,0,1,0,.21.51.51,0,0,1-.53.3h-3.94Zm-8.92-5.23,5.47,4.25,3-4.25Zm10.3,2-1.06-1.52-2.83,4.07h1.46A3.69,3.69,0,0,1,319.69,195.34Zm-1.37,2.55h3.14L320.14,196A2.92,2.92,0,0,0,318.32,197.89Z" transform="translate(-74.68 -70.99)"/><path class="cls-18" d="M311.83,177a1.7,1.7,0,0,1,0-.22,2.63,2.63,0,0,1,.71-1.38,5.3,5.3,0,0,1,3.17-1.55,7.2,7.2,0,0,1,2.27,0c.05,0,.07,0,.09,0l1.89-3.6a1.53,1.53,0,0,1,1.25-.72h2v.7h-1.71c-.3,0-.47.08-.57.27l-.57,1.07s0,0,0,.05h8.49a.12.12,0,0,0,.1,0c.13-.2.28-.4.42-.6l0,0h-1.51a.54.54,0,0,1-.47-.22.28.28,0,0,1,.13-.39.6.6,0,0,1,.36-.09h3.88v.7h-1.2s-.07,0-.09,0l-.68,1a.06.06,0,0,0,0,.06l1.37,2,0,0c.16,0,.31-.07.47-.09a7.07,7.07,0,0,1,1.72-.09,6,6,0,0,1,3.2,1.09,3.05,3.05,0,0,1,1.24,1.68c.32,1.24-.2,2.31-1.53,3.18a5.9,5.9,0,0,1-2.62.87l-.46,0h-.69c-.28,0-.56-.05-.83-.09a5.54,5.54,0,0,1-2.75-1.19,2.92,2.92,0,0,1-1.06-1.66,1.06,1.06,0,0,1,0-.19h-2.19a.77.77,0,0,1-.49-.15l-.87-.68L322,174.9l-2-1.58-.37-.29L319,174.1h0l.06,0a3.81,3.81,0,0,1,2.77,2.64,2.12,2.12,0,0,1-.09,1.22,3.81,3.81,0,0,1-2.28,2.16,6.58,6.58,0,0,1-2,.48l-.33,0h-.64c-.26,0-.52,0-.77-.08a5.3,5.3,0,0,1-3.25-1.63,2.65,2.65,0,0,1-.64-1.3,2.23,2.23,0,0,1,0-.23Zm6.84-2.22,0,0-.94,1.8c-.11.21-.22.43-.34.64a.58.58,0,0,1-.62.23c-.29-.06-.43-.26-.32-.47.42-.81.85-1.62,1.28-2.43a.08.08,0,0,1,0,0c-1.88-.29-4,.41-4.66,1.84s.45,2.91,2.5,3.4,4.29-.22,5.06-1.62S320.42,175.38,318.67,174.79Zm10.24,2.73c.13.95,1.15,2,2.95,2.33a4.88,4.88,0,0,0,4.54-1.33,2.16,2.16,0,0,0-.79-3.31,5.43,5.43,0,0,0-3.93-.59l.31.45,1.34,1.94a.21.21,0,0,1,.05.21c-.05.19-.25.3-.53.3h-3.94ZM320,172.29l5.48,4.25,2.95-4.25Zm10.3,2-1.06-1.52-2.82,4.07h1.46A3.67,3.67,0,0,1,330.29,174.26Zm-1.36,2.55h3.14l-1.33-1.9A2.89,2.89,0,0,0,328.93,176.81Z" transform="translate(-74.68 -70.99)"/><path class="cls-18" d="M310.58,224a1.7,1.7,0,0,0,0-.22,2.7,2.7,0,0,1,.71-1.38,5.33,5.33,0,0,1,3.17-1.55,6.92,6.92,0,0,1,2.27,0c.06,0,.07,0,.09,0l1.89-3.6a1.55,1.55,0,0,1,1.25-.72h2v.7h-1.72c-.3,0-.47.08-.57.27l-.56,1.07,0,.05h8.49a.11.11,0,0,0,.1,0l.42-.6,0,0h-1.5a.55.55,0,0,1-.48-.22.29.29,0,0,1,.13-.39.62.62,0,0,1,.36-.09h3.89v.7h-1.21a.12.12,0,0,0-.09,0l-.67,1a0,0,0,0,0,0,.06c.46.66.92,1.31,1.37,2l0,0,.46-.09a7.07,7.07,0,0,1,1.72-.09,6.09,6.09,0,0,1,3.21,1.09,3.08,3.08,0,0,1,1.23,1.68q.48,1.88-1.53,3.18a5.86,5.86,0,0,1-2.61.87l-.46,0h-.7c-.27,0-.56-.05-.83-.09a5.5,5.5,0,0,1-2.74-1.19,2.94,2.94,0,0,1-1.07-1.66c0-.06,0-.12,0-.19h-2.19a.77.77,0,0,1-.49-.15l-.87-.68-2.31-1.79-2-1.58-.38-.29-.56,1.07h0l.06,0a3.8,3.8,0,0,1,2.77,2.64,2.21,2.21,0,0,1-.08,1.22,3.83,3.83,0,0,1-2.29,2.16,6.51,6.51,0,0,1-2,.48l-.33,0h-.64c-.25,0-.52,0-.77-.08a5.3,5.3,0,0,1-3.25-1.63,2.65,2.65,0,0,1-.64-1.3,1.57,1.57,0,0,0,0-.23Zm6.85-2.22s0,0,0,0l-.95,1.8-.33.64a.59.59,0,0,1-.62.23c-.3-.06-.44-.26-.33-.47l1.28-2.43,0,0c-1.88-.29-4,.41-4.66,1.84s.46,2.91,2.5,3.4,4.29-.22,5.06-1.61S319.17,222.35,317.43,221.76Zm10.24,2.73c.12.95,1.14,2,2.95,2.33a4.89,4.89,0,0,0,4.54-1.33,2.16,2.16,0,0,0-.79-3.3,5.36,5.36,0,0,0-3.94-.59l.31.45,1.35,1.93a.28.28,0,0,1,.05.21c-.05.19-.26.3-.53.3h-3.94Zm-8.92-5.23,5.47,4.26,3-4.26Zm10.3,2L328,219.71l-2.83,4.07h1.46A3.69,3.69,0,0,1,329.05,221.23Zm-1.37,2.55h3.14l-1.32-1.9A2.93,2.93,0,0,0,327.68,223.78Z" transform="translate(-74.68 -70.99)"/><path class="cls-18" d="M351.76,231.2c0-.08,0-.15,0-.23a2.45,2.45,0,0,1,.39-1.44,4.58,4.58,0,0,1,2.79-1.86,6.92,6.92,0,0,1,2.24-.23c.06,0,.07,0,.08-.05.35-1.25.7-2.5,1.06-3.75a1.29,1.29,0,0,1,1.07-.84.58.58,0,0,1,.19,0l1.72-.19h0l.16.69h-.08l-1.62.17c-.3,0-.44.13-.5.33-.11.37-.21.74-.32,1.12a.13.13,0,0,1,0,0h.08l8.31-.88a.11.11,0,0,0,.09-.05c.09-.22.18-.43.28-.64a.14.14,0,0,1,0-.06h-.08l-1.41.15a.62.62,0,0,1-.52-.17.27.27,0,0,1,0-.4.6.6,0,0,1,.34-.12l3.77-.4H370l.15.69H370l-1.12.12a.08.08,0,0,0-.08,0l-.45,1a.07.07,0,0,0,0,.06l1.79,1.8,0,0,.44-.14a6.7,6.7,0,0,1,1.68-.27,6.6,6.6,0,0,1,3.41.75,3.63,3.63,0,0,1,1.61,1.53,2.57,2.57,0,0,1-.8,3.3,5.32,5.32,0,0,1-2.39,1.13l-.45.08-.06,0-.55.06h-.91a6.21,6.21,0,0,1-3-.89,3.51,3.51,0,0,1-1.43-1.52c0-.07-.06-.13-.08-.19h-.09l-2.08.22a.8.8,0,0,1-.51-.1l-1-.58L361.33,228,359,226.7l-.44-.25-.31,1.11h0l.07,0a4.47,4.47,0,0,1,3.33,2.32,2.21,2.21,0,0,1,.19,1.21,3.23,3.23,0,0,1-1.77,2.37,5.85,5.85,0,0,1-1.88.69l-.32.06-.57.06s0,0-.06,0h-.78a6,6,0,0,1-3.58-1.27,3.14,3.14,0,0,1-.93-1.22l-.09-.22Zm6.26-2.92s0,0,0,.05c-.18.62-.35,1.25-.53,1.87-.06.23-.13.45-.19.67a.51.51,0,0,1-.56.29c-.3,0-.49-.21-.43-.43l.72-2.54a.11.11,0,0,1,0-.05c-1.92-.08-3.85.83-4.19,2.31s1.1,2.83,3.23,3.1,4.2-.67,4.64-2.13S359.88,228.68,358,228.28Zm10.74,1.63a3.82,3.82,0,0,0,3.44,2,4.4,4.4,0,0,0,4.19-1.79c.61-1.17,0-2.5-1.53-3.18a5.54,5.54,0,0,0-4-.17l.41.41,1.76,1.77a.3.3,0,0,1,.1.21c0,.18-.19.32-.46.34l-3.8.41Zm-10-4.23,6.37,3.62,2-4.51Zm10.62.86L368,225.15l-1.88,4.32,1.44-.15A3.16,3.16,0,0,1,369.39,226.54Zm-.78,2.66,3.1-.33L370,227.13A2.51,2.51,0,0,0,368.61,229.2Z" transform="translate(-74.68 -70.99)"/><path class="cls-18" d="M352,207.46l0-.23a2.34,2.34,0,0,1,.27-1.45,4.33,4.33,0,0,1,2.62-2,6.82,6.82,0,0,1,2.22-.31c.06,0,.08,0,.08-.05l.75-3.79c.08-.42.42-.72,1-.88l.18,0,1.71-.25h0l.21.68-.08,0-1.6.23c-.29,0-.43.15-.47.35-.08.38-.15.75-.22,1.13a.07.07,0,0,0,0,.05h.07l8.23-1.2s.07,0,.08-.06c.07-.21.15-.43.23-.65a.43.43,0,0,0,0-.05h-.08l-1.39.2a.62.62,0,0,1-.53-.15.26.26,0,0,1,0-.39.59.59,0,0,1,.33-.15l3.73-.54h.07l.22.68h-.08l-1.11.17a.07.07,0,0,0-.07,0L368,199.9s0,0,0,.06l2,1.73,0,0,.43-.16a7.31,7.31,0,0,1,1.65-.33,6.78,6.78,0,0,1,3.47.62,3.9,3.9,0,0,1,1.73,1.46,2.52,2.52,0,0,1-.52,3.33,5,5,0,0,1-2.3,1.22l-.43.1-.06,0-.55.08h-.07c-.28,0-.56,0-.84,0a6.47,6.47,0,0,1-3-.77,3.75,3.75,0,0,1-1.55-1.47,1.14,1.14,0,0,1-.1-.19l-.08,0-2.06.3a.86.86,0,0,1-.53-.08l-1.06-.54-2.81-1.42-2.46-1.25-.46-.23-.22,1.12h.09a4.72,4.72,0,0,1,3.51,2.19,2.26,2.26,0,0,1,.3,1.2,3.07,3.07,0,0,1-1.58,2.44,5.62,5.62,0,0,1-1.82.75l-.31.08-.56.08h-.07c-.26,0-.52,0-.77,0a6.25,6.25,0,0,1-3.68-1.12,3.29,3.29,0,0,1-1-1.19c0-.07-.07-.14-.11-.22Zm6-3.16a.11.11,0,0,0,0,0c-.13.63-.25,1.26-.37,1.9-.05.22-.09.45-.14.67a.49.49,0,0,1-.54.31c-.3,0-.5-.19-.46-.41l.51-2.56v0c-1.92,0-3.77,1-4,2.47s1.33,2.77,3.48,3,4.13-.83,4.45-2.3S359.89,204.63,358,204.3Zm10.85,1.21a4,4,0,0,0,3.6,1.86c1.86.06,3.51-.75,4-2s-.23-2.49-1.78-3.12a5.56,5.56,0,0,0-4,0l.45.39,1.91,1.7a.31.31,0,0,1,.11.2c0,.19-.16.33-.43.37l-3.76.55Zm-10.33-3.83,6.66,3.37,1.59-4.58Zm10.68.45-1.5-1.33-1.52,4.38,1.43-.21A3,3,0,0,1,369.2,202.13Zm-.55,2.69,3.07-.45-1.88-1.67A2.34,2.34,0,0,0,368.65,204.82Z" transform="translate(-74.68 -70.99)"/><path class="cls-18" d="M318.26,254.11a1.7,1.7,0,0,1,0-.22,2.69,2.69,0,0,1,.71-1.39,5.35,5.35,0,0,1,3.17-1.54,6.86,6.86,0,0,1,2.26,0c.06,0,.08,0,.1,0l1.89-3.6a1.53,1.53,0,0,1,1.25-.72h2v.7H328c-.3,0-.47.08-.57.27l-.57,1.07a.17.17,0,0,1,0,.05h8.49c.05,0,.07,0,.09,0l.43-.6,0-.06h-1.51a.51.51,0,0,1-.47-.22.27.27,0,0,1,.13-.38.61.61,0,0,1,.36-.1h3.88v.7H337s-.07,0-.09,0l-.68,1a.06.06,0,0,0,0,.06c.46.65.91,1.31,1.37,2l0,0,.47-.1a7.07,7.07,0,0,1,1.72-.08A6,6,0,0,1,343,252a3.05,3.05,0,0,1,1.24,1.68c.32,1.24-.2,2.31-1.53,3.18a6,6,0,0,1-2.62.87l-.46,0H339c-.28,0-.56,0-.83-.08a5.63,5.63,0,0,1-2.75-1.19,2.92,2.92,0,0,1-1.06-1.66,1.29,1.29,0,0,1,0-.19H332.1a.77.77,0,0,1-.49-.15l-.87-.68-2.32-1.8-2-1.57-.37-.29-.57,1.07h0l.06,0a3.8,3.8,0,0,1,2.77,2.64,2.12,2.12,0,0,1-.09,1.22,3.81,3.81,0,0,1-2.28,2.16,6.58,6.58,0,0,1-2,.48l-.33,0H323c-.26,0-.52,0-.77-.07a5.3,5.3,0,0,1-3.25-1.63,2.65,2.65,0,0,1-.64-1.3,2,2,0,0,1,0-.24Zm6.84-2.23,0,.05-.94,1.8c-.11.21-.22.43-.34.64a.56.56,0,0,1-.62.22c-.29-.05-.43-.26-.32-.47.42-.81.85-1.62,1.28-2.43l0-.05c-1.88-.28-4,.41-4.66,1.85s.45,2.91,2.49,3.4,4.3-.23,5.07-1.62S326.85,252.48,325.1,251.88Zm10.24,2.74c.13.94,1.15,2,3,2.33a4.86,4.86,0,0,0,4.54-1.34c.87-1.09.54-2.46-.79-3.3a5.43,5.43,0,0,0-3.93-.59l.31.45,1.34,1.94a.21.21,0,0,1,.05.21.5.5,0,0,1-.53.3h-3.94Zm-8.92-5.23,5.48,4.25,3-4.25Zm10.3,2-1.06-1.52-2.82,4.07h1.46A3.67,3.67,0,0,1,336.72,251.36Zm-1.36,2.55h3.14L337.17,252A2.9,2.9,0,0,0,335.36,253.91Z" transform="translate(-74.68 -70.99)"/><path class="cls-18" d="M274.35,269.67a2.07,2.07,0,0,0,0-.22,2.73,2.73,0,0,1,.71-1.39,5.39,5.39,0,0,1,3.17-1.55,7.2,7.2,0,0,1,2.27,0c.06,0,.07,0,.09,0l1.89-3.6a1.55,1.55,0,0,1,1.25-.72h2v.69H284c-.3,0-.47.08-.57.28-.19.36-.38.71-.56,1.07l0,.05h8.49a.11.11,0,0,0,.1,0l.42-.6,0-.06h-1.5a.55.55,0,0,1-.48-.22.29.29,0,0,1,.13-.39.71.71,0,0,1,.36-.09h3.89v.7h-1.21a.1.1,0,0,0-.09,0l-.67,1s0,.05,0,.06l1.37,2,0,0,.46-.09a6.6,6.6,0,0,1,1.72-.08,6,6,0,0,1,3.21,1.09,3.08,3.08,0,0,1,1.23,1.68c.32,1.24-.19,2.31-1.53,3.18a6,6,0,0,1-2.61.87l-.46,0h-.7c-.27,0-.56,0-.83-.09a5.58,5.58,0,0,1-2.74-1.18,3,3,0,0,1-1.07-1.66c0-.06,0-.13,0-.19h-2.19a.77.77,0,0,1-.49-.15l-.87-.68-2.31-1.8-2-1.57-.38-.29-.56,1.07h0l.06,0a3.78,3.78,0,0,1,2.77,2.64,2.17,2.17,0,0,1-.08,1.21,3.82,3.82,0,0,1-2.29,2.17,6.23,6.23,0,0,1-2,.47l-.33,0h-.64a6.7,6.7,0,0,1-.77-.08A5.24,5.24,0,0,1,275,271.6a2.68,2.68,0,0,1-.64-1.31,2.23,2.23,0,0,0,0-.23Zm6.85-2.23a.13.13,0,0,0,0,.05l-.95,1.8-.33.64a.58.58,0,0,1-.62.22c-.3,0-.44-.26-.33-.47l1.28-2.43s0,0,0-.05c-1.88-.28-4,.41-4.66,1.85s.46,2.91,2.5,3.4,4.29-.23,5.06-1.62S282.94,268,281.2,267.44Zm10.24,2.74c.12.94,1.14,2,2.95,2.33a4.87,4.87,0,0,0,4.54-1.34,2.16,2.16,0,0,0-.79-3.3,5.46,5.46,0,0,0-3.94-.59l.31.45,1.35,1.93a.29.29,0,0,1,.05.22.51.51,0,0,1-.53.3h-3.94ZM282.52,265,288,269.2l3-4.25Zm10.3,2-1.06-1.51-2.83,4.06h1.46A3.71,3.71,0,0,1,292.82,266.91Zm-1.37,2.55h3.14l-1.32-1.9A2.93,2.93,0,0,0,291.45,269.46Z" transform="translate(-74.68 -70.99)"/><path class="cls-18" d="M318.26,289.67a1.85,1.85,0,0,1,0-.23,2.66,2.66,0,0,1,.71-1.38,5.3,5.3,0,0,1,3.17-1.55,7.14,7.14,0,0,1,2.26,0c.06,0,.08,0,.1,0l1.89-3.59a1.53,1.53,0,0,1,1.25-.72l.19,0h1.79v.7H328c-.3,0-.47.08-.57.28l-.57,1.07,0,0h8.49c.05,0,.07,0,.09-.05l.43-.6,0-.05h-1.51a.54.54,0,0,1-.47-.22.28.28,0,0,1,.13-.39.69.69,0,0,1,.36-.09h3.88v.7H337s-.07,0-.09,0l-.68,1a.06.06,0,0,0,0,.06c.46.66.91,1.32,1.37,2l0,0,.47-.09a7.07,7.07,0,0,1,1.72-.09,6,6,0,0,1,3.2,1.1,3,3,0,0,1,1.24,1.68c.32,1.24-.2,2.3-1.53,3.17a5.9,5.9,0,0,1-2.62.87l-.46,0H339c-.28,0-.56,0-.83-.09a5.62,5.62,0,0,1-2.75-1.18,3,3,0,0,1-1.06-1.66,1.42,1.42,0,0,1,0-.2H332.1a.72.72,0,0,1-.49-.15l-.87-.68c-.78-.59-1.55-1.19-2.32-1.79l-2-1.57-.37-.29-.57,1.06h0l.06,0a3.81,3.81,0,0,1,2.77,2.65,2.1,2.1,0,0,1-.09,1.21,3.81,3.81,0,0,1-2.28,2.16,6.3,6.3,0,0,1-2,.48l-.33,0H323c-.26,0-.52,0-.77-.08a5.24,5.24,0,0,1-3.25-1.63,2.61,2.61,0,0,1-.64-1.3,1.85,1.85,0,0,1,0-.23Zm6.84-2.23,0,.05-.94,1.79-.34.65a.57.57,0,0,1-.62.22c-.29-.06-.43-.26-.32-.47.42-.81.85-1.62,1.28-2.43,0,0,0,0,0-.05-1.88-.28-4,.41-4.66,1.84s.45,2.91,2.49,3.4,4.3-.22,5.07-1.61S326.85,288,325.1,287.44Zm10.24,2.73c.13.95,1.15,2,3,2.33a4.86,4.86,0,0,0,4.54-1.33,2.15,2.15,0,0,0-.79-3.3,5.33,5.33,0,0,0-3.93-.59l.31.45,1.34,1.93a.23.23,0,0,1,.05.22c-.05.18-.25.29-.53.29h-3.94Zm-8.92-5.23,5.48,4.26,3-4.26Zm10.3,2-1.06-1.51-2.82,4.06h1.46A3.69,3.69,0,0,1,336.72,286.91Zm-1.36,2.55h3.14l-1.33-1.9A2.91,2.91,0,0,0,335.36,289.46Z" transform="translate(-74.68 -70.99)"/><path class="cls-18" d="M354.7,274.74a2.39,2.39,0,0,1,.13-.21,3.59,3.59,0,0,1,1.25-1.19,6.43,6.43,0,0,1,3.67-.89,6.77,6.77,0,0,1,2.18.44.08.08,0,0,0,.1,0l3.29-3.09a1.93,1.93,0,0,1,1.49-.45l.19,0,1.68.33h0l-.28.67h-.08l-1.57-.32a.68.68,0,0,0-.66.16l-1,.92,0,0,.07,0,8.08,1.6a.14.14,0,0,0,.11,0l.65-.5s0,0,.05-.05H374l-1.36-.27a.41.41,0,0,1-.37-.3.34.34,0,0,1,.28-.35.65.65,0,0,1,.39,0l3.66.72.07,0-.29.67h-.07l-1.09-.22a.12.12,0,0,0-.1,0l-1,.81s0,0,0,.06l.51,2.15a0,0,0,0,0,0,0H375a6.69,6.69,0,0,1,1.69.24,4.73,4.73,0,0,1,2.63,1.66,2.39,2.39,0,0,1,.5,1.85c-.2,1.25-1.13,2.18-2.77,2.76a6.7,6.7,0,0,1-2.87.34l-.45-.05h-.07l-.54-.1-.06,0c-.25-.08-.52-.15-.76-.25a4.16,4.16,0,0,1-2.15-1.66,2.4,2.4,0,0,1-.35-1.79c0-.07,0-.13,0-.2h-.08l-2-.4a.62.62,0,0,1-.41-.24l-.56-.82-1.48-2.16c-.44-.63-.87-1.27-1.3-1.9l-.25-.35-1,.92h0l.05,0a2.88,2.88,0,0,1,1.58,3.07,2.56,2.56,0,0,1-.58,1.15,5.15,5.15,0,0,1-3.08,1.64,7.23,7.23,0,0,1-2.13.08l-.33,0-.55-.11,0,0a7.36,7.36,0,0,1-.71-.22,4,4,0,0,1-2.46-2.18,2.33,2.33,0,0,1-.08-1.38l.06-.23Zm7.48-.84-.05,0-1.64,1.55-.58.55a.7.7,0,0,1-.69.1c-.26-.12-.31-.34-.12-.52l2.22-2.09,0,0a5.2,5.2,0,0,0-5.22.88c-1.22,1.24-.76,2.88,1,3.74a5.31,5.31,0,0,0,5.52-.59C364,276.36,363.62,274.8,362.18,273.9Zm8.72,4.57c-.27.93.27,2.15,1.88,2.8a5.43,5.43,0,0,0,4.9-.42,2.12,2.12,0,0,0,.59-3.32,4.64,4.64,0,0,0-3.54-1.31l.12.49c.17.7.33,1.41.5,2.11a.25.25,0,0,1,0,.22.63.63,0,0,1-.63.18l-3.7-.73Zm-6.43-6.72,3.52,5.13,4.58-3.52Zm9.09,3.85-.4-1.65-4.38,3.36,1.4.28A5,5,0,0,1,373.56,275.6Zm-2.36,2.19,3,.6-.5-2.08A4,4,0,0,0,371.2,277.79Z" transform="translate(-74.68 -70.99)"/><path class="cls-18" d="M362.71,254.57l.09-.21a3.25,3.25,0,0,1,1-1.3,6,6,0,0,1,3.48-1.19,6.68,6.68,0,0,1,2.24.24c.06,0,.08,0,.1,0l2.68-3.36a1.74,1.74,0,0,1,1.4-.58h.19l1.72.18h.05l-.16.69h-.08l-1.61-.17a.62.62,0,0,0-.63.22l-.8,1a.13.13,0,0,1,0,.05h.07l8.32.88c.05,0,.07,0,.1,0,.18-.19.37-.37.55-.55l.05,0h-.08l-1.41-.15a.47.47,0,0,1-.42-.27.31.31,0,0,1,.21-.37.82.82,0,0,1,.38,0l3.78.4H384l-.15.69h-.07l-1.13-.12s-.07,0-.09,0l-.89.89a.07.07,0,0,0,0,.06c.31.7.61,1.4.91,2.09l0,0,.48,0a6.58,6.58,0,0,1,1.72.1,5.29,5.29,0,0,1,2.92,1.41,2.67,2.67,0,0,1,.85,1.79c0,1.26-.72,2.26-2.23,3a6.65,6.65,0,0,1-2.78.59l-.47,0H383l-.55-.06-.07,0c-.27-.06-.54-.1-.8-.17a4.9,4.9,0,0,1-2.45-1.46,2.6,2.6,0,0,1-.68-1.75,1.34,1.34,0,0,1,0-.2h-.09l-2.08-.22a.65.65,0,0,1-.45-.2l-.71-.76-1.88-2-1.64-1.77-.31-.33-.8,1h0l.05,0c1.43.72,2.16,1.68,2.15,2.9a2.39,2.39,0,0,1-.36,1.19,4.51,4.51,0,0,1-2.75,1.9,6.89,6.89,0,0,1-2.09.26h-.33l-.57-.06h-.06c-.25-.06-.51-.09-.75-.16a4.55,4.55,0,0,1-2.84-1.95,2.29,2.29,0,0,1-.34-1.35c0-.08,0-.16,0-.24Zm7.26-1.48,0,0-1.34,1.68-.48.6a.64.64,0,0,1-.66.16c-.28-.09-.37-.31-.22-.5l1.81-2.27,0-.05c-1.8-.47-4,0-5,1.34s-.21,2.92,1.7,3.62a5.09,5.09,0,0,0,5.37-1.07C372.19,255.37,371.57,253.86,370,253.09Zm9.51,3.77c-.09.95.68,2.11,2.39,2.62a5.28,5.28,0,0,0,4.79-.85,2.09,2.09,0,0,0,0-3.34,5.06,5.06,0,0,0-3.76-1l.21.48c.29.68.59,1.37.89,2a.24.24,0,0,1,0,.22.57.57,0,0,1-.59.23l-3.8-.4Zm-7.64-6.1,4.45,4.78,3.88-3.9Zm9.74,3-.71-1.6-3.71,3.72,1.44.15A4.39,4.39,0,0,1,381.58,253.78Zm-1.93,2.38,3.11.33-.89-2A3.48,3.48,0,0,0,379.65,256.16Z" transform="translate(-74.68 -70.99)"/><path class="cls-18" d="M304.71,322c0-.08,0-.15,0-.23a2.74,2.74,0,0,1,.71-1.38,5.33,5.33,0,0,1,3.17-1.55,7.2,7.2,0,0,1,2.27,0c.06,0,.07,0,.09,0l1.89-3.59a1.55,1.55,0,0,1,1.25-.72l.19,0h1.8v.7H314.4c-.3,0-.47.08-.57.28s-.38.71-.56,1.07a.11.11,0,0,0,0,0h8.49s.08,0,.1,0l.42-.6,0-.05h-1.5a.55.55,0,0,1-.48-.22.28.28,0,0,1,.13-.39.69.69,0,0,1,.36-.09h3.89v.7h-1.21c-.05,0-.07,0-.09,0l-.67,1a0,0,0,0,0,0,.06l1.37,2,0,0,.46-.09a7.07,7.07,0,0,1,1.72-.09,6,6,0,0,1,3.2,1.1,3,3,0,0,1,1.24,1.68c.32,1.24-.19,2.3-1.53,3.17a5.86,5.86,0,0,1-2.61.87l-.46,0h-.7c-.28,0-.56,0-.83-.09a5.58,5.58,0,0,1-2.74-1.18,3,3,0,0,1-1.07-1.66c0-.07,0-.13,0-.2h-2.19a.72.72,0,0,1-.49-.15l-.87-.67-2.31-1.8-2-1.57-.37-.29-.56,1.06h0l.06,0a3.76,3.76,0,0,1,2.77,2.64,2.18,2.18,0,0,1-.08,1.21,3.81,3.81,0,0,1-2.29,2.16,6.3,6.3,0,0,1-2,.48l-.33,0h-.64c-.25,0-.52,0-.77-.08a5.24,5.24,0,0,1-3.25-1.63,2.61,2.61,0,0,1-.64-1.3c0-.08,0-.15,0-.23Zm6.84-2.23s0,0,0,.05l-.95,1.79-.33.65a.58.58,0,0,1-.62.22c-.3-.06-.44-.26-.33-.47l1.28-2.43,0,0c-1.88-.28-4,.41-4.66,1.85s.46,2.9,2.5,3.39,4.29-.22,5.06-1.61S313.3,320.37,311.55,319.78Zm10.25,2.73c.12.95,1.14,2,2.95,2.34a4.89,4.89,0,0,0,4.54-1.34,2.16,2.16,0,0,0-.79-3.3,5.36,5.36,0,0,0-3.94-.59l.31.45,1.34,1.93a.26.26,0,0,1,.06.22c0,.18-.26.29-.53.29H321.8Zm-8.93-5.23,5.48,4.26,3-4.26Zm10.31,2-1.06-1.51-2.83,4.06h1.46A3.71,3.71,0,0,1,323.18,319.25Zm-1.37,2.55H325l-1.32-1.9A2.93,2.93,0,0,0,321.81,321.8Z" transform="translate(-74.68 -70.99)"/><path class="cls-18" d="M351,312.56l.12-.21a3.46,3.46,0,0,1,1.19-1.22,6.37,6.37,0,0,1,3.63-1,6.59,6.59,0,0,1,2.19.39c.06,0,.08,0,.11,0l3.13-3.17a1.87,1.87,0,0,1,1.47-.48l.19,0,1.7.29h0l-.25.67h-.08l-1.58-.27a.63.63,0,0,0-.66.17l-.93.94,0,0h.07l8.15,1.42s.08,0,.11,0l.63-.51.05-.05h-.08l-1.38-.24a.43.43,0,0,1-.38-.3c0-.14.08-.28.26-.35a.74.74,0,0,1,.39,0l3.7.64.06,0-.25.67h-.07l-1.1-.19a.12.12,0,0,0-.1,0l-1,.83s0,0,0,.06l.61,2.14a0,0,0,0,1,0,0h.49a6.88,6.88,0,0,1,1.7.21,4.83,4.83,0,0,1,2.7,1.6,2.46,2.46,0,0,1,.6,1.84c-.15,1.25-1,2.2-2.64,2.81a6.74,6.74,0,0,1-2.85.41l-.46-.05h-.06l-.55-.09-.06,0c-.26-.08-.53-.14-.77-.23a4.37,4.37,0,0,1-2.24-1.61,2.49,2.49,0,0,1-.43-1.79,1.62,1.62,0,0,1,0-.19l-.09,0-2-.35a.62.62,0,0,1-.42-.23c-.19-.27-.4-.53-.6-.8l-1.58-2.13-1.4-1.87-.25-.34L359,311h0l.06,0a3,3,0,0,1,1.72,3,2.48,2.48,0,0,1-.52,1.16,5,5,0,0,1-3,1.71,7.15,7.15,0,0,1-2.12.13l-.33,0-.56-.09-.05,0c-.24-.07-.49-.12-.72-.21a4.07,4.07,0,0,1-2.56-2.12,2.32,2.32,0,0,1-.15-1.37,1.55,1.55,0,0,1,.05-.23Zm7.44-1,0,0-1.56,1.58-.56.57a.65.65,0,0,1-.69.11c-.26-.1-.32-.32-.14-.51l2.12-2.14,0,0a5.14,5.14,0,0,0-5.18,1c-1.15,1.26-.62,2.9,1.18,3.71a5.24,5.24,0,0,0,5.49-.71C360.28,314,359.87,312.42,358.4,311.55Zm8.93,4.38c-.22.93.38,2.13,2,2.75a5.4,5.4,0,0,0,4.89-.53,2.11,2.11,0,0,0,.43-3.33,4.79,4.79,0,0,0-3.61-1.23c.05.16.1.32.14.49.2.7.4,1.4.61,2.1a.23.23,0,0,1,0,.21.61.61,0,0,1-.62.2l-3.73-.65Zm-6.75-6.57,3.76,5,4.41-3.62Zm9.27,3.64-.48-1.65-4.21,3.47,1.41.24A4.84,4.84,0,0,1,369.85,313Zm-2.25,2.24,3,.53-.59-2.07A3.84,3.84,0,0,0,367.6,315.24Z" transform="translate(-74.68 -70.99)"/><path class="cls-18" d="M274.93,303.18a1.7,1.7,0,0,1,0-.22,2.77,2.77,0,0,1,.71-1.39,5.38,5.38,0,0,1,3.17-1.54,6.92,6.92,0,0,1,2.27,0c.05,0,.07,0,.09,0l1.89-3.6a1.53,1.53,0,0,1,1.25-.72h2v.7h-1.72c-.3,0-.47.07-.57.27l-.57,1.07a.17.17,0,0,1,0,.05H292a.12.12,0,0,0,.1,0c.13-.2.28-.4.42-.6l0-.06H291a.52.52,0,0,1-.48-.22.28.28,0,0,1,.13-.39.69.69,0,0,1,.36-.09h3.89v.7h-1.21c-.05,0-.07,0-.09,0-.22.33-.45.65-.68,1a.06.06,0,0,0,0,.06c.46.65.91,1.31,1.37,2l0,0,.47-.09a6.6,6.6,0,0,1,1.72-.08,6,6,0,0,1,3.2,1.09,3.05,3.05,0,0,1,1.24,1.68c.32,1.24-.19,2.31-1.53,3.18a6,6,0,0,1-2.62.87l-.46,0h-.69c-.28,0-.56,0-.83-.08a5.63,5.63,0,0,1-2.75-1.19,3,3,0,0,1-1.06-1.66,1.29,1.29,0,0,1,0-.19h-2.19a.77.77,0,0,1-.49-.15l-.87-.68-2.31-1.8-2-1.57-.37-.29-.57,1.07h0l.06,0a3.8,3.8,0,0,1,2.77,2.64,2.17,2.17,0,0,1-.08,1.21,3.82,3.82,0,0,1-2.29,2.17,6.58,6.58,0,0,1-2,.48l-.33,0h-.64c-.26,0-.52,0-.77-.07a5.3,5.3,0,0,1-3.25-1.63,2.65,2.65,0,0,1-.64-1.3,2,2,0,0,1,0-.24Zm6.84-2.23,0,.05c-.31.6-.62,1.2-.94,1.8-.11.21-.22.43-.34.64a.55.55,0,0,1-.62.22c-.29-.05-.43-.26-.32-.47l1.28-2.43,0-.05c-1.88-.28-4,.41-4.66,1.85s.45,2.91,2.5,3.4,4.29-.23,5.06-1.62S283.52,301.55,281.77,301ZM292,303.69c.13.94,1.15,2,3,2.33a4.88,4.88,0,0,0,4.54-1.34c.87-1.09.53-2.46-.8-3.3a5.43,5.43,0,0,0-3.93-.59l.31.45,1.34,1.94a.24.24,0,0,1,.06.21.52.52,0,0,1-.54.3H292Zm-8.92-5.23,5.48,4.25,3-4.25Zm10.31,2-1.07-1.51L289.51,303H291A3.68,3.68,0,0,1,293.4,300.42ZM292,303h3.14l-1.33-1.91A2.92,2.92,0,0,0,292,303Z" transform="translate(-74.68 -70.99)"/><path class="cls-18" d="M274,241.2c0-.07,0-.15,0-.22a2.77,2.77,0,0,1,.71-1.39,5.38,5.38,0,0,1,3.17-1.54,6.92,6.92,0,0,1,2.27,0c.05,0,.07,0,.09,0l1.89-3.6a1.53,1.53,0,0,1,1.25-.72h2v.7h-1.72c-.3,0-.47.08-.57.27l-.57,1.07a.17.17,0,0,1,0,.05H291a.12.12,0,0,0,.1,0c.13-.2.28-.4.42-.6a.33.33,0,0,0,0-.06h-1.5a.53.53,0,0,1-.48-.22.27.27,0,0,1,.13-.38.61.61,0,0,1,.36-.1H294v.7h-1.21s-.07,0-.09,0c-.22.33-.45.65-.68,1a.06.06,0,0,0,0,.06c.46.65.91,1.31,1.37,2l0,0,.47-.1a7.61,7.61,0,0,1,1.72-.08,6,6,0,0,1,3.2,1.09,3.05,3.05,0,0,1,1.24,1.68c.32,1.24-.19,2.31-1.53,3.18a6,6,0,0,1-2.62.87c-.15,0-.3,0-.46,0h-.69c-.28,0-.56,0-.83-.08a5.54,5.54,0,0,1-2.75-1.19,3,3,0,0,1-1.06-1.66,1.29,1.29,0,0,1,0-.19h-2.19a.77.77,0,0,1-.49-.15l-.87-.68-2.31-1.8-2-1.57-.37-.29-.57,1.07h0l.06,0a3.8,3.8,0,0,1,2.77,2.64,2.21,2.21,0,0,1-.08,1.22,3.83,3.83,0,0,1-2.29,2.16,6.58,6.58,0,0,1-2,.48l-.33,0h-.64c-.26,0-.52,0-.77-.07a5.3,5.3,0,0,1-3.25-1.63,2.65,2.65,0,0,1-.64-1.3,2,2,0,0,1,0-.24Zm6.84-2.23,0,.05c-.31.6-.62,1.2-.94,1.8-.11.21-.22.43-.34.64a.57.57,0,0,1-.62.23c-.29-.06-.43-.27-.32-.47l1.28-2.44s0,0,0-.05c-1.88-.28-4,.41-4.66,1.85s.45,2.91,2.5,3.4,4.29-.22,5.06-1.62S282.61,239.57,280.86,239Zm10.24,2.74c.13.94,1.15,2,3,2.33a4.87,4.87,0,0,0,4.54-1.34c.87-1.09.53-2.46-.8-3.3a5.43,5.43,0,0,0-3.93-.59l.31.45,1.34,1.94a.25.25,0,0,1,.06.21.52.52,0,0,1-.54.3H291.1Zm-8.92-5.23,5.48,4.25,3-4.25Zm10.31,2-1.07-1.52L288.6,241h1.46A3.67,3.67,0,0,1,292.49,238.45ZM291.12,241h3.14l-1.33-1.91A2.92,2.92,0,0,0,291.12,241Z" transform="translate(-74.68 -70.99)"/><path class="cls-19" d="M336.64,100.05" transform="translate(-74.68 -70.99)"/><ellipse class="cls-20" cx="186.35" cy="66.8" rx="59.78" ry="66.8"/><rect class="cls-21" x="228.02" y="112.07" width="28.76" height="15.54" rx="4.43" ry="4.43" transform="translate(410.13 168.71) rotate(180)"/><rect class="cls-22" x="265.5" y="112.07" width="28.76" height="15.54" rx="4.43" ry="4.43" transform="translate(485.08 168.71) rotate(180)"/><ellipse class="cls-23" cx="167.72" cy="48.86" rx="2.85" ry="3.08"/><ellipse class="cls-23" cx="205.2" cy="48.86" rx="2.85" ry="3.08"/><path class="cls-24" d="M201.94,125.45l25.37-37.22s46.4,7,63.9,0l26.89,32.82s-7.2-27.41-24.17-38.64c-11.85-7.86-15.38-8.35-16.39-8.89-1.51-.81-2.43-.52-3.2-.73-5.86-1.62-25.27-4.48-44.79,7.83C206.05,95.45,201.94,125.45,201.94,125.45Z" transform="translate(-74.68 -70.99)"/><path class="cls-25" d="M291.21,88.36l26.62,32.5s-7.11-27.15-23.92-38.26C292.3,81.54,296.2,84.25,291.21,88.36Z" transform="translate(-74.68 -70.99)"/><path class="cls-26" d="M319.56,147.49s-55.45,65.65-119.08,0c0,0,6.75,55.29,59.78,58.29C260.26,205.78,311.22,207.31,319.56,147.49Z" transform="translate(-74.68 -70.99)"/><line class="cls-19" x1="170.58" y1="101.49" x2="202.34" y2="101.49"/><path class="cls-27" d="M245.26,172.47a36.13,36.13,0,0,1,7.94-2,60.64,60.64,0,0,1,7.94-.54,57.15,57.15,0,0,1,7.94.54,35,35,0,0,1,7.95,2,35.55,35.55,0,0,1-7.95,2,58.72,58.72,0,0,1-7.94.53,57.36,57.36,0,0,1-7.94-.54A35.57,35.57,0,0,1,245.26,172.47Z" transform="translate(-74.68 -70.99)"/><line class="cls-19" x1="168.84" y1="101.49" x2="204.39" y2="101.49"/><path class="cls-28" d="M243.53,172.47c3-.15,5.92-.23,8.88-.29s5.93-.05,8.89-.08,5.92,0,8.89.08,5.92.14,8.88.29c-3,.16-5.92.23-8.88.29s-5.93.06-8.89.09-5.93,0-8.89-.09S246.49,172.63,243.53,172.47Z" transform="translate(-74.68 -70.99)"/><polyline class="cls-29" points="193.13 82.39 187.07 84.01 179.78 82.16 185.78 57.79"/><polyline class="cls-30" points="187.07 84.01 179.78 82.16 185.78 57.79"/><path class="cls-20" d="M264.67,119.66s-3.08-3.5-7.05,0" transform="translate(-74.68 -70.99)"/><path class="cls-31" d="M264.63,119.7a10.26,10.26,0,0,0-3.46-.69,4.27,4.27,0,0,0-.79.06l-.41.05a2.73,2.73,0,0,1-.41.1c-.3,0-.58.16-.9.22a8.24,8.24,0,0,1-1,.26l-.07-.08c.26-.2.52-.42.78-.61a7.48,7.48,0,0,1,.86-.51,4.84,4.84,0,0,1,1.94-.49,4.91,4.91,0,0,1,3.55,1.62Z" transform="translate(-74.68 -70.99)"/><ellipse class="cls-32" cx="205.2" cy="48.86" rx="1.45" ry="1.57"/><ellipse class="cls-32" cx="167.72" cy="48.86" rx="1.45" ry="1.57"/><path class="cls-33" d="M200.48,147.49s15.45,41,36.7,51.56C237.18,199.05,212.49,196,200.48,147.49Z" transform="translate(-74.68 -70.99)"/><path class="cls-33" d="M260.85,205.78s-21.06,104.55,0,183.16C260.85,388.94,281.92,300.32,260.85,205.78Z" transform="translate(-74.68 -70.99)"/><circle class="cls-34" cx="185.69" cy="283.69" r="2.35"/><path class="cls-5" d="M257.91,234v2.22a3.21,3.21,0,0,1,0,.62,3.22,3.22,0,0,0,0-.62V234a3.32,3.32,0,0,1,0-.63,3.32,3.32,0,0,0,0,.63Z" transform="translate(-74.68 -70.99)"/><path class="cls-5" d="M262.75,237.67v1.2a3.33,3.33,0,0,1,0,.63,3.32,3.32,0,0,0,0-.63v-1.2a2.66,2.66,0,0,1,0-.63,2.66,2.66,0,0,0,0,.63Z" transform="translate(-74.68 -70.99)"/><path class="cls-5" d="M264.36,241.49v1.21a3.33,3.33,0,0,1,0,.63,3.32,3.32,0,0,0,0-.63v-1.21a3.21,3.21,0,0,1,0-.62,3.21,3.21,0,0,0,0,.62Z" transform="translate(-74.68 -70.99)"/><path class="cls-5" d="M267.38,241.29v.2a3.33,3.33,0,0,1,0,.63,3.32,3.32,0,0,0,0-.63v-.2a3.22,3.22,0,0,1,0-.62,3.21,3.21,0,0,0,0,.62Z" transform="translate(-74.68 -70.99)"/><path class="cls-5" d="M261.35,249.37s0-1.25,0-1.25,0,1.25,0,1.25Z" transform="translate(-74.68 -70.99)"/><path class="cls-5" d="M258.72,241.49v1.41a3.33,3.33,0,0,1,0,.63,3.32,3.32,0,0,0,0-.63v-1.41a2.57,2.57,0,0,1,0-.62,2.57,2.57,0,0,0,0,.62Z" transform="translate(-74.68 -70.99)"/><path class="cls-5" d="M258.92,250.56v1.61a3.33,3.33,0,0,1,0,.63,3.31,3.31,0,0,0,0-.63v-1.61a3.21,3.21,0,0,1,0-.62,3.2,3.2,0,0,0,0,.62Z" transform="translate(-74.68 -70.99)"/><path class="cls-5" d="M265.17,253.58v.61a2.57,2.57,0,0,1,0,.62,2.57,2.57,0,0,0,0-.62v-.61a3.21,3.21,0,0,1,0-.62,3.21,3.21,0,0,0,0,.62Z" transform="translate(-74.68 -70.99)"/><path class="cls-5" d="M263.15,255.8v1.61a3.32,3.32,0,0,1,0,.63,3.32,3.32,0,0,0,0-.63V255.8a3.32,3.32,0,0,1,0-.63,3.32,3.32,0,0,0,0,.63Z" transform="translate(-74.68 -70.99)"/><path class="cls-5" d="M260.53,256.81v1a3.33,3.33,0,0,1,0,.63,3.32,3.32,0,0,0,0-.63v-1a3.33,3.33,0,0,1,0-.63,3.32,3.32,0,0,0,0,.63Z" transform="translate(-74.68 -70.99)"/><path class="cls-5" d="M258.52,257v.2a3.22,3.22,0,0,1,0,.62,3.21,3.21,0,0,0,0-.62V257a2.66,2.66,0,0,1,0-.63,2.66,2.66,0,0,0,0,.63Z" transform="translate(-74.68 -70.99)"/><path class="cls-5" d="M258.12,261.24v1a3.21,3.21,0,0,1,0,.62,2.57,2.57,0,0,0,0-.62v-1a3.32,3.32,0,0,1,0-.63,3.31,3.31,0,0,0,0,.63Z" transform="translate(-74.68 -70.99)"/><path class="cls-5" d="M264.16,262.85v.61a3.21,3.21,0,0,1,0,.62,3.21,3.21,0,0,0,0-.62v-.61a2.57,2.57,0,0,1,0-.62,2.56,2.56,0,0,0,0,.62Z" transform="translate(-74.68 -70.99)"/><path class="cls-5" d="M262.15,265.47v.2a3.31,3.31,0,0,1,0,.63,2.66,2.66,0,0,0,0-.63v-.2a3.22,3.22,0,0,1,0-.62,3.21,3.21,0,0,0,0,.62Z" transform="translate(-74.68 -70.99)"/><path class="cls-5" d="M259.33,268.49v1.21a3.31,3.31,0,0,1,0,.63,3.32,3.32,0,0,0,0-.63v-1.21a3.21,3.21,0,0,1,0-.62,3.21,3.21,0,0,0,0,.62Z" transform="translate(-74.68 -70.99)"/><path class="cls-5" d="M263.35,271.11v.2a3.33,3.33,0,0,1,0,.63,3.32,3.32,0,0,0,0-.63v-.2a3.22,3.22,0,0,1,0-.62,3.21,3.21,0,0,0,0,.62Z" transform="translate(-74.68 -70.99)"/><path class="cls-5" d="M259.94,273.75s0-1.25,0-1.25,0,1.25,0,1.25Z" transform="translate(-74.68 -70.99)"/><path class="cls-5" d="M267,232.23v.8a3.33,3.33,0,0,1,0,.63,3.32,3.32,0,0,0,0-.63v-.8a3.31,3.31,0,0,1,0-.63,2.66,2.66,0,0,0,0,.63Z" transform="translate(-74.68 -70.99)"/><path class="cls-5" d="M259.33,230.62s0-1.25,0-1.25,0,1.25,0,1.25Z" transform="translate(-74.68 -70.99)"/><path class="cls-5" d="M263,230.21v.61a3.21,3.21,0,0,1,0,.62,3.21,3.21,0,0,0,0-.62v-.61a3.21,3.21,0,0,1,0-.62,2.56,2.56,0,0,0,0,.62Z" transform="translate(-74.68 -70.99)"/><path class="cls-5" d="M268,228.4v1a3.33,3.33,0,0,1,0,.63,3.32,3.32,0,0,0,0-.63v-1a2.66,2.66,0,0,1,0-.63,2.66,2.66,0,0,0,0,.63Z" transform="translate(-74.68 -70.99)"/><path class="cls-6" d="M268.91,233.53a2,2,0,0,0,.64,2.19" transform="translate(-74.68 -70.99)"/><path class="cls-6" d="M268.88,230.58a2,2,0,0,1,.7,1.62" transform="translate(-74.68 -70.99)"/><path class="cls-6" d="M264.35,231.27a1.09,1.09,0,0,1-.55,1.22" transform="translate(-74.68 -70.99)"/><path class="cls-6" d="M258.74,231.45V233" transform="translate(-74.68 -70.99)"/><path class="cls-6" d="M256.12,230.7a2.14,2.14,0,0,1-.82,1.44" transform="translate(-74.68 -70.99)"/><path class="cls-6" d="M255.28,228.64a2.29,2.29,0,0,1-.49,1.49" transform="translate(-74.68 -70.99)"/><path class="cls-6" d="M255.92,234.36a3.26,3.26,0,0,0-.85,1.78" transform="translate(-74.68 -70.99)"/><path class="cls-6" d="M256.79,239.51a2.11,2.11,0,0,1-.49,1.12" transform="translate(-74.68 -70.99)"/><path class="cls-6" d="M259.84,235.77a1.3,1.3,0,0,1-.24,1.23" transform="translate(-74.68 -70.99)"/><path class="cls-6" d="M263.25,235.26a6.74,6.74,0,0,1,1.1.88" transform="translate(-74.68 -70.99)"/><path class="cls-6" d="M266,239.8l.47.65" transform="translate(-74.68 -70.99)"/><path class="cls-6" d="M261.83,239.51v.94" transform="translate(-74.68 -70.99)"/><path class="cls-6" d="M267.94,242.21a1.37,1.37,0,0,1,.25,1.14" transform="translate(-74.68 -70.99)"/><path class="cls-6" d="M267.07,245.61l.85,1.3" transform="translate(-74.68 -70.99)"/><path class="cls-6" d="M260.32,244.38a2.87,2.87,0,0,1-.91,1.33" transform="translate(-74.68 -70.99)"/><path class="cls-6" d="M256.87,244.48a1.92,1.92,0,0,1-1,1.71" transform="translate(-74.68 -70.99)"/><path class="cls-6" d="M256.59,250.66a1.7,1.7,0,0,1-.39,1.12" transform="translate(-74.68 -70.99)"/><path class="cls-6" d="M262.2,249v1" transform="translate(-74.68 -70.99)"/><path class="cls-6" d="M263.8,248.79a1.09,1.09,0,0,1,.75.46" transform="translate(-74.68 -70.99)"/><path class="cls-6" d="M267.44,250.3l.85.46" transform="translate(-74.68 -70.99)"/><path class="cls-6" d="M266.83,252.26a2.31,2.31,0,0,0,.61,2.26" transform="translate(-74.68 -70.99)"/><path class="cls-6" d="M256,254.36a2.07,2.07,0,0,1-1,.28" transform="translate(-74.68 -70.99)"/></svg>