<svg id="Layer_1" data-name="Layer 1" xmlns="http://www.w3.org/2000/svg" xmlns:xlink="http://www.w3.org/1999/xlink" viewBox="0 0 388.12 417.9"><defs><style>.cls-1{fill:#e4e1c7;}.cls-2{fill:#512e2a;}.cls-3,.cls-4{fill:#9e2b20;}.cls-14,.cls-23,.cls-4,.cls-6{stroke:#231f20;}.cls-14,.cls-15,.cls-16,.cls-17,.cls-21,.cls-22,.cls-23,.cls-32,.cls-4,.cls-6,.cls-8{stroke-miterlimit:10;}.cls-5{fill:#231f20;}.cls-16,.cls-6,.cls-8{fill:none;}.cls-23,.cls-6{stroke-width:0.25px;}.cls-7{fill:#c2b59b;}.cls-8{stroke:#9b8579;}.cls-9{fill:#b1a58e;}.cls-10{fill:#9b8579;}.cls-11{fill:#1e4496;}.cls-12,.cls-17{fill:#234093;}.cls-13{fill:#124b9a;}.cls-14,.cls-15,.cls-20,.cls-21,.cls-22,.cls-23{fill:#fff;}.cls-15{stroke:#f9a560;}.cls-16{stroke:#283c91;}.cls-17{stroke:#262262;stroke-width:0.5px;}.cls-18{fill:#fff200;}.cls-19{fill:#d1d3d4;}.cls-21{stroke:url(#White_Black);}.cls-22{stroke:url(#White_Black-2);}.cls-24{fill:#fde79e;}.cls-25{fill:#fbeac8;}.cls-26{fill:#e5e1c5;}.cls-27{fill:#f9c9de;}.cls-28{fill:#8d536f;}.cls-29{fill:#e3e2db;}.cls-30{fill:#d0cca8;}.cls-31{fill:url(#White_Black-3);}.cls-32{fill:#2e3192;stroke:#00aeef;}.cls-33{fill:#cfcdb4;}.cls-34{fill:#726658;}.cls-35{fill:#603913;}</style><linearGradient id="White_Black" x1="267.37" y1="119.85" x2="298.46" y2="119.85" gradientTransform="matrix(1, 0, 0, -1, -42.34, 239.69)" gradientUnits="userSpaceOnUse"><stop offset="0" stop-color="#fff"/><stop offset="1" stop-color="#231f20"/></linearGradient><linearGradient id="White_Black-2" x1="228.16" y1="119.85" x2="259.26" y2="119.85" gradientTransform="matrix(1, 0, 0, -1, 36.07, 239.69)" xlink:href="#White_Black"/><linearGradient id="White_Black-3" x1="264.23" y1="118.86" x2="256.16" y2="118.86" gradientTransform="matrix(1, 0, 0, 1, 0, 0)" xlink:href="#White_Black"/></defs><title>18</title><polyline class="cls-1" points="217.65 334.96 211.04 400.24 203.61 399.87 202.86 334.22"/><polyline class="cls-1" points="171.55 334.96 178.16 400.24 185.59 399.87 186.34 334.22"/><path class="cls-2" d="M230.77,475.18s-20.25,10.71-7.52,12.21l12.73,1.5h16.19s6.73-4.74,6.73-11.59" transform="translate(-65.1 -70.99)"/><path class="cls-2" d="M286.2,475.18s20.24,10.71,7.52,12.21L281,488.89H264.8s-5.9-4.74-5.9-11.59" transform="translate(-65.1 -70.99)"/><path class="cls-3" d="M244.2,470.46s-33.1,10.7-20.38,12.2l12.73,1.49h16.19s6.16,0,6.16-6.85l-7.23-6.23h-.53" transform="translate(-65.1 -70.99)"/><path class="cls-3" d="M266.6,470.13l-7.39,7.17c0,6.85,6.16,6.85,6.16,6.85h16.19l12.73-1.49c12.73-1.5-18.15-12.21-18.15-12.21" transform="translate(-65.1 -70.99)"/><path class="cls-4" d="M259.31,477" transform="translate(-65.1 -70.99)"/><path class="cls-5" d="M276,409.9v-1.25s0,1.25,0,1.25Z" transform="translate(-65.1 -70.99)"/><path class="cls-5" d="M244.38,409.27v.4a3.31,3.31,0,0,1,0,.63,2.66,2.66,0,0,0,0-.63v-.4a3.22,3.22,0,0,1,0-.62,3.21,3.21,0,0,0,0,.62Z" transform="translate(-65.1 -70.99)"/><path class="cls-5" d="M248.82,409.31v-1.25s0,1.25,0,1.25Z" transform="translate(-65.1 -70.99)"/><path class="cls-5" d="M270.57,414.52v2.22a3.22,3.22,0,0,1,0,.62,3.21,3.21,0,0,0,0-.62v-2.22a2.57,2.57,0,0,1,0-.62,2.57,2.57,0,0,0,0,.62Z" transform="translate(-65.1 -70.99)"/><path class="cls-5" d="M275.4,418.15v1.21a3.22,3.22,0,0,1,0,.62,3.2,3.2,0,0,0,0-.62v-1.21a3.22,3.22,0,0,1,0-.62,3.2,3.2,0,0,0,0,.62Z" transform="translate(-65.1 -70.99)"/><path class="cls-5" d="M277,422v1.21a2.57,2.57,0,0,1,0,.62,2.57,2.57,0,0,0,0-.62V422a3.33,3.33,0,0,1,0-.63,3.32,3.32,0,0,0,0,.63Z" transform="translate(-65.1 -70.99)"/><path class="cls-5" d="M280,421.78v.2a3.22,3.22,0,0,1,0,.62,3.21,3.21,0,0,0,0-.62v-.2a2.66,2.66,0,0,1,0-.63,2.66,2.66,0,0,0,0,.63Z" transform="translate(-65.1 -70.99)"/><path class="cls-5" d="M274,429.86s0-1.25,0-1.25,0,1.25,0,1.25Z" transform="translate(-65.1 -70.99)"/><path class="cls-5" d="M271.38,422v1.41a3.21,3.21,0,0,1,0,.62,3.21,3.21,0,0,0,0-.62V422a3.33,3.33,0,0,1,0-.63,3.32,3.32,0,0,0,0,.63Z" transform="translate(-65.1 -70.99)"/><path class="cls-5" d="M271.58,431v1.62a2.57,2.57,0,0,1,0,.62,2.57,2.57,0,0,0,0-.62V431a3.21,3.21,0,0,1,0-.62,3.21,3.21,0,0,0,0,.62Z" transform="translate(-65.1 -70.99)"/><path class="cls-5" d="M277.82,434.07v.6a3.33,3.33,0,0,1,0,.63,3.32,3.32,0,0,0,0-.63v-.6a3.33,3.33,0,0,1,0-.63,3.32,3.32,0,0,0,0,.63Z" transform="translate(-65.1 -70.99)"/><path class="cls-5" d="M275.81,436.28v1.62a2.57,2.57,0,0,1,0,.62,2.57,2.57,0,0,0,0-.62v-1.62a3.21,3.21,0,0,1,0-.62,3.21,3.21,0,0,0,0,.62Z" transform="translate(-65.1 -70.99)"/><path class="cls-5" d="M273.19,437.29v1a2.57,2.57,0,0,1,0,.62,2.57,2.57,0,0,0,0-.62v-1a3.22,3.22,0,0,1,0-.62,3.21,3.21,0,0,0,0,.62Z" transform="translate(-65.1 -70.99)"/><path class="cls-5" d="M271.17,437.49v.2a3.33,3.33,0,0,1,0,.63,3.32,3.32,0,0,0,0-.63v-.2a3.22,3.22,0,0,1,0-.62,3.21,3.21,0,0,0,0,.62Z" transform="translate(-65.1 -70.99)"/><path class="cls-5" d="M270.77,441.72v1a3.32,3.32,0,0,1,0,.63,3.31,3.31,0,0,0,0-.63v-1a2.57,2.57,0,0,1,0-.62,2.57,2.57,0,0,0,0,.62Z" transform="translate(-65.1 -70.99)"/><path class="cls-5" d="M276.82,443.34v.6a3.21,3.21,0,0,1,0,.62,3.2,3.2,0,0,0,0-.62v-.6a3.33,3.33,0,0,1,0-.63,3.32,3.32,0,0,0,0,.63Z" transform="translate(-65.1 -70.99)"/><path class="cls-5" d="M274.8,446v.21a3.21,3.21,0,0,1,0,.62,3.21,3.21,0,0,0,0-.62V446a2.57,2.57,0,0,1,0-.62,2.57,2.57,0,0,0,0,.62Z" transform="translate(-65.1 -70.99)"/><path class="cls-5" d="M272,449v1.21a3.21,3.21,0,0,1,0,.62,3.21,3.21,0,0,0,0-.62V449a2.66,2.66,0,0,1,0-.63,2.66,2.66,0,0,0,0,.63Z" transform="translate(-65.1 -70.99)"/><path class="cls-5" d="M276,451.6v.2a3.22,3.22,0,0,1,0,.62,3.21,3.21,0,0,0,0-.62v-.2a2.66,2.66,0,0,1,0-.63,2.66,2.66,0,0,0,0,.63Z" transform="translate(-65.1 -70.99)"/><path class="cls-5" d="M272.59,454.24s0-1.25,0-1.25,0,1.25,0,1.25Z" transform="translate(-65.1 -70.99)"/><path class="cls-5" d="M279.64,412.71v.81a3.21,3.21,0,0,1,0,.62,2.57,2.57,0,0,0,0-.62v-.81a3.22,3.22,0,0,1,0-.62,3.21,3.21,0,0,0,0,.62Z" transform="translate(-65.1 -70.99)"/><path class="cls-5" d="M272,411.1s0-1.25,0-1.25,0,1.25,0,1.25Z" transform="translate(-65.1 -70.99)"/><path class="cls-5" d="M275.61,410.7v.6a3.21,3.21,0,0,1,0,.62,2.56,2.56,0,0,0,0-.62v-.6a3.33,3.33,0,0,1,0-.63,3.32,3.32,0,0,0,0,.63Z" transform="translate(-65.1 -70.99)"/><path class="cls-5" d="M280.64,408.88v1a3.22,3.22,0,0,1,0,.62,3.2,3.2,0,0,0,0-.62v-1a3.22,3.22,0,0,1,0-.62,3.21,3.21,0,0,0,0,.62Z" transform="translate(-65.1 -70.99)"/><path class="cls-6" d="M281.56,414a2,2,0,0,0,.64,2.18" transform="translate(-65.1 -70.99)"/><path class="cls-6" d="M281.53,411.07a2,2,0,0,1,.7,1.62" transform="translate(-65.1 -70.99)"/><path class="cls-6" d="M277,411.75a1.07,1.07,0,0,1-.55,1.22" transform="translate(-65.1 -70.99)"/><path class="cls-6" d="M271.39,411.94v1.5" transform="translate(-65.1 -70.99)"/><path class="cls-6" d="M268.77,411.19a2.15,2.15,0,0,1-.82,1.44" transform="translate(-65.1 -70.99)"/><path class="cls-6" d="M267.94,409.13a2.32,2.32,0,0,1-.5,1.48" transform="translate(-65.1 -70.99)"/><path class="cls-6" d="M268.58,414.84a3.35,3.35,0,0,0-.86,1.78" transform="translate(-65.1 -70.99)"/><path class="cls-6" d="M269.44,420a2.06,2.06,0,0,1-.49,1.12" transform="translate(-65.1 -70.99)"/><path class="cls-6" d="M272.49,416.26a1.31,1.31,0,0,1-.23,1.23" transform="translate(-65.1 -70.99)"/><path class="cls-6" d="M275.91,415.75a6.64,6.64,0,0,1,1.1.88" transform="translate(-65.1 -70.99)"/><path class="cls-6" d="M278.6,420.28l.48.65" transform="translate(-65.1 -70.99)"/><path class="cls-6" d="M274.48,420v.93" transform="translate(-65.1 -70.99)"/><path class="cls-6" d="M280.6,422.7a1.34,1.34,0,0,1,.24,1.13" transform="translate(-65.1 -70.99)"/><path class="cls-6" d="M279.72,426.09l.86,1.3" transform="translate(-65.1 -70.99)"/><path class="cls-6" d="M273,424.86a2.8,2.8,0,0,1-.91,1.34" transform="translate(-65.1 -70.99)"/><path class="cls-6" d="M269.52,425a1.92,1.92,0,0,1-1,1.71" transform="translate(-65.1 -70.99)"/><path class="cls-6" d="M269.24,431.15a1.72,1.72,0,0,1-.38,1.11" transform="translate(-65.1 -70.99)"/><path class="cls-6" d="M274.86,429.46v1" transform="translate(-65.1 -70.99)"/><path class="cls-6" d="M276.45,429.28a1,1,0,0,1,.75.46" transform="translate(-65.1 -70.99)"/><path class="cls-6" d="M280.1,430.78l.84.47" transform="translate(-65.1 -70.99)"/><path class="cls-6" d="M279.48,432.75a2.32,2.32,0,0,0,.61,2.25" transform="translate(-65.1 -70.99)"/><path class="cls-6" d="M268.61,434.85a2.07,2.07,0,0,1-1.06.27" transform="translate(-65.1 -70.99)"/><path class="cls-5" d="M248.69,415.35v2.21a3.33,3.33,0,0,1,0,.63,3.32,3.32,0,0,0,0-.63v-2.21a3.33,3.33,0,0,1,0-.63,3.32,3.32,0,0,0,0,.63Z" transform="translate(-65.1 -70.99)"/><path class="cls-5" d="M243.86,419v1.21a2.66,2.66,0,0,1,0,.63,2.66,2.66,0,0,0,0-.63V419a3.21,3.21,0,0,1,0-.62,3.21,3.21,0,0,0,0,.62Z" transform="translate(-65.1 -70.99)"/><path class="cls-5" d="M242.25,422.8V424a2.66,2.66,0,0,1,0,.63,2.66,2.66,0,0,0,0-.63V422.8a3.21,3.21,0,0,1,0-.62,3.21,3.21,0,0,0,0,.62Z" transform="translate(-65.1 -70.99)"/><path class="cls-5" d="M239.22,422.6v.2a3.33,3.33,0,0,1,0,.63,3.32,3.32,0,0,0,0-.63v-.2a3.22,3.22,0,0,1,0-.62,3.21,3.21,0,0,0,0,.62Z" transform="translate(-65.1 -70.99)"/><path class="cls-5" d="M245.28,430.68v-1.25s0,1.25,0,1.25Z" transform="translate(-65.1 -70.99)"/><path class="cls-5" d="M247.89,422.8v1.41a2.66,2.66,0,0,1,0,.63,2.66,2.66,0,0,0,0-.63V422.8a3.21,3.21,0,0,1,0-.62,3.21,3.21,0,0,0,0,.62Z" transform="translate(-65.1 -70.99)"/><path class="cls-5" d="M247.69,431.87v1.61a2.66,2.66,0,0,1,0,.63,2.66,2.66,0,0,0,0-.63v-1.61a3.32,3.32,0,0,1,0-.63,3.31,3.31,0,0,0,0,.63Z" transform="translate(-65.1 -70.99)"/><path class="cls-5" d="M241.44,434.89v.61a3.21,3.21,0,0,1,0,.62,3.21,3.21,0,0,0,0-.62v-.61a2.57,2.57,0,0,1,0-.62,2.57,2.57,0,0,0,0,.62Z" transform="translate(-65.1 -70.99)"/><path class="cls-5" d="M243.46,437.11v1.61a3.21,3.21,0,0,1,0,.62,2.56,2.56,0,0,0,0-.62v-1.61a3.33,3.33,0,0,1,0-.63,3.32,3.32,0,0,0,0,.63Z" transform="translate(-65.1 -70.99)"/><path class="cls-5" d="M246.07,438.12v1a3.33,3.33,0,0,1,0,.63,3.32,3.32,0,0,0,0-.63v-1a3.33,3.33,0,0,1,0-.63,3.32,3.32,0,0,0,0,.63Z" transform="translate(-65.1 -70.99)"/><path class="cls-5" d="M248.09,438.32v.2a3.22,3.22,0,0,1,0,.62,3.21,3.21,0,0,0,0-.62v-.2a2.66,2.66,0,0,1,0-.63,2.66,2.66,0,0,0,0,.63Z" transform="translate(-65.1 -70.99)"/><path class="cls-5" d="M248.49,442.55v1a3.21,3.21,0,0,1,0,.62,3.21,3.21,0,0,0,0-.62v-1a3.33,3.33,0,0,1,0-.63,3.32,3.32,0,0,0,0,.63Z" transform="translate(-65.1 -70.99)"/><path class="cls-5" d="M242.45,444.16v.6a2.66,2.66,0,0,1,0,.63,2.66,2.66,0,0,0,0-.63v-.6a3.32,3.32,0,0,1,0-.63,3.32,3.32,0,0,0,0,.63Z" transform="translate(-65.1 -70.99)"/><path class="cls-5" d="M244.46,446.78v.2a3.32,3.32,0,0,1,0,.63,3.32,3.32,0,0,0,0-.63v-.2a3.32,3.32,0,0,1,0-.63,3.32,3.32,0,0,0,0,.63Z" transform="translate(-65.1 -70.99)"/><path class="cls-5" d="M247.28,449.8V451a3.32,3.32,0,0,1,0,.63,3.32,3.32,0,0,0,0-.63V449.8a3.22,3.22,0,0,1,0-.62,3.21,3.21,0,0,0,0,.62Z" transform="translate(-65.1 -70.99)"/><path class="cls-5" d="M243.25,452.42v.2a3.33,3.33,0,0,1,0,.63,3.32,3.32,0,0,0,0-.63v-.2a3.22,3.22,0,0,1,0-.62,3.2,3.2,0,0,0,0,.62Z" transform="translate(-65.1 -70.99)"/><path class="cls-5" d="M246.69,455.06s0-1.25,0-1.25,0,1.25,0,1.25Z" transform="translate(-65.1 -70.99)"/><path class="cls-5" d="M239.63,413.53v.81a2.66,2.66,0,0,1,0,.63,2.66,2.66,0,0,0,0-.63v-.81a3.21,3.21,0,0,1,0-.62,3.21,3.21,0,0,0,0,.62Z" transform="translate(-65.1 -70.99)"/><path class="cls-5" d="M247.29,409.93s0-1.25,0-1.25,0,1.25,0,1.25Z" transform="translate(-65.1 -70.99)"/><path class="cls-5" d="M243.26,410.72s0-1.25,0-1.25,0,1.25,0,1.25Z" transform="translate(-65.1 -70.99)"/><path class="cls-5" d="M243.66,411.52v.6a2.66,2.66,0,0,1,0,.63,2.66,2.66,0,0,0,0-.63v-.6a3.32,3.32,0,0,1,0-.63,3.32,3.32,0,0,0,0,.63Z" transform="translate(-65.1 -70.99)"/><path class="cls-5" d="M238.62,409.71v1a3.33,3.33,0,0,1,0,.63,3.31,3.31,0,0,0,0-.63v-1a2.66,2.66,0,0,1,0-.63,2.66,2.66,0,0,0,0,.63Z" transform="translate(-65.1 -70.99)"/><path class="cls-6" d="M237.72,414.84a2,2,0,0,1-.64,2.19" transform="translate(-65.1 -70.99)"/><path class="cls-6" d="M237.74,411.89a2,2,0,0,0-.7,1.62" transform="translate(-65.1 -70.99)"/><path class="cls-6" d="M242.28,412.58a1.07,1.07,0,0,0,.54,1.22" transform="translate(-65.1 -70.99)"/><path class="cls-6" d="M247.88,412.76v1.5" transform="translate(-65.1 -70.99)"/><path class="cls-6" d="M250.5,412a2.14,2.14,0,0,0,.82,1.44" transform="translate(-65.1 -70.99)"/><path class="cls-6" d="M251.34,410a2.3,2.3,0,0,0,.49,1.49" transform="translate(-65.1 -70.99)"/><path class="cls-6" d="M250.7,415.66a3.26,3.26,0,0,1,.85,1.78" transform="translate(-65.1 -70.99)"/><path class="cls-6" d="M249.84,420.82a2,2,0,0,0,.49,1.12" transform="translate(-65.1 -70.99)"/><path class="cls-6" d="M246.78,417.08a1.33,1.33,0,0,0,.24,1.23" transform="translate(-65.1 -70.99)"/><path class="cls-6" d="M243.37,416.57a6.74,6.74,0,0,0-1.1.88" transform="translate(-65.1 -70.99)"/><path class="cls-6" d="M240.68,421.11l-.48.64" transform="translate(-65.1 -70.99)"/><path class="cls-6" d="M244.79,420.82v.94" transform="translate(-65.1 -70.99)"/><path class="cls-6" d="M238.68,423.52a1.37,1.37,0,0,0-.25,1.14" transform="translate(-65.1 -70.99)"/><path class="cls-6" d="M239.55,426.91l-.85,1.31" transform="translate(-65.1 -70.99)"/><path class="cls-6" d="M246.3,425.69a2.87,2.87,0,0,0,.91,1.33" transform="translate(-65.1 -70.99)"/><path class="cls-6" d="M249.75,425.79a1.92,1.92,0,0,0,1,1.71" transform="translate(-65.1 -70.99)"/><path class="cls-6" d="M250,432a1.7,1.7,0,0,0,.39,1.12" transform="translate(-65.1 -70.99)"/><path class="cls-6" d="M244.42,430.28v1" transform="translate(-65.1 -70.99)"/><path class="cls-6" d="M242.83,430.1a1.06,1.06,0,0,0-.76.46" transform="translate(-65.1 -70.99)"/><path class="cls-6" d="M239.18,431.61l-.85.46" transform="translate(-65.1 -70.99)"/><path class="cls-6" d="M239.79,433.57a2.33,2.33,0,0,1-.6,2.26" transform="translate(-65.1 -70.99)"/><path class="cls-6" d="M250.67,435.67a2,2,0,0,0,1.05.27" transform="translate(-65.1 -70.99)"/><polygon class="cls-7" points="156.42 336.55 233.38 336.55 254.61 271.16 135.19 271.16 156.42 336.55"/><line class="cls-8" x1="194.27" y1="283.69" x2="194.27" y2="336.55"/><path class="cls-9" d="M211.77,354l16.53,53.16h-7.2l-19.43-61S209.73,352.69,211.77,354Z" transform="translate(-65.1 -70.99)"/><path class="cls-9" d="M293.18,379.87l5.19,3.08,9.78-5.21,3.36-1.79-1.73-3.24s-10.94,7.63-16.6,7.16l-2.53,15.94s10.48-.17,13.17-4.74l4.16-12.8" transform="translate(-65.1 -70.99)"/><path class="cls-10" d="M293.18,379.87l5.22,3h-.06c4.34-2.39,8.72-4.73,13.09-7.08l-.07.22-1.73-3.24.25.06a67.39,67.39,0,0,1-7.89,4.68,33.84,33.84,0,0,1-4.25,1.8,12.17,12.17,0,0,1-4.58.79l.27-.21-2.59,15.93-.19-.22a31,31,0,0,0,7.1-1,14.64,14.64,0,0,0,3.33-1.29A6.89,6.89,0,0,0,303.7,391v0L308,378.27l-4,12.84v0h0a7.17,7.17,0,0,1-2.72,2.44,14.7,14.7,0,0,1-3.38,1.34,31.26,31.26,0,0,1-7.19,1.08h-.22l0-.23,2.48-15.95,0-.23.23,0a11.76,11.76,0,0,0,4.4-.73,31.24,31.24,0,0,0,4.2-1.74,65.24,65.24,0,0,0,7.88-4.59l.17-.11.09.18,1.71,3.25.08.14-.15.08c-4.39,2.31-8.77,4.64-13.18,6.91l0,0,0,0Z" transform="translate(-65.1 -70.99)"/><path class="cls-9" d="M227,379.87,221.79,383,212,377.74,208.66,376l1.72-3.24s10.94,7.63,16.6,7.16l2.53,15.94s-10.47-.17-13.17-4.74l-4.15-12.8" transform="translate(-65.1 -70.99)"/><path class="cls-10" d="M227,379.87,221.83,383l0,0,0,0c-4.41-2.27-8.79-4.6-13.18-6.91l-.14-.08.07-.14,1.72-3.25.09-.18.16.11a65.36,65.36,0,0,0,7.89,4.59,31.12,31.12,0,0,0,4.19,1.74,11.76,11.76,0,0,0,4.4.73l.23,0,0,.23,2.48,15.95,0,.23h-.23a31.09,31.09,0,0,1-7.18-1.08,15,15,0,0,1-3.39-1.34,7.07,7.07,0,0,1-2.71-2.44h0v0l-4-12.84L216.47,391v0a7,7,0,0,0,2.62,2.31,14.71,14.71,0,0,0,3.34,1.29,30.87,30.87,0,0,0,7.1,1l-.19.22-2.59-15.93.26.21a12.21,12.21,0,0,1-4.58-.79,33.71,33.71,0,0,1-4.24-1.8,66.7,66.7,0,0,1-7.9-4.68l.26-.06L208.8,376l-.07-.22c4.37,2.35,8.75,4.69,13.1,7.08h-.07Z" transform="translate(-65.1 -70.99)"/><path class="cls-9" d="M260,369.14a82.23,82.23,0,0,0,9.05-.5L268,407.53h-8Z" transform="translate(-65.1 -70.99)"/><path class="cls-11" d="M331.34,159.22S531,178.64,419.25,337.14l-29.67-10.62" transform="translate(-65.1 -70.99)"/><path class="cls-12" d="M187,159.22S-12.65,178.64,99.07,337.14l29.67-10.62" transform="translate(-65.1 -70.99)"/><ellipse class="cls-13" cx="194.77" cy="196.11" rx="148.78" ry="123.25"/><path class="cls-14" d="M177.1,350.53" transform="translate(-65.1 -70.99)"/><path class="cls-15" d="M103.64,335.73s9.21,11.31,35.14,7.6l2.41-1,.51-.36s-12.27-14-12.77-16.33" transform="translate(-65.1 -70.99)"/><path class="cls-15" d="M416.54,336.94s-9.21,11.31-35.15,7.6l-2.41-1-.51-.37s12.27-14,12.77-16.32" transform="translate(-65.1 -70.99)"/><polyline class="cls-16" points="195.64 317.92 195.64 108.84 217.09 122.26 257.99 95.12"/><path class="cls-17" d="M160.07,224.45s-15.9,23.31-9.14,33.41L169,265.24l22.05-5.05,10.13-33.41" transform="translate(-65.1 -70.99)"/><polyline class="cls-16" points="192.6 317.92 192.6 108.84 171.15 122.26 130.25 95.12"/><path class="cls-18" d="M187.22,190.31l.11-.21a3.58,3.58,0,0,1,1.22-1.23,6.88,6.88,0,0,1,3.78-1,7.25,7.25,0,0,1,2.3.37c.06,0,.08,0,.11,0L198,185a2,2,0,0,1,1.53-.5l.19,0,1.78.27h.05l-.25.68-.08,0-1.66-.25a.73.73,0,0,0-.69.17c-.31.32-.63.64-.95,1l0,0h.08l8.56,1.33c.05,0,.08,0,.11,0l.64-.52.06-.05h-.09l-1.44-.22c-.23,0-.38-.15-.41-.29s.07-.29.27-.36a.67.67,0,0,1,.4,0l3.88.6H210l-.25.68h-.07l-1.16-.18a.12.12,0,0,0-.1,0l-1,.85a.07.07,0,0,0,0,.05l.69,2.14,0,0,.51,0a8.09,8.09,0,0,1,1.78.19,5.23,5.23,0,0,1,2.86,1.57,2.43,2.43,0,0,1,.67,1.83c-.13,1.26-1,2.22-2.69,2.85a7.34,7.34,0,0,1-3,.43l-.48,0h-.06l-.58-.09H207c-.28-.08-.56-.14-.82-.22a4.68,4.68,0,0,1-2.37-1.59,2.37,2.37,0,0,1-.49-1.78l0-.2h-.09l-2.14-.33a.75.75,0,0,1-.45-.23L200,192l-1.71-2.11-1.5-1.85c-.09-.11-.19-.22-.28-.34l-.95,1h0l.06,0c1.4.8,2,1.8,1.88,3a2.45,2.45,0,0,1-.52,1.17,5.21,5.21,0,0,1-3.1,1.74,7.82,7.82,0,0,1-2.22.14l-.34,0-.58-.09-.06,0c-.26-.07-.52-.12-.76-.2a4.33,4.33,0,0,1-2.73-2.1,2.24,2.24,0,0,1-.19-1.37c0-.07,0-.15.05-.23Zm7.75-1.08,0,0c-.54.53-1.07,1.06-1.6,1.6l-.58.57a.71.71,0,0,1-.71.12c-.27-.1-.34-.32-.16-.51l2.17-2.16,0,0c-1.81-.57-4.21-.23-5.4,1.06s-.57,2.9,1.33,3.7a5.7,5.7,0,0,0,5.73-.77C197,191.62,196.54,190.08,195,189.23Zm9.45,4.28c-.21.94.45,2.13,2.17,2.74a5.89,5.89,0,0,0,5.1-.59,2,2,0,0,0,.37-3.33,5.2,5.2,0,0,0-3.8-1.2c.06.16.11.33.16.49l.68,2.09a.28.28,0,0,1,0,.22.64.64,0,0,1-.65.2l-3.92-.61Zm-7.21-6.5,4,5,4.53-3.67Zm9.78,3.55-.54-1.65-4.33,3.51,1.49.23A5,5,0,0,1,207,190.56Zm-2.3,2.26,3.19.5-.67-2.06A3.89,3.89,0,0,0,204.69,192.82Z" transform="translate(-65.1 -70.99)"/><path class="cls-18" d="M195.92,214.57a1.85,1.85,0,0,0,0-.23,2.74,2.74,0,0,1,.75-1.38,5.65,5.65,0,0,1,3.31-1.55,7.91,7.91,0,0,1,2.38,0c.06,0,.07,0,.09,0l2-3.59a1.63,1.63,0,0,1,1.31-.72h2.08v.7h-1.8c-.32,0-.49.08-.6.28-.19.36-.39.71-.59,1.07a.17.17,0,0,1,0,.05h8.88a.11.11,0,0,0,.1,0l.44-.61,0-.05h-1.58a.59.59,0,0,1-.5-.22.29.29,0,0,1,.14-.39.74.74,0,0,1,.38-.09h4.06v.7h-1.26c-.05,0-.07,0-.09,0l-.71,1a.06.06,0,0,0,0,.06c.47.66.95,1.32,1.43,2l0,0,.49-.09a7.71,7.71,0,0,1,1.8-.09,6.51,6.51,0,0,1,3.35,1.1,3.08,3.08,0,0,1,1.3,1.68c.33,1.24-.21,2.3-1.6,3.17a6.38,6.38,0,0,1-2.74.88l-.48,0h-.73c-.29,0-.58,0-.87-.09a6,6,0,0,1-2.87-1.18,3,3,0,0,1-1.12-1.66,1.77,1.77,0,0,0,0-.2H210.4a.77.77,0,0,1-.51-.14l-.91-.68-2.42-1.8-2.12-1.57-.39-.29-.59,1.07h0l.07,0c1.65.56,2.63,1.43,2.9,2.64a2.09,2.09,0,0,1-.09,1.21A3.9,3.9,0,0,1,204,217.7a6.85,6.85,0,0,1-2.11.48l-.34,0h-.67c-.27,0-.54,0-.81-.08a5.6,5.6,0,0,1-3.39-1.62,2.68,2.68,0,0,1-.68-1.31,2.23,2.23,0,0,0,0-.23Zm7.16-2.23,0,0c-.33.6-.65,1.2-1,1.79l-.36.65a.62.62,0,0,1-.65.22c-.3-.06-.45-.26-.33-.47l1.33-2.43,0-.05c-2-.28-4.18.41-4.88,1.85s.48,2.9,2.61,3.39,4.5-.22,5.3-1.61S204.91,212.93,203.08,212.34Zm10.72,2.73c.13,1,1.19,2,3.08,2.34a5.27,5.27,0,0,0,4.76-1.34c.91-1.09.56-2.47-.83-3.3a5.89,5.89,0,0,0-4.12-.59l.32.45,1.41,1.93a.26.26,0,0,1,.06.22c-.06.18-.27.29-.56.29H213.8Zm-9.34-5.22,5.73,4.25,3.1-4.25Zm10.78,2-1.11-1.51-2.95,4.06h1.52A3.78,3.78,0,0,1,215.24,211.81Zm-1.43,2.55h3.29l-1.39-1.9A3,3,0,0,0,213.81,214.36Z" transform="translate(-65.1 -70.99)"/><path class="cls-18" d="M211.67,238.87c0-.08,0-.15,0-.23a2.67,2.67,0,0,1,.75-1.38,5.65,5.65,0,0,1,3.31-1.55,7.85,7.85,0,0,1,2.37,0c.06,0,.08,0,.1,0l2-3.59a1.62,1.62,0,0,1,1.31-.72l.2,0h1.88v.7h-1.8c-.32,0-.49.08-.6.28s-.39.71-.59,1.07c0,0,0,0,0,0h8.88c.05,0,.08,0,.1,0l.44-.6,0-.05h-1.58a.58.58,0,0,1-.5-.22.28.28,0,0,1,.14-.39.74.74,0,0,1,.38-.09h4.06v.7H231.3c-.05,0-.07,0-.09,0l-.71,1s0,.05,0,.06c.47.66.95,1.32,1.43,2,0,0,0,0,0,0l.49-.09a7.71,7.71,0,0,1,1.8-.09,6.54,6.54,0,0,1,3.35,1.1,3.09,3.09,0,0,1,1.3,1.68c.33,1.24-.21,2.3-1.61,3.17a6.33,6.33,0,0,1-2.73.87l-.49,0h-.72c-.29,0-.59,0-.87-.09a6,6,0,0,1-2.87-1.18,3,3,0,0,1-1.12-1.66c0-.07,0-.13,0-.2h-2.29a.76.76,0,0,1-.51-.15l-.91-.67-2.42-1.8-2.12-1.57-.39-.29-.59,1.06h0l.07,0c1.64.56,2.62,1.43,2.9,2.64a2.1,2.1,0,0,1-.09,1.21,3.92,3.92,0,0,1-2.39,2.16,6.85,6.85,0,0,1-2.11.48l-.34,0h-.67c-.27,0-.54,0-.81-.08a5.58,5.58,0,0,1-3.4-1.63,2.67,2.67,0,0,1-.67-1.3c0-.08,0-.15,0-.23Zm7.16-2.23,0,.05c-.33.6-.66,1.19-1,1.79l-.36.65a.62.62,0,0,1-.65.22c-.3-.06-.45-.26-.34-.47l1.34-2.43s0,0,0,0c-2-.28-4.17.41-4.87,1.85s.47,2.9,2.61,3.39,4.49-.22,5.3-1.61S220.66,237.23,218.83,236.64Zm10.72,2.73c.13.95,1.19,2,3.08,2.34a5.27,5.27,0,0,0,4.75-1.34c.91-1.09.56-2.47-.83-3.3a5.8,5.8,0,0,0-4.11-.59l.32.45,1.41,1.93a.23.23,0,0,1,.05.22c-.05.18-.26.29-.55.29h-4.12Zm-9.34-5.23,5.73,4.26,3.09-4.26Zm10.78,2-1.11-1.51-3,4.06h1.53A3.78,3.78,0,0,1,231,236.11Zm-1.43,2.55h3.28l-1.38-1.9A3,3,0,0,0,229.56,238.66Z" transform="translate(-65.1 -70.99)"/><path class="cls-18" d="M217.55,269a1.7,1.7,0,0,1,0-.22,2.68,2.68,0,0,1,.74-1.38,5.68,5.68,0,0,1,3.32-1.55,7.54,7.54,0,0,1,2.37,0c.06,0,.08,0,.1,0,.66-1.2,1.31-2.4,2-3.6a1.6,1.6,0,0,1,1.31-.72h2.07v.7h-1.79c-.32,0-.49.08-.6.27l-.59,1.07,0,.05h8.88a.12.12,0,0,0,.11,0l.44-.6,0-.05h-1.57a.58.58,0,0,1-.5-.22.28.28,0,0,1,.13-.39.69.69,0,0,1,.38-.09h4.07v.7h-1.27a.12.12,0,0,0-.09,0c-.23.33-.47.65-.71,1a.06.06,0,0,0,0,.06c.48.66,1,1.31,1.43,2l0,0c.16,0,.32-.07.49-.09a7.71,7.71,0,0,1,1.8-.09,6.57,6.57,0,0,1,3.35,1.09,3.11,3.11,0,0,1,1.29,1.68c.33,1.24-.2,2.31-1.6,3.18a6.33,6.33,0,0,1-2.74.87l-.48,0h-.73c-.28,0-.58-.05-.86-.09a6,6,0,0,1-2.88-1.19,3,3,0,0,1-1.11-1.66,1.06,1.06,0,0,1,0-.19H232a.85.85,0,0,1-.51-.15l-.91-.68-2.42-1.79-2.11-1.58-.4-.29-.58,1.07h0l.07,0c1.64.57,2.62,1.44,2.89,2.64A2.12,2.12,0,0,1,228,270a3.9,3.9,0,0,1-2.39,2.16,7.09,7.09,0,0,1-2.1.48l-.35,0h-.66c-.27,0-.55,0-.81-.08a5.63,5.63,0,0,1-3.4-1.63,2.55,2.55,0,0,1-.67-1.3,2.23,2.23,0,0,1,0-.23Zm7.16-2.22,0,0-1,1.8-.35.64a.63.63,0,0,1-.65.23c-.31-.06-.45-.26-.34-.47l1.34-2.43a.08.08,0,0,1,0-.05c-2-.29-4.17.41-4.87,1.84s.47,2.91,2.61,3.4,4.49-.22,5.29-1.61S226.54,267.4,224.71,266.81Zm10.71,2.73c.13.95,1.2,2,3.09,2.33a5.27,5.27,0,0,0,4.75-1.33c.91-1.1.56-2.47-.83-3.3a5.82,5.82,0,0,0-4.12-.59l.33.44c.47.65.94,1.29,1.4,1.94a.22.22,0,0,1,.06.21c0,.19-.27.3-.56.3h-4.12Zm-9.33-5.23,5.73,4.25,3.09-4.25Zm10.78,2-1.11-1.52-3,4.07h1.53A3.74,3.74,0,0,1,236.87,266.28Zm-1.43,2.55h3.28l-1.38-1.9A3,3,0,0,0,235.44,268.83Z" transform="translate(-65.1 -70.99)"/><path class="cls-18" d="M217.55,300.64a1.43,1.43,0,0,1,0-.22,2.71,2.71,0,0,1,.74-1.39,5.68,5.68,0,0,1,3.32-1.55,7.85,7.85,0,0,1,2.37,0c.06,0,.08,0,.1,0,.66-1.2,1.31-2.4,2-3.6a1.6,1.6,0,0,1,1.31-.72h2.07v.69h-1.79c-.32,0-.49.08-.6.28-.2.36-.4.71-.59,1.07l0,.05h8.88a.12.12,0,0,0,.11,0l.44-.6,0-.06h-1.57a.58.58,0,0,1-.5-.22.28.28,0,0,1,.13-.39.79.79,0,0,1,.38-.09h4.07v.7h-1.27a.1.1,0,0,0-.09,0l-.71,1a.06.06,0,0,0,0,.06l1.43,2,0,0,.49-.09a7.21,7.21,0,0,1,1.8-.08,6.47,6.47,0,0,1,3.35,1.09,3.11,3.11,0,0,1,1.29,1.68c.33,1.24-.2,2.31-1.6,3.17a6.33,6.33,0,0,1-2.74.88l-.48,0h-.73c-.28,0-.58,0-.86-.09a6.06,6.06,0,0,1-2.88-1.18,3,3,0,0,1-1.11-1.66,1.29,1.29,0,0,1,0-.19H232a.85.85,0,0,1-.51-.15c-.3-.23-.6-.46-.91-.68l-2.42-1.8L226.07,297l-.4-.29-.58,1.07h0l.07,0c1.64.56,2.62,1.44,2.89,2.64a2.09,2.09,0,0,1-.09,1.21,3.88,3.88,0,0,1-2.39,2.17,6.78,6.78,0,0,1-2.1.47l-.35,0h-.66a7.17,7.17,0,0,1-.81-.08,5.57,5.57,0,0,1-3.4-1.62,2.58,2.58,0,0,1-.67-1.31,1.57,1.57,0,0,1,0-.23Zm7.16-2.23,0,0-1,1.8-.35.64a.62.62,0,0,1-.65.22c-.31-.05-.45-.26-.34-.47l1.34-2.43s0,0,0-.05c-2-.28-4.17.41-4.87,1.85s.47,2.9,2.61,3.4,4.49-.23,5.29-1.62S226.54,299,224.71,298.41Zm10.71,2.74c.13.94,1.2,2,3.09,2.33a5.25,5.25,0,0,0,4.75-1.34c.91-1.09.56-2.47-.83-3.3a5.88,5.88,0,0,0-4.12-.59l.33.45,1.4,1.93a.23.23,0,0,1,.06.22c0,.18-.27.29-.56.29h-4.12Zm-9.33-5.23,5.73,4.25,3.09-4.25Zm10.78,2-1.11-1.51-3,4.06h1.53A3.76,3.76,0,0,1,236.87,297.88Zm-1.43,2.55h3.28l-1.38-1.9A3,3,0,0,0,235.44,300.43Z" transform="translate(-65.1 -70.99)"/><path class="cls-18" d="M217.55,323.78a1.7,1.7,0,0,1,0-.22,2.75,2.75,0,0,1,.74-1.39,5.74,5.74,0,0,1,3.32-1.54,7.54,7.54,0,0,1,2.37,0c.06,0,.08,0,.1,0,.66-1.2,1.31-2.4,2-3.6a1.6,1.6,0,0,1,1.31-.72h2.07v.7h-1.79c-.32,0-.49.08-.6.27l-.59,1.07,0,.05h8.88a.12.12,0,0,0,.11,0l.44-.6,0-.06h-1.57a.56.56,0,0,1-.5-.22.27.27,0,0,1,.13-.38.7.7,0,0,1,.38-.1h4.07v.7h-1.27a.1.1,0,0,0-.09,0c-.23.33-.47.65-.71,1a.06.06,0,0,0,0,.06c.48.65,1,1.31,1.43,2l0,0,.49-.1a8.3,8.3,0,0,1,1.8-.08,6.57,6.57,0,0,1,3.35,1.09,3.11,3.11,0,0,1,1.29,1.68c.33,1.24-.2,2.31-1.6,3.18a6.33,6.33,0,0,1-2.74.87l-.48,0h-.73c-.28,0-.58-.05-.86-.09a6,6,0,0,1-2.88-1.19,3,3,0,0,1-1.11-1.66,1.29,1.29,0,0,1,0-.19H232a.85.85,0,0,1-.51-.15l-.91-.68-2.42-1.8-2.11-1.57-.4-.29-.58,1.07h0l.07,0c1.64.56,2.62,1.44,2.89,2.64a2.12,2.12,0,0,1-.09,1.22,3.9,3.9,0,0,1-2.39,2.16,7.09,7.09,0,0,1-2.1.48l-.35,0h-.66c-.27,0-.55,0-.81-.08a5.63,5.63,0,0,1-3.4-1.63,2.55,2.55,0,0,1-.67-1.3,2,2,0,0,1,0-.24Zm7.16-2.23,0,.05-1,1.8-.35.64a.63.63,0,0,1-.65.23c-.31-.06-.45-.26-.34-.47l1.34-2.44,0-.05c-2-.28-4.17.42-4.87,1.85s.47,2.91,2.61,3.4,4.49-.22,5.29-1.62S226.54,322.15,224.71,321.55Zm10.71,2.74c.13.94,1.2,2,3.09,2.33a5.25,5.25,0,0,0,4.75-1.34c.91-1.09.56-2.46-.83-3.3a5.93,5.93,0,0,0-4.12-.59l.33.45c.47.65.94,1.29,1.4,1.94a.22.22,0,0,1,.06.21c0,.18-.27.3-.56.3h-4.12Zm-9.33-5.23,5.73,4.25,3.09-4.25Zm10.78,2-1.11-1.52-3,4.07h1.53A3.74,3.74,0,0,1,236.87,321Zm-1.43,2.55h3.28l-1.38-1.91A3,3,0,0,0,235.44,323.58Z" transform="translate(-65.1 -70.99)"/><path class="cls-18" d="M216.84,354.49a1.7,1.7,0,0,0,0-.22,2.7,2.7,0,0,1,.75-1.38,5.65,5.65,0,0,1,3.32-1.55,7.54,7.54,0,0,1,2.37,0c.06,0,.08,0,.09,0,.66-1.2,1.32-2.4,2-3.6a1.6,1.6,0,0,1,1.3-.72h2.08v.7H227a.61.61,0,0,0-.6.27c-.19.36-.39.72-.59,1.07,0,0,0,0,0,.05h8.88a.11.11,0,0,0,.1,0l.44-.6,0-.05h-1.58a.59.59,0,0,1-.5-.22.28.28,0,0,1,.14-.39.67.67,0,0,1,.38-.09h4.06v.7h-1.26a.11.11,0,0,0-.09,0l-.71,1a.06.06,0,0,0,0,.06c.47.66,1,1.31,1.43,2l0,0,.49-.09a7.77,7.77,0,0,1,1.8-.09,6.5,6.5,0,0,1,3.35,1.09,3.08,3.08,0,0,1,1.3,1.68c.33,1.24-.21,2.31-1.6,3.18a6.37,6.37,0,0,1-2.74.87l-.48,0h-.73l-.87-.09a5.89,5.89,0,0,1-2.87-1.19,3,3,0,0,1-1.12-1.66,1.62,1.62,0,0,0,0-.19h-2.29a.85.85,0,0,1-.51-.15l-.91-.68-2.42-1.79-2.12-1.58-.39-.29-.59,1.07h0l.06,0c1.65.57,2.63,1.44,2.9,2.64a2.12,2.12,0,0,1-.09,1.22,3.9,3.9,0,0,1-2.39,2.16,7.15,7.15,0,0,1-2.11.48l-.34,0h-.67c-.27,0-.54,0-.8-.08a5.61,5.61,0,0,1-3.4-1.63,2.55,2.55,0,0,1-.67-1.3c0-.08,0-.16,0-.23Zm7.16-2.22,0,0c-.32.6-.65,1.2-1,1.8l-.36.64a.61.61,0,0,1-.64.23c-.31-.06-.46-.26-.34-.47l1.33-2.43,0-.05c-2-.29-4.18.41-4.88,1.84s.48,2.91,2.61,3.4,4.5-.22,5.3-1.61S225.83,352.86,224,352.27ZM234.72,355c.13.95,1.2,2,3.09,2.33a5.27,5.27,0,0,0,4.75-1.33c.91-1.1.56-2.47-.83-3.3a5.84,5.84,0,0,0-4.12-.59l.33.44c.46.65.93,1.29,1.4,1.94a.25.25,0,0,1,.06.21c-.06.19-.27.3-.56.3h-4.12Zm-9.34-5.23,5.74,4.26,3.09-4.26Zm10.78,2-1.11-1.52-3,4.07h1.52A3.78,3.78,0,0,1,236.16,351.74Zm-1.43,2.55H238l-1.39-1.9A3,3,0,0,0,234.73,354.29Z" transform="translate(-65.1 -70.99)"/><path class="cls-18" d="M198.2,376.57l-.12-.21a2.25,2.25,0,0,1-.31-1.46,3.21,3.21,0,0,1,1.85-2.36,6.41,6.41,0,0,1,2.11-.71c.06,0,.07,0,.06-.06-.26-1.26-.52-2.52-.77-3.79-.09-.42.14-.76.65-1l.17-.07,1.62-.55h0l.49.62-.08,0-1.52.51c-.28.09-.38.21-.33.42.07.38.15.75.23,1.13a.11.11,0,0,0,0,.05l.07,0,7.82-2.63s.06,0,.06-.07c0-.22,0-.44,0-.66a.13.13,0,0,1,0-.06l-.08,0-1.32.45a.73.73,0,0,1-.6-.05.28.28,0,0,1-.15-.38.48.48,0,0,1,.27-.2l3.55-1.19.06,0,.49.63-.06,0-1.06.35s0,0,0,.07c0,.35,0,.71.06,1.07a.06.06,0,0,0,0,.06l2.66,1.32,0,0c.12-.08.24-.16.37-.23a5.91,5.91,0,0,1,1.54-.62,7.88,7.88,0,0,1,3.74,0,5.49,5.49,0,0,1,2.34,1.11,2.49,2.49,0,0,1,.81,3.3,3.8,3.8,0,0,1-1.82,1.59l-.4.18-.05,0-.52.18H220c-.28.06-.55.14-.83.19a7.73,7.73,0,0,1-3.39-.2,5.3,5.3,0,0,1-2.16-1.14l-.18-.16-.07,0-2,.66a1,1,0,0,1-.56,0l-1.29-.33-3.41-.87-3-.76-.56-.14.23,1.12h.1a6.39,6.39,0,0,1,4.43,1.47,2.9,2.9,0,0,1,.78,1.11,2.43,2.43,0,0,1-.6,2.64A4.61,4.61,0,0,1,206,378l-.29.13-.53.18h-.07c-.25.06-.51.13-.77.17a7.71,7.71,0,0,1-4.17-.42,4.77,4.77,0,0,1-1.51-1l-.2-.19Zm4.79-4.13s0,0,0,.06l.39,1.89c.05.22.09.45.14.67s-.14.36-.42.4-.59-.1-.63-.32c-.18-.85-.35-1.71-.53-2.56,0,0,0,0,0-.05-1.95.34-3.42,1.61-3,3.1s2.47,2.44,4.71,2.24,3.84-1.55,3.57-3S205,372.42,203,372.44Zm11.45-.78a5.3,5.3,0,0,0,4.38,1.15c1.89-.28,3.24-1.35,3.28-2.61s-1.24-2.36-3.06-2.68a5.61,5.61,0,0,0-4.08.71l.61.3,2.61,1.29a.4.4,0,0,1,.2.18c.08.18,0,.34-.28.43l-3.58,1.2Zm-12-1.85,8.09,2.07-.25-4.71Zm11-1.48-2.06-1,.25,4.5,1.35-.46A2.47,2.47,0,0,1,213.42,368.33ZM214,371l2.91-1-2.57-1.27A1.93,1.93,0,0,0,214,371Z" transform="translate(-65.1 -70.99)"/><path class="cls-18" d="M163.27,354.94c0-.07-.05-.15-.08-.22a2.18,2.18,0,0,1,0-1.47,3.88,3.88,0,0,1,2.37-2.16,7.05,7.05,0,0,1,2.25-.5c.06,0,.07,0,.07,0,0-1.27,0-2.55.09-3.82,0-.43.31-.75.87-1l.18-.05,1.73-.39h0l.35.66-.08,0-1.62.36c-.3.07-.42.18-.43.39l0,1.13s0,0,0,.05h.07l8.33-1.86c.05,0,.07,0,.07-.06l.12-.66s0,0,0-.06l-.08,0-1.41.31a.7.7,0,0,1-.58-.1.27.27,0,0,1-.07-.4.66.66,0,0,1,.31-.17l3.78-.84h.07l.35.66h-.07l-1.13.26s-.06,0-.07.05l-.18,1.07a.07.07,0,0,0,0,.06l2.33,1.56,0,0,.42-.19a6.65,6.65,0,0,1,1.66-.46,7.7,7.7,0,0,1,3.71.33,4.57,4.57,0,0,1,2.06,1.32,2.38,2.38,0,0,1,.06,3.34,4.55,4.55,0,0,1-2.16,1.4l-.43.14-.06,0-.56.12h-.07c-.29,0-.57.08-.86.1a7.54,7.54,0,0,1-3.31-.51,4.57,4.57,0,0,1-1.88-1.34l-.14-.17h-.08l-2.09.47a.94.94,0,0,1-.55,0l-1.2-.45-3.18-1.19-2.79-1-.51-.19,0,1.13H169a5.63,5.63,0,0,1,4.05,1.89,2.36,2.36,0,0,1,.52,1.17,2.69,2.69,0,0,1-1.18,2.55,5.51,5.51,0,0,1-1.76.9l-.31.09-.57.13h-.06c-.27,0-.54.08-.81.09a7.2,7.2,0,0,1-4-.82,3.85,3.85,0,0,1-1.28-1.09l-.16-.21Zm5.66-3.62v.05c0,.64,0,1.27,0,1.91,0,.23,0,.45,0,.68s-.21.34-.5.35-.56-.15-.55-.37c0-.86,0-1.72.05-2.59v-.05c-2,.15-3.74,1.27-3.69,2.78s1.89,2.65,4.16,2.66,4.14-1.16,4.2-2.64S171,351.49,168.93,351.32Zm11.5.32a4.76,4.76,0,0,0,4.08,1.56c1.93-.09,3.51-1,3.83-2.27s-.7-2.45-2.43-2.95a6,6,0,0,0-4.19.31l.54.36,2.29,1.53a.4.4,0,0,1,.16.19c0,.19-.11.34-.38.4l-3.81.85Zm-11.43-3,7.53,2.81.82-4.68Zm11.17-.42-1.8-1.2-.77,4.47,1.44-.32A2.67,2.67,0,0,1,180.17,348.25Zm-.08,2.72,3.11-.7-2.26-1.5A2.08,2.08,0,0,0,180.09,351Z" transform="translate(-65.1 -70.99)"/><path class="cls-18" d="M158.09,325.23,158,325a2.18,2.18,0,0,1,0-1.47,3.89,3.89,0,0,1,2.36-2.16,6.85,6.85,0,0,1,2.25-.5c.06,0,.07,0,.07-.05,0-1.28,0-2.55.08-3.82,0-.43.31-.75.88-1a1.27,1.27,0,0,1,.18-.06l1.73-.39h0l.34.66-.08,0-1.61.36c-.3.07-.43.18-.43.39l0,1.14a.43.43,0,0,1,0,0l.07,0,8.32-1.86c.05,0,.07,0,.08-.06l.12-.66v-.06h-.08l-1.41.32a.71.71,0,0,1-.58-.1.27.27,0,0,1-.07-.4.65.65,0,0,1,.32-.17l3.78-.84.06,0,.35.67h-.07l-1.12.25s-.07,0-.07.06l-.18,1.07s0,0,0,.06l2.34,1.56,0,0,.41-.19a6.47,6.47,0,0,1,1.66-.46,7.63,7.63,0,0,1,3.72.32A4.64,4.64,0,0,1,183.6,319a2.4,2.4,0,0,1,.07,3.35,4.6,4.6,0,0,1-2.16,1.4l-.43.14-.06,0-.56.12h-.07c-.29,0-.57.08-.86.1a7.4,7.4,0,0,1-3.31-.51,4.49,4.49,0,0,1-1.88-1.33l-.14-.18-.08,0-2.09.47a1,1,0,0,1-.55,0l-1.21-.45L167.09,321l-2.78-1-.52-.19,0,1.14h.1a5.6,5.6,0,0,1,4,1.88,2.47,2.47,0,0,1,.53,1.17,2.7,2.7,0,0,1-1.19,2.55,5.36,5.36,0,0,1-1.75.9l-.31.1-.57.13h-.07c-.26,0-.53.08-.8.1a7.18,7.18,0,0,1-4-.82,3.89,3.89,0,0,1-1.29-1.09l-.15-.21Zm5.66-3.63s0,0,0,.06l0,1.9c0,.23,0,.46,0,.69s-.21.34-.5.35-.56-.15-.55-.38c0-.86,0-1.72.05-2.58v-.05c-2,.15-3.75,1.27-3.69,2.78s1.9,2.65,4.16,2.66,4.14-1.17,4.21-2.65S165.77,321.78,163.75,321.6Zm11.49.32a4.82,4.82,0,0,0,4.09,1.55c1.93-.09,3.5-1,3.82-2.27s-.7-2.45-2.43-2.95a6,6,0,0,0-4.19.32l.54.35,2.29,1.53a.38.38,0,0,1,.16.2c0,.18-.1.33-.38.39l-3.81.86Zm-11.43-3,7.54,2.81.8-4.68Zm11.17-.42-1.8-1.2-.77,4.47,1.44-.32A2.67,2.67,0,0,1,175,318.53Zm-.08,2.71,3.11-.69L175.75,319A2.11,2.11,0,0,0,174.9,321.24Z" transform="translate(-65.1 -70.99)"/><path class="cls-18" d="M122.68,308.15l-.06-.22a2.25,2.25,0,0,1,.07-1.47,4,4,0,0,1,2.45-2.12,7.15,7.15,0,0,1,2.26-.46c.07,0,.08,0,.08-.05.07-1.28.15-2.55.23-3.82,0-.43.34-.74.91-.95l.19-.05,1.74-.36h0l.32.67-.08,0-1.63.33c-.31.06-.43.17-.45.38,0,.38,0,.76-.07,1.14v.05l.08,0,8.39-1.72c.05,0,.07,0,.08-.06,0-.22.1-.44.14-.66a.13.13,0,0,0,0-.06l-.08,0-1.42.29a.74.74,0,0,1-.58-.11.26.26,0,0,1-.05-.4.57.57,0,0,1,.32-.16l3.81-.78.07,0,.32.67h-.07l-1.13.24c-.05,0-.07,0-.07,0-.08.36-.15.71-.23,1.07a.09.09,0,0,0,0,.06l2.27,1.6,0,0,.42-.19a6.9,6.9,0,0,1,1.68-.43,7.65,7.65,0,0,1,3.7.39,4.53,4.53,0,0,1,2,1.34,2.4,2.4,0,0,1-.06,3.35,4.77,4.77,0,0,1-2.21,1.36l-.44.13-.06,0-.56.12H145c-.29,0-.57.07-.86.08a7.42,7.42,0,0,1-3.29-.56,4.38,4.38,0,0,1-1.83-1.37c0-.06-.09-.11-.13-.18l-.08,0-2.11.43a.86.86,0,0,1-.55,0l-1.19-.47-3.13-1.23L129.11,303l-.51-.2-.07,1.13h.09a5.48,5.48,0,0,1,4,1.95,2.38,2.38,0,0,1,.48,1.17,2.76,2.76,0,0,1-1.29,2.54,5.68,5.68,0,0,1-1.78.87l-.32.09-.57.12h-.07c-.27,0-.53.07-.8.09a7.16,7.16,0,0,1-4-.89,4,4,0,0,1-1.24-1.11l-.15-.22Zm5.8-3.53v.05c0,.64-.08,1.27-.11,1.91,0,.23,0,.46,0,.68s-.24.34-.52.34-.55-.16-.54-.38l.15-2.58v-.05c-2,.12-3.79,1.21-3.79,2.71s1.79,2.69,4.05,2.73,4.19-1.09,4.31-2.58S130.5,304.83,128.48,304.62Zm11.48.51a4.7,4.7,0,0,0,4,1.62c1.94-.06,3.55-1,3.92-2.21s-.61-2.46-2.32-3a6,6,0,0,0-4.2.25l.52.36,2.24,1.57a.36.36,0,0,1,.15.2c0,.18-.12.33-.4.39l-3.84.79ZM128.65,302l7.43,2.93,1-4.66Zm11.19-.24-1.76-1.22-.94,4.45,1.45-.3A2.72,2.72,0,0,1,139.84,301.73Zm-.19,2.72,3.13-.65-2.2-1.54A2.15,2.15,0,0,0,139.65,304.45Z" transform="translate(-65.1 -70.99)"/><path class="cls-18" d="M163.17,291.65a1.85,1.85,0,0,1,0-.23A2.65,2.65,0,0,1,164,290a5.68,5.68,0,0,1,3.32-1.55,7.85,7.85,0,0,1,2.37,0c.06,0,.08,0,.1,0,.66-1.2,1.31-2.4,2-3.59a1.6,1.6,0,0,1,1.3-.72l.2,0h1.88v.7h-1.79c-.32,0-.5.08-.6.28s-.4.71-.59,1.07l0,0H181c.05,0,.08,0,.1-.05l.44-.6a.1.1,0,0,0,0-.05H180a.58.58,0,0,1-.5-.22.28.28,0,0,1,.13-.39.79.79,0,0,1,.38-.09h4.07v.7h-1.27s-.07,0-.09,0l-.71,1a.06.06,0,0,0,0,.06l1.43,2,0,0,.49-.09a7.71,7.71,0,0,1,1.8-.09,6.5,6.5,0,0,1,3.34,1.1,3,3,0,0,1,1.3,1.68c.33,1.24-.2,2.3-1.6,3.17a6.37,6.37,0,0,1-2.74.87l-.48,0h-.73c-.29,0-.58,0-.86-.09a6,6,0,0,1-2.88-1.18,3,3,0,0,1-1.11-1.66,1.42,1.42,0,0,1,0-.2h-2.3a.79.79,0,0,1-.51-.15l-.91-.68-2.42-1.79L171.69,288l-.4-.29-.59,1.06h0l.06,0c1.65.57,2.63,1.44,2.9,2.65a2.1,2.1,0,0,1-.09,1.21,3.9,3.9,0,0,1-2.39,2.16,6.79,6.79,0,0,1-2.1.48l-.35,0h-.66c-.27,0-.55,0-.81-.08a5.55,5.55,0,0,1-3.4-1.63,2.51,2.51,0,0,1-.67-1.3,1.85,1.85,0,0,1,0-.23Zm7.16-2.23,0,.05-1,1.79-.35.65a.62.62,0,0,1-.65.22c-.31-.06-.46-.26-.34-.47l1.33-2.43,0-.05c-2-.28-4.17.41-4.87,1.84s.47,2.91,2.61,3.4,4.49-.22,5.29-1.61S172.16,290,170.33,289.42ZM181,292.15c.13,1,1.2,2,3.09,2.33a5.24,5.24,0,0,0,4.75-1.33c.91-1.09.56-2.47-.83-3.3a5.82,5.82,0,0,0-4.12-.59l.33.45,1.4,1.93a.26.26,0,0,1,.06.22c-.05.18-.27.29-.56.29H181Zm-9.33-5.23,5.73,4.26,3.09-4.26Zm10.78,2-1.12-1.51-3,4.06H180A3.76,3.76,0,0,1,182.49,288.89Zm-1.43,2.55h3.28l-1.39-1.9A3,3,0,0,0,181.06,291.44Z" transform="translate(-65.1 -70.99)"/><path class="cls-18" d="M117,270.26a1.7,1.7,0,0,0,0-.22,2.63,2.63,0,0,1,.75-1.38,5.65,5.65,0,0,1,3.31-1.55,7.6,7.6,0,0,1,2.38,0c.06,0,.07,0,.09,0l2-3.6a1.63,1.63,0,0,1,1.31-.72h2.08v.7h-1.8c-.32,0-.49.08-.6.27-.19.36-.39.72-.59,1.07,0,0,0,0,0,0h8.88a.11.11,0,0,0,.1,0l.44-.6,0-.06h-1.58a.56.56,0,0,1-.5-.22.27.27,0,0,1,.14-.38.65.65,0,0,1,.38-.1h4.06v.7H136.6s-.07,0-.09,0c-.24.33-.48.65-.71,1a0,0,0,0,0,0,.06c.47.66.95,1.31,1.43,2l0,0,.49-.1a8.3,8.3,0,0,1,1.8-.08,6.5,6.5,0,0,1,3.35,1.09,3.08,3.08,0,0,1,1.3,1.68c.33,1.24-.21,2.31-1.6,3.18a6.41,6.41,0,0,1-2.74.87l-.48,0h-.73c-.29,0-.58,0-.87-.09a5.89,5.89,0,0,1-2.87-1.19,2.94,2.94,0,0,1-1.12-1.66,1.62,1.62,0,0,0,0-.19h-2.29a.83.83,0,0,1-.51-.15l-.91-.68-2.42-1.8-2.12-1.57-.39-.29-.59,1.07h0l.07,0c1.65.56,2.63,1.44,2.9,2.64a2.12,2.12,0,0,1-.09,1.22A4,4,0,0,1,125,273.4a7.15,7.15,0,0,1-2.11.48l-.34,0h-.67c-.27,0-.54,0-.81-.08a5.61,5.61,0,0,1-3.39-1.63,2.65,2.65,0,0,1-.68-1.3,2,2,0,0,0,0-.24Zm7.16-2.23,0,.05-1,1.8-.36.64a.62.62,0,0,1-.65.23c-.3-.06-.45-.26-.33-.47l1.33-2.44,0,0c-2-.29-4.18.41-4.88,1.84s.47,2.91,2.61,3.4,4.5-.22,5.3-1.62S126,268.63,124.13,268Zm10.72,2.74c.13.94,1.19,2,3.08,2.33a5.27,5.27,0,0,0,4.76-1.34c.91-1.09.56-2.46-.83-3.3a5.94,5.94,0,0,0-4.12-.59l.32.45,1.41,1.94a.25.25,0,0,1,.06.21.55.55,0,0,1-.56.3h-4.12Zm-9.34-5.23,5.73,4.25,3.1-4.25Zm10.78,2L135.18,266l-3,4.07h1.52A3.76,3.76,0,0,1,136.29,267.51Zm-1.43,2.55h3.29l-1.39-1.91A3,3,0,0,0,134.86,270.06Z" transform="translate(-65.1 -70.99)"/><path class="cls-18" d="M118.57,233.29a2.07,2.07,0,0,0,0-.22,2.7,2.7,0,0,1,.75-1.39,5.71,5.71,0,0,1,3.31-1.55,7.85,7.85,0,0,1,2.37,0c.06,0,.08,0,.1,0l2-3.6a1.62,1.62,0,0,1,1.31-.72h2.08v.69h-1.8c-.32,0-.49.08-.6.28l-.59,1.07s0,0,0,.05h8.88a.11.11,0,0,0,.1,0l.44-.6,0-.06h-1.58a.58.58,0,0,1-.5-.22.28.28,0,0,1,.14-.39.74.74,0,0,1,.38-.09h4.06v.7H138.2s-.07,0-.09,0l-.71,1s0,0,0,.06l1.43,2s0,0,0,0l.49-.09a7.21,7.21,0,0,1,1.8-.08,6.44,6.44,0,0,1,3.35,1.09,3.08,3.08,0,0,1,1.3,1.68c.33,1.24-.21,2.31-1.61,3.18a6.46,6.46,0,0,1-2.73.87l-.48,0h-.73c-.29,0-.58,0-.87-.09a6,6,0,0,1-2.87-1.18,3,3,0,0,1-1.12-1.66c0-.06,0-.13,0-.19h-.09c-.73,0-1.47,0-2.2,0a.81.81,0,0,1-.51-.15l-.91-.68-2.42-1.8-2.12-1.57-.39-.29-.59,1.07h0l.07,0c1.64.56,2.62,1.44,2.9,2.64a2.09,2.09,0,0,1-.09,1.21,3.94,3.94,0,0,1-2.39,2.17,6.85,6.85,0,0,1-2.11.47l-.34,0h-.67a7.4,7.4,0,0,1-.81-.08,5.6,5.6,0,0,1-3.4-1.62,2.7,2.7,0,0,1-.67-1.31,2.23,2.23,0,0,0,0-.23Zm7.16-2.23,0,.05c-.33.6-.66,1.2-1,1.8l-.36.64a.62.62,0,0,1-.65.22c-.3-.05-.45-.26-.34-.47l1.34-2.43a.08.08,0,0,0,0-.05c-2-.28-4.17.41-4.87,1.85s.47,2.91,2.61,3.4,4.5-.23,5.3-1.62S127.56,231.65,125.73,231.06Zm10.72,2.74c.13.94,1.19,2,3.08,2.33a5.24,5.24,0,0,0,4.75-1.34c.91-1.09.56-2.47-.82-3.3a5.94,5.94,0,0,0-4.12-.59l.32.45,1.41,1.93a.23.23,0,0,1,.05.22c-.05.18-.26.3-.55.3h-4.12Zm-9.34-5.23,5.73,4.25,3.09-4.25Zm10.78,2L136.78,229l-2.95,4.07h1.52A3.77,3.77,0,0,1,137.89,230.53Zm-1.43,2.55h3.29l-1.39-1.9A3,3,0,0,0,136.46,233.08Z" transform="translate(-65.1 -70.99)"/><path class="cls-18" d="M143,198.77l.11-.21a3.48,3.48,0,0,1,1.21-1.24,6.9,6.9,0,0,1,3.76-1,7.35,7.35,0,0,1,2.31.36c.06,0,.08,0,.11,0q1.58-1.62,3.17-3.22a2,2,0,0,1,1.52-.51l.2,0,1.78.27h.05l-.24.68h-.09l-1.66-.25a.71.71,0,0,0-.68.18l-.94,1,0,0h.07l8.58,1.3c.05,0,.08,0,.11,0l.64-.52.05-.05h-.08l-1.45-.22a.45.45,0,0,1-.41-.29c0-.14.07-.28.26-.36a.9.9,0,0,1,.4,0l3.9.59h.06l-.24.68h-.07l-1.16-.18s-.07,0-.1,0l-1,.84s0,0,0,.06c.24.71.48,1.42.71,2.13l0,0,.51,0a8.09,8.09,0,0,1,1.78.19A5.21,5.21,0,0,1,169,200.5a2.45,2.45,0,0,1,.69,1.83c-.11,1.26-1,2.22-2.66,2.86a7.44,7.44,0,0,1-3,.45l-.48,0h-.07l-.57-.09-.07,0c-.27-.07-.55-.12-.81-.21a4.69,4.69,0,0,1-2.39-1.58,2.34,2.34,0,0,1-.52-1.78l0-.19h-.08l-2.15-.33a.67.67,0,0,1-.45-.22l-.65-.79-1.74-2.11-1.52-1.84c-.09-.11-.18-.23-.28-.34l-.94.95h0l0,0c1.41.79,2.07,1.79,1.91,3a2.42,2.42,0,0,1-.5,1.17,5.13,5.13,0,0,1-3.08,1.76,7.82,7.82,0,0,1-2.22.16l-.34,0-.59-.09-.06,0c-.25-.06-.51-.11-.76-.19a4.31,4.31,0,0,1-2.74-2.09,2.16,2.16,0,0,1-.21-1.36c0-.08,0-.16,0-.24Zm7.74-1.12,0,0-1.59,1.6-.56.58a.71.71,0,0,1-.71.12c-.28-.1-.35-.32-.17-.51l2.14-2.17,0,0c-1.81-.56-4.2-.21-5.38,1.09s-.55,2.9,1.37,3.69a5.68,5.68,0,0,0,5.72-.8C152.8,200,152.32,198.5,150.74,197.65Zm9.5,4.24c-.2.94.47,2.13,2.2,2.73a5.87,5.87,0,0,0,5.09-.61,2,2,0,0,0,.33-3.34,5.26,5.26,0,0,0-3.81-1.18c.06.17.11.33.16.49l.71,2.09a.28.28,0,0,1,0,.22.67.67,0,0,1-.65.21l-3.92-.6ZM153,195.43l4.11,5,4.48-3.69Zm9.82,3.49-.56-1.63-4.28,3.52,1.48.23A5,5,0,0,1,162.77,198.92Zm-2.27,2.28,3.2.48-.7-2.06A3.94,3.94,0,0,0,160.5,201.2Z" transform="translate(-65.1 -70.99)"/><path class="cls-18" d="M164.13,176.08l.14-.2a4.1,4.1,0,0,1,1.38-1.16,7.66,7.66,0,0,1,6.14-.29c.06,0,.08,0,.11,0l3.63-3a2.09,2.09,0,0,1,1.59-.41l.19,0,1.74.38h0l-.34.66h-.09l-1.62-.36a.76.76,0,0,0-.7.14l-1.08.89,0,0h.07l8.35,1.82a.13.13,0,0,0,.12,0l.7-.48.07,0-.09,0-1.41-.31a.42.42,0,0,1-.37-.31c0-.14.12-.28.32-.34a.81.81,0,0,1,.41,0l3.78.83h.07l-.34.67-.07,0-1.13-.25a.12.12,0,0,0-.1,0l-1.15.78a.07.07,0,0,0,0,.06c.13.72.27,1.44.4,2.16,0,0,0,0,0,0l.51,0a7.2,7.2,0,0,1,1.75.29,4.71,4.71,0,0,1,2.64,1.73,2.23,2.23,0,0,1,.42,1.86c-.29,1.24-1.32,2.14-3.06,2.68a7.66,7.66,0,0,1-3,.26l-.47-.07h-.07L183,184l-.07,0c-.26-.08-.53-.16-.78-.26A4.22,4.22,0,0,1,180,182a2.28,2.28,0,0,1-.25-1.81l.06-.19-.09,0-2.09-.46a.6.6,0,0,1-.41-.24l-.54-.83-1.42-2.21c-.41-.64-.83-1.28-1.24-1.93-.08-.11-.15-.23-.23-.35l-1.08.89h0l.05,0c1.29.88,1.79,1.91,1.47,3.11a2.64,2.64,0,0,1-.68,1.13,5.72,5.72,0,0,1-3.32,1.56,7.93,7.93,0,0,1-2.23,0l-.34-.05-.57-.12-.05,0c-.25-.08-.5-.15-.73-.24a3.85,3.85,0,0,1-2.43-2.25,2.14,2.14,0,0,1,0-1.37,1.55,1.55,0,0,1,.08-.23Zm7.87-.63-.05,0-1.81,1.5-.65.54a.71.71,0,0,1-.72.07c-.27-.11-.31-.34-.1-.51l2.45-2,0,0a5.71,5.71,0,0,0-5.52.74c-1.34,1.2-1,2.86.83,3.76a5.8,5.8,0,0,0,5.8-.43C173.7,178,173.45,176.39,172,175.45Zm8.83,4.81c-.33.92.16,2.15,1.8,2.85a6,6,0,0,0,5.15-.29c1.4-.85,1.73-2.23.82-3.3a4.84,4.84,0,0,0-3.62-1.41l.09.49c.13.71.26,1.42.4,2.13a.25.25,0,0,1-.06.21.68.68,0,0,1-.67.17l-3.82-.84Zm-6.31-6.89,3.37,5.22,5-3.4Zm9.27,4.09-.32-1.67L178.69,179l1.45.32A5.5,5.5,0,0,1,183.79,177.46Zm-2.6,2.12,3.12.68-.39-2.09A4.4,4.4,0,0,0,181.19,179.58Z" transform="translate(-65.1 -70.99)"/><path class="cls-18" d="M268.88,329.36c0-.07,0-.15,0-.22a2.7,2.7,0,0,1,.75-1.39A5.68,5.68,0,0,1,273,326.2a7.85,7.85,0,0,1,2.37,0c.06,0,.08,0,.1,0l2-3.6a1.6,1.6,0,0,1,1.31-.72h2.07v.69H279c-.32,0-.49.08-.6.28l-.59,1.07s0,0,0,.05h8.87a.12.12,0,0,0,.11,0l.44-.6,0-.06h-1.57a.58.58,0,0,1-.5-.22.28.28,0,0,1,.13-.39.79.79,0,0,1,.38-.09h4.07v.7H288.5a.1.1,0,0,0-.09,0l-.71,1a.09.09,0,0,0,0,.07l1.44,2,0,0,.49-.09a7.21,7.21,0,0,1,1.8-.08,6.47,6.47,0,0,1,3.35,1.09,3.06,3.06,0,0,1,1.29,1.68c.33,1.24-.2,2.31-1.6,3.18a6.46,6.46,0,0,1-2.74.87l-.48,0h-.72c-.29,0-.59,0-.87-.08a6.09,6.09,0,0,1-2.87-1.19,3,3,0,0,1-1.12-1.66,1.29,1.29,0,0,1,0-.19h-2.29a.81.81,0,0,1-.51-.15l-.92-.68-2.42-1.8-2.11-1.57-.4-.29-.58,1.07h0l.07,0c1.64.56,2.62,1.44,2.89,2.64a2.09,2.09,0,0,1-.08,1.21,3.93,3.93,0,0,1-2.4,2.17,7.09,7.09,0,0,1-2.1.48l-.35,0h-.66c-.27,0-.55,0-.81-.07a5.63,5.63,0,0,1-3.4-1.63,2.54,2.54,0,0,1-.67-1.31c0-.07,0-.15,0-.23Zm7.16-2.23,0,.05-1,1.8-.35.64a.62.62,0,0,1-.65.22c-.31,0-.45-.26-.34-.47l1.34-2.43s0,0,0-.05c-2-.28-4.17.41-4.87,1.85s.47,2.91,2.61,3.4,4.49-.23,5.3-1.62S277.87,327.72,276,327.13Zm10.71,2.74c.13.94,1.2,2,3.09,2.33a5.24,5.24,0,0,0,4.75-1.34c.91-1.09.56-2.46-.83-3.3a5.93,5.93,0,0,0-4.12-.59l.33.45,1.41,1.93a.25.25,0,0,1,.05.22.53.53,0,0,1-.55.3h-4.13Zm-9.33-5.23,5.73,4.25,3.09-4.25Zm10.78,2-1.11-1.51-3,4.07h1.53A3.75,3.75,0,0,1,288.2,326.6Zm-1.43,2.55h3.28l-1.38-1.9A3,3,0,0,0,286.77,329.15Z" transform="translate(-65.1 -70.99)"/><path class="cls-18" d="M266.22,360.07a1.7,1.7,0,0,0,0-.22,2.7,2.7,0,0,1,.75-1.39,5.71,5.71,0,0,1,3.31-1.54,7.6,7.6,0,0,1,2.38,0c.06,0,.07,0,.09,0l2-3.6a1.63,1.63,0,0,1,1.31-.72h2.08v.7h-1.8c-.32,0-.49.08-.6.27-.19.36-.39.71-.59,1.07l0,0H284a.11.11,0,0,0,.1,0l.44-.6,0-.06H283a.56.56,0,0,1-.5-.22.27.27,0,0,1,.14-.38.65.65,0,0,1,.38-.1h4.06v.7h-1.26c-.05,0-.07,0-.09,0-.24.33-.48.65-.71,1a0,0,0,0,0,0,.06l1.43,2,0,0,.49-.1a7.71,7.71,0,0,1,1.8-.08,6.53,6.53,0,0,1,3.35,1.09,3.08,3.08,0,0,1,1.3,1.68c.33,1.24-.21,2.31-1.6,3.18a6.55,6.55,0,0,1-2.74.87l-.48,0h-.73c-.29,0-.58,0-.87-.08a5.89,5.89,0,0,1-2.87-1.19,2.94,2.94,0,0,1-1.12-1.66,1.29,1.29,0,0,0,0-.19H280.7a.83.83,0,0,1-.51-.15l-.91-.68-2.42-1.8-2.12-1.57-.39-.29-.59,1.07h0l.07,0c1.65.56,2.63,1.44,2.9,2.64a2.12,2.12,0,0,1-.09,1.22,4,4,0,0,1-2.39,2.16,7.15,7.15,0,0,1-2.11.48l-.34,0h-.67c-.27,0-.54,0-.81-.07a5.61,5.61,0,0,1-3.39-1.63,2.65,2.65,0,0,1-.68-1.3,2,2,0,0,0,0-.24Zm7.16-2.23,0,.05-1,1.8-.36.64a.62.62,0,0,1-.65.23c-.3-.06-.45-.27-.33-.47.44-.82.89-1.63,1.33-2.44l0,0c-2-.28-4.18.41-4.88,1.85s.47,2.91,2.61,3.4,4.5-.22,5.3-1.62S275.21,358.44,273.38,357.84Zm10.72,2.74c.13.94,1.19,2,3.08,2.33a5.27,5.27,0,0,0,4.76-1.34c.91-1.09.56-2.46-.83-3.3a5.94,5.94,0,0,0-4.12-.59l.32.45,1.41,1.94a.21.21,0,0,1,0,.21c0,.18-.26.3-.55.3H284.1Zm-9.34-5.23,5.73,4.25,3.1-4.25Zm10.78,2-1.11-1.52-2.95,4.07H283A3.76,3.76,0,0,1,285.54,357.32Zm-1.43,2.55h3.29L286,358A3,3,0,0,0,284.11,359.87Z" transform="translate(-65.1 -70.99)"/><path class="cls-18" d="M294.62,366l.28-.13a6.73,6.73,0,0,1,2.07-.58,7.61,7.61,0,0,1,4,.56,4.48,4.48,0,0,1,1.59,1.14s.05,0,.1,0l5.41-1.47a2.36,2.36,0,0,1,1.7.14l.15.09,1.23.88,0,0-.79.47-.06,0-1.15-.82a.76.76,0,0,0-.71-.1l-1.61.43-.07,0,.05,0,5.93,4.24s.06,0,.11,0l1-.19.09,0-.06,0-1-.72a.25.25,0,0,1-.09-.39.61.61,0,0,1,.53-.19.6.6,0,0,1,.36.12l2.69,1.92.05,0-.79.47-.05,0-.8-.57a.14.14,0,0,0-.11,0l-1.58.32a.08.08,0,0,0-.07,0c-.43.67-.85,1.34-1.27,2l0,0,.44.18a4.85,4.85,0,0,1,1.31.81,2.61,2.61,0,0,1,1,2.35,2.74,2.74,0,0,1-1,1.75,6.55,6.55,0,0,1-4.68,1.37,6.7,6.7,0,0,1-2.84-.73l-.36-.21,0,0-.4-.29s0,0,0,0c-.16-.16-.34-.31-.48-.47a2.42,2.42,0,0,1-.6-2.19,2.93,2.93,0,0,1,1.13-1.65l.19-.15,0-.05-1.49-1.06a.34.34,0,0,1-.18-.34c.06-.3.11-.6.16-.9.13-.79.27-1.58.4-2.38l.36-2.07.06-.39-1.6.44h0l0,.05a2.56,2.56,0,0,1-1,3.17,5.08,5.08,0,0,1-1.44.78,7.74,7.74,0,0,1-4.06.3,6.29,6.29,0,0,1-2-.69l-.26-.15-.4-.29,0,0c-.15-.15-.32-.29-.45-.45a2.38,2.38,0,0,1-.45-2.73,3.22,3.22,0,0,1,1-1.2l.23-.18ZM302,367.9h-.08l-2.7.74-1,.26a.66.66,0,0,1-.69-.16c-.14-.19,0-.39.31-.48l3.65-1,.08,0a5.5,5.5,0,0,0-5.38-1.1c-2.07.62-3,2.19-2.09,3.55s3.28,2,5.4,1.46S302.53,369.18,302,367.9Zm4.12,7a2,2,0,0,0-.56,3.06,5.18,5.18,0,0,0,4.71,1.39c1.85-.3,3.17-1.4,3.18-2.63a2.8,2.8,0,0,0-2.1-2.38l-.29.46-1.25,2a.38.38,0,0,1-.2.17.74.74,0,0,1-.71-.07l-2.72-1.94Zm-.37-8-1,5.63,6.91-1.38Zm5,6.52,1-1.56-6.6,1.32,1,.73A7.76,7.76,0,0,1,310.76,373.4Zm-3.86,1,2.22,1.58,1.22-1.95A6.14,6.14,0,0,0,306.9,374.43Z" transform="translate(-65.1 -70.99)"/><path class="cls-18" d="M323.33,348.21l.18-.2a4.67,4.67,0,0,1,1.58-1,7.56,7.56,0,0,1,4-.49,6.6,6.6,0,0,1,2.15.66.09.09,0,0,0,.11,0q2.06-1.36,4.13-2.71a2.24,2.24,0,0,1,1.65-.3l.19.05,1.66.5,0,0-.45.63-.08,0-1.55-.47a.76.76,0,0,0-.72.09l-1.23.8-.05,0,.07,0,8,2.43a.1.1,0,0,0,.12,0l.79-.42.07,0-.08,0-1.35-.41c-.21-.07-.32-.2-.31-.34s.16-.27.37-.32a.94.94,0,0,1,.41,0l3.62,1.1.06,0-.45.63-.07,0-1.08-.33a.14.14,0,0,0-.11,0l-1.27.69a.08.08,0,0,0,0,.06c0,.72,0,1.45,0,2.18v0l.5.05a6.64,6.64,0,0,1,1.69.42,4.13,4.13,0,0,1,2.32,1.91,2.15,2.15,0,0,1,.08,1.88c-.5,1.22-1.68,2-3.51,2.44a7.64,7.64,0,0,1-3.05,0l-.46-.1h-.06l-.53-.16-.06,0a7,7,0,0,1-.73-.32,3.58,3.58,0,0,1-1.84-1.87,2.24,2.24,0,0,1,.07-1.81l.09-.18-.08,0-2-.61a.5.5,0,0,1-.36-.27l-.39-.87-1-2.3-.9-2c-.05-.13-.11-.25-.16-.38l-1.23.81h0l.05,0a2.51,2.51,0,0,1,.91,3.19,3,3,0,0,1-.87,1.08,6.32,6.32,0,0,1-3.57,1.3,7.82,7.82,0,0,1-2.22-.15l-.33-.07-.54-.17-.06,0c-.22-.1-.47-.19-.68-.3a3.36,3.36,0,0,1-2-2.41,2.21,2.21,0,0,1,.24-1.37,1.51,1.51,0,0,0,.11-.22Zm7.93,0-.06,0-2.06,1.36-.74.48a.71.71,0,0,1-.73,0c-.24-.13-.24-.36,0-.51l2.79-1.84a.1.1,0,0,0,.05,0,5.87,5.87,0,0,0-5.61.33c-1.54,1.09-1.46,2.76.16,3.8a5.87,5.87,0,0,0,5.85,0C332.51,350.78,332.53,349.21,331.26,348.16Zm7.93,5.44c-.49.89-.22,2.15,1.28,3a6,6,0,0,0,5.17.1c1.54-.74,2.11-2.08,1.4-3.22a4.37,4.37,0,0,0-3.35-1.67v.49c0,.72,0,1.43,0,2.14a.25.25,0,0,1-.09.21.71.71,0,0,1-.69.12l-3.65-1.11Zm-5.06-7.31,2.43,5.43,5.56-3Zm8.49,4.75,0-1.67-5.32,2.86,1.38.42A6.2,6.2,0,0,1,342.62,351ZM339.67,353l3,.91,0-2.11A4.88,4.88,0,0,0,339.67,353Z" transform="translate(-65.1 -70.99)"/><path class="cls-18" d="M263.9,206.41a1.85,1.85,0,0,1,0-.23,2.61,2.61,0,0,1,.74-1.38,5.68,5.68,0,0,1,3.32-1.55,7.54,7.54,0,0,1,2.37,0c.06,0,.08,0,.1,0,.66-1.2,1.31-2.4,2-3.59a1.58,1.58,0,0,1,1.3-.73h2.08v.7H274c-.32,0-.5.08-.6.28l-.59,1.06,0,0h8.88a.11.11,0,0,0,.1,0l.44-.6a.1.1,0,0,0,0-.05h-1.57a.58.58,0,0,1-.5-.22.28.28,0,0,1,.13-.39.69.69,0,0,1,.38-.09h4.07v.7h-1.27a.11.11,0,0,0-.09,0c-.23.33-.47.65-.71,1a.06.06,0,0,0,0,.06c.48.66,1,1.31,1.43,2l0,0c.16,0,.32-.07.49-.09a7.71,7.71,0,0,1,1.8-.09,6.41,6.41,0,0,1,3.34,1.1,3,3,0,0,1,1.3,1.68c.33,1.24-.2,2.3-1.6,3.17a6.37,6.37,0,0,1-2.74.87l-.48,0h-.73c-.29,0-.58,0-.86-.09a6,6,0,0,1-2.88-1.18,3,3,0,0,1-1.11-1.66,1.42,1.42,0,0,1,0-.2h-2.3a.85.85,0,0,1-.51-.15l-.91-.68-2.42-1.79-2.11-1.58-.4-.29-.59,1.07h0l.06,0c1.65.57,2.63,1.44,2.9,2.64a2.12,2.12,0,0,1-.09,1.22,3.9,3.9,0,0,1-2.39,2.16,7.09,7.09,0,0,1-2.1.48l-.35,0h-.66c-.27,0-.55,0-.81-.08a5.55,5.55,0,0,1-3.4-1.63,2.55,2.55,0,0,1-.67-1.3,2.23,2.23,0,0,1,0-.23Zm7.16-2.23,0,0-1,1.8-.35.64a.61.61,0,0,1-.65.23c-.31-.06-.46-.26-.34-.47.44-.81.89-1.62,1.34-2.43a.08.08,0,0,1,0-.05c-2-.28-4.17.41-4.87,1.84s.47,2.91,2.61,3.4,4.49-.22,5.29-1.61S272.89,204.77,271.06,204.18Zm10.71,2.73c.13,1,1.2,2,3.09,2.33a5.24,5.24,0,0,0,4.75-1.33c.91-1.1.56-2.47-.83-3.3a5.82,5.82,0,0,0-4.12-.59l.33.45,1.4,1.93a.26.26,0,0,1,.06.22c-.05.18-.27.29-.56.29h-4.12Zm-9.33-5.23,5.73,4.26,3.09-4.26Zm10.78,2-1.12-1.52-3,4.07h1.53A3.74,3.74,0,0,1,283.22,203.65Zm-1.43,2.55h3.28l-1.39-1.9A3,3,0,0,0,281.79,206.2Z" transform="translate(-65.1 -70.99)"/><path class="cls-18" d="M302.11,198.09a1.7,1.7,0,0,1,0-.22,2.61,2.61,0,0,1,.74-1.38,5.65,5.65,0,0,1,3.32-1.55,7.85,7.85,0,0,1,2.37,0c.06,0,.08,0,.09,0,.66-1.2,1.32-2.4,2-3.6a1.6,1.6,0,0,1,1.3-.72H314v.7h-1.8a.61.61,0,0,0-.6.27c-.19.36-.39.72-.59,1.07,0,0,0,0,0,0h8.88a.11.11,0,0,0,.1,0l.44-.6,0-.05h-1.58a.57.57,0,0,1-.5-.22.27.27,0,0,1,.14-.38.67.67,0,0,1,.38-.1H323V192h-1.26c-.05,0-.07,0-.09,0l-.71,1a.06.06,0,0,0,0,.06l1.43,2s0,0,0,0l.49-.1a8.36,8.36,0,0,1,1.8-.08A6.5,6.5,0,0,1,328,196a3.08,3.08,0,0,1,1.3,1.68c.33,1.24-.21,2.31-1.6,3.18a6.37,6.37,0,0,1-2.74.87l-.48,0h-.73c-.29,0-.58,0-.86-.09a5.89,5.89,0,0,1-2.88-1.19,3,3,0,0,1-1.11-1.66c0-.06,0-.12-.05-.19h-2.29a.85.85,0,0,1-.51-.15l-.91-.68L312.74,196l-2.12-1.58-.39-.29-.59,1.07h0l.06,0c1.65.56,2.63,1.44,2.9,2.64a2.12,2.12,0,0,1-.09,1.22,3.9,3.9,0,0,1-2.39,2.16,7.15,7.15,0,0,1-2.11.48l-.34,0H307c-.27,0-.54,0-.8-.08a5.61,5.61,0,0,1-3.4-1.63,2.55,2.55,0,0,1-.67-1.3,2,2,0,0,1,0-.24Zm7.15-2.23,0,0-1,1.8-.35.64a.63.63,0,0,1-.65.23c-.31-.06-.46-.26-.34-.47.44-.81.89-1.62,1.33-2.44l0,0c-2-.29-4.18.41-4.88,1.84s.48,2.91,2.61,3.4,4.5-.22,5.3-1.62S311.09,196.46,309.26,195.86ZM320,198.6c.13.94,1.2,2,3.09,2.33a5.25,5.25,0,0,0,4.75-1.34c.91-1.09.56-2.46-.83-3.3a5.94,5.94,0,0,0-4.12-.59l.33.45c.46.65.93,1.29,1.4,1.94a.25.25,0,0,1,.06.21c-.05.18-.27.3-.56.3H320Zm-9.33-5.23,5.73,4.25,3.09-4.25Zm10.77,2-1.11-1.52-2.95,4.07h1.52A3.78,3.78,0,0,1,321.42,195.34ZM320,197.89h3.29L321.89,196A3,3,0,0,0,320,197.89Z" transform="translate(-65.1 -70.99)"/><path class="cls-18" d="M313.2,177c0-.07,0-.15,0-.22a2.63,2.63,0,0,1,.75-1.38,5.65,5.65,0,0,1,3.31-1.55,7.85,7.85,0,0,1,2.37,0c.06,0,.08,0,.1,0l2-3.6a1.62,1.62,0,0,1,1.31-.72h2.07v.7h-1.79c-.32,0-.49.08-.6.27-.2.36-.39.72-.59,1.07l0,.05H331a.11.11,0,0,0,.1,0l.44-.6,0,0H330a.58.58,0,0,1-.5-.22.28.28,0,0,1,.14-.39.65.65,0,0,1,.38-.09h4.06v.7h-1.26c-.05,0-.07,0-.09,0-.24.33-.48.65-.71,1a0,0,0,0,0,0,.06c.47.66,1,1.31,1.43,2l0,0,.49-.09a7.71,7.71,0,0,1,1.8-.09,6.53,6.53,0,0,1,3.35,1.09,3.13,3.13,0,0,1,1.3,1.68c.33,1.24-.21,2.31-1.61,3.18a6.33,6.33,0,0,1-2.73.87l-.49,0h-.72c-.29,0-.59-.05-.87-.09a5.89,5.89,0,0,1-2.87-1.19,2.94,2.94,0,0,1-1.12-1.66c0-.06,0-.12,0-.19h-2.29a.81.81,0,0,1-.51-.15l-.92-.68-2.41-1.79-2.12-1.58-.39-.29-.59,1.07h0l.07,0c1.64.57,2.62,1.44,2.9,2.64a2.12,2.12,0,0,1-.09,1.22,4,4,0,0,1-2.39,2.16,7.15,7.15,0,0,1-2.11.48l-.34,0h-.67c-.27,0-.54,0-.81-.08a5.63,5.63,0,0,1-3.4-1.63,2.71,2.71,0,0,1-.67-1.3c0-.08,0-.16,0-.23Zm7.16-2.22,0,0-1,1.8-.35.64a.62.62,0,0,1-.65.23c-.3-.06-.45-.26-.34-.47l1.34-2.43,0,0c-2-.29-4.17.41-4.87,1.84s.47,2.91,2.61,3.4,4.49-.22,5.3-1.62S322.19,175.38,320.36,174.79Zm10.72,2.73c.13.95,1.19,2,3.08,2.33a5.26,5.26,0,0,0,4.75-1.33c.91-1.1.56-2.47-.83-3.31a5.91,5.91,0,0,0-4.11-.59l.32.45L335.7,177a.21.21,0,0,1,.05.21c-.05.19-.26.3-.55.3h-4.12Zm-9.34-5.23,5.73,4.25,3.09-4.25Zm10.78,2-1.11-1.52-3,4.07H330A3.76,3.76,0,0,1,332.52,174.26Zm-1.43,2.55h3.28l-1.38-1.9A3,3,0,0,0,331.09,176.81Z" transform="translate(-65.1 -70.99)"/><path class="cls-18" d="M311.9,224a1.7,1.7,0,0,1,0-.22,2.61,2.61,0,0,1,.74-1.38,5.68,5.68,0,0,1,3.32-1.55,7.54,7.54,0,0,1,2.37,0c.06,0,.08,0,.1,0,.66-1.2,1.31-2.4,2-3.6a1.6,1.6,0,0,1,1.3-.72h2.08v.7H322c-.32,0-.5.08-.6.27l-.59,1.07,0,.05h8.88a.12.12,0,0,0,.11,0l.44-.6,0,0h-1.57a.58.58,0,0,1-.5-.22.28.28,0,0,1,.13-.39.69.69,0,0,1,.38-.09h4.07v.7h-1.27a.12.12,0,0,0-.09,0c-.23.33-.47.65-.71,1a.06.06,0,0,0,0,.06c.48.66,1,1.31,1.43,2l0,0c.16,0,.32-.07.49-.09a7.71,7.71,0,0,1,1.8-.09,6.57,6.57,0,0,1,3.35,1.09,3.11,3.11,0,0,1,1.29,1.68c.33,1.25-.2,2.31-1.6,3.18a6.37,6.37,0,0,1-2.74.87l-.48,0h-.73c-.28,0-.58-.05-.86-.09a6,6,0,0,1-2.88-1.19,3,3,0,0,1-1.11-1.66,1.06,1.06,0,0,1,0-.19h-2.3a.85.85,0,0,1-.51-.15l-.91-.68-2.42-1.79-2.11-1.58L320,220l-.58,1.07h0l.07,0c1.64.57,2.62,1.44,2.89,2.64a2.12,2.12,0,0,1-.09,1.22,3.9,3.9,0,0,1-2.39,2.16,7.09,7.09,0,0,1-2.1.48l-.35,0h-.66c-.27,0-.55,0-.81-.08a5.61,5.61,0,0,1-3.4-1.63,2.55,2.55,0,0,1-.67-1.3,2.23,2.23,0,0,1,0-.23Zm7.16-2.22,0,0-1,1.8-.35.64a.63.63,0,0,1-.65.23c-.31-.06-.45-.26-.34-.47l1.34-2.43a.08.08,0,0,1,0,0c-2-.29-4.17.41-4.87,1.84s.47,2.91,2.61,3.4,4.49-.22,5.29-1.61S320.89,222.35,319.06,221.76Zm10.71,2.73c.13.95,1.2,2,3.09,2.33a5.27,5.27,0,0,0,4.75-1.33c.91-1.1.56-2.47-.83-3.3a5.82,5.82,0,0,0-4.12-.59l.33.45c.47.64.94,1.28,1.4,1.93a.25.25,0,0,1,.06.21c-.05.19-.27.3-.56.3h-4.12Zm-9.33-5.23,5.73,4.26,3.09-4.26Zm10.78,2-1.11-1.52-3,4.07h1.53A3.74,3.74,0,0,1,331.22,221.23Zm-1.43,2.55h3.28l-1.38-1.9A3,3,0,0,0,329.79,223.78Z" transform="translate(-65.1 -70.99)"/><path class="cls-18" d="M355,231.2c0-.08,0-.15,0-.23a2.34,2.34,0,0,1,.41-1.44,4.76,4.76,0,0,1,2.91-1.86,7.64,7.64,0,0,1,2.35-.23c.06,0,.07,0,.08-.05l1.11-3.75a1.36,1.36,0,0,1,1.12-.84.69.69,0,0,1,.2,0l1.8-.19H365l.17.69h-.09l-1.69.17c-.31,0-.46.13-.52.33l-.33,1.12s0,0,0,0h.08l8.7-.88a.11.11,0,0,0,.09-.05c.09-.22.19-.43.29-.64l0-.06h-.09l-1.47.15a.68.68,0,0,1-.55-.17.27.27,0,0,1,0-.4.7.7,0,0,1,.36-.12l3.95-.4H374l.16.69h-.07l-1.18.12c-.05,0-.07,0-.08,0l-.47,1a.07.07,0,0,0,0,.06l1.88,1.8,0,0,.46-.14a7.34,7.34,0,0,1,1.76-.27,7.21,7.21,0,0,1,3.57.75,3.72,3.72,0,0,1,1.68,1.53,2.49,2.49,0,0,1-.84,3.3,5.61,5.61,0,0,1-2.5,1.13l-.46.08-.07,0-.58.06h-.95a6.78,6.78,0,0,1-3.12-.89,3.56,3.56,0,0,1-1.49-1.52l-.09-.19h-.09l-2.17.22a.88.88,0,0,1-.54-.1l-1.07-.58L365,228l-2.46-1.34-.46-.25-.33,1.11h0l.07,0a4.65,4.65,0,0,1,3.48,2.32,2.05,2.05,0,0,1,.2,1.21,3.23,3.23,0,0,1-1.85,2.37,6.38,6.38,0,0,1-2,.69l-.33.06-.59.06s0,0-.07,0h-.82a6.4,6.4,0,0,1-3.74-1.27,3.07,3.07,0,0,1-1-1.22,2.14,2.14,0,0,0-.1-.22Zm6.55-2.92,0,.05c-.18.62-.36,1.25-.55,1.87-.06.23-.13.45-.2.67a.53.53,0,0,1-.58.29c-.32,0-.51-.21-.45-.43l.75-2.54a.43.43,0,0,0,0-.05c-2-.08-4,.83-4.38,2.31s1.15,2.83,3.38,3.1,4.39-.67,4.85-2.13S363.48,228.68,361.53,228.28Zm11.23,1.63c.36.92,1.66,1.86,3.6,2s3.73-.61,4.38-1.79,0-2.5-1.59-3.18a6.06,6.06,0,0,0-4.21-.17l.42.41,1.85,1.77a.28.28,0,0,1,.11.21c0,.18-.2.32-.48.34l-4,.41Zm-10.45-4.23L369,229.3l2-4.51Zm11.11.86L372,225.15l-2,4.32,1.5-.15A3.17,3.17,0,0,1,373.42,226.54Zm-.81,2.66,3.24-.33L374,227.13A2.48,2.48,0,0,0,372.61,229.2Z" transform="translate(-65.1 -70.99)"/><path class="cls-18" d="M355.22,207.46l0-.23a2.28,2.28,0,0,1,.28-1.45,4.49,4.49,0,0,1,2.75-2,7.39,7.39,0,0,1,2.32-.31c.06,0,.07,0,.08-.05l.78-3.79c.09-.42.45-.72,1.05-.88l.19,0,1.79-.25h0l.23.68-.09,0-1.67.23c-.31,0-.45.15-.49.35l-.24,1.13v.05h.07l8.61-1.2c.05,0,.07,0,.08-.06l.24-.65s0,0,0-.05h-.08l-1.46.2a.68.68,0,0,1-.56-.15.25.25,0,0,1,0-.39.59.59,0,0,1,.34-.15l3.91-.54h.06l.23.68h-.07l-1.17.17a.07.07,0,0,0-.07,0c-.13.35-.26.7-.38,1.05,0,0,0,0,0,.06l2,1.73,0,0,.45-.16a8,8,0,0,1,1.73-.33,7.38,7.38,0,0,1,3.63.62,4,4,0,0,1,1.81,1.46,2.44,2.44,0,0,1-.55,3.33,5.25,5.25,0,0,1-2.4,1.22l-.46.1-.06,0-.57.08h-.08c-.29,0-.58,0-.87,0a7,7,0,0,1-3.19-.77,3.86,3.86,0,0,1-1.63-1.47c0-.06-.07-.12-.1-.19l-.09,0-2.15.3a.93.93,0,0,1-.55-.08l-1.11-.54-2.94-1.42-2.58-1.25-.47-.23-.24,1.12h.09a5,5,0,0,1,3.68,2.19,2.18,2.18,0,0,1,.31,1.2,3,3,0,0,1-1.65,2.44,6,6,0,0,1-1.9.75l-.33.08-.59.08h-.06c-.27,0-.55,0-.82,0a6.73,6.73,0,0,1-3.84-1.12,3.36,3.36,0,0,1-1.08-1.19,1.51,1.51,0,0,1-.11-.22Zm6.28-3.16a.43.43,0,0,1,0,0l-.39,1.9c0,.22-.09.45-.14.67s-.27.32-.56.31-.52-.19-.48-.41c.18-.86.35-1.71.52-2.56a.11.11,0,0,0,0,0c-2,0-3.95,1-4.17,2.47s1.4,2.77,3.64,3,4.33-.83,4.67-2.3S363.48,204.63,361.5,204.3Zm11.36,1.21a4.26,4.26,0,0,0,3.77,1.86c1.94.06,3.67-.75,4.21-2s-.24-2.49-1.87-3.12a6,6,0,0,0-4.21,0l.46.39,2,1.7a.29.29,0,0,1,.12.2c0,.19-.17.33-.45.37l-3.94.55Zm-10.81-3.83,7,3.37,1.66-4.58Zm11.17.45-1.57-1.33-1.58,4.38,1.49-.21A3,3,0,0,1,373.22,202.13Zm-.57,2.69,3.21-.45-2-1.67A2.32,2.32,0,0,0,372.65,204.82Z" transform="translate(-65.1 -70.99)"/><path class="cls-18" d="M319.93,254.11a1.7,1.7,0,0,1,0-.22,2.75,2.75,0,0,1,.74-1.39A5.74,5.74,0,0,1,324,251a7.54,7.54,0,0,1,2.37,0c.06,0,.08,0,.1,0,.66-1.2,1.31-2.4,2-3.6a1.6,1.6,0,0,1,1.31-.72h2.07v.7h-1.79c-.32,0-.49.08-.6.27-.2.36-.4.71-.59,1.07l0,.05h8.88a.12.12,0,0,0,.11,0l.44-.6a.33.33,0,0,0,0-.06h-1.57a.56.56,0,0,1-.5-.22.27.27,0,0,1,.13-.38.7.7,0,0,1,.38-.1h4.07v.7h-1.27a.1.1,0,0,0-.09,0c-.23.33-.47.65-.71,1a.06.06,0,0,0,0,.06c.48.65,1,1.31,1.43,2l0,0,.49-.1a7.71,7.71,0,0,1,1.8-.08,6.57,6.57,0,0,1,3.35,1.09,3.06,3.06,0,0,1,1.29,1.68c.33,1.24-.2,2.31-1.6,3.18a6.46,6.46,0,0,1-2.74.87l-.48,0h-.72c-.29,0-.59,0-.87-.08a6.07,6.07,0,0,1-2.88-1.19,3,3,0,0,1-1.11-1.66,1.29,1.29,0,0,1,0-.19h-2.29a.81.81,0,0,1-.51-.15l-.92-.68-2.42-1.8-2.11-1.57-.4-.29-.58,1.07h0l.07,0c1.64.56,2.62,1.44,2.89,2.64a2,2,0,0,1-.09,1.22,3.9,3.9,0,0,1-2.39,2.16,7.09,7.09,0,0,1-2.1.48l-.35,0h-.66c-.27,0-.55,0-.81-.07a5.63,5.63,0,0,1-3.4-1.63,2.55,2.55,0,0,1-.67-1.3,2,2,0,0,1,0-.24Zm7.16-2.23,0,.05-1,1.8-.35.64a.61.61,0,0,1-.65.22c-.31-.05-.45-.26-.34-.47l1.34-2.43s0,0,0-.05c-2-.28-4.17.41-4.87,1.85s.47,2.91,2.61,3.4,4.49-.23,5.3-1.62S328.92,252.48,327.09,251.88Zm10.71,2.74c.13.94,1.2,2,3.09,2.33a5.24,5.24,0,0,0,4.75-1.34c.91-1.09.56-2.46-.83-3.3a5.93,5.93,0,0,0-4.12-.59l.33.45,1.41,1.94a.24.24,0,0,1,.05.21c-.05.18-.27.3-.56.3H337.8Zm-9.33-5.23,5.73,4.25,3.09-4.25Zm10.78,2-1.11-1.52-3,4.07h1.53A3.74,3.74,0,0,1,339.25,251.36Zm-1.43,2.55h3.28L339.72,252A3,3,0,0,0,337.82,253.91Z" transform="translate(-65.1 -70.99)"/><path class="cls-18" d="M274,269.67a2.07,2.07,0,0,0,0-.22,2.73,2.73,0,0,1,.75-1.39,5.71,5.71,0,0,1,3.31-1.55,7.91,7.91,0,0,1,2.38,0c.06,0,.07,0,.09,0l2-3.6a1.63,1.63,0,0,1,1.31-.72h2.08v.69h-1.8c-.32,0-.49.08-.6.28-.19.36-.39.71-.59,1.07l0,.05h8.88a.11.11,0,0,0,.1,0l.44-.6,0-.06H290.8a.59.59,0,0,1-.5-.22.29.29,0,0,1,.14-.39.74.74,0,0,1,.38-.09h4.06v.7h-1.26c-.05,0-.07,0-.09,0l-.71,1a.06.06,0,0,0,0,.06l1.43,2,0,0,.49-.09a7.21,7.21,0,0,1,1.8-.08,6.41,6.41,0,0,1,3.35,1.09,3.08,3.08,0,0,1,1.3,1.68c.33,1.24-.21,2.31-1.6,3.18a6.51,6.51,0,0,1-2.74.87l-.48,0h-.73c-.29,0-.58,0-.87-.09a6,6,0,0,1-2.87-1.18,3,3,0,0,1-1.12-1.66,1.29,1.29,0,0,0,0-.19h-2.29A.83.83,0,0,1,288,270l-.91-.68-2.42-1.8L282.51,266l-.39-.29-.59,1.07h0l.07,0c1.65.56,2.63,1.44,2.9,2.64a2.09,2.09,0,0,1-.09,1.21,3.91,3.91,0,0,1-2.39,2.17,6.85,6.85,0,0,1-2.11.47l-.34,0h-.67a7.4,7.4,0,0,1-.81-.08,5.54,5.54,0,0,1-3.39-1.62,2.68,2.68,0,0,1-.68-1.31,2.23,2.23,0,0,0,0-.23Zm7.16-2.23,0,.05-1,1.8-.36.64a.62.62,0,0,1-.65.22c-.3,0-.45-.26-.33-.47l1.33-2.43,0-.05c-2-.28-4.18.41-4.88,1.85s.48,2.91,2.61,3.4,4.5-.23,5.3-1.62S283,268,281.15,267.44Zm10.72,2.74c.13.94,1.19,2,3.09,2.33a5.26,5.26,0,0,0,4.75-1.34c.91-1.09.56-2.47-.83-3.3a5.94,5.94,0,0,0-4.12-.59l.32.45,1.41,1.93a.26.26,0,0,1,.06.22.55.55,0,0,1-.56.3h-4.12ZM282.53,265l5.73,4.25,3.1-4.25Zm10.78,2-1.11-1.51-2.95,4.06h1.52A3.78,3.78,0,0,1,293.31,266.91Zm-1.43,2.55h3.29l-1.39-1.9A3,3,0,0,0,291.88,269.46Z" transform="translate(-65.1 -70.99)"/><path class="cls-18" d="M319.93,289.67a1.85,1.85,0,0,1,0-.23,2.72,2.72,0,0,1,.74-1.38,5.68,5.68,0,0,1,3.32-1.55,7.85,7.85,0,0,1,2.37,0c.06,0,.08,0,.1,0,.66-1.2,1.31-2.4,2-3.59a1.6,1.6,0,0,1,1.31-.72l.19,0h1.88v.7h-1.79c-.32,0-.49.08-.6.28-.2.35-.4.71-.59,1.07l0,0h8.88a.11.11,0,0,0,.11-.05l.44-.6,0-.05h-1.57a.58.58,0,0,1-.5-.22.28.28,0,0,1,.13-.39.79.79,0,0,1,.38-.09h4.07v.7h-1.27a.1.1,0,0,0-.09,0l-.71,1a.06.06,0,0,0,0,.06l1.43,2,0,0,.49-.09a7.71,7.71,0,0,1,1.8-.09,6.57,6.57,0,0,1,3.35,1.1,3,3,0,0,1,1.29,1.68c.33,1.24-.2,2.3-1.6,3.17a6.33,6.33,0,0,1-2.74.87l-.48,0h-.72c-.29,0-.59,0-.87-.09a6.06,6.06,0,0,1-2.88-1.18,3,3,0,0,1-1.11-1.66,1.42,1.42,0,0,1,0-.2h-2.29a.76.76,0,0,1-.51-.15l-.92-.68-2.42-1.79L328.45,286l-.4-.29-.58,1.06h0l.07,0c1.64.57,2.62,1.44,2.89,2.65a2,2,0,0,1-.09,1.21A3.9,3.9,0,0,1,328,292.8a6.79,6.79,0,0,1-2.1.48l-.35,0h-.66c-.27,0-.55,0-.81-.08a5.58,5.58,0,0,1-3.4-1.63,2.51,2.51,0,0,1-.67-1.3,1.85,1.85,0,0,1,0-.23Zm7.16-2.23,0,.05-1,1.79-.35.65a.62.62,0,0,1-.65.22c-.31-.06-.45-.26-.34-.47l1.34-2.43,0-.05c-2-.28-4.17.41-4.87,1.84s.47,2.91,2.61,3.4,4.49-.22,5.3-1.61S328.92,288,327.09,287.44Zm10.71,2.73c.13.95,1.2,2,3.09,2.33a5.24,5.24,0,0,0,4.75-1.33c.91-1.09.56-2.47-.83-3.3a5.82,5.82,0,0,0-4.12-.59l.33.45,1.41,1.93a.25.25,0,0,1,.05.22c-.05.18-.27.29-.56.29H337.8Zm-9.33-5.23,5.73,4.26,3.09-4.26Zm10.78,2-1.11-1.51-3,4.06h1.53A3.76,3.76,0,0,1,339.25,286.91Zm-1.43,2.55h3.28l-1.38-1.9A3,3,0,0,0,337.82,289.46Z" transform="translate(-65.1 -70.99)"/><path class="cls-18" d="M358.05,274.74l.14-.21a3.77,3.77,0,0,1,1.3-1.19,7,7,0,0,1,3.85-.89,7.27,7.27,0,0,1,2.27.44c.06,0,.08,0,.11,0l3.44-3.09a2.11,2.11,0,0,1,1.57-.45l.19,0,1.76.33h.05l-.3.67h-.09L370.7,270a.74.74,0,0,0-.69.16l-1,.92-.05,0,.08,0,8.45,1.6a.16.16,0,0,0,.12,0l.68-.5.05-.05h-.08l-1.43-.27c-.22,0-.37-.16-.39-.3s.1-.29.3-.35a.68.68,0,0,1,.4,0L381,272l.07,0-.3.67h-.07l-1.14-.22a.13.13,0,0,0-.11,0l-1.1.81s0,0,0,.06c.17.71.35,1.43.53,2.15v0h.51a7.26,7.26,0,0,1,1.76.24,5,5,0,0,1,2.75,1.66,2.34,2.34,0,0,1,.53,1.85c-.22,1.25-1.19,2.18-2.9,2.76a7.32,7.32,0,0,1-3,.34l-.48-.05h-.07l-.56-.1-.07,0c-.26-.08-.54-.15-.79-.25a4.31,4.31,0,0,1-2.25-1.66,2.28,2.28,0,0,1-.37-1.79c0-.07,0-.13.05-.2h-.09l-2.11-.4a.67.67,0,0,1-.43-.24l-.59-.82-1.55-2.16-1.36-1.9-.25-.35-1,.92h0l.06,0c1.34.84,1.91,1.86,1.65,3.07a2.51,2.51,0,0,1-.6,1.15,5.46,5.46,0,0,1-3.23,1.64,7.85,7.85,0,0,1-2.22.08l-.34,0-.58-.11-.06,0c-.25-.07-.51-.13-.74-.22a4.07,4.07,0,0,1-2.57-2.18,2.25,2.25,0,0,1-.09-1.38l.06-.23Zm7.83-.84-.05,0-1.72,1.55-.61.55a.76.76,0,0,1-.72.1c-.27-.12-.32-.34-.12-.52l2.32-2.09,0,0a5.65,5.65,0,0,0-5.47.88c-1.27,1.24-.8,2.88,1.05,3.74a5.77,5.77,0,0,0,5.78-.59C367.73,276.36,367.38,274.8,365.88,273.9Zm9.12,4.57c-.28.93.29,2.15,2,2.8a5.92,5.92,0,0,0,5.13-.42c1.34-.88,1.59-2.26.62-3.32a5,5,0,0,0-3.71-1.31l.12.49c.18.7.35,1.41.53,2.11a.25.25,0,0,1,0,.22.69.69,0,0,1-.66.18l-3.87-.73Zm-6.73-6.72,3.69,5.13,4.79-3.52Zm9.51,3.85-.42-1.65-4.57,3.36,1.46.28A5.3,5.3,0,0,1,377.78,275.6Zm-2.46,2.19,3.15.6-.51-2.08A4.18,4.18,0,0,0,375.32,277.79Z" transform="translate(-65.1 -70.99)"/><path class="cls-18" d="M366.43,254.57a2,2,0,0,0,.1-.21,3.22,3.22,0,0,1,1.06-1.3,6.45,6.45,0,0,1,3.64-1.19,7.29,7.29,0,0,1,2.34.24c.06,0,.08,0,.1,0l2.81-3.36a1.86,1.86,0,0,1,1.46-.58h.2l1.81.18h0l-.16.69h-.09l-1.68-.17a.66.66,0,0,0-.66.22l-.83,1,0,.05h.08l8.69.88c.06,0,.09,0,.12,0l.57-.55.05,0H386l-1.47-.15a.49.49,0,0,1-.44-.27c-.05-.14,0-.29.23-.37a.84.84,0,0,1,.39,0l3.95.4h.07l-.16.69h-.08l-1.17-.12s-.08,0-.1,0l-.93.89s0,0,0,.06l.95,2.09,0,0,.51,0a7.16,7.16,0,0,1,1.79.1,5.67,5.67,0,0,1,3.06,1.41,2.58,2.58,0,0,1,.88,1.79c0,1.26-.74,2.26-2.33,3a7.24,7.24,0,0,1-2.91.59l-.48,0h-.07l-.58-.06-.07,0c-.28-.06-.57-.1-.84-.17a5.17,5.17,0,0,1-2.56-1.46,2.54,2.54,0,0,1-.71-1.75,1.34,1.34,0,0,1,0-.2h-.09l-2.18-.22a.7.7,0,0,1-.47-.2l-.74-.76-2-2-1.72-1.77-.32-.33-.83,1h0l.06,0c1.49.72,2.26,1.68,2.24,2.9a2.22,2.22,0,0,1-.37,1.19,4.72,4.72,0,0,1-2.87,1.9,7.63,7.63,0,0,1-2.2.26h-.34l-.6-.06h-.06c-.26-.06-.53-.09-.78-.16a4.75,4.75,0,0,1-3-1.95,2.24,2.24,0,0,1-.36-1.35c0-.08,0-.16,0-.24Zm7.6-1.48a.08.08,0,0,1,0,0l-1.39,1.68-.51.6a.69.69,0,0,1-.69.16c-.29-.09-.39-.31-.22-.5l1.89-2.27,0-.05c-1.88-.47-4.23,0-5.25,1.34s-.22,2.92,1.77,3.62,4.5.23,5.62-1.07S375.7,253.86,374,253.09Zm10,3.77c-.09.95.71,2.11,2.5,2.62a5.73,5.73,0,0,0,5-.85,2,2,0,0,0,0-3.34,5.49,5.49,0,0,0-3.94-1c.08.16.15.32.22.48.31.68.62,1.37.94,2a.24.24,0,0,1,0,.22.61.61,0,0,1-.62.23l-4-.4Zm-8-6.1,4.67,4.78,4.05-3.9Zm10.19,3-.74-1.6-3.87,3.72,1.5.15A4.54,4.54,0,0,1,386.17,253.78Zm-2,2.38,3.25.33-.93-2A3.6,3.6,0,0,0,384.16,256.16Z" transform="translate(-65.1 -70.99)"/><path class="cls-18" d="M305.76,322a1.85,1.85,0,0,1,0-.23,2.65,2.65,0,0,1,.74-1.38,5.65,5.65,0,0,1,3.32-1.55,7.85,7.85,0,0,1,2.37,0c.06,0,.08,0,.09,0l2-3.59a1.6,1.6,0,0,1,1.3-.72l.2,0h1.88v.7h-1.8a.59.59,0,0,0-.6.28l-.58,1.07a.11.11,0,0,0,0,0h8.88c.05,0,.08,0,.1,0l.44-.6,0-.05h-1.58a.59.59,0,0,1-.5-.22.28.28,0,0,1,.14-.39.76.76,0,0,1,.38-.09h4.06v.7h-1.26c-.05,0-.07,0-.09,0l-.71,1a.06.06,0,0,0,0,.06c.48.66.95,1.32,1.43,2l0,0,.49-.09a7.77,7.77,0,0,1,1.8-.09,6.51,6.51,0,0,1,3.35,1.1,3,3,0,0,1,1.3,1.68c.33,1.24-.21,2.3-1.6,3.17a6.37,6.37,0,0,1-2.74.87l-.48,0h-.73c-.29,0-.58,0-.86-.09a6,6,0,0,1-2.88-1.18,3,3,0,0,1-1.11-1.66c0-.07,0-.13-.05-.2h-2.29a.79.79,0,0,1-.51-.15l-.91-.67-2.42-1.8-2.12-1.57c-.12-.1-.25-.19-.39-.29l-.59,1.06h0l.06,0c1.65.56,2.63,1.43,2.9,2.64a2.1,2.1,0,0,1-.09,1.21,3.87,3.87,0,0,1-2.39,2.16,6.85,6.85,0,0,1-2.11.48l-.34,0h-.67c-.27,0-.54,0-.8-.08a5.55,5.55,0,0,1-3.4-1.63,2.51,2.51,0,0,1-.67-1.3,1.85,1.85,0,0,1,0-.23Zm7.15-2.23s0,0,0,.05l-1,1.79c-.12.22-.24.43-.35.65a.63.63,0,0,1-.65.22c-.31-.06-.46-.26-.34-.47l1.33-2.43,0,0c-2-.28-4.18.41-4.88,1.85s.48,2.9,2.61,3.39,4.5-.22,5.3-1.61S314.74,320.37,312.91,319.78Zm10.72,2.73c.13.95,1.2,2,3.09,2.34a5.27,5.27,0,0,0,4.75-1.34c.91-1.09.56-2.47-.83-3.3a5.84,5.84,0,0,0-4.12-.59l.33.45,1.4,1.93a.26.26,0,0,1,.06.22c-.05.18-.27.29-.56.29h-4.12Zm-9.33-5.23,5.73,4.26,3.09-4.26Zm10.77,2L324,317.74,321,321.8h1.52A3.8,3.8,0,0,1,325.07,319.25Zm-1.43,2.55h3.29l-1.39-1.9A3,3,0,0,0,323.64,321.8Z" transform="translate(-65.1 -70.99)"/><path class="cls-18" d="M354.14,312.56l.12-.21a3.57,3.57,0,0,1,1.25-1.22,6.87,6.87,0,0,1,3.8-1,7.14,7.14,0,0,1,2.29.39c.06,0,.08,0,.11,0l3.28-3.17a2,2,0,0,1,1.54-.48l.2,0,1.77.29h.05l-.26.67h-.09l-1.65-.27a.68.68,0,0,0-.69.17l-1,.94,0,0h.08l8.53,1.42c.05,0,.08,0,.11,0l.66-.51,0-.05h-.08l-1.44-.24a.47.47,0,0,1-.41-.3c0-.14.09-.28.28-.35a.81.81,0,0,1,.41,0l3.87.64.06,0-.26.67h-.07l-1.16-.19a.12.12,0,0,0-.1,0l-1.05.83a.09.09,0,0,0,0,.06l.64,2.14s0,0,0,0h.51a7.48,7.48,0,0,1,1.78.21,5.14,5.14,0,0,1,2.83,1.6,2.36,2.36,0,0,1,.62,1.84c-.15,1.25-1.07,2.2-2.76,2.81a7.34,7.34,0,0,1-3,.41l-.48-.05h-.07l-.57-.09-.06,0c-.27-.08-.55-.14-.81-.23a4.53,4.53,0,0,1-2.34-1.61,2.37,2.37,0,0,1-.45-1.79,1.62,1.62,0,0,1,0-.19l-.09,0-2.14-.35a.62.62,0,0,1-.43-.23l-.63-.8-1.66-2.13-1.46-1.87-.27-.34-1,.94h0l.05,0c1.38.81,2,1.82,1.81,3a2.44,2.44,0,0,1-.55,1.16,5.23,5.23,0,0,1-3.14,1.71,7.82,7.82,0,0,1-2.22.13l-.34,0-.58-.09-.06,0c-.25-.07-.52-.12-.76-.21a4.2,4.2,0,0,1-2.67-2.12,2.25,2.25,0,0,1-.16-1.37c0-.08,0-.16.05-.23Zm7.78-1-.05,0-1.63,1.58-.59.57a.69.69,0,0,1-.71.11c-.28-.1-.34-.32-.15-.51L361,311.2l.05,0a5.59,5.59,0,0,0-5.43,1c-1.2,1.26-.64,2.9,1.24,3.71a5.7,5.7,0,0,0,5.75-.71C363.89,314,363.47,312.42,361.92,311.55Zm9.35,4.38c-.24.93.39,2.13,2.1,2.75a5.85,5.85,0,0,0,5.11-.53,2.05,2.05,0,0,0,.45-3.33,5.14,5.14,0,0,0-3.77-1.23l.15.49.63,2.1a.23.23,0,0,1,0,.21.64.64,0,0,1-.65.2l-3.9-.65Zm-7.07-6.57,3.94,5,4.61-3.62Zm9.7,3.64-.5-1.65-4.4,3.47,1.47.24A5.12,5.12,0,0,1,373.9,313Zm-2.35,2.24,3.18.53-.62-2.07A4.06,4.06,0,0,0,371.55,315.24Z" transform="translate(-65.1 -70.99)"/><path class="cls-18" d="M274.6,303.18a1.7,1.7,0,0,1,0-.22,2.68,2.68,0,0,1,.74-1.39A5.74,5.74,0,0,1,278.7,300a7.54,7.54,0,0,1,2.37,0c.06,0,.08,0,.1,0,.66-1.2,1.31-2.4,2-3.6a1.6,1.6,0,0,1,1.3-.72h2.08v.7h-1.79c-.32,0-.5.07-.6.27-.2.36-.4.71-.59,1.07l0,.05h8.88a.11.11,0,0,0,.1,0l.45-.6,0-.06h-1.57a.56.56,0,0,1-.5-.22.28.28,0,0,1,.13-.39.79.79,0,0,1,.38-.09h4.07v.7h-1.27c-.05,0-.07,0-.09,0-.23.33-.47.65-.71,1a.06.06,0,0,0,0,.06c.48.65,1,1.31,1.43,2l0,0,.49-.09a7.21,7.21,0,0,1,1.8-.08,6.5,6.5,0,0,1,3.34,1.09,3.08,3.08,0,0,1,1.3,1.68c.33,1.24-.2,2.31-1.6,3.18a6.51,6.51,0,0,1-2.74.87l-.48,0h-.73c-.29,0-.58,0-.86-.08a6,6,0,0,1-2.88-1.19,3,3,0,0,1-1.11-1.66,1.29,1.29,0,0,1,0-.19h-2.3a.85.85,0,0,1-.51-.15l-.91-.68-2.42-1.8-2.11-1.57-.4-.29-.59,1.07h0l.06,0c1.65.56,2.63,1.44,2.9,2.64a2.09,2.09,0,0,1-.09,1.21,3.88,3.88,0,0,1-2.39,2.17,7.09,7.09,0,0,1-2.1.48l-.35,0h-.66c-.27,0-.55,0-.81-.07a5.61,5.61,0,0,1-3.4-1.63,2.55,2.55,0,0,1-.67-1.3,2,2,0,0,1,0-.24Zm7.16-2.23,0,.05-1,1.8-.35.64a.61.61,0,0,1-.65.22c-.31-.05-.45-.26-.34-.47l1.34-2.43,0-.05c-2-.28-4.17.41-4.87,1.85s.47,2.91,2.61,3.4,4.49-.23,5.29-1.62S283.59,301.55,281.76,301Zm10.71,2.74c.13.94,1.2,2,3.09,2.33a5.25,5.25,0,0,0,4.75-1.34c.91-1.09.56-2.46-.83-3.3a5.93,5.93,0,0,0-4.12-.59l.33.45,1.4,1.94a.24.24,0,0,1,.06.21c0,.18-.27.3-.56.3h-4.12Zm-9.33-5.23,5.73,4.25,3.09-4.25Zm10.78,2-1.11-1.51-3,4.07h1.53A3.75,3.75,0,0,1,293.92,300.42ZM292.49,303h3.28l-1.39-1.91A3,3,0,0,0,292.49,303Z" transform="translate(-65.1 -70.99)"/><path class="cls-18" d="M273.65,241.2a1.7,1.7,0,0,1,0-.22,2.68,2.68,0,0,1,.74-1.39,5.71,5.71,0,0,1,3.32-1.54,7.54,7.54,0,0,1,2.37,0c.06,0,.08,0,.09,0,.66-1.2,1.32-2.4,2-3.6a1.6,1.6,0,0,1,1.3-.72h2.08v.7h-1.8a.61.61,0,0,0-.6.27l-.58,1.07,0,.05h8.88a.11.11,0,0,0,.1,0l.44-.6a.13.13,0,0,0,0-.06h-1.58a.57.57,0,0,1-.5-.22.27.27,0,0,1,.14-.38.7.7,0,0,1,.38-.1h4.06v.7h-1.26s-.07,0-.09,0l-.71,1a.06.06,0,0,0,0,.06c.48.65.95,1.31,1.43,2l0,0,.48-.1a8.36,8.36,0,0,1,1.8-.08,6.5,6.5,0,0,1,3.35,1.09,3.08,3.08,0,0,1,1.3,1.68c.33,1.24-.21,2.31-1.6,3.18a6.51,6.51,0,0,1-2.74.87l-.48,0h-.73c-.29,0-.58,0-.86-.08a5.89,5.89,0,0,1-2.88-1.19,3,3,0,0,1-1.11-1.66c0-.06,0-.13,0-.19h-2.29a.85.85,0,0,1-.51-.15l-.91-.68-2.42-1.8-2.12-1.57-.39-.29-.59,1.07h0l.06,0c1.65.56,2.63,1.44,2.9,2.64a2.12,2.12,0,0,1-.09,1.22,3.9,3.9,0,0,1-2.39,2.16,7.15,7.15,0,0,1-2.11.48l-.34,0h-.67c-.27,0-.54,0-.8-.07a5.61,5.61,0,0,1-3.4-1.63,2.55,2.55,0,0,1-.67-1.3,2,2,0,0,1,0-.24Zm7.16-2.23a.09.09,0,0,0,0,.05l-1,1.8-.35.64a.63.63,0,0,1-.65.23c-.31-.06-.46-.27-.34-.47.44-.82.89-1.63,1.33-2.44l0-.05c-2-.28-4.18.41-4.87,1.85s.47,2.91,2.6,3.4,4.5-.22,5.3-1.62S282.63,239.57,280.81,239Zm10.71,2.74c.13.94,1.2,2,3.09,2.33a5.25,5.25,0,0,0,4.75-1.34c.91-1.09.56-2.46-.83-3.3a5.94,5.94,0,0,0-4.12-.59l.33.45c.46.65.93,1.29,1.4,1.94a.25.25,0,0,1,.06.21c-.05.18-.27.3-.56.3h-4.12Zm-9.33-5.23,5.73,4.25,3.09-4.25Zm10.77,2-1.11-1.52-3,4.07h1.52A3.78,3.78,0,0,1,293,238.45ZM291.53,241h3.29l-1.39-1.91A3,3,0,0,0,291.53,241Z" transform="translate(-65.1 -70.99)"/><path class="cls-19" d="M339.15,100.05" transform="translate(-65.1 -70.99)"/><ellipse class="cls-20" cx="194.96" cy="66.8" rx="62.55" ry="66.8"/><rect class="cls-21" x="225.52" y="112.07" width="30.09" height="15.54" rx="4.43" ry="4.43" transform="translate(416.04 168.71) rotate(180)"/><rect class="cls-22" x="264.73" y="112.07" width="30.09" height="15.54" rx="4.43" ry="4.43" transform="translate(494.45 168.71) rotate(180)"/><ellipse class="cls-23" cx="175.47" cy="48.86" rx="2.99" ry="3.08"/><ellipse class="cls-23" cx="214.68" cy="48.86" rx="2.99" ry="3.08"/><path class="cls-24" d="M198.24,125.45l26.53-37.22s48.55,7,66.86,0l28.13,32.82s-7.53-27.41-25.28-38.64c-12.41-7.86-16.1-8.35-17.15-8.89-1.59-.81-2.54-.52-3.35-.73-6.13-1.62-26.44-4.48-46.86,7.83C202.53,95.45,198.24,125.45,198.24,125.45Z" transform="translate(-65.1 -70.99)"/><path class="cls-25" d="M291.63,88.36l27.85,32.5s-7.43-27.15-25-38.26C292.77,81.54,296.85,84.25,291.63,88.36Z" transform="translate(-65.1 -70.99)"/><path class="cls-26" d="M321.29,147.49s-58,65.65-124.58,0c0,0,7,55.29,62.54,58.29C259.25,205.78,312.57,207.31,321.29,147.49Z" transform="translate(-65.1 -70.99)"/><line class="cls-19" x1="178.46" y1="101.49" x2="211.69" y2="101.49"/><path class="cls-27" d="M243.56,172.47a39.12,39.12,0,0,1,8.31-2,66.09,66.09,0,0,1,8.3-.54,62.68,62.68,0,0,1,8.31.54,37.94,37.94,0,0,1,8.31,2,38.55,38.55,0,0,1-8.31,2,64.4,64.4,0,0,1-8.31.53,62.53,62.53,0,0,1-8.3-.54A38.52,38.52,0,0,1,243.56,172.47Z" transform="translate(-65.1 -70.99)"/><line class="cls-19" x1="176.64" y1="101.49" x2="213.83" y2="101.49"/><path class="cls-28" d="M241.74,172.47c3.1-.15,6.2-.23,9.3-.29s6.2-.05,9.3-.08,6.19,0,9.29.08,6.2.14,9.3.29c-3.1.16-6.2.23-9.3.29s-6.19.06-9.29.09-6.2,0-9.3-.09S244.84,172.63,241.74,172.47Z" transform="translate(-65.1 -70.99)"/><polyline class="cls-29" points="202.06 82.39 195.71 84.01 188.09 82.16 194.37 57.79"/><polyline class="cls-30" points="195.71 84.01 188.09 82.16 194.37 57.79"/><path class="cls-20" d="M263.86,119.66s-3.22-3.5-7.38,0" transform="translate(-65.1 -70.99)"/><path class="cls-31" d="M263.83,119.7c-.73-.22-1.35-.4-1.94-.53a7.11,7.11,0,0,0-1.69-.16,4.64,4.64,0,0,0-.83.06l-.43.05a3.13,3.13,0,0,1-.44.1c-.31,0-.61.16-.94.22a8.77,8.77,0,0,1-1,.26l-.07-.08c.28-.2.54-.42.82-.62a8.05,8.05,0,0,1,.91-.5,5.13,5.13,0,0,1,2-.49,5.26,5.26,0,0,1,3.71,1.62Z" transform="translate(-65.1 -70.99)"/><ellipse class="cls-32" cx="214.68" cy="48.86" rx="1.52" ry="1.57"/><ellipse class="cls-32" cx="175.47" cy="48.86" rx="1.52" ry="1.57"/><path class="cls-33" d="M196.71,147.49s16.16,41,38.39,51.56C235.1,199.05,209.27,196,196.71,147.49Z" transform="translate(-65.1 -70.99)"/><path class="cls-33" d="M260.47,205.78s-41.3,104.55,0,183.16C260.47,388.94,301.77,300.32,260.47,205.78Z" transform="translate(-65.1 -70.99)"/><ellipse class="cls-34" cx="194.27" cy="283.69" rx="2.45" ry="2.35"/><path class="cls-5" d="M256.8,234v2.22a2.57,2.57,0,0,1,0,.62,2.58,2.58,0,0,0,0-.62V234a3.32,3.32,0,0,1,0-.63,3.31,3.31,0,0,0,0,.63Z" transform="translate(-65.1 -70.99)"/><path class="cls-5" d="M261.86,237.67v1.2a3.31,3.31,0,0,1,0,.63,2.66,2.66,0,0,0,0-.63v-1.2a3.33,3.33,0,0,1,0-.63,3.31,3.31,0,0,0,0,.63Z" transform="translate(-65.1 -70.99)"/><path class="cls-5" d="M263.54,241.49v1.21a3.33,3.33,0,0,1,0,.63,3.32,3.32,0,0,0,0-.63v-1.21a3.21,3.21,0,0,1,0-.62,2.57,2.57,0,0,0,0,.62Z" transform="translate(-65.1 -70.99)"/><path class="cls-5" d="M266.7,241.29v.2a3.33,3.33,0,0,1,0,.63,3.32,3.32,0,0,0,0-.63v-.2a3.22,3.22,0,0,1,0-.62,3.21,3.21,0,0,0,0,.62Z" transform="translate(-65.1 -70.99)"/><path class="cls-5" d="M260.39,249.37s0-1.25,0-1.25,0,1.25,0,1.25Z" transform="translate(-65.1 -70.99)"/><path class="cls-5" d="M257.64,241.49v1.41a3.33,3.33,0,0,1,0,.63,3.32,3.32,0,0,0,0-.63v-1.41a2.57,2.57,0,0,1,0-.62,2.57,2.57,0,0,0,0,.62Z" transform="translate(-65.1 -70.99)"/><path class="cls-5" d="M257.85,250.56v1.61a3.33,3.33,0,0,1,0,.63,3.31,3.31,0,0,0,0-.63v-1.61a2.57,2.57,0,0,1,0-.62,2.56,2.56,0,0,0,0,.62Z" transform="translate(-65.1 -70.99)"/><path class="cls-5" d="M264.38,253.58v.61a3.21,3.21,0,0,1,0,.62,3.21,3.21,0,0,0,0-.62v-.61a3.21,3.21,0,0,1,0-.62,3.21,3.21,0,0,0,0,.62Z" transform="translate(-65.1 -70.99)"/><path class="cls-5" d="M262.28,255.8v1.61a2.66,2.66,0,0,1,0,.63,2.66,2.66,0,0,0,0-.63V255.8a3.32,3.32,0,0,1,0-.63,3.32,3.32,0,0,0,0,.63Z" transform="translate(-65.1 -70.99)"/><path class="cls-5" d="M259.54,256.81v1a2.66,2.66,0,0,1,0,.63,2.66,2.66,0,0,0,0-.63v-1a3.33,3.33,0,0,1,0-.63,3.32,3.32,0,0,0,0,.63Z" transform="translate(-65.1 -70.99)"/><path class="cls-5" d="M257.43,257v.2a3.22,3.22,0,0,1,0,.62,3.21,3.21,0,0,0,0-.62V257a2.66,2.66,0,0,1,0-.63,2.66,2.66,0,0,0,0,.63Z" transform="translate(-65.1 -70.99)"/><path class="cls-5" d="M257,261.24v1a2.57,2.57,0,0,1,0,.62,2.57,2.57,0,0,0,0-.62v-1a3.32,3.32,0,0,1,0-.63,3.31,3.31,0,0,0,0,.63Z" transform="translate(-65.1 -70.99)"/><path class="cls-5" d="M263.33,262.85v.61a3.21,3.21,0,0,1,0,.62,3.21,3.21,0,0,0,0-.62v-.61a2.57,2.57,0,0,1,0-.62,2.56,2.56,0,0,0,0,.62Z" transform="translate(-65.1 -70.99)"/><path class="cls-5" d="M261.22,265.47v.2a3.33,3.33,0,0,1,0,.63,3.32,3.32,0,0,0,0-.63v-.2a3.22,3.22,0,0,1,0-.62,3.2,3.2,0,0,0,0,.62Z" transform="translate(-65.1 -70.99)"/><path class="cls-5" d="M258.27,268.49v1.21a3.33,3.33,0,0,1,0,.63,3.31,3.31,0,0,0,0-.63v-1.21a3.21,3.21,0,0,1,0-.62,2.57,2.57,0,0,0,0,.62Z" transform="translate(-65.1 -70.99)"/><path class="cls-5" d="M262.49,271.11v.2a2.66,2.66,0,0,1,0,.63,2.66,2.66,0,0,0,0-.63v-.2a3.22,3.22,0,0,1,0-.62,3.21,3.21,0,0,0,0,.62Z" transform="translate(-65.1 -70.99)"/><path class="cls-5" d="M258.91,273.75s0-1.25,0-1.25,0,1.25,0,1.25Z" transform="translate(-65.1 -70.99)"/><path class="cls-5" d="M266.28,232.23v.8a3.33,3.33,0,0,1,0,.63,3.32,3.32,0,0,0,0-.63v-.8a3.31,3.31,0,0,1,0-.63,3.32,3.32,0,0,0,0,.63Z" transform="translate(-65.1 -70.99)"/><path class="cls-5" d="M258.28,230.62s0-1.25,0-1.25,0,1.25,0,1.25Z" transform="translate(-65.1 -70.99)"/><path class="cls-5" d="M262.07,230.21v.61a3.21,3.21,0,0,1,0,.62,2.58,2.58,0,0,0,0-.62v-.61a3.22,3.22,0,0,1,0-.62,3.21,3.21,0,0,0,0,.62Z" transform="translate(-65.1 -70.99)"/><path class="cls-5" d="M267.34,228.4v1a3.31,3.31,0,0,1,0,.63,2.66,2.66,0,0,0,0-.63v-1a3.33,3.33,0,0,1,0-.63,3.31,3.31,0,0,0,0,.63Z" transform="translate(-65.1 -70.99)"/><path class="cls-6" d="M268.3,233.53a1.91,1.91,0,0,0,.67,2.19" transform="translate(-65.1 -70.99)"/><path class="cls-6" d="M268.27,230.58a2,2,0,0,1,.73,1.62" transform="translate(-65.1 -70.99)"/><path class="cls-6" d="M263.52,231.27a1.05,1.05,0,0,1-.57,1.22" transform="translate(-65.1 -70.99)"/><path class="cls-6" d="M257.66,231.45V233" transform="translate(-65.1 -70.99)"/><path class="cls-6" d="M254.92,230.7a2.12,2.12,0,0,1-.86,1.44" transform="translate(-65.1 -70.99)"/><path class="cls-6" d="M254,228.64a2.25,2.25,0,0,1-.51,1.49" transform="translate(-65.1 -70.99)"/><path class="cls-6" d="M254.71,234.36a3.19,3.19,0,0,0-.89,1.78" transform="translate(-65.1 -70.99)"/><path class="cls-6" d="M255.61,239.51a1.93,1.93,0,0,1-.51,1.12" transform="translate(-65.1 -70.99)"/><path class="cls-6" d="M258.81,235.77a1.26,1.26,0,0,1-.25,1.23" transform="translate(-65.1 -70.99)"/><path class="cls-6" d="M262.38,235.26a7.14,7.14,0,0,1,1.15.88" transform="translate(-65.1 -70.99)"/><path class="cls-6" d="M265.2,239.8l.5.65" transform="translate(-65.1 -70.99)"/><path class="cls-6" d="M260.89,239.51v.94" transform="translate(-65.1 -70.99)"/><path class="cls-6" d="M267.29,242.21a1.38,1.38,0,0,1,.26,1.14" transform="translate(-65.1 -70.99)"/><path class="cls-6" d="M266.37,245.61l.9,1.3" transform="translate(-65.1 -70.99)"/><path class="cls-6" d="M259.31,244.38a2.81,2.81,0,0,1-.95,1.33" transform="translate(-65.1 -70.99)"/><path class="cls-6" d="M255.7,244.48a1.92,1.92,0,0,1-1.07,1.71" transform="translate(-65.1 -70.99)"/><path class="cls-6" d="M255.41,250.66a1.67,1.67,0,0,1-.41,1.12" transform="translate(-65.1 -70.99)"/><path class="cls-6" d="M261.28,249v1" transform="translate(-65.1 -70.99)"/><path class="cls-6" d="M263,248.79a1.15,1.15,0,0,1,.79.46" transform="translate(-65.1 -70.99)"/><path class="cls-6" d="M266.77,250.3l.88.46" transform="translate(-65.1 -70.99)"/><path class="cls-6" d="M266.12,252.26a2.26,2.26,0,0,0,.64,2.26" transform="translate(-65.1 -70.99)"/><path class="cls-6" d="M254.74,254.36a2.22,2.22,0,0,1-1.1.28" transform="translate(-65.1 -70.99)"/><path class="cls-35" d="M257.64,274.39a38.56,38.56,0,0,0,1.43,8.16c.38,1.41.6,3,1.1,4.35q.58,4.56.42-2,.32-7.33-.15-.41c-.62,6.12-1.8,12.16-2,18.34-.34,11.39-.5,22.9,2.52,34-1.26-4.62,1.28-10.32,0-15a69,69,0,0,1-1.85-8.65c-.57-3.92.78-6.41-.57,2.37.26-1.68.26-3.43.45-5.13.65-5.67,1.67-11.26,1.8-17,.11-5.16.15-10.35,0-15.51-.2-6.19-2.82-11.87-3.11-18,.17,3.57-.25,9.93,0,14.47Z" transform="translate(-65.1 -70.99)"/></svg>