<svg id="Layer_1" data-name="Layer 1" xmlns="http://www.w3.org/2000/svg" xmlns:xlink="http://www.w3.org/1999/xlink" viewBox="0 0 410.29 417.9"><defs><style>.cls-1{fill:#e4e1c7;}.cls-2{fill:#512e2a;}.cls-3,.cls-4{fill:#9e2b20;}.cls-14,.cls-23,.cls-4,.cls-6{stroke:#231f20;}.cls-14,.cls-15,.cls-16,.cls-17,.cls-21,.cls-22,.cls-23,.cls-32,.cls-4,.cls-6,.cls-8{stroke-miterlimit:10;}.cls-5{fill:#231f20;}.cls-16,.cls-6,.cls-8{fill:none;}.cls-23,.cls-6{stroke-width:0.25px;}.cls-7{fill:#c2b59b;}.cls-8{stroke:#9b8579;}.cls-9{fill:#b1a58e;}.cls-10{fill:#9b8579;}.cls-11{fill:#1e4496;}.cls-12,.cls-17{fill:#234093;}.cls-13{fill:#124b9a;}.cls-14,.cls-15,.cls-20,.cls-21,.cls-22,.cls-23{fill:#fff;}.cls-15{stroke:#f9a560;}.cls-16{stroke:#283c91;}.cls-17{stroke:#262262;stroke-width:0.5px;}.cls-18{fill:#fff200;}.cls-19{fill:#d1d3d4;}.cls-21{stroke:url(#White_Black);}.cls-22{stroke:url(#White_Black-2);}.cls-24{fill:#fde79e;}.cls-25{fill:#fbeac8;}.cls-26{fill:#e5e1c5;}.cls-27{fill:#f9c9de;}.cls-28{fill:#8d536f;}.cls-29{fill:#e3e2db;}.cls-30{fill:#d0cca8;}.cls-31{fill:url(#White_Black-3);}.cls-32{fill:#2e3192;stroke:#00aeef;}.cls-33{fill:#cfcdb4;}.cls-34{fill:#726658;}.cls-35{fill:#603913;}.cls-36{fill:#ed2024;}</style><linearGradient id="White_Black" x1="267.91" y1="119.85" x2="300.72" y2="119.85" gradientTransform="matrix(1, 0, 0, -1, -45.15, 239.69)" gradientUnits="userSpaceOnUse"><stop offset="0" stop-color="#fff"/><stop offset="1" stop-color="#231f20"/></linearGradient><linearGradient id="White_Black-2" x1="226.47" y1="119.85" x2="259.28" y2="119.85" gradientTransform="matrix(1, 0, 0, -1, 37.74, 239.69)" xlink:href="#White_Black"/><linearGradient id="White_Black-3" x1="264.15" y1="118.86" x2="255.68" y2="118.86" gradientTransform="matrix(1, 0, 0, 1, 0, 0)" xlink:href="#White_Black"/></defs><title>19</title><polyline class="cls-1" points="229.08 334.96 222.47 400.24 215.03 399.87 214.28 334.22"/><polyline class="cls-1" points="182.97 334.96 189.58 400.24 197.02 399.87 197.76 334.22"/><path class="cls-2" d="M230.77,475.18s-20.25,10.71-7.52,12.21l12.73,1.5h16.19s6.73-4.74,6.73-11.59" transform="translate(-53.67 -70.99)"/><path class="cls-2" d="M286.2,475.18s20.24,10.71,7.52,12.21L281,488.89H264.8s-5.9-4.74-5.9-11.59" transform="translate(-53.67 -70.99)"/><path class="cls-3" d="M244.2,470.46s-33.1,10.7-20.38,12.2l12.73,1.49h16.19s6.16,0,6.16-6.85l-7.23-6.23h-.53" transform="translate(-53.67 -70.99)"/><path class="cls-3" d="M266.6,470.13l-7.39,7.17c0,6.85,6.16,6.85,6.16,6.85h16.19l12.73-1.49c12.73-1.5-18.15-12.21-18.15-12.21" transform="translate(-53.67 -70.99)"/><path class="cls-4" d="M259.31,477" transform="translate(-53.67 -70.99)"/><path class="cls-5" d="M276,409.9v-1.25s0,1.25,0,1.25Z" transform="translate(-53.67 -70.99)"/><path class="cls-5" d="M244.38,409.27v.4a3.31,3.31,0,0,1,0,.63,2.66,2.66,0,0,0,0-.63v-.4a3.22,3.22,0,0,1,0-.62,3.21,3.21,0,0,0,0,.62Z" transform="translate(-53.67 -70.99)"/><path class="cls-5" d="M248.82,409.31v-1.25s0,1.25,0,1.25Z" transform="translate(-53.67 -70.99)"/><path class="cls-5" d="M270.57,414.52v2.22a3.22,3.22,0,0,1,0,.62,3.21,3.21,0,0,0,0-.62v-2.22a2.57,2.57,0,0,1,0-.62,2.57,2.57,0,0,0,0,.62Z" transform="translate(-53.67 -70.99)"/><path class="cls-5" d="M275.4,418.15v1.21a3.22,3.22,0,0,1,0,.62,3.2,3.2,0,0,0,0-.62v-1.21a3.22,3.22,0,0,1,0-.62,3.2,3.2,0,0,0,0,.62Z" transform="translate(-53.67 -70.99)"/><path class="cls-5" d="M277,422v1.21a2.57,2.57,0,0,1,0,.62,2.57,2.57,0,0,0,0-.62V422a3.33,3.33,0,0,1,0-.63,3.32,3.32,0,0,0,0,.63Z" transform="translate(-53.67 -70.99)"/><path class="cls-5" d="M280,421.78v.2a3.22,3.22,0,0,1,0,.62,3.21,3.21,0,0,0,0-.62v-.2a2.66,2.66,0,0,1,0-.63,2.66,2.66,0,0,0,0,.63Z" transform="translate(-53.67 -70.99)"/><path class="cls-5" d="M274,429.86s0-1.25,0-1.25,0,1.25,0,1.25Z" transform="translate(-53.67 -70.99)"/><path class="cls-5" d="M271.38,422v1.41a3.21,3.21,0,0,1,0,.62,3.21,3.21,0,0,0,0-.62V422a3.33,3.33,0,0,1,0-.63,3.32,3.32,0,0,0,0,.63Z" transform="translate(-53.67 -70.99)"/><path class="cls-5" d="M271.58,431v1.62a2.57,2.57,0,0,1,0,.62,2.57,2.57,0,0,0,0-.62V431a3.21,3.21,0,0,1,0-.62,3.21,3.21,0,0,0,0,.62Z" transform="translate(-53.67 -70.99)"/><path class="cls-5" d="M277.82,434.07v.6a3.33,3.33,0,0,1,0,.63,3.32,3.32,0,0,0,0-.63v-.6a3.33,3.33,0,0,1,0-.63,3.32,3.32,0,0,0,0,.63Z" transform="translate(-53.67 -70.99)"/><path class="cls-5" d="M275.81,436.28v1.62a2.57,2.57,0,0,1,0,.62,2.57,2.57,0,0,0,0-.62v-1.62a3.21,3.21,0,0,1,0-.62,3.21,3.21,0,0,0,0,.62Z" transform="translate(-53.67 -70.99)"/><path class="cls-5" d="M273.19,437.29v1a2.57,2.57,0,0,1,0,.62,2.57,2.57,0,0,0,0-.62v-1a3.22,3.22,0,0,1,0-.62,3.21,3.21,0,0,0,0,.62Z" transform="translate(-53.67 -70.99)"/><path class="cls-5" d="M271.17,437.49v.2a3.33,3.33,0,0,1,0,.63,3.32,3.32,0,0,0,0-.63v-.2a3.22,3.22,0,0,1,0-.62,3.21,3.21,0,0,0,0,.62Z" transform="translate(-53.67 -70.99)"/><path class="cls-5" d="M270.77,441.72v1a3.32,3.32,0,0,1,0,.63,3.31,3.31,0,0,0,0-.63v-1a2.57,2.57,0,0,1,0-.62,2.57,2.57,0,0,0,0,.62Z" transform="translate(-53.67 -70.99)"/><path class="cls-5" d="M276.82,443.34v.6a3.21,3.21,0,0,1,0,.62,3.2,3.2,0,0,0,0-.62v-.6a3.33,3.33,0,0,1,0-.63,3.32,3.32,0,0,0,0,.63Z" transform="translate(-53.67 -70.99)"/><path class="cls-5" d="M274.8,446v.21a3.21,3.21,0,0,1,0,.62,3.21,3.21,0,0,0,0-.62V446a2.57,2.57,0,0,1,0-.62,2.57,2.57,0,0,0,0,.62Z" transform="translate(-53.67 -70.99)"/><path class="cls-5" d="M272,449v1.21a3.21,3.21,0,0,1,0,.62,3.21,3.21,0,0,0,0-.62V449a2.66,2.66,0,0,1,0-.63,2.66,2.66,0,0,0,0,.63Z" transform="translate(-53.67 -70.99)"/><path class="cls-5" d="M276,451.6v.2a3.22,3.22,0,0,1,0,.62,3.21,3.21,0,0,0,0-.62v-.2a2.66,2.66,0,0,1,0-.63,2.66,2.66,0,0,0,0,.63Z" transform="translate(-53.67 -70.99)"/><path class="cls-5" d="M272.59,454.24s0-1.25,0-1.25,0,1.25,0,1.25Z" transform="translate(-53.67 -70.99)"/><path class="cls-5" d="M279.64,412.71v.81a3.21,3.21,0,0,1,0,.62,2.57,2.57,0,0,0,0-.62v-.81a3.22,3.22,0,0,1,0-.62,3.21,3.21,0,0,0,0,.62Z" transform="translate(-53.67 -70.99)"/><path class="cls-5" d="M272,411.1s0-1.25,0-1.25,0,1.25,0,1.25Z" transform="translate(-53.67 -70.99)"/><path class="cls-5" d="M275.61,410.7v.6a3.21,3.21,0,0,1,0,.62,2.56,2.56,0,0,0,0-.62v-.6a3.33,3.33,0,0,1,0-.63,3.32,3.32,0,0,0,0,.63Z" transform="translate(-53.67 -70.99)"/><path class="cls-5" d="M280.64,408.88v1a3.22,3.22,0,0,1,0,.62,3.2,3.2,0,0,0,0-.62v-1a3.22,3.22,0,0,1,0-.62,3.21,3.21,0,0,0,0,.62Z" transform="translate(-53.67 -70.99)"/><path class="cls-6" d="M281.56,414a2,2,0,0,0,.64,2.18" transform="translate(-53.67 -70.99)"/><path class="cls-6" d="M281.53,411.07a2,2,0,0,1,.7,1.62" transform="translate(-53.67 -70.99)"/><path class="cls-6" d="M277,411.75a1.07,1.07,0,0,1-.55,1.22" transform="translate(-53.67 -70.99)"/><path class="cls-6" d="M271.39,411.94v1.5" transform="translate(-53.67 -70.99)"/><path class="cls-6" d="M268.77,411.19a2.15,2.15,0,0,1-.82,1.44" transform="translate(-53.67 -70.99)"/><path class="cls-6" d="M267.94,409.13a2.32,2.32,0,0,1-.5,1.48" transform="translate(-53.67 -70.99)"/><path class="cls-6" d="M268.58,414.84a3.35,3.35,0,0,0-.86,1.78" transform="translate(-53.67 -70.99)"/><path class="cls-6" d="M269.44,420a2.06,2.06,0,0,1-.49,1.12" transform="translate(-53.67 -70.99)"/><path class="cls-6" d="M272.49,416.26a1.31,1.31,0,0,1-.23,1.23" transform="translate(-53.67 -70.99)"/><path class="cls-6" d="M275.91,415.75a6.64,6.64,0,0,1,1.1.88" transform="translate(-53.67 -70.99)"/><path class="cls-6" d="M278.6,420.28l.48.65" transform="translate(-53.67 -70.99)"/><path class="cls-6" d="M274.48,420v.93" transform="translate(-53.67 -70.99)"/><path class="cls-6" d="M280.6,422.7a1.34,1.34,0,0,1,.24,1.13" transform="translate(-53.67 -70.99)"/><path class="cls-6" d="M279.72,426.09l.86,1.3" transform="translate(-53.67 -70.99)"/><path class="cls-6" d="M273,424.86a2.8,2.8,0,0,1-.91,1.34" transform="translate(-53.67 -70.99)"/><path class="cls-6" d="M269.52,425a1.92,1.92,0,0,1-1,1.71" transform="translate(-53.67 -70.99)"/><path class="cls-6" d="M269.24,431.15a1.72,1.72,0,0,1-.38,1.11" transform="translate(-53.67 -70.99)"/><path class="cls-6" d="M274.86,429.46v1" transform="translate(-53.67 -70.99)"/><path class="cls-6" d="M276.45,429.28a1,1,0,0,1,.75.46" transform="translate(-53.67 -70.99)"/><path class="cls-6" d="M280.1,430.78l.84.47" transform="translate(-53.67 -70.99)"/><path class="cls-6" d="M279.48,432.75a2.32,2.32,0,0,0,.61,2.25" transform="translate(-53.67 -70.99)"/><path class="cls-6" d="M268.61,434.85a2.07,2.07,0,0,1-1.06.27" transform="translate(-53.67 -70.99)"/><path class="cls-5" d="M248.69,415.35v2.21a3.33,3.33,0,0,1,0,.63,3.32,3.32,0,0,0,0-.63v-2.21a3.33,3.33,0,0,1,0-.63,3.32,3.32,0,0,0,0,.63Z" transform="translate(-53.67 -70.99)"/><path class="cls-5" d="M243.86,419v1.21a2.66,2.66,0,0,1,0,.63,2.66,2.66,0,0,0,0-.63V419a3.21,3.21,0,0,1,0-.62,3.21,3.21,0,0,0,0,.62Z" transform="translate(-53.67 -70.99)"/><path class="cls-5" d="M242.25,422.8V424a2.66,2.66,0,0,1,0,.63,2.66,2.66,0,0,0,0-.63V422.8a3.21,3.21,0,0,1,0-.62,3.21,3.21,0,0,0,0,.62Z" transform="translate(-53.67 -70.99)"/><path class="cls-5" d="M239.22,422.6v.2a3.33,3.33,0,0,1,0,.63,3.32,3.32,0,0,0,0-.63v-.2a3.22,3.22,0,0,1,0-.62,3.21,3.21,0,0,0,0,.62Z" transform="translate(-53.67 -70.99)"/><path class="cls-5" d="M245.28,430.68v-1.25s0,1.25,0,1.25Z" transform="translate(-53.67 -70.99)"/><path class="cls-5" d="M247.89,422.8v1.41a2.66,2.66,0,0,1,0,.63,2.66,2.66,0,0,0,0-.63V422.8a3.21,3.21,0,0,1,0-.62,3.21,3.21,0,0,0,0,.62Z" transform="translate(-53.67 -70.99)"/><path class="cls-5" d="M247.69,431.87v1.61a2.66,2.66,0,0,1,0,.63,2.66,2.66,0,0,0,0-.63v-1.61a3.32,3.32,0,0,1,0-.63,3.31,3.31,0,0,0,0,.63Z" transform="translate(-53.67 -70.99)"/><path class="cls-5" d="M241.44,434.89v.61a3.21,3.21,0,0,1,0,.62,3.21,3.21,0,0,0,0-.62v-.61a2.57,2.57,0,0,1,0-.62,2.57,2.57,0,0,0,0,.62Z" transform="translate(-53.67 -70.99)"/><path class="cls-5" d="M243.46,437.11v1.61a3.21,3.21,0,0,1,0,.62,2.56,2.56,0,0,0,0-.62v-1.61a3.33,3.33,0,0,1,0-.63,3.32,3.32,0,0,0,0,.63Z" transform="translate(-53.67 -70.99)"/><path class="cls-5" d="M246.07,438.12v1a3.33,3.33,0,0,1,0,.63,3.32,3.32,0,0,0,0-.63v-1a3.33,3.33,0,0,1,0-.63,3.32,3.32,0,0,0,0,.63Z" transform="translate(-53.67 -70.99)"/><path class="cls-5" d="M248.09,438.32v.2a3.22,3.22,0,0,1,0,.62,3.21,3.21,0,0,0,0-.62v-.2a2.66,2.66,0,0,1,0-.63,2.66,2.66,0,0,0,0,.63Z" transform="translate(-53.67 -70.99)"/><path class="cls-5" d="M248.49,442.55v1a3.21,3.21,0,0,1,0,.62,3.21,3.21,0,0,0,0-.62v-1a3.33,3.33,0,0,1,0-.63,3.32,3.32,0,0,0,0,.63Z" transform="translate(-53.67 -70.99)"/><path class="cls-5" d="M242.45,444.16v.6a2.66,2.66,0,0,1,0,.63,2.66,2.66,0,0,0,0-.63v-.6a3.32,3.32,0,0,1,0-.63,3.32,3.32,0,0,0,0,.63Z" transform="translate(-53.67 -70.99)"/><path class="cls-5" d="M244.46,446.78v.2a3.32,3.32,0,0,1,0,.63,3.32,3.32,0,0,0,0-.63v-.2a3.32,3.32,0,0,1,0-.63,3.32,3.32,0,0,0,0,.63Z" transform="translate(-53.67 -70.99)"/><path class="cls-5" d="M247.28,449.8V451a3.32,3.32,0,0,1,0,.63,3.32,3.32,0,0,0,0-.63V449.8a3.22,3.22,0,0,1,0-.62,3.21,3.21,0,0,0,0,.62Z" transform="translate(-53.67 -70.99)"/><path class="cls-5" d="M243.25,452.42v.2a3.33,3.33,0,0,1,0,.63,3.32,3.32,0,0,0,0-.63v-.2a3.22,3.22,0,0,1,0-.62,3.2,3.2,0,0,0,0,.62Z" transform="translate(-53.67 -70.99)"/><path class="cls-5" d="M246.69,455.06s0-1.25,0-1.25,0,1.25,0,1.25Z" transform="translate(-53.67 -70.99)"/><path class="cls-5" d="M239.63,413.53v.81a2.66,2.66,0,0,1,0,.63,2.66,2.66,0,0,0,0-.63v-.81a3.21,3.21,0,0,1,0-.62,3.21,3.21,0,0,0,0,.62Z" transform="translate(-53.67 -70.99)"/><path class="cls-5" d="M247.29,409.93s0-1.25,0-1.25,0,1.25,0,1.25Z" transform="translate(-53.67 -70.99)"/><path class="cls-5" d="M243.26,410.72s0-1.25,0-1.25,0,1.25,0,1.25Z" transform="translate(-53.67 -70.99)"/><path class="cls-5" d="M243.66,411.52v.6a2.66,2.66,0,0,1,0,.63,2.66,2.66,0,0,0,0-.63v-.6a3.32,3.32,0,0,1,0-.63,3.32,3.32,0,0,0,0,.63Z" transform="translate(-53.67 -70.99)"/><path class="cls-5" d="M238.62,409.71v1a3.33,3.33,0,0,1,0,.63,3.31,3.31,0,0,0,0-.63v-1a2.66,2.66,0,0,1,0-.63,2.66,2.66,0,0,0,0,.63Z" transform="translate(-53.67 -70.99)"/><path class="cls-6" d="M237.72,414.84a2,2,0,0,1-.64,2.19" transform="translate(-53.67 -70.99)"/><path class="cls-6" d="M237.74,411.89a2,2,0,0,0-.7,1.62" transform="translate(-53.67 -70.99)"/><path class="cls-6" d="M242.28,412.58a1.07,1.07,0,0,0,.54,1.22" transform="translate(-53.67 -70.99)"/><path class="cls-6" d="M247.88,412.76v1.5" transform="translate(-53.67 -70.99)"/><path class="cls-6" d="M250.5,412a2.14,2.14,0,0,0,.82,1.44" transform="translate(-53.67 -70.99)"/><path class="cls-6" d="M251.34,410a2.3,2.3,0,0,0,.49,1.49" transform="translate(-53.67 -70.99)"/><path class="cls-6" d="M250.7,415.66a3.26,3.26,0,0,1,.85,1.78" transform="translate(-53.67 -70.99)"/><path class="cls-6" d="M249.84,420.82a2,2,0,0,0,.49,1.12" transform="translate(-53.67 -70.99)"/><path class="cls-6" d="M246.78,417.08a1.33,1.33,0,0,0,.24,1.23" transform="translate(-53.67 -70.99)"/><path class="cls-6" d="M243.37,416.57a6.74,6.74,0,0,0-1.1.88" transform="translate(-53.67 -70.99)"/><path class="cls-6" d="M240.68,421.11l-.48.64" transform="translate(-53.67 -70.99)"/><path class="cls-6" d="M244.79,420.82v.94" transform="translate(-53.67 -70.99)"/><path class="cls-6" d="M238.68,423.52a1.37,1.37,0,0,0-.25,1.14" transform="translate(-53.67 -70.99)"/><path class="cls-6" d="M239.55,426.91l-.85,1.31" transform="translate(-53.67 -70.99)"/><path class="cls-6" d="M246.3,425.69a2.87,2.87,0,0,0,.91,1.33" transform="translate(-53.67 -70.99)"/><path class="cls-6" d="M249.75,425.79a1.92,1.92,0,0,0,1,1.71" transform="translate(-53.67 -70.99)"/><path class="cls-6" d="M250,432a1.7,1.7,0,0,0,.39,1.12" transform="translate(-53.67 -70.99)"/><path class="cls-6" d="M244.42,430.28v1" transform="translate(-53.67 -70.99)"/><path class="cls-6" d="M242.83,430.1a1.06,1.06,0,0,0-.76.46" transform="translate(-53.67 -70.99)"/><path class="cls-6" d="M239.18,431.61l-.85.46" transform="translate(-53.67 -70.99)"/><path class="cls-6" d="M239.79,433.57a2.33,2.33,0,0,1-.6,2.26" transform="translate(-53.67 -70.99)"/><path class="cls-6" d="M250.67,435.67a2,2,0,0,0,1.05.27" transform="translate(-53.67 -70.99)"/><polygon class="cls-7" points="165.35 336.55 246.71 336.55 269.15 271.16 142.91 271.16 165.35 336.55"/><line class="cls-8" x1="205.37" y1="283.69" x2="205.37" y2="336.55"/><path class="cls-9" d="M208.73,354l17.47,53.16h-7.61l-20.54-61S206.56,352.69,208.73,354Z" transform="translate(-53.67 -70.99)"/><path class="cls-9" d="M294.79,379.87l5.48,3.08,10.34-5.21,3.54-1.79-1.82-3.24s-11.56,7.63-17.54,7.16l-2.68,15.94s11.07-.17,13.92-4.74l4.4-12.8" transform="translate(-53.67 -70.99)"/><path class="cls-10" d="M294.79,379.87l5.51,3h-.06c4.59-2.4,9.22-4.73,13.84-7.08L314,376l-1.83-3.23.25.06a70.23,70.23,0,0,1-8.39,4.69,35.45,35.45,0,0,1-4.48,1.79,13.56,13.56,0,0,1-4.79.78l.26-.21-2.74,15.93-.19-.22a35.32,35.32,0,0,0,7.46-1,16.72,16.72,0,0,0,3.53-1.28,7.12,7.12,0,0,0,2.83-2.35l0,0,4.53-12.76-4.27,12.85h0a7.35,7.35,0,0,1-2.92,2.47,16.86,16.86,0,0,1-3.57,1.33,35.59,35.59,0,0,1-7.54,1.06h-.23l0-.23,2.62-15.95,0-.23.23,0a13.17,13.17,0,0,0,4.62-.72,35.64,35.64,0,0,0,4.43-1.73,72.58,72.58,0,0,0,8.38-4.61l.16-.1.09.16,1.81,3.25.08.15-.15.08c-4.64,2.31-9.27,4.64-13.93,6.91l0,0,0,0Z" transform="translate(-53.67 -70.99)"/><path class="cls-9" d="M224.8,379.87,219.32,383,209,377.74,205.43,376l1.82-3.24s11.57,7.63,17.55,7.16l2.68,15.94s-11.07-.17-13.92-4.74l-4.4-12.8" transform="translate(-53.67 -70.99)"/><path class="cls-10" d="M224.8,379.87,219.35,383l0,0,0,0c-4.66-2.27-9.29-4.6-13.93-6.91l-.15-.08.08-.15,1.81-3.25.09-.16.16.1a72.45,72.45,0,0,0,8.37,4.61,36.4,36.4,0,0,0,4.44,1.73,13.17,13.17,0,0,0,4.62.72l.23,0,0,.23,2.62,15.95,0,.23h-.23a35.5,35.5,0,0,1-7.54-1.06,17.15,17.15,0,0,1-3.58-1.33,7.49,7.49,0,0,1-2.92-2.47h0l-4.27-12.85L213.68,391v0a7.12,7.12,0,0,0,2.83,2.35,16.64,16.64,0,0,0,3.52,1.28,35.5,35.5,0,0,0,7.46,1l-.19.22-2.73-15.93.26.21a13.62,13.62,0,0,1-4.8-.78,36.06,36.06,0,0,1-4.48-1.79,70.89,70.89,0,0,1-8.38-4.69l.25-.06L205.58,376l-.07-.22c4.61,2.35,9.24,4.68,13.84,7.08h-.06Z" transform="translate(-53.67 -70.99)"/><path class="cls-9" d="M259.7,369.14a92.13,92.13,0,0,0,9.58-.5l-1.14,38.89H259.7Z" transform="translate(-53.67 -70.99)"/><path class="cls-11" d="M335.12,159.22s211,19.42,92.94,177.92l-31.37-10.62" transform="translate(-53.67 -70.99)"/><path class="cls-12" d="M182.51,159.22s-211,19.42-92.93,177.92L121,326.52" transform="translate(-53.67 -70.99)"/><ellipse class="cls-13" cx="205.89" cy="196.11" rx="157.27" ry="123.25"/><path class="cls-14" d="M172.07,350.53" transform="translate(-53.67 -70.99)"/><path class="cls-15" d="M94.41,335.73s9.74,11.31,37.16,7.6l2.54-1,.54-.36s-13-14-13.5-16.33" transform="translate(-53.67 -70.99)"/><path class="cls-15" d="M425.18,336.94s-9.73,11.31-37.15,7.6l-2.54-1-.54-.37s13-14,13.49-16.32" transform="translate(-53.67 -70.99)"/><polyline class="cls-16" points="206.82 317.92 206.82 108.84 229.49 122.26 272.73 95.12"/><path class="cls-17" d="M154.07,224.45s-16.81,23.31-9.66,33.41l19.11,7.38,23.31-5.05,10.7-33.41" transform="translate(-53.67 -70.99)"/><polyline class="cls-16" points="203.6 317.92 203.6 108.84 180.93 122.26 137.69 95.12"/><path class="cls-18" d="M182.77,190.31l.12-.21a3.65,3.65,0,0,1,1.29-1.23,7.58,7.58,0,0,1,4-1,8.14,8.14,0,0,1,2.44.37c.06,0,.08,0,.11,0l3.39-3.2a2.18,2.18,0,0,1,1.62-.5l.2,0,1.88.27h.06l-.27.68-.09,0-1.75-.25a.77.77,0,0,0-.72.17l-1,1,0,0h.08l9.05,1.33a.13.13,0,0,0,.12,0l.68-.52.05-.05h-.09l-1.53-.22c-.23,0-.4-.15-.43-.29s.08-.29.29-.36a.74.74,0,0,1,.42,0l4.11.6h.07l-.26.68h-.08l-1.22-.18a.13.13,0,0,0-.11,0l-1.09.85s0,0,0,.05c.24.72.49,1.43.73,2.14,0,0,0,0,0,0l.54,0a9,9,0,0,1,1.89.19,5.7,5.7,0,0,1,3,1.57,2.35,2.35,0,0,1,.7,1.83c-.13,1.26-1.08,2.22-2.85,2.85a8.08,8.08,0,0,1-3.14.43l-.51,0h-.07l-.6-.09h-.07c-.29-.08-.59-.14-.86-.22a4.9,4.9,0,0,1-2.51-1.59,2.28,2.28,0,0,1-.52-1.78l0-.2h-.09l-2.27-.33a.78.78,0,0,1-.47-.23l-.68-.8c-.6-.7-1.21-1.4-1.81-2.11s-1.06-1.23-1.58-1.85l-.3-.34-1,1h0l.06,0c1.48.8,2.16,1.8,2,3a2.42,2.42,0,0,1-.55,1.17,5.61,5.61,0,0,1-3.27,1.74,8.78,8.78,0,0,1-2.35.14l-.36,0-.62-.09-.07,0c-.26-.07-.54-.12-.8-.2a4.51,4.51,0,0,1-2.88-2.1,2.11,2.11,0,0,1-.2-1.37c0-.07,0-.15.05-.23Zm8.2-1.08-.05,0-1.69,1.6-.61.57a.78.78,0,0,1-.75.12c-.29-.1-.37-.32-.17-.51l2.29-2.16,0,0c-1.91-.57-4.44-.23-5.7,1.06s-.61,2.9,1.4,3.7a6.29,6.29,0,0,0,6.05-.77C193.11,191.62,192.62,190.08,191,189.23Zm10,4.28c-.22.94.48,2.13,2.3,2.74a6.53,6.53,0,0,0,5.39-.59c1.34-.92,1.5-2.31.39-3.33a5.71,5.71,0,0,0-4-1.2l.16.49.72,2.09a.22.22,0,0,1,0,.22.68.68,0,0,1-.68.2l-4.14-.61Zm-7.62-6.5,4.29,5,4.78-3.67Zm10.34,3.55-.57-1.65-4.57,3.51,1.56.23A5.31,5.31,0,0,1,203.67,190.56Zm-2.43,2.26,3.37.5-.7-2.06A4.16,4.16,0,0,0,201.24,192.82Z" transform="translate(-53.67 -70.99)"/><path class="cls-18" d="M192,214.57c0-.08,0-.15,0-.23a2.68,2.68,0,0,1,.79-1.38,6.15,6.15,0,0,1,3.51-1.55,8.73,8.73,0,0,1,2.5,0c.07,0,.09,0,.1,0l2.1-3.59a1.71,1.71,0,0,1,1.38-.72h2.2v.7h-1.9c-.34,0-.52.08-.64.28-.2.36-.41.71-.62,1.07,0,0,0,0,0,.05h9.38c.06,0,.09,0,.11,0,.15-.21.31-.41.47-.61l0-.05h-1.67a.64.64,0,0,1-.53-.22.28.28,0,0,1,.14-.39.88.88,0,0,1,.41-.09h4.29v.7h-1.33a.11.11,0,0,0-.1,0l-.75,1a.06.06,0,0,0,0,.06l1.51,2,0,0,.52-.09a8.59,8.59,0,0,1,1.9-.09,7.19,7.19,0,0,1,3.54,1.1,3.1,3.1,0,0,1,1.37,1.68c.35,1.24-.22,2.3-1.69,3.17a7,7,0,0,1-2.9.88l-.51,0h-.76c-.31,0-.62,0-.92-.09a6.56,6.56,0,0,1-3-1.18,3,3,0,0,1-1.18-1.66c0-.06,0-.13,0-.2h-2.43a.83.83,0,0,1-.53-.14l-1-.68-2.56-1.8L201,210.88l-.42-.29-.62,1.07h0l.07,0c1.74.56,2.78,1.43,3.07,2.64a2,2,0,0,1-.1,1.21,4,4,0,0,1-2.53,2.16,7.5,7.5,0,0,1-2.22.48l-.37,0h-.7c-.28,0-.57,0-.85-.08a6.1,6.1,0,0,1-3.6-1.62,2.66,2.66,0,0,1-.71-1.31c0-.07,0-.15,0-.23Zm7.57-2.23,0,0-1,1.79-.38.65a.67.67,0,0,1-.68.22c-.33-.06-.48-.26-.36-.47l1.41-2.43,0-.05c-2.08-.28-4.42.41-5.16,1.85s.5,2.9,2.76,3.39,4.75-.22,5.6-1.61S201.47,212.93,199.54,212.34Zm11.33,2.73c.13,1,1.26,2,3.26,2.34a5.75,5.75,0,0,0,5-1.34c1-1.09.59-2.47-.87-3.3a6.55,6.55,0,0,0-4.36-.59l.35.45,1.48,1.93a.23.23,0,0,1,.06.22c-.05.18-.28.29-.59.29h-4.35ZM201,209.85l6.06,4.25,3.26-4.25Zm11.39,2-1.17-1.51-3.12,4.06h1.61A3.87,3.87,0,0,1,212.39,211.81Zm-1.51,2.55h3.47l-1.46-1.9A3.05,3.05,0,0,0,210.88,214.36Z" transform="translate(-53.67 -70.99)"/><path class="cls-18" d="M208.62,238.87c0-.08,0-.15,0-.23a2.68,2.68,0,0,1,.79-1.38,6.15,6.15,0,0,1,3.5-1.55,8.79,8.79,0,0,1,2.51,0c.06,0,.08,0,.1,0l2.1-3.59a1.71,1.71,0,0,1,1.38-.72l.21,0h2v.7h-1.89c-.34,0-.52.08-.64.28s-.41.71-.62,1.07a.11.11,0,0,0,0,0h9.39a.11.11,0,0,0,.11,0l.46-.6a.1.1,0,0,0,0-.05h-1.66a.63.63,0,0,1-.53-.22c-.09-.14,0-.29.14-.39a.84.84,0,0,1,.4-.09h4.3v.7h-1.34c-.05,0-.07,0-.09,0l-.75,1s0,.05,0,.06l1.51,2,0,0,.51-.09a8.68,8.68,0,0,1,1.91-.09,7.19,7.19,0,0,1,3.54,1.1,3.11,3.11,0,0,1,1.37,1.68c.35,1.24-.22,2.3-1.7,3.17a7,7,0,0,1-2.89.87l-.51,0h-.77c-.3,0-.61,0-.91-.09a6.52,6.52,0,0,1-3-1.18,3,3,0,0,1-1.18-1.66,1.42,1.42,0,0,1,0-.2h-2.43a.86.86,0,0,1-.54-.15l-1-.67-2.56-1.8-2.24-1.57-.41-.29-.62,1.06h0l.07,0c1.74.56,2.78,1.43,3.06,2.64a1.94,1.94,0,0,1-.09,1.21,4,4,0,0,1-2.53,2.16,7.57,7.57,0,0,1-2.22.48l-.37,0h-.7c-.29,0-.58,0-.86-.08a6,6,0,0,1-3.59-1.63,2.52,2.52,0,0,1-.71-1.3c0-.08,0-.15,0-.23Zm7.57-2.23s0,0,0,.05l-1,1.79-.37.65a.68.68,0,0,1-.69.22c-.32-.06-.48-.26-.35-.47l1.41-2.43,0,0c-2.07-.28-4.41.41-5.15,1.85s.5,2.9,2.76,3.39,4.75-.22,5.6-1.61S218.12,237.23,216.19,236.64Zm11.32,2.73c.14.95,1.27,2,3.27,2.34a5.79,5.79,0,0,0,5-1.34c1-1.09.59-2.47-.88-3.3a6.46,6.46,0,0,0-4.35-.59l.34.45,1.49,1.93a.26.26,0,0,1,.06.22c-.06.18-.28.29-.59.29h-4.36Zm-9.86-5.23,6,4.26,3.27-4.26Zm11.39,2-1.17-1.51-3.13,4.06h1.62A3.85,3.85,0,0,1,229,236.11Zm-1.51,2.55H231l-1.46-1.9A3.05,3.05,0,0,0,227.53,238.66Z" transform="translate(-53.67 -70.99)"/><path class="cls-18" d="M214.83,269c0-.07,0-.15,0-.22a2.64,2.64,0,0,1,.79-1.38,6.15,6.15,0,0,1,3.51-1.55,8.38,8.38,0,0,1,2.5,0c.07,0,.08,0,.1,0l2.1-3.6a1.71,1.71,0,0,1,1.38-.72h2.2v.7h-1.9c-.34,0-.52.08-.64.27-.2.36-.41.72-.62,1.07l0,.05h9.38c.06,0,.09,0,.11,0l.47-.6,0-.05H232.6a.64.64,0,0,1-.53-.22.28.28,0,0,1,.14-.39.78.78,0,0,1,.41-.09h4.29v.7h-1.33a.13.13,0,0,0-.1,0l-.75,1a.06.06,0,0,0,0,.06l1.51,2,0,0c.17,0,.34-.07.52-.09a8.59,8.59,0,0,1,1.9-.09,7.19,7.19,0,0,1,3.54,1.09,3.1,3.1,0,0,1,1.37,1.68c.35,1.24-.22,2.31-1.69,3.18a7,7,0,0,1-2.9.87l-.51,0h-.77c-.3,0-.61-.05-.91-.09a6.46,6.46,0,0,1-3-1.19,3,3,0,0,1-1.18-1.66c0-.06,0-.12,0-.19h-2.43a1,1,0,0,1-.54-.15c-.31-.23-.64-.45-1-.68-.85-.6-1.7-1.2-2.56-1.79l-2.23-1.58-.42-.29-.62,1.07h0l.07,0c1.74.57,2.78,1.44,3.07,2.64a2,2,0,0,1-.1,1.22,4.05,4.05,0,0,1-2.53,2.16,7.82,7.82,0,0,1-2.22.48l-.37,0H220c-.29,0-.58,0-.85-.08a6.11,6.11,0,0,1-3.6-1.63,2.63,2.63,0,0,1-.71-1.3c0-.08,0-.16,0-.23Zm7.57-2.22,0,0-1.05,1.8c-.12.22-.24.43-.37.64a.69.69,0,0,1-.69.23c-.32-.06-.47-.26-.35-.47l1.41-2.43,0-.05c-2.08-.29-4.42.41-5.16,1.84s.5,2.91,2.76,3.4,4.75-.22,5.6-1.61S224.33,267.4,222.4,266.81Zm11.33,2.73c.13.95,1.26,2,3.26,2.33a5.78,5.78,0,0,0,5-1.33c1-1.1.59-2.47-.88-3.3a6.46,6.46,0,0,0-4.35-.59c.12.15.23.3.35.44l1.48,1.94a.22.22,0,0,1,.06.21c0,.19-.28.3-.59.3h-4.35Zm-9.87-5.23,6.06,4.25,3.26-4.25Zm11.39,2-1.17-1.52L231,268.83h1.62A3.85,3.85,0,0,1,235.25,266.28Zm-1.51,2.55h3.47l-1.46-1.9A3.05,3.05,0,0,0,233.74,268.83Z" transform="translate(-53.67 -70.99)"/><path class="cls-18" d="M214.83,300.64c0-.08,0-.15,0-.22a2.67,2.67,0,0,1,.79-1.39,6.15,6.15,0,0,1,3.51-1.55,8.73,8.73,0,0,1,2.5,0c.07,0,.08,0,.1,0l2.1-3.6a1.71,1.71,0,0,1,1.38-.72h2.2v.69h-1.9c-.34,0-.52.08-.64.28-.2.36-.41.71-.62,1.07,0,0,0,0,0,.05h9.38c.06,0,.09,0,.11,0l.47-.6,0-.06H232.6a.64.64,0,0,1-.53-.22.28.28,0,0,1,.14-.39.88.88,0,0,1,.41-.09h4.29v.7h-1.33a.11.11,0,0,0-.1,0l-.75,1a.06.06,0,0,0,0,.06l1.51,2,0,0,.52-.09a8,8,0,0,1,1.9-.08,7.09,7.09,0,0,1,3.54,1.09,3.1,3.1,0,0,1,1.37,1.68c.35,1.24-.22,2.31-1.69,3.17a7,7,0,0,1-2.9.88l-.51,0h-.77c-.3,0-.61,0-.91-.09a6.56,6.56,0,0,1-3-1.18,3,3,0,0,1-1.18-1.66c0-.06,0-.13,0-.19h-2.43a1,1,0,0,1-.54-.15c-.31-.23-.64-.46-1-.68l-2.56-1.8L223.84,297l-.42-.29-.62,1.07h0l.07,0c1.74.56,2.78,1.44,3.07,2.64a2,2,0,0,1-.1,1.21,4,4,0,0,1-2.53,2.17,7.49,7.49,0,0,1-2.22.47l-.37,0H220a7.66,7.66,0,0,1-.85-.08,6,6,0,0,1-3.6-1.62,2.66,2.66,0,0,1-.71-1.31c0-.07,0-.15,0-.23Zm7.57-2.23,0,0-1.05,1.8-.37.64a.68.68,0,0,1-.69.22c-.32-.05-.47-.26-.35-.47l1.41-2.43,0-.05c-2.08-.28-4.42.41-5.16,1.85s.5,2.9,2.76,3.4,4.75-.23,5.6-1.62S224.33,299,222.4,298.41Zm11.33,2.74c.13.94,1.26,2,3.26,2.33a5.75,5.75,0,0,0,5-1.34c1-1.09.59-2.47-.88-3.3a6.52,6.52,0,0,0-4.35-.59l.35.45,1.48,1.93a.23.23,0,0,1,.06.22c0,.18-.28.29-.59.29h-4.35Zm-9.87-5.23,6.06,4.25,3.26-4.25Zm11.39,2-1.17-1.51L231,300.43h1.62A3.87,3.87,0,0,1,235.25,297.88Zm-1.51,2.55h3.47l-1.46-1.9A3.05,3.05,0,0,0,233.74,300.43Z" transform="translate(-53.67 -70.99)"/><path class="cls-18" d="M214.83,323.78c0-.07,0-.15,0-.22a2.7,2.7,0,0,1,.79-1.39,6.21,6.21,0,0,1,3.51-1.54,8.38,8.38,0,0,1,2.5,0c.07,0,.08,0,.1,0l2.1-3.6a1.71,1.71,0,0,1,1.38-.72h2.2v.7h-1.9c-.34,0-.52.08-.64.27-.2.36-.41.72-.62,1.07l0,.05h9.38c.06,0,.09,0,.11,0l.47-.6,0-.06H232.6a.62.62,0,0,1-.53-.22.27.27,0,0,1,.14-.38.78.78,0,0,1,.41-.1h4.29v.7h-1.33a.11.11,0,0,0-.1,0l-.75,1a.06.06,0,0,0,0,.06l1.51,2,0,0,.52-.1a9.25,9.25,0,0,1,1.9-.08,7.19,7.19,0,0,1,3.54,1.09,3.1,3.1,0,0,1,1.37,1.68c.35,1.24-.22,2.31-1.69,3.18a7,7,0,0,1-2.9.87l-.51,0h-.77c-.3,0-.61-.05-.91-.09a6.46,6.46,0,0,1-3-1.19,3,3,0,0,1-1.18-1.66c0-.06,0-.13,0-.19h-2.43a1,1,0,0,1-.54-.15c-.31-.23-.64-.45-1-.68l-2.56-1.8-2.23-1.57-.42-.29-.62,1.07h0l.07,0c1.74.56,2.78,1.44,3.07,2.64a2,2,0,0,1-.1,1.22,4.05,4.05,0,0,1-2.53,2.16,7.82,7.82,0,0,1-2.22.48l-.37,0H220c-.29,0-.58,0-.85-.08a6.11,6.11,0,0,1-3.6-1.63,2.63,2.63,0,0,1-.71-1.3c0-.08,0-.16,0-.24Zm7.57-2.23,0,.05-1.05,1.8c-.12.21-.24.43-.37.64a.69.69,0,0,1-.69.23c-.32-.06-.47-.26-.35-.47l1.41-2.44,0-.05c-2.08-.28-4.42.42-5.16,1.85s.5,2.91,2.76,3.4,4.75-.22,5.6-1.62S224.33,322.15,222.4,321.55Zm11.33,2.74c.13.94,1.26,2,3.26,2.33a5.75,5.75,0,0,0,5-1.34c1-1.09.59-2.46-.88-3.3a6.58,6.58,0,0,0-4.35-.59l.35.45,1.48,1.94a.22.22,0,0,1,.06.21c0,.18-.28.3-.59.3h-4.35Zm-9.87-5.23,6.06,4.25,3.26-4.25Zm11.39,2-1.17-1.52L231,323.58h1.62A3.85,3.85,0,0,1,235.25,321Zm-1.51,2.55h3.47l-1.46-1.91A3,3,0,0,0,233.74,323.58Z" transform="translate(-53.67 -70.99)"/><path class="cls-18" d="M214.09,354.49a1.7,1.7,0,0,1,0-.22,2.64,2.64,0,0,1,.79-1.38,6.11,6.11,0,0,1,3.5-1.55,8.45,8.45,0,0,1,2.51,0c.06,0,.08,0,.1,0,.7-1.2,1.39-2.4,2.1-3.6a1.71,1.71,0,0,1,1.38-.72h2.19v.7h-1.9a.65.65,0,0,0-.63.27c-.21.36-.41.72-.62,1.07l0,.05h9.39a.14.14,0,0,0,.11,0l.46-.6,0-.05h-1.66a.63.63,0,0,1-.53-.22c-.09-.14,0-.29.14-.39a.74.74,0,0,1,.4-.09h4.3v.7h-1.34a.11.11,0,0,0-.09,0l-.75,1s0,0,0,.06l1.51,2,0,0,.52-.09a8.62,8.62,0,0,1,1.9-.09,7.12,7.12,0,0,1,3.54,1.09,3.12,3.12,0,0,1,1.38,1.68c.34,1.24-.22,2.31-1.7,3.18a7,7,0,0,1-2.89.87l-.51,0H237c-.3,0-.62-.05-.92-.09a6.42,6.42,0,0,1-3-1.19,3,3,0,0,1-1.18-1.66c0-.06,0-.12-.05-.19h-2.42a.93.93,0,0,1-.54-.15l-1-.68-2.56-1.79-2.24-1.58-.41-.29-.62,1.07h0l.07,0c1.74.57,2.78,1.44,3.06,2.64a2,2,0,0,1-.09,1.22,4.08,4.08,0,0,1-2.53,2.16,7.89,7.89,0,0,1-2.23.48l-.36,0h-.7c-.29,0-.58,0-.86-.08a6.08,6.08,0,0,1-3.59-1.63,2.55,2.55,0,0,1-.71-1.3,2.23,2.23,0,0,1,0-.23Zm7.57-2.22s0,0,0,0c-.34.6-.69,1.2-1,1.8-.12.22-.25.43-.37.64a.69.69,0,0,1-.69.23c-.32-.06-.48-.26-.36-.47l1.42-2.43s0,0,0-.05c-2.08-.29-4.41.41-5.15,1.84s.5,2.91,2.76,3.4,4.75-.22,5.6-1.61S223.59,352.86,221.66,352.27ZM233,355c.14.95,1.27,2,3.27,2.33a5.79,5.79,0,0,0,5-1.33c1-1.1.59-2.47-.88-3.3a6.46,6.46,0,0,0-4.35-.59l.34.44,1.49,1.94a.25.25,0,0,1,.06.21c-.06.19-.29.3-.59.3H233Zm-9.87-5.23,6.06,4.26,3.27-4.26Zm11.4,2-1.18-1.52-3.12,4.07h1.61A3.87,3.87,0,0,1,234.51,351.74ZM233,354.29h3.47l-1.47-1.9A3.06,3.06,0,0,0,233,354.29Z" transform="translate(-53.67 -70.99)"/><path class="cls-18" d="M194.38,376.57l-.13-.21a2.21,2.21,0,0,1-.33-1.46,3.27,3.27,0,0,1,2-2.36,7,7,0,0,1,2.23-.71c.06,0,.07,0,.07-.06-.28-1.26-.55-2.52-.82-3.79-.09-.42.14-.76.69-1l.17-.07,1.72-.55H200l.52.62-.09,0-1.6.51c-.3.09-.4.21-.36.42.09.38.17.75.25,1.13a.43.43,0,0,1,0,.05l.07,0,8.27-2.63c.05,0,.07,0,.06-.07l0-.66a.13.13,0,0,0,0-.06l-.08,0-1.4.45a.81.81,0,0,1-.63-.05c-.17-.09-.24-.25-.16-.38a.5.5,0,0,1,.29-.2l3.75-1.19.06,0,.53.63-.08,0-1.11.35c-.05,0-.06,0-.06.07l.06,1.07a.07.07,0,0,0,.05.06l2.81,1.32,0,0,.39-.23a6.57,6.57,0,0,1,1.63-.62,8.82,8.82,0,0,1,4,0A5.92,5.92,0,0,1,219.6,368c1.23,1,1.52,2.11.86,3.3a4,4,0,0,1-1.92,1.59l-.43.18-.05,0-.55.18h-.08c-.29.06-.58.14-.88.19a8.61,8.61,0,0,1-3.58-.2,5.69,5.69,0,0,1-2.28-1.14l-.19-.16-.08,0-2.07.66a1.07,1.07,0,0,1-.59,0l-1.36-.33-3.61-.87-3.16-.76-.59-.14.25,1.12h.1a7,7,0,0,1,4.68,1.47,2.94,2.94,0,0,1,.83,1.11,2.35,2.35,0,0,1-.64,2.64,4.83,4.83,0,0,1-1.62,1.05l-.3.13-.57.18h-.06c-.28.06-.54.13-.82.17a8.54,8.54,0,0,1-4.4-.42,5.06,5.06,0,0,1-1.61-1l-.21-.19Zm5.06-4.13a.13.13,0,0,1,0,.06c.14.63.28,1.26.41,1.89l.15.67c0,.19-.15.36-.44.4s-.62-.1-.67-.32c-.19-.85-.37-1.71-.56-2.56,0,0,0,0,0-.05-2.06.34-3.61,1.61-3.2,3.1s2.61,2.44,5,2.24,4-1.55,3.77-3S201.6,372.42,199.44,372.44Zm12.1-.78a5.86,5.86,0,0,0,4.64,1.15c2-.28,3.42-1.35,3.46-2.61s-1.31-2.36-3.24-2.68a6.19,6.19,0,0,0-4.3.71l.64.3,2.76,1.29a.38.38,0,0,1,.21.18c.09.18,0,.34-.3.43l-3.78,1.2Zm-12.66-1.85,8.55,2.07-.27-4.71Zm11.59-1.48-2.18-1,.26,4.5,1.43-.46A2.38,2.38,0,0,1,210.47,368.33ZM211,371l3.09-1-2.72-1.27A1.86,1.86,0,0,0,211,371Z" transform="translate(-53.67 -70.99)"/><path class="cls-18" d="M157.45,354.94c0-.07,0-.15-.08-.22a2.07,2.07,0,0,1,0-1.47,4,4,0,0,1,2.5-2.16,7.87,7.87,0,0,1,2.38-.5c.06,0,.08,0,.08,0,0-1.27.05-2.55.09-3.82,0-.43.33-.75.93-1l.19-.05,1.83-.39h.05l.36.66-.09,0-1.7.36c-.32.07-.45.18-.46.39,0,.38,0,.75,0,1.13,0,0,0,0,0,.05h.08l8.8-1.86c.05,0,.07,0,.08-.06l.12-.66a.13.13,0,0,0,0-.06l-.09,0-1.49.31a.78.78,0,0,1-.61-.1.26.26,0,0,1-.07-.4.69.69,0,0,1,.33-.17l4-.84h.07l.37.66h-.08l-1.19.26c-.05,0-.06,0-.07.05-.06.36-.13.72-.2,1.07a.07.07,0,0,0,0,.06l2.47,1.56,0,0,.44-.19a7.45,7.45,0,0,1,1.76-.46,8.59,8.59,0,0,1,3.92.33,4.89,4.89,0,0,1,2.18,1.32,2.3,2.3,0,0,1,.07,3.34,4.94,4.94,0,0,1-2.29,1.4l-.46.14-.06,0-.59.12H181c-.31,0-.61.08-.92.1a8.37,8.37,0,0,1-3.49-.51,4.78,4.78,0,0,1-2-1.34,2.09,2.09,0,0,1-.14-.17h-.09l-2.21.47a1.07,1.07,0,0,1-.59,0l-1.27-.45L167,350.69l-2.94-1-.55-.19,0,1.13h.09a6.14,6.14,0,0,1,4.29,1.89,2.42,2.42,0,0,1,.55,1.17,2.65,2.65,0,0,1-1.26,2.55,6,6,0,0,1-1.85.9l-.33.09-.6.13h-.07c-.29,0-.57.08-.85.09a8,8,0,0,1-4.26-.82,4.15,4.15,0,0,1-1.35-1.09l-.17-.21Zm6-3.62s0,0,0,.05c0,.64,0,1.27,0,1.91,0,.23,0,.45,0,.68s-.23.34-.54.35-.59-.15-.58-.37l.06-2.59v-.05c-2.12.15-4,1.27-3.91,2.78s2,2.65,4.4,2.66,4.37-1.16,4.45-2.64S165.58,351.49,163.44,351.32Zm12.15.32a5.18,5.18,0,0,0,4.31,1.56c2-.09,3.71-1,4-2.27s-.73-2.45-2.56-2.95a6.67,6.67,0,0,0-4.43.31l.56.36,2.43,1.53c.08.06.15.12.16.19s-.11.34-.4.4l-4,.85Zm-12.08-3,8,2.81.86-4.68Zm11.81-.42-1.91-1.2-.81,4.47,1.52-.32A2.59,2.59,0,0,1,175.32,348.25Zm-.09,2.72,3.29-.7-2.39-1.5A2,2,0,0,0,175.23,351Z" transform="translate(-53.67 -70.99)"/><path class="cls-18" d="M152,325.23a2,2,0,0,1-.08-.22,2.12,2.12,0,0,1,0-1.47,4,4,0,0,1,2.5-2.16,7.58,7.58,0,0,1,2.38-.5c.06,0,.07,0,.07-.05L157,317c0-.43.32-.75.92-1a1.39,1.39,0,0,1,.19-.06l1.83-.39h.05l.37.66-.09,0-1.7.36c-.32.07-.45.18-.46.39,0,.38,0,.76,0,1.14v0l.08,0,8.8-1.86c.05,0,.07,0,.08-.06l.12-.66s0,0,0-.06H167l-1.49.32a.78.78,0,0,1-.61-.1.26.26,0,0,1-.07-.4.64.64,0,0,1,.33-.17l4-.84.07,0,.37.67h-.07l-1.19.25c-.05,0-.07,0-.07.06-.07.36-.13.71-.2,1.07a.09.09,0,0,0,0,.06L170.6,318a.05.05,0,0,1,0,0l.44-.19a7,7,0,0,1,1.76-.46,8.45,8.45,0,0,1,3.92.32,5,5,0,0,1,2.18,1.31,2.31,2.31,0,0,1,.08,3.35,4.91,4.91,0,0,1-2.28,1.4l-.46.14-.06,0-.59.12h-.08c-.3,0-.61.08-.91.1a8.23,8.23,0,0,1-3.5-.51,4.84,4.84,0,0,1-2-1.33l-.14-.18-.09,0-2.21.47a1.14,1.14,0,0,1-.58,0l-1.27-.45L161.49,321l-2.94-1-.55-.19,0,1.14h.09a6.09,6.09,0,0,1,4.29,1.88,2.33,2.33,0,0,1,.55,1.17,2.62,2.62,0,0,1-1.25,2.55,5.8,5.8,0,0,1-1.85.9l-.33.1-.6.13h-.07c-.28,0-.56.08-.85.1a8,8,0,0,1-4.26-.82,4.15,4.15,0,0,1-1.35-1.09l-.17-.21Zm6-3.63s0,0,0,.06l0,1.9c0,.23,0,.46,0,.69s-.23.34-.53.35-.59-.15-.59-.38l.06-2.58v-.05c-2.12.15-4,1.27-3.9,2.78s2,2.65,4.4,2.66,4.37-1.17,4.44-2.65S160.1,321.78,158,321.6Zm12.15.32a5.23,5.23,0,0,0,4.32,1.55c2-.09,3.7-1,4-2.27s-.74-2.45-2.57-2.95a6.66,6.66,0,0,0-4.43.32l.57.35,2.42,1.53a.36.36,0,0,1,.17.2c0,.18-.11.33-.4.39l-4,.86ZM158,319l8,2.81.85-4.68Zm11.81-.42-1.9-1.2-.81,4.47,1.52-.32A2.6,2.6,0,0,1,169.83,318.53Zm-.08,2.71,3.28-.69L170.65,319A2,2,0,0,0,169.75,321.24Z" transform="translate(-53.67 -70.99)"/><path class="cls-18" d="M114.55,308.15l-.07-.22a2.08,2.08,0,0,1,.08-1.47,4.14,4.14,0,0,1,2.58-2.12,8.05,8.05,0,0,1,2.4-.46c.06,0,.08,0,.08-.05l.24-3.82c0-.43.36-.74,1-.95L121,299l1.84-.36h0l.34.67-.08,0-1.73.33c-.32.06-.45.17-.47.38,0,.38,0,.76-.07,1.14v.05l.08,0,8.87-1.72c.06,0,.08,0,.09-.06,0-.22.1-.44.15-.66a.13.13,0,0,1,0-.06l-.09,0-1.5.29a.81.81,0,0,1-.61-.11.26.26,0,0,1-.06-.4.68.68,0,0,1,.34-.16l4-.78.07,0,.34.67h-.07l-1.2.24s-.07,0-.08,0c-.07.36-.16.71-.23,1.07,0,0,0,0,0,.06l2.41,1.6,0,0,.45-.19a7.4,7.4,0,0,1,1.77-.43,8.51,8.51,0,0,1,3.91.39,4.76,4.76,0,0,1,2.12,1.34,2.31,2.31,0,0,1-.06,3.35,5.08,5.08,0,0,1-2.34,1.36l-.46.13-.07,0-.59.12h-.08c-.3,0-.61.07-.91.08a8.28,8.28,0,0,1-3.48-.56,4.54,4.54,0,0,1-1.93-1.37l-.14-.18-.09,0-2.22.43a1,1,0,0,1-.59,0l-1.25-.47-3.31-1.23-2.9-1.09-.54-.2-.07,1.13h.09a5.91,5.91,0,0,1,4.21,1.95,2.24,2.24,0,0,1,.5,1.17,2.7,2.7,0,0,1-1.35,2.54,6.22,6.22,0,0,1-1.89.87l-.33.09-.61.12h-.07l-.85.09a7.9,7.9,0,0,1-4.22-.89,4.08,4.08,0,0,1-1.32-1.11l-.15-.22Zm6.13-3.53a.43.43,0,0,1,0,.05l-.12,1.91c0,.23,0,.46,0,.68s-.24.34-.54.34-.59-.16-.57-.38c0-.86.1-1.72.16-2.58v-.05c-2.12.12-4,1.21-4,2.71s1.9,2.69,4.29,2.73,4.43-1.09,4.56-2.58S122.81,304.83,120.68,304.62Zm12.13.51a5.1,5.1,0,0,0,4.25,1.62c2.05-.06,3.75-1,4.14-2.21s-.64-2.46-2.44-3a6.72,6.72,0,0,0-4.44.25l.54.36,2.37,1.57a.38.38,0,0,1,.16.2c0,.18-.13.33-.42.39l-4.06.79Zm-12-3.16,7.86,2.93,1-4.66Zm11.83-.24-1.86-1.22-1,4.45,1.53-.3A2.67,2.67,0,0,1,132.68,301.73Zm-.2,2.72,3.31-.65-2.32-1.54A2.1,2.1,0,0,0,132.48,304.45Z" transform="translate(-53.67 -70.99)"/><path class="cls-18" d="M157.34,291.65c0-.08,0-.15,0-.23a2.59,2.59,0,0,1,.78-1.38,6.15,6.15,0,0,1,3.51-1.55,8.8,8.8,0,0,1,2.51,0c.06,0,.08,0,.1,0,.69-1.2,1.39-2.4,2.09-3.59a1.73,1.73,0,0,1,1.38-.72l.21,0h2v.7h-1.9c-.34,0-.52.08-.63.28l-.63,1.07,0,0h9.39c.05,0,.08,0,.1-.05l.47-.6,0-.05h-1.67a.64.64,0,0,1-.53-.22c-.08-.14,0-.29.15-.39a.84.84,0,0,1,.4-.09h4.3v.7h-1.34a.11.11,0,0,0-.1,0l-.75,1a.06.06,0,0,0,0,.06c.51.66,1,1.32,1.52,2l0,0,.52-.09a8.59,8.59,0,0,1,1.9-.09,7.19,7.19,0,0,1,3.54,1.1,3,3,0,0,1,1.37,1.68c.35,1.24-.22,2.3-1.69,3.17a7,7,0,0,1-2.9.87l-.5,0h-.77c-.31,0-.62,0-.92-.09a6.56,6.56,0,0,1-3-1.18,3,3,0,0,1-1.18-1.66c0-.07,0-.13,0-.2h-2.42a.84.84,0,0,1-.54-.15l-1-.68-2.55-1.79L166.35,288l-.42-.29-.62,1.06h0l.08,0c1.73.57,2.77,1.44,3.06,2.65a2,2,0,0,1-.09,1.21,4.11,4.11,0,0,1-2.53,2.16,7.63,7.63,0,0,1-2.23.48l-.36,0h-.71c-.28,0-.57,0-.85-.08a6,6,0,0,1-3.59-1.63,2.52,2.52,0,0,1-.71-1.3c0-.08,0-.15,0-.23Zm7.57-2.23,0,.05-1,1.79-.38.65a.66.66,0,0,1-.68.22c-.33-.06-.48-.26-.36-.47l1.41-2.43,0-.05c-2.08-.28-4.41.41-5.15,1.84s.5,2.91,2.75,3.4,4.76-.22,5.61-1.61S166.84,290,164.91,289.42Zm11.33,2.73c.14,1,1.26,2,3.26,2.33a5.75,5.75,0,0,0,5-1.33c1-1.09.6-2.47-.87-3.3a6.49,6.49,0,0,0-4.36-.59l.35.45,1.49,1.93a.23.23,0,0,1,.05.22c-.05.18-.28.29-.58.29h-4.36Zm-9.87-5.23,6.06,4.26,3.27-4.26Zm11.4,2-1.18-1.51-3.12,4.06h1.61A3.89,3.89,0,0,1,177.77,288.89Zm-1.52,2.55h3.48l-1.47-1.9A3.1,3.1,0,0,0,176.25,291.44Z" transform="translate(-53.67 -70.99)"/><path class="cls-18" d="M108.51,270.26a1.7,1.7,0,0,0,0-.22,2.64,2.64,0,0,1,.79-1.38,6.15,6.15,0,0,1,3.51-1.55,8.38,8.38,0,0,1,2.5,0c.07,0,.09,0,.11,0,.69-1.2,1.39-2.4,2.09-3.6a1.71,1.71,0,0,1,1.38-.72h2.2v.7h-1.9c-.34,0-.52.08-.64.27-.2.36-.41.72-.62,1.07l0,0h9.38c.06,0,.09,0,.11,0l.47-.6,0-.06h-1.67a.62.62,0,0,1-.53-.22.27.27,0,0,1,.14-.38.78.78,0,0,1,.41-.1h4.29v.7h-1.33a.11.11,0,0,0-.1,0l-.75,1a.06.06,0,0,0,0,.06l1.51,2,0,0,.52-.1a9.25,9.25,0,0,1,1.9-.08,7.19,7.19,0,0,1,3.54,1.09,3.1,3.1,0,0,1,1.37,1.68c.35,1.24-.22,2.31-1.69,3.18a7,7,0,0,1-2.9.87l-.51,0h-.76c-.31,0-.62,0-.92-.09a6.46,6.46,0,0,1-3-1.19,3,3,0,0,1-1.18-1.66c0-.06,0-.12,0-.19h-2.43a.9.9,0,0,1-.53-.15l-1-.68-2.56-1.8-2.23-1.57-.42-.29-.62,1.07h0l.07,0c1.74.56,2.78,1.44,3.07,2.64a2,2,0,0,1-.1,1.22A4.05,4.05,0,0,1,117,273.4a7.82,7.82,0,0,1-2.22.48l-.36,0h-.71c-.28,0-.57,0-.85-.08a6.11,6.11,0,0,1-3.6-1.63,2.63,2.63,0,0,1-.71-1.3,2,2,0,0,0,0-.24Zm7.57-2.23,0,.05c-.35.6-.7,1.2-1,1.8l-.38.64a.66.66,0,0,1-.68.23c-.33-.06-.48-.26-.36-.47l1.41-2.44,0,0c-2.08-.29-4.42.41-5.16,1.84s.5,2.91,2.76,3.4,4.75-.22,5.6-1.62S118,268.63,116.08,268Zm11.33,2.74c.13.94,1.26,2,3.26,2.33a5.75,5.75,0,0,0,5-1.34c1-1.09.59-2.46-.87-3.3a6.62,6.62,0,0,0-4.36-.59l.35.45,1.48,1.94a.22.22,0,0,1,.06.21c0,.18-.28.3-.59.3h-4.35Zm-9.87-5.23,6.06,4.25,3.27-4.25Zm11.39,2L127.76,266l-3.12,4.07h1.61A3.85,3.85,0,0,1,128.93,267.51Zm-1.51,2.55h3.47l-1.46-1.91A3.07,3.07,0,0,0,127.42,270.06Z" transform="translate(-53.67 -70.99)"/><path class="cls-18" d="M110.2,233.29a2.07,2.07,0,0,0,0-.22,2.7,2.7,0,0,1,.79-1.39,6.21,6.21,0,0,1,3.51-1.55,8.73,8.73,0,0,1,2.5,0c.07,0,.09,0,.11,0,.69-1.2,1.39-2.4,2.09-3.6a1.71,1.71,0,0,1,1.38-.72h2.2v.69h-1.9c-.34,0-.52.08-.63.28l-.63,1.07s0,0,0,.05H129c.06,0,.09,0,.11,0l.47-.6,0-.06H128a.64.64,0,0,1-.53-.22.28.28,0,0,1,.14-.39.88.88,0,0,1,.41-.09h4.29v.7H131a.11.11,0,0,0-.1,0l-.75,1a.06.06,0,0,0,0,.06l1.51,2,0,0,.52-.09a8,8,0,0,1,1.9-.08,7.09,7.09,0,0,1,3.54,1.09,3.1,3.1,0,0,1,1.37,1.68c.35,1.24-.22,2.31-1.69,3.18a7.16,7.16,0,0,1-2.9.87l-.51,0h-.76c-.31,0-.62,0-.92-.09a6.56,6.56,0,0,1-3-1.18A3,3,0,0,1,128,234c0-.06,0-.13,0-.19h-.09c-.78,0-1.56,0-2.34,0a.9.9,0,0,1-.53-.15l-1-.68-2.56-1.8-2.23-1.57-.42-.29-.62,1.07h0l.07,0c1.74.56,2.78,1.44,3.07,2.64a2,2,0,0,1-.1,1.21,4,4,0,0,1-2.53,2.17,7.49,7.49,0,0,1-2.22.47l-.36,0h-.71a8.14,8.14,0,0,1-.85-.08,6,6,0,0,1-3.6-1.62,2.62,2.62,0,0,1-.71-1.31,2.23,2.23,0,0,0,0-.23Zm7.57-2.23,0,.05c-.35.6-.7,1.2-1,1.8l-.38.64a.66.66,0,0,1-.68.22c-.33-.05-.48-.26-.36-.47l1.41-2.43,0-.05c-2.08-.28-4.42.41-5.16,1.85s.5,2.91,2.76,3.4,4.75-.23,5.6-1.62S119.7,231.65,117.77,231.06Zm11.33,2.74c.13.94,1.26,2,3.26,2.33a5.75,5.75,0,0,0,5-1.34c1-1.09.59-2.47-.87-3.3a6.62,6.62,0,0,0-4.36-.59l.35.45c.49.65,1,1.29,1.48,1.93a.23.23,0,0,1,.06.22c0,.18-.28.3-.59.3H129.1Zm-9.87-5.23,6.06,4.25,3.27-4.25Zm11.39,2L129.45,229l-3.12,4.07h1.61A3.87,3.87,0,0,1,130.62,230.53Zm-1.51,2.55h3.47l-1.46-1.9A3.08,3.08,0,0,0,129.11,233.08Z" transform="translate(-53.67 -70.99)"/><path class="cls-18" d="M136,198.77l.12-.21a3.63,3.63,0,0,1,1.28-1.24,7.62,7.62,0,0,1,4-1,8.19,8.19,0,0,1,2.44.36c.06,0,.08,0,.11,0l3.35-3.22a2.2,2.2,0,0,1,1.61-.51l.21,0,1.88.27h.06l-.26.68h-.09l-1.76-.25a.78.78,0,0,0-.72.18l-1,1-.05,0h.09l9.06,1.3a.17.17,0,0,0,.12,0l.67-.52.06-.05h-.09l-1.53-.22a.49.49,0,0,1-.44-.29c0-.14.08-.28.28-.36a1,1,0,0,1,.43,0l4.11.59H160l-.26.68h-.08l-1.22-.18c-.05,0-.08,0-.11,0l-1.08.84s0,0,0,.06c.25.71.5,1.42.76,2.13v0l.54,0a9,9,0,0,1,1.88.19,5.64,5.64,0,0,1,3.05,1.55,2.33,2.33,0,0,1,.72,1.83c-.11,1.26-1.05,2.22-2.8,2.86a8.31,8.31,0,0,1-3.14.45l-.51,0h-.07l-.61-.09-.07,0c-.29-.07-.59-.12-.86-.21a5,5,0,0,1-2.53-1.58,2.32,2.32,0,0,1-.54-1.78l0-.19H153l-2.27-.33a.7.7,0,0,1-.47-.22l-.7-.79-1.83-2.11-1.61-1.84c-.09-.11-.19-.23-.3-.34l-1,.95h0l.06,0c1.49.79,2.18,1.79,2,3a2.4,2.4,0,0,1-.54,1.17,5.45,5.45,0,0,1-3.25,1.76,8.68,8.68,0,0,1-2.34.16l-.37,0-.62-.09-.06,0c-.27-.06-.55-.11-.8-.19a4.53,4.53,0,0,1-2.91-2.09,2.1,2.1,0,0,1-.22-1.36c0-.08,0-.16,0-.24Zm8.19-1.12-.05,0-1.67,1.6-.6.58a.78.78,0,0,1-.75.12c-.3-.1-.37-.32-.18-.51l2.27-2.17,0,0c-1.92-.56-4.45-.21-5.69,1.09s-.58,2.9,1.44,3.69a6.28,6.28,0,0,0,6-.8C146.38,200,145.88,198.5,144.21,197.65Zm10,4.24c-.21.94.49,2.13,2.32,2.73A6.5,6.5,0,0,0,162,204c1.34-.93,1.48-2.32.36-3.34a5.81,5.81,0,0,0-4-1.18c.06.17.11.33.17.49.25.7.5,1.39.74,2.09a.22.22,0,0,1,0,.22.71.71,0,0,1-.68.21l-4.15-.6Zm-7.71-6.46,4.35,5,4.74-3.69Zm10.38,3.49-.59-1.63-4.52,3.52,1.57.23A5.29,5.29,0,0,1,156.92,198.92Zm-2.4,2.28,3.38.48-.73-2.06A4.24,4.24,0,0,0,154.52,201.2Z" transform="translate(-53.67 -70.99)"/><path class="cls-18" d="M158.36,176.08l.15-.2a4.24,4.24,0,0,1,1.46-1.16,8.52,8.52,0,0,1,6.49-.29.09.09,0,0,0,.12,0l3.83-3a2.3,2.3,0,0,1,1.68-.41l.21,0,1.83.38h.05l-.36.66h-.09l-1.71-.36a.84.84,0,0,0-.74.14l-1.14.89,0,0h.08l8.82,1.82a.14.14,0,0,0,.13,0l.75-.48.06,0-.08,0-1.5-.31a.44.44,0,0,1-.39-.31c0-.14.13-.28.34-.34a.89.89,0,0,1,.43,0l4,.83h.07l-.36.67-.07,0-1.19-.25a.13.13,0,0,0-.11,0l-1.21.78a.06.06,0,0,0,0,.06c.14.72.28,1.44.43,2.16a0,0,0,0,0,0,0l.53,0a7.94,7.94,0,0,1,1.85.29,5,5,0,0,1,2.8,1.73,2.21,2.21,0,0,1,.44,1.86c-.31,1.24-1.39,2.14-3.24,2.68a8.52,8.52,0,0,1-3.2.26l-.5-.07h-.07l-.58-.12-.07,0c-.28-.08-.57-.16-.83-.26a4.39,4.39,0,0,1-2.27-1.71,2.17,2.17,0,0,1-.27-1.81l.06-.19-.09,0-2.21-.46a.62.62,0,0,1-.43-.24l-.57-.83-1.5-2.21-1.32-1.93-.24-.35-1.14.89h0l.05,0c1.37.88,1.9,1.91,1.55,3.11a2.53,2.53,0,0,1-.71,1.13,6.19,6.19,0,0,1-3.51,1.56,8.88,8.88,0,0,1-2.36,0l-.35-.05-.61-.12-.06,0c-.25-.08-.52-.15-.77-.24a4,4,0,0,1-2.57-2.25,2,2,0,0,1,0-1.37,1.55,1.55,0,0,1,.08-.23Zm8.32-.63-.05,0-1.92,1.5-.68.54a.8.8,0,0,1-.77.07c-.27-.11-.32-.34-.09-.51l2.58-2,.05,0a6.32,6.32,0,0,0-5.83.74c-1.42,1.2-1,2.86.87,3.76a6.45,6.45,0,0,0,6.14-.43C168.47,178,168.21,176.39,166.68,175.45Zm9.34,4.81c-.36.92.17,2.15,1.9,2.85a6.66,6.66,0,0,0,5.45-.29c1.47-.85,1.83-2.23.86-3.3a5.27,5.27,0,0,0-3.83-1.41c0,.16.07.33.1.49l.42,2.13a.25.25,0,0,1-.06.21.75.75,0,0,1-.71.17l-4-.84Zm-6.67-6.89,3.56,5.22,5.28-3.4Zm9.79,4.09-.33-1.67L173.76,179l1.53.32A5.9,5.9,0,0,1,179.14,177.46Zm-2.74,2.12,3.29.68-.41-2.09A4.74,4.74,0,0,0,176.4,179.58Z" transform="translate(-53.67 -70.99)"/><path class="cls-18" d="M269.09,329.36c0-.07,0-.15.05-.22a2.62,2.62,0,0,1,.78-1.39,6.21,6.21,0,0,1,3.51-1.55,8.8,8.8,0,0,1,2.51,0c.06,0,.08,0,.1,0,.69-1.2,1.39-2.4,2.09-3.6a1.73,1.73,0,0,1,1.38-.72h2.2v.69h-1.9c-.34,0-.52.08-.63.28l-.63,1.07,0,.05h9.39a.11.11,0,0,0,.1,0l.47-.6,0-.06h-1.67a.64.64,0,0,1-.53-.22c-.08-.13,0-.29.15-.39a.84.84,0,0,1,.4-.09h4.3v.7h-1.34a.11.11,0,0,0-.1,0l-.75,1a.09.09,0,0,0,0,.07c.51.65,1,1.31,1.52,2l0,0,.52-.09a8,8,0,0,1,1.9-.08,7.09,7.09,0,0,1,3.54,1.09,3.1,3.1,0,0,1,1.37,1.68c.35,1.24-.21,2.31-1.69,3.18a7.16,7.16,0,0,1-2.9.87l-.5,0H292c-.31,0-.62,0-.92-.08a6.68,6.68,0,0,1-3-1.19,3,3,0,0,1-1.18-1.66c0-.06,0-.13,0-.19H284.4a.91.91,0,0,1-.54-.15l-1-.68-2.55-1.8-2.24-1.57-.42-.29-.62,1.07h0l.07,0c1.74.56,2.77,1.44,3.06,2.64a2,2,0,0,1-.09,1.21,4.09,4.09,0,0,1-2.53,2.17,8,8,0,0,1-2.23.48l-.36,0h-.71c-.28,0-.57,0-.85-.07a6.05,6.05,0,0,1-3.59-1.63,2.54,2.54,0,0,1-.71-1.31c0-.07,0-.15-.05-.23Zm7.57-2.23,0,.05-1,1.8-.38.64a.66.66,0,0,1-.68.22c-.33,0-.48-.26-.36-.47l1.41-2.43,0-.05c-2.08-.28-4.41.41-5.15,1.85s.5,2.91,2.75,3.4,4.76-.23,5.61-1.62S278.59,327.72,276.66,327.13ZM288,329.87c.14.94,1.26,2,3.26,2.33a5.75,5.75,0,0,0,5-1.34c1-1.09.6-2.46-.87-3.3A6.62,6.62,0,0,0,291,327l.35.45c.49.65,1,1.29,1.49,1.93a.23.23,0,0,1,.05.22c-.05.18-.28.3-.58.3H288Zm-9.87-5.23,6.06,4.25,3.27-4.25Zm11.4,2-1.18-1.51-3.12,4.07h1.61A3.88,3.88,0,0,1,289.52,326.6ZM288,329.15h3.48l-1.47-1.9A3.1,3.1,0,0,0,288,329.15Z" transform="translate(-53.67 -70.99)"/><path class="cls-18" d="M266.29,360.07a1.7,1.7,0,0,1,0-.22,2.57,2.57,0,0,1,.79-1.39,6.14,6.14,0,0,1,3.5-1.54,8.45,8.45,0,0,1,2.51,0c.06,0,.08,0,.1,0l2.09-3.6a1.75,1.75,0,0,1,1.39-.72h2.19v.7H277c-.33,0-.52.08-.63.27-.21.36-.42.71-.62,1.07l0,0h9.39a.14.14,0,0,0,.11,0l.46-.6,0-.06h-1.67a.58.58,0,0,1-.52-.22c-.09-.13,0-.29.14-.38a.74.74,0,0,1,.4-.1h4.3v.7H287s-.07,0-.09,0c-.25.33-.51.65-.75,1,0,0,0,0,0,.06.51.65,1,1.31,1.52,2l0,0,.52-.1a8.62,8.62,0,0,1,1.9-.08,7.15,7.15,0,0,1,3.54,1.09,3.1,3.1,0,0,1,1.37,1.68c.35,1.24-.21,2.31-1.69,3.18a7.16,7.16,0,0,1-2.89.87l-.51,0h-.77c-.31,0-.62,0-.92-.08a6.38,6.38,0,0,1-3-1.19,2.91,2.91,0,0,1-1.18-1.66c0-.06,0-.13-.05-.19h-2.42a.91.91,0,0,1-.54-.15l-1-.68-2.55-1.8-2.24-1.57-.41-.29-.63,1.07h0l.07,0c1.74.56,2.77,1.44,3.06,2.64a2,2,0,0,1-.09,1.22,4.08,4.08,0,0,1-2.53,2.16,7.89,7.89,0,0,1-2.23.48l-.36,0h-.71c-.28,0-.57,0-.85-.07A6.05,6.05,0,0,1,267,362a2.55,2.55,0,0,1-.71-1.3,2,2,0,0,1,0-.24Zm7.56-2.23,0,.05-1,1.8-.37.64a.69.69,0,0,1-.69.23c-.32-.06-.48-.27-.36-.47l1.41-2.44,0,0c-2.08-.28-4.41.41-5.15,1.85s.5,2.91,2.76,3.4,4.75-.22,5.6-1.62S275.79,358.44,273.85,357.84Zm11.33,2.74c.14.94,1.27,2,3.26,2.33a5.77,5.77,0,0,0,5-1.34c1-1.09.59-2.46-.88-3.3a6.58,6.58,0,0,0-4.35-.59l.34.45,1.49,1.94a.25.25,0,0,1,.06.21.58.58,0,0,1-.59.3h-4.36Zm-9.87-5.23,6.06,4.25,3.27-4.25Zm11.4,2-1.18-1.52-3.12,4.07H284A3.87,3.87,0,0,1,286.71,357.32Zm-1.51,2.55h3.47L287.2,358A3,3,0,0,0,285.2,359.87Z" transform="translate(-53.67 -70.99)"/><path class="cls-18" d="M296.3,366l.3-.13a7.5,7.5,0,0,1,2.19-.58,8.42,8.42,0,0,1,4.21.56,4.61,4.61,0,0,1,1.68,1.14.09.09,0,0,0,.11,0l5.72-1.47a2.64,2.64,0,0,1,1.8.14l.15.09,1.31.88,0,0-.83.47-.07,0-1.21-.82a.86.86,0,0,0-.76-.1l-1.7.43-.07,0,0,0,6.27,4.24a.13.13,0,0,0,.12,0l1-.19.09,0-.07,0-1.06-.72a.25.25,0,0,1-.09-.39.68.68,0,0,1,.56-.19.64.64,0,0,1,.38.12l2.85,1.92.05,0-.84.47-.05,0-.85-.57a.13.13,0,0,0-.11,0l-1.67.32a.12.12,0,0,0-.08,0l-1.34,2s0,0,0,0l.46.18a5.13,5.13,0,0,1,1.38.81,2.54,2.54,0,0,1,1.07,2.35,2.66,2.66,0,0,1-1.08,1.75,7.19,7.19,0,0,1-5,1.37,7.28,7.28,0,0,1-3-.73l-.39-.21-.06,0-.41-.29-.05,0c-.17-.16-.36-.31-.51-.47a2.36,2.36,0,0,1-.63-2.19,2.93,2.93,0,0,1,1.2-1.65l.2-.15-.06-.05L306,373.26a.34.34,0,0,1-.19-.34c.06-.3.11-.6.17-.9l.42-2.38c.13-.69.26-1.38.38-2.07,0-.13,0-.26.07-.39l-1.7.44h0s0,0,0,.05c.5,1.17.15,2.23-1.1,3.17a5.3,5.3,0,0,1-1.52.78,8.61,8.61,0,0,1-4.29.3,6.88,6.88,0,0,1-2.08-.69l-.27-.15-.43-.29,0,0c-.16-.15-.34-.29-.48-.45a2.28,2.28,0,0,1-.47-2.73,3.29,3.29,0,0,1,1.08-1.2l.25-.18Zm7.77,1.95H304l-2.85.74-1,.26a.73.73,0,0,1-.73-.16c-.15-.19,0-.39.33-.48l3.86-1,.08,0c-1.06-1.13-3.47-1.73-5.69-1.1s-3.14,2.19-2.21,3.55,3.47,2,5.71,1.46S304.66,369.18,304.07,367.9Zm4.36,7a2,2,0,0,0-.6,3.06,5.71,5.71,0,0,0,5,1.39c1.95-.3,3.35-1.4,3.36-2.63s-1.22-2.07-2.23-2.38l-.3.46-1.32,2a.4.4,0,0,1-.22.17.82.82,0,0,1-.75-.07l-2.87-1.94Zm-.39-8-1,5.63,7.3-1.38Zm5.32,6.52,1-1.56-7,1.32,1.09.73A8.64,8.64,0,0,1,313.36,373.4Zm-4.07,1,2.34,1.58,1.29-1.95A6.81,6.81,0,0,0,309.29,374.43Z" transform="translate(-53.67 -70.99)"/><path class="cls-18" d="M326.65,348.21l.19-.2a5,5,0,0,1,1.67-1,8.44,8.44,0,0,1,4.24-.49,7.18,7.18,0,0,1,2.26.66.11.11,0,0,0,.12,0q2.17-1.36,4.37-2.71a2.47,2.47,0,0,1,1.74-.3l.2.05,1.75.5.05,0-.48.63-.08,0-1.64-.47a.84.84,0,0,0-.76.09l-1.3.8-.06,0,.08,0,8.43,2.43a.1.1,0,0,0,.12,0l.84-.42.07,0-.08,0-1.43-.41c-.22-.07-.34-.2-.33-.34a.48.48,0,0,1,.4-.32,1,1,0,0,1,.43,0l3.82,1.1.07,0-.48.63-.07,0-1.14-.33a.16.16,0,0,0-.12,0l-1.34.69a.07.07,0,0,0-.05.06c0,.72,0,1.45,0,2.18v0l.54.05a7.24,7.24,0,0,1,1.78.42,4.31,4.31,0,0,1,2.45,1.91,2.05,2.05,0,0,1,.09,1.88c-.53,1.22-1.78,2-3.71,2.44a8.51,8.51,0,0,1-3.22,0l-.49-.1h-.07l-.56-.16-.06,0c-.26-.1-.53-.2-.77-.32a3.66,3.66,0,0,1-1.94-1.87,2.13,2.13,0,0,1,.07-1.81l.09-.18-.08,0-2.11-.61a.54.54,0,0,1-.39-.27c-.13-.29-.27-.58-.41-.87l-1.08-2.3-1-2c0-.13-.11-.25-.17-.38l-1.3.81h0l.05,0c1.18,1,1.52,2,1,3.19A3.09,3.09,0,0,1,336,352a6.91,6.91,0,0,1-3.78,1.3,8.68,8.68,0,0,1-2.34-.15l-.35-.07-.58-.17-.05,0c-.24-.1-.5-.19-.72-.3a3.39,3.39,0,0,1-2.14-2.41,2.15,2.15,0,0,1,.25-1.37l.12-.22Zm8.39,0-.06,0-2.18,1.36L332,350a.8.8,0,0,1-.78,0c-.25-.13-.25-.36,0-.51l2.95-1.84.06,0a6.54,6.54,0,0,0-5.94.33c-1.63,1.09-1.54,2.76.17,3.8a6.51,6.51,0,0,0,6.18,0C336.35,350.78,336.38,349.21,335,348.16Zm8.38,5.44c-.52.89-.23,2.15,1.36,3a6.7,6.7,0,0,0,5.46.1c1.62-.74,2.23-2.08,1.48-3.22a4.71,4.71,0,0,0-3.54-1.67v.49c0,.72,0,1.43,0,2.14a.24.24,0,0,1-.1.21.79.79,0,0,1-.73.12l-3.86-1.11Zm-5.35-7.31,2.57,5.43,5.88-3Zm9,4.75,0-1.67-5.62,2.86,1.46.42A6.74,6.74,0,0,1,347.05,351ZM343.92,353l3.15.91,0-2.11A5.35,5.35,0,0,0,343.92,353Z" transform="translate(-53.67 -70.99)"/><path class="cls-18" d="M263.83,206.41a1.85,1.85,0,0,1,0-.23,2.64,2.64,0,0,1,.79-1.38,6.08,6.08,0,0,1,3.5-1.55,8.45,8.45,0,0,1,2.51,0c.06,0,.08,0,.1,0,.7-1.2,1.39-2.4,2.1-3.59a1.69,1.69,0,0,1,1.38-.73h2.19v.7h-1.9a.63.63,0,0,0-.63.28l-.62,1.06,0,0h9.39a.14.14,0,0,0,.11,0l.46-.6,0-.05H281.6a.63.63,0,0,1-.53-.22c-.09-.14,0-.29.14-.39a.74.74,0,0,1,.4-.09h4.3v.7h-1.34a.11.11,0,0,0-.09,0l-.75,1a0,0,0,0,0,0,.06l1.51,2s0,0,0,0l.52-.09a8.62,8.62,0,0,1,1.9-.09,7,7,0,0,1,3.54,1.1A3.09,3.09,0,0,1,292.6,206c.34,1.24-.22,2.3-1.7,3.17A7,7,0,0,1,288,210l-.51,0h-.77c-.3,0-.62,0-.92-.09a6.52,6.52,0,0,1-3-1.18,2.94,2.94,0,0,1-1.18-1.66c0-.07,0-.13-.05-.2h-2.42a.93.93,0,0,1-.54-.15l-1-.68-2.56-1.79-2.24-1.58-.41-.29-.63,1.07h0l.07,0c1.74.57,2.77,1.44,3.06,2.64a2,2,0,0,1-.09,1.22,4.08,4.08,0,0,1-2.53,2.16,7.89,7.89,0,0,1-2.23.48l-.36,0H269c-.29,0-.58,0-.86-.08a6,6,0,0,1-3.59-1.63,2.55,2.55,0,0,1-.71-1.3,2.23,2.23,0,0,1,0-.23Zm7.56-2.23,0,0c-.34.6-.69,1.2-1,1.8-.12.22-.25.43-.37.64a.67.67,0,0,1-.69.23c-.32-.06-.48-.26-.36-.47.47-.81.94-1.62,1.42-2.43a.08.08,0,0,1,0-.05c-2.08-.28-4.41.41-5.15,1.84s.5,2.91,2.76,3.4,4.75-.22,5.6-1.61S273.33,204.77,271.39,204.18Zm11.33,2.73c.14,1,1.27,2,3.27,2.33a5.76,5.76,0,0,0,5-1.33c1-1.1.59-2.47-.88-3.3a6.46,6.46,0,0,0-4.35-.59l.34.45,1.49,1.93a.26.26,0,0,1,.06.22c-.06.18-.29.29-.59.29h-4.36Zm-9.87-5.23,6.06,4.26,3.27-4.26Zm11.4,2-1.18-1.52L280,206.2h1.61A3.87,3.87,0,0,1,284.25,203.65Zm-1.51,2.55h3.47l-1.47-1.9A3.06,3.06,0,0,0,282.74,206.2Z" transform="translate(-53.67 -70.99)"/><path class="cls-18" d="M304.22,198.09a1.7,1.7,0,0,1,0-.22,2.64,2.64,0,0,1,.79-1.38,6.11,6.11,0,0,1,3.5-1.55,8.8,8.8,0,0,1,2.51,0c.06,0,.08,0,.1,0,.7-1.2,1.39-2.4,2.1-3.6a1.71,1.71,0,0,1,1.38-.72h2.19v.7h-1.9a.65.65,0,0,0-.63.27c-.21.36-.41.72-.62,1.07l0,0H323a.14.14,0,0,0,.11,0l.46-.6,0-.05H322a.6.6,0,0,1-.53-.22c-.09-.13,0-.29.14-.38a.74.74,0,0,1,.4-.1h4.3V192H325s-.07,0-.09,0l-.75,1a0,0,0,0,0,0,.06l1.51,2s0,0,0,0l.52-.1a9.28,9.28,0,0,1,1.9-.08,7.12,7.12,0,0,1,3.54,1.09,3.12,3.12,0,0,1,1.38,1.68c.34,1.24-.22,2.31-1.7,3.18a7,7,0,0,1-2.89.87l-.51,0h-.77c-.3,0-.62,0-.92-.09a6.42,6.42,0,0,1-3-1.19,3,3,0,0,1-1.18-1.66c0-.06,0-.12-.05-.19h-2.42a.93.93,0,0,1-.54-.15l-1-.68L315.46,196l-2.24-1.58-.41-.29-.62,1.07h0l.07,0c1.74.56,2.78,1.44,3.06,2.64a2,2,0,0,1-.09,1.22,4.08,4.08,0,0,1-2.53,2.16,7.89,7.89,0,0,1-2.23.48l-.36,0h-.7c-.29,0-.58,0-.86-.08A6.08,6.08,0,0,1,305,200a2.55,2.55,0,0,1-.71-1.3,2,2,0,0,1,0-.24Zm7.57-2.23,0,0c-.34.6-.69,1.2-1,1.8l-.37.64a.69.69,0,0,1-.69.23c-.32-.06-.48-.26-.36-.47.47-.81.95-1.62,1.42-2.44,0,0,0,0,0,0-2.08-.29-4.41.41-5.15,1.84s.5,2.91,2.76,3.4,4.75-.22,5.6-1.62S313.72,196.46,311.79,195.86Zm11.32,2.74c.14.94,1.27,2,3.27,2.33a5.76,5.76,0,0,0,5-1.34c1-1.09.59-2.46-.88-3.3a6.58,6.58,0,0,0-4.35-.59l.34.45,1.49,1.94a.25.25,0,0,1,.06.21.58.58,0,0,1-.59.3h-4.36Zm-9.87-5.23,6.06,4.25,3.27-4.25Zm11.4,2-1.17-1.52-3.13,4.07H322A3.87,3.87,0,0,1,324.64,195.34Zm-1.51,2.55h3.47L325.13,196A3,3,0,0,0,323.13,197.89Z" transform="translate(-53.67 -70.99)"/><path class="cls-18" d="M316,177a1.7,1.7,0,0,1,0-.22,2.64,2.64,0,0,1,.79-1.38,6.08,6.08,0,0,1,3.5-1.55,8.8,8.8,0,0,1,2.51,0c.06,0,.08,0,.1,0,.7-1.2,1.39-2.4,2.1-3.6a1.71,1.71,0,0,1,1.38-.72h2.19v.7h-1.9a.65.65,0,0,0-.63.27c-.21.36-.41.72-.62,1.07l0,.05h9.39a.14.14,0,0,0,.11,0l.46-.6,0,0h-1.66a.63.63,0,0,1-.53-.22c-.09-.14,0-.29.14-.39a.74.74,0,0,1,.4-.09H338v.7h-1.34c-.05,0-.07,0-.09,0l-.75,1s0,0,0,.06l1.51,2,0,0,.52-.09a8.62,8.62,0,0,1,1.9-.09,7.12,7.12,0,0,1,3.54,1.09,3.16,3.16,0,0,1,1.38,1.68c.34,1.24-.22,2.31-1.7,3.18a7,7,0,0,1-2.89.87l-.51,0h-.77c-.3,0-.62-.05-.92-.09a6.42,6.42,0,0,1-3-1.19,2.91,2.91,0,0,1-1.18-1.66c0-.06,0-.12-.05-.19h-2.42a.93.93,0,0,1-.54-.15l-1-.68-2.56-1.79L325,173.32l-.41-.29-.63,1.07h0l.07,0c1.74.57,2.77,1.44,3.06,2.64A2,2,0,0,1,327,178a4.08,4.08,0,0,1-2.53,2.16,7.89,7.89,0,0,1-2.23.48l-.36,0h-.7c-.29,0-.58,0-.86-.08a6.08,6.08,0,0,1-3.59-1.63,2.55,2.55,0,0,1-.71-1.3,2.23,2.23,0,0,1,0-.23Zm7.57-2.22,0,0c-.34.6-.69,1.2-1,1.8l-.37.64a.69.69,0,0,1-.69.23c-.32-.06-.48-.26-.36-.47l1.42-2.43a.08.08,0,0,1,0,0c-2.08-.29-4.41.41-5.15,1.84s.5,2.91,2.76,3.4,4.75-.22,5.6-1.62S325.45,175.38,323.52,174.79Zm11.32,2.73c.14.95,1.27,2,3.27,2.33a5.79,5.79,0,0,0,5-1.33c1-1.1.59-2.47-.88-3.31a6.58,6.58,0,0,0-4.35-.59l.34.45,1.49,1.94a.25.25,0,0,1,.06.21c-.06.19-.29.3-.59.3h-4.36ZM325,172.29l6.06,4.25,3.27-4.25Zm11.4,2-1.18-1.52-3.12,4.07h1.61A3.87,3.87,0,0,1,336.37,174.26Zm-1.51,2.55h3.47l-1.47-1.9A3,3,0,0,0,334.86,176.81Z" transform="translate(-53.67 -70.99)"/><path class="cls-18" d="M314.57,224c0-.07,0-.15,0-.22a2.64,2.64,0,0,1,.79-1.38,6.15,6.15,0,0,1,3.5-1.55,8.45,8.45,0,0,1,2.51,0c.06,0,.08,0,.1,0l2.1-3.6a1.71,1.71,0,0,1,1.38-.72h2.19v.7h-1.89c-.34,0-.52.08-.64.27-.21.36-.41.72-.62,1.07a.13.13,0,0,1,0,.05h9.39a.12.12,0,0,0,.11,0l.46-.6,0,0h-1.66a.63.63,0,0,1-.53-.22c-.09-.14,0-.29.14-.39a.74.74,0,0,1,.4-.09h4.3v.7h-1.33c-.06,0-.08,0-.1,0l-.75,1a.06.06,0,0,0,0,.06l1.51,2,0,0,.51-.09a8.68,8.68,0,0,1,1.91-.09,7.19,7.19,0,0,1,3.54,1.09,3.14,3.14,0,0,1,1.37,1.68c.35,1.25-.22,2.31-1.7,3.18a6.91,6.91,0,0,1-2.89.87l-.51,0h-.77c-.3,0-.61-.05-.91-.09a6.42,6.42,0,0,1-3-1.19,3,3,0,0,1-1.18-1.66,1.06,1.06,0,0,1,0-.19h-2.43a.93.93,0,0,1-.54-.15l-1-.68-2.56-1.79-2.24-1.58-.41-.29-.62,1.07h0l.07,0c1.74.57,2.78,1.44,3.06,2.64a2,2,0,0,1-.09,1.22,4.05,4.05,0,0,1-2.53,2.16,7.82,7.82,0,0,1-2.22.48l-.37,0h-.7c-.29,0-.58,0-.86-.08a6.11,6.11,0,0,1-3.59-1.63,2.55,2.55,0,0,1-.71-1.3c0-.08,0-.16,0-.23Zm7.57-2.22s0,0,0,0l-1.05,1.8c-.12.22-.25.43-.37.64a.69.69,0,0,1-.69.23c-.32-.06-.48-.26-.35-.47l1.41-2.43s0,0,0,0c-2.07-.29-4.41.41-5.15,1.84s.5,2.91,2.76,3.4,4.75-.22,5.6-1.61S324.07,222.35,322.14,221.76Zm11.32,2.73c.14.95,1.27,2,3.27,2.33a5.79,5.79,0,0,0,5-1.33c1-1.1.59-2.47-.88-3.3a6.46,6.46,0,0,0-4.35-.59l.34.45,1.49,1.93a.25.25,0,0,1,.06.21c-.06.19-.28.3-.59.3h-4.36Zm-9.86-5.23,6,4.26,3.27-4.26Zm11.39,2-1.17-1.52-3.13,4.07h1.62C332.56,222.67,333.46,221.83,335,221.23Zm-1.51,2.55H337l-1.46-1.9A3.05,3.05,0,0,0,333.48,223.78Z" transform="translate(-53.67 -70.99)"/><path class="cls-18" d="M360.11,231.2c0-.08,0-.15,0-.23a2.23,2.23,0,0,1,.43-1.44,5.12,5.12,0,0,1,3.08-1.86,8.47,8.47,0,0,1,2.48-.23c.06,0,.08,0,.09-.05.39-1.25.78-2.5,1.18-3.75.13-.42.53-.7,1.18-.84a.69.69,0,0,1,.2,0l1.91-.19h.06l.17.69h-.09l-1.78.17c-.34,0-.5.13-.56.33-.12.37-.23.74-.35,1.12,0,0,0,0,0,0h.08l9.19-.88c.06,0,.08,0,.1-.05.1-.22.2-.43.31-.64,0,0,0,0,0-.06h-.09l-1.55.15a.75.75,0,0,1-.58-.17.26.26,0,0,1,0-.4.74.74,0,0,1,.38-.12l4.17-.4h.07l.18.69h-.08l-1.24.12s-.07,0-.09,0c-.16.35-.33.69-.49,1a0,0,0,0,0,0,.06l2,1.8,0,0L381,226a8.45,8.45,0,0,1,5.63.48,3.87,3.87,0,0,1,1.77,1.53c.65,1.19.36,2.3-.88,3.3a6.12,6.12,0,0,1-2.65,1.13l-.49.08-.07,0-.61.06h-1a7.39,7.39,0,0,1-3.29-.89,3.64,3.64,0,0,1-1.58-1.52l-.09-.19h-.09l-2.31.22a1,1,0,0,1-.57-.1l-1.12-.58-3-1.53-2.61-1.34-.48-.25-.35,1.11h0l.07,0c1.86.39,3.1,1.16,3.69,2.32a2.14,2.14,0,0,1,.21,1.21,3.28,3.28,0,0,1-2,2.37,7,7,0,0,1-2.08.69l-.36.06-.62.06s-.05,0-.07,0h-.87a7,7,0,0,1-4-1.27,3.17,3.17,0,0,1-1-1.22l-.1-.22Zm6.93-2.92s0,0,0,.05c-.2.62-.39,1.25-.58,1.87l-.21.67a.6.6,0,0,1-.63.29c-.33,0-.53-.21-.47-.43.27-.85.53-1.69.79-2.54,0,0,0,0,0-.05-2.13-.08-4.26.83-4.63,2.31s1.21,2.83,3.57,3.1,4.64-.67,5.13-2.13S369.09,228.68,367,228.28Zm11.87,1.63c.37.92,1.75,1.86,3.81,2s3.94-.61,4.63-1.79,0-2.5-1.69-3.18a6.75,6.75,0,0,0-4.45-.17l.45.41,1.95,1.77a.25.25,0,0,1,.11.21c0,.18-.2.32-.5.34l-4.21.41Zm-11.05-4.23,7,3.62,2.17-4.51Zm11.75.86-1.54-1.39L376,229.47l1.59-.15C377.57,228.2,378.25,227.28,379.61,226.54Zm-.86,2.66,3.43-.33-1.92-1.74A2.49,2.49,0,0,0,378.75,229.2Z" transform="translate(-53.67 -70.99)"/><path class="cls-18" d="M360.37,207.46a1.85,1.85,0,0,1,0-.23,2.17,2.17,0,0,1,.3-1.45,4.74,4.74,0,0,1,2.9-2,8.3,8.3,0,0,1,2.46-.31c.06,0,.08,0,.08-.05.28-1.26.55-2.53.83-3.79.09-.42.47-.72,1.11-.88l.2,0,1.89-.25h0l.24.68-.1,0-1.76.23c-.33,0-.48.15-.53.35l-.24,1.13a.07.07,0,0,0,0,.05h.08l9.1-1.2c.05,0,.08,0,.09-.06.08-.21.17-.43.25-.65,0,0,0,0,0-.05h-.09l-1.54.2a.75.75,0,0,1-.59-.15.24.24,0,0,1,0-.39.66.66,0,0,1,.36-.15l4.13-.54h.07l.24.68h-.08l-1.23.17c-.05,0-.07,0-.08,0l-.4,1.05s0,0,0,.06l2.15,1.73,0,0,.48-.16a9,9,0,0,1,1.83-.33,8.17,8.17,0,0,1,3.83.62,4.13,4.13,0,0,1,1.91,1.46,2.35,2.35,0,0,1-.57,3.33,5.69,5.69,0,0,1-2.54,1.22l-.48.1-.07,0-.61.08H384c-.31,0-.62,0-.93,0a7.74,7.74,0,0,1-3.37-.77,4,4,0,0,1-1.72-1.47l-.11-.19-.09,0-2.28.3a1,1,0,0,1-.58-.08l-1.17-.54-3.11-1.42-2.72-1.25-.51-.23-.24,1.12h.09a5.32,5.32,0,0,1,3.89,2.19,2,2,0,0,1,.32,1.2,3,3,0,0,1-1.73,2.44,6.72,6.72,0,0,1-2,.75l-.34.08-.63.08h-.07c-.28,0-.57,0-.86,0a7.4,7.4,0,0,1-4.06-1.12,3.47,3.47,0,0,1-1.14-1.19l-.12-.22ZM367,204.3s0,0,0,0c-.13.63-.27,1.26-.4,1.9l-.15.67c0,.19-.3.32-.6.31s-.55-.19-.51-.41c.19-.86.37-1.71.56-2.56a.07.07,0,0,1,0,0c-2.13,0-4.18,1-4.41,2.47s1.47,2.77,3.85,3,4.57-.83,4.93-2.3S369.1,204.63,367,204.3Zm12,1.21c.46.91,1.92,1.8,4,1.86s3.88-.75,4.45-2-.26-2.49-2-3.12a6.72,6.72,0,0,0-4.46,0l.49.39c.7.57,1.4,1.14,2.11,1.7a.31.31,0,0,1,.13.2c0,.19-.18.33-.48.37l-4.16.55Zm-11.42-3.83,7.37,3.37,1.75-4.58Zm11.81.45-1.66-1.33-1.68,4.38,1.58-.21C377.51,203.85,378.11,202.91,379.4,202.13Zm-.61,2.69,3.39-.45-2.08-1.67A2.3,2.3,0,0,0,378.79,204.82Z" transform="translate(-53.67 -70.99)"/><path class="cls-18" d="M323.06,254.11c0-.07,0-.15,0-.22a2.7,2.7,0,0,1,.79-1.39,6.2,6.2,0,0,1,3.5-1.54,8.45,8.45,0,0,1,2.51,0c.06,0,.08,0,.1,0l2.1-3.6a1.71,1.71,0,0,1,1.38-.72h2.19v.7h-1.89c-.34,0-.52.08-.64.27l-.62,1.07,0,.05h9.39a.12.12,0,0,0,.11,0l.46-.6a.13.13,0,0,0,0-.06h-1.66a.6.6,0,0,1-.53-.22c-.09-.13,0-.29.14-.38a.74.74,0,0,1,.4-.1h4.3v.7H343.8c-.05,0-.07,0-.09,0l-.75,1a0,0,0,0,0,0,.06l1.51,2,0,0,.51-.1a8.68,8.68,0,0,1,1.91-.08,7.19,7.19,0,0,1,3.54,1.09,3.14,3.14,0,0,1,1.37,1.68c.35,1.24-.22,2.31-1.7,3.18a7.11,7.11,0,0,1-2.89.87l-.51,0H346c-.3,0-.61,0-.91-.08a6.52,6.52,0,0,1-3-1.19,3,3,0,0,1-1.18-1.66,1.29,1.29,0,0,1,0-.19h-2.43a.93.93,0,0,1-.54-.15l-1-.68L334.3,252l-2.24-1.57-.41-.29L331,251.2h0l.07,0c1.74.56,2.78,1.44,3.06,2.64a2,2,0,0,1-.09,1.22,4.05,4.05,0,0,1-2.53,2.16,7.9,7.9,0,0,1-2.22.48l-.37,0h-.7c-.29,0-.58,0-.86-.07a6.11,6.11,0,0,1-3.59-1.63,2.55,2.55,0,0,1-.71-1.3c0-.08,0-.16,0-.24Zm7.57-2.23a.09.09,0,0,0,0,.05l-1.05,1.8-.37.64a.66.66,0,0,1-.69.22c-.32-.05-.48-.26-.35-.47l1.41-2.43s0,0,0-.05c-2.07-.28-4.41.41-5.15,1.85s.5,2.91,2.76,3.4,4.75-.23,5.6-1.62S332.56,252.48,330.63,251.88ZM342,254.62c.14.94,1.27,2,3.27,2.33a5.76,5.76,0,0,0,5-1.34c1-1.09.59-2.46-.88-3.3a6.58,6.58,0,0,0-4.35-.59l.34.45,1.49,1.94a.25.25,0,0,1,.06.21c-.06.18-.28.3-.59.3H342Zm-9.86-5.23,6.05,4.25,3.27-4.25Zm11.39,2-1.17-1.52-3.13,4.07h1.61A3.87,3.87,0,0,1,343.48,251.36ZM342,253.91h3.47L344,252A3,3,0,0,0,342,253.91Z" transform="translate(-53.67 -70.99)"/><path class="cls-18" d="M274.5,269.67c0-.08,0-.15,0-.22a2.67,2.67,0,0,1,.79-1.39,6.21,6.21,0,0,1,3.5-1.55,8.79,8.79,0,0,1,2.51,0c.07,0,.08,0,.1,0l2.1-3.6a1.71,1.71,0,0,1,1.38-.72h2.19v.69h-1.89c-.34,0-.52.08-.64.28-.2.36-.41.71-.62,1.07,0,0,0,0,0,.05h9.38c.06,0,.09,0,.11,0l.47-.6,0-.06h-1.66a.63.63,0,0,1-.53-.22.28.28,0,0,1,.14-.39.87.87,0,0,1,.4-.09h4.3v.7h-1.33a.11.11,0,0,0-.1,0l-.75,1a.06.06,0,0,0,0,.06l1.51,2,0,0,.52-.09a8,8,0,0,1,1.9-.08,7.09,7.09,0,0,1,3.54,1.09,3.1,3.1,0,0,1,1.37,1.68c.35,1.24-.22,2.31-1.69,3.18a7.16,7.16,0,0,1-2.9.87l-.51,0h-.77c-.3,0-.61,0-.91-.09a6.56,6.56,0,0,1-3-1.18,3,3,0,0,1-1.18-1.66,1.29,1.29,0,0,1,0-.19H289.8a.93.93,0,0,1-.54-.15l-1-.68-2.56-1.8L283.51,266l-.42-.29-.62,1.07h0l.07,0c1.74.56,2.78,1.44,3.07,2.64a2,2,0,0,1-.1,1.21,4,4,0,0,1-2.53,2.17,7.49,7.49,0,0,1-2.22.47l-.37,0h-.7a7.66,7.66,0,0,1-.85-.08,6,6,0,0,1-3.6-1.62,2.66,2.66,0,0,1-.71-1.31c0-.07,0-.15,0-.23Zm7.57-2.23,0,.05-1.05,1.8c-.12.21-.24.43-.37.64a.68.68,0,0,1-.69.22c-.32,0-.47-.26-.35-.47l1.41-2.43s0,0,0-.05c-2.07-.28-4.41.41-5.15,1.85s.5,2.91,2.76,3.4,4.75-.23,5.6-1.62S284,268,282.07,267.44Zm11.32,2.74c.14.94,1.27,2,3.27,2.33a5.75,5.75,0,0,0,5-1.34c1-1.09.59-2.47-.88-3.3a6.58,6.58,0,0,0-4.35-.59l.34.45,1.49,1.93a.26.26,0,0,1,.06.22c-.06.18-.28.3-.59.3h-4.36ZM283.53,265l6.05,4.25,3.27-4.25Zm11.39,2-1.17-1.51-3.13,4.06h1.62A3.85,3.85,0,0,1,294.92,266.91Zm-1.51,2.55h3.47l-1.46-1.9A3.05,3.05,0,0,0,293.41,269.46Z" transform="translate(-53.67 -70.99)"/><path class="cls-18" d="M323.06,289.67c0-.08,0-.15,0-.23a2.68,2.68,0,0,1,.79-1.38,6.15,6.15,0,0,1,3.5-1.55,8.79,8.79,0,0,1,2.51,0c.06,0,.08,0,.1,0l2.1-3.59a1.71,1.71,0,0,1,1.38-.72l.21,0h2v.7h-1.89c-.34,0-.52.08-.64.28-.21.35-.41.71-.62,1.07l0,0h9.39a.11.11,0,0,0,.11-.05l.46-.6a.1.1,0,0,0,0-.05h-1.66a.63.63,0,0,1-.53-.22c-.09-.14,0-.29.14-.39a.84.84,0,0,1,.4-.09h4.3v.7H343.8c-.05,0-.07,0-.09,0l-.75,1s0,.05,0,.06l1.51,2,0,0,.51-.09a8.68,8.68,0,0,1,1.91-.09,7.19,7.19,0,0,1,3.54,1.1,3.07,3.07,0,0,1,1.37,1.68c.35,1.24-.22,2.3-1.7,3.17a7,7,0,0,1-2.89.87l-.51,0H346c-.3,0-.61,0-.91-.09a6.52,6.52,0,0,1-3-1.18,3,3,0,0,1-1.18-1.66,1.42,1.42,0,0,1,0-.2h-2.43a.86.86,0,0,1-.54-.15l-1-.68-2.56-1.79c-.74-.53-1.49-1.05-2.24-1.57l-.41-.29-.62,1.06h0l.07,0c1.74.57,2.78,1.44,3.06,2.65a1.94,1.94,0,0,1-.09,1.21,4.05,4.05,0,0,1-2.53,2.16,7.57,7.57,0,0,1-2.22.48l-.37,0h-.7c-.29,0-.58,0-.86-.08a6,6,0,0,1-3.59-1.63,2.52,2.52,0,0,1-.71-1.3c0-.08,0-.15,0-.23Zm7.57-2.23s0,0,0,.05l-1.05,1.79-.37.65a.68.68,0,0,1-.69.22c-.32-.06-.48-.26-.35-.47l1.41-2.43,0-.05c-2.07-.28-4.41.41-5.15,1.84s.5,2.91,2.76,3.4,4.75-.22,5.6-1.61S332.56,288,330.63,287.44ZM342,290.17c.14.95,1.27,2,3.27,2.33a5.76,5.76,0,0,0,5-1.33c1-1.09.59-2.47-.88-3.3a6.46,6.46,0,0,0-4.35-.59l.34.45,1.49,1.93a.26.26,0,0,1,.06.22c-.06.18-.28.29-.59.29H342Zm-9.86-5.23,6.05,4.26,3.27-4.26Zm11.39,2-1.17-1.51-3.13,4.06h1.61A3.89,3.89,0,0,1,343.48,286.91ZM342,289.46h3.47l-1.46-1.9A3.05,3.05,0,0,0,342,289.46Z" transform="translate(-53.67 -70.99)"/><path class="cls-18" d="M363.36,274.74l.14-.21a4,4,0,0,1,1.38-1.19,7.77,7.77,0,0,1,4.07-.89,8,8,0,0,1,2.4.44.1.1,0,0,0,.12,0l3.63-3.09a2.31,2.31,0,0,1,1.66-.45l.2,0,1.86.33h.05l-.31.67h-.09l-1.74-.32a.82.82,0,0,0-.73.16l-1.08.92-.05,0,.08,0,8.94,1.6a.16.16,0,0,0,.12,0l.72-.5.06-.05h-.09l-1.51-.27c-.23,0-.39-.16-.41-.3s.11-.29.31-.35a.78.78,0,0,1,.43,0l4.06.72.07,0-.32.67h-.08l-1.2-.22a.13.13,0,0,0-.11,0l-1.16.81s0,0,0,.06c.19.71.37,1.43.56,2.15v0h.54a8.18,8.18,0,0,1,1.87.24,5.31,5.31,0,0,1,2.9,1.66,2.22,2.22,0,0,1,.56,1.85c-.23,1.25-1.25,2.18-3.06,2.76a8.19,8.19,0,0,1-3.18.34l-.5-.05h-.07l-.6-.1-.07,0c-.28-.08-.57-.15-.84-.25a4.56,4.56,0,0,1-2.38-1.66,2.17,2.17,0,0,1-.38-1.79c0-.07,0-.13,0-.2h-.09l-2.23-.4a.7.7,0,0,1-.45-.24l-.62-.82-1.65-2.16-1.43-1.9-.27-.35-1.08.92h0l.05,0c1.42.84,2,1.86,1.75,3.07a2.51,2.51,0,0,1-.64,1.15,5.87,5.87,0,0,1-3.4,1.64,8.87,8.87,0,0,1-2.36.08l-.36,0-.61-.11-.06,0c-.26-.07-.54-.13-.79-.22a4.23,4.23,0,0,1-2.71-2.18,2.05,2.05,0,0,1-.09-1.38l.06-.23Zm8.27-.84-.05,0-1.81,1.55-.65.55a.84.84,0,0,1-.76.1c-.29-.12-.34-.34-.13-.52l2.45-2.09.05,0a6.25,6.25,0,0,0-5.78.88c-1.34,1.24-.84,2.88,1.11,3.74a6.4,6.4,0,0,0,6.11-.59C373.59,276.36,373.22,274.8,371.63,273.9Zm9.64,4.57c-.29.93.31,2.15,2.08,2.8a6.58,6.58,0,0,0,5.43-.42c1.42-.88,1.69-2.26.65-3.32a5.46,5.46,0,0,0-3.91-1.31c0,.16.08.33.13.49.18.7.36,1.41.55,2.11a.25.25,0,0,1,0,.22.76.76,0,0,1-.7.18l-4.09-.73Zm-7.11-6.72,3.9,5.13,5.06-3.52Zm10.06,3.85-.45-1.65-4.83,3.36,1.54.28A5.68,5.68,0,0,1,384.22,275.6Zm-2.61,2.19,3.34.6-.55-2.08A4.48,4.48,0,0,0,381.61,277.79Z" transform="translate(-53.67 -70.99)"/><path class="cls-18" d="M372.22,254.57l.1-.21a3.32,3.32,0,0,1,1.12-1.3,7.08,7.08,0,0,1,3.85-1.19,8.21,8.21,0,0,1,2.48.24c.06,0,.08,0,.1,0l3-3.36a2,2,0,0,1,1.54-.58h.21l1.91.18h.06l-.18.69h-.09l-1.78-.17a.72.72,0,0,0-.7.22l-.88,1,0,.05H383l9.19.88a.17.17,0,0,0,.12,0l.61-.55.05,0h-.09l-1.56-.15a.52.52,0,0,1-.47-.27c-.05-.14.05-.29.24-.37a1,1,0,0,1,.42,0l4.17.4h.08l-.18.69h-.08l-1.24-.12c-.05,0-.07,0-.1,0l-1,.89s0,0,0,.06c.33.7.67,1.4,1,2.09v0l.54,0a8.06,8.06,0,0,1,1.9.1,6.06,6.06,0,0,1,3.22,1.41,2.55,2.55,0,0,1,.94,1.79c0,1.26-.79,2.26-2.46,3a8,8,0,0,1-3.08.59l-.51,0h-.07l-.62-.06-.07,0c-.29-.06-.6-.1-.88-.17a5.55,5.55,0,0,1-2.71-1.46,2.46,2.46,0,0,1-.75-1.75v-.2h-.09l-2.3-.22a.76.76,0,0,1-.5-.2l-.78-.76-2.08-2L382,251.78l-.34-.33-.88,1h0l.06,0c1.58.72,2.39,1.68,2.37,2.9a2.16,2.16,0,0,1-.39,1.19,5,5,0,0,1-3,1.9,8.43,8.43,0,0,1-2.32.26h-.36l-.63-.06h-.07c-.27-.06-.55-.09-.82-.16a5,5,0,0,1-3.14-1.95,2.13,2.13,0,0,1-.38-1.35c0-.08,0-.16,0-.24Zm8-1.48s0,0,0,0l-1.48,1.68-.53.6a.76.76,0,0,1-.73.16c-.31-.09-.41-.31-.24-.5.67-.76,1.34-1.51,2-2.27l0-.05c-2-.47-4.46,0-5.55,1.34s-.23,2.92,1.88,3.62,4.75.23,5.94-1.07S382,253.86,380.25,253.09Zm10.52,3.77c-.1.95.75,2.11,2.64,2.62a6.35,6.35,0,0,0,5.3-.85,2,2,0,0,0,0-3.34,6,6,0,0,0-4.16-1c.08.16.16.32.23.48l1,2a.22.22,0,0,1,0,.22.68.68,0,0,1-.66.23l-4.21-.4Zm-8.45-6.1,4.92,4.78,4.29-3.9Zm10.77,3-.79-1.6-4.09,3.72,1.59.15A4.79,4.79,0,0,1,393.09,253.78ZM391,256.16l3.43.33-1-2A3.79,3.79,0,0,0,391,256.16Z" transform="translate(-53.67 -70.99)"/><path class="cls-18" d="M308.08,322a1.85,1.85,0,0,1,0-.23,2.61,2.61,0,0,1,.79-1.38,6.08,6.08,0,0,1,3.5-1.55,8.8,8.8,0,0,1,2.51,0c.06,0,.08,0,.1,0l2.09-3.59a1.75,1.75,0,0,1,1.39-.72l.2,0h2v.7h-1.9c-.33,0-.52.08-.63.28s-.42.71-.62,1.07a.11.11,0,0,0,0,0h9.39a.12.12,0,0,0,.11,0l.46-.6,0-.05h-1.67a.61.61,0,0,1-.52-.22c-.09-.14,0-.29.14-.39a.84.84,0,0,1,.4-.09h4.3v.7h-1.34c-.05,0-.07,0-.09,0l-.75,1a0,0,0,0,0,0,.06c.51.66,1,1.32,1.52,2l0,0,.52-.09a8.62,8.62,0,0,1,1.9-.09,7.16,7.16,0,0,1,3.54,1.1,3.06,3.06,0,0,1,1.37,1.68c.35,1.24-.21,2.3-1.69,3.17a7,7,0,0,1-2.89.87l-.51,0H331c-.31,0-.62,0-.92-.09a6.48,6.48,0,0,1-3-1.18,2.94,2.94,0,0,1-1.18-1.66c0-.07,0-.13-.05-.2h-2.42a.84.84,0,0,1-.54-.15l-1-.67-2.56-1.8-2.24-1.57-.41-.29-.63,1.06h0l.07,0c1.74.56,2.77,1.43,3.06,2.64a2,2,0,0,1-.09,1.21,4,4,0,0,1-2.53,2.16,7.56,7.56,0,0,1-2.23.48l-.36,0h-.7c-.29,0-.58,0-.86-.08a6,6,0,0,1-3.59-1.63,2.52,2.52,0,0,1-.71-1.3,1.85,1.85,0,0,1,0-.23Zm7.56-2.23,0,.05c-.34.6-.69,1.19-1,1.79l-.37.65a.68.68,0,0,1-.69.22c-.32-.06-.48-.26-.36-.47l1.41-2.43,0,0c-2.08-.28-4.41.41-5.15,1.85s.5,2.9,2.76,3.39,4.75-.22,5.6-1.61S317.58,320.37,315.64,319.78ZM327,322.51c.14.95,1.27,2,3.26,2.34a5.8,5.8,0,0,0,5-1.34c1-1.09.59-2.47-.88-3.3a6.46,6.46,0,0,0-4.35-.59l.34.45,1.49,1.93a.26.26,0,0,1,.06.22c-.06.18-.29.29-.59.29H327Zm-9.87-5.23,6.06,4.26,3.27-4.26Zm11.4,2-1.18-1.51-3.12,4.06h1.61A3.89,3.89,0,0,1,328.5,319.25ZM327,321.8h3.47L329,319.9A3.06,3.06,0,0,0,327,321.8Z" transform="translate(-53.67 -70.99)"/><path class="cls-18" d="M359.22,312.56a2.39,2.39,0,0,0,.13-.21,3.73,3.73,0,0,1,1.32-1.22,7.63,7.63,0,0,1,4-1,8,8,0,0,1,2.42.39.1.1,0,0,0,.12,0l3.47-3.17a2.2,2.2,0,0,1,1.63-.48l.2,0,1.88.29h0l-.28.67h-.09l-1.75-.27a.75.75,0,0,0-.73.17l-1,.94,0,0h.08l9,1.42c.06,0,.09,0,.12,0l.7-.51s0,0,.06-.05h-.09l-1.53-.24a.48.48,0,0,1-.42-.3c0-.14.09-.28.29-.35a.89.89,0,0,1,.43,0l4.09.64.07,0-.28.67H383l-1.21-.19a.13.13,0,0,0-.11,0l-1.12.83s0,0,0,.06l.67,2.14,0,0h.53a8.27,8.27,0,0,1,1.88.21,5.48,5.48,0,0,1,3,1.6,2.29,2.29,0,0,1,.66,1.84c-.16,1.25-1.14,2.2-2.91,2.81a8.24,8.24,0,0,1-3.16.41l-.51-.05h-.07l-.6-.09-.07,0c-.28-.08-.58-.14-.85-.23a4.8,4.8,0,0,1-2.47-1.61,2.27,2.27,0,0,1-.48-1.79,1.62,1.62,0,0,1,0-.19l-.09,0-2.26-.35a.68.68,0,0,1-.46-.23l-.67-.8L371,312.22l-1.53-1.87-.29-.34-1,.94h0l.06,0c1.46.81,2.11,1.82,1.91,3a2.41,2.41,0,0,1-.58,1.16,5.59,5.59,0,0,1-3.31,1.71,8.8,8.8,0,0,1-2.35.13l-.37,0-.61-.09-.07,0c-.26-.07-.54-.12-.79-.21a4.42,4.42,0,0,1-2.83-2.12,2.11,2.11,0,0,1-.17-1.37l.06-.23Zm8.23-1-.05,0-1.73,1.58-.62.57a.78.78,0,0,1-.76.11c-.29-.1-.36-.32-.15-.51l2.34-2.14,0,0c-1.9-.59-4.44-.28-5.73,1s-.68,2.9,1.31,3.71a6.31,6.31,0,0,0,6.08-.71C369.53,314,369.08,312.42,367.45,311.55Zm9.88,4.38c-.25.93.42,2.13,2.23,2.75a6.49,6.49,0,0,0,5.4-.53c1.37-.91,1.56-2.3.47-3.33a5.63,5.63,0,0,0-4-1.23l.15.49c.22.7.45,1.4.67,2.1a.23.23,0,0,1,0,.21.71.71,0,0,1-.69.2l-4.13-.65Zm-7.47-6.57,4.17,5,4.87-3.62ZM380.12,313l-.54-1.65-4.65,3.47,1.56.24A5.44,5.44,0,0,1,380.12,313Zm-2.49,2.24,3.36.53-.65-2.07A4.32,4.32,0,0,0,377.63,315.24Z" transform="translate(-53.67 -70.99)"/><path class="cls-18" d="M275.14,303.18c0-.07,0-.15,0-.22a2.7,2.7,0,0,1,.79-1.39,6.2,6.2,0,0,1,3.5-1.54,8.45,8.45,0,0,1,2.51,0c.06,0,.08,0,.1,0,.7-1.2,1.39-2.4,2.1-3.6a1.71,1.71,0,0,1,1.38-.72h2.19v.7h-1.89c-.34,0-.52.07-.64.27l-.62,1.07,0,.05H294a.12.12,0,0,0,.11,0l.46-.6a.13.13,0,0,0,0-.06h-1.66a.6.6,0,0,1-.53-.22c-.09-.13,0-.29.14-.39a.84.84,0,0,1,.4-.09h4.3v.7h-1.34c-.05,0-.07,0-.09,0l-.75,1a0,0,0,0,0,0,.06l1.51,2,0,0,.51-.09A8.11,8.11,0,0,1,299,300a7.19,7.19,0,0,1,3.54,1.09,3.14,3.14,0,0,1,1.37,1.68c.35,1.24-.22,2.31-1.7,3.18a7.11,7.11,0,0,1-2.89.87l-.51,0H298c-.3,0-.61,0-.91-.08a6.52,6.52,0,0,1-3-1.19,3,3,0,0,1-1.18-1.66c0-.06,0-.13-.05-.19h-2.42a.93.93,0,0,1-.54-.15l-1-.68-2.56-1.8-2.24-1.57-.41-.29-.62,1.07h0l.07,0c1.74.56,2.78,1.44,3.06,2.64a1.94,1.94,0,0,1-.09,1.21,4,4,0,0,1-2.53,2.17,7.9,7.9,0,0,1-2.22.48l-.37,0h-.7c-.29,0-.58,0-.86-.07a6.11,6.11,0,0,1-3.59-1.63,2.55,2.55,0,0,1-.71-1.3c0-.08,0-.16,0-.24Zm7.57-2.23a.09.09,0,0,0,0,.05l-1.05,1.8-.37.64a.66.66,0,0,1-.69.22c-.32-.05-.48-.26-.35-.47l1.41-2.43s0,0,0-.05c-2.07-.28-4.41.41-5.15,1.85s.5,2.91,2.76,3.4,4.75-.23,5.6-1.62S284.64,301.55,282.71,301ZM294,303.69c.14.94,1.27,2,3.27,2.33a5.76,5.76,0,0,0,5-1.34c1-1.09.59-2.46-.88-3.3a6.58,6.58,0,0,0-4.35-.59l.34.45,1.49,1.94a.24.24,0,0,1,.06.21c-.06.18-.28.3-.59.3H294Zm-9.86-5.23,6.05,4.25,3.27-4.25Zm11.39,2-1.17-1.51L291.26,303h1.61A3.88,3.88,0,0,1,295.56,300.42ZM294.05,303h3.47l-1.46-1.91A3,3,0,0,0,294.05,303Z" transform="translate(-53.67 -70.99)"/><path class="cls-18" d="M274.13,241.2a1.7,1.7,0,0,0,0-.22,2.7,2.7,0,0,1,.79-1.39,6.21,6.21,0,0,1,3.51-1.54,8.38,8.38,0,0,1,2.5,0c.07,0,.09,0,.11,0,.69-1.2,1.39-2.4,2.09-3.6a1.73,1.73,0,0,1,1.38-.72h2.2v.7h-1.9c-.34,0-.52.08-.63.27l-.63,1.07s0,0,0,.05H293c.06,0,.09,0,.11,0l.47-.6,0-.06H291.9a.62.62,0,0,1-.53-.22.26.26,0,0,1,.15-.38.72.72,0,0,1,.4-.1h4.29v.7h-1.33a.11.11,0,0,0-.1,0l-.75,1a.06.06,0,0,0,0,.06l1.52,2,0,0,.52-.1A9.25,9.25,0,0,1,298,238a7.19,7.19,0,0,1,3.54,1.09,3.1,3.1,0,0,1,1.37,1.68c.35,1.24-.22,2.31-1.69,3.18a7.16,7.16,0,0,1-2.9.87l-.51,0H297c-.31,0-.62,0-.92-.08a6.46,6.46,0,0,1-3-1.19,3,3,0,0,1-1.18-1.66c0-.06,0-.13,0-.19h-2.42a.91.91,0,0,1-.54-.15l-1-.68-2.56-1.8-2.23-1.57-.42-.29-.62,1.07h0l.07,0c1.74.56,2.78,1.44,3.07,2.64a2,2,0,0,1-.1,1.22,4.06,4.06,0,0,1-2.52,2.16,8,8,0,0,1-2.23.48l-.36,0h-.71c-.28,0-.57,0-.85-.07a6.05,6.05,0,0,1-3.59-1.63,2.57,2.57,0,0,1-.72-1.3,2,2,0,0,0,0-.24ZM281.7,239l0,.05c-.35.6-.7,1.2-1,1.8l-.38.64a.66.66,0,0,1-.68.23c-.33-.06-.48-.27-.36-.47l1.41-2.44,0-.05c-2.08-.28-4.42.41-5.15,1.85s.49,2.91,2.75,3.4,4.75-.22,5.6-1.62S283.63,239.57,281.7,239ZM293,241.71c.14.94,1.26,2,3.26,2.33a5.75,5.75,0,0,0,5-1.34c1-1.09.6-2.46-.87-3.3a6.62,6.62,0,0,0-4.36-.59l.35.45,1.48,1.94a.2.2,0,0,1,.06.21c-.05.18-.28.3-.59.3H293Zm-9.87-5.23,6.06,4.25,3.27-4.25Zm11.39,2-1.17-1.52L290.26,241h1.61A3.87,3.87,0,0,1,294.55,238.45ZM293,241h3.47l-1.46-1.91A3.07,3.07,0,0,0,293,241Z" transform="translate(-53.67 -70.99)"/><path class="cls-19" d="M343.38,100.05" transform="translate(-53.67 -70.99)"/><ellipse class="cls-20" cx="206.09" cy="66.8" rx="66.12" ry="66.8"/><rect class="cls-21" x="223.26" y="112.07" width="31.81" height="15.54" rx="4.43" ry="4.43" transform="translate(424.66 168.71) rotate(180)"/><rect class="cls-22" x="264.71" y="112.07" width="31.81" height="15.54" rx="4.43" ry="4.43" transform="translate(507.55 168.71) rotate(180)"/><ellipse class="cls-23" cx="185.49" cy="48.86" rx="3.16" ry="3.08"/><ellipse class="cls-23" cx="226.94" cy="48.86" rx="3.16" ry="3.08"/><path class="cls-24" d="M194.41,125.45l28.06-37.22s51.32,7,70.67,0l29.74,32.82s-8-27.41-26.72-38.64c-13.12-7.86-17-8.35-18.13-8.89-1.68-.81-2.69-.52-3.55-.73-6.47-1.62-28-4.48-49.53,7.83C199,95.45,194.41,125.45,194.41,125.45Z" transform="translate(-53.67 -70.99)"/><path class="cls-25" d="M293.14,88.36l29.45,32.5s-7.86-27.15-26.46-38.26C294.35,81.54,298.66,84.25,293.14,88.36Z" transform="translate(-53.67 -70.99)"/><path class="cls-26" d="M324.5,147.49s-61.33,65.65-131.7,0c0,0,7.46,55.29,66.12,58.29C258.92,205.78,315.28,207.31,324.5,147.49Z" transform="translate(-53.67 -70.99)"/><line class="cls-19" x1="188.65" y1="101.49" x2="223.78" y2="101.49"/><path class="cls-27" d="M242.33,172.47a43.15,43.15,0,0,1,8.78-2,73.9,73.9,0,0,1,8.78-.54,69.8,69.8,0,0,1,8.78.54,42.08,42.08,0,0,1,8.79,2,42.76,42.76,0,0,1-8.79,2,71.72,71.72,0,0,1-8.78.53,69.91,69.91,0,0,1-8.78-.54A42.49,42.49,0,0,1,242.33,172.47Z" transform="translate(-53.67 -70.99)"/><line class="cls-19" x1="186.73" y1="101.49" x2="226.05" y2="101.49"/><path class="cls-28" d="M240.41,172.47c3.27-.15,6.55-.23,9.82-.29s6.56-.05,9.83-.08,6.56,0,9.83.08,6.55.14,9.83.29c-3.28.16-6.55.23-9.83.29s-6.55.06-9.83.09-6.55,0-9.83-.09S243.68,172.63,240.41,172.47Z" transform="translate(-53.67 -70.99)"/><polyline class="cls-29" points="213.6 82.39 206.89 84.01 198.84 82.16 205.47 57.79"/><polyline class="cls-30" points="206.89 84.01 198.84 82.16 205.47 57.79"/><path class="cls-20" d="M263.79,119.66s-3.4-3.5-7.8,0" transform="translate(-53.67 -70.99)"/><path class="cls-31" d="M263.75,119.7c-.75-.22-1.4-.4-2-.53a8.12,8.12,0,0,0-1.81-.16,5.4,5.4,0,0,0-.89.06l-.46.05a3.11,3.11,0,0,1-.46.1c-.33,0-.64.16-1,.23a9.28,9.28,0,0,1-1.09.25l-.06-.08c.29-.21.58-.43.88-.62a7.25,7.25,0,0,1,1-.51,5.7,5.7,0,0,1,2.11-.48,5.76,5.76,0,0,1,3.93,1.62Z" transform="translate(-53.67 -70.99)"/><ellipse class="cls-32" cx="226.94" cy="48.86" rx="1.61" ry="1.57"/><ellipse class="cls-32" cx="185.49" cy="48.86" rx="1.61" ry="1.57"/><path class="cls-33" d="M192.8,147.49s17.09,41,40.59,51.56C233.39,199.05,206.08,196,192.8,147.49Z" transform="translate(-53.67 -70.99)"/><path class="cls-33" d="M259.45,205.78s-55.62,104.55,0,183.16C259.45,388.94,315.08,300.32,259.45,205.78Z" transform="translate(-53.67 -70.99)"/><ellipse class="cls-34" cx="205.37" cy="283.69" rx="2.59" ry="2.35"/><path class="cls-5" d="M256.32,234v2.22a3.21,3.21,0,0,1,0,.62,3.21,3.21,0,0,0,0-.62V234a2.66,2.66,0,0,1,0-.63,2.66,2.66,0,0,0,0,.63Z" transform="translate(-53.67 -70.99)"/><path class="cls-5" d="M261.67,237.67v1.2a3.33,3.33,0,0,1,0,.63,3.32,3.32,0,0,0,0-.63v-1.2a2.66,2.66,0,0,1,0-.63,2.66,2.66,0,0,0,0,.63Z" transform="translate(-53.67 -70.99)"/><path class="cls-5" d="M263.45,241.49v1.21a3.33,3.33,0,0,1,0,.63,3.32,3.32,0,0,0,0-.63v-1.21a3.21,3.21,0,0,1,0-.62,2.57,2.57,0,0,0,0,.62Z" transform="translate(-53.67 -70.99)"/><path class="cls-5" d="M266.79,241.29v.2a3.33,3.33,0,0,1,0,.63,3.32,3.32,0,0,0,0-.63v-.2a3.22,3.22,0,0,1,0-.62,3.21,3.21,0,0,0,0,.62Z" transform="translate(-53.67 -70.99)"/><path class="cls-5" d="M260.12,249.37v-1.25s0,1.25,0,1.25Z" transform="translate(-53.67 -70.99)"/><path class="cls-5" d="M257.21,241.49v1.41a3.33,3.33,0,0,1,0,.63,3.32,3.32,0,0,0,0-.63v-1.41a3.21,3.21,0,0,1,0-.62,3.21,3.21,0,0,0,0,.62Z" transform="translate(-53.67 -70.99)"/><path class="cls-5" d="M257.43,250.56v1.61a3.33,3.33,0,0,1,0,.63,3.32,3.32,0,0,0,0-.63v-1.61a3.22,3.22,0,0,1,0-.62,3.2,3.2,0,0,0,0,.62Z" transform="translate(-53.67 -70.99)"/><path class="cls-5" d="M264.34,253.58v.61a3.21,3.21,0,0,1,0,.62,3.21,3.21,0,0,0,0-.62v-.61a3.21,3.21,0,0,1,0-.62,3.21,3.21,0,0,0,0,.62Z" transform="translate(-53.67 -70.99)"/><path class="cls-5" d="M262.11,255.8v1.61a3.32,3.32,0,0,1,0,.63,3.32,3.32,0,0,0,0-.63V255.8a3.32,3.32,0,0,1,0-.63,3.32,3.32,0,0,0,0,.63Z" transform="translate(-53.67 -70.99)"/><path class="cls-5" d="M259.22,256.81v1a2.66,2.66,0,0,1,0,.63,2.66,2.66,0,0,0,0-.63v-1a3.33,3.33,0,0,1,0-.63,3.32,3.32,0,0,0,0,.63Z" transform="translate(-53.67 -70.99)"/><path class="cls-5" d="M257,257v.2a3.22,3.22,0,0,1,0,.62,3.21,3.21,0,0,0,0-.62V257a2.66,2.66,0,0,1,0-.63,2.66,2.66,0,0,0,0,.63Z" transform="translate(-53.67 -70.99)"/><path class="cls-5" d="M256.54,261.24v1a3.21,3.21,0,0,1,0,.62,3.21,3.21,0,0,0,0-.62v-1a3.32,3.32,0,0,1,0-.63,3.32,3.32,0,0,0,0,.63Z" transform="translate(-53.67 -70.99)"/><path class="cls-5" d="M263.23,262.85v.61a2.57,2.57,0,0,1,0,.62,2.57,2.57,0,0,0,0-.62v-.61a3.22,3.22,0,0,1,0-.62,3.21,3.21,0,0,0,0,.62Z" transform="translate(-53.67 -70.99)"/><path class="cls-5" d="M261,265.47v.2a3.33,3.33,0,0,1,0,.63,3.31,3.31,0,0,0,0-.63v-.2a2.57,2.57,0,0,1,0-.62,2.56,2.56,0,0,0,0,.62Z" transform="translate(-53.67 -70.99)"/><path class="cls-5" d="M257.88,268.49v1.21a3.33,3.33,0,0,1,0,.63,3.31,3.31,0,0,0,0-.63v-1.21a2.57,2.57,0,0,1,0-.62,2.57,2.57,0,0,0,0,.62Z" transform="translate(-53.67 -70.99)"/><path class="cls-5" d="M262.34,271.11v.2a2.66,2.66,0,0,1,0,.63,2.66,2.66,0,0,0,0-.63v-.2a3.22,3.22,0,0,1,0-.62,3.21,3.21,0,0,0,0,.62Z" transform="translate(-53.67 -70.99)"/><path class="cls-5" d="M258.56,273.75V272.5s0,1.25,0,1.25Z" transform="translate(-53.67 -70.99)"/><path class="cls-5" d="M266.35,232.23v.8a2.66,2.66,0,0,1,0,.63,2.66,2.66,0,0,0,0-.63v-.8a3.33,3.33,0,0,1,0-.63,3.31,3.31,0,0,0,0,.63Z" transform="translate(-53.67 -70.99)"/><path class="cls-5" d="M257.89,230.62s0-1.25,0-1.25,0,1.25,0,1.25Z" transform="translate(-53.67 -70.99)"/><path class="cls-5" d="M261.89,230.21v.61a3.21,3.21,0,0,1,0,.62,3.21,3.21,0,0,0,0-.62v-.61a3.21,3.21,0,0,1,0-.62,2.56,2.56,0,0,0,0,.62Z" transform="translate(-53.67 -70.99)"/><path class="cls-5" d="M267.46,228.4v1a3.33,3.33,0,0,1,0,.63,3.32,3.32,0,0,0,0-.63v-1a3.31,3.31,0,0,1,0-.63,3.32,3.32,0,0,0,0,.63Z" transform="translate(-53.67 -70.99)"/><path class="cls-6" d="M268.48,233.53a1.87,1.87,0,0,0,.7,2.19" transform="translate(-53.67 -70.99)"/><path class="cls-6" d="M268.45,230.58a1.92,1.92,0,0,1,.77,1.62" transform="translate(-53.67 -70.99)"/><path class="cls-6" d="M263.43,231.27a1,1,0,0,1-.6,1.22" transform="translate(-53.67 -70.99)"/><path class="cls-6" d="M257.23,231.45V233" transform="translate(-53.67 -70.99)"/><path class="cls-6" d="M254.34,230.7a2.13,2.13,0,0,1-.92,1.44" transform="translate(-53.67 -70.99)"/><path class="cls-6" d="M253.41,228.64a2.19,2.19,0,0,1-.55,1.49" transform="translate(-53.67 -70.99)"/><path class="cls-6" d="M254.12,234.36a3.15,3.15,0,0,0-1,1.78" transform="translate(-53.67 -70.99)"/><path class="cls-6" d="M255.07,239.51a2,2,0,0,1-.54,1.12" transform="translate(-53.67 -70.99)"/><path class="cls-6" d="M258.45,235.77a1.22,1.22,0,0,1-.26,1.23" transform="translate(-53.67 -70.99)"/><path class="cls-6" d="M262.23,235.26a8.14,8.14,0,0,1,1.21.88" transform="translate(-53.67 -70.99)"/><path class="cls-6" d="M265.2,239.8l.53.65" transform="translate(-53.67 -70.99)"/><path class="cls-6" d="M260.65,239.51v.94" transform="translate(-53.67 -70.99)"/><path class="cls-6" d="M267.41,242.21a1.26,1.26,0,0,1,.27,1.14" transform="translate(-53.67 -70.99)"/><path class="cls-6" d="M266.45,245.61l.94,1.3" transform="translate(-53.67 -70.99)"/><path class="cls-6" d="M259,244.38a2.8,2.8,0,0,1-1,1.33" transform="translate(-53.67 -70.99)"/><path class="cls-6" d="M255.16,244.48a1.9,1.9,0,0,1-1.13,1.71" transform="translate(-53.67 -70.99)"/><path class="cls-6" d="M254.85,250.66a1.58,1.58,0,0,1-.42,1.12" transform="translate(-53.67 -70.99)"/><path class="cls-6" d="M261.06,249v1" transform="translate(-53.67 -70.99)"/><path class="cls-6" d="M262.82,248.79a1.24,1.24,0,0,1,.84.46" transform="translate(-53.67 -70.99)"/><path class="cls-6" d="M266.86,250.3l.93.46" transform="translate(-53.67 -70.99)"/><path class="cls-6" d="M266.18,252.26a2.17,2.17,0,0,0,.67,2.26" transform="translate(-53.67 -70.99)"/><path class="cls-6" d="M254.15,254.36a2.46,2.46,0,0,1-1.17.28" transform="translate(-53.67 -70.99)"/><path class="cls-35" d="M260.83,279.61a130.94,130.94,0,0,1,3.55,22.87c.07.93.12,1.87.16,2.8q.12,3,.06-2.3c-.54,1.42-.34,6-.45,7.2-.33,3.72-.81,7.44-1.44,11.13-.13.8-1.8,11-2.3,11s-2.12-8.68-2.34-9.73c-.36-1.78-.69-3.57-.93-5.37q-.3-2.1-.42-4.23-.29,13.95.06,8.08c.28-3.05.39-6.09.42-9.15.05-5.71.48-11.72-.45-17.39-.28-1.67-.73-3.3-1.08-4.95-.2-.82-.37-1.65-.5-2.48q-.85-5.24,0,7.26a58.66,58.66,0,0,0,2.66-10.73c2.37-12.8,1.4-26.51,1-39.45l0,14.73a64.89,64.89,0,0,0,3.94,16.37c-.7-1.81.07-5.53.07-7.5s.7-5.47-.07-7.5a64.89,64.89,0,0,1-3.94-16.37c.52,4.79-.17,9.9,0,14.73.05,1.66.1,3.32.14,5q0-8-.33-.63c-.19,1.89-.43,3.78-.78,5.65-.78,4.21-2.44,8.25-3,12.5a95.88,95.88,0,0,0-.08,18.48,49.73,49.73,0,0,0,1.22,6.62c.9,4.12-.19,7.63,1-4.24-.36,3.59-.46,7.22-.49,10.83-.05,7.38-.26,14.79,1,22.09.23,1.35,2.17,12.39,2.85,12.41s2.49-12.09,2.6-12.83a158.17,158.17,0,0,0,1.76-22.69c.17-15.89-.08-31.66-3.94-47.16,1.17,4.68-1.17,10.26,0,15Z" transform="translate(-53.67 -70.99)"/><path class="cls-36" d="M259.41,285.32,260,288l0-14.73c-.67,4.66-1.89,9.12-2.09,13.87-.19,4.5-.11,9-.08,13.54,0,4.2.24,8.34.62,12.51.27,2.88.55,5.77.83,8.65.19,2-.22,7.21.83,8.76-.14,1.11.05,1.27.56.48a3.25,3.25,0,0,0,.82-1.06,8.06,8.06,0,0,0,1-2.49A20.19,20.19,0,0,0,263,323c.12-4.78.11-9.6,0-14.39-.12-5-.53-10-.82-14.95-.2-3.27.84-11.14-2.6-13l0,.27c-.26,5.34-.34,10.78-.08,16.11.27,5.69,2.53,11,3.24,16.57l0-1,0,1.72,0-14c-.48,2-.93,3.07-3,3.5-1.09.23.88,14.82,0,15,4.23-.87,3.11-6.79,3.12-10,0-4.48.29-9.09-.62-13.51-.56-2.71-1.33-5.45-2.09-8.11-2.05-7.22,1.44,11.41,1.62,14.07.44,6.22.58,12.47,1.09,18.68.13,2.49.13,1.31,0-3.54.3-4.7.22-6-.24-3.85-.46.94-.52,2.29-1.36,3.06-1.76,1.61-1-.18-1.21-1.94l-.47-4.86q-.42-4.38-.83-8.76c-.14-1.48-.29-3-.41-4.44l-.22-3.21q-.17,9.36.3,5.08a61.27,61.27,0,0,0,1.77-12.91c0-4.36.92-10-.67-14.19.69,1.81-.07,5.53-.07,7.5,0,2.13-.7,5.47.07,7.5Z" transform="translate(-53.67 -70.99)"/></svg>