<svg id="Layer_1" data-name="Layer 1" xmlns="http://www.w3.org/2000/svg" xmlns:xlink="http://www.w3.org/1999/xlink" viewBox="0 0 192.73 417.9"><defs><style>.cls-1{fill:#e4e1c7;}.cls-2{fill:#512e2a;}.cls-3,.cls-4{fill:#9e2b20;}.cls-14,.cls-23,.cls-4,.cls-6{stroke:#231f20;}.cls-14,.cls-15,.cls-16,.cls-17,.cls-21,.cls-22,.cls-23,.cls-32,.cls-4,.cls-6,.cls-8{stroke-miterlimit:10;}.cls-5{fill:#231f20;}.cls-16,.cls-6,.cls-8{fill:none;}.cls-23,.cls-6{stroke-width:0.25px;}.cls-7{fill:#c2b59b;}.cls-8{stroke:#9b8579;}.cls-9{fill:#b1a58e;}.cls-10{fill:#9b8579;}.cls-11{fill:#1e4496;}.cls-12,.cls-17{fill:#234093;}.cls-13{fill:#124b9a;}.cls-14,.cls-15,.cls-20,.cls-21,.cls-22,.cls-23{fill:#fff;}.cls-15{stroke:#f9a560;}.cls-16{stroke:#283c91;}.cls-17{stroke:#262262;stroke-width:0.5px;}.cls-18{fill:#fff200;}.cls-19{fill:#d1d3d4;}.cls-21{stroke:url(#White_Black);}.cls-22{stroke:url(#White_Black-2);}.cls-24{fill:#fde79e;}.cls-25{fill:#fbeac8;}.cls-26{fill:#e5e1c5;}.cls-27{fill:#f9c9de;}.cls-28{fill:#8d536f;}.cls-29{fill:#e3e2db;}.cls-30{fill:#d0cca8;}.cls-31{fill:url(#White_Black-3);}.cls-32{fill:#2e3192;stroke:#00aeef;}.cls-33{fill:#cfcdb4;}</style><linearGradient id="White_Black" x1="264.24" y1="113.37" x2="285" y2="113.37" gradientTransform="matrix(1, 0, 0, -1, -25.75, 226.75)" gradientUnits="userSpaceOnUse"><stop offset="0" stop-color="#fff"/><stop offset="1" stop-color="#231f20"/></linearGradient><linearGradient id="White_Black-2" x1="238.49" y1="113.37" x2="259.25" y2="113.37" gradientTransform="matrix(1, 0, 0, -1, 25.75, 226.75)" xlink:href="#White_Black"/><linearGradient id="White_Black-3" x1="264.58" y1="112.51" x2="258.95" y2="112.51" gradientTransform="matrix(1, 0, 0, 1, 0, 0)" xlink:href="#White_Black"/></defs><title>2</title><polyline class="cls-1" points="118.48 334.96 111.87 400.24 104.44 399.87 103.69 334.22"/><polyline class="cls-1" points="72.38 334.96 78.98 400.24 86.42 399.87 87.17 334.22"/><path class="cls-2" d="M230.77,475.18s-20.25,10.71-7.52,12.21l12.73,1.5h16.19s6.73-4.74,6.73-11.59" transform="translate(-164.27 -70.99)"/><path class="cls-2" d="M286.2,475.18s20.24,10.71,7.52,12.21L281,488.89H264.8s-5.9-4.74-5.9-11.59" transform="translate(-164.27 -70.99)"/><path class="cls-3" d="M244.2,470.46s-33.1,10.7-20.38,12.2l12.73,1.49h16.19s6.16,0,6.16-6.85l-7.23-6.23h-.53" transform="translate(-164.27 -70.99)"/><path class="cls-3" d="M266.6,470.13l-7.39,7.17c0,6.85,6.16,6.85,6.16,6.85h16.19l12.73-1.49c12.73-1.5-18.15-12.21-18.15-12.21" transform="translate(-164.27 -70.99)"/><path class="cls-4" d="M259.31,477" transform="translate(-164.27 -70.99)"/><path class="cls-5" d="M270.57,414.52v2.22a3.22,3.22,0,0,1,0,.62,3.21,3.21,0,0,0,0-.62v-2.22a2.57,2.57,0,0,1,0-.62,2.57,2.57,0,0,0,0,.62Z" transform="translate(-164.27 -70.99)"/><path class="cls-5" d="M275.4,418.15v1.21a3.22,3.22,0,0,1,0,.62,3.2,3.2,0,0,0,0-.62v-1.21a3.22,3.22,0,0,1,0-.62,3.2,3.2,0,0,0,0,.62Z" transform="translate(-164.27 -70.99)"/><path class="cls-5" d="M277,422v1.21a2.57,2.57,0,0,1,0,.62,2.57,2.57,0,0,0,0-.62V422a3.33,3.33,0,0,1,0-.63,3.32,3.32,0,0,0,0,.63Z" transform="translate(-164.27 -70.99)"/><path class="cls-5" d="M280,421.78v.2a3.22,3.22,0,0,1,0,.62,3.21,3.21,0,0,0,0-.62v-.2a2.66,2.66,0,0,1,0-.63,2.66,2.66,0,0,0,0,.63Z" transform="translate(-164.27 -70.99)"/><path class="cls-5" d="M274,429.86s0-1.25,0-1.25,0,1.25,0,1.25Z" transform="translate(-164.27 -70.99)"/><path class="cls-5" d="M271.38,422v1.41a3.21,3.21,0,0,1,0,.62,3.21,3.21,0,0,0,0-.62V422a3.33,3.33,0,0,1,0-.63,3.32,3.32,0,0,0,0,.63Z" transform="translate(-164.27 -70.99)"/><path class="cls-5" d="M271.58,431v1.62a2.57,2.57,0,0,1,0,.62,2.57,2.57,0,0,0,0-.62V431a3.21,3.21,0,0,1,0-.62,3.21,3.21,0,0,0,0,.62Z" transform="translate(-164.27 -70.99)"/><path class="cls-5" d="M277.82,434.07v.6a3.33,3.33,0,0,1,0,.63,3.32,3.32,0,0,0,0-.63v-.6a3.33,3.33,0,0,1,0-.63,3.32,3.32,0,0,0,0,.63Z" transform="translate(-164.27 -70.99)"/><path class="cls-5" d="M275.81,436.28v1.62a2.57,2.57,0,0,1,0,.62,2.57,2.57,0,0,0,0-.62v-1.62a3.21,3.21,0,0,1,0-.62,3.21,3.21,0,0,0,0,.62Z" transform="translate(-164.27 -70.99)"/><path class="cls-5" d="M273.19,437.29v1a2.57,2.57,0,0,1,0,.62,2.57,2.57,0,0,0,0-.62v-1a3.22,3.22,0,0,1,0-.62,3.21,3.21,0,0,0,0,.62Z" transform="translate(-164.27 -70.99)"/><path class="cls-5" d="M271.17,437.49v.2a3.33,3.33,0,0,1,0,.63,3.32,3.32,0,0,0,0-.63v-.2a3.22,3.22,0,0,1,0-.62,3.21,3.21,0,0,0,0,.62Z" transform="translate(-164.27 -70.99)"/><path class="cls-5" d="M270.77,441.72v1a3.32,3.32,0,0,1,0,.63,3.31,3.31,0,0,0,0-.63v-1a2.57,2.57,0,0,1,0-.62,2.57,2.57,0,0,0,0,.62Z" transform="translate(-164.27 -70.99)"/><path class="cls-5" d="M276.82,443.34v.6a3.21,3.21,0,0,1,0,.62,3.2,3.2,0,0,0,0-.62v-.6a3.33,3.33,0,0,1,0-.63,3.32,3.32,0,0,0,0,.63Z" transform="translate(-164.27 -70.99)"/><path class="cls-5" d="M274.8,446v.21a3.21,3.21,0,0,1,0,.62,3.21,3.21,0,0,0,0-.62V446a2.57,2.57,0,0,1,0-.62,2.57,2.57,0,0,0,0,.62Z" transform="translate(-164.27 -70.99)"/><path class="cls-5" d="M272,449v1.21a3.21,3.21,0,0,1,0,.62,3.21,3.21,0,0,0,0-.62V449a2.66,2.66,0,0,1,0-.63,2.66,2.66,0,0,0,0,.63Z" transform="translate(-164.27 -70.99)"/><path class="cls-5" d="M276,451.6v.2a3.22,3.22,0,0,1,0,.62,3.21,3.21,0,0,0,0-.62v-.2a2.66,2.66,0,0,1,0-.63,2.66,2.66,0,0,0,0,.63Z" transform="translate(-164.27 -70.99)"/><path class="cls-5" d="M272.59,454.24s0-1.25,0-1.25,0,1.25,0,1.25Z" transform="translate(-164.27 -70.99)"/><path class="cls-5" d="M279.64,412.71v.81a3.21,3.21,0,0,1,0,.62,2.57,2.57,0,0,0,0-.62v-.81a3.22,3.22,0,0,1,0-.62,3.21,3.21,0,0,0,0,.62Z" transform="translate(-164.27 -70.99)"/><path class="cls-5" d="M272,411.1s0-1.25,0-1.25,0,1.25,0,1.25Z" transform="translate(-164.27 -70.99)"/><path class="cls-5" d="M276,409.9v-1.25s0,1.25,0,1.25Z" transform="translate(-164.27 -70.99)"/><path class="cls-5" d="M275.61,410.7v.6a3.21,3.21,0,0,1,0,.62,2.56,2.56,0,0,0,0-.62v-.6a3.33,3.33,0,0,1,0-.63,3.32,3.32,0,0,0,0,.63Z" transform="translate(-164.27 -70.99)"/><path class="cls-5" d="M280.64,408.88v1a3.22,3.22,0,0,1,0,.62,3.2,3.2,0,0,0,0-.62v-1a3.22,3.22,0,0,1,0-.62,3.21,3.21,0,0,0,0,.62Z" transform="translate(-164.27 -70.99)"/><path class="cls-5" d="M244.38,409.27v.4a3.31,3.31,0,0,1,0,.63,2.66,2.66,0,0,0,0-.63v-.4a3.22,3.22,0,0,1,0-.62,3.21,3.21,0,0,0,0,.62Z" transform="translate(-164.27 -70.99)"/><path class="cls-5" d="M248.82,409.31v-1.25s0,1.25,0,1.25Z" transform="translate(-164.27 -70.99)"/><path class="cls-6" d="M281.56,414a2,2,0,0,0,.64,2.18" transform="translate(-164.27 -70.99)"/><path class="cls-6" d="M281.53,411.07a2,2,0,0,1,.7,1.62" transform="translate(-164.27 -70.99)"/><path class="cls-6" d="M277,411.75a1.07,1.07,0,0,1-.55,1.22" transform="translate(-164.27 -70.99)"/><path class="cls-6" d="M271.39,411.94v1.5" transform="translate(-164.27 -70.99)"/><path class="cls-6" d="M268.77,411.19a2.15,2.15,0,0,1-.82,1.44" transform="translate(-164.27 -70.99)"/><path class="cls-6" d="M267.94,409.13a2.32,2.32,0,0,1-.5,1.48" transform="translate(-164.27 -70.99)"/><path class="cls-6" d="M268.58,414.84a3.35,3.35,0,0,0-.86,1.78" transform="translate(-164.27 -70.99)"/><path class="cls-6" d="M269.44,420a2.06,2.06,0,0,1-.49,1.12" transform="translate(-164.27 -70.99)"/><path class="cls-6" d="M272.49,416.26a1.31,1.31,0,0,1-.23,1.23" transform="translate(-164.27 -70.99)"/><path class="cls-6" d="M275.91,415.75a6.64,6.64,0,0,1,1.1.88" transform="translate(-164.27 -70.99)"/><path class="cls-6" d="M278.6,420.28l.48.65" transform="translate(-164.27 -70.99)"/><path class="cls-6" d="M274.48,420v.93" transform="translate(-164.27 -70.99)"/><path class="cls-6" d="M280.6,422.7a1.34,1.34,0,0,1,.24,1.13" transform="translate(-164.27 -70.99)"/><path class="cls-6" d="M279.72,426.09l.86,1.3" transform="translate(-164.27 -70.99)"/><path class="cls-6" d="M273,424.86a2.8,2.8,0,0,1-.91,1.34" transform="translate(-164.27 -70.99)"/><path class="cls-6" d="M269.52,425a1.92,1.92,0,0,1-1,1.71" transform="translate(-164.27 -70.99)"/><path class="cls-6" d="M269.24,431.15a1.72,1.72,0,0,1-.38,1.11" transform="translate(-164.27 -70.99)"/><path class="cls-6" d="M274.86,429.46v1" transform="translate(-164.27 -70.99)"/><path class="cls-6" d="M276.45,429.28a1,1,0,0,1,.75.46" transform="translate(-164.27 -70.99)"/><path class="cls-6" d="M280.1,430.78l.84.47" transform="translate(-164.27 -70.99)"/><path class="cls-6" d="M279.48,432.75a2.32,2.32,0,0,0,.61,2.25" transform="translate(-164.27 -70.99)"/><path class="cls-6" d="M268.61,434.85a2.07,2.07,0,0,1-1.06.27" transform="translate(-164.27 -70.99)"/><path class="cls-5" d="M248.69,415.35v2.21a3.33,3.33,0,0,1,0,.63,3.32,3.32,0,0,0,0-.63v-2.21a3.33,3.33,0,0,1,0-.63,3.32,3.32,0,0,0,0,.63Z" transform="translate(-164.27 -70.99)"/><path class="cls-5" d="M243.86,419v1.21a2.66,2.66,0,0,1,0,.63,2.66,2.66,0,0,0,0-.63V419a3.21,3.21,0,0,1,0-.62,3.21,3.21,0,0,0,0,.62Z" transform="translate(-164.27 -70.99)"/><path class="cls-5" d="M242.25,422.8V424a2.66,2.66,0,0,1,0,.63,2.66,2.66,0,0,0,0-.63V422.8a3.21,3.21,0,0,1,0-.62,3.21,3.21,0,0,0,0,.62Z" transform="translate(-164.27 -70.99)"/><path class="cls-5" d="M239.22,422.6v.2a3.33,3.33,0,0,1,0,.63,3.32,3.32,0,0,0,0-.63v-.2a3.22,3.22,0,0,1,0-.62,3.21,3.21,0,0,0,0,.62Z" transform="translate(-164.27 -70.99)"/><path class="cls-5" d="M245.28,430.68v-1.25s0,1.25,0,1.25Z" transform="translate(-164.27 -70.99)"/><path class="cls-5" d="M247.89,422.8v1.41a2.66,2.66,0,0,1,0,.63,2.66,2.66,0,0,0,0-.63V422.8a3.21,3.21,0,0,1,0-.62,3.21,3.21,0,0,0,0,.62Z" transform="translate(-164.27 -70.99)"/><path class="cls-5" d="M247.69,431.87v1.61a2.66,2.66,0,0,1,0,.63,2.66,2.66,0,0,0,0-.63v-1.61a3.32,3.32,0,0,1,0-.63,3.31,3.31,0,0,0,0,.63Z" transform="translate(-164.27 -70.99)"/><path class="cls-5" d="M241.44,434.89v.61a3.21,3.21,0,0,1,0,.62,3.21,3.21,0,0,0,0-.62v-.61a2.57,2.57,0,0,1,0-.62,2.57,2.57,0,0,0,0,.62Z" transform="translate(-164.27 -70.99)"/><path class="cls-5" d="M243.46,437.11v1.61a3.21,3.21,0,0,1,0,.62,2.56,2.56,0,0,0,0-.62v-1.61a3.33,3.33,0,0,1,0-.63,3.32,3.32,0,0,0,0,.63Z" transform="translate(-164.27 -70.99)"/><path class="cls-5" d="M246.07,438.12v1a3.33,3.33,0,0,1,0,.63,3.32,3.32,0,0,0,0-.63v-1a3.33,3.33,0,0,1,0-.63,3.32,3.32,0,0,0,0,.63Z" transform="translate(-164.27 -70.99)"/><path class="cls-5" d="M248.09,438.32v.2a3.22,3.22,0,0,1,0,.62,3.21,3.21,0,0,0,0-.62v-.2a2.66,2.66,0,0,1,0-.63,2.66,2.66,0,0,0,0,.63Z" transform="translate(-164.27 -70.99)"/><path class="cls-5" d="M248.49,442.55v1a3.21,3.21,0,0,1,0,.62,3.21,3.21,0,0,0,0-.62v-1a3.33,3.33,0,0,1,0-.63,3.32,3.32,0,0,0,0,.63Z" transform="translate(-164.27 -70.99)"/><path class="cls-5" d="M242.45,444.16v.6a2.66,2.66,0,0,1,0,.63,2.66,2.66,0,0,0,0-.63v-.6a3.32,3.32,0,0,1,0-.63,3.32,3.32,0,0,0,0,.63Z" transform="translate(-164.27 -70.99)"/><path class="cls-5" d="M244.46,446.78v.2a3.32,3.32,0,0,1,0,.63,3.32,3.32,0,0,0,0-.63v-.2a3.32,3.32,0,0,1,0-.63,3.32,3.32,0,0,0,0,.63Z" transform="translate(-164.27 -70.99)"/><path class="cls-5" d="M247.28,449.8V451a3.32,3.32,0,0,1,0,.63,3.32,3.32,0,0,0,0-.63V449.8a3.22,3.22,0,0,1,0-.62,3.21,3.21,0,0,0,0,.62Z" transform="translate(-164.27 -70.99)"/><path class="cls-5" d="M243.25,452.42v.2a3.33,3.33,0,0,1,0,.63,3.32,3.32,0,0,0,0-.63v-.2a3.22,3.22,0,0,1,0-.62,3.2,3.2,0,0,0,0,.62Z" transform="translate(-164.27 -70.99)"/><path class="cls-5" d="M246.69,455.06s0-1.25,0-1.25,0,1.25,0,1.25Z" transform="translate(-164.27 -70.99)"/><path class="cls-5" d="M239.63,413.53v.81a2.66,2.66,0,0,1,0,.63,2.66,2.66,0,0,0,0-.63v-.81a3.21,3.21,0,0,1,0-.62,3.21,3.21,0,0,0,0,.62Z" transform="translate(-164.27 -70.99)"/><path class="cls-5" d="M247.29,409.93s0-1.25,0-1.25,0,1.25,0,1.25Z" transform="translate(-164.27 -70.99)"/><path class="cls-5" d="M243.26,410.72s0-1.25,0-1.25,0,1.25,0,1.25Z" transform="translate(-164.27 -70.99)"/><path class="cls-5" d="M243.66,411.52v.6a2.66,2.66,0,0,1,0,.63,2.66,2.66,0,0,0,0-.63v-.6a3.32,3.32,0,0,1,0-.63,3.32,3.32,0,0,0,0,.63Z" transform="translate(-164.27 -70.99)"/><path class="cls-5" d="M238.62,409.71v1a3.33,3.33,0,0,1,0,.63,3.31,3.31,0,0,0,0-.63v-1a2.66,2.66,0,0,1,0-.63,2.66,2.66,0,0,0,0,.63Z" transform="translate(-164.27 -70.99)"/><path class="cls-6" d="M237.72,414.84a2,2,0,0,1-.64,2.19" transform="translate(-164.27 -70.99)"/><path class="cls-6" d="M237.74,411.89a2,2,0,0,0-.7,1.62" transform="translate(-164.27 -70.99)"/><path class="cls-6" d="M242.28,412.58a1.07,1.07,0,0,0,.54,1.22" transform="translate(-164.27 -70.99)"/><path class="cls-6" d="M247.88,412.76v1.5" transform="translate(-164.27 -70.99)"/><path class="cls-6" d="M250.5,412a2.14,2.14,0,0,0,.82,1.44" transform="translate(-164.27 -70.99)"/><path class="cls-6" d="M251.34,410a2.3,2.3,0,0,0,.49,1.49" transform="translate(-164.27 -70.99)"/><path class="cls-6" d="M250.7,415.66a3.26,3.26,0,0,1,.85,1.78" transform="translate(-164.27 -70.99)"/><path class="cls-6" d="M249.84,420.82a2,2,0,0,0,.49,1.12" transform="translate(-164.27 -70.99)"/><path class="cls-6" d="M246.78,417.08a1.33,1.33,0,0,0,.24,1.23" transform="translate(-164.27 -70.99)"/><path class="cls-6" d="M243.37,416.57a6.74,6.74,0,0,0-1.1.88" transform="translate(-164.27 -70.99)"/><path class="cls-6" d="M240.68,421.11l-.48.64" transform="translate(-164.27 -70.99)"/><path class="cls-6" d="M244.79,420.82v.94" transform="translate(-164.27 -70.99)"/><path class="cls-6" d="M238.68,423.52a1.37,1.37,0,0,0-.25,1.14" transform="translate(-164.27 -70.99)"/><path class="cls-6" d="M239.55,426.91l-.85,1.31" transform="translate(-164.27 -70.99)"/><path class="cls-6" d="M246.3,425.69a2.87,2.87,0,0,0,.91,1.33" transform="translate(-164.27 -70.99)"/><path class="cls-6" d="M249.75,425.79a1.92,1.92,0,0,0,1,1.71" transform="translate(-164.27 -70.99)"/><path class="cls-6" d="M250,432a1.7,1.7,0,0,0,.39,1.12" transform="translate(-164.27 -70.99)"/><path class="cls-6" d="M244.42,430.28v1" transform="translate(-164.27 -70.99)"/><path class="cls-6" d="M242.83,430.1a1.06,1.06,0,0,0-.76.46" transform="translate(-164.27 -70.99)"/><path class="cls-6" d="M239.18,431.61l-.85.46" transform="translate(-164.27 -70.99)"/><path class="cls-6" d="M239.79,433.57a2.33,2.33,0,0,1-.6,2.26" transform="translate(-164.27 -70.99)"/><path class="cls-6" d="M250.67,435.67a2,2,0,0,0,1.05.27" transform="translate(-164.27 -70.99)"/><polygon class="cls-7" points="67.48 336.55 125.92 336.55 142.04 271.16 51.36 271.16 67.48 336.55"/><line class="cls-8" x1="96.22" y1="283.69" x2="96.22" y2="336.55"/><path class="cls-9" d="M224.35,354l12.55,53.16h-5.47l-14.75-61S222.8,352.69,224.35,354Z" transform="translate(-164.27 -70.99)"/><path class="cls-9" d="M286.17,379.87l3.94,3.08,7.43-5.21,2.55-1.79-1.31-3.24s-8.31,7.63-12.61,7.16l-1.92,15.94s7.95-.17,10-4.74l3.16-12.8" transform="translate(-164.27 -70.99)"/><path class="cls-10" d="M286.17,379.87l4,3h-.08c3.29-2.39,6.61-4.73,9.93-7.08l-.06.19-1.32-3.24.27.07a50.56,50.56,0,0,1-5.83,4.57,25.08,25.08,0,0,1-3.24,1.84,7.52,7.52,0,0,1-3.67.85l.26-.2c-.3,2.66-.64,5.31-1,8l-1,8-.2-.21a21.08,21.08,0,0,0,2.85-.33,16.34,16.34,0,0,0,2.76-.76,9.68,9.68,0,0,0,2.49-1.35,6.19,6.19,0,0,0,1.78-2.16v0c1.06-4.27,2.2-8.52,3.3-12.77-1,4.28-2,8.57-3,12.84h0a6.64,6.64,0,0,1-1.85,2.29,10.19,10.19,0,0,1-2.56,1.42,16.2,16.2,0,0,1-2.82.8,19.81,19.81,0,0,1-2.9.36H284l0-.23.92-8c.32-2.66.61-5.32,1-8l0-.23.23,0a7.05,7.05,0,0,0,3.44-.79,25,25,0,0,0,3.2-1.77,51.53,51.53,0,0,0,5.82-4.49l.19-.16.09.22,1.29,3.25,0,.12-.1.07c-3.34,2.32-6.67,4.64-10,6.92l0,0,0,0Z" transform="translate(-164.27 -70.99)"/><path class="cls-9" d="M235.9,379.87,232,383l-7.43-5.21L222,376l1.3-3.24s8.31,7.63,12.61,7.16l1.92,15.94s-7.95-.17-10-4.74l-3.16-12.8" transform="translate(-164.27 -70.99)"/><path class="cls-10" d="M235.9,379.87,232,383l0,0,0,0c-3.36-2.28-6.69-4.6-10-6.92l-.11-.07.05-.12,1.29-3.25.09-.22.19.16a51.53,51.53,0,0,0,5.82,4.49,25,25,0,0,0,3.2,1.77,7.08,7.08,0,0,0,3.44.79l.24,0,0,.23c.35,2.65.65,5.31,1,8l.92,8,0,.23h-.22a20,20,0,0,1-2.9-.36,15.85,15.85,0,0,1-2.81-.8,10.08,10.08,0,0,1-2.57-1.42,6.64,6.64,0,0,1-1.85-2.29h0c-1.06-4.27-2-8.56-3-12.84,1.1,4.25,2.24,8.5,3.3,12.77v0a6.19,6.19,0,0,0,1.78,2.16,9.58,9.58,0,0,0,2.5,1.35,16.23,16.23,0,0,0,2.75.76,21.08,21.08,0,0,0,2.85.33l-.2.21-1-8c-.33-2.66-.68-5.31-1-8l.26.2a7.54,7.54,0,0,1-3.67-.85,25.77,25.77,0,0,1-3.24-1.84,50.56,50.56,0,0,1-5.83-4.57l.27-.07L222.13,376l0-.19c3.31,2.35,6.63,4.69,9.92,7.08h-.08Z" transform="translate(-164.27 -70.99)"/><path class="cls-9" d="M261,369.14a47.65,47.65,0,0,0,6.88-.5L267,407.53H261Z" transform="translate(-164.27 -70.99)"/><path class="cls-11" d="M296.48,172.84s99.13,17,43.66,155.46L325.4,319" transform="translate(-164.27 -70.99)"/><path class="cls-12" d="M224.79,172.84s-99.13,17-43.65,155.46L195.87,319" transform="translate(-164.27 -70.99)"/><ellipse class="cls-13" cx="96.72" cy="196.11" rx="73.88" ry="107.68"/><path class="cls-14" d="M219.89,340" transform="translate(-164.27 -70.99)"/><path class="cls-15" d="M183.41,327.06s4.57,9.88,17.45,6.64l1.2-.85.25-.32s-6.09-12.24-6.34-14.26" transform="translate(-164.27 -70.99)"/><path class="cls-15" d="M338.79,328.11s-4.58,9.89-17.45,6.64l-1.2-.84-.25-.32s6.09-12.24,6.34-14.26" transform="translate(-164.27 -70.99)"/><polyline class="cls-16" points="97.15 302.54 97.15 119.86 107.8 131.59 128.11 107.88"/><path class="cls-17" d="M211.43,229.84s-7.89,20.36-4.54,29.18l9,6.45,10.95-4.41,5-29.19" transform="translate(-164.27 -70.99)"/><polyline class="cls-16" points="95.64 302.54 95.64 119.86 84.99 131.59 64.68 107.88"/><path class="cls-18" d="M224.91,200l.06-.19a2.77,2.77,0,0,1,.61-1.07,2.4,2.4,0,0,1,1.87-.88,2.27,2.27,0,0,1,1.15.32s0,0,.05,0l1.59-2.79a.79.79,0,0,1,.76-.44l.1,0,.88.24h0l-.13.6h0l-.83-.23a.25.25,0,0,0-.33.15l-.48.84,0,0h0l4.25,1.17s0,0,.06,0l.32-.46,0,0h0l-.72-.2a.28.28,0,0,1-.2-.25.35.35,0,0,1,.13-.31.24.24,0,0,1,.2,0l1.93.53h0l-.13.59h0l-.58-.15s0,0-.05,0l-.51.73s0,0,0,.05c.11.63.22,1.25.34,1.87v0h.25a2.22,2.22,0,0,1,.88.17,2.69,2.69,0,0,1,1.43,1.37,3.22,3.22,0,0,1,.33,1.6,3,3,0,0,1-1.34,2.49,2.23,2.23,0,0,1-1.48.37l-.24,0h0l-.28-.08,0,0a3.62,3.62,0,0,1-.4-.19,2.78,2.78,0,0,1-1.18-1.38,3.33,3.33,0,0,1-.24-1.56c0-.06,0-.11,0-.17h0l-1.07-.29a.33.33,0,0,1-.22-.2c-.1-.23-.21-.46-.32-.7-.28-.61-.56-1.23-.85-1.84s-.49-1.08-.74-1.62l-.14-.3-.47.83h0l0,0a3.19,3.19,0,0,1,.93,2.63,3,3,0,0,1-.25,1,2.8,2.8,0,0,1-1.54,1.52,2.19,2.19,0,0,1-1.1.13l-.17,0-.3-.08h0c-.12-.06-.25-.11-.37-.18a2.85,2.85,0,0,1-1.35-1.83,3.19,3.19,0,0,1-.1-1.19,1.49,1.49,0,0,0,0-.21Zm3.85-.95a.05.05,0,0,1,0,0l-.79,1.4c-.1.16-.19.33-.29.5a.24.24,0,0,1-.35.1.32.32,0,0,1-.08-.44c.36-.63.72-1.26,1.07-1.89l0,0a1.94,1.94,0,0,0-2.68.92,2.6,2.6,0,0,0,.66,3.23,1.91,1.91,0,0,0,2.85-.67A2.62,2.62,0,0,0,228.76,199.06Zm4.7,3.74a2.49,2.49,0,0,0,1.07,2.4,1.89,1.89,0,0,0,2.53-.51,2.67,2.67,0,0,0,.19-2.92,2,2,0,0,0-1.89-1c0,.14.06.28.08.42.11.61.23,1.22.34,1.83a.4.4,0,0,1,0,.19.26.26,0,0,1-.32.18l-1.95-.53Zm-3.59-5.67,2,4.37,2.24-3.21Zm4.86,3.09-.27-1.43-2.14,3.06.73.21A2.86,2.86,0,0,1,234.73,200.22Zm-1.14,2,1.58.44-.33-1.8A2.22,2.22,0,0,0,233.59,202.2Z" transform="translate(-164.27 -70.99)"/><path class="cls-18" d="M229.24,221.2a1.23,1.23,0,0,1,0-.19,3,3,0,0,1,.37-1.21,2.57,2.57,0,0,1,1.64-1.35,2.25,2.25,0,0,1,1.18,0s0,0,.05,0c.32-1,.65-2.09,1-3.14a.85.85,0,0,1,.65-.63h1v.61h-.89c-.16,0-.24.07-.3.24s-.19.62-.29.93v.05h4.41a.05.05,0,0,0,0,0c.07-.17.14-.35.22-.52,0,0,0,0,0,0h-.79a.28.28,0,0,1-.25-.19.34.34,0,0,1,.07-.34.24.24,0,0,1,.19-.08h2v.61H239s0,0,0,0l-.36.85v.06c.24.57.48,1.14.71,1.72l0,0,.24-.08a2.23,2.23,0,0,1,.89-.07,2.5,2.5,0,0,1,1.67,1,3.16,3.16,0,0,1,.64,1.47,3.22,3.22,0,0,1-.8,2.78,2.45,2.45,0,0,1-1.36.76l-.23,0H240c-.14,0-.28,0-.43-.08a2.58,2.58,0,0,1-1.42-1,3.22,3.22,0,0,1-.56-1.45.88.88,0,0,0,0-.17h0c-.37,0-.73,0-1.1,0a.3.3,0,0,1-.25-.13l-.45-.6-1.2-1.57L233.47,218l-.2-.25-.29.93h0l0,0a3,3,0,0,1,1.44,2.3,3.14,3.14,0,0,1-.05,1.06,3,3,0,0,1-1.18,1.89,2.38,2.38,0,0,1-1,.42l-.17,0h-.33a2.57,2.57,0,0,1-.4-.07,2.66,2.66,0,0,1-1.69-1.42,3.13,3.13,0,0,1-.33-1.14,1.5,1.5,0,0,1,0-.2Zm3.55-1.94s0,0,0,0c-.17.52-.33,1-.49,1.57l-.18.56a.26.26,0,0,1-.32.2.31.31,0,0,1-.17-.41l.66-2.13,0,0a2,2,0,0,0-2.42,1.61,2.46,2.46,0,0,0,1.29,3,2,2,0,0,0,2.63-1.41A2.52,2.52,0,0,0,232.79,219.26Zm5.32,2.39a2.32,2.32,0,0,0,1.53,2,2,2,0,0,0,2.36-1.16,2.64,2.64,0,0,0-.41-2.89,1.83,1.83,0,0,0-2-.51c0,.13.1.26.16.39.23.56.46,1.13.7,1.69a.31.31,0,0,1,0,.19.27.27,0,0,1-.27.26h-2Zm-4.63-4.57,2.84,3.71,1.54-3.71Zm5.35,1.72-.55-1.33L236.81,221h.76A3.08,3.08,0,0,1,238.83,218.8Zm-.71,2.22h1.63l-.69-1.66A2.44,2.44,0,0,0,238.12,221Z" transform="translate(-164.27 -70.99)"/><path class="cls-18" d="M237.06,242.43a1.23,1.23,0,0,1,0-.19,3,3,0,0,1,.37-1.21,2.57,2.57,0,0,1,1.64-1.35,2.25,2.25,0,0,1,1.18,0s0,0,0,0l1-3.14a.85.85,0,0,1,.65-.63h1v.61h-.89c-.16,0-.24.07-.3.24s-.19.62-.29.93v0h4.41a.05.05,0,0,0,0,0c.07-.18.14-.35.22-.52,0,0,0,0,0,0h-.79a.28.28,0,0,1-.25-.19.34.34,0,0,1,.07-.34.24.24,0,0,1,.19-.08h2v.61h-.63s0,0,0,0l-.36.85V238c.24.57.48,1.14.71,1.72l0,0,.24-.08a2.23,2.23,0,0,1,.89-.07,2.5,2.5,0,0,1,1.67.95,3.06,3.06,0,0,1,.64,1.47,3.2,3.2,0,0,1-.8,2.77,2.41,2.41,0,0,1-1.36.77l-.23,0h-.36c-.15,0-.29,0-.44-.08a2.58,2.58,0,0,1-1.42-1,3.22,3.22,0,0,1-.56-1.45.88.88,0,0,0,0-.17h-1.14a.33.33,0,0,1-.25-.13l-.45-.6-1.2-1.57-1.05-1.37c-.07-.08-.13-.17-.2-.26l-.29.94h0l0,0a3,3,0,0,1,1.44,2.3,3.14,3.14,0,0,1-.05,1.06,3,3,0,0,1-1.18,1.89,2.29,2.29,0,0,1-1.05.42l-.17,0h-.33a2.57,2.57,0,0,1-.4-.07,2.66,2.66,0,0,1-1.69-1.42,3.19,3.19,0,0,1-.33-1.14,1.5,1.5,0,0,1,0-.2Zm3.55-1.94s0,0,0,0c-.17.52-.33,1-.49,1.57l-.18.56a.26.26,0,0,1-.32.2.32.32,0,0,1-.17-.42l.66-2.12,0,0a2,2,0,0,0-2.42,1.61,2.46,2.46,0,0,0,1.29,3,2,2,0,0,0,2.63-1.41A2.51,2.51,0,0,0,240.61,240.49Zm5.32,2.39a2.32,2.32,0,0,0,1.53,2,2,2,0,0,0,2.36-1.17,2.63,2.63,0,0,0-.41-2.88,1.83,1.83,0,0,0-2-.51c0,.13.1.26.16.39.23.56.46,1.13.7,1.69a.31.31,0,0,1,0,.19.28.28,0,0,1-.27.26h-2Zm-4.63-4.57,2.84,3.71,1.54-3.71Zm5.35,1.72-.55-1.33-1.47,3.55h.76A3.08,3.08,0,0,1,246.65,240Zm-.71,2.22h1.63l-.69-1.66A2.44,2.44,0,0,0,245.94,242.25Z" transform="translate(-164.27 -70.99)"/><path class="cls-18" d="M240,268.79a1.36,1.36,0,0,0,0-.2,3.34,3.34,0,0,1,.37-1.21A2.68,2.68,0,0,1,242,266a2.25,2.25,0,0,1,1.18,0s0,0,.05,0c.32-1.05.65-2.1,1-3.14a.85.85,0,0,1,.65-.63h1v.61H245c-.16,0-.25.07-.3.25s-.19.62-.29.93v0h4.41s0,0,.05,0,.14-.35.22-.53a.43.43,0,0,0,0-.05h-.78a.26.26,0,0,1-.25-.19.35.35,0,0,1,.07-.34.27.27,0,0,1,.19-.08h2v.61h-.63a.05.05,0,0,0-.05,0c-.11.28-.23.56-.35.85v.05c.24.58.48,1.15.71,1.72v0l.25-.08a2.23,2.23,0,0,1,.89-.08,2.45,2.45,0,0,1,1.66,1,3.07,3.07,0,0,1,.65,1.47,3.2,3.2,0,0,1-.8,2.77,2.34,2.34,0,0,1-1.36.76l-.24,0h-.36a3.21,3.21,0,0,1-.43-.07,2.56,2.56,0,0,1-1.42-1,3.17,3.17,0,0,1-.56-1.45s0-.11,0-.17h-1.14a.3.3,0,0,1-.25-.13l-.45-.59-1.2-1.57-1.06-1.37-.19-.26-.29.93h0l0,0a3,3,0,0,1,1.44,2.31,3.14,3.14,0,0,1,0,1.06,3,3,0,0,1-1.19,1.89,2.29,2.29,0,0,1-1,.42l-.17,0h-.33c-.14,0-.27,0-.4-.06a2.65,2.65,0,0,1-1.69-1.43,3.37,3.37,0,0,1-.34-1.13,1.49,1.49,0,0,0,0-.21Zm3.56-2s0,0,0,0c-.16.53-.32,1.05-.49,1.57-.05.19-.11.38-.17.57a.26.26,0,0,1-.32.19.31.31,0,0,1-.17-.41l.66-2.12v-.05a2.07,2.07,0,0,0-2.42,1.62,2.47,2.47,0,0,0,1.3,3,2,2,0,0,0,2.63-1.41A2.52,2.52,0,0,0,243.53,266.84Zm5.32,2.39a2.3,2.3,0,0,0,1.53,2,2,2,0,0,0,2.36-1.17,2.65,2.65,0,0,0-.41-2.88,1.87,1.87,0,0,0-2.05-.52c.06.13.11.26.17.4l.7,1.69a.37.37,0,0,1,0,.18.27.27,0,0,1-.27.26h-2.05Zm-4.64-4.57,2.85,3.72,1.54-3.72Zm5.36,1.72-.55-1.32-1.47,3.55h.76A3.1,3.1,0,0,1,249.57,266.38Zm-.71,2.23h1.63L249.8,267A2.44,2.44,0,0,0,248.86,268.61Z" transform="translate(-164.27 -70.99)"/><path class="cls-18" d="M240,296.4a1.23,1.23,0,0,0,0-.19,3.29,3.29,0,0,1,.37-1.21,2.62,2.62,0,0,1,1.65-1.35,2.15,2.15,0,0,1,1.18,0s0,0,.05,0c.32-1.05.65-2.09,1-3.14a.85.85,0,0,1,.65-.63h1v.61H245a.28.28,0,0,0-.3.24c-.1.31-.19.62-.29.93v.05h4.41s0,0,.05,0,.14-.35.22-.53c0,0,0,0,0,0h-.78a.27.27,0,0,1-.25-.2.33.33,0,0,1,.07-.33.24.24,0,0,1,.19-.08h2v.61h-.63a.05.05,0,0,0-.05,0c-.11.28-.23.57-.35.85V292c.24.58.48,1.15.71,1.73v0l.25-.08a2.06,2.06,0,0,1,.89-.07,2.48,2.48,0,0,1,1.66,1,3.07,3.07,0,0,1,.65,1.47,3.2,3.2,0,0,1-.8,2.77,2.34,2.34,0,0,1-1.36.76l-.24,0h-.36c-.14,0-.29,0-.43-.08a2.56,2.56,0,0,1-1.42-1,3.13,3.13,0,0,1-.56-1.45c0-.05,0-.11,0-.17h-1.14a.28.28,0,0,1-.25-.13l-.45-.59-1.2-1.57-1.06-1.37-.19-.26-.29.94h0a3,3,0,0,1,1.44,2.31,3.14,3.14,0,0,1,0,1.06,3,3,0,0,1-1.19,1.89,2.29,2.29,0,0,1-1,.42l-.17,0h-.33l-.4-.07a2.66,2.66,0,0,1-1.69-1.42A3.42,3.42,0,0,1,240,297a1.49,1.49,0,0,0,0-.21Zm3.56-1.94,0,0c-.16.52-.32,1-.49,1.57-.05.18-.11.37-.17.56a.25.25,0,0,1-.32.19.3.3,0,0,1-.17-.41l.66-2.12v0a2.06,2.06,0,0,0-2.42,1.61,2.48,2.48,0,0,0,1.3,3,2,2,0,0,0,2.63-1.41A2.51,2.51,0,0,0,243.53,294.46Zm5.32,2.38a2.29,2.29,0,0,0,1.53,2,2,2,0,0,0,2.36-1.17,2.65,2.65,0,0,0-.41-2.88,1.85,1.85,0,0,0-2.05-.51l.17.39.7,1.69a.4.4,0,0,1,0,.19.27.27,0,0,1-.27.25h-2.05Zm-4.64-4.56,2.85,3.71,1.54-3.71Zm5.36,1.71-.55-1.32-1.47,3.55h.76A3.12,3.12,0,0,1,249.57,294Zm-.71,2.23h1.63l-.69-1.66A2.44,2.44,0,0,0,248.86,296.22Z" transform="translate(-164.27 -70.99)"/><path class="cls-18" d="M240,316.62a1.23,1.23,0,0,0,0-.19,3.29,3.29,0,0,1,.37-1.21,2.62,2.62,0,0,1,1.65-1.35,2.15,2.15,0,0,1,1.18,0s0,0,.05,0c.32-1,.65-2.09,1-3.14a.85.85,0,0,1,.65-.63h1v.61H245a.28.28,0,0,0-.3.24c-.1.31-.19.62-.29.93v0h4.41s0,0,.05,0c.07-.18.14-.35.22-.53,0,0,0,0,0,0h-.78a.27.27,0,0,1-.25-.2.33.33,0,0,1,.07-.33.24.24,0,0,1,.19-.08h2v.61h-.63a.05.05,0,0,0-.05,0c-.11.28-.23.57-.35.85v0c.24.58.48,1.15.71,1.73v0l.25-.08a2.06,2.06,0,0,1,.89-.07,2.48,2.48,0,0,1,1.66.95,3.07,3.07,0,0,1,.65,1.47,3.2,3.2,0,0,1-.8,2.77,2.34,2.34,0,0,1-1.36.76l-.24,0h-.36c-.14,0-.29,0-.43-.08a2.56,2.56,0,0,1-1.42-1,3.13,3.13,0,0,1-.56-1.45c0-.05,0-.11,0-.17h-1.14a.28.28,0,0,1-.25-.13l-.45-.59-1.2-1.57-1.06-1.37-.19-.26-.29.94h0a3,3,0,0,1,1.44,2.31,3.14,3.14,0,0,1,0,1.06,3,3,0,0,1-1.19,1.89,2.29,2.29,0,0,1-1,.42l-.17,0h-.33l-.4-.07a2.66,2.66,0,0,1-1.69-1.42,3.49,3.49,0,0,1-.34-1.14,1.49,1.49,0,0,0,0-.21Zm3.56-1.94,0,0c-.16.52-.32,1-.49,1.57-.05.18-.11.37-.17.56a.25.25,0,0,1-.32.19.3.3,0,0,1-.17-.41l.66-2.12v0a2.06,2.06,0,0,0-2.42,1.61,2.48,2.48,0,0,0,1.3,3,2,2,0,0,0,2.63-1.41A2.51,2.51,0,0,0,243.53,314.68Zm5.32,2.38a2.29,2.29,0,0,0,1.53,2,2,2,0,0,0,2.36-1.17,2.65,2.65,0,0,0-.41-2.88,1.85,1.85,0,0,0-2.05-.51l.17.39.7,1.69a.4.4,0,0,1,0,.19.27.27,0,0,1-.27.25h-2.05Zm-4.64-4.56,2.85,3.71,1.54-3.71Zm5.36,1.71-.55-1.32-1.47,3.55h.76A3.12,3.12,0,0,1,249.57,314.21Zm-.71,2.23h1.63l-.69-1.66A2.44,2.44,0,0,0,248.86,316.44Z" transform="translate(-164.27 -70.99)"/><path class="cls-18" d="M239.62,343.45a1.23,1.23,0,0,0,0-.19,3.12,3.12,0,0,1,.38-1.21,2.57,2.57,0,0,1,1.64-1.35,2.25,2.25,0,0,1,1.18,0s0,0,0,0c.32-1,.65-2.09,1-3.14a.85.85,0,0,1,.65-.63h1v.61h-.89c-.16,0-.24.07-.3.24s-.19.62-.29.93v.05h4.41a.05.05,0,0,0,.05,0c.07-.17.14-.35.22-.52s0,0,0-.05H248a.28.28,0,0,1-.25-.19.34.34,0,0,1,.07-.34.24.24,0,0,1,.19-.08h2v.61h-.63s0,0,0,0L249,339v.06c.24.57.48,1.14.71,1.72l0,0,.24-.08a2.23,2.23,0,0,1,.89-.07,2.45,2.45,0,0,1,1.66.95,3.07,3.07,0,0,1,.65,1.47,3.21,3.21,0,0,1-.8,2.78,2.45,2.45,0,0,1-1.36.76l-.24,0h-.36c-.14,0-.29,0-.43-.08a2.58,2.58,0,0,1-1.42-1,3.22,3.22,0,0,1-.56-1.45.88.88,0,0,0,0-.17h-1.14a.3.3,0,0,1-.25-.13l-.45-.6-1.2-1.57-1-1.37-.2-.25-.29.93h0l0,0a3,3,0,0,1,1.44,2.3,3.2,3.2,0,0,1,0,1.07,3,3,0,0,1-1.19,1.88,2.29,2.29,0,0,1-1,.42l-.17,0h-.33a2.57,2.57,0,0,1-.4-.07,2.66,2.66,0,0,1-1.69-1.42,3.35,3.35,0,0,1-.34-1.14,1.23,1.23,0,0,0,0-.2Zm3.56-1.94a.06.06,0,0,0,0,0c-.17.52-.33,1.05-.49,1.57l-.18.56a.26.26,0,0,1-.32.2.31.31,0,0,1-.17-.41l.66-2.13,0,0a2,2,0,0,0-2.42,1.61,2.46,2.46,0,0,0,1.29,3,2,2,0,0,0,2.63-1.41A2.52,2.52,0,0,0,243.18,341.51Zm5.32,2.39a2.3,2.3,0,0,0,1.53,2,2,2,0,0,0,2.36-1.16,2.66,2.66,0,0,0-.41-2.89,1.83,1.83,0,0,0-2-.51c.05.13.1.26.16.39.23.56.46,1.13.7,1.69a.4.4,0,0,1,0,.19.27.27,0,0,1-.27.26H248.5Zm-4.63-4.57,2.84,3.71,1.54-3.71Zm5.35,1.72-.55-1.33-1.47,3.56H248A3.08,3.08,0,0,1,249.22,341.05Zm-.71,2.23h1.63l-.69-1.67A2.44,2.44,0,0,0,248.51,343.28Z" transform="translate(-164.27 -70.99)"/><path class="cls-18" d="M230.37,362.74l-.06-.18a3.22,3.22,0,0,1-.16-1.27,3.11,3.11,0,0,1,.92-2.07,2.46,2.46,0,0,1,1.05-.62s0,0,0-.05c-.13-1.1-.26-2.21-.38-3.31a1,1,0,0,1,.32-.9l.08-.06.81-.48h0l.25.54,0,0-.76.45a.32.32,0,0,0-.16.37c0,.33.07.65.11,1v.05l0,0,3.88-2.31s0,0,0-.06,0-.38,0-.58a.11.11,0,0,0,0-.05l0,0-.66.39a.23.23,0,0,1-.3,0,.33.33,0,0,1-.07-.33.26.26,0,0,1,.13-.17l1.76-1.05,0,0,.25.55h0l-.53.32a0,0,0,0,0,0,.05c0,.31,0,.63,0,.94a.08.08,0,0,0,0,0l1.33,1.15,0,0,.18-.2a2.64,2.64,0,0,1,.76-.54,2.32,2.32,0,0,1,1.86,0,2.53,2.53,0,0,1,1.16,1,3.29,3.29,0,0,1,.41,2.88,2.88,2.88,0,0,1-.9,1.39l-.2.16,0,0-.26.16h0c-.14.05-.28.12-.42.16a2.29,2.29,0,0,1-1.68-.17,2.63,2.63,0,0,1-1.07-1l-.09-.14,0,0-1,.57a.26.26,0,0,1-.28,0l-.64-.29-1.69-.76-1.49-.66-.27-.13.11,1h.05a2.51,2.51,0,0,1,2.2,1.29,3.18,3.18,0,0,1,.39,1,3.38,3.38,0,0,1-.3,2.3,2.74,2.74,0,0,1-.76.92l-.14.11-.27.16h0a3,3,0,0,1-.38.15,2.3,2.3,0,0,1-2.07-.37,2.67,2.67,0,0,1-.76-.84l-.1-.17Zm2.38-3.6v0c.06.55.13,1.1.19,1.65,0,.2.05.4.07.6a.3.3,0,0,1-.21.34c-.15,0-.29-.08-.31-.28-.09-.74-.17-1.49-.26-2.23v-.05a2.42,2.42,0,0,0-1.5,2.71,2.12,2.12,0,0,0,2.34,1.95,2.34,2.34,0,0,0,1.77-2.64A2.18,2.18,0,0,0,232.75,359.14Zm5.68-.69a2,2,0,0,0,2.18,1,2.33,2.33,0,0,0,1.62-2.28,2.36,2.36,0,0,0-1.52-2.35,1.88,1.88,0,0,0-2,.62l.3.27,1.3,1.13a.4.4,0,0,1,.1.15.35.35,0,0,1-.14.38l-1.78,1.05Zm-6-1.61,4,1.8-.13-4.11Zm5.44-1.3-1-.88.12,3.93.68-.4A3.48,3.48,0,0,1,237.92,355.54Zm.27,2.36,1.44-.86-1.27-1.12A2.67,2.67,0,0,0,238.19,357.9Z" transform="translate(-164.27 -70.99)"/><path class="cls-18" d="M213,343.84c0-.06,0-.12,0-.19a3.24,3.24,0,0,1,0-1.28,3,3,0,0,1,1.18-1.89,2.21,2.21,0,0,1,1.11-.43s0,0,0-.05c0-1.11,0-2.23,0-3.34a1,1,0,0,1,.44-.84l.09,0,.86-.34h0l.17.58h0l-.8.32a.31.31,0,0,0-.21.34c0,.33,0,.66,0,1v0h0l4.14-1.62a.06.06,0,0,0,0-.06l.06-.57a.15.15,0,0,1,0-.06l-.05,0-.69.27a.23.23,0,0,1-.29-.09.34.34,0,0,1,0-.34.33.33,0,0,1,.16-.15l1.88-.73,0,0,.17.58,0,0-.56.21a.05.05,0,0,0,0,0c0,.31-.07.63-.1.94a.08.08,0,0,0,0,.05c.38.46.77.91,1.16,1.36v0l.21-.16a2.48,2.48,0,0,1,.83-.41,2.31,2.31,0,0,1,1.84.29,2.66,2.66,0,0,1,1,1.15,3.29,3.29,0,0,1,0,2.92,2.61,2.61,0,0,1-1.07,1.22l-.21.12,0,0-.28.11h0l-.42.09a2.35,2.35,0,0,1-1.65-.45,2.85,2.85,0,0,1-.93-1.17l-.07-.15h0l-1,.41a.28.28,0,0,1-.28,0l-.6-.39-1.58-1-1.38-.91-.26-.17v1h0a2.64,2.64,0,0,1,2,1.64,3.36,3.36,0,0,1-.33,3.25,2.61,2.61,0,0,1-.87.79l-.16.08-.28.11h0a3.14,3.14,0,0,1-.4.08,2.34,2.34,0,0,1-2-.72,2.89,2.89,0,0,1-.64-.95l-.07-.18Zm2.81-3.16v.05c0,.55,0,1.11,0,1.66,0,.2,0,.4,0,.6a.27.27,0,0,1-.25.3c-.15,0-.27-.13-.27-.32l0-2.26v0a2.3,2.3,0,0,0-1.84,2.42,2.09,2.09,0,1,0,4.16,0A2.3,2.3,0,0,0,215.83,340.68Zm5.71.28a2.06,2.06,0,0,0,2,1.36,2.21,2.21,0,0,0,1.9-2,2.49,2.49,0,0,0-1.21-2.58,1.85,1.85,0,0,0-2.08.28l.27.31,1.14,1.34a.34.34,0,0,1,.08.17.31.31,0,0,1-.19.34l-1.89.75Zm-5.67-2.6,3.74,2.46.4-4.08Zm5.54-.36-.89-1.05-.39,3.91.72-.28A3.38,3.38,0,0,1,221.41,338Zm0,2.37,1.55-.6-1.13-1.32A2.67,2.67,0,0,0,221.37,340.37Z" transform="translate(-164.27 -70.99)"/><path class="cls-18" d="M210.45,317.89c0-.07,0-.13,0-.2a3.25,3.25,0,0,1,0-1.28,3,3,0,0,1,1.17-1.89,2.25,2.25,0,0,1,1.12-.43s0,0,0,0c0-1.11,0-2.23,0-3.34a1,1,0,0,1,.44-.84l.09,0,.86-.34h0l.17.57,0,0-.8.32a.31.31,0,0,0-.21.34c0,.33,0,.66,0,1v0h0l4.14-1.63a0,0,0,0,0,0-.05l.06-.58a.09.09,0,0,1,0-.05h0l-.69.28a.25.25,0,0,1-.29-.09.37.37,0,0,1,0-.35.27.27,0,0,1,.16-.14l1.88-.74,0,0,.17.58,0,0-.56.22s0,0,0,0l-.09.94a.08.08,0,0,0,0,.05c.38.46.77.91,1.16,1.36l0,0,.2-.16a2.48,2.48,0,0,1,.83-.41,2.27,2.27,0,0,1,1.84.29,2.6,2.6,0,0,1,1,1.14,3.33,3.33,0,0,1,0,2.92,2.64,2.64,0,0,1-1.07,1.23l-.22.12,0,0-.27.11h0a3,3,0,0,1-.43.09,2.27,2.27,0,0,1-1.64-.44,2.78,2.78,0,0,1-.93-1.17,1,1,0,0,1-.07-.15h0l-1,.41a.26.26,0,0,1-.27,0l-.6-.39-1.58-1-1.39-.91-.25-.17v1h0a2.69,2.69,0,0,1,2,1.65,3.19,3.19,0,0,1,.26,1A3.33,3.33,0,0,1,215,319a2.48,2.48,0,0,1-.87.78l-.16.09-.28.11h0a3.14,3.14,0,0,1-.4.08,2.37,2.37,0,0,1-2-.71,3,3,0,0,1-.64-1l-.07-.18Zm2.81-3.17v0c0,.56,0,1.12,0,1.67,0,.2,0,.4,0,.6a.26.26,0,1,1-.52,0c0-.75,0-1.51,0-2.26v0a2.29,2.29,0,0,0-1.83,2.42,2.09,2.09,0,1,0,4.15,0A2.28,2.28,0,0,0,213.26,314.72ZM219,315a2,2,0,0,0,2,1.36,2.2,2.2,0,0,0,1.9-2,2.47,2.47,0,0,0-1.2-2.57,1.83,1.83,0,0,0-2.08.28l.26.31,1.14,1.34a.3.3,0,0,1,.08.16.31.31,0,0,1-.19.35L219,315Zm-5.68-2.59,3.74,2.46.4-4.09Zm5.55-.37-.9-1-.38,3.9.72-.28A3.38,3.38,0,0,1,218.84,312Zm0,2.37,1.54-.61-1.12-1.31A2.67,2.67,0,0,0,218.8,314.4Z" transform="translate(-164.27 -70.99)"/><path class="cls-18" d="M192.87,303c0-.07,0-.13,0-.2a3.24,3.24,0,0,1,0-1.28,3,3,0,0,1,1.22-1.86,2.41,2.41,0,0,1,1.12-.4s0,0,0,0c0-1.12.07-2.23.11-3.34a1,1,0,0,1,.46-.82.19.19,0,0,1,.09,0l.86-.31h0l.16.58-.05,0-.8.29a.3.3,0,0,0-.22.33c0,.33,0,.66,0,1v.05l0,0,4.17-1.5a.07.07,0,0,0,0,0c0-.2,0-.39.07-.58v0h0l-.71.26a.23.23,0,0,1-.28-.1.36.36,0,0,1,0-.35.31.31,0,0,1,.16-.14l1.89-.68,0,0,.16.59h0l-.56.2a.07.07,0,0,0,0,.05c0,.31-.07.62-.11.94a.43.43,0,0,1,0,.05l1.13,1.39,0,0,.21-.16a2.45,2.45,0,0,1,.84-.38,2.3,2.3,0,0,1,1.83.34,2.7,2.7,0,0,1,1,1.18,3.33,3.33,0,0,1,0,2.92,2.65,2.65,0,0,1-1.1,1.19l-.22.11,0,0-.27.1h0a3.21,3.21,0,0,1-.43.07,2.32,2.32,0,0,1-1.63-.49,2.86,2.86,0,0,1-.91-1.19l-.07-.16,0,0-1,.38a.31.31,0,0,1-.28,0l-.59-.41-1.55-1.08-1.36-.95-.26-.17,0,1h0a2.67,2.67,0,0,1,2,1.7,3,3,0,0,1,.24,1,3.28,3.28,0,0,1-.64,2.21,2.58,2.58,0,0,1-.89.76l-.15.08-.29.1h0c-.14,0-.27.06-.4.07a2.34,2.34,0,0,1-2-.77,2.88,2.88,0,0,1-.62-1,1.46,1.46,0,0,1-.07-.19Zm2.88-3.09s0,0,0,.05c0,.55,0,1.11-.05,1.66,0,.2,0,.4,0,.6a.3.3,0,0,1-.26.3c-.16,0-.27-.14-.27-.34,0-.75.05-1.5.08-2.25v0a2.28,2.28,0,0,0-1.89,2.38,2.25,2.25,0,0,0,2,2.38,2.21,2.21,0,0,0,2.14-2.25A2.31,2.31,0,0,0,195.75,299.88Zm5.7.44a2.06,2.06,0,0,0,2,1.42,2.2,2.2,0,0,0,1.95-1.93,2.5,2.5,0,0,0-1.15-2.61,1.84,1.84,0,0,0-2.09.22c.09.1.17.21.26.32l1.11,1.37a.24.24,0,0,1,.07.17.3.3,0,0,1-.19.34l-1.91.69Zm-5.62-2.75,3.69,2.56.49-4.07Zm5.55-.21-.87-1.07-.47,3.89.73-.26A3.38,3.38,0,0,1,201.38,297.36Zm-.09,2.37,1.56-.56-1.1-1.35A2.65,2.65,0,0,0,201.29,299.73Z" transform="translate(-164.27 -70.99)"/><path class="cls-18" d="M213,288.55c0-.07,0-.13,0-.2a3.16,3.16,0,0,1,.37-1.21,2.65,2.65,0,0,1,1.65-1.35,2.21,2.21,0,0,1,1.17,0s0,0,0,0l1-3.14a.85.85,0,0,1,.64-.63h1v.61H218a.28.28,0,0,0-.29.24l-.3.94v0h4.41s0,0,.05,0l.22-.52,0-.05h-.78a.27.27,0,0,1-.25-.19.32.32,0,0,1,.07-.34.22.22,0,0,1,.18-.08h2v.61h-.63s0,0,0,0c-.12.29-.24.57-.35.86a0,0,0,0,0,0,.05c.23.57.47,1.15.71,1.72v0l.24-.08a2.28,2.28,0,0,1,.9-.07,2.47,2.47,0,0,1,1.66,1,2.89,2.89,0,0,1,.64,1.46,3.21,3.21,0,0,1-.79,2.78,2.45,2.45,0,0,1-1.36.76l-.24,0h-.36c-.14,0-.29,0-.43-.08a2.53,2.53,0,0,1-1.43-1,3.2,3.2,0,0,1-.55-1.45,1,1,0,0,1,0-.17h-1.14a.29.29,0,0,1-.25-.13l-.46-.6-1.2-1.56-1.05-1.38-.2-.25-.29.93h0l0,0a3,3,0,0,1,1.44,2.31,3.15,3.15,0,0,1,0,1.06,3,3,0,0,1-1.19,1.89,2.38,2.38,0,0,1-1.05.41l-.17,0h-.33a2.79,2.79,0,0,1-.4-.07,2.66,2.66,0,0,1-1.69-1.42,3.13,3.13,0,0,1-.33-1.14c0-.07,0-.13,0-.2Zm3.55-1.95v0l-.49,1.57-.18.56a.26.26,0,0,1-.32.2.32.32,0,0,1-.17-.41c.23-.71.45-1.42.67-2.13v0a2.05,2.05,0,0,0-2.42,1.61,2.47,2.47,0,0,0,1.3,3,2,2,0,0,0,2.63-1.41A2.52,2.52,0,0,0,216.52,286.6Zm5.33,2.39a2.31,2.31,0,0,0,1.53,2,2,2,0,0,0,2.36-1.17,2.66,2.66,0,0,0-.41-2.89,1.85,1.85,0,0,0-2.05-.51l.16.39c.24.56.47,1.13.7,1.69a.31.31,0,0,1,0,.19.28.28,0,0,1-.28.26h-2Zm-4.64-4.57,2.85,3.72,1.53-3.72Zm5.35,1.72-.55-1.33-1.47,3.56h.76A3.11,3.11,0,0,1,222.56,286.14Zm-.71,2.23h1.63l-.68-1.67A2.49,2.49,0,0,0,221.85,288.37Z" transform="translate(-164.27 -70.99)"/><path class="cls-18" d="M190,269.86c0-.06,0-.13,0-.19a3.29,3.29,0,0,1,.37-1.21,2.62,2.62,0,0,1,1.65-1.35,2.12,2.12,0,0,1,1.17,0s0,0,0,0l1-3.14a.85.85,0,0,1,.65-.63h1v.61h-.9a.28.28,0,0,0-.29.24l-.3.93v.05h4.41s0,0,0,0,.15-.35.22-.52l0-.05h-.78a.27.27,0,0,1-.25-.19.34.34,0,0,1,.07-.34.22.22,0,0,1,.18-.08h2v.61h-.62a0,0,0,0,0-.05,0c-.12.28-.23.57-.35.85a.06.06,0,0,0,0,.06c.23.57.47,1.14.71,1.72v0l.24-.08a2.29,2.29,0,0,1,.9-.07,2.48,2.48,0,0,1,1.66.95,3,3,0,0,1,.64,1.47,3.19,3.19,0,0,1-.79,2.77,2.41,2.41,0,0,1-1.36.77l-.24,0h-.36c-.14,0-.29,0-.43-.08a2.61,2.61,0,0,1-1.43-1,3.2,3.2,0,0,1-.55-1.45,1.1,1.1,0,0,1,0-.18h-1.14a.31.31,0,0,1-.25-.13l-.46-.6-1.2-1.57-1.05-1.37-.19-.26-.3.94h0l0,0a3,3,0,0,1,1.44,2.3,3.14,3.14,0,0,1,0,1.06A3,3,0,0,1,194,272.6,2.29,2.29,0,0,1,193,273l-.17,0h-.33l-.4-.07a2.69,2.69,0,0,1-1.69-1.42,3.19,3.19,0,0,1-.33-1.14c0-.07,0-.14,0-.2Zm3.56-1.94,0,0c-.16.52-.33,1-.49,1.57-.06.19-.12.37-.17.56a.27.27,0,0,1-.33.2.32.32,0,0,1-.16-.42l.66-2.12v0a2.05,2.05,0,0,0-2.42,1.61,2.48,2.48,0,0,0,1.3,3,2,2,0,0,0,2.63-1.41A2.52,2.52,0,0,0,193.59,267.92Zm5.32,2.38a2.29,2.29,0,0,0,1.53,2,2,2,0,0,0,2.36-1.17,2.65,2.65,0,0,0-.41-2.88,1.85,1.85,0,0,0-2-.51c.06.13.11.26.16.39.24.56.47,1.13.7,1.69a.31.31,0,0,1,0,.19.28.28,0,0,1-.28.25h-2Zm-4.64-4.56,2.85,3.71,1.53-3.71Zm5.35,1.71-.55-1.32-1.47,3.55h.76A3.15,3.15,0,0,1,199.62,267.45Zm-.71,2.23h1.63l-.68-1.66A2.45,2.45,0,0,0,198.91,269.68Z" transform="translate(-164.27 -70.99)"/><path class="cls-18" d="M190.82,237.56a1.36,1.36,0,0,0,0-.2,3.29,3.29,0,0,1,.37-1.2,2.66,2.66,0,0,1,1.65-1.36,2.25,2.25,0,0,1,1.18,0s0,0,.05,0c.32-1.05.65-2.1,1-3.14a.85.85,0,0,1,.65-.63h1v.61h-.89c-.16,0-.24.06-.3.24s-.19.62-.29.93v0h4.41s0,0,.05,0,.14-.35.22-.53v0h-.78a.26.26,0,0,1-.25-.19.35.35,0,0,1,.07-.34.27.27,0,0,1,.19-.08h2v.62h-.63a.05.05,0,0,0,0,0c-.11.28-.23.57-.35.85v.05c.24.58.48,1.15.71,1.72v0l.25-.08a2.23,2.23,0,0,1,.89-.08,2.45,2.45,0,0,1,1.66,1,3.07,3.07,0,0,1,.65,1.47,3.2,3.2,0,0,1-.8,2.77,2.34,2.34,0,0,1-1.36.76,2,2,0,0,1-.24,0h-.36a3.21,3.21,0,0,1-.43-.07,2.56,2.56,0,0,1-1.42-1,3.17,3.17,0,0,1-.56-1.45s0-.11,0-.17H198a.3.3,0,0,1-.25-.13l-.45-.59-1.2-1.57c-.35-.46-.7-.92-1.06-1.37l-.19-.26-.29.94h0l0,0a3,3,0,0,1,1.44,2.31,3.14,3.14,0,0,1-.05,1.06,3,3,0,0,1-1.19,1.89,2.29,2.29,0,0,1-1,.42l-.17,0h-.33c-.14,0-.27,0-.4-.06a2.65,2.65,0,0,1-1.69-1.43,3.37,3.37,0,0,1-.34-1.13,1.49,1.49,0,0,0,0-.21Zm3.56-1.95,0,0-.48,1.57-.18.56a.25.25,0,0,1-.32.19.31.31,0,0,1-.17-.41l.66-2.12v0a2.07,2.07,0,0,0-2.42,1.62,2.48,2.48,0,0,0,1.3,3,2,2,0,0,0,2.63-1.42A2.52,2.52,0,0,0,194.38,235.61ZM199.7,238a2.3,2.3,0,0,0,1.53,2,2,2,0,0,0,2.36-1.17,2.65,2.65,0,0,0-.41-2.88,1.86,1.86,0,0,0-2-.52l.16.4.7,1.69a.37.37,0,0,1,0,.18.27.27,0,0,1-.27.26H199.7Zm-4.63-4.57,2.84,3.72,1.54-3.72Zm5.35,1.72-.55-1.32-1.47,3.55h.76A3.12,3.12,0,0,1,200.42,235.15Zm-.71,2.23h1.63l-.69-1.66A2.44,2.44,0,0,0,199.71,237.38Z" transform="translate(-164.27 -70.99)"/><path class="cls-18" d="M203,207.4l.06-.18a2.93,2.93,0,0,1,.6-1.08,2.45,2.45,0,0,1,1.87-.9,2.32,2.32,0,0,1,1.14.31s0,0,.06,0l1.57-2.81a.8.8,0,0,1,.76-.45l.1,0,.88.23h0l-.12.59h-.05l-.82-.22a.27.27,0,0,0-.34.16c-.16.28-.31.56-.47.83l0,0h0l4.26,1.13s0,0,.05,0l.32-.45,0,0h0l-.72-.19a.3.3,0,0,1-.21-.25.35.35,0,0,1,.13-.31.24.24,0,0,1,.2,0l1.94.51h0l-.12.6h0l-.57-.16s0,0-.05,0l-.51.74s0,0,0,.05c.11.62.23,1.24.35,1.87v0h.25a2.29,2.29,0,0,1,.89.15,2.72,2.72,0,0,1,1.43,1.37,3.3,3.3,0,0,1,.34,1.59,3.05,3.05,0,0,1-1.32,2.5,2.24,2.24,0,0,1-1.48.39l-.24,0h0l-.28-.08h0l-.4-.19a2.79,2.79,0,0,1-1.19-1.38,3.27,3.27,0,0,1-.25-1.55.91.91,0,0,1,0-.17l0,0-1.07-.28a.32.32,0,0,1-.22-.19l-.33-.7c-.28-.61-.57-1.22-.86-1.84l-.75-1.6-.14-.3-.47.83h0l0,0a3.17,3.17,0,0,1,1,2.62,2.94,2.94,0,0,1-.25,1,2.74,2.74,0,0,1-1.53,1.53,2.17,2.17,0,0,1-1.1.14l-.17,0-.29-.08h0c-.13-.06-.26-.1-.38-.17a2.9,2.9,0,0,1-1.36-1.82,3.23,3.23,0,0,1-.1-1.2,1.23,1.23,0,0,1,0-.2Zm3.85-1s0,0,0,0l-.79,1.4-.28.51a.24.24,0,0,1-.35.1.32.32,0,0,1-.09-.44l1.07-1.9,0,0a2,2,0,0,0-2.68.95,2.6,2.6,0,0,0,.68,3.23,1.92,1.92,0,0,0,2.84-.7A2.62,2.62,0,0,0,206.8,206.42Zm4.71,3.71a2.5,2.5,0,0,0,1.1,2.38,1.91,1.91,0,0,0,2.53-.53,2.69,2.69,0,0,0,.16-2.92,2,2,0,0,0-1.89-1c0,.15.05.29.08.43.12.61.23,1.22.35,1.83a.41.41,0,0,1,0,.19.27.27,0,0,1-.32.18l-1.95-.52Zm-3.61-5.65,2,4.35,2.22-3.22Zm4.87,3.06-.27-1.44-2.13,3.09.74.19A2.81,2.81,0,0,1,212.77,207.54Zm-1.13,2,1.59.42-.34-1.79A2.27,2.27,0,0,0,211.64,209.52Z" transform="translate(-164.27 -70.99)"/><path class="cls-18" d="M213.45,187.58a1.34,1.34,0,0,1,.07-.18,3,3,0,0,1,.68-1,2.36,2.36,0,0,1,1.94-.68,2.31,2.31,0,0,1,1.11.43s0,0,.06,0l1.8-2.62a.76.76,0,0,1,.79-.37l.09,0,.87.33h0l-.17.58,0,0-.8-.31a.26.26,0,0,0-.35.12l-.54.78,0,0h0l4.15,1.59a0,0,0,0,0,.06,0c.11-.15.23-.28.35-.42l0,0,0,0-.7-.27a.27.27,0,0,1-.18-.27.32.32,0,0,1,.15-.3.23.23,0,0,1,.2,0l1.89.72h0l-.17.58h0l-.55-.22s0,0-.06,0l-.57.68a.07.07,0,0,0,0,.05c.06.63.13,1.26.2,1.89v0H224a2.19,2.19,0,0,1,.86.25,2.82,2.82,0,0,1,1.32,1.51,3.23,3.23,0,0,1,.2,1.63,2.91,2.91,0,0,1-1.52,2.34,2.18,2.18,0,0,1-1.5.23l-.23-.06h0l-.27-.11,0,0a3,3,0,0,1-.38-.23,2.86,2.86,0,0,1-1.07-1.5,3.38,3.38,0,0,1-.13-1.58l0-.16,0,0-1-.4a.3.3,0,0,1-.2-.21l-.27-.73c-.23-.64-.47-1.28-.7-1.93s-.42-1.12-.62-1.68l-.12-.31-.53.78h0l0,0a3.25,3.25,0,0,1,.73,2.71,3.14,3.14,0,0,1-.34,1,2.66,2.66,0,0,1-1.65,1.36,2.27,2.27,0,0,1-1.1,0l-.17,0-.29-.11s0,0,0,0-.25-.13-.37-.21a3,3,0,0,1-1.2-2,3.23,3.23,0,0,1,0-1.2,1.77,1.77,0,0,0,0-.2Zm3.91-.55,0,0-.9,1.31c-.11.16-.21.32-.32.47a.24.24,0,0,1-.36.07.34.34,0,0,1-.05-.45l1.22-1.78,0,0a1.91,1.91,0,0,0-2.74.65,2.63,2.63,0,0,0,.41,3.29,1.91,1.91,0,0,0,2.89-.39A2.63,2.63,0,0,0,217.36,187Zm4.38,4.2a2.55,2.55,0,0,0,.89,2.48,1.87,1.87,0,0,0,2.56-.25,2.64,2.64,0,0,0,.41-2.88,2,2,0,0,0-1.8-1.23c0,.14,0,.29,0,.43.06.62.13,1.24.19,1.86a.28.28,0,0,1,0,.18.27.27,0,0,1-.34.15l-1.89-.73Zm-3.13-6,1.67,4.56,2.48-3Zm4.6,3.57-.16-1.45-2.37,2.83.72.28A2.76,2.76,0,0,1,223.21,188.78Zm-1.29,1.86,1.55.59-.2-1.83A2.22,2.22,0,0,0,221.92,190.64Z" transform="translate(-164.27 -70.99)"/><path class="cls-18" d="M265.46,321.5a1.5,1.5,0,0,0,0-.2,3.34,3.34,0,0,1,.37-1.21,2.62,2.62,0,0,1,1.65-1.35,2.25,2.25,0,0,1,1.18,0s0,0,.05,0c.32-1,.65-2.09,1-3.14a.85.85,0,0,1,.65-.63h1v.61h-.89a.28.28,0,0,0-.3.24c-.1.31-.19.62-.29.94v0h4.41a.05.05,0,0,0,.05,0c.07-.17.14-.35.22-.52,0,0,0,0,0-.05h-.78a.28.28,0,0,1-.25-.19.34.34,0,0,1,.07-.34.24.24,0,0,1,.19-.08h2v.61h-.63a.05.05,0,0,0,0,0c-.11.29-.23.57-.35.85v.06c.24.57.48,1.15.71,1.72v0l.25-.08a2.23,2.23,0,0,1,.89-.07,2.48,2.48,0,0,1,1.66.95,3.07,3.07,0,0,1,.65,1.47,3.21,3.21,0,0,1-.8,2.78,2.45,2.45,0,0,1-1.36.76l-.24,0h-.36c-.14,0-.29,0-.43-.08a2.54,2.54,0,0,1-1.42-1,3.22,3.22,0,0,1-.56-1.45c0-.06,0-.11,0-.17h-1.14a.3.3,0,0,1-.25-.13l-.45-.6-1.2-1.57c-.36-.45-.71-.91-1.06-1.37-.06-.08-.12-.17-.19-.25l-.29.93h0l0,0a3,3,0,0,1,1.44,2.3,3.2,3.2,0,0,1-.05,1.07,3,3,0,0,1-1.19,1.89,2.39,2.39,0,0,1-1,.41l-.17,0h-.33a2.57,2.57,0,0,1-.4-.07,2.66,2.66,0,0,1-1.69-1.42,3.35,3.35,0,0,1-.34-1.14,1.36,1.36,0,0,0,0-.2Zm3.56-1.95,0,0c-.16.52-.32,1.05-.49,1.57-.05.19-.11.38-.17.56a.26.26,0,0,1-.32.2.31.31,0,0,1-.17-.41l.66-2.13v0A2.06,2.06,0,0,0,266.1,321a2.48,2.48,0,0,0,1.3,3,2,2,0,0,0,2.63-1.41A2.52,2.52,0,0,0,269,319.55Zm5.32,2.39a2.3,2.3,0,0,0,1.53,2,2,2,0,0,0,2.36-1.16,2.66,2.66,0,0,0-.41-2.89,1.85,1.85,0,0,0-2.05-.51l.17.39c.23.56.46,1.13.7,1.69a.4.4,0,0,1,0,.19.27.27,0,0,1-.27.26h-2.05Zm-4.64-4.57,2.85,3.72,1.54-3.72Zm5.36,1.72-.55-1.33L273,321.32h.76A3.08,3.08,0,0,1,275.06,319.09Zm-.71,2.23H276l-.69-1.67A2.48,2.48,0,0,0,274.35,321.32Z" transform="translate(-164.27 -70.99)"/><path class="cls-18" d="M264.14,348.33a1.36,1.36,0,0,0,0-.2,3.17,3.17,0,0,1,.38-1.21,2.6,2.6,0,0,1,1.64-1.35,2.15,2.15,0,0,1,1.18,0s0,0,.05,0c.32-1.05.65-2.1,1-3.15a.85.85,0,0,1,.65-.63h1v.61h-.89c-.16,0-.24.07-.3.24s-.19.63-.29.94v0H273a.05.05,0,0,0,.05,0c.07-.17.14-.35.22-.52a.43.43,0,0,0,0,0h-.78a.26.26,0,0,1-.25-.19.35.35,0,0,1,.07-.34.24.24,0,0,1,.19-.08h2V343h-.63s0,0,0,0l-.36.86v.05c.24.57.48,1.15.71,1.72l0,0,.24-.08a2.07,2.07,0,0,1,.89-.08,2.43,2.43,0,0,1,1.66,1,3,3,0,0,1,.65,1.46,3.21,3.21,0,0,1-.8,2.78,2.39,2.39,0,0,1-1.36.76l-.23,0h-.37a3.25,3.25,0,0,1-.43-.08,2.49,2.49,0,0,1-1.42-1,3.17,3.17,0,0,1-.56-1.45,1,1,0,0,0,0-.17h-1.14a.3.3,0,0,1-.25-.13l-.45-.59-1.2-1.57-1.05-1.38-.2-.25-.29.93h0l0,0a3,3,0,0,1,1.44,2.31,3.15,3.15,0,0,1-.05,1.06,3,3,0,0,1-1.19,1.89,2.41,2.41,0,0,1-1,.42l-.17,0h-.33a2.57,2.57,0,0,1-.4-.07A2.63,2.63,0,0,1,264.5,350a3.35,3.35,0,0,1-.34-1.14,1.5,1.5,0,0,0,0-.2Zm3.56-1.95a.08.08,0,0,0,0,0c-.17.53-.33,1.05-.49,1.57l-.18.56a.26.26,0,0,1-.32.2.31.31,0,0,1-.17-.41l.66-2.13,0,0a2,2,0,0,0-2.42,1.61,2.46,2.46,0,0,0,1.29,3,2,2,0,0,0,2.63-1.41A2.52,2.52,0,0,0,267.7,346.38Zm5.32,2.39a2.33,2.33,0,0,0,1.53,2,2,2,0,0,0,2.36-1.17,2.63,2.63,0,0,0-.41-2.88,1.84,1.84,0,0,0-2-.52c.05.13.1.26.16.39.23.57.46,1.13.7,1.69a.4.4,0,0,1,0,.19.27.27,0,0,1-.27.26H273Zm-4.63-4.57,2.84,3.72,1.54-3.72Zm5.35,1.72-.55-1.32-1.47,3.55h.76A3.08,3.08,0,0,1,273.74,345.92Zm-.71,2.23h1.63l-.69-1.66A2.44,2.44,0,0,0,273,348.15Z" transform="translate(-164.27 -70.99)"/><path class="cls-18" d="M278.24,353.46l.14-.11a2.25,2.25,0,0,1,1-.5,2.31,2.31,0,0,1,2,.48,2.69,2.69,0,0,1,.79,1s0,0,.05,0l2.69-1.28a.73.73,0,0,1,.84.12l.08.08.61.77,0,0-.4.41,0,0-.57-.71a.24.24,0,0,0-.35-.09l-.8.38,0,0,0,0,2.94,3.7s0,0,.06,0l.49-.17h0l0,0-.5-.63a.34.34,0,0,1,0-.34.27.27,0,0,1,.26-.17.29.29,0,0,1,.18.11l1.34,1.68,0,0-.39.41,0,0-.39-.5s0,0-.06,0l-.78.28s0,0,0,0l-.63,1.77v0l.21.15a2.94,2.94,0,0,1,.65.71,3.33,3.33,0,0,1,.51,2.06,3.14,3.14,0,0,1-.52,1.53,2.4,2.4,0,0,1-3.73.56l-.18-.19,0,0-.2-.25,0,0c-.08-.14-.17-.27-.24-.42a3.25,3.25,0,0,1-.29-1.9,3.06,3.06,0,0,1,.56-1.45l.09-.13,0,0-.74-.93a.38.38,0,0,1-.08-.3c0-.26,0-.52.07-.78l.21-2.08c.05-.6.11-1.21.17-1.82l0-.33-.79.38h0v0a3.36,3.36,0,0,1-.52,2.78,2.65,2.65,0,0,1-.71.67,2.28,2.28,0,0,1-2,.27,2.5,2.5,0,0,1-1-.6l-.13-.13-.2-.26v0a3.85,3.85,0,0,1-.23-.38,3.34,3.34,0,0,1-.22-2.39,2.85,2.85,0,0,1,.51-1l.11-.16Zm3.65,1.7,0,0-1.34.64-.48.23a.25.25,0,0,1-.35-.14.33.33,0,0,1,.15-.42l1.82-.87,0,0a2,2,0,0,0-2.67-1,2.52,2.52,0,0,0-1,3.1,2,2,0,0,0,2.68,1.28A2.49,2.49,0,0,0,281.89,355.16Zm2.05,6.12a2.64,2.64,0,0,0-.28,2.67,2,2,0,0,0,2.34,1.22,2.35,2.35,0,0,0,1.58-2.3,2.41,2.41,0,0,0-1-2.08l-.15.41c-.2.57-.41,1.15-.61,1.73a.42.42,0,0,1-.11.15.25.25,0,0,1-.35-.06l-1.35-1.7Zm-.18-7-.48,4.91,3.43-1.2Zm2.5,5.69.48-1.36-3.28,1.15.51.64A2.37,2.37,0,0,1,286.26,360Zm-1.91.9,1.1,1.38.6-1.7A1.87,1.87,0,0,0,284.35,360.87Z" transform="translate(-164.27 -70.99)"/><path class="cls-18" d="M292.5,338l.09-.17a2.66,2.66,0,0,1,.78-.91,2.34,2.34,0,0,1,2-.43,2.47,2.47,0,0,1,1.06.58s0,0,.05,0l2.06-2.37a.74.74,0,0,1,.82-.26l.09,0,.82.44h0l-.22.56,0,0-.77-.41a.26.26,0,0,0-.36.08c-.2.23-.4.47-.61.7l0,0,0,0,4,2.13a0,0,0,0,0,.06,0l.39-.37,0,0,0,0c-.23-.12-.45-.23-.67-.36a.32.32,0,0,1-.16-.29.3.3,0,0,1,.19-.27.23.23,0,0,1,.2,0l1.8,1h0l-.23.56,0,0-.54-.29s0,0-.05,0l-.63.6a.08.08,0,0,0,0,.05c0,.64,0,1.27,0,1.91v0l.25.05a2.12,2.12,0,0,1,.83.36,3,3,0,0,1,1.16,1.68,3.25,3.25,0,0,1,0,1.64,2.81,2.81,0,0,1-1.75,2.13,2.24,2.24,0,0,1-1.51,0l-.23-.09h0l-.26-.14,0,0c-.12-.09-.25-.17-.37-.27a3.13,3.13,0,0,1-.91-1.64,3.38,3.38,0,0,1,0-1.58c0-.05,0-.11,0-.16l0,0-1-.54a.33.33,0,0,1-.18-.24c-.06-.25-.13-.5-.19-.75l-.51-2c-.15-.58-.3-1.17-.44-1.75l-.09-.33-.61.7h0l0,0a3.3,3.3,0,0,1,.45,2.79,3.09,3.09,0,0,1-.43.94,2.55,2.55,0,0,1-1.78,1.13,2.19,2.19,0,0,1-1.1-.13l-.16-.06-.27-.14,0,0-.34-.25a3.15,3.15,0,0,1-1-2.11,3.38,3.38,0,0,1,.12-1.19l.06-.2Zm3.94,0,0,0-1,1.18-.37.42a.23.23,0,0,1-.36,0,.33.33,0,0,1,0-.45l1.38-1.6,0,0a1.89,1.89,0,0,0-2.79.28,2.65,2.65,0,0,0,.08,3.32,1.88,1.88,0,0,0,2.9,0A2.63,2.63,0,0,0,296.44,337.92Zm3.94,4.75a2.58,2.58,0,0,0,.64,2.59,1.85,1.85,0,0,0,2.56.09,2.6,2.6,0,0,0,.7-2.81,2.13,2.13,0,0,0-1.67-1.46c0,.15,0,.29,0,.43v1.88a.39.39,0,0,1,0,.18.25.25,0,0,1-.35.1l-1.81-1Zm-2.51-6.39,1.2,4.75,2.77-2.62Zm4.21,4.16V339l-2.64,2.51.69.37A2.63,2.63,0,0,1,302.08,340.44Zm-1.46,1.67,1.47.8v-1.84A2.06,2.06,0,0,0,300.62,342.11Z" transform="translate(-164.27 -70.99)"/><path class="cls-18" d="M263,214.07c0-.06,0-.13,0-.19a3.29,3.29,0,0,1,.37-1.21,2.66,2.66,0,0,1,1.65-1.36,2.21,2.21,0,0,1,1.17,0s0,0,.05,0l1-3.14a.85.85,0,0,1,.64-.63h1v.61H268a.28.28,0,0,0-.29.24l-.3.93v0h4.41s0,0,.05,0c.07-.18.15-.35.22-.53l0,0h-.78a.26.26,0,0,1-.25-.2.35.35,0,0,1,.07-.34.25.25,0,0,1,.18-.08h2v.62h-.62s0,0-.05,0c-.12.28-.23.57-.35.85a0,0,0,0,0,0,0c.23.58.47,1.15.71,1.73v0l.24-.08a2.3,2.3,0,0,1,.9-.08,2.53,2.53,0,0,1,1.66,1,3,3,0,0,1,.64,1.47,3.19,3.19,0,0,1-.79,2.77,2.34,2.34,0,0,1-1.36.76l-.24,0h-.36c-.14,0-.29,0-.43-.08a2.58,2.58,0,0,1-1.43-1,3.16,3.16,0,0,1-.55-1.45.88.88,0,0,1,0-.17h-1.14a.29.29,0,0,1-.25-.13l-.46-.59-1.2-1.57-1-1.37c-.06-.09-.13-.17-.2-.26l-.29.94h0l0,0a3,3,0,0,1,1.44,2.31,3.14,3.14,0,0,1,0,1.06,3,3,0,0,1-1.19,1.89,2.29,2.29,0,0,1-1.05.42l-.17,0h-.33l-.4-.07a2.66,2.66,0,0,1-1.69-1.42,3.25,3.25,0,0,1-.33-1.14c0-.07,0-.14,0-.21Zm3.56-1.95s0,0,0,0c-.16.52-.33,1-.49,1.57l-.18.56a.24.24,0,0,1-.32.19.32.32,0,0,1-.17-.41c.23-.71.45-1.41.67-2.12v0a2,2,0,0,0-2.42,1.61,2.47,2.47,0,0,0,1.3,3,2,2,0,0,0,2.63-1.41A2.54,2.54,0,0,0,266.55,212.12Zm5.32,2.39a2.29,2.29,0,0,0,1.53,2,2,2,0,0,0,2.36-1.17,2.65,2.65,0,0,0-.41-2.88,1.88,1.88,0,0,0-2.05-.52c.05.14.11.27.16.4.24.56.47,1.12.7,1.69a.31.31,0,0,1,0,.19.28.28,0,0,1-.28.25h-2ZM267.23,210l2.85,3.71,1.53-3.71Zm5.35,1.71-.55-1.32-1.47,3.55h.76A3.15,3.15,0,0,1,272.58,211.66Zm-.71,2.23h1.63l-.68-1.66A2.45,2.45,0,0,0,271.87,213.89Z" transform="translate(-164.27 -70.99)"/><path class="cls-18" d="M282,206.81a1.36,1.36,0,0,0,0-.2,3.34,3.34,0,0,1,.37-1.21,2.68,2.68,0,0,1,1.65-1.35,2.25,2.25,0,0,1,1.18,0s0,0,.05,0c.32-1.05.65-2.1,1-3.14a.85.85,0,0,1,.65-.63h1v.61H287c-.16,0-.25.07-.3.25s-.19.62-.29.93v0h4.41s0,0,.05,0l.21-.53a.08.08,0,0,0,0,0h-.78a.26.26,0,0,1-.25-.19.35.35,0,0,1,.07-.34.27.27,0,0,1,.19-.08h2v.61h-.63a.05.05,0,0,0,0,0c-.11.28-.23.56-.35.85v.05c.24.58.47,1.15.71,1.72v0l.25-.08a2.23,2.23,0,0,1,.89-.08,2.45,2.45,0,0,1,1.66,1,3.07,3.07,0,0,1,.65,1.47,3.2,3.2,0,0,1-.8,2.77,2.34,2.34,0,0,1-1.36.76,2,2,0,0,1-.24,0h-.36a3.21,3.21,0,0,1-.43-.07,2.52,2.52,0,0,1-1.42-1,3.06,3.06,0,0,1-.56-1.45s0-.11,0-.17h-1.14a.3.3,0,0,1-.25-.13l-.45-.59L287.24,205l-1.05-1.37-.19-.26-.29.93h0l0,0a3,3,0,0,1,1.43,2.31,3.15,3.15,0,0,1,0,1.06,3,3,0,0,1-1.19,1.89,2.29,2.29,0,0,1-1,.42l-.17,0h-.33l-.41-.06a2.63,2.63,0,0,1-1.68-1.43,3.37,3.37,0,0,1-.34-1.13,1.49,1.49,0,0,0,0-.21Zm3.56-1.95,0,0c-.16.53-.32,1-.49,1.57-.05.19-.11.38-.17.57a.26.26,0,0,1-.32.19.31.31,0,0,1-.17-.41l.66-2.12v0a2.07,2.07,0,0,0-2.42,1.62,2.47,2.47,0,0,0,1.3,3,2,2,0,0,0,2.63-1.41A2.52,2.52,0,0,0,285.52,204.86Zm5.32,2.39a2.3,2.3,0,0,0,1.53,2,2,2,0,0,0,2.36-1.17,2.65,2.65,0,0,0-.41-2.88,1.87,1.87,0,0,0-2.05-.52c.06.13.11.26.17.4l.69,1.69a.29.29,0,0,1,0,.18.27.27,0,0,1-.27.26h-2.05Zm-4.64-4.57,2.85,3.72,1.54-3.72Zm5.36,1.72-.55-1.32-1.47,3.55h.76A3.1,3.1,0,0,1,291.56,204.4Zm-.71,2.23h1.63l-.69-1.66A2.44,2.44,0,0,0,290.85,206.63Z" transform="translate(-164.27 -70.99)"/><path class="cls-18" d="M287.47,188.39a1.23,1.23,0,0,0,0-.19,3.29,3.29,0,0,1,.37-1.21,2.62,2.62,0,0,1,1.65-1.35,2.15,2.15,0,0,1,1.18,0s0,0,.05,0c.32-1.05.65-2.09,1-3.14a.85.85,0,0,1,.65-.63h1v.61h-.89a.28.28,0,0,0-.3.24c-.1.31-.19.62-.29.93v0h4.41s0,0,.05,0l.21-.53a.05.05,0,0,0,0,0h-.78a.28.28,0,0,1-.25-.19.34.34,0,0,1,.07-.34.24.24,0,0,1,.19-.08h2v.61h-.63a.05.05,0,0,0-.05,0c-.11.28-.23.57-.35.85V184c.24.57.47,1.14.71,1.72v0l.25-.08a2.06,2.06,0,0,1,.89-.07,2.48,2.48,0,0,1,1.66.95A3.07,3.07,0,0,1,301,188a3.2,3.2,0,0,1-.8,2.77,2.41,2.41,0,0,1-1.36.77l-.24,0h-.36c-.14,0-.29,0-.43-.08a2.56,2.56,0,0,1-1.42-1,3,3,0,0,1-.56-1.45c0-.05,0-.11,0-.17h-1.14a.33.33,0,0,1-.25-.13l-.45-.6-1.21-1.57-1.05-1.37-.19-.26-.29.94h0a3,3,0,0,1,1.43,2.31,3.14,3.14,0,0,1,0,1.06,3,3,0,0,1-1.19,1.89,2.29,2.29,0,0,1-1,.42l-.17,0h-.33l-.41-.07a2.64,2.64,0,0,1-1.68-1.42,3.42,3.42,0,0,1-.34-1.14,1.23,1.23,0,0,0,0-.2Zm3.56-1.94,0,0c-.16.52-.32,1-.49,1.57,0,.19-.11.37-.17.56a.26.26,0,0,1-.32.2.32.32,0,0,1-.17-.42l.66-2.12v0a2.06,2.06,0,0,0-2.42,1.61,2.48,2.48,0,0,0,1.3,3,2,2,0,0,0,2.63-1.41A2.51,2.51,0,0,0,291,186.45Zm5.32,2.38a2.29,2.29,0,0,0,1.53,2,2,2,0,0,0,2.36-1.17,2.65,2.65,0,0,0-.41-2.88,1.85,1.85,0,0,0-2.05-.51l.17.39c.23.56.46,1.13.7,1.69a.4.4,0,0,1,0,.19.27.27,0,0,1-.27.25h-2Zm-4.64-4.56,2.85,3.71,1.54-3.71Zm5.36,1.71-.55-1.32-1.47,3.55h.76A3.12,3.12,0,0,1,297.07,186Zm-.71,2.23H298l-.69-1.66A2.44,2.44,0,0,0,296.36,188.21Z" transform="translate(-164.27 -70.99)"/><path class="cls-18" d="M286.83,229.43a1.5,1.5,0,0,1,0-.2,3,3,0,0,1,.37-1.2,2.62,2.62,0,0,1,1.64-1.36,2.25,2.25,0,0,1,1.18,0s0,0,0,0c.33-1.05.65-2.1,1-3.14a.85.85,0,0,1,.65-.63h1v.61h-.89c-.16,0-.24.06-.3.24s-.19.62-.29.93v0h4.41s0,0,.05,0c.07-.18.14-.35.22-.53a.08.08,0,0,1,0,0h-.79a.26.26,0,0,1-.25-.19.35.35,0,0,1,.07-.34.27.27,0,0,1,.19-.08h2v.62h-.63s0,0,0,0l-.36.85V225c.24.58.48,1.15.71,1.72l0,0,.24-.08a2.23,2.23,0,0,1,.89-.08,2.47,2.47,0,0,1,1.67,1,3.06,3.06,0,0,1,.64,1.47,3.22,3.22,0,0,1-.79,2.77,2.36,2.36,0,0,1-1.37.76,1.6,1.6,0,0,1-.23,0h-.36a3.35,3.35,0,0,1-.44-.07,2.56,2.56,0,0,1-1.42-1,3.17,3.17,0,0,1-.56-1.45,1.11,1.11,0,0,0,0-.17H294a.3.3,0,0,1-.25-.13l-.45-.59-1.2-1.57-1.05-1.37-.2-.26-.29.94h0l0,0a3,3,0,0,1,1.44,2.31,3.14,3.14,0,0,1-.05,1.06,3,3,0,0,1-1.18,1.89,2.29,2.29,0,0,1-1.05.42l-.17,0h-.33c-.14,0-.27,0-.4-.06a2.65,2.65,0,0,1-1.69-1.43,3.14,3.14,0,0,1-.33-1.13,1.49,1.49,0,0,1,0-.21Zm3.55-2s0,0,0,.05c-.17.52-.33,1-.49,1.57l-.18.56a.25.25,0,0,1-.32.19.31.31,0,0,1-.17-.41l.66-2.12,0,0a2.06,2.06,0,0,0-2.42,1.62,2.47,2.47,0,0,0,1.29,3,2,2,0,0,0,2.63-1.42A2.52,2.52,0,0,0,290.38,227.48Zm5.32,2.39a2.31,2.31,0,0,0,1.54,2,2,2,0,0,0,2.35-1.17,2.63,2.63,0,0,0-.41-2.88,1.86,1.86,0,0,0-2-.52l.16.4.7,1.69a.28.28,0,0,1,0,.18.27.27,0,0,1-.27.26H295.7Zm-4.63-4.57,2.84,3.72,1.54-3.72Zm5.35,1.72-.55-1.32-1.47,3.55h.76A3.12,3.12,0,0,1,296.42,227Zm-.71,2.23h1.63l-.69-1.66A2.44,2.44,0,0,0,295.71,229.25Z" transform="translate(-164.27 -70.99)"/><path class="cls-18" d="M308.22,235.73a1.21,1.21,0,0,0,0-.19,3.34,3.34,0,0,1,.21-1.26,2.81,2.81,0,0,1,1.44-1.63,2.17,2.17,0,0,1,1.17-.2s0,0,0,0c.18-1.09.37-2.19.55-3.28a.91.91,0,0,1,.56-.74l.09,0,.9-.16h0l.08.6h0l-.84.15c-.16,0-.23.11-.26.29-.06.33-.11.65-.17,1v0h0l4.32-.77s0,0,.05,0c.05-.19.1-.37.14-.56,0,0,0,0,0,0h0l-.73.13a.26.26,0,0,1-.27-.15.34.34,0,0,1,0-.34.31.31,0,0,1,.18-.12l2-.35h0l.08.6h0l-.59.1,0,0c-.07.31-.15.61-.23.91,0,0,0,0,0,0l.93,1.58v0l.23-.12a2.27,2.27,0,0,1,.88-.24,2.4,2.4,0,0,1,1.77.66,2.82,2.82,0,0,1,.83,1.33,3.29,3.29,0,0,1-.41,2.88,2.56,2.56,0,0,1-1.24,1l-.24.07h0l-.29.05h0a3.23,3.23,0,0,1-.44,0,2.38,2.38,0,0,1-1.55-.77,3,3,0,0,1-.74-1.33c0-.06,0-.11,0-.17h0l-1.09.19a.26.26,0,0,1-.26-.08l-.53-.51-1.4-1.34L312,231.8l-.23-.22-.16,1h0l0,0a2.81,2.81,0,0,1,1.73,2,3.32,3.32,0,0,1-.82,3.14,2.37,2.37,0,0,1-1,.59l-.16.06-.3.05h-.44a2.5,2.5,0,0,1-1.85-1.11,3,3,0,0,1-.49-1.06c0-.07,0-.13,0-.2Zm3.25-2.55a.09.09,0,0,1,0,0l-.27,1.63c0,.2-.06.39-.1.59a.27.27,0,0,1-.29.25.3.3,0,0,1-.22-.38c.12-.73.25-1.47.37-2.21v-.05a2.17,2.17,0,0,0-2.18,2,2.37,2.37,0,0,0,1.68,2.71,2.11,2.11,0,0,0,2.41-1.86A2.42,2.42,0,0,0,311.47,233.18Zm5.58,1.43a2.19,2.19,0,0,0,1.79,1.74,2.08,2.08,0,0,0,2.17-1.57,2.59,2.59,0,0,0-.79-2.78,1.85,1.85,0,0,0-2.09-.15l.21.36.92,1.55a.35.35,0,0,1,.05.18.29.29,0,0,1-.24.3l-2,.36Zm-5.19-3.7,3.31,3.17,1-3.94Zm5.52.75-.72-1.21-1,3.77.75-.13A3.26,3.26,0,0,1,317.38,231.66ZM317,234l1.62-.29-.91-1.52A2.6,2.6,0,0,0,317,234Z" transform="translate(-164.27 -70.99)"/><path class="cls-18" d="M308.34,215c0-.06,0-.13,0-.19a3.38,3.38,0,0,1,.14-1.27,2.88,2.88,0,0,1,1.37-1.72,2.23,2.23,0,0,1,1.15-.28s0,0,0,0l.39-3.31a.9.9,0,0,1,.52-.77l.09,0,.89-.21h0l.12.6H313l-.83.2a.31.31,0,0,0-.24.31l-.12,1v.05h0l4.27-1s0,0,0-.05l.12-.57a.43.43,0,0,0,0-.05h0l-.73.18a.23.23,0,0,1-.27-.13.36.36,0,0,1,0-.35.3.3,0,0,1,.17-.12l1.94-.48h0l.12.59h0l-.58.14a.07.07,0,0,0,0,.05l-.18.91s0,0,0,.06l1,1.51,0,0,.22-.14a2.23,2.23,0,0,1,.86-.28,2.34,2.34,0,0,1,1.8.53,2.75,2.75,0,0,1,.9,1.28,3.29,3.29,0,0,1-.27,2.9,2.58,2.58,0,0,1-1.19,1.08l-.23.08,0,0-.28.07h0c-.15,0-.29,0-.44,0a2.37,2.37,0,0,1-1.58-.67,3,3,0,0,1-.81-1.28,1.09,1.09,0,0,0-.05-.17h0l-1.07.27a.3.3,0,0,1-.27-.07l-.55-.47-1.46-1.25c-.43-.36-.86-.72-1.28-1.09l-.24-.2-.12,1h.05a2.79,2.79,0,0,1,1.83,1.91,3.11,3.11,0,0,1,.15,1.05,3.16,3.16,0,0,1-.82,2.13,2.47,2.47,0,0,1-.95.66l-.16.07-.29.07h0c-.14,0-.27,0-.41,0a2.47,2.47,0,0,1-1.91-1,2.88,2.88,0,0,1-.53-1l-.06-.19Zm3.12-2.76a.43.43,0,0,1,0,.05c-.06.55-.12,1.1-.19,1.65,0,.2,0,.4-.07.59a.28.28,0,0,1-.28.27.3.3,0,0,1-.24-.36c.09-.74.18-1.49.26-2.24v0a2.2,2.2,0,0,0-2.07,2.16,2.32,2.32,0,0,0,1.81,2.59,2.15,2.15,0,0,0,2.31-2A2.39,2.39,0,0,0,311.46,212.23Zm5.64,1.06a2.15,2.15,0,0,0,1.87,1.63,2.13,2.13,0,0,0,2.09-1.71,2.55,2.55,0,0,0-.93-2.72,1.84,1.84,0,0,0-2.09,0l.23.35,1,1.48a.3.3,0,0,1,.06.18.29.29,0,0,1-.22.32l-2,.48Zm-5.37-3.35,3.46,2.95.83-4Zm5.55.39-.78-1.16-.79,3.83.74-.18A3.29,3.29,0,0,1,317.28,210.33Zm-.29,2.35,1.6-.39-1-1.46A2.63,2.63,0,0,0,317,212.68Z" transform="translate(-164.27 -70.99)"/><path class="cls-18" d="M290.81,255.75a1.23,1.23,0,0,0,0-.19,3.29,3.29,0,0,1,.37-1.21,2.66,2.66,0,0,1,1.65-1.36,2.25,2.25,0,0,1,1.18,0s0,0,.05,0c.32-1.05.65-2.09,1-3.14a.85.85,0,0,1,.65-.63h1v.61h-.89a.28.28,0,0,0-.3.24c-.1.31-.19.62-.29.93v0h4.41s0,0,0,0,.14-.35.22-.53c0,0,0,0,0,0h-.78a.27.27,0,0,1-.25-.2.33.33,0,0,1,.07-.33.25.25,0,0,1,.19-.09h2v.62h-.63s0,0-.05,0c-.11.28-.23.57-.35.85v.05c.24.58.48,1.15.71,1.73v0l.25-.08a2.06,2.06,0,0,1,.89-.07,2.48,2.48,0,0,1,1.66.95,3.07,3.07,0,0,1,.65,1.47,3.2,3.2,0,0,1-.8,2.77,2.34,2.34,0,0,1-1.36.76l-.24,0h-.36c-.14,0-.29,0-.43-.08a2.56,2.56,0,0,1-1.42-1,3.13,3.13,0,0,1-.56-1.45c0-.05,0-.11,0-.17H298a.3.3,0,0,1-.25-.13l-.45-.59-1.2-1.57L295,252.53l-.19-.26-.29.94h0l0,0a3,3,0,0,1,1.44,2.31,3.14,3.14,0,0,1-.05,1.06,3,3,0,0,1-1.19,1.89,2.29,2.29,0,0,1-1,.42l-.17,0h-.33l-.4-.07a2.66,2.66,0,0,1-1.69-1.42,3.49,3.49,0,0,1-.34-1.14,1.49,1.49,0,0,0,0-.21Zm3.56-1.95,0,0c-.16.52-.32,1-.49,1.57-.05.18-.11.37-.17.56a.25.25,0,0,1-.32.19.3.3,0,0,1-.17-.41l.66-2.12v0a2.05,2.05,0,0,0-2.42,1.61,2.48,2.48,0,0,0,1.3,3,2,2,0,0,0,2.63-1.41A2.53,2.53,0,0,0,294.37,253.8Zm5.32,2.39a2.3,2.3,0,0,0,1.53,2,2,2,0,0,0,2.36-1.17,2.65,2.65,0,0,0-.41-2.88,1.87,1.87,0,0,0-2.05-.52c.06.14.11.27.17.4l.7,1.69a.4.4,0,0,1,0,.19.27.27,0,0,1-.27.25h-2.05Zm-4.64-4.56,2.85,3.71,1.54-3.71Zm5.36,1.71-.55-1.32-1.47,3.55h.76A3.12,3.12,0,0,1,300.41,253.34Zm-.71,2.23h1.63l-.69-1.66A2.44,2.44,0,0,0,299.7,255.57Z" transform="translate(-164.27 -70.99)"/><path class="cls-18" d="M268,269.34a1.23,1.23,0,0,0,0-.19,3.29,3.29,0,0,1,.37-1.21,2.62,2.62,0,0,1,1.65-1.35,2.25,2.25,0,0,1,1.18,0s0,0,0,0c.32-1,.65-2.09,1-3.14a.85.85,0,0,1,.65-.63h1v.61H273a.28.28,0,0,0-.3.24c-.1.31-.19.62-.29.94v0h4.41s0,0,0,0l.21-.52s0,0,0-.05h-.78a.28.28,0,0,1-.25-.19.34.34,0,0,1,.07-.34.24.24,0,0,1,.19-.08h2V264h-.63a.05.05,0,0,0-.05,0c-.11.29-.23.57-.35.85v.06c.24.57.48,1.15.71,1.72v0l.25-.08a2.23,2.23,0,0,1,.89-.07,2.48,2.48,0,0,1,1.66,1,3.07,3.07,0,0,1,.65,1.47,3.21,3.21,0,0,1-.8,2.78,2.45,2.45,0,0,1-1.36.76l-.24,0h-.36c-.14,0-.29,0-.43-.08a2.58,2.58,0,0,1-1.42-1,3.11,3.11,0,0,1-.56-1.45c0-.06,0-.12,0-.17h-1.14a.3.3,0,0,1-.25-.13l-.45-.6-1.21-1.57-1-1.37c-.06-.08-.12-.17-.19-.25l-.29.93h0l0,0a3,3,0,0,1,1.44,2.3,3.49,3.49,0,0,1-.05,1.07,3,3,0,0,1-1.19,1.88,2.29,2.29,0,0,1-1,.42l-.17,0h-.33a2.57,2.57,0,0,1-.4-.07,2.66,2.66,0,0,1-1.69-1.42,3.35,3.35,0,0,1-.34-1.14,1.23,1.23,0,0,0,0-.2Zm3.56-1.94s0,0,0,0c-.16.52-.32,1.05-.49,1.57-.05.19-.11.37-.17.56a.26.26,0,0,1-.32.2.31.31,0,0,1-.17-.41l.66-2.13v0a2.06,2.06,0,0,0-2.42,1.61,2.48,2.48,0,0,0,1.3,3,2,2,0,0,0,2.63-1.41A2.52,2.52,0,0,0,271.56,267.4Zm5.32,2.39a2.29,2.29,0,0,0,1.53,2,2,2,0,0,0,2.36-1.16,2.66,2.66,0,0,0-.41-2.89,1.85,1.85,0,0,0-2.05-.51l.17.39c.23.56.46,1.13.7,1.69a.4.4,0,0,1,0,.19.27.27,0,0,1-.27.26h-2.05Zm-4.64-4.57,2.85,3.71,1.54-3.71Zm5.36,1.72-.55-1.33-1.47,3.56h.76A3.08,3.08,0,0,1,277.6,266.94Zm-.71,2.23h1.63l-.69-1.67A2.44,2.44,0,0,0,276.89,269.17Z" transform="translate(-164.27 -70.99)"/><path class="cls-18" d="M290.81,286.82a1.36,1.36,0,0,0,0-.2,3.34,3.34,0,0,1,.37-1.21,2.65,2.65,0,0,1,1.65-1.35,2.25,2.25,0,0,1,1.18,0s0,0,.05,0c.32-1,.65-2.09,1-3.14a.85.85,0,0,1,.65-.63h1v.61h-.89a.28.28,0,0,0-.3.24c-.1.31-.19.62-.29.94v0h4.41s0,0,0,0,.14-.35.22-.52c0,0,0,0,0,0h-.78a.28.28,0,0,1-.25-.19.34.34,0,0,1,.07-.34.24.24,0,0,1,.19-.08h2v.61h-.63a.05.05,0,0,0-.05,0c-.11.29-.23.57-.35.86v.05c.24.57.48,1.15.71,1.72v0l.25-.08A2.23,2.23,0,0,1,302,284a2.45,2.45,0,0,1,1.66,1,3,3,0,0,1,.65,1.46,3.21,3.21,0,0,1-.8,2.78,2.45,2.45,0,0,1-1.36.76l-.24,0h-.36c-.14,0-.29,0-.43-.08a2.54,2.54,0,0,1-1.42-1,3.22,3.22,0,0,1-.56-1.45c0-.06,0-.11,0-.17H298a.3.3,0,0,1-.25-.13l-.45-.6L296.1,285,295,283.59l-.19-.25-.29.93h0l0,0a3,3,0,0,1,1.44,2.31,3.15,3.15,0,0,1-.05,1.06,3,3,0,0,1-1.19,1.89,2.28,2.28,0,0,1-1,.41l-.17,0h-.33a2.57,2.57,0,0,1-.4-.07,2.63,2.63,0,0,1-1.69-1.42,3.35,3.35,0,0,1-.34-1.14,1.36,1.36,0,0,0,0-.2Zm3.56-1.95,0,0c-.16.52-.32,1-.49,1.57-.05.19-.11.38-.17.56a.26.26,0,0,1-.32.2.31.31,0,0,1-.17-.41l.66-2.13v0a2.06,2.06,0,0,0-2.42,1.61,2.48,2.48,0,0,0,1.3,3,2,2,0,0,0,2.63-1.41A2.52,2.52,0,0,0,294.37,284.87Zm5.32,2.39a2.33,2.33,0,0,0,1.53,2,2,2,0,0,0,2.36-1.17,2.66,2.66,0,0,0-.41-2.89,1.86,1.86,0,0,0-2.05-.51l.17.39c.23.56.46,1.13.7,1.69a.4.4,0,0,1,0,.19.27.27,0,0,1-.27.26h-2.05Zm-4.64-4.57,2.85,3.72,1.54-3.72Zm5.36,1.72-.55-1.33-1.47,3.56h.76A3.08,3.08,0,0,1,300.41,284.41Zm-.71,2.23h1.63l-.69-1.67A2.48,2.48,0,0,0,299.7,286.64Z" transform="translate(-164.27 -70.99)"/><path class="cls-18" d="M309.75,273.77l.06-.18a3,3,0,0,1,.65-1,2.35,2.35,0,0,1,1.91-.77,2.24,2.24,0,0,1,1.13.38s0,0,.05,0l1.71-2.7a.79.79,0,0,1,.78-.4l.1,0,.87.29h0l-.15.59h0l-.81-.28a.27.27,0,0,0-.35.14l-.5.8,0,0h0l4.2,1.4s0,0,.06,0l.33-.43,0,0h0l-.71-.24a.3.3,0,0,1-.19-.27.32.32,0,0,1,.15-.3.23.23,0,0,1,.2,0l1.9.64h0L321,272h0l-.57-.19s0,0,0,0l-.54.71a.08.08,0,0,0,0,0l.27,1.88v0h.26a2.22,2.22,0,0,1,.87.21,2.82,2.82,0,0,1,1.37,1.45,3.3,3.3,0,0,1,.26,1.62,3,3,0,0,1-1.44,2.41,2.18,2.18,0,0,1-1.49.29l-.24,0h0l-.28-.09,0,0c-.14-.07-.27-.13-.4-.21a2.83,2.83,0,0,1-1.12-1.45,3.47,3.47,0,0,1-.18-1.57,1,1,0,0,0,0-.17h0l-1-.35a.34.34,0,0,1-.21-.21c-.1-.24-.19-.48-.29-.71-.26-.63-.52-1.27-.77-1.9l-.68-1.65-.12-.31-.51.81h0l0,0a3.25,3.25,0,0,1,.82,2.68,2.83,2.83,0,0,1-.3,1,2.69,2.69,0,0,1-1.6,1.44,2.2,2.2,0,0,1-1.11.07l-.17,0-.28-.09,0,0-.37-.19a3,3,0,0,1-1.27-1.91,3.22,3.22,0,0,1-.05-1.2l0-.2Zm3.88-.73,0,0-.85,1.36c-.11.16-.21.32-.31.48a.24.24,0,0,1-.36.08.32.32,0,0,1-.06-.44l1.16-1.83,0,0a1.93,1.93,0,0,0-2.72.77,2.62,2.62,0,0,0,.52,3.27,1.91,1.91,0,0,0,2.87-.51A2.62,2.62,0,0,0,313.63,273Zm4.53,4a2.51,2.51,0,0,0,1,2.44,1.88,1.88,0,0,0,2.55-.36,2.66,2.66,0,0,0,.3-2.9,2,2,0,0,0-1.84-1.15l.06.43c.09.61.18,1.23.26,1.84a.31.31,0,0,1,0,.19.25.25,0,0,1-.32.16l-1.92-.64Zm-3.34-5.87,1.83,4.48,2.38-3.08Zm4.72,3.36-.2-1.45L317.06,276l.73.25A2.8,2.8,0,0,1,319.54,274.53Zm-1.22,1.91,1.57.52-.26-1.81A2.17,2.17,0,0,0,318.32,276.44Z" transform="translate(-164.27 -70.99)"/><path class="cls-18" d="M313.91,256.16c0-.07,0-.13,0-.19a3.18,3.18,0,0,1,.53-1.13,2.51,2.51,0,0,1,1.81-1.05,2.22,2.22,0,0,1,1.16.21s0,0,.05,0l1.4-2.93a.8.8,0,0,1,.72-.51h.1l.9.16h0l-.08.6h0l-.84-.15a.27.27,0,0,0-.33.18c-.14.29-.27.58-.41.88l0,0h0l4.32.77a0,0,0,0,0,.05,0l.29-.49,0,0h0l-.73-.13a.29.29,0,0,1-.22-.23.34.34,0,0,1,.11-.32.24.24,0,0,1,.2,0l2,.35h0l-.09.6h0l-.59-.1s0,0-.05,0c-.15.26-.3.52-.46.78a.13.13,0,0,0,0,.06l.48,1.82v0l.25,0a2.24,2.24,0,0,1,.89.09,2.57,2.57,0,0,1,1.51,1.23,3,3,0,0,1,.44,1.57,3.09,3.09,0,0,1-1.15,2.6,2.29,2.29,0,0,1-1.45.51h-.27l-.29-.05h0a3,3,0,0,1-.42-.16,2.65,2.65,0,0,1-1.27-1.27,3.32,3.32,0,0,1-.36-1.53,1,1,0,0,0,0-.17H322l-1.08-.19a.31.31,0,0,1-.23-.17c-.12-.23-.25-.45-.37-.67-.32-.59-.65-1.18-1-1.76s-.57-1-.85-1.54l-.16-.29-.41.87h0l0,0a3.18,3.18,0,0,1,1.12,2.54,3.3,3.3,0,0,1-.19,1,2.82,2.82,0,0,1-1.43,1.66,2.28,2.28,0,0,1-1.09.23h-.17l-.29-.05,0,0-.39-.13a2.85,2.85,0,0,1-1.48-1.71,3.35,3.35,0,0,1-.18-1.18,1.48,1.48,0,0,0,0-.21Zm3.77-1.3,0,0-.69,1.46c-.09.18-.17.35-.25.53a.25.25,0,0,1-.35.13.32.32,0,0,1-.11-.43c.32-.66.63-1.32.94-2l0,0a2,2,0,0,0-2.61,1.17,2.56,2.56,0,0,0,.89,3.16,1.94,1.94,0,0,0,2.79-.93A2.59,2.59,0,0,0,317.68,254.86Zm4.94,3.3a2.43,2.43,0,0,0,1.24,2.28,1.93,1.93,0,0,0,2.49-.74,2.69,2.69,0,0,0,0-2.92,1.9,1.9,0,0,0-1.95-.87c0,.14.07.28.1.42.16.59.31,1.19.47,1.79a.41.41,0,0,1,0,.19.28.28,0,0,1-.31.21l-2-.36Zm-4-5.33L321,257l2-3.4Zm5.06,2.63-.37-1.4-1.92,3.25.75.14A2.93,2.93,0,0,1,323.71,255.46Zm-1,2.08,1.61.29-.46-1.76A2.31,2.31,0,0,0,322.71,257.54Z" transform="translate(-164.27 -70.99)"/><path class="cls-18" d="M283.78,315.07a1.23,1.23,0,0,1,0-.19,3,3,0,0,1,.37-1.21,2.62,2.62,0,0,1,1.64-1.36,2.25,2.25,0,0,1,1.18,0s0,0,.05,0c.33-1.05.65-2.1,1-3.14a.85.85,0,0,1,.65-.63h1v.61h-.89c-.16,0-.24.07-.3.24s-.19.62-.29.93v0h4.41s0,0,.05,0c.07-.18.14-.35.22-.53l0,0h-.79a.27.27,0,0,1-.25-.2.35.35,0,0,1,.07-.34.27.27,0,0,1,.19-.08h2v.62h-.63s0,0,0,0l-.36.85v.05c.24.58.48,1.15.71,1.73l0,0,.24-.08a2.23,2.23,0,0,1,.89-.08,2.55,2.55,0,0,1,1.67,1,3.06,3.06,0,0,1,.64,1.47,3.2,3.2,0,0,1-.8,2.77,2.31,2.31,0,0,1-1.36.76l-.23,0h-.36c-.15,0-.29,0-.44-.08a2.56,2.56,0,0,1-1.42-1,3.17,3.17,0,0,1-.56-1.45,1.11,1.11,0,0,0,0-.17H291a.3.3,0,0,1-.25-.13l-.45-.59-1.2-1.57L288,311.85l-.2-.26-.29.94h0l0,0a3,3,0,0,1,1.44,2.31,3.14,3.14,0,0,1-.05,1.06,3,3,0,0,1-1.18,1.89,2.29,2.29,0,0,1-1,.42l-.17,0h-.33l-.4-.07a2.65,2.65,0,0,1-1.69-1.43,3.14,3.14,0,0,1-.33-1.13,1.49,1.49,0,0,1,0-.21Zm3.55-1.95s0,0,0,.05c-.17.52-.33,1-.49,1.57l-.18.56a.25.25,0,0,1-.32.19.31.31,0,0,1-.17-.41l.66-2.12,0,0a2,2,0,0,0-2.42,1.61,2.47,2.47,0,0,0,1.29,3,2,2,0,0,0,2.63-1.41A2.53,2.53,0,0,0,287.33,313.12Zm5.32,2.39a2.31,2.31,0,0,0,1.54,2,2,2,0,0,0,2.35-1.17,2.63,2.63,0,0,0-.41-2.88,1.86,1.86,0,0,0-2-.52c.05.14.1.27.16.4l.7,1.69a.28.28,0,0,1,0,.18.27.27,0,0,1-.27.26h-2.05ZM288,311l2.84,3.71L292.4,311Zm5.35,1.71-.55-1.32-1.47,3.55h.76A3.12,3.12,0,0,1,293.37,312.66Zm-.71,2.23h1.63l-.69-1.66A2.44,2.44,0,0,0,292.66,314.89Z" transform="translate(-164.27 -70.99)"/><path class="cls-18" d="M307.8,306.81l.06-.18a3.07,3.07,0,0,1,.62-1.07,2.45,2.45,0,0,1,1.89-.84,2.36,2.36,0,0,1,1.14.34s0,0,.05,0c.55-.92,1.09-1.84,1.63-2.76a.79.79,0,0,1,.77-.43l.09,0,.88.26h0l-.13.59h-.05l-.82-.24a.27.27,0,0,0-.34.15l-.48.82,0,0h0l4.23,1.24s0,0,.06,0l.32-.45,0,0h0L317,304a.3.3,0,0,1-.2-.26.34.34,0,0,1,.14-.31.27.27,0,0,1,.2,0l1.92.56h0l-.14.6,0,0-.57-.16s0,0,0,0l-.53.72a.11.11,0,0,0,0,.05c.1.63.21,1.25.32,1.87v0h.26a2.27,2.27,0,0,1,.88.18,2.7,2.7,0,0,1,1.4,1.4,3.15,3.15,0,0,1,.31,1.6,3,3,0,0,1-1.37,2.47,2.29,2.29,0,0,1-1.48.35l-.24,0h0l-.28-.08,0,0a3.73,3.73,0,0,1-.4-.2,2.83,2.83,0,0,1-1.16-1.4,3.34,3.34,0,0,1-.22-1.57,1.11,1.11,0,0,1,0-.17h0l-1.06-.31a.3.3,0,0,1-.21-.2c-.11-.23-.21-.47-.32-.7l-.82-1.86-.72-1.63-.14-.3-.48.82h0l0,0a3.2,3.2,0,0,1,.9,2.64,3.49,3.49,0,0,1-.27,1,2.74,2.74,0,0,1-1.56,1.49,2.21,2.21,0,0,1-1.11.11l-.17,0-.29-.08,0,0c-.12-.06-.25-.11-.37-.18a2.92,2.92,0,0,1-1.33-1.85,3.48,3.48,0,0,1-.08-1.2l0-.2Zm3.87-.87,0,0-.81,1.38-.29.5a.25.25,0,0,1-.36.1.35.35,0,0,1-.07-.45l1.1-1.87,0,0a1.93,1.93,0,0,0-2.69.88,2.58,2.58,0,0,0,.62,3.24,1.91,1.91,0,0,0,2.85-.62A2.62,2.62,0,0,0,311.67,305.94Zm4.64,3.82a2.5,2.5,0,0,0,1,2.41,1.9,1.9,0,0,0,2.54-.47,2.65,2.65,0,0,0,.22-2.91,2,2,0,0,0-1.87-1.08c0,.15.05.29.08.43.1.61.2,1.23.31,1.84a.31.31,0,0,1,0,.19.26.26,0,0,1-.32.17l-1.94-.57ZM312.8,304l2,4.41,2.29-3.17Zm4.82,3.18-.25-1.44-2.19,3,.73.21A2.86,2.86,0,0,1,317.62,307.2Zm-1.17,2,1.58.46-.31-1.8A2.22,2.22,0,0,0,316.45,309.16Z" transform="translate(-164.27 -70.99)"/><path class="cls-18" d="M268.3,298.62a1.23,1.23,0,0,0,0-.19,3.29,3.29,0,0,1,.37-1.21,2.62,2.62,0,0,1,1.65-1.35,2.25,2.25,0,0,1,1.18,0s0,0,.05,0c.32-1,.65-2.09,1-3.14a.85.85,0,0,1,.65-.63h1v.61h-.89a.28.28,0,0,0-.3.24c-.1.31-.19.62-.29.93v.05h4.41s0,0,.05,0l.21-.52s0,0,0-.05h-.78a.28.28,0,0,1-.25-.19.34.34,0,0,1,.07-.34.24.24,0,0,1,.19-.08h2v.61h-.63a.05.05,0,0,0-.05,0c-.11.28-.23.57-.35.85v.06c.24.57.47,1.14.71,1.72v0l.25-.08a2.23,2.23,0,0,1,.89-.07,2.48,2.48,0,0,1,1.66.95,3.07,3.07,0,0,1,.65,1.47A3.2,3.2,0,0,1,281,301a2.41,2.41,0,0,1-1.36.77l-.24,0h-.36c-.14,0-.29,0-.43-.08a2.55,2.55,0,0,1-1.42-1,3.11,3.11,0,0,1-.56-1.45c0-.06,0-.12,0-.17h-1.14a.3.3,0,0,1-.25-.13l-.45-.6-1.21-1.57-1.05-1.37-.19-.26-.29.94h0l0,0a3,3,0,0,1,1.43,2.3,3.14,3.14,0,0,1,0,1.06,3,3,0,0,1-1.19,1.89,2.29,2.29,0,0,1-1,.42l-.17,0h-.33a2.93,2.93,0,0,1-.41-.07,2.64,2.64,0,0,1-1.68-1.42,3.42,3.42,0,0,1-.34-1.14,1.23,1.23,0,0,0,0-.2Zm3.56-1.94,0,0c-.16.52-.32,1-.49,1.57-.05.19-.11.37-.17.56a.26.26,0,0,1-.32.2.31.31,0,0,1-.17-.42l.66-2.12v0a2.06,2.06,0,0,0-2.42,1.61,2.48,2.48,0,0,0,1.3,3,2,2,0,0,0,2.63-1.41A2.51,2.51,0,0,0,271.86,296.68Zm5.32,2.39a2.29,2.29,0,0,0,1.53,2,2,2,0,0,0,2.36-1.17,2.65,2.65,0,0,0-.41-2.88,1.85,1.85,0,0,0-2.05-.51l.17.39.69,1.69a.31.31,0,0,1,0,.19.27.27,0,0,1-.27.26h-2.05Zm-4.64-4.57,2.85,3.71,1.54-3.71Zm5.36,1.72-.55-1.33-1.47,3.55h.76A3.08,3.08,0,0,1,277.9,296.22Zm-.71,2.22h1.63l-.69-1.66A2.44,2.44,0,0,0,277.19,298.44Z" transform="translate(-164.27 -70.99)"/><path class="cls-18" d="M267.83,244.47c0-.06,0-.13,0-.19a3.29,3.29,0,0,1,.37-1.21,2.62,2.62,0,0,1,1.65-1.35,2.15,2.15,0,0,1,1.18,0s0,0,0,0l1-3.14a.85.85,0,0,1,.65-.63h1v.61h-.89a.28.28,0,0,0-.3.24c-.1.31-.2.62-.29.93l0,.05h4.41s0,0,.05,0,.15-.35.22-.53c0,0,0,0,0,0h-.78a.28.28,0,0,1-.25-.19.34.34,0,0,1,.07-.34.22.22,0,0,1,.19-.08h2v.61h-.62a0,0,0,0,0-.05,0c-.12.28-.23.57-.35.85a.06.06,0,0,0,0,.06c.23.57.47,1.14.71,1.72v0l.24-.08a2.12,2.12,0,0,1,.9-.07,2.48,2.48,0,0,1,1.66,1,3,3,0,0,1,.64,1.47,3.19,3.19,0,0,1-.79,2.77,2.41,2.41,0,0,1-1.36.77l-.24,0h-.36c-.14,0-.29,0-.43-.08a2.58,2.58,0,0,1-1.43-1,3.12,3.12,0,0,1-.55-1.45c0-.05,0-.11,0-.17H275a.31.31,0,0,1-.25-.13l-.46-.6-1.2-1.57-1.05-1.37-.19-.26-.3.94h0a3,3,0,0,1,1.44,2.31,3.14,3.14,0,0,1,0,1.06,3,3,0,0,1-1.19,1.89,2.29,2.29,0,0,1-1,.42l-.18,0h-.33l-.4-.07a2.69,2.69,0,0,1-1.69-1.42,3.19,3.19,0,0,1-.33-1.14c0-.07,0-.14,0-.2Zm3.56-1.94s0,0,0,0c-.16.52-.33,1-.49,1.57-.06.19-.12.37-.17.56a.27.27,0,0,1-.33.2.32.32,0,0,1-.16-.42l.66-2.12v0a2.06,2.06,0,0,0-2.42,1.61,2.48,2.48,0,0,0,1.3,3,2,2,0,0,0,2.63-1.41A2.52,2.52,0,0,0,271.39,242.53Zm5.32,2.38a2.29,2.29,0,0,0,1.53,2,2,2,0,0,0,2.36-1.17,2.65,2.65,0,0,0-.41-2.88,1.85,1.85,0,0,0-2.05-.51c.06.13.11.26.16.39.24.56.47,1.13.7,1.69a.31.31,0,0,1,0,.19.28.28,0,0,1-.28.25h-2Zm-4.64-4.56,2.85,3.71,1.53-3.71Zm5.35,1.71-.55-1.32-1.46,3.55h.75A3.15,3.15,0,0,1,277.42,242.06Zm-.71,2.23h1.64l-.69-1.66A2.45,2.45,0,0,0,276.71,244.29Z" transform="translate(-164.27 -70.99)"/><path class="cls-19" d="M313.61,96.2" transform="translate(-164.27 -70.99)"/><ellipse class="cls-20" cx="97.4" cy="57.95" rx="41.08" ry="57.95"/><rect class="cls-21" x="238.99" y="106.63" width="19.76" height="13.48" rx="4.43" ry="4.43" transform="translate(333.47 155.76) rotate(180)"/><rect class="cls-22" x="264.74" y="106.63" width="19.76" height="13.48" rx="4.43" ry="4.43" transform="translate(384.96 155.76) rotate(180)"/><ellipse class="cls-23" cx="84.6" cy="42.39" rx="1.96" ry="2.67"/><ellipse class="cls-23" cx="110.35" cy="42.39" rx="1.96" ry="2.67"/><path class="cls-24" d="M221.07,118.23l17.42-32.29s31.89,6.1,43.91,0l18.48,28.48s-4.95-23.78-16.61-33.53c-8.14-6.81-10.57-7.24-11.26-7.7-1-.71-1.67-.46-2.2-.64-4-1.41-17.36-3.89-30.78,6.8C223.89,92.21,221.07,118.23,221.07,118.23Z" transform="translate(-164.27 -70.99)"/><path class="cls-25" d="M282.4,86.06l18.3,28.2s-4.89-23.56-16.44-33.2C283.15,80.14,285.83,82.5,282.4,86.06Z" transform="translate(-164.27 -70.99)"/><path class="cls-26" d="M301.88,137.36s-38.1,56.95-81.82,0c0,0,4.64,48,41.08,50.57C261.14,187.93,296.15,189.25,301.88,137.36Z" transform="translate(-164.27 -70.99)"/><line class="cls-19" x1="86.56" y1="88.04" x2="108.39" y2="88.04"/><path class="cls-27" d="M250.83,159a18.44,18.44,0,0,1,5.46-2,27.22,27.22,0,0,1,5.45-.54,28.06,28.06,0,0,1,5.46.53,18.47,18.47,0,0,1,5.46,2,18.47,18.47,0,0,1-5.46,2,28.06,28.06,0,0,1-5.46.53,27.22,27.22,0,0,1-5.45-.54A18.72,18.72,0,0,1,250.83,159Z" transform="translate(-164.27 -70.99)"/><line class="cls-19" x1="85.37" y1="88.04" x2="109.79" y2="88.04"/><path class="cls-28" d="M249.64,159c2-.16,4.07-.23,6.1-.29s4.08-.08,6.11-.09,4.07,0,6.11.09,4.07.13,6.1.29c-2,.16-4.07.23-6.1.29s-4.07.08-6.11.08-4.07,0-6.11-.08S251.67,159.18,249.64,159Z" transform="translate(-164.27 -70.99)"/><polyline class="cls-29" points="102.06 71.48 97.89 72.88 92.89 71.28 97.01 50.13"/><polyline class="cls-30" points="97.89 72.88 92.89 71.28 97.01 50.13"/><path class="cls-20" d="M264.17,113.21s-2.12-3-4.85,0" transform="translate(-164.27 -70.99)"/><path class="cls-31" d="M264.12,113.24a7.52,7.52,0,0,0-2.35-.47,4.34,4.34,0,0,0-1,.13l-.65.16a4.56,4.56,0,0,1-.77.19l-.08-.07.51-.52a6.22,6.22,0,0,1,.58-.43,2.74,2.74,0,0,1,1.38-.46,2.56,2.56,0,0,1,1.4.42,4,4,0,0,1,1.06,1Z" transform="translate(-164.27 -70.99)"/><ellipse class="cls-32" cx="110.35" cy="42.39" rx="1" ry="1.36"/><ellipse class="cls-32" cx="84.6" cy="42.39" rx="1" ry="1.36"/><path class="cls-33" d="M220.06,137.36s10.62,35.57,25.22,44.72C245.28,182.08,228.31,179.42,220.06,137.36Z" transform="translate(-164.27 -70.99)"/></svg>