<svg id="Layer_1" data-name="Layer 1" xmlns="http://www.w3.org/2000/svg" xmlns:xlink="http://www.w3.org/1999/xlink" viewBox="0 0 202.26 417.9"><defs><style>.cls-1{fill:#e4e1c7;}.cls-2{fill:#512e2a;}.cls-3,.cls-4{fill:#9e2b20;}.cls-14,.cls-23,.cls-4,.cls-6{stroke:#231f20;}.cls-14,.cls-15,.cls-16,.cls-17,.cls-21,.cls-22,.cls-23,.cls-32,.cls-4,.cls-6,.cls-8{stroke-miterlimit:10;}.cls-5{fill:#231f20;}.cls-16,.cls-6,.cls-8{fill:none;}.cls-23,.cls-6{stroke-width:0.25px;}.cls-7{fill:#c2b59b;}.cls-8{stroke:#9b8579;}.cls-9{fill:#b1a58e;}.cls-10{fill:#9b8579;}.cls-11{fill:#1e4496;}.cls-12,.cls-17{fill:#234093;}.cls-13{fill:#124b9a;}.cls-14,.cls-15,.cls-20,.cls-21,.cls-22,.cls-23{fill:#fff;}.cls-15{stroke:#f9a560;}.cls-16{stroke:#283c91;}.cls-17{stroke:#262262;stroke-width:0.5px;}.cls-18{fill:#fff200;}.cls-19{fill:#d1d3d4;}.cls-21{stroke:url(#White_Black);}.cls-22{stroke:url(#White_Black-2);}.cls-24{fill:#fde79e;}.cls-25{fill:#fbeac8;}.cls-26{fill:#e5e1c5;}.cls-27{fill:#f9c9de;}.cls-28{fill:#8d536f;}.cls-29{fill:#e3e2db;}.cls-30{fill:#d0cca8;}.cls-31{fill:url(#White_Black-3);}.cls-32{fill:#2e3192;stroke:#00aeef;}.cls-33{fill:#cfcdb4;}</style><linearGradient id="White_Black" x1="264.71" y1="113.37" x2="286.45" y2="113.37" gradientTransform="matrix(1, 0, 0, -1, -27.68, 226.75)" gradientUnits="userSpaceOnUse"><stop offset="0" stop-color="#fff"/><stop offset="1" stop-color="#231f20"/></linearGradient><linearGradient id="White_Black-2" x1="237.69" y1="113.37" x2="259.43" y2="113.37" gradientTransform="matrix(1, 0, 0, -1, 26.36, 226.75)" xlink:href="#White_Black"/><linearGradient id="White_Black-3" x1="264.36" y1="112.51" x2="258.51" y2="112.51" gradientTransform="matrix(1, 0, 0, 1, 0, 0)" xlink:href="#White_Black"/></defs><title>3</title><polyline class="cls-1" points="123.63 334.96 117.02 400.24 109.58 399.87 108.83 334.22"/><polyline class="cls-1" points="77.52 334.96 84.13 400.24 91.57 399.87 92.31 334.22"/><path class="cls-2" d="M230.77,475.18s-20.25,10.71-7.52,12.21l12.73,1.5h16.19s6.73-4.74,6.73-11.59" transform="translate(-159.12 -70.99)"/><path class="cls-2" d="M286.2,475.18s20.24,10.71,7.52,12.21L281,488.89H264.8s-5.9-4.74-5.9-11.59" transform="translate(-159.12 -70.99)"/><path class="cls-3" d="M244.2,470.46s-33.1,10.7-20.38,12.2l12.73,1.49h16.19s6.16,0,6.16-6.85l-7.23-6.23h-.53" transform="translate(-159.12 -70.99)"/><path class="cls-3" d="M266.6,470.13l-7.39,7.17c0,6.85,6.16,6.85,6.16,6.85h16.19l12.73-1.49c12.73-1.5-18.15-12.21-18.15-12.21" transform="translate(-159.12 -70.99)"/><path class="cls-4" d="M259.31,477" transform="translate(-159.12 -70.99)"/><path class="cls-5" d="M270.57,414.52v2.22a3.22,3.22,0,0,1,0,.62,3.21,3.21,0,0,0,0-.62v-2.22a2.57,2.57,0,0,1,0-.62,2.57,2.57,0,0,0,0,.62Z" transform="translate(-159.12 -70.99)"/><path class="cls-5" d="M275.4,418.15v1.21a3.22,3.22,0,0,1,0,.62,3.2,3.2,0,0,0,0-.62v-1.21a3.22,3.22,0,0,1,0-.62,3.2,3.2,0,0,0,0,.62Z" transform="translate(-159.12 -70.99)"/><path class="cls-5" d="M277,422v1.21a2.57,2.57,0,0,1,0,.62,2.57,2.57,0,0,0,0-.62V422a3.33,3.33,0,0,1,0-.63,3.32,3.32,0,0,0,0,.63Z" transform="translate(-159.12 -70.99)"/><path class="cls-5" d="M280,421.78v.2a3.22,3.22,0,0,1,0,.62,3.21,3.21,0,0,0,0-.62v-.2a2.66,2.66,0,0,1,0-.63,2.66,2.66,0,0,0,0,.63Z" transform="translate(-159.12 -70.99)"/><path class="cls-5" d="M274,429.86s0-1.25,0-1.25,0,1.25,0,1.25Z" transform="translate(-159.12 -70.99)"/><path class="cls-5" d="M271.38,422v1.41a3.21,3.21,0,0,1,0,.62,3.21,3.21,0,0,0,0-.62V422a3.33,3.33,0,0,1,0-.63,3.32,3.32,0,0,0,0,.63Z" transform="translate(-159.12 -70.99)"/><path class="cls-5" d="M271.58,431v1.62a2.57,2.57,0,0,1,0,.62,2.57,2.57,0,0,0,0-.62V431a3.21,3.21,0,0,1,0-.62,3.21,3.21,0,0,0,0,.62Z" transform="translate(-159.12 -70.99)"/><path class="cls-5" d="M277.82,434.07v.6a3.33,3.33,0,0,1,0,.63,3.32,3.32,0,0,0,0-.63v-.6a3.33,3.33,0,0,1,0-.63,3.32,3.32,0,0,0,0,.63Z" transform="translate(-159.12 -70.99)"/><path class="cls-5" d="M275.81,436.28v1.62a2.57,2.57,0,0,1,0,.62,2.57,2.57,0,0,0,0-.62v-1.62a3.21,3.21,0,0,1,0-.62,3.21,3.21,0,0,0,0,.62Z" transform="translate(-159.12 -70.99)"/><path class="cls-5" d="M273.19,437.29v1a2.57,2.57,0,0,1,0,.62,2.57,2.57,0,0,0,0-.62v-1a3.22,3.22,0,0,1,0-.62,3.21,3.21,0,0,0,0,.62Z" transform="translate(-159.12 -70.99)"/><path class="cls-5" d="M271.17,437.49v.2a3.33,3.33,0,0,1,0,.63,3.32,3.32,0,0,0,0-.63v-.2a3.22,3.22,0,0,1,0-.62,3.21,3.21,0,0,0,0,.62Z" transform="translate(-159.12 -70.99)"/><path class="cls-5" d="M270.77,441.72v1a3.32,3.32,0,0,1,0,.63,3.31,3.31,0,0,0,0-.63v-1a2.57,2.57,0,0,1,0-.62,2.57,2.57,0,0,0,0,.62Z" transform="translate(-159.12 -70.99)"/><path class="cls-5" d="M276.82,443.34v.6a3.21,3.21,0,0,1,0,.62,3.2,3.2,0,0,0,0-.62v-.6a3.33,3.33,0,0,1,0-.63,3.32,3.32,0,0,0,0,.63Z" transform="translate(-159.12 -70.99)"/><path class="cls-5" d="M274.8,446v.21a3.21,3.21,0,0,1,0,.62,3.21,3.21,0,0,0,0-.62V446a2.57,2.57,0,0,1,0-.62,2.57,2.57,0,0,0,0,.62Z" transform="translate(-159.12 -70.99)"/><path class="cls-5" d="M272,449v1.21a3.21,3.21,0,0,1,0,.62,3.21,3.21,0,0,0,0-.62V449a2.66,2.66,0,0,1,0-.63,2.66,2.66,0,0,0,0,.63Z" transform="translate(-159.12 -70.99)"/><path class="cls-5" d="M276,451.6v.2a3.22,3.22,0,0,1,0,.62,3.21,3.21,0,0,0,0-.62v-.2a2.66,2.66,0,0,1,0-.63,2.66,2.66,0,0,0,0,.63Z" transform="translate(-159.12 -70.99)"/><path class="cls-5" d="M272.59,454.24s0-1.25,0-1.25,0,1.25,0,1.25Z" transform="translate(-159.12 -70.99)"/><path class="cls-5" d="M279.64,412.71v.81a3.21,3.21,0,0,1,0,.62,2.57,2.57,0,0,0,0-.62v-.81a3.22,3.22,0,0,1,0-.62,3.21,3.21,0,0,0,0,.62Z" transform="translate(-159.12 -70.99)"/><path class="cls-5" d="M272,411.1s0-1.25,0-1.25,0,1.25,0,1.25Z" transform="translate(-159.12 -70.99)"/><path class="cls-5" d="M276,409.9v-1.25s0,1.25,0,1.25Z" transform="translate(-159.12 -70.99)"/><path class="cls-5" d="M275.61,410.7v.6a3.21,3.21,0,0,1,0,.62,2.56,2.56,0,0,0,0-.62v-.6a3.33,3.33,0,0,1,0-.63,3.32,3.32,0,0,0,0,.63Z" transform="translate(-159.12 -70.99)"/><path class="cls-5" d="M280.64,408.88v1a3.22,3.22,0,0,1,0,.62,3.2,3.2,0,0,0,0-.62v-1a3.22,3.22,0,0,1,0-.62,3.21,3.21,0,0,0,0,.62Z" transform="translate(-159.12 -70.99)"/><path class="cls-5" d="M244.38,409.27v.4a3.31,3.31,0,0,1,0,.63,2.66,2.66,0,0,0,0-.63v-.4a3.22,3.22,0,0,1,0-.62,3.21,3.21,0,0,0,0,.62Z" transform="translate(-159.12 -70.99)"/><path class="cls-5" d="M248.82,409.31v-1.25s0,1.25,0,1.25Z" transform="translate(-159.12 -70.99)"/><path class="cls-6" d="M281.56,414a2,2,0,0,0,.64,2.18" transform="translate(-159.12 -70.99)"/><path class="cls-6" d="M281.53,411.07a2,2,0,0,1,.7,1.62" transform="translate(-159.12 -70.99)"/><path class="cls-6" d="M277,411.75a1.07,1.07,0,0,1-.55,1.22" transform="translate(-159.12 -70.99)"/><path class="cls-6" d="M271.39,411.94v1.5" transform="translate(-159.12 -70.99)"/><path class="cls-6" d="M268.77,411.19a2.15,2.15,0,0,1-.82,1.44" transform="translate(-159.12 -70.99)"/><path class="cls-6" d="M267.94,409.13a2.32,2.32,0,0,1-.5,1.48" transform="translate(-159.12 -70.99)"/><path class="cls-6" d="M268.58,414.84a3.35,3.35,0,0,0-.86,1.78" transform="translate(-159.12 -70.99)"/><path class="cls-6" d="M269.44,420a2.06,2.06,0,0,1-.49,1.12" transform="translate(-159.12 -70.99)"/><path class="cls-6" d="M272.49,416.26a1.31,1.31,0,0,1-.23,1.23" transform="translate(-159.12 -70.99)"/><path class="cls-6" d="M275.91,415.75a6.64,6.64,0,0,1,1.1.88" transform="translate(-159.12 -70.99)"/><path class="cls-6" d="M278.6,420.28l.48.65" transform="translate(-159.12 -70.99)"/><path class="cls-6" d="M274.48,420v.93" transform="translate(-159.12 -70.99)"/><path class="cls-6" d="M280.6,422.7a1.34,1.34,0,0,1,.24,1.13" transform="translate(-159.12 -70.99)"/><path class="cls-6" d="M279.72,426.09l.86,1.3" transform="translate(-159.12 -70.99)"/><path class="cls-6" d="M273,424.86a2.8,2.8,0,0,1-.91,1.34" transform="translate(-159.12 -70.99)"/><path class="cls-6" d="M269.52,425a1.92,1.92,0,0,1-1,1.71" transform="translate(-159.12 -70.99)"/><path class="cls-6" d="M269.24,431.15a1.72,1.72,0,0,1-.38,1.11" transform="translate(-159.12 -70.99)"/><path class="cls-6" d="M274.86,429.46v1" transform="translate(-159.12 -70.99)"/><path class="cls-6" d="M276.45,429.28a1,1,0,0,1,.75.46" transform="translate(-159.12 -70.99)"/><path class="cls-6" d="M280.1,430.78l.84.47" transform="translate(-159.12 -70.99)"/><path class="cls-6" d="M279.48,432.75a2.32,2.32,0,0,0,.61,2.25" transform="translate(-159.12 -70.99)"/><path class="cls-6" d="M268.61,434.85a2.07,2.07,0,0,1-1.06.27" transform="translate(-159.12 -70.99)"/><path class="cls-5" d="M248.69,415.35v2.21a3.33,3.33,0,0,1,0,.63,3.32,3.32,0,0,0,0-.63v-2.21a3.33,3.33,0,0,1,0-.63,3.32,3.32,0,0,0,0,.63Z" transform="translate(-159.12 -70.99)"/><path class="cls-5" d="M243.86,419v1.21a2.66,2.66,0,0,1,0,.63,2.66,2.66,0,0,0,0-.63V419a3.21,3.21,0,0,1,0-.62,3.21,3.21,0,0,0,0,.62Z" transform="translate(-159.12 -70.99)"/><path class="cls-5" d="M242.25,422.8V424a2.66,2.66,0,0,1,0,.63,2.66,2.66,0,0,0,0-.63V422.8a3.21,3.21,0,0,1,0-.62,3.21,3.21,0,0,0,0,.62Z" transform="translate(-159.12 -70.99)"/><path class="cls-5" d="M239.22,422.6v.2a3.33,3.33,0,0,1,0,.63,3.32,3.32,0,0,0,0-.63v-.2a3.22,3.22,0,0,1,0-.62,3.21,3.21,0,0,0,0,.62Z" transform="translate(-159.12 -70.99)"/><path class="cls-5" d="M245.28,430.68v-1.25s0,1.25,0,1.25Z" transform="translate(-159.12 -70.99)"/><path class="cls-5" d="M247.89,422.8v1.41a2.66,2.66,0,0,1,0,.63,2.66,2.66,0,0,0,0-.63V422.8a3.21,3.21,0,0,1,0-.62,3.21,3.21,0,0,0,0,.62Z" transform="translate(-159.12 -70.99)"/><path class="cls-5" d="M247.69,431.87v1.61a2.66,2.66,0,0,1,0,.63,2.66,2.66,0,0,0,0-.63v-1.61a3.32,3.32,0,0,1,0-.63,3.31,3.31,0,0,0,0,.63Z" transform="translate(-159.12 -70.99)"/><path class="cls-5" d="M241.44,434.89v.61a3.21,3.21,0,0,1,0,.62,3.21,3.21,0,0,0,0-.62v-.61a2.57,2.57,0,0,1,0-.62,2.57,2.57,0,0,0,0,.62Z" transform="translate(-159.12 -70.99)"/><path class="cls-5" d="M243.46,437.11v1.61a3.21,3.21,0,0,1,0,.62,2.56,2.56,0,0,0,0-.62v-1.61a3.33,3.33,0,0,1,0-.63,3.32,3.32,0,0,0,0,.63Z" transform="translate(-159.12 -70.99)"/><path class="cls-5" d="M246.07,438.12v1a3.33,3.33,0,0,1,0,.63,3.32,3.32,0,0,0,0-.63v-1a3.33,3.33,0,0,1,0-.63,3.32,3.32,0,0,0,0,.63Z" transform="translate(-159.12 -70.99)"/><path class="cls-5" d="M248.09,438.32v.2a3.22,3.22,0,0,1,0,.62,3.21,3.21,0,0,0,0-.62v-.2a2.66,2.66,0,0,1,0-.63,2.66,2.66,0,0,0,0,.63Z" transform="translate(-159.12 -70.99)"/><path class="cls-5" d="M248.49,442.55v1a3.21,3.21,0,0,1,0,.62,3.21,3.21,0,0,0,0-.62v-1a3.33,3.33,0,0,1,0-.63,3.32,3.32,0,0,0,0,.63Z" transform="translate(-159.12 -70.99)"/><path class="cls-5" d="M242.45,444.16v.6a2.66,2.66,0,0,1,0,.63,2.66,2.66,0,0,0,0-.63v-.6a3.32,3.32,0,0,1,0-.63,3.32,3.32,0,0,0,0,.63Z" transform="translate(-159.12 -70.99)"/><path class="cls-5" d="M244.46,446.78v.2a3.32,3.32,0,0,1,0,.63,3.32,3.32,0,0,0,0-.63v-.2a3.32,3.32,0,0,1,0-.63,3.32,3.32,0,0,0,0,.63Z" transform="translate(-159.12 -70.99)"/><path class="cls-5" d="M247.28,449.8V451a3.32,3.32,0,0,1,0,.63,3.32,3.32,0,0,0,0-.63V449.8a3.22,3.22,0,0,1,0-.62,3.21,3.21,0,0,0,0,.62Z" transform="translate(-159.12 -70.99)"/><path class="cls-5" d="M243.25,452.42v.2a3.33,3.33,0,0,1,0,.63,3.32,3.32,0,0,0,0-.63v-.2a3.22,3.22,0,0,1,0-.62,3.2,3.2,0,0,0,0,.62Z" transform="translate(-159.12 -70.99)"/><path class="cls-5" d="M246.69,455.06s0-1.25,0-1.25,0,1.25,0,1.25Z" transform="translate(-159.12 -70.99)"/><path class="cls-5" d="M239.63,413.53v.81a2.66,2.66,0,0,1,0,.63,2.66,2.66,0,0,0,0-.63v-.81a3.21,3.21,0,0,1,0-.62,3.21,3.21,0,0,0,0,.62Z" transform="translate(-159.12 -70.99)"/><path class="cls-5" d="M247.29,409.93s0-1.25,0-1.25,0,1.25,0,1.25Z" transform="translate(-159.12 -70.99)"/><path class="cls-5" d="M243.26,410.72s0-1.25,0-1.25,0,1.25,0,1.25Z" transform="translate(-159.12 -70.99)"/><path class="cls-5" d="M243.66,411.52v.6a2.66,2.66,0,0,1,0,.63,2.66,2.66,0,0,0,0-.63v-.6a3.32,3.32,0,0,1,0-.63,3.32,3.32,0,0,0,0,.63Z" transform="translate(-159.12 -70.99)"/><path class="cls-5" d="M238.62,409.71v1a3.33,3.33,0,0,1,0,.63,3.31,3.31,0,0,0,0-.63v-1a2.66,2.66,0,0,1,0-.63,2.66,2.66,0,0,0,0,.63Z" transform="translate(-159.12 -70.99)"/><path class="cls-6" d="M237.72,414.84a2,2,0,0,1-.64,2.19" transform="translate(-159.12 -70.99)"/><path class="cls-6" d="M237.74,411.89a2,2,0,0,0-.7,1.62" transform="translate(-159.12 -70.99)"/><path class="cls-6" d="M242.28,412.58a1.07,1.07,0,0,0,.54,1.22" transform="translate(-159.12 -70.99)"/><path class="cls-6" d="M247.88,412.76v1.5" transform="translate(-159.12 -70.99)"/><path class="cls-6" d="M250.5,412a2.14,2.14,0,0,0,.82,1.44" transform="translate(-159.12 -70.99)"/><path class="cls-6" d="M251.34,410a2.3,2.3,0,0,0,.49,1.49" transform="translate(-159.12 -70.99)"/><path class="cls-6" d="M250.7,415.66a3.26,3.26,0,0,1,.85,1.78" transform="translate(-159.12 -70.99)"/><path class="cls-6" d="M249.84,420.82a2,2,0,0,0,.49,1.12" transform="translate(-159.12 -70.99)"/><path class="cls-6" d="M246.78,417.08a1.33,1.33,0,0,0,.24,1.23" transform="translate(-159.12 -70.99)"/><path class="cls-6" d="M243.37,416.57a6.74,6.74,0,0,0-1.1.88" transform="translate(-159.12 -70.99)"/><path class="cls-6" d="M240.68,421.11l-.48.64" transform="translate(-159.12 -70.99)"/><path class="cls-6" d="M244.79,420.82v.94" transform="translate(-159.12 -70.99)"/><path class="cls-6" d="M238.68,423.52a1.37,1.37,0,0,0-.25,1.14" transform="translate(-159.12 -70.99)"/><path class="cls-6" d="M239.55,426.91l-.85,1.31" transform="translate(-159.12 -70.99)"/><path class="cls-6" d="M246.3,425.69a2.87,2.87,0,0,0,.91,1.33" transform="translate(-159.12 -70.99)"/><path class="cls-6" d="M249.75,425.79a1.92,1.92,0,0,0,1,1.71" transform="translate(-159.12 -70.99)"/><path class="cls-6" d="M250,432a1.7,1.7,0,0,0,.39,1.12" transform="translate(-159.12 -70.99)"/><path class="cls-6" d="M244.42,430.28v1" transform="translate(-159.12 -70.99)"/><path class="cls-6" d="M242.83,430.1a1.06,1.06,0,0,0-.76.46" transform="translate(-159.12 -70.99)"/><path class="cls-6" d="M239.18,431.61l-.85.46" transform="translate(-159.12 -70.99)"/><path class="cls-6" d="M239.79,433.57a2.33,2.33,0,0,1-.6,2.26" transform="translate(-159.12 -70.99)"/><path class="cls-6" d="M250.67,435.67a2,2,0,0,0,1.05.27" transform="translate(-159.12 -70.99)"/><polygon class="cls-7" points="72.63 336.55 131.07 336.55 147.19 271.16 56.51 271.16 72.63 336.55"/><line class="cls-8" x1="101.37" y1="283.69" x2="101.37" y2="336.55"/><path class="cls-9" d="M224.35,354l12.55,53.16h-5.47l-14.75-61S222.8,352.69,224.35,354Z" transform="translate(-159.12 -70.99)"/><path class="cls-9" d="M286.17,379.87l3.94,3.08,7.43-5.21,2.55-1.79-1.31-3.24s-8.31,7.63-12.61,7.16l-1.92,15.94s7.95-.17,10-4.74l3.16-12.8" transform="translate(-159.12 -70.99)"/><path class="cls-10" d="M286.17,379.87l4,3h-.08c3.29-2.39,6.61-4.73,9.93-7.08l-.06.19-1.32-3.24.27.07a50.56,50.56,0,0,1-5.83,4.57,25.08,25.08,0,0,1-3.24,1.84,7.52,7.52,0,0,1-3.67.85l.26-.2c-.3,2.66-.64,5.31-1,8l-1,8-.2-.21a21.08,21.08,0,0,0,2.85-.33,16.34,16.34,0,0,0,2.76-.76,9.68,9.68,0,0,0,2.49-1.35,6.19,6.19,0,0,0,1.78-2.16v0c1.06-4.27,2.2-8.52,3.3-12.77-1,4.28-2,8.57-3,12.84h0a6.64,6.64,0,0,1-1.85,2.29,10.19,10.19,0,0,1-2.56,1.42,16.2,16.2,0,0,1-2.82.8,19.81,19.81,0,0,1-2.9.36H284l0-.23.92-8c.32-2.66.61-5.32,1-8l0-.23.23,0a7.05,7.05,0,0,0,3.44-.79,25,25,0,0,0,3.2-1.77,51.53,51.53,0,0,0,5.82-4.49l.19-.16.09.22,1.29,3.25,0,.12-.1.07c-3.34,2.32-6.67,4.64-10,6.92l0,0,0,0Z" transform="translate(-159.12 -70.99)"/><path class="cls-9" d="M235.9,379.87,232,383l-7.43-5.21L222,376l1.3-3.24s8.31,7.63,12.61,7.16l1.92,15.94s-7.95-.17-10-4.74l-3.16-12.8" transform="translate(-159.12 -70.99)"/><path class="cls-10" d="M235.9,379.87,232,383l0,0,0,0c-3.36-2.28-6.69-4.6-10-6.92l-.11-.07.05-.12,1.29-3.25.09-.22.19.16a51.53,51.53,0,0,0,5.82,4.49,25,25,0,0,0,3.2,1.77,7.08,7.08,0,0,0,3.44.79l.24,0,0,.23c.35,2.65.65,5.31,1,8l.92,8,0,.23h-.22a20,20,0,0,1-2.9-.36,15.85,15.85,0,0,1-2.81-.8,10.08,10.08,0,0,1-2.57-1.42,6.64,6.64,0,0,1-1.85-2.29h0c-1.06-4.27-2-8.56-3-12.84,1.1,4.25,2.24,8.5,3.3,12.77v0a6.19,6.19,0,0,0,1.78,2.16,9.58,9.58,0,0,0,2.5,1.35,16.23,16.23,0,0,0,2.75.76,21.08,21.08,0,0,0,2.85.33l-.2.21-1-8c-.33-2.66-.68-5.31-1-8l.26.2a7.54,7.54,0,0,1-3.67-.85,25.77,25.77,0,0,1-3.24-1.84,50.56,50.56,0,0,1-5.83-4.57l.27-.07L222.13,376l0-.19c3.31,2.35,6.63,4.69,9.92,7.08h-.08Z" transform="translate(-159.12 -70.99)"/><path class="cls-9" d="M261,369.14a47.65,47.65,0,0,0,6.88-.5L267,407.53H261Z" transform="translate(-159.12 -70.99)"/><path class="cls-11" d="M297.87,172.84s104,17,45.81,155.46L328.22,319" transform="translate(-159.12 -70.99)"/><path class="cls-12" d="M222.64,172.84s-104,17-45.81,155.46L192.29,319" transform="translate(-159.12 -70.99)"/><ellipse class="cls-13" cx="101.5" cy="196.11" rx="77.53" ry="107.68"/><path class="cls-14" d="M217.49,340" transform="translate(-159.12 -70.99)"/><path class="cls-15" d="M179.21,327.06s4.8,9.88,18.31,6.64l1.26-.85.26-.32s-6.39-12.24-6.65-14.26" transform="translate(-159.12 -70.99)"/><path class="cls-15" d="M342.27,328.11s-4.8,9.89-18.32,6.64l-1.25-.84-.27-.32s6.4-12.24,6.65-14.26" transform="translate(-159.12 -70.99)"/><polyline class="cls-16" points="101.95 302.54 101.95 119.86 113.13 131.59 134.45 107.88"/><path class="cls-17" d="M208.62,229.84s-8.29,20.36-4.77,29.18l9.43,6.45,11.48-4.41L230,231.87" transform="translate(-159.12 -70.99)"/><polyline class="cls-16" points="100.37 302.54 100.37 119.86 89.19 131.59 67.88 107.88"/><path class="cls-18" d="M222.76,200l.06-.19a2.83,2.83,0,0,1,.64-1.07,2.59,2.59,0,0,1,2-.88,2.45,2.45,0,0,1,1.2.32s0,0,.05,0c.56-.93,1.12-1.86,1.67-2.79a.84.84,0,0,1,.8-.44l.1,0,.93.24h0l-.13.6H230l-.86-.23a.29.29,0,0,0-.36.15c-.16.28-.33.56-.5.84l0,0h0l4.46,1.17a0,0,0,0,0,.06,0c.11-.15.23-.3.34-.46l0,0h-.05l-.75-.2a.27.27,0,0,1-.21-.25.31.31,0,0,1,.14-.31.25.25,0,0,1,.21,0l2,.53h0l-.13.59h0l-.6-.15s0,0-.06,0l-.54.73a.11.11,0,0,0,0,.05l.36,1.87v0h.26a2.47,2.47,0,0,1,.93.17,2.76,2.76,0,0,1,1.49,1.37,3,3,0,0,1,.35,1.6,3,3,0,0,1-1.4,2.49,2.44,2.44,0,0,1-1.55.37,1.9,1.9,0,0,1-.25,0h0l-.3-.08,0,0a3.17,3.17,0,0,1-.42-.19,2.79,2.79,0,0,1-1.24-1.38,3.22,3.22,0,0,1-.26-1.56c0-.06,0-.11,0-.17h0l-1.11-.29a.34.34,0,0,1-.24-.2l-.33-.7c-.3-.61-.6-1.23-.89-1.84l-.78-1.62c-.05-.1-.1-.19-.15-.3l-.5.83h0l0,0a3.13,3.13,0,0,1,1,2.63,3,3,0,0,1-.27,1,2.84,2.84,0,0,1-1.62,1.52,2.37,2.37,0,0,1-1.15.13l-.18,0-.31-.08h0c-.13-.06-.27-.11-.39-.18a2.88,2.88,0,0,1-1.42-1.83,2.82,2.82,0,0,1-.1-1.19,1.49,1.49,0,0,1,0-.21Zm4-.95a.05.05,0,0,1,0,0c-.28.47-.56.93-.83,1.4l-.3.5a.26.26,0,0,1-.37.1.32.32,0,0,1-.09-.44c.38-.63.76-1.26,1.13-1.89l0,0a2.07,2.07,0,0,0-2.81.92,2.51,2.51,0,0,0,.69,3.23,2.06,2.06,0,0,0,3-.67A2.53,2.53,0,0,0,226.8,199.06Zm4.93,3.74a2.44,2.44,0,0,0,1.13,2.4,2.06,2.06,0,0,0,2.66-.51,2.58,2.58,0,0,0,.19-2.92,2.08,2.08,0,0,0-2-1c0,.14.05.28.08.42l.36,1.83a.31.31,0,0,1,0,.19.27.27,0,0,1-.33.18l-2-.53ZM228,197.13l2.11,4.37,2.36-3.21Zm5.1,3.09-.29-1.43-2.25,3.06.77.21A2.92,2.92,0,0,1,233.07,200.22Zm-1.2,2,1.66.44-.35-1.8A2.29,2.29,0,0,0,231.87,202.2Z" transform="translate(-159.12 -70.99)"/><path class="cls-18" d="M227.3,221.2c0-.06,0-.13,0-.19a3.13,3.13,0,0,1,.39-1.21,2.71,2.71,0,0,1,1.73-1.35,2.44,2.44,0,0,1,1.23,0s0,0,.05,0l1-3.14a.86.86,0,0,1,.68-.63h1.08v.61h-.94a.3.3,0,0,0-.31.24c-.1.31-.2.62-.31.93a.09.09,0,0,1,0,.05h4.63s0,0,0,0,.15-.35.23-.52l0,0h-.82a.28.28,0,0,1-.26-.19.32.32,0,0,1,.07-.34.24.24,0,0,1,.2-.08h2.12v.61h-.66a0,0,0,0,0-.05,0c-.12.29-.25.57-.37.85a.06.06,0,0,0,0,.06l.75,1.72v0l.25-.08a2.48,2.48,0,0,1,.94-.07,2.67,2.67,0,0,1,1.75,1,3,3,0,0,1,.67,1.47,3.15,3.15,0,0,1-.83,2.78,2.6,2.6,0,0,1-1.43.76l-.25,0h-.38c-.15,0-.3,0-.45-.08a2.7,2.7,0,0,1-1.5-1,3.13,3.13,0,0,1-.58-1.45c0-.06,0-.12,0-.17h0c-.38,0-.76,0-1.15,0a.32.32,0,0,1-.26-.13l-.48-.6-1.26-1.57c-.37-.45-.73-.91-1.1-1.37l-.21-.25-.3.93h0l0,0a2.94,2.94,0,0,1,1.51,2.3,2.9,2.9,0,0,1-.05,1.06,2.94,2.94,0,0,1-1.24,1.89,2.52,2.52,0,0,1-1.1.42l-.18,0h-.35a3.07,3.07,0,0,1-.42-.07,2.78,2.78,0,0,1-1.77-1.42,3,3,0,0,1-.35-1.14c0-.07,0-.14,0-.2Zm3.73-1.94s0,0,0,0l-.51,1.57-.18.56a.28.28,0,0,1-.34.2.31.31,0,0,1-.18-.41c.23-.71.47-1.42.7-2.13v0a2.16,2.16,0,0,0-2.54,1.61,2.44,2.44,0,0,0,1.36,3,2.13,2.13,0,0,0,2.76-1.41A2.46,2.46,0,0,0,231,219.26Zm5.58,2.39a2.33,2.33,0,0,0,1.61,2,2.11,2.11,0,0,0,2.48-1.16,2.58,2.58,0,0,0-.43-2.89,2,2,0,0,0-2.15-.51l.17.39.73,1.69a.31.31,0,0,1,0,.19.29.29,0,0,1-.29.26h-2.15Zm-4.86-4.57,3,3.71,1.61-3.71Zm5.62,1.72-.58-1.33L235.25,221H236A3.06,3.06,0,0,1,237.37,218.8Zm-.75,2.22h1.71l-.72-1.66A2.42,2.42,0,0,0,236.62,221Z" transform="translate(-159.12 -70.99)"/><path class="cls-18" d="M235.51,242.43a1.23,1.23,0,0,1,0-.19,2.83,2.83,0,0,1,.39-1.21,2.69,2.69,0,0,1,1.72-1.35,2.48,2.48,0,0,1,1.24,0s0,0,.05,0c.34-1.05.69-2.09,1-3.14a.89.89,0,0,1,.68-.63h1.08v.61h-.93a.29.29,0,0,0-.31.24c-.11.31-.21.62-.31.93,0,0,0,0,0,0h4.62a.05.05,0,0,0,.06,0c.07-.18.15-.35.23-.52,0,0,0,0,0,0h-.82a.28.28,0,0,1-.26-.19.3.3,0,0,1,.07-.34.24.24,0,0,1,.19-.08h2.12v.61h-.66s0,0,0,0c-.13.28-.25.57-.37.85a.06.06,0,0,0,0,.06c.24.57.49,1.14.74,1.72v0l.26-.08a2.48,2.48,0,0,1,.94-.07,2.63,2.63,0,0,1,1.74.95,2.93,2.93,0,0,1,.68,1.47,3.11,3.11,0,0,1-.84,2.77,2.56,2.56,0,0,1-1.42.77l-.25,0h-.38c-.15,0-.31,0-.45-.08a2.7,2.7,0,0,1-1.5-1,3,3,0,0,1-.58-1.45l0-.17h-1.19a.37.37,0,0,1-.27-.13l-.47-.6-1.26-1.57c-.37-.46-.74-.91-1.1-1.37l-.21-.26-.31.94h0l0,0a3,3,0,0,1,1.51,2.3,3.14,3.14,0,0,1-.05,1.06,3,3,0,0,1-1.25,1.89,2.44,2.44,0,0,1-1.09.42l-.18,0h-.35a3.07,3.07,0,0,1-.42-.07,2.75,2.75,0,0,1-1.77-1.42,3,3,0,0,1-.35-1.14,1.5,1.5,0,0,1,0-.2Zm3.73-1.94s0,0,0,0l-.51,1.57c-.06.19-.12.37-.19.56a.27.27,0,0,1-.33.2.32.32,0,0,1-.18-.42l.69-2.12,0,0a2.15,2.15,0,0,0-2.54,1.61,2.43,2.43,0,0,0,1.36,3,2.13,2.13,0,0,0,2.76-1.41A2.46,2.46,0,0,0,239.24,240.49Zm5.58,2.39a2.31,2.31,0,0,0,1.61,2,2.12,2.12,0,0,0,2.48-1.17,2.55,2.55,0,0,0-.44-2.88,2,2,0,0,0-2.14-.51c0,.13.11.26.17.39l.73,1.69a.31.31,0,0,1,0,.19.3.3,0,0,1-.29.26h-2.15ZM240,238.31l3,3.71,1.61-3.71Zm5.61,1.72L245,238.7l-1.54,3.55h.8A3.08,3.08,0,0,1,245.57,240Zm-.74,2.22h1.71l-.72-1.66A2.42,2.42,0,0,0,244.83,242.25Z" transform="translate(-159.12 -70.99)"/><path class="cls-18" d="M238.57,268.79c0-.07,0-.13,0-.2a3,3,0,0,1,.39-1.21,2.77,2.77,0,0,1,1.73-1.35,2.44,2.44,0,0,1,1.23,0s0,0,.05,0c.35-1.05.69-2.1,1-3.14a.89.89,0,0,1,.69-.63h1.08v.61h-.94c-.16,0-.25.07-.31.25l-.31.93a.08.08,0,0,1,0,0h4.63s0,0,.05,0l.23-.53s0,0,0-.05h-.82a.27.27,0,0,1-.26-.19.33.33,0,0,1,.07-.34.28.28,0,0,1,.2-.08h2.11v.61h-.65s0,0-.05,0c-.12.28-.25.56-.37.85a0,0,0,0,0,0,.05c.25.58.5,1.15.74,1.72l0,0,.25-.08a2.49,2.49,0,0,1,.94-.08,2.6,2.6,0,0,1,1.74,1,2.93,2.93,0,0,1,.68,1.47,3.13,3.13,0,0,1-.83,2.77,2.51,2.51,0,0,1-1.43.76,2.13,2.13,0,0,1-.25,0h-.38a3.5,3.5,0,0,1-.45-.07,2.67,2.67,0,0,1-1.5-1,3,3,0,0,1-.58-1.45.88.88,0,0,1,0-.17h-1.2a.32.32,0,0,1-.26-.13l-.48-.59-1.26-1.57c-.37-.46-.73-.92-1.1-1.37l-.21-.26-.3.93h0l0,0a3,3,0,0,1,1.51,2.31,2.9,2.9,0,0,1-.05,1.06,3,3,0,0,1-1.24,1.89,2.52,2.52,0,0,1-1.1.42l-.18,0h-.35c-.14,0-.28,0-.42-.06a2.76,2.76,0,0,1-1.77-1.43,3,3,0,0,1-.35-1.13c0-.07,0-.14,0-.21Zm3.73-2,0,0-.51,1.57-.18.57a.28.28,0,0,1-.34.19.31.31,0,0,1-.18-.41c.23-.71.47-1.42.7-2.12v-.05a2.17,2.17,0,0,0-2.54,1.62,2.43,2.43,0,0,0,1.36,3,2.13,2.13,0,0,0,2.76-1.41A2.47,2.47,0,0,0,242.3,266.84Zm5.58,2.39a2.34,2.34,0,0,0,1.61,2A2.12,2.12,0,0,0,252,270.1a2.56,2.56,0,0,0-.43-2.88,2,2,0,0,0-2.15-.52c.06.13.11.26.17.4.24.56.49,1.12.73,1.69a.3.3,0,0,1-.26.44h-2.15ZM243,264.66l3,3.72,1.61-3.72Zm5.62,1.72-.58-1.32-1.54,3.55h.79A3.08,3.08,0,0,1,248.64,266.38Zm-.75,2.23h1.71l-.72-1.66A2.42,2.42,0,0,0,247.89,268.61Z" transform="translate(-159.12 -70.99)"/><path class="cls-18" d="M238.57,296.4c0-.06,0-.13,0-.19A3,3,0,0,1,239,295a2.71,2.71,0,0,1,1.73-1.35,2.33,2.33,0,0,1,1.23,0s0,0,.05,0c.35-1.05.69-2.09,1-3.14a.89.89,0,0,1,.69-.63h1.08v.61h-.94a.3.3,0,0,0-.31.24l-.31.93a.11.11,0,0,1,0,.05h4.63a.05.05,0,0,0,.05,0l.23-.53,0,0h-.82a.28.28,0,0,1-.26-.2.31.31,0,0,1,.07-.33.24.24,0,0,1,.2-.08h2.11v.61h-.65a0,0,0,0,0-.05,0l-.37.85a0,0,0,0,0,0,.05c.25.58.5,1.15.74,1.73l0,0,.25-.08a2.3,2.3,0,0,1,.94-.07,2.63,2.63,0,0,1,1.74,1,2.93,2.93,0,0,1,.68,1.47,3.13,3.13,0,0,1-.83,2.77,2.51,2.51,0,0,1-1.43.76l-.25,0h-.38c-.15,0-.3,0-.45-.08a2.67,2.67,0,0,1-1.5-1,3,3,0,0,1-.58-1.45.88.88,0,0,1,0-.17h-1.2a.29.29,0,0,1-.26-.13l-.48-.59-1.26-1.57-1.1-1.37-.21-.26-.3.94h0a3,3,0,0,1,1.51,2.31,2.9,2.9,0,0,1-.05,1.06,2.94,2.94,0,0,1-1.24,1.89,2.52,2.52,0,0,1-1.1.42l-.18,0h-.35l-.42-.07a2.78,2.78,0,0,1-1.77-1.42,3,3,0,0,1-.35-1.14c0-.07,0-.14,0-.21Zm3.73-1.94,0,0-.51,1.57-.18.56a.27.27,0,0,1-.34.19.31.31,0,0,1-.18-.41c.23-.7.47-1.41.7-2.12v0a2.16,2.16,0,0,0-2.54,1.61,2.44,2.44,0,0,0,1.36,3,2.13,2.13,0,0,0,2.76-1.41A2.46,2.46,0,0,0,242.3,294.46Zm5.58,2.38a2.33,2.33,0,0,0,1.61,2,2.12,2.12,0,0,0,2.48-1.17,2.56,2.56,0,0,0-.43-2.88,2,2,0,0,0-2.15-.51l.17.39c.24.56.49,1.12.73,1.69a.31.31,0,0,1,0,.19.29.29,0,0,1-.29.25h-2.15ZM243,292.28l3,3.71,1.61-3.71Zm5.62,1.71-.58-1.32-1.54,3.55h.79A3.09,3.09,0,0,1,248.64,294Zm-.75,2.23h1.71l-.72-1.66A2.42,2.42,0,0,0,247.89,296.22Z" transform="translate(-159.12 -70.99)"/><path class="cls-18" d="M238.57,316.62c0-.06,0-.13,0-.19a3,3,0,0,1,.39-1.21,2.71,2.71,0,0,1,1.73-1.35,2.33,2.33,0,0,1,1.23,0s0,0,.05,0c.35-1,.69-2.09,1-3.14a.89.89,0,0,1,.69-.63h1.08v.61h-.94a.3.3,0,0,0-.31.24c-.1.31-.21.62-.31.93a.06.06,0,0,1,0,0h4.63a.05.05,0,0,0,.05,0l.23-.53,0,0h-.82a.28.28,0,0,1-.26-.2.31.31,0,0,1,.07-.33.24.24,0,0,1,.2-.08h2.11v.61h-.65a0,0,0,0,0-.05,0l-.37.85a0,0,0,0,0,0,0c.25.58.5,1.15.74,1.73l0,0,.25-.08a2.3,2.3,0,0,1,.94-.07,2.63,2.63,0,0,1,1.74.95,2.93,2.93,0,0,1,.68,1.47,3.13,3.13,0,0,1-.83,2.77,2.51,2.51,0,0,1-1.43.76l-.25,0h-.38c-.15,0-.3,0-.45-.08a2.67,2.67,0,0,1-1.5-1,3,3,0,0,1-.58-1.45.88.88,0,0,1,0-.17h-1.2a.29.29,0,0,1-.26-.13l-.48-.59-1.26-1.57L243,313.4l-.21-.26-.3.94h0a3,3,0,0,1,1.51,2.31,2.9,2.9,0,0,1-.05,1.06,2.94,2.94,0,0,1-1.24,1.89,2.52,2.52,0,0,1-1.1.42l-.18,0h-.35l-.42-.07a2.78,2.78,0,0,1-1.77-1.42,3.08,3.08,0,0,1-.35-1.14c0-.07,0-.14,0-.21Zm3.73-1.94s0,0,0,0l-.51,1.57-.18.56a.27.27,0,0,1-.34.19.31.31,0,0,1-.18-.41c.23-.7.47-1.41.7-2.12v0a2.16,2.16,0,0,0-2.54,1.61,2.44,2.44,0,0,0,1.36,3,2.13,2.13,0,0,0,2.76-1.41A2.46,2.46,0,0,0,242.3,314.68Zm5.58,2.38a2.33,2.33,0,0,0,1.61,2,2.12,2.12,0,0,0,2.48-1.17,2.56,2.56,0,0,0-.43-2.88,2,2,0,0,0-2.15-.51l.17.39c.24.56.49,1.12.73,1.69a.31.31,0,0,1,0,.19.29.29,0,0,1-.29.25h-2.15ZM243,312.5l3,3.71,1.61-3.71Zm5.62,1.71-.58-1.32-1.54,3.55h.79A3.09,3.09,0,0,1,248.64,314.21Zm-.75,2.23h1.71l-.72-1.66A2.42,2.42,0,0,0,247.89,316.44Z" transform="translate(-159.12 -70.99)"/><path class="cls-18" d="M238.2,343.45a1.23,1.23,0,0,0,0-.19,3.13,3.13,0,0,1,.39-1.21,2.73,2.73,0,0,1,1.73-1.35,2.48,2.48,0,0,1,1.24,0s0,0,0,0c.34-1,.68-2.09,1-3.14a.86.86,0,0,1,.68-.63h1.08v.61h-.93a.3.3,0,0,0-.32.24l-.3.93,0,.05h4.63s0,0,.05,0,.16-.35.23-.52l0-.05H247a.28.28,0,0,1-.26-.19.34.34,0,0,1,.07-.34.26.26,0,0,1,.2-.08h2.12v.61h-.66a0,0,0,0,0-.05,0c-.12.29-.24.57-.37.85v.06l.75,1.72v0l.26-.08a2.43,2.43,0,0,1,.93-.07,2.65,2.65,0,0,1,1.75.95,2.92,2.92,0,0,1,.67,1.47,3.08,3.08,0,0,1-.83,2.78,2.6,2.6,0,0,1-1.43.76l-.25,0h-.38c-.15,0-.3,0-.45-.08a2.77,2.77,0,0,1-1.5-1,3.24,3.24,0,0,1-.58-1.45c0-.06,0-.12,0-.17h-1.19a.32.32,0,0,1-.27-.13l-.48-.6-1.26-1.57-1.1-1.37-.2-.25-.31.93h0l0,0a2.94,2.94,0,0,1,1.51,2.3,3.2,3.2,0,0,1,0,1.07,3,3,0,0,1-1.25,1.88,2.47,2.47,0,0,1-1.1.42l-.18,0h-.34a3,3,0,0,1-.43-.07,2.78,2.78,0,0,1-1.77-1.42,3.16,3.16,0,0,1-.35-1.14,1.23,1.23,0,0,0,0-.2Zm3.73-1.94v0c-.17.52-.34,1.05-.52,1.57l-.18.56a.28.28,0,0,1-.34.2.31.31,0,0,1-.17-.41l.69-2.13v0a2.16,2.16,0,0,0-2.54,1.61,2.44,2.44,0,0,0,1.36,3,2.12,2.12,0,0,0,2.76-1.41A2.44,2.44,0,0,0,241.93,341.51Zm5.59,2.39a2.31,2.31,0,0,0,1.61,2,2.1,2.1,0,0,0,2.47-1.16,2.56,2.56,0,0,0-.43-2.89,2,2,0,0,0-2.15-.51c.06.13.12.26.17.39.25.56.49,1.13.74,1.69a.31.31,0,0,1,0,.19.28.28,0,0,1-.29.26h-2.14Zm-4.87-4.57,3,3.71,1.61-3.71Zm5.62,1.72-.58-1.33-1.54,3.56h.8A3,3,0,0,1,248.27,341.05Zm-.75,2.23h1.72l-.73-1.67A2.42,2.42,0,0,0,247.52,343.28Z" transform="translate(-159.12 -70.99)"/><path class="cls-18" d="M228.49,362.74l-.07-.18a3.22,3.22,0,0,1-.16-1.27,3.07,3.07,0,0,1,1-2.07,2.57,2.57,0,0,1,1.1-.62s0,0,0-.05c-.14-1.1-.27-2.21-.41-3.31a1,1,0,0,1,.34-.9l.09-.06.85-.48h0l.26.54,0,0-.79.45a.32.32,0,0,0-.18.37l.12,1a.11.11,0,0,0,0,.05l0,0,4.08-2.31s0,0,0-.06,0-.38,0-.58v-.05l0,0-.69.39a.24.24,0,0,1-.31,0,.31.31,0,0,1-.08-.33.24.24,0,0,1,.14-.17l1.85-1.05,0,0,.26.55h0l-.55.32s0,0,0,.05l0,.94a.08.08,0,0,0,0,0l1.38,1.15,0,0,.2-.2a2.69,2.69,0,0,1,.8-.54,2.54,2.54,0,0,1,1.95,0,2.68,2.68,0,0,1,1.22,1,3.14,3.14,0,0,1,.42,2.88,2.88,2.88,0,0,1-.94,1.39l-.21.16,0,0-.27.16h0c-.14.05-.29.12-.43.16a2.52,2.52,0,0,1-1.77-.17,2.69,2.69,0,0,1-1.12-1l-.1-.14,0,0-1,.57a.28.28,0,0,1-.29,0l-.67-.29-1.78-.76-1.55-.66-.29-.13.12,1h0a2.68,2.68,0,0,1,2.32,1.29,3,3,0,0,1,.4,1,3.22,3.22,0,0,1-.31,2.3,2.74,2.74,0,0,1-.8.92l-.15.11-.28.16h0a4,4,0,0,1-.4.15,2.51,2.51,0,0,1-2.17-.37,2.76,2.76,0,0,1-.79-.84s-.07-.11-.11-.17Zm2.49-3.6a.06.06,0,0,0,0,0c.06.55.13,1.1.2,1.65,0,.2.05.4.07.6a.3.3,0,0,1-.22.34c-.16,0-.3-.08-.32-.28-.1-.74-.19-1.49-.28-2.23v-.05a2.39,2.39,0,0,0-1.57,2.71,2.2,2.2,0,0,0,2.45,1.95,2.35,2.35,0,0,0,1.86-2.64A2.24,2.24,0,0,0,231,359.14Zm6-.69a2.09,2.09,0,0,0,2.28,1,2.35,2.35,0,0,0,1.71-2.28,2.38,2.38,0,0,0-1.6-2.35,2,2,0,0,0-2.12.62l.32.27,1.36,1.13a.25.25,0,0,1,.1.15.31.31,0,0,1-.15.38L237,358.43Zm-6.24-1.61,4.21,1.8-.13-4.11Zm5.71-1.3-1.07-.88.12,3.93.71-.4A3.27,3.27,0,0,1,236.42,355.54Zm.27,2.36,1.52-.86-1.34-1.12A2.62,2.62,0,0,0,236.69,357.9Z" transform="translate(-159.12 -70.99)"/><path class="cls-18" d="M210.28,343.84a1.62,1.62,0,0,0,0-.19,3.24,3.24,0,0,1,0-1.28,3,3,0,0,1,1.24-1.89,2.38,2.38,0,0,1,1.17-.43s0,0,0-.05c0-1.11,0-2.23,0-3.34a1,1,0,0,1,.46-.84l.09,0,.9-.34h0l.18.58h0l-.85.32a.32.32,0,0,0-.22.34c0,.33,0,.66,0,1v0h0l4.34-1.62a.09.09,0,0,0,0-.06c0-.19,0-.38.06-.57v-.06l0,0-.74.27a.24.24,0,0,1-.3-.09.32.32,0,0,1,0-.34.29.29,0,0,1,.16-.15l2-.73,0,0,.19.58,0,0-.59.21a.05.05,0,0,0,0,0c0,.31-.07.63-.1.94,0,0,0,0,0,.05.4.46.81.91,1.21,1.36l0,0,.22-.16a2.51,2.51,0,0,1,2.8-.12,2.71,2.71,0,0,1,1.07,1.15,3.14,3.14,0,0,1,0,2.92,2.66,2.66,0,0,1-1.12,1.22,1.67,1.67,0,0,1-.23.12l0,0-.29.11h0c-.15,0-.29.07-.45.09a2.54,2.54,0,0,1-1.72-.45,2.88,2.88,0,0,1-1-1.17l-.07-.15h0l-1.09.41a.3.3,0,0,1-.29,0l-.63-.39-1.65-1-1.45-.91-.27-.17,0,1h0a2.72,2.72,0,0,1,2.11,1.64,3,3,0,0,1,.27,1,3.09,3.09,0,0,1-.62,2.23,2.65,2.65,0,0,1-.91.79l-.16.08-.3.11h0a3.1,3.1,0,0,1-.42.08,2.53,2.53,0,0,1-2.1-.72,3,3,0,0,1-.67-.95,1.42,1.42,0,0,0-.08-.18Zm2.95-3.16v.05c0,.55,0,1.11,0,1.66,0,.2,0,.4,0,.6a.28.28,0,0,1-.26.3.29.29,0,0,1-.29-.32l0-2.26v0a2.31,2.31,0,0,0-1.92,2.42,2.18,2.18,0,1,0,4.36,0A2.32,2.32,0,0,0,213.23,340.68Zm6,.28a2.15,2.15,0,0,0,2.13,1.36,2.27,2.27,0,0,0,2-2,2.47,2.47,0,0,0-1.27-2.58,2,2,0,0,0-2.18.28l.28.31,1.19,1.34a.27.27,0,0,1,.08.17.29.29,0,0,1-.19.34l-2,.75Zm-5.95-2.6,3.93,2.46.42-4.08Zm5.82-.36-.94-1.05-.4,3.91.75-.28A3.27,3.27,0,0,1,219.09,338Zm0,2.37,1.62-.6-1.18-1.32A2.55,2.55,0,0,0,219.05,340.37Z" transform="translate(-159.12 -70.99)"/><path class="cls-18" d="M207.58,317.89a1.42,1.42,0,0,0,0-.2,3.25,3.25,0,0,1,0-1.28,3,3,0,0,1,1.23-1.89,2.42,2.42,0,0,1,1.17-.43s0,0,0,0c0-1.11,0-2.23,0-3.34a1,1,0,0,1,.46-.84l.09,0,.91-.34h0l.18.57,0,0-.84.32a.32.32,0,0,0-.23.34c0,.33,0,.66,0,1v0h0l4.34-1.63s0,0,0-.05l.06-.58v-.05h0l-.73.28a.28.28,0,0,1-.31-.09.34.34,0,0,1,0-.35.25.25,0,0,1,.16-.14l2-.74,0,0,.18.58,0,0-.59.22s0,0,0,0c0,.32-.07.63-.1.94a.08.08,0,0,0,0,.05c.4.46.81.91,1.22,1.36l0,0,.21-.16a2.67,2.67,0,0,1,.87-.41,2.48,2.48,0,0,1,1.93.29,2.65,2.65,0,0,1,1.08,1.14,3.17,3.17,0,0,1,0,2.92,2.68,2.68,0,0,1-1.12,1.23l-.23.12,0,0-.29.11h0a3.4,3.4,0,0,1-.46.09,2.48,2.48,0,0,1-1.72-.44,2.88,2.88,0,0,1-1-1.17l-.07-.15h0l-1.09.41a.3.3,0,0,1-.29,0l-.63-.39-1.66-1-1.45-.91-.27-.17v1h.05a2.75,2.75,0,0,1,2.11,1.65,3,3,0,0,1,.27,1,3.14,3.14,0,0,1-.61,2.23,2.55,2.55,0,0,1-.92.78l-.16.09L211,320h0a3.1,3.1,0,0,1-.42.08,2.53,2.53,0,0,1-2.09-.71,2.82,2.82,0,0,1-.67-1,1.42,1.42,0,0,1-.08-.18Zm2.95-3.17v0c0,.56,0,1.12,0,1.67,0,.2,0,.4,0,.6a.28.28,0,0,1-.26.3A.29.29,0,0,1,210,317l0-2.26v0a2.31,2.31,0,0,0-1.92,2.42,2.18,2.18,0,1,0,4.36,0A2.32,2.32,0,0,0,210.53,314.72Zm6,.27a2.15,2.15,0,0,0,2.13,1.36,2.25,2.25,0,0,0,2-2,2.43,2.43,0,0,0-1.26-2.57,2,2,0,0,0-2.19.28,4.12,4.12,0,0,1,.28.31l1.2,1.34a.31.31,0,0,1-.12.51l-2,.75Zm-6-2.59,3.93,2.46.42-4.09Zm5.83-.37-.94-1-.4,3.9.75-.28A3.23,3.23,0,0,1,216.39,312Zm0,2.37,1.61-.61-1.17-1.31A2.55,2.55,0,0,0,216.35,314.4Z" transform="translate(-159.12 -70.99)"/><path class="cls-18" d="M189.13,303l0-.2a3.07,3.07,0,0,1,0-1.28,3,3,0,0,1,1.27-1.86,2.63,2.63,0,0,1,1.18-.4s0,0,0,0l.12-3.34a.94.94,0,0,1,.48-.82l.09,0,.91-.31h0l.16.58,0,0-.85.29a.31.31,0,0,0-.23.33c0,.33,0,.66,0,1v.05l0,0,4.38-1.5a.07.07,0,0,0,0,0c0-.2.05-.39.07-.58,0,0,0,0,0,0h-.05L196,295a.27.27,0,0,1-.31-.1.34.34,0,0,1,0-.35.28.28,0,0,1,.16-.14l2-.68,0,0,.17.59h0l-.6.2a0,0,0,0,0,0,.05l-.12.94a.11.11,0,0,0,0,.05l1.19,1.39,0,0,.22-.16a2.59,2.59,0,0,1,.87-.38,2.53,2.53,0,0,1,1.93.34,2.74,2.74,0,0,1,1.05,1.18,3.2,3.2,0,0,1,0,2.92,2.76,2.76,0,0,1-1.15,1.19l-.23.11,0,0-.29.1h0a3.5,3.5,0,0,1-.45.07,2.53,2.53,0,0,1-1.71-.49,2.79,2.79,0,0,1-1-1.19.77.77,0,0,1-.07-.16l-.05,0-1.09.38a.33.33,0,0,1-.29,0l-.62-.41-1.63-1.08-1.43-.95-.27-.17,0,1h0a2.76,2.76,0,0,1,2.07,1.7,3.05,3.05,0,0,1,.25,1,3.15,3.15,0,0,1-.67,2.21,2.71,2.71,0,0,1-.93.76l-.17.08-.29.1h0c-.14,0-.28.06-.42.07a2.54,2.54,0,0,1-2.08-.77,3,3,0,0,1-.65-1l-.07-.19Zm3-3.09v.05l-.06,1.66c0,.2,0,.4,0,.6a.29.29,0,0,1-.27.3.3.3,0,0,1-.28-.34c0-.75.06-1.5.08-2.25v0a2.32,2.32,0,0,0-2,2.38,2.3,2.3,0,0,0,2.12,2.38,2.26,2.26,0,0,0,2.24-2.25A2.32,2.32,0,0,0,192.15,299.88Zm6,.44a2.16,2.16,0,0,0,2.09,1.42,2.25,2.25,0,0,0,2-1.93,2.46,2.46,0,0,0-1.2-2.61,2,2,0,0,0-2.19.22l.27.32c.39.45.77.91,1.16,1.37a.32.32,0,0,1-.12.51l-2,.69Zm-5.9-2.75,3.87,2.56.52-4.07Zm5.83-.21-.92-1.07-.49,3.89.76-.26A3.28,3.28,0,0,1,198.07,297.36Zm-.1,2.37,1.64-.56-1.15-1.35A2.57,2.57,0,0,0,198,299.73Z" transform="translate(-159.12 -70.99)"/><path class="cls-18" d="M210.23,288.55c0-.07,0-.13,0-.2a3.19,3.19,0,0,1,.39-1.21,2.74,2.74,0,0,1,1.73-1.35,2.44,2.44,0,0,1,1.23,0s0,0,.05,0c.35-1,.69-2.09,1-3.14a.89.89,0,0,1,.69-.63h1.08v.61h-.94a.3.3,0,0,0-.31.24c-.1.31-.2.62-.31.94a.08.08,0,0,1,0,0h4.63s0,0,.05,0,.15-.35.23-.52l0-.05H219a.28.28,0,0,1-.26-.19.32.32,0,0,1,.07-.34.24.24,0,0,1,.2-.08h2.11v.61h-.65a0,0,0,0,0-.05,0c-.12.29-.25.57-.37.86a0,0,0,0,0,0,.05l.75,1.72v0l.25-.08a2.48,2.48,0,0,1,.94-.07,2.64,2.64,0,0,1,1.75,1,2.93,2.93,0,0,1,.67,1.46,3.14,3.14,0,0,1-.83,2.78,2.6,2.6,0,0,1-1.43.76l-.25,0h-.38c-.15,0-.3,0-.45-.08a2.65,2.65,0,0,1-1.5-1,3.13,3.13,0,0,1-.58-1.45c0-.06,0-.11,0-.17h-1.2a.32.32,0,0,1-.26-.13l-.48-.6-1.26-1.56-1.1-1.38-.21-.25-.3.93h0l0,0a3,3,0,0,1,1.51,2.31,2.91,2.91,0,0,1-.05,1.06,3,3,0,0,1-1.24,1.89,2.63,2.63,0,0,1-1.1.41l-.18,0h-.35a3.07,3.07,0,0,1-.42-.07,2.78,2.78,0,0,1-1.77-1.42,3,3,0,0,1-.35-1.14c0-.07,0-.13,0-.2ZM214,286.6l0,0-.51,1.57-.18.56a.28.28,0,0,1-.34.2.31.31,0,0,1-.18-.41c.23-.71.47-1.42.7-2.13v0A2.16,2.16,0,0,0,210.9,288a2.44,2.44,0,0,0,1.36,3,2.13,2.13,0,0,0,2.76-1.41A2.47,2.47,0,0,0,214,286.6Zm5.58,2.39a2.35,2.35,0,0,0,1.61,2,2.13,2.13,0,0,0,2.48-1.17,2.58,2.58,0,0,0-.43-2.89,2,2,0,0,0-2.15-.51l.17.39.73,1.69a.31.31,0,0,1,0,.19.29.29,0,0,1-.29.26h-2.15Zm-4.86-4.57,3,3.72,1.61-3.72Zm5.62,1.72-.58-1.33-1.54,3.56H219A3.06,3.06,0,0,1,220.3,286.14Zm-.75,2.23h1.71l-.72-1.67A2.46,2.46,0,0,0,219.55,288.37Z" transform="translate(-159.12 -70.99)"/><path class="cls-18" d="M186.16,269.86a1.23,1.23,0,0,1,0-.19,3,3,0,0,1,.39-1.21,2.69,2.69,0,0,1,1.72-1.35,2.37,2.37,0,0,1,1.24,0s0,0,.05,0c.34-1.05.69-2.09,1-3.14a.89.89,0,0,1,.68-.63h1.09v.61h-.94a.29.29,0,0,0-.31.24c-.11.31-.21.62-.31.93,0,0,0,0,0,.05h4.63a.05.05,0,0,0,.05,0c.07-.18.15-.35.23-.52,0,0,0,0,0-.05h-.82a.28.28,0,0,1-.26-.19.3.3,0,0,1,.07-.34.24.24,0,0,1,.19-.08H197v.61h-.66s0,0,0,0c-.13.28-.25.57-.37.85a.06.06,0,0,0,0,.06c.24.57.49,1.14.74,1.72v0l.26-.08a2.48,2.48,0,0,1,.94-.07,2.63,2.63,0,0,1,1.74.95,2.93,2.93,0,0,1,.68,1.47,3.11,3.11,0,0,1-.84,2.77,2.56,2.56,0,0,1-1.42.77l-.25,0h-.38c-.15,0-.31,0-.45-.08a2.7,2.7,0,0,1-1.5-1,3,3,0,0,1-.58-1.45,1.1,1.1,0,0,1,0-.18h-1.2a.37.37,0,0,1-.27-.13l-.47-.6L191.7,268c-.37-.46-.74-.91-1.1-1.37l-.21-.26-.31.94h0l0,0a3,3,0,0,1,1.51,2.3,3.14,3.14,0,0,1,0,1.06,3,3,0,0,1-1.25,1.89,2.44,2.44,0,0,1-1.09.42l-.18,0h-.35l-.42-.07a2.75,2.75,0,0,1-1.77-1.42,3,3,0,0,1-.35-1.14,1.5,1.5,0,0,1,0-.2Zm3.73-1.94,0,0-.51,1.57c-.06.19-.12.37-.19.56a.27.27,0,0,1-.33.2.32.32,0,0,1-.18-.42c.23-.7.46-1.41.7-2.12v0a2.15,2.15,0,0,0-2.54,1.61,2.43,2.43,0,0,0,1.36,3,2.13,2.13,0,0,0,2.76-1.41A2.46,2.46,0,0,0,189.89,267.92Zm5.58,2.38a2.31,2.31,0,0,0,1.61,2,2.12,2.12,0,0,0,2.48-1.17,2.55,2.55,0,0,0-.44-2.88,2,2,0,0,0-2.14-.51c.05.13.11.26.17.39l.73,1.69a.31.31,0,0,1,0,.19.29.29,0,0,1-.29.25h-2.15Zm-4.86-4.56,3,3.71,1.61-3.71Zm5.61,1.71-.58-1.32-1.53,3.55h.79A3.11,3.11,0,0,1,196.22,267.45Zm-.74,2.23h1.71l-.72-1.66A2.42,2.42,0,0,0,195.48,269.68Z" transform="translate(-159.12 -70.99)"/><path class="cls-18" d="M187,237.56c0-.07,0-.13,0-.2a3.14,3.14,0,0,1,.39-1.2,2.76,2.76,0,0,1,1.73-1.36,2.44,2.44,0,0,1,1.23,0s0,0,0,0c.35-1.05.69-2.1,1-3.14a.86.86,0,0,1,.68-.63h1.08v.61h-.94a.29.29,0,0,0-.31.24c-.1.31-.2.62-.31.93a.08.08,0,0,1,0,0h4.63s0,0,0,0l.23-.53s0,0,0,0h-.82a.27.27,0,0,1-.26-.19.33.33,0,0,1,.07-.34.28.28,0,0,1,.2-.08h2.12v.62h-.66s0,0-.05,0l-.37.85a0,0,0,0,0,0,.05l.75,1.72v0l.25-.08a2.49,2.49,0,0,1,.94-.08,2.64,2.64,0,0,1,1.75,1,3,3,0,0,1,.67,1.47,3.13,3.13,0,0,1-.83,2.77,2.48,2.48,0,0,1-1.43.76,2.13,2.13,0,0,1-.25,0h-.38a3.5,3.5,0,0,1-.45-.07,2.67,2.67,0,0,1-1.5-1,3.09,3.09,0,0,1-.58-1.45s0-.11,0-.17h-1.2a.32.32,0,0,1-.26-.13l-.48-.59-1.26-1.57c-.37-.46-.73-.92-1.1-1.37l-.21-.26-.3.94h0l0,0a3,3,0,0,1,1.51,2.31,2.9,2.9,0,0,1-.05,1.06,2.94,2.94,0,0,1-1.24,1.89,2.52,2.52,0,0,1-1.1.42l-.18,0h-.35l-.42-.06a2.76,2.76,0,0,1-1.77-1.43,3.17,3.17,0,0,1-.35-1.13c0-.07,0-.14,0-.21Zm3.73-1.95a.09.09,0,0,0,0,0c-.18.52-.35,1-.52,1.57l-.18.56a.27.27,0,0,1-.34.19.31.31,0,0,1-.18-.41c.23-.71.47-1.41.7-2.12v0a2.17,2.17,0,0,0-2.54,1.62,2.44,2.44,0,0,0,1.36,3,2.14,2.14,0,0,0,2.76-1.42A2.47,2.47,0,0,0,190.72,235.61ZM196.3,238a2.33,2.33,0,0,0,1.61,2,2.12,2.12,0,0,0,2.48-1.17A2.56,2.56,0,0,0,200,236a2,2,0,0,0-2.15-.52c.06.13.11.26.17.4.24.56.49,1.12.73,1.69a.3.3,0,0,1-.26.44H196.3Zm-4.86-4.57,3,3.72,1.61-3.72Zm5.62,1.72-.58-1.32-1.54,3.55h.79A3.09,3.09,0,0,1,197.06,235.15Zm-.75,2.23H198l-.72-1.66A2.42,2.42,0,0,0,196.31,237.38Z" transform="translate(-159.12 -70.99)"/><path class="cls-18" d="M199.72,207.4l.06-.18a2.73,2.73,0,0,1,.63-1.08,2.61,2.61,0,0,1,2-.9,2.55,2.55,0,0,1,1.2.31s0,0,.06,0l1.65-2.81a.84.84,0,0,1,.79-.45l.11,0,.92.23h0l-.13.59h0l-.87-.22a.28.28,0,0,0-.35.16l-.49.83s0,0,0,0h0l4.46,1.13s.05,0,.06,0l.34-.45s0,0,0,0h0l-.76-.19a.3.3,0,0,1-.21-.25.31.31,0,0,1,.14-.31.25.25,0,0,1,.21,0l2,.51h0l-.12.6h0l-.61-.16a.06.06,0,0,0-.05,0l-.53.74a.17.17,0,0,0,0,.05c.13.62.25,1.24.38,1.87v0h.27a2.45,2.45,0,0,1,.93.15,2.78,2.78,0,0,1,1.5,1.37,3.16,3.16,0,0,1-1,4.09,2.42,2.42,0,0,1-1.55.39l-.25,0h0l-.3-.08h0l-.42-.19a2.86,2.86,0,0,1-1.25-1.38,3.16,3.16,0,0,1-.26-1.55c0-.06,0-.12,0-.17l0,0-1.12-.28a.32.32,0,0,1-.23-.19c-.12-.23-.23-.46-.35-.7l-.9-1.84-.79-1.6-.15-.3-.49.83h0l0,0a3.09,3.09,0,0,1,1,2.62,3.19,3.19,0,0,1-.26,1,2.81,2.81,0,0,1-1.61,1.53,2.38,2.38,0,0,1-1.15.14l-.18,0-.31-.08h0c-.13-.06-.27-.1-.39-.17a2.94,2.94,0,0,1-1.44-1.82,3.23,3.23,0,0,1-.1-1.2,1.23,1.23,0,0,1,0-.2Zm4-1a.05.05,0,0,1,0,0l-.82,1.4-.3.51a.26.26,0,0,1-.37.1.32.32,0,0,1-.09-.44c.38-.63.75-1.27,1.12-1.9l0,0a2.09,2.09,0,0,0-2.81.95,2.52,2.52,0,0,0,.72,3.23,2.07,2.07,0,0,0,3-.7A2.53,2.53,0,0,0,203.75,206.42Zm4.95,3.71a2.45,2.45,0,0,0,1.15,2.38,2.06,2.06,0,0,0,2.65-.53,2.58,2.58,0,0,0,.18-2.92,2.11,2.11,0,0,0-2-1l.09.43.36,1.83a.31.31,0,0,1,0,.19.29.29,0,0,1-.34.18l-2-.52Zm-3.8-5.65,2.15,4.35,2.33-3.22Zm5.12,3.06-.29-1.44-2.23,3.09.77.19A2.91,2.91,0,0,1,210,207.54Zm-1.18,2,1.67.42-.37-1.79A2.29,2.29,0,0,0,208.84,209.52Z" transform="translate(-159.12 -70.99)"/><path class="cls-18" d="M210.73,187.58a1.42,1.42,0,0,1,.08-.18,3,3,0,0,1,.71-1,2.58,2.58,0,0,1,3.21-.25s0,0,.05,0l1.89-2.62a.81.81,0,0,1,.83-.37l.1,0,.91.33h0l-.18.58,0,0-.84-.31a.28.28,0,0,0-.37.12l-.56.78,0,0h0l4.35,1.59s0,0,.06,0l.37-.42s0,0,0,0l-.05,0-.73-.27a.29.29,0,0,1-.2-.27.36.36,0,0,1,.17-.3.26.26,0,0,1,.21,0l2,.72h0l-.18.58h0l-.59-.22s0,0-.06,0l-.59.68a.08.08,0,0,0,0,.05l.21,1.89v0h.27a2.42,2.42,0,0,1,.91.25,2.88,2.88,0,0,1,1.38,1.51,3.13,3.13,0,0,1,.21,1.63,2.91,2.91,0,0,1-1.59,2.34,2.41,2.41,0,0,1-1.58.23l-.24-.06h0l-.29-.11,0,0a3.3,3.3,0,0,1-.41-.23,2.89,2.89,0,0,1-1.12-1.5,3.25,3.25,0,0,1-.13-1.58l0-.16,0,0-1.09-.4a.31.31,0,0,1-.22-.21c-.09-.25-.18-.49-.28-.73-.24-.64-.49-1.28-.74-1.93s-.43-1.12-.65-1.68c0-.1-.07-.2-.12-.31l-.56.78h0l0,0a3.22,3.22,0,0,1,.42,3.7,2.78,2.78,0,0,1-1.73,1.36,2.57,2.57,0,0,1-1.17,0l-.17,0-.3-.11,0,0c-.13-.07-.26-.13-.38-.21a3,3,0,0,1-1.27-2,3.23,3.23,0,0,1,0-1.2c0-.07,0-.14,0-.2Zm4.1-.55,0,0-.95,1.31c-.11.16-.22.32-.34.47a.25.25,0,0,1-.37.07.32.32,0,0,1-.05-.45l1.28-1.78,0,0a2.07,2.07,0,0,0-2.88.65,2.53,2.53,0,0,0,.43,3.29,2.06,2.06,0,0,0,3-.39A2.51,2.51,0,0,0,214.83,187Zm4.61,4.2a2.46,2.46,0,0,0,.93,2.48,2,2,0,0,0,2.69-.25,2.55,2.55,0,0,0,.42-2.88,2.11,2.11,0,0,0-1.88-1.23c0,.14,0,.29,0,.43l.21,1.86a.28.28,0,0,1,0,.18.27.27,0,0,1-.35.15l-2-.73Zm-3.29-6,1.75,4.56,2.61-3Zm4.83,3.57-.17-1.45-2.49,2.83.75.28A2.87,2.87,0,0,1,221,188.78Zm-1.36,1.86,1.63.59L221,189.4A2.29,2.29,0,0,0,219.62,190.64Z" transform="translate(-159.12 -70.99)"/><path class="cls-18" d="M265.32,321.5c0-.07,0-.14,0-.2a3,3,0,0,1,.39-1.21,2.71,2.71,0,0,1,1.73-1.35,2.44,2.44,0,0,1,1.23,0s0,0,.05,0c.35-1,.69-2.09,1-3.14a.89.89,0,0,1,.69-.63h1.08v.61h-.94a.3.3,0,0,0-.31.24c-.1.31-.21.62-.31.94a.08.08,0,0,1,0,0h4.63a.05.05,0,0,0,0,0c.08-.17.15-.35.23-.52l0-.05h-.82a.28.28,0,0,1-.26-.19.32.32,0,0,1,.07-.34.24.24,0,0,1,.2-.08h2.11v.61h-.65a0,0,0,0,0-.05,0c-.12.29-.25.57-.37.85a.06.06,0,0,0,0,.06c.25.57.5,1.15.74,1.72l0,0,.25-.08a2.48,2.48,0,0,1,.94-.07,2.63,2.63,0,0,1,1.74.95,2.93,2.93,0,0,1,.68,1.47,3.14,3.14,0,0,1-.83,2.78,2.64,2.64,0,0,1-1.43.76l-.25,0h-.38c-.15,0-.3,0-.45-.08a2.65,2.65,0,0,1-1.5-1,3,3,0,0,1-.58-1.45,1,1,0,0,1,0-.17h-1.2a.3.3,0,0,1-.26-.13l-.48-.6-1.26-1.57c-.37-.45-.73-.91-1.1-1.37l-.21-.25-.3.93h0l0,0a3.13,3.13,0,0,1,1.46,3.37,3,3,0,0,1-1.24,1.89,2.63,2.63,0,0,1-1.1.41l-.18,0h-.35a3.07,3.07,0,0,1-.42-.07,2.78,2.78,0,0,1-1.77-1.42,3,3,0,0,1-.35-1.14c0-.07,0-.13,0-.2Zm3.73-1.95s0,0,0,0l-.51,1.57-.18.56a.28.28,0,0,1-.34.2.31.31,0,0,1-.18-.41c.23-.71.47-1.42.7-2.13v0A2.16,2.16,0,0,0,266,321a2.44,2.44,0,0,0,1.36,3,2.13,2.13,0,0,0,2.76-1.41A2.47,2.47,0,0,0,269.05,319.55Zm5.58,2.39a2.33,2.33,0,0,0,1.61,2,2.11,2.11,0,0,0,2.48-1.16,2.58,2.58,0,0,0-.43-2.89,2,2,0,0,0-2.15-.51l.17.39.73,1.69a.31.31,0,0,1,0,.19.29.29,0,0,1-.29.26h-2.15Zm-4.86-4.57,3,3.72,1.62-3.72Zm5.62,1.72-.58-1.33-1.54,3.56h.79A3.06,3.06,0,0,1,275.39,319.09Zm-.75,2.23h1.71l-.72-1.67A2.46,2.46,0,0,0,274.64,321.32Z" transform="translate(-159.12 -70.99)"/><path class="cls-18" d="M263.93,348.33l0-.2a3,3,0,0,1,.38-1.21,2.77,2.77,0,0,1,1.73-1.35,2.37,2.37,0,0,1,1.24,0s0,0,.05,0c.34-1.05.68-2.1,1-3.15a.89.89,0,0,1,.68-.63h1.08v.61h-.93a.29.29,0,0,0-.31.24c-.11.32-.21.63-.31.94,0,0,0,0,0,0h4.62s0,0,.06,0,.15-.35.23-.52a.43.43,0,0,0,0,0h-.82a.28.28,0,0,1-.26-.19.35.35,0,0,1,.07-.34.27.27,0,0,1,.2-.08h2.12V343h-.66a.05.05,0,0,0-.05,0c-.12.29-.24.57-.37.86v.05l.75,1.72v0l.26-.08a2.3,2.3,0,0,1,.94-.08,2.6,2.6,0,0,1,1.74,1,3,3,0,0,1,.68,1.46,3.12,3.12,0,0,1-.84,2.78,2.54,2.54,0,0,1-1.43.76l-.25,0h-.37a3.4,3.4,0,0,1-.46-.08,2.61,2.61,0,0,1-1.49-1,3.1,3.1,0,0,1-.59-1.45,1,1,0,0,0,0-.17h-1.19a.32.32,0,0,1-.27-.13c-.15-.2-.31-.4-.47-.59l-1.26-1.57-1.11-1.38-.2-.25-.31.93h0l0,0a3,3,0,0,1,1.51,2.31,3.15,3.15,0,0,1,0,1.06,3,3,0,0,1-1.25,1.89,2.6,2.6,0,0,1-1.1.42l-.18,0h-.34a2.83,2.83,0,0,1-.42-.07,2.7,2.7,0,0,1-1.77-1.42,2.81,2.81,0,0,1-.35-1.14l0-.2Zm3.74-1.95,0,0-.51,1.57c-.07.19-.13.38-.19.56a.27.27,0,0,1-.34.2.31.31,0,0,1-.17-.41l.69-2.13,0,0a2.15,2.15,0,0,0-2.54,1.61,2.43,2.43,0,0,0,1.36,3,2.13,2.13,0,0,0,2.76-1.41A2.47,2.47,0,0,0,267.67,346.38Zm5.58,2.39a2.33,2.33,0,0,0,1.61,2,2.1,2.1,0,0,0,2.47-1.17,2.53,2.53,0,0,0-.43-2.88,2,2,0,0,0-2.15-.52c.06.13.12.26.17.39.25.57.49,1.13.74,1.69a.4.4,0,0,1,0,.19.29.29,0,0,1-.29.26h-2.15Zm-4.87-4.57,3,3.72L273,344.2Zm5.62,1.72-.58-1.32-1.54,3.55h.8A3,3,0,0,1,274,345.92Zm-.74,2.23H275l-.72-1.66A2.42,2.42,0,0,0,273.26,348.15Z" transform="translate(-159.12 -70.99)"/><path class="cls-18" d="M278.73,353.46l.15-.11a2.33,2.33,0,0,1,1.08-.5,2.5,2.5,0,0,1,2.07.48,2.79,2.79,0,0,1,.83,1s0,0,.06,0l2.82-1.28a.79.79,0,0,1,.88.12l.08.08.64.77,0,0-.41.41,0,0-.6-.71a.28.28,0,0,0-.38-.09l-.84.38,0,0,0,0,3.09,3.7s0,0,.06,0l.51-.17h0l0,0-.52-.63a.32.32,0,0,1-.05-.34.28.28,0,0,1,.28-.17.31.31,0,0,1,.19.11l1.4,1.68,0,0-.41.41,0,0c-.14-.17-.28-.33-.41-.5,0,0,0,0-.06,0l-.82.28s0,0,0,0l-.66,1.77v0l.23.15a3.06,3.06,0,0,1,.68.71,3.15,3.15,0,0,1,.53,2.06,3,3,0,0,1-.54,1.53,2.6,2.6,0,0,1-2.43,1.2,2.57,2.57,0,0,1-1.48-.64l-.19-.19,0,0-.21-.25,0,0c-.08-.14-.18-.27-.25-.42a3.18,3.18,0,0,1-.31-1.9,3.1,3.1,0,0,1,.59-1.45,1.47,1.47,0,0,1,.1-.13l0,0-.77-.93a.36.36,0,0,1-.1-.3c0-.26.06-.52.08-.78.08-.7.15-1.39.22-2.08l.18-1.82c0-.11,0-.22,0-.33l-.84.38h0v0a3.23,3.23,0,0,1-.54,2.78,2.66,2.66,0,0,1-.75.67,2.49,2.49,0,0,1-2.12.27,2.65,2.65,0,0,1-1-.6l-.14-.13-.21-.26,0,0c-.08-.13-.17-.25-.24-.38a3.25,3.25,0,0,1-.23-2.39,2.91,2.91,0,0,1,.54-1l.12-.16Zm3.83,1.7,0,0-1.41.64-.5.23a.26.26,0,0,1-.36-.14.32.32,0,0,1,.16-.42l1.9-.87,0,0a2.09,2.09,0,0,0-2.8-1,2.47,2.47,0,0,0-1.09,3.1,2.11,2.11,0,0,0,2.81,1.28A2.44,2.44,0,0,0,282.56,355.16Zm2.15,6.12a2.53,2.53,0,0,0-.29,2.67,2.12,2.12,0,0,0,2.45,1.22,2.46,2.46,0,0,0,.56-4.38l-.15.41c-.21.57-.43,1.15-.65,1.73a.31.31,0,0,1-.1.15.27.27,0,0,1-.37-.06l-1.42-1.7Zm-.19-7-.5,4.91,3.6-1.2Zm2.62,5.69.51-1.36-3.44,1.15.53.64A2.57,2.57,0,0,1,287.14,360Zm-2,.9,1.16,1.38.63-1.7A2.06,2.06,0,0,0,285.13,360.87Z" transform="translate(-159.12 -70.99)"/><path class="cls-18" d="M293.69,338l.1-.17a2.66,2.66,0,0,1,.82-.91,2.53,2.53,0,0,1,2.09-.43,2.58,2.58,0,0,1,1.11.58s0,0,.06,0l2.16-2.37a.8.8,0,0,1,.86-.26l.09,0,.87.44h0l-.24.56,0,0-.8-.41a.29.29,0,0,0-.38.08l-.64.7,0,0,0,0,4.15,2.13a.06.06,0,0,0,.07,0c.13-.13.27-.25.41-.37l0,0,0,0c-.23-.12-.47-.23-.7-.36a.29.29,0,0,1-.16-.29.29.29,0,0,1,.19-.27.25.25,0,0,1,.21,0l1.89,1h0l-.23.56,0,0-.56-.29a0,0,0,0,0-.06,0l-.66.6a.08.08,0,0,0,0,.05c0,.64,0,1.27,0,1.91v0l.26.05a2.41,2.41,0,0,1,.88.36,3,3,0,0,1,1.21,1.68,3,3,0,0,1,0,1.64,2.85,2.85,0,0,1-1.83,2.13,2.47,2.47,0,0,1-1.59,0l-.24-.09h0l-.28-.14,0,0c-.13-.09-.26-.17-.38-.27a3,3,0,0,1-.95-1.64,3.25,3.25,0,0,1,0-1.58c0-.05,0-.11.05-.16l0,0-1-.54a.3.3,0,0,1-.19-.24l-.21-.75c-.17-.67-.35-1.34-.53-2s-.31-1.17-.47-1.75c0-.11,0-.22-.08-.33l-.64.7h0l0,0a3.18,3.18,0,0,1,.48,2.79,3.14,3.14,0,0,1-.45.94,2.7,2.7,0,0,1-1.87,1.13,2.37,2.37,0,0,1-1.15-.13l-.17-.06-.29-.14,0,0c-.11-.08-.24-.16-.35-.25a3.07,3.07,0,0,1-1.05-2.11,3,3,0,0,1,.12-1.19l.06-.2Zm4.14,0,0,0-1.08,1.18-.38.42a.25.25,0,0,1-.38,0,.31.31,0,0,1,0-.45l1.45-1.6,0,0a2,2,0,0,0-2.93.28,2.55,2.55,0,0,0,.08,3.32,2,2,0,0,0,3.05,0A2.54,2.54,0,0,0,297.83,337.92Zm4.13,4.75a2.5,2.5,0,0,0,.67,2.59,2,2,0,0,0,2.69.09,2.53,2.53,0,0,0,.73-2.81,2.19,2.19,0,0,0-1.75-1.46c0,.15,0,.29,0,.43v1.88a.3.3,0,0,1,0,.18.27.27,0,0,1-.36.1l-1.91-1Zm-2.64-6.39,1.27,4.75,2.9-2.62Zm4.43,4.16,0-1.47L301,341.48l.72.37A2.78,2.78,0,0,1,303.75,340.44Zm-1.54,1.67,1.55.8v-1.84A2.16,2.16,0,0,0,302.21,342.11Z" transform="translate(-159.12 -70.99)"/><path class="cls-18" d="M262.72,214.07a1.23,1.23,0,0,0,0-.19,3.13,3.13,0,0,1,.39-1.21,2.78,2.78,0,0,1,1.73-1.36,2.48,2.48,0,0,1,1.24,0s0,0,0,0c.34-1,.68-2.1,1-3.14a.86.86,0,0,1,.68-.63h1.08v.61H268a.3.3,0,0,0-.32.24l-.3.93,0,0H272s0,0,.05,0c.08-.18.16-.35.23-.53,0,0,0,0,0,0h-.82a.28.28,0,0,1-.26-.2.35.35,0,0,1,.07-.34.3.3,0,0,1,.2-.08h2.12v.62H273s0,0-.05,0c-.12.28-.24.57-.37.85v0l.75,1.73v0l.26-.08a2.43,2.43,0,0,1,.93-.08,2.7,2.7,0,0,1,1.75,1,2.92,2.92,0,0,1,.67,1.47,3.07,3.07,0,0,1-.83,2.77,2.48,2.48,0,0,1-1.43.76l-.25,0H274c-.15,0-.3,0-.45-.08a2.73,2.73,0,0,1-1.5-1,3.2,3.2,0,0,1-.58-1.45c0-.05,0-.11,0-.17h-1.19a.32.32,0,0,1-.27-.13l-.48-.59-1.26-1.57c-.36-.46-.73-.91-1.1-1.37l-.2-.26-.31.94h0l0,0a3,3,0,0,1,1.51,2.31,3.14,3.14,0,0,1,0,1.06,3,3,0,0,1-1.25,1.89,2.47,2.47,0,0,1-1.1.42l-.18,0h-.34l-.43-.07a2.78,2.78,0,0,1-1.77-1.42,3.28,3.28,0,0,1-.35-1.14,1.49,1.49,0,0,0,0-.21Zm3.73-1.95s0,0,0,0c-.17.52-.35,1-.52,1.57l-.18.56a.26.26,0,0,1-.34.19.3.3,0,0,1-.17-.41l.69-2.12v0a2.16,2.16,0,0,0-2.54,1.61,2.44,2.44,0,0,0,1.36,3,2.13,2.13,0,0,0,2.76-1.41A2.45,2.45,0,0,0,266.45,212.12Zm5.59,2.39a2.31,2.31,0,0,0,1.61,2,2.11,2.11,0,0,0,2.47-1.17,2.55,2.55,0,0,0-.43-2.88,2,2,0,0,0-2.15-.52c.06.14.12.27.17.4.25.56.49,1.12.74,1.69a.31.31,0,0,1,0,.19.28.28,0,0,1-.29.25H272ZM267.17,210l3,3.71,1.61-3.71Zm5.62,1.71-.58-1.32-1.54,3.55h.8A3.08,3.08,0,0,1,272.79,211.66Zm-.75,2.23h1.72l-.73-1.66A2.42,2.42,0,0,0,272,213.89Z" transform="translate(-159.12 -70.99)"/><path class="cls-18" d="M282.63,206.81a1.36,1.36,0,0,0,0-.2,3.19,3.19,0,0,1,.39-1.21,2.8,2.8,0,0,1,1.73-1.35,2.48,2.48,0,0,1,1.24,0s0,0,.05,0c.34-1.05.68-2.1,1-3.14a.87.87,0,0,1,.68-.63h1.08v.61h-.93a.3.3,0,0,0-.32.25l-.3.93s0,0,0,0h4.62s0,0,.06,0,.15-.35.22-.53a.08.08,0,0,0,0,0h-.82a.27.27,0,0,1-.26-.19.35.35,0,0,1,.07-.34.32.32,0,0,1,.2-.08h2.12v.61h-.66a.05.05,0,0,0-.05,0l-.37.85v.05l.75,1.72v0l.26-.08a2.45,2.45,0,0,1,.93-.08,2.6,2.6,0,0,1,1.75,1,3,3,0,0,1,.68,1.47,3.11,3.11,0,0,1-.84,2.77,2.48,2.48,0,0,1-1.43.76,1.9,1.9,0,0,1-.25,0h-.38a3.5,3.5,0,0,1-.45-.07,2.68,2.68,0,0,1-1.49-1,3.1,3.1,0,0,1-.59-1.45,1.11,1.11,0,0,0,0-.17h-1.19a.32.32,0,0,1-.27-.13c-.16-.2-.32-.39-.47-.59L288.18,205l-1.11-1.37c-.06-.09-.13-.17-.2-.26l-.31.93h0l0,0a3,3,0,0,1,1.51,2.31,3.15,3.15,0,0,1,0,1.06,3,3,0,0,1-1.25,1.89,2.47,2.47,0,0,1-1.1.42l-.18,0h-.34c-.14,0-.29,0-.42-.06a2.75,2.75,0,0,1-1.78-1.43,3.17,3.17,0,0,1-.35-1.13,1.49,1.49,0,0,0,0-.21Zm3.73-1.95s0,0,0,0c-.17.53-.34,1-.52,1.57l-.18.57a.27.27,0,0,1-.34.19.31.31,0,0,1-.17-.41l.69-2.12,0,0a2.16,2.16,0,0,0-2.54,1.62,2.42,2.42,0,0,0,1.36,3,2.13,2.13,0,0,0,2.76-1.41A2.46,2.46,0,0,0,286.36,204.86Zm5.59,2.39a2.33,2.33,0,0,0,1.61,2,2.11,2.11,0,0,0,2.47-1.17,2.55,2.55,0,0,0-.43-2.88,2,2,0,0,0-2.15-.52c.06.13.12.26.17.4.25.56.49,1.12.74,1.69a.38.38,0,0,1,0,.18.29.29,0,0,1-.29.26H292Zm-4.87-4.57,3,3.72,1.61-3.72Zm5.62,1.72-.58-1.32-1.54,3.55h.8A3.06,3.06,0,0,1,292.7,204.4Zm-.74,2.23h1.71L293,205A2.42,2.42,0,0,0,292,206.63Z" transform="translate(-159.12 -70.99)"/><path class="cls-18" d="M288.42,188.39a1.23,1.23,0,0,1,0-.19,2.83,2.83,0,0,1,.39-1.21,2.69,2.69,0,0,1,1.72-1.35,2.37,2.37,0,0,1,1.24,0s0,0,0,0c.34-1.05.69-2.09,1-3.14a.89.89,0,0,1,.68-.63h1.08v.61h-.93a.29.29,0,0,0-.31.24c-.11.31-.21.62-.31.93,0,0,0,0,0,0h4.62a.05.05,0,0,0,.06,0c.07-.18.15-.35.23-.53l0,0h-.82a.3.3,0,0,1-.27-.19.33.33,0,0,1,.08-.34.24.24,0,0,1,.19-.08h2.12v.61h-.66s0,0,0,0c-.13.28-.25.57-.37.85a.06.06,0,0,0,0,.06c.24.57.49,1.14.74,1.72v0l.26-.08a2.3,2.3,0,0,1,.94-.07,2.63,2.63,0,0,1,1.74.95,2.93,2.93,0,0,1,.68,1.47,3.11,3.11,0,0,1-.84,2.77,2.56,2.56,0,0,1-1.42.77l-.25,0h-.38c-.15,0-.31,0-.46-.08a2.68,2.68,0,0,1-1.49-1,3,3,0,0,1-.58-1.45l0-.17H296a.37.37,0,0,1-.27-.13l-.47-.6L294,186.54c-.37-.46-.74-.91-1.1-1.37l-.21-.26-.31.94h.05a3,3,0,0,1,1.51,2.31,3.14,3.14,0,0,1,0,1.06,3,3,0,0,1-1.25,1.89,2.44,2.44,0,0,1-1.09.42l-.18,0H291l-.42-.07a2.73,2.73,0,0,1-1.77-1.42,3,3,0,0,1-.35-1.14,1.5,1.5,0,0,1,0-.2Zm3.73-1.94,0,0-.51,1.57c-.06.19-.13.37-.19.56a.27.27,0,0,1-.34.2.32.32,0,0,1-.17-.42l.69-2.12,0,0a2.15,2.15,0,0,0-2.54,1.61,2.43,2.43,0,0,0,1.36,3,2.14,2.14,0,0,0,2.76-1.41A2.46,2.46,0,0,0,292.15,186.45Zm5.58,2.38a2.31,2.31,0,0,0,1.61,2,2.1,2.1,0,0,0,2.47-1.17,2.53,2.53,0,0,0-.43-2.88,2,2,0,0,0-2.14-.51c.05.13.11.26.17.39.24.56.48,1.13.73,1.69a.31.31,0,0,1,0,.19.29.29,0,0,1-.29.25h-2.15Zm-4.86-4.56,3,3.71,1.61-3.71Zm5.61,1.71-.58-1.32-1.54,3.55h.8A3.11,3.11,0,0,1,298.48,186Zm-.74,2.23h1.71l-.72-1.66A2.42,2.42,0,0,0,297.74,188.21Z" transform="translate(-159.12 -70.99)"/><path class="cls-18" d="M287.74,229.43a1.5,1.5,0,0,1,0-.2,2.83,2.83,0,0,1,.39-1.2,2.74,2.74,0,0,1,1.72-1.36,2.48,2.48,0,0,1,1.24,0s0,0,.05,0c.34-1.05.69-2.1,1-3.14a.89.89,0,0,1,.68-.63H294v.61H293a.28.28,0,0,0-.31.24c-.11.31-.21.62-.31.93,0,0,0,0,0,0H297s.05,0,.06,0c.07-.18.15-.35.23-.53a.08.08,0,0,1,0,0h-.82a.27.27,0,0,1-.26-.19.31.31,0,0,1,.07-.34.27.27,0,0,1,.19-.08h2.12v.62H298s0,0,0,0c-.13.28-.25.57-.37.85a0,0,0,0,0,0,.05c.24.58.49,1.15.74,1.72v0l.26-.08a2.49,2.49,0,0,1,.94-.08,2.6,2.6,0,0,1,1.74,1,2.93,2.93,0,0,1,.68,1.47,3.11,3.11,0,0,1-.84,2.77,2.49,2.49,0,0,1-1.42.76l-.25,0H299a3.25,3.25,0,0,1-.45-.07,2.67,2.67,0,0,1-1.5-1,3,3,0,0,1-.58-1.45.88.88,0,0,1,0-.17h-1.2a.34.34,0,0,1-.27-.13c-.15-.2-.31-.39-.47-.59l-1.26-1.57-1.1-1.37L292,226l-.31.94h0l0,0a3,3,0,0,1,1.51,2.31,3.14,3.14,0,0,1-.05,1.06,3,3,0,0,1-1.25,1.89,2.44,2.44,0,0,1-1.09.42l-.18,0h-.35l-.42-.06a2.74,2.74,0,0,1-1.77-1.43,3,3,0,0,1-.35-1.13,1.49,1.49,0,0,1,0-.21Zm3.73-2,0,.05-.51,1.57c-.06.18-.12.37-.19.56a.26.26,0,0,1-.33.19.31.31,0,0,1-.18-.41c.23-.71.46-1.41.7-2.12v0a2.16,2.16,0,0,0-2.54,1.62,2.43,2.43,0,0,0,1.36,3,2.14,2.14,0,0,0,2.76-1.42A2.47,2.47,0,0,0,291.47,227.48Zm5.58,2.39a2.31,2.31,0,0,0,1.61,2,2.12,2.12,0,0,0,2.48-1.17,2.55,2.55,0,0,0-.44-2.88,2,2,0,0,0-2.14-.52c.05.13.11.27.17.4.24.56.49,1.12.73,1.69a.3.3,0,0,1-.26.44h-2.15Zm-4.86-4.57,3,3.72,1.61-3.72ZM297.8,227l-.58-1.32-1.53,3.55h.79A3.11,3.11,0,0,1,297.8,227Zm-.74,2.23h1.71l-.72-1.66A2.42,2.42,0,0,0,297.06,229.25Z" transform="translate(-159.12 -70.99)"/><path class="cls-18" d="M310.19,235.73c0-.06,0-.13,0-.19a3.16,3.16,0,0,1,.22-1.26,2.86,2.86,0,0,1,1.51-1.63,2.34,2.34,0,0,1,1.22-.2s0,0,.05,0c.19-1.09.38-2.19.58-3.28a.92.92,0,0,1,.58-.74l.1,0,.94-.16h0l.09.6h-.05l-.88.15a.3.3,0,0,0-.27.29c-.06.33-.12.65-.17,1,0,0,0,0,0,0h0l4.53-.77s0,0,.05,0l.15-.56a.07.07,0,0,0,0,0h0l-.77.13a.27.27,0,0,1-.28-.15.32.32,0,0,1,0-.34.31.31,0,0,1,.18-.12l2.06-.35h0l.08.6h0l-.61.1a.08.08,0,0,0,0,0l-.24.91a0,0,0,0,0,0,0l1,1.58,0,0,.24-.12a2.46,2.46,0,0,1,.91-.24,2.57,2.57,0,0,1,1.86.66,2.84,2.84,0,0,1,.88,1.33,3.17,3.17,0,0,1-.44,2.88,2.66,2.66,0,0,1-1.3,1l-.24.07h0l-.3.05h0a3.53,3.53,0,0,1-.46,0,2.52,2.52,0,0,1-1.62-.77,3,3,0,0,1-.78-1.33c0-.06,0-.11,0-.17h-.05l-1.13.19a.32.32,0,0,1-.29-.08l-.55-.51L315.4,233l-1.28-1.17-.24-.22-.17,1h0l0,0a2.85,2.85,0,0,1,1.81,2,3.17,3.17,0,0,1,.11,1.06,3.11,3.11,0,0,1-1,2.08,2.51,2.51,0,0,1-1,.59l-.18.06-.31.05h-.46a2.67,2.67,0,0,1-1.95-1.11,2.88,2.88,0,0,1-.5-1.06,1.46,1.46,0,0,1-.05-.2Zm3.41-2.55s0,0,0,0c-.09.54-.19,1.09-.29,1.63,0,.2-.06.39-.1.59a.27.27,0,0,1-.3.25.31.31,0,0,1-.24-.38l.39-2.21v-.05a2.23,2.23,0,0,0-2.28,2,2.36,2.36,0,0,0,1.76,2.71,2.21,2.21,0,0,0,2.53-1.86A2.4,2.4,0,0,0,313.6,233.18Zm5.85,1.43a2.27,2.27,0,0,0,1.88,1.74,2.18,2.18,0,0,0,2.28-1.57,2.51,2.51,0,0,0-.83-2.78,2,2,0,0,0-2.19-.15l.22.36,1,1.55a.28.28,0,0,1,.06.18.29.29,0,0,1-.25.3l-2.08.36Zm-5.44-3.7,3.47,3.17,1.07-3.94Zm5.79.75-.76-1.21-1,3.77.78-.13A3.19,3.19,0,0,1,319.8,231.66Zm-.43,2.33,1.7-.29-.95-1.52A2.51,2.51,0,0,0,319.37,234Z" transform="translate(-159.12 -70.99)"/><path class="cls-18" d="M310.31,215c0-.06,0-.13,0-.19a3.19,3.19,0,0,1,.14-1.27,2.9,2.9,0,0,1,1.43-1.72,2.47,2.47,0,0,1,1.21-.28s0,0,.05,0c.13-1.1.27-2.21.4-3.31a.93.93,0,0,1,.55-.77l.1,0,.93-.21h0l.11.6h0l-.87.2a.31.31,0,0,0-.26.31l-.12,1a.43.43,0,0,0,0,.05h0l4.49-1s0,0,0-.05c0-.19.09-.38.13-.57a.11.11,0,0,1,0-.05h-.05l-.76.18a.25.25,0,0,1-.29-.13.34.34,0,0,1,0-.35.3.3,0,0,1,.17-.12l2-.48h0l.11.59h0l-.6.14s0,0,0,.05c-.07.3-.13.61-.2.91a.13.13,0,0,0,0,.06l1.06,1.51,0,0,.23-.14a2.48,2.48,0,0,1,.9-.28,2.55,2.55,0,0,1,1.89.53,2.75,2.75,0,0,1,.94,1.28,3.14,3.14,0,0,1-.28,2.9,2.67,2.67,0,0,1-1.25,1.08l-.24.08,0,0-.3.07h0l-.45,0a2.58,2.58,0,0,1-1.67-.67,2.87,2.87,0,0,1-.84-1.28l-.06-.17h0l-1.13.27a.33.33,0,0,1-.28-.07l-.58-.47-1.53-1.25c-.45-.36-.9-.72-1.34-1.09a2.43,2.43,0,0,1-.25-.2l-.12,1h0a2.85,2.85,0,0,1,1.92,1.91,2.88,2.88,0,0,1,.16,1.05,3.1,3.1,0,0,1-.86,2.13,2.61,2.61,0,0,1-1,.66l-.17.07-.31.07h0l-.43,0a2.61,2.61,0,0,1-2-1,2.79,2.79,0,0,1-.56-1l-.06-.19Zm3.28-2.76a.43.43,0,0,1,0,.05c-.07.55-.13,1.1-.2,1.65,0,.2-.05.4-.07.59a.29.29,0,0,1-.3.27.3.3,0,0,1-.25-.36c.09-.74.18-1.49.28-2.24v0a2.25,2.25,0,0,0-2.17,2.16,2.32,2.32,0,0,0,1.89,2.59,2.22,2.22,0,0,0,2.43-2A2.37,2.37,0,0,0,313.59,212.23Zm5.92,1.06a2.13,2.13,0,0,0,4.16-.08,2.49,2.49,0,0,0-1-2.72,2,2,0,0,0-2.2,0l.24.35,1,1.48a.39.39,0,0,1,.06.18.31.31,0,0,1-.23.32l-2.06.48Zm-5.64-3.35,3.64,2.95.86-4Zm5.83.39-.82-1.16-.83,3.83.78-.18A3.21,3.21,0,0,1,319.7,210.33Zm-.31,2.35,1.68-.39-1-1.46A2.57,2.57,0,0,0,319.39,212.68Z" transform="translate(-159.12 -70.99)"/><path class="cls-18" d="M291.92,255.75c0-.06,0-.13,0-.19a3.13,3.13,0,0,1,.39-1.21,2.78,2.78,0,0,1,1.73-1.36,2.44,2.44,0,0,1,1.23,0s0,0,0,0l1-3.14a.86.86,0,0,1,.68-.63h1.08v.61h-.94a.3.3,0,0,0-.31.24l-.3.93s0,0,0,0h4.63s0,0,.05,0,.16-.35.23-.53l0,0h-.82a.28.28,0,0,1-.26-.2.33.33,0,0,1,.07-.33.27.27,0,0,1,.2-.09h2.12v.62h-.66s0,0,0,0l-.37.85s0,0,0,.05l.75,1.73v0l.25-.08a2.31,2.31,0,0,1,.94-.07,2.65,2.65,0,0,1,1.75.95,3,3,0,0,1,.67,1.47,3.07,3.07,0,0,1-.83,2.77,2.48,2.48,0,0,1-1.43.76l-.25,0h-.38c-.15,0-.3,0-.45-.08a2.7,2.7,0,0,1-1.5-1,3,3,0,0,1-.58-1.45c0-.05,0-.11,0-.17h-1.19a.32.32,0,0,1-.27-.13l-.48-.59-1.26-1.57c-.36-.46-.73-.91-1.1-1.37l-.2-.26-.31.94h0l0,0a3,3,0,0,1,1.51,2.31,3.17,3.17,0,0,1-1.29,3,2.52,2.52,0,0,1-1.1.42l-.18,0h-.35l-.42-.07a2.78,2.78,0,0,1-1.77-1.42,3.28,3.28,0,0,1-.35-1.14c0-.07,0-.14,0-.21Zm3.73-1.95s0,0,0,0c-.17.52-.35,1-.52,1.57l-.18.56a.26.26,0,0,1-.34.19.31.31,0,0,1-.18-.41c.24-.7.47-1.41.7-2.12v0a2.16,2.16,0,0,0-2.54,1.61,2.44,2.44,0,0,0,1.36,3,2.13,2.13,0,0,0,2.76-1.41A2.46,2.46,0,0,0,295.65,253.8Zm5.59,2.39a2.3,2.3,0,0,0,1.6,2,2.12,2.12,0,0,0,2.48-1.17,2.56,2.56,0,0,0-.43-2.88,2,2,0,0,0-2.15-.52c.06.14.12.27.17.4.25.56.49,1.12.74,1.69a.31.31,0,0,1,0,.19.28.28,0,0,1-.29.25h-2.14Zm-4.87-4.56,3,3.71,1.61-3.71Zm5.62,1.71-.58-1.32-1.54,3.55h.8A3.08,3.08,0,0,1,302,253.34Zm-.75,2.23H303l-.73-1.66A2.42,2.42,0,0,0,301.24,255.57Z" transform="translate(-159.12 -70.99)"/><path class="cls-18" d="M268,269.34a1.23,1.23,0,0,0,0-.19,3.13,3.13,0,0,1,.39-1.21,2.73,2.73,0,0,1,1.73-1.35,2.48,2.48,0,0,1,1.24,0s0,0,.05,0c.34-1,.68-2.09,1-3.14a.89.89,0,0,1,.68-.63h1.08v.61h-.93a.3.3,0,0,0-.32.24l-.3.94s0,0,0,0h4.62s0,0,.06,0,.15-.35.23-.52,0,0,0-.05h-.82a.28.28,0,0,1-.26-.19.34.34,0,0,1,.07-.34.27.27,0,0,1,.2-.08h2.12V264h-.66a.05.05,0,0,0,0,0c-.12.29-.24.57-.37.85v.06l.75,1.72v0l.26-.08a2.45,2.45,0,0,1,.93-.07,2.63,2.63,0,0,1,1.75,1,3,3,0,0,1,.68,1.47,3.12,3.12,0,0,1-.84,2.78,2.6,2.6,0,0,1-1.43.76l-.25,0h-.38c-.15,0-.3,0-.45-.08a2.71,2.71,0,0,1-1.49-1,3.15,3.15,0,0,1-.59-1.45.88.88,0,0,0,0-.17h-1.19a.32.32,0,0,1-.27-.13l-.47-.6-1.26-1.57-1.11-1.37-.2-.25-.31.93h0l0,0a2.94,2.94,0,0,1,1.51,2.3,3.2,3.2,0,0,1,0,1.07,3,3,0,0,1-1.25,1.88,2.47,2.47,0,0,1-1.1.42l-.18,0h-.34a2.83,2.83,0,0,1-.42-.07,2.73,2.73,0,0,1-1.77-1.42,3,3,0,0,1-.36-1.14,1.23,1.23,0,0,0,0-.2Zm3.73-1.94s0,0,0,0l-.51,1.57c-.07.19-.13.37-.19.56a.27.27,0,0,1-.34.2.31.31,0,0,1-.17-.41l.69-2.13,0,0a2.15,2.15,0,0,0-2.54,1.61,2.43,2.43,0,0,0,1.36,3,2.13,2.13,0,0,0,2.76-1.41A2.46,2.46,0,0,0,271.71,267.4Zm5.59,2.39a2.31,2.31,0,0,0,1.61,2,2.1,2.1,0,0,0,2.47-1.16,2.56,2.56,0,0,0-.43-2.89,2,2,0,0,0-2.15-.51c.06.13.12.26.17.39.25.56.49,1.13.74,1.69a.4.4,0,0,1,0,.19.29.29,0,0,1-.29.26H277.3Zm-4.87-4.57,3,3.71,1.61-3.71Zm5.62,1.72-.58-1.33-1.54,3.56h.8A3,3,0,0,1,278.05,266.94Zm-.74,2.23H279l-.72-1.67A2.42,2.42,0,0,0,277.31,269.17Z" transform="translate(-159.12 -70.99)"/><path class="cls-18" d="M291.92,286.82c0-.07,0-.13,0-.2a3.19,3.19,0,0,1,.39-1.21,2.77,2.77,0,0,1,1.73-1.35,2.44,2.44,0,0,1,1.23,0s0,0,0,0c.35-1,.69-2.09,1-3.14a.86.86,0,0,1,.68-.63h1.08v.61h-.94a.3.3,0,0,0-.31.24l-.3.94,0,0h4.63s0,0,.05,0,.16-.35.23-.52l0,0h-.82a.28.28,0,0,1-.26-.19.34.34,0,0,1,.07-.34.26.26,0,0,1,.2-.08h2.12v.61h-.66a0,0,0,0,0,0,0c-.12.29-.25.57-.37.86,0,0,0,0,0,.05l.75,1.72v0l.25-.08a2.5,2.5,0,0,1,.94-.07,2.62,2.62,0,0,1,1.75,1,2.93,2.93,0,0,1,.67,1.46,3.08,3.08,0,0,1-.83,2.78,2.6,2.6,0,0,1-1.43.76l-.25,0h-.38c-.15,0-.3,0-.45-.08a2.68,2.68,0,0,1-1.5-1,3.13,3.13,0,0,1-.58-1.45c0-.06,0-.11,0-.17h-1.19a.32.32,0,0,1-.27-.13l-.48-.6L297.46,285l-1.1-1.38-.2-.25-.31.93h0l0,0a3,3,0,0,1,1.51,2.31,2.91,2.91,0,0,1,0,1.06,3,3,0,0,1-1.24,1.89,2.5,2.5,0,0,1-1.1.41l-.18,0h-.35a3.07,3.07,0,0,1-.42-.07,2.75,2.75,0,0,1-1.77-1.42,3.16,3.16,0,0,1-.35-1.14c0-.07,0-.13,0-.2Zm3.73-1.95s0,0,0,0l-.52,1.57-.18.56a.28.28,0,0,1-.34.2.31.31,0,0,1-.18-.41c.24-.71.47-1.42.7-2.13v0a2.16,2.16,0,0,0-2.54,1.61,2.44,2.44,0,0,0,1.36,3,2.12,2.12,0,0,0,2.76-1.41A2.46,2.46,0,0,0,295.65,284.87Zm5.59,2.39a2.33,2.33,0,0,0,1.6,2,2.13,2.13,0,0,0,2.48-1.17,2.58,2.58,0,0,0-.43-2.89,2,2,0,0,0-2.15-.51c.06.13.12.26.17.39.25.56.49,1.13.74,1.69a.31.31,0,0,1,0,.19.28.28,0,0,1-.29.26h-2.14Zm-4.87-4.57,3,3.72,1.61-3.72Zm5.62,1.72-.58-1.33-1.54,3.56h.8A3,3,0,0,1,302,284.41Zm-.75,2.23H303l-.73-1.67A2.46,2.46,0,0,0,301.24,286.64Z" transform="translate(-159.12 -70.99)"/><path class="cls-18" d="M311.79,273.77a1.34,1.34,0,0,1,.07-.18,2.81,2.81,0,0,1,.68-1,2.52,2.52,0,0,1,2-.77,2.42,2.42,0,0,1,1.19.38s0,0,.06,0c.59-.9,1.19-1.8,1.79-2.7a.83.83,0,0,1,.81-.4.29.29,0,0,1,.1,0l.92.29h0l-.16.59h0l-.86-.28a.28.28,0,0,0-.36.14l-.53.8,0,0h0l4.41,1.4s0,0,.06,0l.35-.43,0,0h0l-.75-.24a.31.31,0,0,1-.2-.27.31.31,0,0,1,.16-.3.26.26,0,0,1,.21,0l2,.64h0l-.15.59h0l-.6-.19s0,0-.05,0l-.57.71a.08.08,0,0,0,0,0c.09.63.19,1.25.28,1.88v0h.26a2.42,2.42,0,0,1,.92.21,2.85,2.85,0,0,1,1.43,1.45,3,3,0,0,1,.28,1.62,3,3,0,0,1-1.51,2.41,2.4,2.4,0,0,1-1.57.29l-.25,0h0l-.29-.09,0,0c-.14-.07-.28-.13-.41-.21a2.88,2.88,0,0,1-1.18-1.45A3.34,3.34,0,0,1,320,277l0-.17H320l-1.1-.35a.35.35,0,0,1-.22-.21c-.1-.24-.21-.48-.31-.71l-.81-1.9c-.23-.55-.47-1.1-.71-1.65l-.13-.31-.53.81h0l0,0a3.12,3.12,0,0,1,.86,2.68,2.85,2.85,0,0,1-.31,1,2.77,2.77,0,0,1-1.68,1.44,2.4,2.4,0,0,1-1.16.07l-.18,0-.3-.09,0,0-.39-.19a3,3,0,0,1-1.33-1.91,3,3,0,0,1-.05-1.2l0-.2Zm4.08-.73,0,0-.89,1.36-.32.48a.26.26,0,0,1-.38.08.3.3,0,0,1-.06-.44l1.21-1.83,0,0a2.07,2.07,0,0,0-2.85.77,2.53,2.53,0,0,0,.55,3.27,2.06,2.06,0,0,0,3-.51A2.54,2.54,0,0,0,315.87,273Zm4.75,4a2.43,2.43,0,0,0,1,2.44,2,2,0,0,0,2.67-.36,2.56,2.56,0,0,0,.32-2.9,2.08,2.08,0,0,0-1.93-1.15l.06.43c.1.61.19,1.23.28,1.84a.4.4,0,0,1,0,.19.28.28,0,0,1-.35.16l-2-.64Zm-3.51-5.87,1.92,4.48,2.5-3.08Zm5,3.36-.22-1.45L319.47,276l.76.25A2.86,2.86,0,0,1,322.07,274.53Zm-1.28,1.91,1.64.52-.27-1.81A2.21,2.21,0,0,0,320.79,276.44Z" transform="translate(-159.12 -70.99)"/><path class="cls-18" d="M316.16,256.16c0-.07,0-.13,0-.19a3.07,3.07,0,0,1,.56-1.13,2.65,2.65,0,0,1,1.9-1.05,2.47,2.47,0,0,1,1.22.21s0,0,.05,0l1.46-2.93a.85.85,0,0,1,.76-.51h.11l.94.16h0l-.08.6h-.05l-.88-.15a.28.28,0,0,0-.34.18c-.14.29-.29.58-.43.88,0,0,0,0,0,0h0L326,253s0,0,.06,0l.3-.49,0,0h0l-.77-.13a.3.3,0,0,1-.23-.23.32.32,0,0,1,.12-.32.26.26,0,0,1,.21,0l2,.35h0l-.09.6h0l-.62-.1s0,0-.05,0l-.48.78a.07.07,0,0,0,0,.06c.16.6.33,1.21.49,1.82v0l.27,0a2.44,2.44,0,0,1,.93.09,2.63,2.63,0,0,1,1.59,1.23,3,3,0,0,1,.47,1.57,3,3,0,0,1-1.22,2.6,2.46,2.46,0,0,1-1.52.51h-.28l-.3-.05h0a3.29,3.29,0,0,1-.44-.16,2.73,2.73,0,0,1-1.33-1.27,3.09,3.09,0,0,1-.37-1.53v-.17h0l-1.14-.19a.31.31,0,0,1-.24-.17l-.39-.67-1-1.76-.89-1.54-.17-.29-.43.87h0l0,0a3.07,3.07,0,0,1,1.17,2.54,3,3,0,0,1-.19,1,2.93,2.93,0,0,1-1.5,1.66,2.51,2.51,0,0,1-1.14.23h-.18l-.31-.05,0,0-.4-.13a2.83,2.83,0,0,1-1.55-1.71,3.14,3.14,0,0,1-.19-1.18c0-.07,0-.14,0-.21Zm4-1.3a.05.05,0,0,0,0,0c-.25.49-.49,1-.73,1.46-.09.18-.18.35-.26.53a.28.28,0,0,1-.37.13.3.3,0,0,1-.11-.43c.33-.66.66-1.32,1-2l0,0a2.1,2.1,0,0,0-2.73,1.17,2.48,2.48,0,0,0,.92,3.16,2.08,2.08,0,0,0,2.93-.93A2.5,2.5,0,0,0,320.12,254.86Zm5.18,3.3a2.41,2.41,0,0,0,1.3,2.28,2.07,2.07,0,0,0,2.61-.74,2.56,2.56,0,0,0,0-2.92,2,2,0,0,0-2.05-.87l.12.42.48,1.79a.31.31,0,0,1,0,.19.28.28,0,0,1-.32.21l-2.07-.36Zm-4.17-5.33,2.43,4.17,2.12-3.4Zm5.31,2.63-.38-1.4-2,3.25.78.14A3,3,0,0,1,326.44,255.46Zm-1.05,2.08,1.7.29-.48-1.76A2.34,2.34,0,0,0,325.39,257.54Z" transform="translate(-159.12 -70.99)"/><path class="cls-18" d="M284.54,315.07a1.23,1.23,0,0,1,0-.19,2.83,2.83,0,0,1,.39-1.21,2.74,2.74,0,0,1,1.72-1.36,2.48,2.48,0,0,1,1.24,0s0,0,0,0c.34-1.05.69-2.1,1-3.14a.89.89,0,0,1,.68-.63h1.08v.61h-.93a.29.29,0,0,0-.31.24c-.11.31-.21.62-.31.93v0h4.62s.05,0,.06,0c.07-.18.15-.35.23-.53l0,0h-.82a.3.3,0,0,1-.27-.2.35.35,0,0,1,.07-.34.32.32,0,0,1,.2-.08h2.12v.62h-.66s0,0,0,0c-.13.28-.25.57-.37.85a0,0,0,0,0,0,.05c.24.58.49,1.15.74,1.73v0l.26-.08a2.49,2.49,0,0,1,.94-.08,2.68,2.68,0,0,1,1.74,1,2.93,2.93,0,0,1,.68,1.47,3.11,3.11,0,0,1-.84,2.77,2.49,2.49,0,0,1-1.42.76l-.25,0h-.38c-.15,0-.31,0-.46-.08a2.68,2.68,0,0,1-1.49-1,3,3,0,0,1-.58-1.45l0-.17h-1.19a.32.32,0,0,1-.27-.13c-.15-.2-.31-.39-.47-.59l-1.26-1.57-1.1-1.37-.21-.26-.31.94h0l0,0a3,3,0,0,1,1.51,2.31,3.14,3.14,0,0,1,0,1.06,3,3,0,0,1-1.25,1.89,2.44,2.44,0,0,1-1.09.42l-.18,0h-.35l-.42-.07a2.71,2.71,0,0,1-1.77-1.43,3,3,0,0,1-.35-1.13,1.49,1.49,0,0,1,0-.21Zm3.73-1.95,0,.05-.51,1.57c-.06.18-.13.37-.19.56a.26.26,0,0,1-.34.19.3.3,0,0,1-.17-.41l.69-2.12,0,0a2.15,2.15,0,0,0-2.54,1.61,2.43,2.43,0,0,0,1.36,3,2.14,2.14,0,0,0,2.76-1.41A2.48,2.48,0,0,0,288.27,313.12Zm5.58,2.39a2.31,2.31,0,0,0,1.61,2,2.1,2.1,0,0,0,2.47-1.17,2.53,2.53,0,0,0-.43-2.88,2,2,0,0,0-2.14-.52c.05.14.11.27.17.4l.73,1.69a.3.3,0,0,1-.26.44h-2.15ZM289,311l3,3.71,1.61-3.71Zm5.61,1.71-.58-1.32-1.54,3.55h.8A3.11,3.11,0,0,1,294.6,312.66Zm-.74,2.23h1.71l-.72-1.66A2.42,2.42,0,0,0,293.86,314.89Z" transform="translate(-159.12 -70.99)"/><path class="cls-18" d="M309.75,306.81l.06-.18a3,3,0,0,1,.65-1.07,2.63,2.63,0,0,1,2-.84,2.56,2.56,0,0,1,1.2.34s0,0,.06,0q.84-1.38,1.71-2.76a.83.83,0,0,1,.8-.43l.1,0,.92.26h0l-.14.59h0l-.87-.24a.28.28,0,0,0-.35.15l-.51.82s0,0,0,0h0l4.44,1.24s0,0,.06,0l.34-.45,0,0h0l-.75-.21a.28.28,0,0,1-.21-.26.32.32,0,0,1,.14-.31.31.31,0,0,1,.21,0l2,.56h0l-.13.6,0,0-.6-.16s0,0-.06,0l-.55.72a.11.11,0,0,0,0,.05l.33,1.87v0h.27a2.47,2.47,0,0,1,.92.18,2.81,2.81,0,0,1,1.48,1.4,3.05,3.05,0,0,1,.32,1.6,3,3,0,0,1-1.44,2.47,2.49,2.49,0,0,1-1.55.35l-.25,0h0L320,313l0,0a4,4,0,0,1-.42-.2,2.89,2.89,0,0,1-1.22-1.4,3.34,3.34,0,0,1-.23-1.57,1.11,1.11,0,0,1,0-.17h-.05l-1.11-.31a.33.33,0,0,1-.23-.2l-.33-.7c-.28-.62-.57-1.24-.86-1.86l-.76-1.63-.14-.3-.51.82h0l0,0a3.11,3.11,0,0,1,.95,2.64,3,3,0,0,1-.29,1,2.77,2.77,0,0,1-1.63,1.49,2.42,2.42,0,0,1-1.16.11l-.18,0-.3-.08,0,0c-.13-.06-.26-.11-.39-.18a2.9,2.9,0,0,1-1.39-1.85,3,3,0,0,1-.08-1.2,1.23,1.23,0,0,1,0-.2Zm4.05-.87,0,0-.85,1.38-.31.5a.26.26,0,0,1-.37.1.33.33,0,0,1-.08-.45l1.16-1.87,0,0a2.08,2.08,0,0,0-2.83.88,2.52,2.52,0,0,0,.65,3.24,2.05,2.05,0,0,0,3-.62A2.51,2.51,0,0,0,313.8,305.94Zm4.87,3.82a2.45,2.45,0,0,0,1.1,2.41,2.06,2.06,0,0,0,2.67-.47,2.56,2.56,0,0,0,.23-2.91,2.1,2.1,0,0,0-2-1.08c0,.15.05.29.07.43l.33,1.84a.41.41,0,0,1,0,.19.29.29,0,0,1-.34.17l-2-.57ZM315,304l2.06,4.41,2.4-3.17Zm5.06,3.18-.26-1.44-2.3,3,.77.21A2.91,2.91,0,0,1,320.05,307.2Zm-1.23,2,1.66.46-.32-1.8A2.27,2.27,0,0,0,318.82,309.16Z" transform="translate(-159.12 -70.99)"/><path class="cls-18" d="M268.3,298.62c0-.06,0-.13,0-.19a3,3,0,0,1,.39-1.21,2.71,2.71,0,0,1,1.73-1.35,2.44,2.44,0,0,1,1.23,0s0,0,.05,0c.34-1,.69-2.09,1-3.14a.89.89,0,0,1,.68-.63h1.09v.61h-.94a.3.3,0,0,0-.31.24c-.1.31-.21.62-.31.93a.09.09,0,0,1,0,.05h4.63a.05.05,0,0,0,.05,0c.08-.18.15-.35.23-.52l0-.05h-.82a.28.28,0,0,1-.26-.19.32.32,0,0,1,.07-.34.24.24,0,0,1,.2-.08h2.11v.61h-.65a0,0,0,0,0,0,0l-.37.85a.06.06,0,0,0,0,.06c.25.57.5,1.14.74,1.72l0,0,.25-.08a2.48,2.48,0,0,1,.94-.07,2.63,2.63,0,0,1,1.74.95,2.93,2.93,0,0,1,.68,1.47,3.13,3.13,0,0,1-.83,2.77,2.59,2.59,0,0,1-1.43.77l-.25,0h-.38c-.15,0-.3,0-.45-.08a2.7,2.7,0,0,1-1.5-1,3,3,0,0,1-.58-1.45,1.11,1.11,0,0,1,0-.17h-1.2a.3.3,0,0,1-.26-.13l-.48-.6-1.26-1.57-1.1-1.37-.21-.26-.3.94h0l0,0a2.94,2.94,0,0,1,1.51,2.3,2.9,2.9,0,0,1,0,1.06,3,3,0,0,1-1.25,1.89,2.44,2.44,0,0,1-1.09.42l-.18,0h-.35a3.07,3.07,0,0,1-.42-.07,2.78,2.78,0,0,1-1.77-1.42,3,3,0,0,1-.35-1.14c0-.07,0-.14,0-.2Zm3.73-1.94s0,0,0,0l-.51,1.57-.18.56a.28.28,0,0,1-.34.2.32.32,0,0,1-.18-.42c.23-.7.46-1.41.7-2.12v0a2.16,2.16,0,0,0-2.54,1.61,2.44,2.44,0,0,0,1.36,3,2.13,2.13,0,0,0,2.76-1.41A2.46,2.46,0,0,0,272,296.68Zm5.58,2.39a2.33,2.33,0,0,0,1.61,2,2.12,2.12,0,0,0,2.48-1.17,2.56,2.56,0,0,0-.43-2.88,2,2,0,0,0-2.15-.51l.17.39.73,1.69a.31.31,0,0,1,0,.19.29.29,0,0,1-.29.26h-2.15Zm-4.86-4.57,3,3.71,1.62-3.71Zm5.62,1.72-.58-1.33-1.54,3.55H277A3.06,3.06,0,0,1,278.37,296.22Zm-.75,2.22h1.71l-.72-1.66A2.42,2.42,0,0,0,277.62,298.44Z" transform="translate(-159.12 -70.99)"/><path class="cls-18" d="M267.8,244.47a1.23,1.23,0,0,0,0-.19,3.13,3.13,0,0,1,.39-1.21,2.73,2.73,0,0,1,1.73-1.35,2.37,2.37,0,0,1,1.24,0s0,0,.05,0c.34-1.05.68-2.09,1-3.14a.86.86,0,0,1,.68-.63H274v.61h-.93a.3.3,0,0,0-.32.24l-.3.93,0,.05h4.63s0,0,.05,0,.16-.35.23-.53a.05.05,0,0,0,0,0h-.82a.28.28,0,0,1-.26-.19.34.34,0,0,1,.07-.34.26.26,0,0,1,.2-.08h2.12v.61H278a0,0,0,0,0,0,0c-.12.28-.24.57-.37.85v.06l.75,1.72v0l.26-.08a2.25,2.25,0,0,1,.93-.07,2.65,2.65,0,0,1,1.75,1,2.92,2.92,0,0,1,.67,1.47,3.07,3.07,0,0,1-.83,2.77,2.56,2.56,0,0,1-1.43.77l-.25,0h-.38c-.15,0-.3,0-.45-.08a2.73,2.73,0,0,1-1.5-1,3.15,3.15,0,0,1-.58-1.45c0-.05,0-.11,0-.17h-1.19a.35.35,0,0,1-.27-.13l-.48-.6-1.26-1.57c-.36-.46-.73-.91-1.1-1.37-.07-.08-.13-.17-.2-.26l-.31.94h0a3,3,0,0,1,1.51,2.31,3.14,3.14,0,0,1,0,1.06,3,3,0,0,1-1.25,1.89,2.47,2.47,0,0,1-1.1.42l-.18,0h-.34l-.43-.07a2.78,2.78,0,0,1-1.77-1.42,3.22,3.22,0,0,1-.35-1.14,1.23,1.23,0,0,0,0-.2Zm3.73-1.94s0,0,0,0c-.17.52-.34,1-.52,1.57l-.18.56a.28.28,0,0,1-.34.2.32.32,0,0,1-.17-.42l.69-2.12v0a2.16,2.16,0,0,0-2.54,1.61,2.44,2.44,0,0,0,1.36,3,2.14,2.14,0,0,0,2.77-1.41A2.45,2.45,0,0,0,271.53,242.53Zm5.59,2.38a2.31,2.31,0,0,0,1.61,2,2.11,2.11,0,0,0,2.47-1.17,2.55,2.55,0,0,0-.43-2.88,2,2,0,0,0-2.15-.51c.06.13.12.26.17.39.25.56.49,1.13.74,1.69a.31.31,0,0,1,0,.19.27.27,0,0,1-.28.25h-2.15Zm-4.87-4.56,3,3.71,1.61-3.71Zm5.62,1.71-.58-1.32-1.54,3.55h.8A3.08,3.08,0,0,1,277.87,242.06Zm-.75,2.23h1.72l-.73-1.66A2.42,2.42,0,0,0,277.12,244.29Z" transform="translate(-159.12 -70.99)"/><path class="cls-19" d="M315.85,96.2" transform="translate(-159.12 -70.99)"/><ellipse class="cls-20" cx="102.21" cy="57.95" rx="43.11" ry="57.95"/><rect class="cls-21" x="237.53" y="106.63" width="20.74" height="13.48" rx="4.43" ry="4.43" transform="translate(336.68 155.76) rotate(180)"/><rect class="cls-22" x="264.55" y="106.63" width="20.74" height="13.48" rx="4.43" ry="4.43" transform="translate(390.72 155.76) rotate(180)"/><ellipse class="cls-23" cx="88.78" cy="42.39" rx="2.06" ry="2.67"/><ellipse class="cls-23" cx="115.8" cy="42.39" rx="2.06" ry="2.67"/><path class="cls-24" d="M218.73,118.23,237,85.94s33.46,6.1,46.07,0l19.39,28.48s-5.19-23.78-17.42-33.53c-8.55-6.81-11.1-7.24-11.82-7.7a5,5,0,0,0-2.31-.64c-4.23-1.41-18.22-3.89-32.3,6.8C221.69,92.21,218.73,118.23,218.73,118.23Z" transform="translate(-159.12 -70.99)"/><path class="cls-25" d="M283.09,86.06l19.2,28.2S297.16,90.7,285,81.06C283.88,80.14,286.69,82.5,283.09,86.06Z" transform="translate(-159.12 -70.99)"/><path class="cls-26" d="M303.53,137.36s-40,56.95-85.86,0c0,0,4.87,48,43.11,50.57C260.78,187.93,297.52,189.25,303.53,137.36Z" transform="translate(-159.12 -70.99)"/><line class="cls-19" x1="90.84" y1="88.04" x2="113.74" y2="88.04"/><path class="cls-27" d="M250,159a20,20,0,0,1,5.73-2,30,30,0,0,1,5.72-.54,30.86,30.86,0,0,1,5.73.53,20,20,0,0,1,5.73,2,20,20,0,0,1-5.73,2,30.86,30.86,0,0,1-5.73.53,30,30,0,0,1-5.72-.54A20.29,20.29,0,0,1,250,159Z" transform="translate(-159.12 -70.99)"/><line class="cls-19" x1="89.59" y1="88.04" x2="115.22" y2="88.04"/><path class="cls-28" d="M248.71,159c2.14-.16,4.27-.23,6.41-.29s4.27-.05,6.41-.09,4.27,0,6.4.09,4.28.13,6.41.29c-2.13.16-4.27.23-6.41.29s-4.27.05-6.4.08-4.28,0-6.41-.08S250.85,159.18,248.71,159Z" transform="translate(-159.12 -70.99)"/><polyline class="cls-29" points="107.1 71.48 102.73 72.88 97.48 71.28 101.8 50.13"/><polyline class="cls-30" points="102.73 72.88 97.48 71.28 101.8 50.13"/><path class="cls-20" d="M264,113.21s-2.22-3-5.09,0" transform="translate(-159.12 -70.99)"/><path class="cls-31" d="M263.92,113.24a8.39,8.39,0,0,0-2.48-.47,5,5,0,0,0-1.07.13c-.2,0-.42.12-.66.16a5,5,0,0,1-.8.19l-.08-.07.54-.52a6.25,6.25,0,0,1,.61-.44,3,3,0,0,1,1.44-.45,3.35,3.35,0,0,1,2.58,1.42Z" transform="translate(-159.12 -70.99)"/><ellipse class="cls-32" cx="115.8" cy="42.39" rx="1.05" ry="1.36"/><ellipse class="cls-32" cx="88.78" cy="42.39" rx="1.05" ry="1.36"/><path class="cls-33" d="M217.67,137.36s11.14,35.57,26.47,44.72C244.14,182.08,226.33,179.42,217.67,137.36Z" transform="translate(-159.12 -70.99)"/></svg>