<svg id="Layer_1" data-name="Layer 1" xmlns="http://www.w3.org/2000/svg" xmlns:xlink="http://www.w3.org/1999/xlink" viewBox="0 0 211.52 417.9"><defs><style>.cls-1{fill:#e4e1c7;}.cls-2{fill:#512e2a;}.cls-3,.cls-4{fill:#9e2b20;}.cls-14,.cls-23,.cls-4,.cls-6{stroke:#231f20;}.cls-14,.cls-15,.cls-16,.cls-17,.cls-21,.cls-22,.cls-23,.cls-32,.cls-4,.cls-6,.cls-8{stroke-miterlimit:10;}.cls-5{fill:#231f20;}.cls-16,.cls-6,.cls-8{fill:none;}.cls-23,.cls-6{stroke-width:0.25px;}.cls-7{fill:#c2b59b;}.cls-8{stroke:#9b8579;}.cls-9{fill:#b1a58e;}.cls-10{fill:#9b8579;}.cls-11{fill:#1e4496;}.cls-12,.cls-17{fill:#234093;}.cls-13{fill:#124b9a;}.cls-14,.cls-15,.cls-20,.cls-21,.cls-22,.cls-23{fill:#fff;}.cls-15{stroke:#f9a560;}.cls-16{stroke:#283c91;}.cls-17{stroke:#262262;stroke-width:0.5px;}.cls-18{fill:#fff200;}.cls-19{fill:#d1d3d4;}.cls-21{stroke:url(#White_Black);}.cls-22{stroke:url(#White_Black-2);}.cls-24{fill:#fde79e;}.cls-25{fill:#fbeac8;}.cls-26{fill:#e5e1c5;}.cls-27{fill:#f9c9de;}.cls-28{fill:#8d536f;}.cls-29{fill:#e3e2db;}.cls-30{fill:#d0cca8;}.cls-31{fill:url(#White_Black-3);}.cls-32{fill:#2e3192;stroke:#00aeef;}.cls-33{fill:#cfcdb4;}</style><linearGradient id="White_Black" x1="264.74" y1="113.37" x2="287.43" y2="113.37" gradientTransform="matrix(1, 0, 0, -1, -28.69, 226.75)" gradientUnits="userSpaceOnUse"><stop offset="0" stop-color="#fff"/><stop offset="1" stop-color="#231f20"/></linearGradient><linearGradient id="White_Black-2" x1="236.49" y1="113.37" x2="259.18" y2="113.37" gradientTransform="matrix(1, 0, 0, -1, 27.83, 226.75)" xlink:href="#White_Black"/><linearGradient id="White_Black-3" x1="264.58" y1="112.51" x2="258.51" y2="112.51" gradientTransform="matrix(1, 0, 0, 1, 0, 0)" xlink:href="#White_Black"/></defs><title>4</title><polyline class="cls-1" points="128.19 334.96 121.59 400.24 114.15 399.87 113.4 334.22"/><polyline class="cls-1" points="82.09 334.96 88.7 400.24 96.14 399.87 96.88 334.22"/><path class="cls-2" d="M230.77,475.18s-20.25,10.71-7.52,12.21l12.73,1.5h16.19s6.73-4.74,6.73-11.59" transform="translate(-154.56 -70.99)"/><path class="cls-2" d="M286.2,475.18s20.24,10.71,7.52,12.21L281,488.89H264.8s-5.9-4.74-5.9-11.59" transform="translate(-154.56 -70.99)"/><path class="cls-3" d="M244.2,470.46s-33.1,10.7-20.38,12.2l12.73,1.49h16.19s6.16,0,6.16-6.85l-7.23-6.23h-.53" transform="translate(-154.56 -70.99)"/><path class="cls-3" d="M266.6,470.13l-7.39,7.17c0,6.85,6.16,6.85,6.16,6.85h16.19l12.73-1.49c12.73-1.5-18.15-12.21-18.15-12.21" transform="translate(-154.56 -70.99)"/><path class="cls-4" d="M259.31,477" transform="translate(-154.56 -70.99)"/><path class="cls-5" d="M270.57,414.52v2.22a3.22,3.22,0,0,1,0,.62,3.21,3.21,0,0,0,0-.62v-2.22a2.57,2.57,0,0,1,0-.62,2.57,2.57,0,0,0,0,.62Z" transform="translate(-154.56 -70.99)"/><path class="cls-5" d="M275.4,418.15v1.21a3.22,3.22,0,0,1,0,.62,3.2,3.2,0,0,0,0-.62v-1.21a3.22,3.22,0,0,1,0-.62,3.2,3.2,0,0,0,0,.62Z" transform="translate(-154.56 -70.99)"/><path class="cls-5" d="M277,422v1.21a2.57,2.57,0,0,1,0,.62,2.57,2.57,0,0,0,0-.62V422a3.33,3.33,0,0,1,0-.63,3.32,3.32,0,0,0,0,.63Z" transform="translate(-154.56 -70.99)"/><path class="cls-5" d="M280,421.78v.2a3.22,3.22,0,0,1,0,.62,3.21,3.21,0,0,0,0-.62v-.2a2.66,2.66,0,0,1,0-.63,2.66,2.66,0,0,0,0,.63Z" transform="translate(-154.56 -70.99)"/><path class="cls-5" d="M274,429.86s0-1.25,0-1.25,0,1.25,0,1.25Z" transform="translate(-154.56 -70.99)"/><path class="cls-5" d="M271.38,422v1.41a3.21,3.21,0,0,1,0,.62,3.21,3.21,0,0,0,0-.62V422a3.33,3.33,0,0,1,0-.63,3.32,3.32,0,0,0,0,.63Z" transform="translate(-154.56 -70.99)"/><path class="cls-5" d="M271.58,431v1.62a2.57,2.57,0,0,1,0,.62,2.57,2.57,0,0,0,0-.62V431a3.21,3.21,0,0,1,0-.62,3.21,3.21,0,0,0,0,.62Z" transform="translate(-154.56 -70.99)"/><path class="cls-5" d="M277.82,434.07v.6a3.33,3.33,0,0,1,0,.63,3.32,3.32,0,0,0,0-.63v-.6a3.33,3.33,0,0,1,0-.63,3.32,3.32,0,0,0,0,.63Z" transform="translate(-154.56 -70.99)"/><path class="cls-5" d="M275.81,436.28v1.62a2.57,2.57,0,0,1,0,.62,2.57,2.57,0,0,0,0-.62v-1.62a3.21,3.21,0,0,1,0-.62,3.21,3.21,0,0,0,0,.62Z" transform="translate(-154.56 -70.99)"/><path class="cls-5" d="M273.19,437.29v1a2.57,2.57,0,0,1,0,.62,2.57,2.57,0,0,0,0-.62v-1a3.22,3.22,0,0,1,0-.62,3.21,3.21,0,0,0,0,.62Z" transform="translate(-154.56 -70.99)"/><path class="cls-5" d="M271.17,437.49v.2a3.33,3.33,0,0,1,0,.63,3.32,3.32,0,0,0,0-.63v-.2a3.22,3.22,0,0,1,0-.62,3.21,3.21,0,0,0,0,.62Z" transform="translate(-154.56 -70.99)"/><path class="cls-5" d="M270.77,441.72v1a3.32,3.32,0,0,1,0,.63,3.31,3.31,0,0,0,0-.63v-1a2.57,2.57,0,0,1,0-.62,2.57,2.57,0,0,0,0,.62Z" transform="translate(-154.56 -70.99)"/><path class="cls-5" d="M276.82,443.34v.6a3.21,3.21,0,0,1,0,.62,3.2,3.2,0,0,0,0-.62v-.6a3.33,3.33,0,0,1,0-.63,3.32,3.32,0,0,0,0,.63Z" transform="translate(-154.56 -70.99)"/><path class="cls-5" d="M274.8,446v.21a3.21,3.21,0,0,1,0,.62,3.21,3.21,0,0,0,0-.62V446a2.57,2.57,0,0,1,0-.62,2.57,2.57,0,0,0,0,.62Z" transform="translate(-154.56 -70.99)"/><path class="cls-5" d="M272,449v1.21a3.21,3.21,0,0,1,0,.62,3.21,3.21,0,0,0,0-.62V449a2.66,2.66,0,0,1,0-.63,2.66,2.66,0,0,0,0,.63Z" transform="translate(-154.56 -70.99)"/><path class="cls-5" d="M276,451.6v.2a3.22,3.22,0,0,1,0,.62,3.21,3.21,0,0,0,0-.62v-.2a2.66,2.66,0,0,1,0-.63,2.66,2.66,0,0,0,0,.63Z" transform="translate(-154.56 -70.99)"/><path class="cls-5" d="M272.59,454.24s0-1.25,0-1.25,0,1.25,0,1.25Z" transform="translate(-154.56 -70.99)"/><path class="cls-5" d="M279.64,412.71v.81a3.21,3.21,0,0,1,0,.62,2.57,2.57,0,0,0,0-.62v-.81a3.22,3.22,0,0,1,0-.62,3.21,3.21,0,0,0,0,.62Z" transform="translate(-154.56 -70.99)"/><path class="cls-5" d="M272,411.1s0-1.25,0-1.25,0,1.25,0,1.25Z" transform="translate(-154.56 -70.99)"/><path class="cls-5" d="M276,409.9v-1.25s0,1.25,0,1.25Z" transform="translate(-154.56 -70.99)"/><path class="cls-5" d="M275.61,410.7v.6a3.21,3.21,0,0,1,0,.62,2.56,2.56,0,0,0,0-.62v-.6a3.33,3.33,0,0,1,0-.63,3.32,3.32,0,0,0,0,.63Z" transform="translate(-154.56 -70.99)"/><path class="cls-5" d="M280.64,408.88v1a3.22,3.22,0,0,1,0,.62,3.2,3.2,0,0,0,0-.62v-1a3.22,3.22,0,0,1,0-.62,3.21,3.21,0,0,0,0,.62Z" transform="translate(-154.56 -70.99)"/><path class="cls-5" d="M244.38,409.27v.4a3.31,3.31,0,0,1,0,.63,2.66,2.66,0,0,0,0-.63v-.4a3.22,3.22,0,0,1,0-.62,3.21,3.21,0,0,0,0,.62Z" transform="translate(-154.56 -70.99)"/><path class="cls-5" d="M248.82,409.31v-1.25s0,1.25,0,1.25Z" transform="translate(-154.56 -70.99)"/><path class="cls-6" d="M281.56,414a2,2,0,0,0,.64,2.18" transform="translate(-154.56 -70.99)"/><path class="cls-6" d="M281.53,411.07a2,2,0,0,1,.7,1.62" transform="translate(-154.56 -70.99)"/><path class="cls-6" d="M277,411.75a1.07,1.07,0,0,1-.55,1.22" transform="translate(-154.56 -70.99)"/><path class="cls-6" d="M271.39,411.94v1.5" transform="translate(-154.56 -70.99)"/><path class="cls-6" d="M268.77,411.19a2.15,2.15,0,0,1-.82,1.44" transform="translate(-154.56 -70.99)"/><path class="cls-6" d="M267.94,409.13a2.32,2.32,0,0,1-.5,1.48" transform="translate(-154.56 -70.99)"/><path class="cls-6" d="M268.58,414.84a3.35,3.35,0,0,0-.86,1.78" transform="translate(-154.56 -70.99)"/><path class="cls-6" d="M269.44,420a2.06,2.06,0,0,1-.49,1.12" transform="translate(-154.56 -70.99)"/><path class="cls-6" d="M272.49,416.26a1.31,1.31,0,0,1-.23,1.23" transform="translate(-154.56 -70.99)"/><path class="cls-6" d="M275.91,415.75a6.64,6.64,0,0,1,1.1.88" transform="translate(-154.56 -70.99)"/><path class="cls-6" d="M278.6,420.28l.48.65" transform="translate(-154.56 -70.99)"/><path class="cls-6" d="M274.48,420v.93" transform="translate(-154.56 -70.99)"/><path class="cls-6" d="M280.6,422.7a1.34,1.34,0,0,1,.24,1.13" transform="translate(-154.56 -70.99)"/><path class="cls-6" d="M279.72,426.09l.86,1.3" transform="translate(-154.56 -70.99)"/><path class="cls-6" d="M273,424.86a2.8,2.8,0,0,1-.91,1.34" transform="translate(-154.56 -70.99)"/><path class="cls-6" d="M269.52,425a1.92,1.92,0,0,1-1,1.71" transform="translate(-154.56 -70.99)"/><path class="cls-6" d="M269.24,431.15a1.72,1.72,0,0,1-.38,1.11" transform="translate(-154.56 -70.99)"/><path class="cls-6" d="M274.86,429.46v1" transform="translate(-154.56 -70.99)"/><path class="cls-6" d="M276.45,429.28a1,1,0,0,1,.75.46" transform="translate(-154.56 -70.99)"/><path class="cls-6" d="M280.1,430.78l.84.47" transform="translate(-154.56 -70.99)"/><path class="cls-6" d="M279.48,432.75a2.32,2.32,0,0,0,.61,2.25" transform="translate(-154.56 -70.99)"/><path class="cls-6" d="M268.61,434.85a2.07,2.07,0,0,1-1.06.27" transform="translate(-154.56 -70.99)"/><path class="cls-5" d="M248.69,415.35v2.21a3.33,3.33,0,0,1,0,.63,3.32,3.32,0,0,0,0-.63v-2.21a3.33,3.33,0,0,1,0-.63,3.32,3.32,0,0,0,0,.63Z" transform="translate(-154.56 -70.99)"/><path class="cls-5" d="M243.86,419v1.21a2.66,2.66,0,0,1,0,.63,2.66,2.66,0,0,0,0-.63V419a3.21,3.21,0,0,1,0-.62,3.21,3.21,0,0,0,0,.62Z" transform="translate(-154.56 -70.99)"/><path class="cls-5" d="M242.25,422.8V424a2.66,2.66,0,0,1,0,.63,2.66,2.66,0,0,0,0-.63V422.8a3.21,3.21,0,0,1,0-.62,3.21,3.21,0,0,0,0,.62Z" transform="translate(-154.56 -70.99)"/><path class="cls-5" d="M239.22,422.6v.2a3.33,3.33,0,0,1,0,.63,3.32,3.32,0,0,0,0-.63v-.2a3.22,3.22,0,0,1,0-.62,3.21,3.21,0,0,0,0,.62Z" transform="translate(-154.56 -70.99)"/><path class="cls-5" d="M245.28,430.68v-1.25s0,1.25,0,1.25Z" transform="translate(-154.56 -70.99)"/><path class="cls-5" d="M247.89,422.8v1.41a2.66,2.66,0,0,1,0,.63,2.66,2.66,0,0,0,0-.63V422.8a3.21,3.21,0,0,1,0-.62,3.21,3.21,0,0,0,0,.62Z" transform="translate(-154.56 -70.99)"/><path class="cls-5" d="M247.69,431.87v1.61a2.66,2.66,0,0,1,0,.63,2.66,2.66,0,0,0,0-.63v-1.61a3.32,3.32,0,0,1,0-.63,3.31,3.31,0,0,0,0,.63Z" transform="translate(-154.56 -70.99)"/><path class="cls-5" d="M241.44,434.89v.61a3.21,3.21,0,0,1,0,.62,3.21,3.21,0,0,0,0-.62v-.61a2.57,2.57,0,0,1,0-.62,2.57,2.57,0,0,0,0,.62Z" transform="translate(-154.56 -70.99)"/><path class="cls-5" d="M243.46,437.11v1.61a3.21,3.21,0,0,1,0,.62,2.56,2.56,0,0,0,0-.62v-1.61a3.33,3.33,0,0,1,0-.63,3.32,3.32,0,0,0,0,.63Z" transform="translate(-154.56 -70.99)"/><path class="cls-5" d="M246.07,438.12v1a3.33,3.33,0,0,1,0,.63,3.32,3.32,0,0,0,0-.63v-1a3.33,3.33,0,0,1,0-.63,3.32,3.32,0,0,0,0,.63Z" transform="translate(-154.56 -70.99)"/><path class="cls-5" d="M248.09,438.32v.2a3.22,3.22,0,0,1,0,.62,3.21,3.21,0,0,0,0-.62v-.2a2.66,2.66,0,0,1,0-.63,2.66,2.66,0,0,0,0,.63Z" transform="translate(-154.56 -70.99)"/><path class="cls-5" d="M248.49,442.55v1a3.21,3.21,0,0,1,0,.62,3.21,3.21,0,0,0,0-.62v-1a3.33,3.33,0,0,1,0-.63,3.32,3.32,0,0,0,0,.63Z" transform="translate(-154.56 -70.99)"/><path class="cls-5" d="M242.45,444.16v.6a2.66,2.66,0,0,1,0,.63,2.66,2.66,0,0,0,0-.63v-.6a3.32,3.32,0,0,1,0-.63,3.32,3.32,0,0,0,0,.63Z" transform="translate(-154.56 -70.99)"/><path class="cls-5" d="M244.46,446.78v.2a3.32,3.32,0,0,1,0,.63,3.32,3.32,0,0,0,0-.63v-.2a3.32,3.32,0,0,1,0-.63,3.32,3.32,0,0,0,0,.63Z" transform="translate(-154.56 -70.99)"/><path class="cls-5" d="M247.28,449.8V451a3.32,3.32,0,0,1,0,.63,3.32,3.32,0,0,0,0-.63V449.8a3.22,3.22,0,0,1,0-.62,3.21,3.21,0,0,0,0,.62Z" transform="translate(-154.56 -70.99)"/><path class="cls-5" d="M243.25,452.42v.2a3.33,3.33,0,0,1,0,.63,3.32,3.32,0,0,0,0-.63v-.2a3.22,3.22,0,0,1,0-.62,3.2,3.2,0,0,0,0,.62Z" transform="translate(-154.56 -70.99)"/><path class="cls-5" d="M246.69,455.06s0-1.25,0-1.25,0,1.25,0,1.25Z" transform="translate(-154.56 -70.99)"/><path class="cls-5" d="M239.63,413.53v.81a2.66,2.66,0,0,1,0,.63,2.66,2.66,0,0,0,0-.63v-.81a3.21,3.21,0,0,1,0-.62,3.21,3.21,0,0,0,0,.62Z" transform="translate(-154.56 -70.99)"/><path class="cls-5" d="M247.29,409.93s0-1.25,0-1.25,0,1.25,0,1.25Z" transform="translate(-154.56 -70.99)"/><path class="cls-5" d="M243.26,410.72s0-1.25,0-1.25,0,1.25,0,1.25Z" transform="translate(-154.56 -70.99)"/><path class="cls-5" d="M243.66,411.52v.6a2.66,2.66,0,0,1,0,.63,2.66,2.66,0,0,0,0-.63v-.6a3.32,3.32,0,0,1,0-.63,3.32,3.32,0,0,0,0,.63Z" transform="translate(-154.56 -70.99)"/><path class="cls-5" d="M238.62,409.71v1a3.33,3.33,0,0,1,0,.63,3.31,3.31,0,0,0,0-.63v-1a2.66,2.66,0,0,1,0-.63,2.66,2.66,0,0,0,0,.63Z" transform="translate(-154.56 -70.99)"/><path class="cls-6" d="M237.72,414.84a2,2,0,0,1-.64,2.19" transform="translate(-154.56 -70.99)"/><path class="cls-6" d="M237.74,411.89a2,2,0,0,0-.7,1.62" transform="translate(-154.56 -70.99)"/><path class="cls-6" d="M242.28,412.58a1.07,1.07,0,0,0,.54,1.22" transform="translate(-154.56 -70.99)"/><path class="cls-6" d="M247.88,412.76v1.5" transform="translate(-154.56 -70.99)"/><path class="cls-6" d="M250.5,412a2.14,2.14,0,0,0,.82,1.44" transform="translate(-154.56 -70.99)"/><path class="cls-6" d="M251.34,410a2.3,2.3,0,0,0,.49,1.49" transform="translate(-154.56 -70.99)"/><path class="cls-6" d="M250.7,415.66a3.26,3.26,0,0,1,.85,1.78" transform="translate(-154.56 -70.99)"/><path class="cls-6" d="M249.84,420.82a2,2,0,0,0,.49,1.12" transform="translate(-154.56 -70.99)"/><path class="cls-6" d="M246.78,417.08a1.33,1.33,0,0,0,.24,1.23" transform="translate(-154.56 -70.99)"/><path class="cls-6" d="M243.37,416.57a6.74,6.74,0,0,0-1.1.88" transform="translate(-154.56 -70.99)"/><path class="cls-6" d="M240.68,421.11l-.48.64" transform="translate(-154.56 -70.99)"/><path class="cls-6" d="M244.79,420.82v.94" transform="translate(-154.56 -70.99)"/><path class="cls-6" d="M238.68,423.52a1.37,1.37,0,0,0-.25,1.14" transform="translate(-154.56 -70.99)"/><path class="cls-6" d="M239.55,426.91l-.85,1.31" transform="translate(-154.56 -70.99)"/><path class="cls-6" d="M246.3,425.69a2.87,2.87,0,0,0,.91,1.33" transform="translate(-154.56 -70.99)"/><path class="cls-6" d="M249.75,425.79a1.92,1.92,0,0,0,1,1.71" transform="translate(-154.56 -70.99)"/><path class="cls-6" d="M250,432a1.7,1.7,0,0,0,.39,1.12" transform="translate(-154.56 -70.99)"/><path class="cls-6" d="M244.42,430.28v1" transform="translate(-154.56 -70.99)"/><path class="cls-6" d="M242.83,430.1a1.06,1.06,0,0,0-.76.46" transform="translate(-154.56 -70.99)"/><path class="cls-6" d="M239.18,431.61l-.85.46" transform="translate(-154.56 -70.99)"/><path class="cls-6" d="M239.79,433.57a2.33,2.33,0,0,1-.6,2.26" transform="translate(-154.56 -70.99)"/><path class="cls-6" d="M250.67,435.67a2,2,0,0,0,1.05.27" transform="translate(-154.56 -70.99)"/><polygon class="cls-7" points="75.95 336.55 137.07 336.55 153.93 271.16 59.09 271.16 75.95 336.55"/><line class="cls-8" x1="106.01" y1="283.69" x2="106.01" y2="336.55"/><path class="cls-9" d="M222.77,354l13.13,53.16h-5.72l-15.43-61S221.14,352.69,222.77,354Z" transform="translate(-154.56 -70.99)"/><path class="cls-9" d="M287.42,379.87l4.12,3.08,7.76-5.21L302,376l-1.37-3.24s-8.69,7.63-13.18,7.16l-2,15.94s8.32-.17,10.46-4.74l3.3-12.8" transform="translate(-154.56 -70.99)"/><path class="cls-10" d="M287.42,379.87l4.16,3h-.08c3.44-2.39,6.91-4.73,10.38-7.08l-.06.19-1.38-3.23.27.06a51.79,51.79,0,0,1-6.13,4.59,25,25,0,0,1-3.38,1.83,8.1,8.1,0,0,1-3.81.85l.27-.21c-.65,5.31-1.38,10.62-2.06,15.93l-.2-.21a22.56,22.56,0,0,0,3-.33,16.59,16.59,0,0,0,2.87-.75,9.83,9.83,0,0,0,2.62-1.34,6.17,6.17,0,0,0,1.9-2.19v0c1.1-4.27,2.3-8.52,3.44-12.77-1.06,4.28-2.07,8.57-3.17,12.84h0a6.5,6.5,0,0,1-2,2.32,10.6,10.6,0,0,1-2.69,1.4,16.26,16.26,0,0,1-2.91.79,20.27,20.27,0,0,1-3,.36h-.22l0-.23c.65-5.31,1.27-10.63,2-15.94l0-.23.23,0a7.7,7.7,0,0,0,3.58-.78,25.53,25.53,0,0,0,3.35-1.77,52.61,52.61,0,0,0,6.12-4.5l.18-.16.09.22,1.35,3.25.06.12-.11.07c-3.49,2.32-7,4.65-10.49,6.92l0,0,0,0Z" transform="translate(-154.56 -70.99)"/><path class="cls-9" d="M234.84,379.87,230.73,383,223,377.74,220.29,376l1.37-3.24s8.69,7.63,13.18,7.16l2,15.94s-8.32-.17-10.46-4.74l-3.3-12.8" transform="translate(-154.56 -70.99)"/><path class="cls-10" d="M234.84,379.87,230.76,383l0,0,0,0c-3.51-2.27-7-4.6-10.48-6.92l-.11-.07.05-.12,1.35-3.25.09-.22.19.16a51.77,51.77,0,0,0,6.12,4.5,25.41,25.41,0,0,0,3.34,1.77,7.7,7.7,0,0,0,3.58.78l.23,0,0,.23c.69,5.31,1.31,10.63,2,15.94l0,.23h-.23a20.14,20.14,0,0,1-3-.36,16.59,16.59,0,0,1-2.92-.79,10.6,10.6,0,0,1-2.69-1.4,6.6,6.6,0,0,1-2-2.32h0c-1.1-4.27-2.11-8.56-3.16-12.84,1.14,4.25,2.33,8.5,3.43,12.77v0a6.26,6.26,0,0,0,1.9,2.19,10,10,0,0,0,2.62,1.34,16.83,16.83,0,0,0,2.87.75,22.76,22.76,0,0,0,3,.33l-.19.21c-.69-5.31-1.41-10.62-2.06-15.93l.26.21a8.12,8.12,0,0,1-3.81-.85,25.64,25.64,0,0,1-3.38-1.83,51.79,51.79,0,0,1-6.13-4.59l.27-.06L220.44,376l-.06-.19c3.47,2.35,6.94,4.69,10.38,7.08h-.07Z" transform="translate(-154.56 -70.99)"/><path class="cls-9" d="M261.06,369.14a52.19,52.19,0,0,0,7.2-.5l-.86,38.89h-6.34Z" transform="translate(-154.56 -70.99)"/><path class="cls-11" d="M299.65,172.84s108.79,17,47.91,155.46L331.39,319" transform="translate(-154.56 -70.99)"/><path class="cls-12" d="M221,172.84s-108.8,17-47.91,155.46L189.24,319" transform="translate(-154.56 -70.99)"/><ellipse class="cls-13" cx="106.14" cy="196.11" rx="81.08" ry="107.68"/><path class="cls-14" d="M215.59,340" transform="translate(-154.56 -70.99)"/><path class="cls-15" d="M175.56,327.06s5,9.88,19.15,6.64l1.31-.85.28-.32s-6.69-12.24-7-14.26" transform="translate(-154.56 -70.99)"/><path class="cls-15" d="M346.08,328.11s-5,9.89-19.15,6.64l-1.32-.84-.27-.32s6.68-12.24,7-14.26" transform="translate(-154.56 -70.99)"/><polyline class="cls-16" points="106.62 302.54 106.62 119.86 118.31 131.59 140.6 107.88"/><path class="cls-17" d="M206.31,229.84s-8.66,20.36-5,29.18l9.86,6.45,12-4.41,5.52-29.19" transform="translate(-154.56 -70.99)"/><polyline class="cls-16" points="104.96 302.54 104.96 119.86 93.27 131.59 70.98 107.88"/><path class="cls-18" d="M221.11,200l.06-.19a2.9,2.9,0,0,1,.67-1.07,2.74,2.74,0,0,1,2-.88,2.68,2.68,0,0,1,1.26.32s0,0,.06,0l1.74-2.79a.89.89,0,0,1,.84-.44l.1,0,1,.24h0l-.13.6h0l-.91-.23a.3.3,0,0,0-.37.15c-.17.28-.34.56-.52.84l0,0h0l4.67,1.17s0,0,.06,0l.35-.46,0,0h0l-.79-.2a.29.29,0,0,1-.22-.25.32.32,0,0,1,.15-.31.28.28,0,0,1,.22,0l2.12.53h0l-.13.59h0l-.63-.15s0,0-.06,0l-.56.73a.17.17,0,0,0,0,.05c.13.63.25,1.25.38,1.87v0h.27a2.73,2.73,0,0,1,1,.17,2.86,2.86,0,0,1,1.56,1.37,3,3,0,0,1,.36,1.6,3,3,0,0,1-1.47,2.49,2.63,2.63,0,0,1-1.62.37,2.3,2.3,0,0,1-.26,0h0l-.31-.08,0,0a3.57,3.57,0,0,1-.45-.19,2.84,2.84,0,0,1-1.29-1.38,3,3,0,0,1-.27-1.56c0-.06,0-.11,0-.17h-.05l-1.17-.29a.34.34,0,0,1-.24-.2c-.12-.23-.23-.46-.35-.7-.31-.61-.62-1.23-.94-1.84l-.81-1.62-.15-.3-.52.83h0l0,0a3,3,0,0,1,1,2.63,2.84,2.84,0,0,1-.29,1,2.89,2.89,0,0,1-1.68,1.52,2.63,2.63,0,0,1-1.21.13l-.19,0-.32-.08h0l-.42-.18a2.93,2.93,0,0,1-1.48-1.83,2.82,2.82,0,0,1-.1-1.19,1.49,1.49,0,0,1,0-.21Zm4.22-.95,0,0-.87,1.4c-.11.16-.21.33-.32.5a.27.27,0,0,1-.38.1.31.31,0,0,1-.09-.44l1.18-1.89,0,0a2.22,2.22,0,0,0-2.94.92,2.44,2.44,0,0,0,.72,3.23,2.22,2.22,0,0,0,3.13-.67A2.44,2.44,0,0,0,225.33,199.06Zm5.15,3.74a2.42,2.42,0,0,0,1.19,2.4,2.2,2.2,0,0,0,2.77-.51,2.48,2.48,0,0,0,.21-2.92,2.21,2.21,0,0,0-2.07-1c0,.14,0,.28.08.42.13.61.25,1.22.37,1.83a.25.25,0,0,1,0,.19.29.29,0,0,1-.35.18l-2.14-.53Zm-3.93-5.67,2.21,4.37,2.47-3.21Zm5.33,3.09-.29-1.43-2.36,3.06.81.21A3,3,0,0,1,231.88,200.22Zm-1.25,2,1.74.44-.37-1.8A2.35,2.35,0,0,0,230.63,202.2Z" transform="translate(-154.56 -70.99)"/><path class="cls-18" d="M225.85,221.2a1.23,1.23,0,0,0,0-.19,3,3,0,0,1,.41-1.21,2.83,2.83,0,0,1,1.81-1.35,2.68,2.68,0,0,1,1.29,0s0,0,.05,0l1.08-3.14a.9.9,0,0,1,.71-.63h1.13v.61h-1a.31.31,0,0,0-.33.24l-.32.93a.09.09,0,0,0,0,.05h4.83a.05.05,0,0,0,.06,0l.24-.52,0,0H235a.29.29,0,0,1-.27-.19.32.32,0,0,1,.07-.34.28.28,0,0,1,.21-.08h2.22v.61h-.69a0,0,0,0,0-.05,0l-.39.85a.06.06,0,0,0,0,.06l.78,1.72v0l.27-.08a2.69,2.69,0,0,1,1-.07,2.83,2.83,0,0,1,1.83,1,2.88,2.88,0,0,1,.7,1.47,3,3,0,0,1-.87,2.78,2.77,2.77,0,0,1-1.49.76l-.26,0h-.4c-.16,0-.32,0-.47-.08a2.83,2.83,0,0,1-1.57-1,3.07,3.07,0,0,1-.61-1.45c0-.06,0-.12,0-.17h-.05c-.4,0-.8,0-1.2,0a.35.35,0,0,1-.28-.13l-.49-.6-1.32-1.57c-.39-.45-.77-.91-1.16-1.37l-.21-.25-.32.93h0l0,0a3,3,0,0,1,1.58,2.3,3.08,3.08,0,0,1-1.35,2.95,2.67,2.67,0,0,1-1.15.42l-.18,0h-.37a3.35,3.35,0,0,1-.44-.07,2.87,2.87,0,0,1-1.85-1.42,3,3,0,0,1-.37-1.14,1.23,1.23,0,0,0,0-.2Zm3.9-1.94s0,0,0,0l-.54,1.57c-.06.19-.13.37-.19.56a.3.3,0,0,1-.36.2.31.31,0,0,1-.18-.41c.24-.71.48-1.42.73-2.13v0a2.27,2.27,0,0,0-2.66,1.61,2.41,2.41,0,0,0,1.43,3,2.25,2.25,0,0,0,2.88-1.41A2.41,2.41,0,0,0,229.75,219.26Zm5.84,2.39a2.33,2.33,0,0,0,1.68,2,2.23,2.23,0,0,0,2.59-1.16,2.47,2.47,0,0,0-.45-2.89,2.15,2.15,0,0,0-2.24-.51l.18.39.76,1.69a.31.31,0,0,1,0,.19.29.29,0,0,1-.3.26h-2.25Zm-5.08-4.57,3.12,3.71,1.68-3.71Zm5.87,1.72-.61-1.33L234.16,221H235A3,3,0,0,1,236.38,218.8ZM235.6,221h1.79l-.75-1.66A2.41,2.41,0,0,0,235.6,221Z" transform="translate(-154.56 -70.99)"/><path class="cls-18" d="M234.43,242.43l0-.19a3,3,0,0,1,.4-1.21,2.83,2.83,0,0,1,1.81-1.35,2.68,2.68,0,0,1,1.29,0s0,0,0,0l1.08-3.14a.91.91,0,0,1,.72-.63h1.13v.61h-1a.31.31,0,0,0-.33.24c-.1.31-.21.62-.32.93,0,0,0,0,0,0h4.84s0,0,.05,0l.24-.52,0,0h-.86a.3.3,0,0,1-.27-.19.33.33,0,0,1,.08-.34.24.24,0,0,1,.2-.08h2.22v.61h-.69a0,0,0,0,0,0,0l-.39.85V238l.78,1.72,0,0,.26-.08a2.69,2.69,0,0,1,1-.07,2.81,2.81,0,0,1,1.83.95,2.88,2.88,0,0,1,.7,1.47,3,3,0,0,1-.87,2.77,2.72,2.72,0,0,1-1.49.77l-.26,0h-.4c-.16,0-.32,0-.47-.08a2.87,2.87,0,0,1-1.57-1,3.07,3.07,0,0,1-.61-1.45.88.88,0,0,0,0-.17h-1.25a.35.35,0,0,1-.27-.13l-.5-.6-1.32-1.57-1.15-1.37-.22-.26-.32.94h0l0,0a2.94,2.94,0,0,1,1.57,2.3,2.9,2.9,0,0,1,0,1.06,3,3,0,0,1-1.31,1.89,2.62,2.62,0,0,1-1.15.42l-.18,0h-.37a3.64,3.64,0,0,1-.44-.07,3,3,0,0,1-2.21-2.56l0-.2Zm3.91-1.94a.05.05,0,0,0,0,0l-.54,1.57c-.06.19-.13.37-.19.56a.29.29,0,0,1-.35.2.31.31,0,0,1-.19-.42c.24-.7.49-1.41.73-2.12v0a2.26,2.26,0,0,0-2.65,1.61,2.39,2.39,0,0,0,1.42,3,2.26,2.26,0,0,0,2.89-1.41A2.41,2.41,0,0,0,238.34,240.49Zm5.83,2.39a2.36,2.36,0,0,0,1.69,2,2.25,2.25,0,0,0,2.59-1.17,2.47,2.47,0,0,0-.46-2.88,2.15,2.15,0,0,0-2.24-.51l.18.39.76,1.69a.25.25,0,0,1,0,.19.29.29,0,0,1-.3.26h-2.25Zm-5.08-4.57,3.12,3.71,1.69-3.71ZM245,240l-.6-1.33-1.61,3.55h.83A3,3,0,0,1,245,240Zm-.78,2.22H246l-.75-1.66A2.41,2.41,0,0,0,244.18,242.25Z" transform="translate(-154.56 -70.99)"/><path class="cls-18" d="M237.64,268.79a1.36,1.36,0,0,1,0-.2,3,3,0,0,1,.4-1.21,2.9,2.9,0,0,1,1.81-1.35,2.68,2.68,0,0,1,1.29,0s.05,0,.06,0c.36-1.05.71-2.1,1.08-3.14a.9.9,0,0,1,.71-.63h1.13v.61h-1a.31.31,0,0,0-.33.25c-.1.31-.21.62-.32.93a.08.08,0,0,1,0,0h4.84s0,0,.06,0,.16-.35.24-.53l0-.05h-.86a.29.29,0,0,1-.28-.19.33.33,0,0,1,.08-.34.32.32,0,0,1,.2-.08H249v.61h-.69a.05.05,0,0,0-.05,0c-.13.28-.26.56-.38.85,0,0,0,0,0,.05.26.58.52,1.15.79,1.72v0l.26-.08a2.75,2.75,0,0,1,2.81.88,3.09,3.09,0,0,1-.17,4.24,2.61,2.61,0,0,1-1.49.76,2.06,2.06,0,0,1-.26,0h-.4a4.11,4.11,0,0,1-.47-.07,2.81,2.81,0,0,1-1.56-1,2.94,2.94,0,0,1-.61-1.45.88.88,0,0,1,0-.17h-1.25a.33.33,0,0,1-.28-.13l-.5-.59-1.32-1.57-1.15-1.37-.22-.26-.32.93h0l0,0a3,3,0,0,1,1.58,2.31,2.9,2.9,0,0,1-.05,1.06,3,3,0,0,1-1.31,1.89,2.63,2.63,0,0,1-1.14.42l-.19,0h-.36c-.15,0-.3,0-.44-.06a2.87,2.87,0,0,1-1.86-1.43,2.83,2.83,0,0,1-.36-1.13,1.49,1.49,0,0,1,0-.21Zm3.9-2,0,0-.54,1.57c-.06.19-.12.38-.19.57a.28.28,0,0,1-.35.19.31.31,0,0,1-.19-.41c.25-.71.49-1.42.73-2.12v-.05a2.27,2.27,0,0,0-2.65,1.62,2.39,2.39,0,0,0,1.42,3,2.25,2.25,0,0,0,2.89-1.41A2.42,2.42,0,0,0,241.54,266.84Zm5.84,2.39a2.34,2.34,0,0,0,1.68,2,2.24,2.24,0,0,0,2.59-1.17,2.49,2.49,0,0,0-.45-2.88,2.2,2.2,0,0,0-2.25-.52l.18.4c.26.56.51,1.12.77,1.69a.38.38,0,0,1,0,.18.3.3,0,0,1-.31.26h-2.24Zm-5.09-4.57,3.12,3.72,1.69-3.72Zm5.87,1.72-.6-1.32L246,268.61h.83A3.07,3.07,0,0,1,248.16,266.38Zm-.78,2.23h1.8l-.76-1.66A2.45,2.45,0,0,0,247.38,268.61Z" transform="translate(-154.56 -70.99)"/><path class="cls-18" d="M237.64,296.4a1.23,1.23,0,0,1,0-.19,3,3,0,0,1,.4-1.21,2.83,2.83,0,0,1,1.81-1.35,2.56,2.56,0,0,1,1.29,0s.05,0,.06,0c.36-1.05.71-2.09,1.08-3.14a.9.9,0,0,1,.71-.63h1.13v.61h-1a.31.31,0,0,0-.33.24c-.1.31-.21.62-.32.93a.11.11,0,0,1,0,.05h4.84s0,0,.06,0,.16-.35.24-.53c0,0,0,0,0,0h-.86a.3.3,0,0,1-.28-.2.31.31,0,0,1,.08-.33.27.27,0,0,1,.2-.08H249v.61h-.69a.05.05,0,0,0-.05,0c-.13.28-.26.57-.38.85a.11.11,0,0,0,0,.05c.26.58.52,1.15.79,1.73v0l.26-.08a2.54,2.54,0,0,1,1-.07,2.78,2.78,0,0,1,1.82,1,3.09,3.09,0,0,1-.17,4.24,2.61,2.61,0,0,1-1.49.76l-.26,0h-.4c-.15,0-.31,0-.47-.08a2.81,2.81,0,0,1-1.56-1,2.9,2.9,0,0,1-.61-1.45.88.88,0,0,1,0-.17h-1.25a.31.31,0,0,1-.28-.13c-.17-.19-.33-.39-.5-.59l-1.32-1.57-1.15-1.37-.22-.26-.32.94h0a3,3,0,0,1,1.58,2.31,2.9,2.9,0,0,1-.05,1.06,3,3,0,0,1-1.31,1.89,2.63,2.63,0,0,1-1.14.42l-.19,0h-.36l-.44-.07a2.95,2.95,0,0,1-2.22-2.56,1.49,1.49,0,0,1,0-.21Zm3.9-1.94,0,0-.54,1.57c-.06.18-.12.37-.19.56a.27.27,0,0,1-.35.19.3.3,0,0,1-.19-.41c.25-.7.49-1.41.73-2.12v0a2.26,2.26,0,0,0-2.65,1.61,2.4,2.4,0,0,0,1.42,3,2.26,2.26,0,0,0,2.89-1.41A2.41,2.41,0,0,0,241.54,294.46Zm5.84,2.38a2.33,2.33,0,0,0,1.68,2,2.24,2.24,0,0,0,2.59-1.17,2.49,2.49,0,0,0-.45-2.88,2.17,2.17,0,0,0-2.25-.51l.18.39c.26.56.51,1.12.77,1.69a.4.4,0,0,1,0,.19.3.3,0,0,1-.31.25h-2.24Zm-5.09-4.56,3.12,3.71,1.69-3.71Zm5.87,1.71-.6-1.32L246,296.22h.83A3.09,3.09,0,0,1,248.16,294Zm-.78,2.23h1.8l-.76-1.66A2.45,2.45,0,0,0,247.38,296.22Z" transform="translate(-154.56 -70.99)"/><path class="cls-18" d="M237.64,316.62a1.23,1.23,0,0,1,0-.19,3,3,0,0,1,.4-1.21,2.83,2.83,0,0,1,1.81-1.35,2.56,2.56,0,0,1,1.29,0s.05,0,.06,0c.36-1,.71-2.09,1.08-3.14a.9.9,0,0,1,.71-.63h1.13v.61h-1a.31.31,0,0,0-.33.24c-.1.31-.21.62-.32.93a.06.06,0,0,1,0,0h4.84s0,0,.06,0c.07-.18.16-.35.24-.53l0,0h-.86a.3.3,0,0,1-.28-.2.31.31,0,0,1,.08-.33.27.27,0,0,1,.2-.08H249v.61h-.69a.05.05,0,0,0-.05,0c-.13.28-.26.57-.38.85a.11.11,0,0,0,0,0c.26.58.52,1.15.79,1.73v0l.26-.08a2.54,2.54,0,0,1,1-.07,2.78,2.78,0,0,1,1.82.95,3.09,3.09,0,0,1-.17,4.24,2.61,2.61,0,0,1-1.49.76l-.26,0h-.4c-.15,0-.31,0-.47-.08a2.81,2.81,0,0,1-1.56-1,2.9,2.9,0,0,1-.61-1.45.88.88,0,0,1,0-.17h-1.25a.31.31,0,0,1-.28-.13c-.17-.19-.33-.39-.5-.59l-1.32-1.57-1.15-1.37-.22-.26-.32.94h0a3,3,0,0,1,1.58,2.31,2.9,2.9,0,0,1-.05,1.06,3,3,0,0,1-1.31,1.89,2.63,2.63,0,0,1-1.14.42l-.19,0h-.36l-.44-.07a2.89,2.89,0,0,1-1.86-1.42,2.92,2.92,0,0,1-.36-1.14,1.49,1.49,0,0,1,0-.21Zm3.9-1.94s0,0,0,0l-.54,1.57c-.06.18-.12.37-.19.56a.27.27,0,0,1-.35.19.3.3,0,0,1-.19-.41c.25-.7.49-1.41.73-2.12v0a2.26,2.26,0,0,0-2.65,1.61,2.4,2.4,0,0,0,1.42,3,2.26,2.26,0,0,0,2.89-1.41A2.41,2.41,0,0,0,241.54,314.68Zm5.84,2.38a2.33,2.33,0,0,0,1.68,2,2.24,2.24,0,0,0,2.59-1.17,2.49,2.49,0,0,0-.45-2.88,2.17,2.17,0,0,0-2.25-.51l.18.39c.26.56.51,1.12.77,1.69a.4.4,0,0,1,0,.19.3.3,0,0,1-.31.25h-2.24Zm-5.09-4.56,3.12,3.71,1.69-3.71Zm5.87,1.71-.6-1.32L246,316.44h.83A3.09,3.09,0,0,1,248.16,314.21Zm-.78,2.23h1.8l-.76-1.66A2.45,2.45,0,0,0,247.38,316.44Z" transform="translate(-154.56 -70.99)"/><path class="cls-18" d="M237.25,343.45a1.23,1.23,0,0,0,0-.19,3,3,0,0,1,.41-1.21,2.83,2.83,0,0,1,1.81-1.35,2.68,2.68,0,0,1,1.29,0s0,0,.05,0l1.08-3.14a.9.9,0,0,1,.72-.63h1.13v.61h-1a.31.31,0,0,0-.33.24l-.32.93s0,0,0,.05H247s0,0,0,0l.24-.52,0-.05h-.86a.29.29,0,0,1-.27-.19.34.34,0,0,1,.07-.34.28.28,0,0,1,.21-.08h2.22v.61H248a0,0,0,0,0,0,0l-.39.85v.06l.78,1.72v0l.27-.08a2.69,2.69,0,0,1,1-.07,2.83,2.83,0,0,1,1.83.95,2.88,2.88,0,0,1,.7,1.47,3,3,0,0,1-.87,2.78,2.77,2.77,0,0,1-1.49.76l-.26,0h-.4c-.16,0-.32,0-.47-.08a2.87,2.87,0,0,1-1.57-1,3.07,3.07,0,0,1-.61-1.45.88.88,0,0,0,0-.17h-1.25a.35.35,0,0,1-.28-.13l-.49-.6-1.32-1.57c-.39-.45-.77-.91-1.15-1.37-.07-.08-.14-.17-.22-.25l-.32.93h0l0,0a2.93,2.93,0,0,1,1.58,2.3,3,3,0,0,1-1.35,2.95,2.62,2.62,0,0,1-1.15.42l-.18,0h-.37a3.64,3.64,0,0,1-.44-.07,2.87,2.87,0,0,1-1.85-1.42,2.82,2.82,0,0,1-.36-1.14l0-.2Zm3.9-1.94v0l-.54,1.57c-.06.19-.13.37-.19.56a.3.3,0,0,1-.36.2.31.31,0,0,1-.18-.41l.73-2.13v0a2.26,2.26,0,0,0-2.65,1.61,2.39,2.39,0,0,0,1.42,3,2.25,2.25,0,0,0,2.89-1.41A2.43,2.43,0,0,0,241.15,341.51ZM247,343.9a2.36,2.36,0,0,0,1.69,2,2.24,2.24,0,0,0,2.59-1.16,2.48,2.48,0,0,0-.46-2.89,2.15,2.15,0,0,0-2.24-.51l.18.39.76,1.69a.25.25,0,0,1,0,.19.29.29,0,0,1-.3.26H247Zm-5.08-4.57L245,343l1.69-3.71Zm5.87,1.72-.6-1.33-1.61,3.56h.83A3,3,0,0,1,247.78,341.05Zm-.78,2.23h1.79l-.75-1.67A2.41,2.41,0,0,0,247,343.28Z" transform="translate(-154.56 -70.99)"/><path class="cls-18" d="M227.09,362.74l-.06-.18a2.9,2.9,0,0,1-.17-1.27,3,3,0,0,1,1-2.07,2.69,2.69,0,0,1,1.15-.62s0,0,0-.05l-.42-3.31a.93.93,0,0,1,.35-.9l.09-.06.89-.48h0l.27.54,0,0-.83.45a.32.32,0,0,0-.18.37l.12,1a.07.07,0,0,1,0,.05l0,0,4.26-2.31s0,0,0-.06,0-.38,0-.58a.43.43,0,0,1,0-.05l0,0-.72.39a.27.27,0,0,1-.33,0,.31.31,0,0,1-.08-.33.28.28,0,0,1,.15-.17l1.93-1.05,0,0,.26.55h0l-.58.32a0,0,0,0,0,0,.05c0,.31,0,.63,0,.94a.08.08,0,0,0,0,0l1.45,1.15,0,0,.2-.2a2.87,2.87,0,0,1,.84-.54,2.78,2.78,0,0,1,3.31.94,3,3,0,0,1,.45,2.88,2.9,2.9,0,0,1-1,1.39l-.22.16,0,0-.28.16h0c-.15.05-.3.12-.46.16a2.72,2.72,0,0,1-1.84-.17,2.85,2.85,0,0,1-1.18-1l-.09-.14,0,0-1.06.57a.31.31,0,0,1-.31,0l-.7-.29-1.86-.76-1.63-.66-.3-.13.12,1h0a2.91,2.91,0,0,1,2.84,2.26,3,3,0,0,1-.32,2.3,2.74,2.74,0,0,1-.84.92l-.15.11-.29.16h0a3.52,3.52,0,0,1-.42.15,2.72,2.72,0,0,1-2.27-.37,2.89,2.89,0,0,1-.83-.84l-.11-.17Zm2.61-3.6v0l.21,1.65c0,.2.05.4.08.6a.3.3,0,0,1-.23.34.29.29,0,0,1-.35-.28c-.09-.74-.19-1.49-.28-2.23v-.05a2.39,2.39,0,0,0-1.65,2.71,2.28,2.28,0,0,0,2.57,1.95,2.36,2.36,0,0,0,1.94-2.64A2.29,2.29,0,0,0,229.7,359.14Zm6.24-.69a2.24,2.24,0,0,0,2.39,1,2.41,2.41,0,0,0,.12-4.63,2.18,2.18,0,0,0-2.22.62l.33.27,1.42,1.13a.33.33,0,0,1,.11.15.34.34,0,0,1-.15.38L236,358.43Zm-6.53-1.61,4.41,1.8-.14-4.11Zm6-1.3-1.12-.88.13,3.93.74-.4A3.16,3.16,0,0,1,235.39,355.54Zm.28,2.36,1.59-.86-1.4-1.12A2.53,2.53,0,0,0,235.67,357.9Z" transform="translate(-154.56 -70.99)"/><path class="cls-18" d="M208.05,343.84a1.62,1.62,0,0,0,0-.19,3.24,3.24,0,0,1,0-1.28,3,3,0,0,1,1.29-1.89,2.64,2.64,0,0,1,1.23-.43s0,0,0-.05c0-1.11,0-2.23,0-3.34a1,1,0,0,1,.47-.84l.1,0,1-.34h0l.19.58h0l-.88.32a.32.32,0,0,0-.24.34c0,.33,0,.66,0,1v0h0l4.54-1.62a.09.09,0,0,0,0-.06l.06-.57a.15.15,0,0,1,0-.06l0,0-.77.27a.25.25,0,0,1-.31-.09.3.3,0,0,1,0-.34.35.35,0,0,1,.17-.15l2.06-.73,0,0,.19.58,0,0-.61.21a.05.05,0,0,0,0,0c0,.31-.07.63-.1.94a.07.07,0,0,0,0,.05l1.28,1.36v0l.23-.16a2.81,2.81,0,0,1,4.05,1,3.06,3.06,0,0,1,0,2.92,2.78,2.78,0,0,1-1.18,1.22l-.24.12,0,0-.3.11h0c-.16,0-.31.07-.47.09a2.74,2.74,0,0,1-1.8-.45,2.85,2.85,0,0,1-1-1.17l-.07-.15h-.05l-1.13.41a.34.34,0,0,1-.31,0l-.65-.39-1.74-1-1.51-.91-.28-.17,0,1h0a2.86,2.86,0,0,1,2.21,1.64,2.82,2.82,0,0,1,.28,1,3.06,3.06,0,0,1-.64,2.23,2.91,2.91,0,0,1-1,.79l-.17.08-.31.11h0a3.25,3.25,0,0,1-.43.08,2.73,2.73,0,0,1-2.2-.72,2.9,2.9,0,0,1-.7-.95,1.42,1.42,0,0,0-.08-.18Zm3.09-3.16v.05c0,.55,0,1.11,0,1.66,0,.2,0,.4,0,.6a.28.28,0,0,1-.27.3.3.3,0,0,1-.31-.32l0-2.26v0a2.3,2.3,0,1,0,.58,0Zm6.27.28a2.25,2.25,0,0,0,2.22,1.36,2.33,2.33,0,0,0,2.09-2,2.43,2.43,0,0,0-1.32-2.58,2.19,2.19,0,0,0-2.29.28c.1.1.2.2.29.31.42.44.84.89,1.25,1.34a.28.28,0,0,1,.09.17.31.31,0,0,1-.21.34l-2.07.75Zm-6.23-2.6,4.1,2.46.45-4.08Zm6.09-.36-1-1.05-.43,3.91.79-.28A3.17,3.17,0,0,1,217.27,338Zm-.05,2.37,1.7-.6-1.23-1.32A2.48,2.48,0,0,0,217.22,340.37Z" transform="translate(-154.56 -70.99)"/><path class="cls-18" d="M205.23,317.89a1.42,1.42,0,0,0,0-.2,3.07,3.07,0,0,1,0-1.28,3,3,0,0,1,1.29-1.89,2.56,2.56,0,0,1,1.22-.43s0,0,0,0c0-1.11,0-2.23.05-3.34a.93.93,0,0,1,.47-.84l.1,0,.94-.34h0l.19.57-.05,0-.87.32a.31.31,0,0,0-.24.34c0,.33,0,.66,0,1v0h0l4.54-1.63a.07.07,0,0,0,0-.05l.06-.58v-.05h0l-.77.28a.3.3,0,0,1-.32-.09.34.34,0,0,1,0-.35.29.29,0,0,1,.17-.14l2.06-.74,0,0,.2.58,0,0-.62.22s0,0,0,0c0,.32-.07.63-.1.94a.07.07,0,0,0,0,.05l1.28,1.36,0,0,.22-.16A2.77,2.77,0,0,1,216,311a2.7,2.7,0,0,1,2,.29,2.76,2.76,0,0,1,1.13,1.14,3.06,3.06,0,0,1,0,2.92,2.73,2.73,0,0,1-1.17,1.23l-.24.12,0,0-.3.11h0a4.3,4.3,0,0,1-.47.09,2.72,2.72,0,0,1-1.81-.44,2.9,2.9,0,0,1-1-1.17l-.08-.15h0l-1.14.41a.32.32,0,0,1-.3,0l-.66-.39-1.73-1-1.52-.91-.28-.17v1h0a2.89,2.89,0,0,1,2.21,1.65,3,3,0,0,1,.28,1,3.07,3.07,0,0,1-.64,2.23,2.76,2.76,0,0,1-1,.78l-.17.09-.31.11h0a3.39,3.39,0,0,1-.44.08,2.76,2.76,0,0,1-2.2-.71,3,3,0,0,1-.7-1,1.42,1.42,0,0,0-.08-.18Zm3.09-3.17s0,0,0,0c0,.56,0,1.12,0,1.67v.6a.29.29,0,0,1-.28.3.29.29,0,0,1-.3-.32l0-2.26v0a2.3,2.3,0,1,0,.58,0Zm6.26.27a2.26,2.26,0,0,0,2.23,1.36,2.31,2.31,0,0,0,2.08-2,2.41,2.41,0,0,0-1.32-2.57,2.17,2.17,0,0,0-2.29.28c.1.1.2.2.29.31l1.26,1.34a.3.3,0,0,1,.08.16.32.32,0,0,1-.2.35l-2.08.75Zm-6.23-2.59,4.11,2.46.44-4.09Zm6.09-.37-1-1-.42,3.9.78-.28A3.17,3.17,0,0,1,214.44,312Zm0,2.37,1.69-.61-1.23-1.31A2.43,2.43,0,0,0,214.4,314.4Z" transform="translate(-154.56 -70.99)"/><path class="cls-18" d="M185.94,303c0-.07,0-.13,0-.2a3.07,3.07,0,0,1,0-1.28,3,3,0,0,1,1.34-1.86,2.79,2.79,0,0,1,1.23-.4s0,0,0,0c0-1.12.08-2.23.13-3.34a.91.91,0,0,1,.49-.82l.1,0,.95-.31h0l.18.58-.05,0-.89.29a.32.32,0,0,0-.24.33c0,.33,0,.66,0,1v.05l0,0,4.58-1.5s0,0,0,0c0-.2,0-.39.08-.58v0h0l-.77.26a.28.28,0,0,1-.32-.1.31.31,0,0,1,.15-.49l2.07-.68,0,0,.18.59h0l-.62.2s0,0,0,.05l-.12.94a.11.11,0,0,0,0,.05c.42.46.83.93,1.24,1.39l0,0,.23-.16a2.85,2.85,0,0,1,.92-.38,2.85,2.85,0,0,1,3.11,1.52,3.08,3.08,0,0,1,0,2.92,2.78,2.78,0,0,1-1.21,1.19l-.24.11,0,0-.31.1h0a3.81,3.81,0,0,1-.47.07,2.73,2.73,0,0,1-1.79-.49,2.9,2.9,0,0,1-1-1.19c0-.05,0-.1-.07-.16l0,0-1.15.38a.35.35,0,0,1-.3,0l-.65-.41-1.71-1.08-1.49-.95-.28-.17,0,1h0A3,3,0,0,1,191.6,302a3,3,0,0,1-.7,2.21,2.76,2.76,0,0,1-1,.76l-.17.08-.32.1h0c-.15,0-.29.06-.44.07a2.74,2.74,0,0,1-2.18-.77,2.86,2.86,0,0,1-.67-1,1.54,1.54,0,0,1-.08-.19Zm3.16-3.09v.05c0,.55,0,1.11-.07,1.66,0,.2,0,.4,0,.6a.29.29,0,0,1-.28.3.3.3,0,0,1-.29-.34c0-.75.05-1.5.08-2.25v0a2.33,2.33,0,1,0,.58,0Zm6.25.44a2.28,2.28,0,0,0,2.2,1.42,2.31,2.31,0,0,0,2.13-1.93,2.42,2.42,0,0,0-1.26-2.61,2.16,2.16,0,0,0-2.29.22l.28.32c.41.45.81.91,1.22,1.37a.31.31,0,0,1-.13.51l-2.1.69Zm-6.16-2.75,4.05,2.56.53-4.07Zm6.1-.21-1-1.07-.52,3.89.8-.26A3.11,3.11,0,0,1,195.29,297.36Zm-.11,2.37,1.71-.56-1.2-1.35A2.5,2.5,0,0,0,195.18,299.73Z" transform="translate(-154.56 -70.99)"/><path class="cls-18" d="M208,288.55c0-.07,0-.13,0-.2a3.05,3.05,0,0,1,.41-1.21,2.85,2.85,0,0,1,1.8-1.35,2.72,2.72,0,0,1,1.3,0s0,0,.05,0l1.08-3.14a.9.9,0,0,1,.71-.63h1.13v.61h-1a.31.31,0,0,0-.33.24c-.11.31-.22.62-.32.94l0,0h4.84a.05.05,0,0,0,.06,0l.24-.52,0-.05h-.86a.29.29,0,0,1-.27-.19.3.3,0,0,1,.07-.34.28.28,0,0,1,.21-.08h2.21v.61h-.68a0,0,0,0,0,0,0l-.39.86a0,0,0,0,0,0,.05l.78,1.72v0l.27-.08a2.69,2.69,0,0,1,1-.07,2.75,2.75,0,0,1,1.82,1,2.83,2.83,0,0,1,.71,1.46,3,3,0,0,1-.87,2.78,2.77,2.77,0,0,1-1.49.76l-.27,0h-.39c-.16,0-.32,0-.47-.08a2.78,2.78,0,0,1-1.57-1,3.07,3.07,0,0,1-.61-1.45c0-.06,0-.11,0-.17h-1.25a.35.35,0,0,1-.28-.13l-.5-.6-1.31-1.56-1.16-1.38-.21-.25-.32.93h0l0,0a3,3,0,0,1,1.58,2.31,2.91,2.91,0,0,1,0,1.06,3,3,0,0,1-1.3,1.89,2.79,2.79,0,0,1-1.15.41l-.19,0h-.36a3.11,3.11,0,0,1-.44-.07,2.85,2.85,0,0,1-1.85-1.42,3,3,0,0,1-.37-1.14c0-.07,0-.13,0-.2Zm3.9-1.95v0l-.54,1.57c-.07.19-.13.38-.19.56a.3.3,0,0,1-.36.2.3.3,0,0,1-.18-.41c.24-.71.48-1.42.73-2.13v0A2.27,2.27,0,0,0,208.7,288a2.41,2.41,0,0,0,1.42,3,2.25,2.25,0,0,0,2.89-1.41A2.41,2.41,0,0,0,211.9,286.6Zm5.84,2.39a2.36,2.36,0,0,0,1.68,2,2.25,2.25,0,0,0,2.59-1.17,2.47,2.47,0,0,0-.45-2.89,2.15,2.15,0,0,0-2.24-.51l.17.39c.26.56.51,1.13.77,1.69a.31.31,0,0,1,0,.19.3.3,0,0,1-.3.26h-2.25Zm-5.09-4.57,3.13,3.72,1.68-3.72Zm5.88,1.72-.61-1.33-1.61,3.56h.83A3.06,3.06,0,0,1,218.53,286.14Zm-.78,2.23h1.79l-.76-1.67A2.44,2.44,0,0,0,217.75,288.37Z" transform="translate(-154.56 -70.99)"/><path class="cls-18" d="M182.83,269.86a1.23,1.23,0,0,1,0-.19,3,3,0,0,1,.4-1.21,2.83,2.83,0,0,1,1.81-1.35,2.56,2.56,0,0,1,1.29,0s.05,0,.06,0c.35-1.05.71-2.09,1.07-3.14a.92.92,0,0,1,.72-.63h1.13v.61h-1a.31.31,0,0,0-.33.24c-.1.31-.21.62-.32.93a.09.09,0,0,1,0,.05h4.84s0,0,.05,0l.24-.52s0,0,0-.05H192a.31.31,0,0,1-.28-.19.33.33,0,0,1,.08-.34.27.27,0,0,1,.2-.08h2.22v.61h-.69a0,0,0,0,0-.05,0l-.39.85v.06l.78,1.72,0,0,.26-.08a2.71,2.71,0,0,1,1-.07A2.78,2.78,0,0,1,197,268a3,3,0,0,1,.71,1.47,3,3,0,0,1-.88,2.77,2.69,2.69,0,0,1-1.49.77l-.26,0h-.4c-.15,0-.31,0-.47-.08a2.87,2.87,0,0,1-1.57-1,3,3,0,0,1-.6-1.45l0-.18h-1.25a.35.35,0,0,1-.27-.13l-.5-.6L188.62,268l-1.15-1.37-.22-.26-.32.94h0l0,0a3,3,0,0,1,1.58,2.3,2.9,2.9,0,0,1-.05,1.06,3,3,0,0,1-1.31,1.89,2.63,2.63,0,0,1-1.14.42l-.19,0h-.36l-.44-.07a2.95,2.95,0,0,1-2.22-2.56,1.5,1.5,0,0,1,0-.2Zm3.9-1.94,0,0-.54,1.57c-.06.19-.12.37-.19.56a.28.28,0,0,1-.35.2.31.31,0,0,1-.19-.42c.25-.7.49-1.41.73-2.12v0a2.26,2.26,0,0,0-2.65,1.61,2.4,2.4,0,0,0,1.42,3,2.26,2.26,0,0,0,2.89-1.41A2.41,2.41,0,0,0,186.73,267.92Zm5.84,2.38a2.33,2.33,0,0,0,1.68,2,2.24,2.24,0,0,0,2.59-1.17,2.49,2.49,0,0,0-.45-2.88,2.17,2.17,0,0,0-2.25-.51l.18.39c.25.56.51,1.13.77,1.69a.4.4,0,0,1,0,.19.3.3,0,0,1-.31.25h-2.24Zm-5.09-4.56,3.12,3.71,1.69-3.71Zm5.87,1.71-.6-1.32-1.61,3.55H192A3.09,3.09,0,0,1,193.35,267.45Zm-.78,2.23h1.79l-.75-1.66A2.41,2.41,0,0,0,192.57,269.68Z" transform="translate(-154.56 -70.99)"/><path class="cls-18" d="M183.7,237.56a1.36,1.36,0,0,1,0-.2,3,3,0,0,1,2.21-2.56,2.68,2.68,0,0,1,1.29,0s.05,0,.06,0c.36-1.05.71-2.1,1.08-3.14a.9.9,0,0,1,.71-.63h1.13v.61h-1a.29.29,0,0,0-.32.24l-.33.93a.08.08,0,0,1,0,0h4.84s0,0,.06,0,.16-.35.24-.53l0,0h-.86a.29.29,0,0,1-.28-.19.33.33,0,0,1,.08-.34.32.32,0,0,1,.21-.08h2.21v.62h-.69a.05.05,0,0,0,0,0c-.13.28-.26.57-.38.85a0,0,0,0,0,0,.05c.25.58.52,1.15.78,1.72v0l.27-.08a2.7,2.7,0,0,1,1-.08,2.75,2.75,0,0,1,1.82,1,3,3,0,0,1,.71,1.47,3,3,0,0,1-.87,2.77,2.67,2.67,0,0,1-1.5.76,2.06,2.06,0,0,1-.26,0h-.4a4.11,4.11,0,0,1-.47-.07,2.81,2.81,0,0,1-1.56-1,2.94,2.94,0,0,1-.61-1.45.88.88,0,0,1,0-.17h-1.25a.33.33,0,0,1-.28-.13l-.5-.59-1.32-1.57-1.15-1.37-.22-.26-.32.94h0l0,0a3,3,0,0,1,1.58,2.31,2.9,2.9,0,0,1-.05,1.06,3,3,0,0,1-1.3,1.89,2.72,2.72,0,0,1-1.15.42l-.19,0h-.36c-.15,0-.3,0-.44-.06a2.83,2.83,0,0,1-1.85-1.43,3,3,0,0,1-.37-1.13,1.49,1.49,0,0,1,0-.21Zm3.9-1.95,0,0-.54,1.57c-.06.18-.12.37-.19.56a.27.27,0,0,1-.35.19.31.31,0,0,1-.19-.41c.25-.71.49-1.41.73-2.12l0,0A2.27,2.27,0,0,0,184.4,237a2.41,2.41,0,0,0,1.42,3,2.26,2.26,0,0,0,2.89-1.42A2.41,2.41,0,0,0,187.6,235.61Zm5.84,2.39a2.33,2.33,0,0,0,1.68,2,2.24,2.24,0,0,0,2.59-1.17,2.47,2.47,0,0,0-.45-2.88,2.2,2.2,0,0,0-2.25-.52l.18.4c.26.56.51,1.12.77,1.69a.38.38,0,0,1,0,.18.3.3,0,0,1-.31.26h-2.24Zm-5.09-4.57,3.12,3.72,1.69-3.72Zm5.88,1.72-.61-1.32L192,237.38h.83A3.07,3.07,0,0,1,194.23,235.15Zm-.78,2.23h1.79l-.76-1.66A2.4,2.4,0,0,0,193.45,237.38Z" transform="translate(-154.56 -70.99)"/><path class="cls-18" d="M197,207.4l.06-.18a2.81,2.81,0,0,1,4-1.67s0,0,.05,0l1.73-2.81a.91.91,0,0,1,.83-.45l.11,0,1,.23h0l-.13.59h0l-.91-.22a.31.31,0,0,0-.37.16l-.51.83,0,0h0l4.67,1.13s.05,0,.06,0l.35-.45,0,0h0l-.79-.19a.31.31,0,0,1-.07-.56.26.26,0,0,1,.21,0l2.13.51h0l-.13.6h0l-.63-.16s0,0-.06,0c-.18.25-.37.5-.56.74a.43.43,0,0,1,0,.05l.39,1.87v0h.28a2.7,2.7,0,0,1,1,.15,2.88,2.88,0,0,1,1.57,1.37,2.92,2.92,0,0,1,.37,1.59,3,3,0,0,1-1.45,2.5,2.62,2.62,0,0,1-1.61.39l-.27,0h0l-.31-.08h0l-.45-.19a2.91,2.91,0,0,1-1.3-1.38,3.06,3.06,0,0,1-.28-1.55c0-.06,0-.12,0-.17l0,0-1.17-.28a.33.33,0,0,1-.24-.19l-.36-.7-.95-1.84-.82-1.6-.16-.3-.51.83h0l0,0a3,3,0,0,1,1,2.62,3,3,0,0,1-.28,1,2.87,2.87,0,0,1-1.68,1.53,2.61,2.61,0,0,1-1.21.14l-.18,0-.32-.08h0c-.13-.06-.28-.1-.41-.17a3,3,0,0,1-1.5-1.82,3,3,0,0,1-.11-1.2,1.5,1.5,0,0,0,0-.2Zm4.22-1,0,0c-.28.47-.57.94-.86,1.4-.1.17-.2.34-.31.51a.27.27,0,0,1-.38.1.29.29,0,0,1-.09-.44l1.16-1.9,0,0a2.22,2.22,0,0,0-2.93.95,2.44,2.44,0,0,0,.75,3.23,2.22,2.22,0,0,0,3.11-.7A2.44,2.44,0,0,0,201.23,206.42Zm5.17,3.71a2.4,2.4,0,0,0,1.2,2.38,2.23,2.23,0,0,0,2.78-.53,2.48,2.48,0,0,0,.18-2.92,2.24,2.24,0,0,0-2.08-1l.09.43c.13.61.26,1.22.38,1.83a.25.25,0,0,1,0,.19.3.3,0,0,1-.35.18l-2.14-.52Zm-4-5.65,2.24,4.35,2.45-3.22Zm5.35,3.06-.3-1.44-2.33,3.09.8.19A3,3,0,0,1,207.78,207.54Zm-1.24,2,1.75.42-.38-1.79A2.34,2.34,0,0,0,206.54,209.52Z" transform="translate(-154.56 -70.99)"/><path class="cls-18" d="M208.52,187.58a1.42,1.42,0,0,0,.08-.18,3,3,0,0,1,.75-1,2.74,2.74,0,0,1,2.13-.68,2.67,2.67,0,0,1,1.22.43s0,0,.06,0l2-2.62a.85.85,0,0,1,.86-.37l.11,0,.94.33h0l-.18.58-.05,0-.88-.31a.3.3,0,0,0-.39.12l-.58.78,0,0h0l4.55,1.59a.06.06,0,0,0,.07,0c.12-.15.25-.28.38-.42s0,0,0,0l-.05,0-.77-.27a.29.29,0,0,1-.2-.27.32.32,0,0,1,.17-.3.28.28,0,0,1,.22,0l2.07.72h0l-.19.58h0l-.61-.22s0,0-.06,0c-.21.22-.42.45-.62.68,0,0,0,0,0,.05.07.63.14,1.26.22,1.89v0h.28a2.62,2.62,0,0,1,.95.25,2.91,2.91,0,0,1,1.44,1.51,3.06,3.06,0,0,1-1.44,4,2.61,2.61,0,0,1-1.65.23l-.25-.06h0l-.3-.11,0,0a3.42,3.42,0,0,1-.42-.23,2.89,2.89,0,0,1-1.18-1.5,3,3,0,0,1-.13-1.58l0-.16-.05,0-1.14-.4a.31.31,0,0,1-.22-.21c-.1-.25-.2-.49-.29-.73l-.78-1.93-.68-1.68-.12-.31-.59.78h0l0,0a3,3,0,0,1,.8,2.71,2.77,2.77,0,0,1-.37,1,2.86,2.86,0,0,1-1.8,1.36,2.79,2.79,0,0,1-1.22,0l-.18,0-.32-.11,0,0c-.13-.07-.27-.13-.39-.21a3,3,0,0,1-1.33-2,3,3,0,0,1,0-1.2c0-.07,0-.14,0-.2Zm4.29-.55,0,0-1,1.31-.35.47a.29.29,0,0,1-.4.07.32.32,0,0,1-.05-.45l1.34-1.78,0,0a2.22,2.22,0,0,0-3,.65,2.46,2.46,0,0,0,.45,3.29,2.22,2.22,0,0,0,3.17-.39A2.44,2.44,0,0,0,212.81,187Zm4.82,4.2a2.4,2.4,0,0,0,1,2.48,2.2,2.2,0,0,0,2.81-.25,2.46,2.46,0,0,0,.44-2.88,2.21,2.21,0,0,0-2-1.23c0,.14,0,.29.05.43l.21,1.86a.23.23,0,0,1,0,.18.28.28,0,0,1-.36.15l-2.08-.73Zm-3.44-6,1.83,4.56,2.73-3Zm5.05,3.57-.17-1.45-2.61,2.83.79.28A3,3,0,0,1,219.24,188.78Zm-1.42,1.86,1.7.59-.21-1.83A2.36,2.36,0,0,0,217.82,190.64Z" transform="translate(-154.56 -70.99)"/><path class="cls-18" d="M265.61,321.5c0-.07,0-.14,0-.2a3.05,3.05,0,0,1,.41-1.21,2.83,2.83,0,0,1,1.81-1.35,2.68,2.68,0,0,1,1.29,0s0,0,.05,0l1.08-3.14a.9.9,0,0,1,.71-.63h1.13v.61h-1a.31.31,0,0,0-.33.24c-.11.31-.22.62-.32.94,0,0,0,0,0,0h4.83a.05.05,0,0,0,.06,0l.24-.52,0-.05h-.86a.29.29,0,0,1-.27-.19.3.3,0,0,1,.07-.34.28.28,0,0,1,.21-.08H277v.61h-.68a0,0,0,0,0-.05,0l-.39.85a.06.06,0,0,0,0,.06l.78,1.72v0l.27-.08a2.69,2.69,0,0,1,1-.07,2.78,2.78,0,0,1,1.82.95,2.82,2.82,0,0,1,.71,1.47,3,3,0,0,1-.87,2.78,2.77,2.77,0,0,1-1.49.76l-.27,0h-.39c-.16,0-.32,0-.47-.08a2.78,2.78,0,0,1-1.57-1,3.07,3.07,0,0,1-.61-1.45c0-.06,0-.11,0-.17H273.5a.35.35,0,0,1-.28-.13l-.5-.6-1.31-1.57c-.39-.45-.77-.91-1.16-1.37L270,318l-.32.93h0l0,0a3.06,3.06,0,0,1,1.53,3.37,3,3,0,0,1-1.3,1.89,2.79,2.79,0,0,1-1.15.41l-.19,0h-.36a3.11,3.11,0,0,1-.44-.07,2.85,2.85,0,0,1-1.85-1.42,3,3,0,0,1-.37-1.14c0-.07,0-.13,0-.2Zm3.9-1.95v0l-.54,1.57c-.07.19-.13.38-.19.56a.3.3,0,0,1-.36.2.31.31,0,0,1-.18-.41c.24-.71.48-1.42.73-2.13v0a2.27,2.27,0,0,0-2.66,1.61,2.41,2.41,0,0,0,1.43,3,2.24,2.24,0,0,0,2.88-1.41A2.41,2.41,0,0,0,269.51,319.55Zm5.84,2.39a2.33,2.33,0,0,0,1.68,2,2.23,2.23,0,0,0,2.59-1.16,2.47,2.47,0,0,0-.45-2.89,2.15,2.15,0,0,0-2.24-.51l.17.39c.26.56.51,1.13.77,1.69a.31.31,0,0,1,0,.19.29.29,0,0,1-.3.26h-2.25Zm-5.09-4.57,3.13,3.72,1.68-3.72Zm5.88,1.72-.61-1.33-1.61,3.56h.83A3.06,3.06,0,0,1,276.14,319.09Zm-.78,2.23h1.79l-.76-1.67A2.44,2.44,0,0,0,275.36,321.32Z" transform="translate(-154.56 -70.99)"/><path class="cls-18" d="M264.16,348.33a1.36,1.36,0,0,0,0-.2,3.05,3.05,0,0,1,.41-1.21,2.87,2.87,0,0,1,1.81-1.35,2.56,2.56,0,0,1,1.29,0s0,0,.05,0l1.08-3.15a.9.9,0,0,1,.71-.63h1.14v.61h-1a.31.31,0,0,0-.33.24c-.11.32-.21.63-.32.94,0,0,0,0,0,0h4.84a.05.05,0,0,0,.05,0l.24-.52s0,0,0,0h-.86a.28.28,0,0,1-.27-.19.35.35,0,0,1,.07-.34.28.28,0,0,1,.21-.08h2.22V343h-.69a0,0,0,0,0-.05,0l-.39.86s0,0,0,.05l.78,1.72v0l.27-.08a2.5,2.5,0,0,1,1-.08,2.93,2.93,0,0,1,2.53,2.42,3,3,0,0,1-.87,2.78,2.71,2.71,0,0,1-1.49.76l-.26,0H276a3.55,3.55,0,0,1-.47-.08,2.73,2.73,0,0,1-1.57-1,3,3,0,0,1-.61-1.45,1,1,0,0,0,0-.17h-1.25a.35.35,0,0,1-.28-.13l-.49-.59L270,346.48l-1.15-1.38-.22-.25-.32.93h0l0,0a2.94,2.94,0,0,1,1.58,2.31,2.91,2.91,0,0,1,0,1.06,3,3,0,0,1-1.31,1.89,2.75,2.75,0,0,1-1.15.42l-.18,0h-.37a3.64,3.64,0,0,1-.44-.07,2.84,2.84,0,0,1-1.85-1.42,3,3,0,0,1-.37-1.14,1.5,1.5,0,0,0,0-.2Zm3.9-1.95s0,0,0,0l-.54,1.57c-.06.19-.13.38-.19.56a.3.3,0,0,1-.36.2.31.31,0,0,1-.18-.41l.73-2.13v0a2.26,2.26,0,0,0-2.65,1.61,2.39,2.39,0,0,0,1.42,3,2.25,2.25,0,0,0,2.89-1.41A2.43,2.43,0,0,0,268.06,346.38Zm5.84,2.39a2.37,2.37,0,0,0,1.69,2,2.25,2.25,0,0,0,2.59-1.17,2.47,2.47,0,0,0-.46-2.88,2.16,2.16,0,0,0-2.24-.52l.18.39c.25.57.51,1.13.76,1.69a.25.25,0,0,1,0,.19.29.29,0,0,1-.3.26H273.9Zm-5.08-4.57,3.12,3.72,1.69-3.72Zm5.87,1.72-.6-1.32-1.61,3.55h.83A3,3,0,0,1,274.69,345.92Zm-.78,2.23h1.79l-.75-1.66A2.41,2.41,0,0,0,273.91,348.15Z" transform="translate(-154.56 -70.99)"/><path class="cls-18" d="M279.64,353.46l.15-.11a2.56,2.56,0,0,1,1.13-.5,2.73,2.73,0,0,1,2.17.48,2.89,2.89,0,0,1,.87,1s0,0,.06,0l2.94-1.28a.88.88,0,0,1,.93.12l.08.08.67.77,0,0-.43.41,0,0-.63-.71a.29.29,0,0,0-.39-.09l-.88.38,0,0,0,0,3.23,3.7s0,0,.07,0l.53-.17h.05l0,0-.54-.63a.32.32,0,0,1,0-.34.3.3,0,0,1,.29-.17.33.33,0,0,1,.2.11l1.46,1.68,0,0-.43.41,0,0-.44-.5a0,0,0,0,0-.05,0l-.87.28a0,0,0,0,0,0,0c-.24.59-.47,1.18-.7,1.77v0l.23.15a3,3,0,0,1,1.27,2.77,2.91,2.91,0,0,1-.56,1.53,2.78,2.78,0,0,1-2.55,1.2,2.75,2.75,0,0,1-1.54-.64,1.8,1.8,0,0,1-.2-.19l0,0-.22-.25,0,0a3.66,3.66,0,0,1-.26-.42,3.09,3.09,0,0,1,.29-3.35,1.47,1.47,0,0,1,.1-.13l0,0-.81-.93a.32.32,0,0,1-.09-.3c0-.26.05-.52.08-.78.07-.7.15-1.39.22-2.08s.13-1.21.19-1.82c0-.11,0-.22,0-.33l-.88.38h0v0a3.08,3.08,0,0,1-.56,2.78,2.86,2.86,0,0,1-3,.94,2.84,2.84,0,0,1-1.07-.6l-.14-.13-.22-.26,0,0c-.08-.13-.18-.25-.25-.38a3.11,3.11,0,0,1-.24-2.39,2.81,2.81,0,0,1,.56-1l.12-.16Zm4,1.7,0,0-1.47.64-.53.23a.27.27,0,0,1-.37-.14.31.31,0,0,1,.16-.42l2-.87,0,0a2.23,2.23,0,0,0-2.93-1,2.43,2.43,0,0,0-1.14,3.1A2.25,2.25,0,0,0,282.3,358,2.41,2.41,0,0,0,283.64,355.16Zm2.25,6.12a2.45,2.45,0,0,0-.31,2.67,2.25,2.25,0,0,0,2.57,1.22,2.42,2.42,0,0,0,.59-4.38c-.05.14-.11.27-.16.41-.23.57-.45,1.15-.68,1.73a.33.33,0,0,1-.11.15.3.3,0,0,1-.39-.06l-1.48-1.7Zm-.2-7-.52,4.91,3.76-1.2Zm2.74,5.69.53-1.36-3.6,1.15.57.64A2.77,2.77,0,0,1,288.43,360Zm-2.1.9,1.21,1.38.67-1.7A2.24,2.24,0,0,0,286.33,360.87Z" transform="translate(-154.56 -70.99)"/><path class="cls-18" d="M295.28,338a1,1,0,0,0,.1-.17,2.78,2.78,0,0,1,.86-.91,2.75,2.75,0,0,1,2.19-.43,2.71,2.71,0,0,1,1.16.58s0,0,.06,0l2.26-2.37a.85.85,0,0,1,.9-.26l.1,0,.9.44h0l-.25.56,0,0-.85-.41a.3.3,0,0,0-.39.08l-.67.7,0,0,0,0L306,338a.06.06,0,0,0,.07,0l.43-.37,0,0,0,0c-.24-.12-.49-.23-.73-.36a.3.3,0,0,1,0-.56.28.28,0,0,1,.22,0l2,1h0l-.25.56,0,0-.59-.29a0,0,0,0,0-.06,0l-.69.6a.05.05,0,0,0,0,.05c0,.64,0,1.27,0,1.91v0l.28.05a2.6,2.6,0,0,1,.92.36,3.1,3.1,0,0,1,1.31,3.32A2.9,2.9,0,0,1,307,346.3a2.69,2.69,0,0,1-1.66,0l-.25-.09h0l-.29-.14,0,0c-.13-.09-.27-.17-.39-.27a3.13,3.13,0,0,1-1-3.22,1,1,0,0,0,.05-.16l0,0-1.09-.54a.33.33,0,0,1-.2-.24l-.21-.75c-.18-.67-.37-1.34-.56-2l-.48-1.75-.09-.33-.67.7h0l0,0a3.09,3.09,0,0,1,.49,2.79,3,3,0,0,1-.47.94,2.82,2.82,0,0,1-1.95,1.13,2.62,2.62,0,0,1-1.21-.13l-.18-.06-.29-.14,0,0c-.13-.08-.26-.16-.38-.25a3,3,0,0,1-1.1-2.11,3,3,0,0,1,.13-1.19,1.59,1.59,0,0,1,.07-.2Zm4.33,0,0,0-1.13,1.18-.4.42a.28.28,0,0,1-.4,0,.31.31,0,0,1,0-.45l1.52-1.6,0,0a2.2,2.2,0,0,0-3.06.28,2.45,2.45,0,0,0,.09,3.32,2.19,2.19,0,0,0,3.18,0A2.45,2.45,0,0,0,299.61,337.92Zm4.32,4.75a2.44,2.44,0,0,0,.7,2.59,2.19,2.19,0,0,0,2.82.09,2.46,2.46,0,0,0,.76-2.81,2.28,2.28,0,0,0-1.83-1.46v.43c0,.63,0,1.25,0,1.88a.31.31,0,0,1-.05.18.29.29,0,0,1-.38.1l-2-1Zm-2.76-6.39,1.32,4.75,3-2.62Zm4.63,4.16,0-1.47-2.89,2.51.75.37A2.9,2.9,0,0,1,305.8,340.44Zm-1.61,1.67,1.62.8v-1.84A2.29,2.29,0,0,0,304.19,342.11Z" transform="translate(-154.56 -70.99)"/><path class="cls-18" d="M262.9,214.07a1.23,1.23,0,0,1,0-.19,3,3,0,0,1,.4-1.21,2.88,2.88,0,0,1,1.81-1.36,2.68,2.68,0,0,1,1.29,0s.05,0,.06,0c.35-1,.71-2.1,1.08-3.14a.9.9,0,0,1,.71-.63h1.13v.61h-1a.31.31,0,0,0-.33.24c-.1.31-.21.62-.32.93a.06.06,0,0,1,0,0h4.84s0,0,0,0l.24-.53a.05.05,0,0,0,0,0h-.85a.3.3,0,0,1-.28-.2.33.33,0,0,1,.08-.34.32.32,0,0,1,.2-.08h2.22v.62h-.69s0,0,0,0c-.13.28-.26.57-.38.85a.11.11,0,0,0,0,0l.78,1.73,0,0,.26-.08a2.72,2.72,0,0,1,1-.08,2.84,2.84,0,0,1,1.83,1,3,3,0,0,1,.71,1.47,3,3,0,0,1-.88,2.77,2.61,2.61,0,0,1-1.49.76l-.26,0h-.4c-.15,0-.31,0-.47-.08a2.83,2.83,0,0,1-1.57-1,3,3,0,0,1-.6-1.45l0-.17h-1.25a.32.32,0,0,1-.27-.13c-.17-.19-.33-.39-.5-.59l-1.32-1.57-1.15-1.37-.22-.26-.32.94h0l0,0a3,3,0,0,1,1.58,2.31,2.9,2.9,0,0,1-.05,1.06,3,3,0,0,1-1.31,1.89,2.63,2.63,0,0,1-1.14.42l-.19,0h-.36l-.44-.07a2.89,2.89,0,0,1-1.86-1.42,2.92,2.92,0,0,1-.36-1.14,1.49,1.49,0,0,1,0-.21Zm3.9-1.95,0,0-.54,1.57c-.06.18-.12.37-.19.56a.27.27,0,0,1-.35.19.3.3,0,0,1-.19-.41c.25-.71.49-1.41.73-2.12v0a2.25,2.25,0,0,0-2.65,1.61,2.41,2.41,0,0,0,1.42,3,2.26,2.26,0,0,0,2.89-1.41A2.43,2.43,0,0,0,266.8,212.12Zm5.84,2.39a2.33,2.33,0,0,0,1.68,2,2.24,2.24,0,0,0,2.59-1.17,2.49,2.49,0,0,0-.45-2.88,2.2,2.2,0,0,0-2.25-.52l.18.4c.25.56.51,1.12.77,1.69a.4.4,0,0,1,0,.19.3.3,0,0,1-.31.25h-2.24ZM267.55,210l3.12,3.71,1.69-3.71Zm5.87,1.71-.6-1.32-1.61,3.55H272A3.09,3.09,0,0,1,273.42,211.66Zm-.78,2.23h1.79l-.75-1.66A2.41,2.41,0,0,0,272.64,213.89Z" transform="translate(-154.56 -70.99)"/><path class="cls-18" d="M283.72,206.81c0-.07,0-.13,0-.2a3,3,0,0,1,2.21-2.56,2.72,2.72,0,0,1,1.3,0s0,0,.05,0l1.08-3.14a.9.9,0,0,1,.71-.63h1.13v.61h-1a.3.3,0,0,0-.32.25c-.11.31-.22.62-.32.93,0,0,0,0,0,0h4.84s0,0,.06,0l.24-.53,0,0h-.86a.27.27,0,0,1-.27-.19.31.31,0,0,1,.07-.34.32.32,0,0,1,.21-.08h2.21v.61h-.69a.05.05,0,0,0-.05,0c-.12.28-.25.56-.38.85a0,0,0,0,0,0,.05l.78,1.72v0l.27-.08a2.7,2.7,0,0,1,1-.08,2.75,2.75,0,0,1,1.82,1,2.9,2.9,0,0,1,.71,1.47,3,3,0,0,1-.87,2.77,2.67,2.67,0,0,1-1.5.76,2.06,2.06,0,0,1-.26,0h-.39a4,4,0,0,1-.48-.07,2.81,2.81,0,0,1-1.56-1,3,3,0,0,1-.61-1.45.88.88,0,0,1,0-.17h-1.25a.33.33,0,0,1-.28-.13l-.5-.59L289.51,205c-.38-.46-.76-.92-1.15-1.37l-.21-.26-.32.93h0l0,0a3,3,0,0,1,1.58,2.31,2.91,2.91,0,0,1-.05,1.06,3,3,0,0,1-1.3,1.89A2.67,2.67,0,0,1,287,210l-.19,0h-.36c-.15,0-.3,0-.44-.06a2.83,2.83,0,0,1-1.85-1.43,3,3,0,0,1-.37-1.13c0-.07,0-.14,0-.21Zm3.9-1.95,0,0c-.18.53-.35,1-.53,1.57l-.2.57a.28.28,0,0,1-.35.19.3.3,0,0,1-.18-.41l.72-2.12,0,0a2.28,2.28,0,0,0-2.66,1.62,2.39,2.39,0,0,0,1.42,3,2.25,2.25,0,0,0,2.89-1.41A2.41,2.41,0,0,0,287.62,204.86Zm5.84,2.39a2.34,2.34,0,0,0,1.68,2,2.24,2.24,0,0,0,2.59-1.17,2.45,2.45,0,0,0-.45-2.88,2.2,2.2,0,0,0-2.25-.52l.18.4c.26.56.51,1.12.77,1.69a.29.29,0,0,1,0,.18.3.3,0,0,1-.3.26h-2.25Zm-5.09-4.57,3.12,3.72,1.69-3.72Zm5.88,1.72-.61-1.32L292,206.63h.83A3.05,3.05,0,0,1,294.25,204.4Zm-.78,2.23h1.79L294.5,205A2.4,2.4,0,0,0,293.47,206.63Z" transform="translate(-154.56 -70.99)"/><path class="cls-18" d="M289.77,188.39a1.23,1.23,0,0,1,0-.19,3,3,0,0,1,.4-1.21,2.83,2.83,0,0,1,1.81-1.35,2.56,2.56,0,0,1,1.29,0s0,0,0,0l1.08-3.14a.92.92,0,0,1,.72-.63h1.13v.61h-1a.31.31,0,0,0-.33.24c-.1.31-.21.62-.32.93a.09.09,0,0,1,0,0h4.84s0,0,0,0l.24-.53a.05.05,0,0,0,0,0h-.85a.31.31,0,0,1-.28-.19.33.33,0,0,1,.08-.34.24.24,0,0,1,.2-.08h2.22v.61h-.69a0,0,0,0,0,0,0l-.39.85V184l.78,1.72,0,0,.26-.08a2.51,2.51,0,0,1,1-.07,2.78,2.78,0,0,1,1.83.95,3,3,0,0,1,.71,1.47,3,3,0,0,1-.88,2.77,2.69,2.69,0,0,1-1.49.77l-.26,0h-.4c-.15,0-.32,0-.47-.08a2.83,2.83,0,0,1-1.57-1,2.89,2.89,0,0,1-.6-1.45l0-.17h-1.25a.35.35,0,0,1-.27-.13l-.5-.6-1.32-1.57-1.15-1.37-.22-.26-.32.94h.05a3,3,0,0,1,1.58,2.31,2.9,2.9,0,0,1-.05,1.06,3,3,0,0,1-1.31,1.89,2.63,2.63,0,0,1-1.14.42l-.19,0h-.36l-.44-.07a2.95,2.95,0,0,1-2.22-2.56,1.5,1.5,0,0,1,0-.2Zm3.9-1.94,0,0-.54,1.57c-.06.19-.12.37-.19.56a.28.28,0,0,1-.35.2.32.32,0,0,1-.19-.42c.24-.7.49-1.41.73-2.12v0a2.26,2.26,0,0,0-2.65,1.61,2.4,2.4,0,0,0,1.42,3,2.26,2.26,0,0,0,2.89-1.41A2.41,2.41,0,0,0,293.67,186.45Zm5.84,2.38a2.33,2.33,0,0,0,1.68,2,2.24,2.24,0,0,0,2.59-1.17,2.49,2.49,0,0,0-.45-2.88,2.17,2.17,0,0,0-2.25-.51l.18.39c.25.56.51,1.13.77,1.69a.4.4,0,0,1,0,.19.3.3,0,0,1-.31.25h-2.24Zm-5.09-4.56,3.12,3.71,1.69-3.71Zm5.87,1.71-.6-1.32-1.61,3.55h.83A3.09,3.09,0,0,1,300.29,186Zm-.78,2.23h1.79l-.75-1.66A2.41,2.41,0,0,0,299.51,188.21Z" transform="translate(-154.56 -70.99)"/><path class="cls-18" d="M289.05,229.43l0-.2a3,3,0,0,1,.4-1.2,2.88,2.88,0,0,1,1.81-1.36,2.68,2.68,0,0,1,1.29,0s0,0,.05,0l1.08-3.14a.92.92,0,0,1,.72-.63h1.13v.61h-1a.3.3,0,0,0-.33.24c-.1.31-.21.62-.32.93,0,0,0,0,0,0h4.84s0,0,.05,0l.24-.53,0,0h-.86a.29.29,0,0,1-.27-.19.33.33,0,0,1,.08-.34.28.28,0,0,1,.2-.08h2.22v.62h-.69s0,0-.05,0l-.39.85V225l.78,1.72,0,0,.26-.08a2.72,2.72,0,0,1,1-.08,2.75,2.75,0,0,1,1.83,1,3,3,0,0,1,.71,1.47,3,3,0,0,1-.88,2.77,2.61,2.61,0,0,1-1.49.76l-.26,0h-.4a3.54,3.54,0,0,1-.47-.07,2.83,2.83,0,0,1-1.57-1,2.92,2.92,0,0,1-.6-1.45l0-.17h-1.25a.32.32,0,0,1-.27-.13c-.17-.2-.34-.39-.5-.59l-1.32-1.57-1.15-1.37-.22-.26-.32.94h0l0,0a3,3,0,0,1,1.57,2.31,2.7,2.7,0,0,1,0,1.06,3,3,0,0,1-1.31,1.89,2.63,2.63,0,0,1-1.14.42l-.19,0h-.37l-.44-.06a2.88,2.88,0,0,1-1.85-1.43,2.83,2.83,0,0,1-.36-1.13l0-.21Zm3.91-2s0,0,0,.05l-.54,1.57c-.06.18-.13.37-.19.56a.27.27,0,0,1-.35.19.3.3,0,0,1-.19-.41c.24-.71.49-1.41.73-2.12v0a2.27,2.27,0,0,0-2.65,1.62,2.4,2.4,0,0,0,1.42,3,2.26,2.26,0,0,0,2.89-1.42A2.42,2.42,0,0,0,293,227.48Zm5.84,2.39a2.33,2.33,0,0,0,1.68,2,2.25,2.25,0,0,0,2.59-1.17,2.49,2.49,0,0,0-.45-2.88,2.2,2.2,0,0,0-2.25-.52l.18.4c.25.56.51,1.12.76,1.69a.23.23,0,0,1,0,.18.29.29,0,0,1-.3.26H298.8Zm-5.09-4.57,3.12,3.72,1.69-3.72Zm5.87,1.72-.6-1.32-1.61,3.55h.83A3.09,3.09,0,0,1,299.58,227Zm-.78,2.23h1.79l-.75-1.66A2.41,2.41,0,0,0,298.8,229.25Z" transform="translate(-154.56 -70.99)"/><path class="cls-18" d="M312.53,235.73v-.19a3,3,0,0,1,.22-1.26,2.93,2.93,0,0,1,1.59-1.63,2.54,2.54,0,0,1,1.28-.2s0,0,0,0c.2-1.09.4-2.19.61-3.28a.93.93,0,0,1,.61-.74l.1,0,1-.16h0l.09.6h0l-.92.15a.31.31,0,0,0-.29.29l-.18,1a.08.08,0,0,1,0,0h.05l4.74-.77a.05.05,0,0,0,.05,0c0-.19.1-.37.16-.56a.11.11,0,0,1,0,0h0l-.8.13a.29.29,0,0,1-.3-.15.3.3,0,0,1,0-.34.28.28,0,0,1,.19-.12l2.15-.35h0l.09.6h0l-.64.1a.07.07,0,0,0-.05,0c-.08.31-.17.61-.25.91a0,0,0,0,0,0,0l1,1.58v0c.09,0,.17-.09.26-.12a2.61,2.61,0,0,1,.95-.24,2.79,2.79,0,0,1,2,.66,2.82,2.82,0,0,1,.91,1.33,3,3,0,0,1-.45,2.88,2.79,2.79,0,0,1-1.37,1l-.25.07h0l-.32.05h0a3.84,3.84,0,0,1-.48,0,2.7,2.7,0,0,1-1.7-.77,2.86,2.86,0,0,1-.81-1.33l-.05-.17h-.05l-1.18.19a.33.33,0,0,1-.3-.08l-.58-.51L318,233l-1.34-1.17-.25-.22-.18,1h0l0,0a3,3,0,0,1,2,3.08,3,3,0,0,1-1,2.08,2.62,2.62,0,0,1-1.07.59l-.18.06-.32.05h-.49a2.94,2.94,0,0,1-2.56-2.17l-.06-.2Zm3.57-2.55a.09.09,0,0,1,0,0l-.3,1.63c0,.2-.07.39-.1.59a.3.3,0,0,1-.33.25.31.31,0,0,1-.24-.38c.14-.73.27-1.47.41-2.21v-.05a2.3,2.3,0,0,0-2.39,2,2.37,2.37,0,0,0,1.84,2.71,2.3,2.3,0,0,0,2.65-1.86A2.39,2.39,0,0,0,316.1,233.18Zm6.12,1.43a2.33,2.33,0,0,0,2,1.74,2.28,2.28,0,0,0,2.38-1.57,2.45,2.45,0,0,0-.87-2.78,2.18,2.18,0,0,0-2.29-.15l.23.36,1,1.55a.35.35,0,0,1,.06.18.3.3,0,0,1-.27.3l-2.16.36Zm-5.69-3.7,3.63,3.17,1.12-3.94Zm6.05.75-.79-1.21-1.07,3.77.82-.13A3.12,3.12,0,0,1,322.58,231.66Zm-.44,2.33,1.77-.29-1-1.52A2.46,2.46,0,0,0,322.14,234Z" transform="translate(-154.56 -70.99)"/><path class="cls-18" d="M312.66,215c0-.06,0-.13,0-.19a3,3,0,0,1,.15-1.27,2.94,2.94,0,0,1,1.5-1.72,2.64,2.64,0,0,1,1.26-.28s0,0,.05,0l.42-3.31a.91.91,0,0,1,.57-.77l.11,0,1-.21h0l.12.6h-.05l-.91.2a.32.32,0,0,0-.27.31l-.12,1a.07.07,0,0,0,0,.05h0l4.69-1a.06.06,0,0,0,.05-.05c0-.19.09-.38.13-.57a.43.43,0,0,0,0-.05h-.05l-.79.18a.26.26,0,0,1-.3-.13.3.3,0,0,1,.19-.47l2.12-.48h0l.12.59h0l-.63.14s0,0,0,.05l-.21.91a.13.13,0,0,0,0,.06l1.11,1.51,0,0,.24-.14a2.61,2.61,0,0,1,.95-.28,2.73,2.73,0,0,1,2,.53,2.85,2.85,0,0,1,1,1.28,3.06,3.06,0,0,1-.3,2.9,2.77,2.77,0,0,1-1.31,1.08l-.25.08,0,0-.31.07h0l-.48,0a2.76,2.76,0,0,1-1.74-.67,3,3,0,0,1-.89-1.28,1.09,1.09,0,0,0-.05-.17h-.05l-1.17.27a.36.36,0,0,1-.3-.07l-.61-.47-1.6-1.25-1.4-1.09-.26-.2-.13,1h.05a2.94,2.94,0,0,1,2,1.91,2.88,2.88,0,0,1,.16,1.05,3,3,0,0,1-.9,2.13,2.68,2.68,0,0,1-1,.66l-.18.07-.32.07h0c-.15,0-.29,0-.44,0a2.8,2.8,0,0,1-2.1-1,2.83,2.83,0,0,1-.58-1,1.46,1.46,0,0,1-.07-.19Zm3.43-2.76a.43.43,0,0,1,0,.05l-.21,1.65c0,.2-.05.4-.08.59a.29.29,0,0,1-.3.27.29.29,0,0,1-.26-.36c.09-.74.19-1.49.28-2.24v0a2.32,2.32,0,0,0-2.28,2.16,2.35,2.35,0,0,0,2,2.59,2.3,2.3,0,0,0,2.54-2A2.38,2.38,0,0,0,316.09,212.23Zm6.19,1.06a2.25,2.25,0,0,0,4.35-.08,2.44,2.44,0,0,0-1-2.72,2.19,2.19,0,0,0-2.3,0l.25.35c.37.49.73,1,1.09,1.48a.31.31,0,0,1,.07.18.31.31,0,0,1-.25.32l-2.14.48Zm-5.89-3.35,3.8,2.95.9-4Zm6.09.39-.86-1.16-.86,3.83.81-.18A3.13,3.13,0,0,1,322.48,210.33Zm-.32,2.35,1.75-.39-1.07-1.46A2.47,2.47,0,0,0,322.16,212.68Z" transform="translate(-154.56 -70.99)"/><path class="cls-18" d="M293.43,255.75a1.23,1.23,0,0,0,0-.19,3,3,0,0,1,.41-1.21,2.88,2.88,0,0,1,1.81-1.36,2.68,2.68,0,0,1,1.29,0s0,0,.05,0l1.08-3.14a.9.9,0,0,1,.71-.63h1.13v.61h-1a.31.31,0,0,0-.33.24l-.32.93a.06.06,0,0,0,0,0h4.83a.05.05,0,0,0,.06,0l.24-.53,0,0h-.86a.29.29,0,0,1-.27-.2.31.31,0,0,1,.07-.33.29.29,0,0,1,.21-.09h2.22v.62h-.69s0,0-.05,0l-.39.85a0,0,0,0,0,0,.05l.78,1.73v0l.27-.08a2.49,2.49,0,0,1,1-.07,2.83,2.83,0,0,1,1.83.95,2.88,2.88,0,0,1,.7,1.47,3,3,0,0,1-.87,2.77,2.64,2.64,0,0,1-1.49.76l-.27,0h-.39c-.16,0-.32,0-.47-.08a2.8,2.8,0,0,1-1.57-1,3,3,0,0,1-.61-1.45c0-.05,0-.11,0-.17h-1.25a.35.35,0,0,1-.28-.13l-.49-.59-1.32-1.57-1.16-1.37-.21-.26-.32.94h0l0,0a3,3,0,0,1,1.58,2.31,3.08,3.08,0,0,1-1.35,3,2.67,2.67,0,0,1-1.15.42l-.19,0h-.36l-.44-.07a2.85,2.85,0,0,1-1.85-1.42,3.12,3.12,0,0,1-.37-1.14,1.49,1.49,0,0,0,0-.21Zm3.9-1.95s0,0,0,0l-.54,1.57c-.06.18-.13.37-.19.56a.29.29,0,0,1-.36.19.31.31,0,0,1-.18-.41c.24-.7.48-1.41.73-2.12v0a2.27,2.27,0,0,0-2.66,1.61,2.41,2.41,0,0,0,1.43,3,2.25,2.25,0,0,0,2.88-1.41A2.42,2.42,0,0,0,297.33,253.8Zm5.84,2.39a2.33,2.33,0,0,0,1.68,2,2.24,2.24,0,0,0,2.59-1.17,2.45,2.45,0,0,0-.45-2.88,2.18,2.18,0,0,0-2.24-.52c.06.14.12.27.17.4.26.56.52,1.12.77,1.69a.31.31,0,0,1,0,.19.29.29,0,0,1-.3.25h-2.25Zm-5.08-4.56,3.12,3.71,1.68-3.71Zm5.87,1.71-.61-1.32-1.61,3.55h.83A3.1,3.1,0,0,1,304,253.34Zm-.78,2.23H305l-.76-1.66A2.43,2.43,0,0,0,303.18,255.57Z" transform="translate(-154.56 -70.99)"/><path class="cls-18" d="M268.4,269.34a1.23,1.23,0,0,1,0-.19,2.86,2.86,0,0,1,.41-1.21,2.81,2.81,0,0,1,1.8-1.35,2.72,2.72,0,0,1,1.3,0s0,0,.05,0l1.08-3.14a.9.9,0,0,1,.71-.63h1.13v.61h-1a.3.3,0,0,0-.32.24c-.11.31-.22.62-.32.94,0,0,0,0,0,0h4.84s0,0,.06,0l.24-.52s0,0,0-.05h-.86a.28.28,0,0,1-.27-.19.3.3,0,0,1,.07-.34.28.28,0,0,1,.21-.08h2.21V264h-.69a.05.05,0,0,0,0,0c-.12.29-.25.57-.38.85a.06.06,0,0,0,0,.06l.78,1.72v0l.27-.08a2.69,2.69,0,0,1,1-.07,2.78,2.78,0,0,1,1.82,1,2.9,2.9,0,0,1,.71,1.47,3,3,0,0,1-.87,2.78,2.8,2.8,0,0,1-1.5.76l-.26,0h-.39c-.16,0-.32,0-.48-.08a2.84,2.84,0,0,1-1.56-1,3,3,0,0,1-.61-1.45,1.11,1.11,0,0,1,0-.17h-1.25a.33.33,0,0,1-.28-.13l-.5-.6-1.32-1.57L273,266.12l-.21-.25-.32.93h0l0,0a3.06,3.06,0,0,1,.23,5.25,2.72,2.72,0,0,1-1.15.42l-.19,0h-.36a3.11,3.11,0,0,1-.44-.07,2.85,2.85,0,0,1-1.85-1.42,3,3,0,0,1-.37-1.14c0-.07,0-.14,0-.2Zm3.9-1.94s0,0,0,0c-.18.52-.35,1.05-.53,1.57l-.2.56a.28.28,0,0,1-.35.2.3.3,0,0,1-.18-.41l.72-2.13,0,0a2.27,2.27,0,0,0-2.66,1.61,2.4,2.4,0,0,0,1.42,3,2.25,2.25,0,0,0,2.89-1.41A2.41,2.41,0,0,0,272.3,267.4Zm5.84,2.39a2.33,2.33,0,0,0,1.68,2,2.24,2.24,0,0,0,2.59-1.16,2.47,2.47,0,0,0-.45-2.89,2.17,2.17,0,0,0-2.25-.51l.18.39c.26.56.51,1.13.77,1.69a.31.31,0,0,1,0,.19.3.3,0,0,1-.3.26h-2.25Zm-5.09-4.57,3.12,3.71,1.69-3.71Zm5.88,1.72-.61-1.33-1.61,3.56h.83A3,3,0,0,1,278.93,266.94Zm-.78,2.23h1.79l-.76-1.67A2.4,2.4,0,0,0,278.15,269.17Z" transform="translate(-154.56 -70.99)"/><path class="cls-18" d="M293.43,286.82a1.36,1.36,0,0,0,0-.2,3.05,3.05,0,0,1,.41-1.21,2.87,2.87,0,0,1,1.81-1.35,2.68,2.68,0,0,1,1.29,0s0,0,.05,0l1.08-3.14a.9.9,0,0,1,.71-.63h1.13v.61h-1a.31.31,0,0,0-.33.24c-.11.31-.21.62-.32.94,0,0,0,0,0,0h4.83a.05.05,0,0,0,.06,0l.24-.52,0,0h-.86a.29.29,0,0,1-.27-.19.32.32,0,0,1,.07-.34.28.28,0,0,1,.21-.08h2.22v.61h-.69a0,0,0,0,0-.05,0l-.39.86a0,0,0,0,0,0,.05l.78,1.72v0l.27-.08a2.69,2.69,0,0,1,1-.07,2.93,2.93,0,0,1,2.53,2.42,3,3,0,0,1-.87,2.78,2.77,2.77,0,0,1-1.49.76l-.27,0h-.39c-.16,0-.32,0-.47-.08a2.78,2.78,0,0,1-1.57-1,3.07,3.07,0,0,1-.61-1.45c0-.06,0-.11,0-.17h-1.25a.35.35,0,0,1-.28-.13l-.49-.6L299.23,285l-1.16-1.38-.21-.25-.32.93h0l0,0a3,3,0,0,1,1.58,2.31,2.91,2.91,0,0,1-.05,1.06,3,3,0,0,1-1.3,1.89,2.65,2.65,0,0,1-1.15.41l-.19,0h-.36a3.35,3.35,0,0,1-.44-.07,2.82,2.82,0,0,1-1.85-1.42,3,3,0,0,1-.37-1.14,1.36,1.36,0,0,0,0-.2Zm3.9-1.95s0,0,0,0l-.54,1.57c-.06.19-.13.38-.19.56a.3.3,0,0,1-.36.2.31.31,0,0,1-.18-.41c.24-.71.48-1.42.73-2.13v0a2.27,2.27,0,0,0-2.66,1.61,2.41,2.41,0,0,0,1.43,3,2.24,2.24,0,0,0,2.88-1.41A2.41,2.41,0,0,0,297.33,284.87Zm5.84,2.39a2.36,2.36,0,0,0,1.68,2,2.25,2.25,0,0,0,2.59-1.17,2.47,2.47,0,0,0-.45-2.89,2.18,2.18,0,0,0-2.24-.51c.06.13.12.26.17.39.26.56.52,1.13.77,1.69a.31.31,0,0,1,0,.19.29.29,0,0,1-.3.26h-2.25Zm-5.08-4.57,3.12,3.72,1.68-3.72Zm5.87,1.72-.61-1.33-1.61,3.56h.83A3.06,3.06,0,0,1,304,284.41Zm-.78,2.23H305l-.76-1.67A2.48,2.48,0,0,0,303.18,286.64Z" transform="translate(-154.56 -70.99)"/><path class="cls-18" d="M314.21,273.77l.07-.18a2.88,2.88,0,0,1,.71-1,2.72,2.72,0,0,1,2.1-.77,2.64,2.64,0,0,1,1.24.38s0,0,.06,0l1.87-2.7a.89.89,0,0,1,.85-.4.35.35,0,0,1,.11,0l1,.29h0L322,270h0l-.9-.28a.3.3,0,0,0-.38.14l-.55.8,0,0h0l4.61,1.4s0,0,.06,0,.25-.29.37-.43l0,0h-.05l-.78-.24a.3.3,0,0,1-.21-.27.31.31,0,0,1,.16-.3.28.28,0,0,1,.22,0l2.09.64h0l-.16.59h0l-.63-.19s0,0,0,0l-.6.71a.08.08,0,0,0,0,0l.3,1.88v0h.28a2.67,2.67,0,0,1,1,.21,2.94,2.94,0,0,1,1.5,1.45,3,3,0,0,1,.28,1.62,2.94,2.94,0,0,1-1.57,2.41,2.61,2.61,0,0,1-1.64.29l-.26,0h0l-.3-.09,0,0a4.3,4.3,0,0,1-.43-.21A2.87,2.87,0,0,1,323,278.6a3,3,0,0,1-.2-1.57l0-.17h-.05l-1.15-.35a.39.39,0,0,1-.24-.21c-.1-.24-.21-.48-.32-.71l-.84-1.9c-.25-.55-.5-1.1-.74-1.65,0-.1-.09-.2-.14-.31l-.56.81h0l0,0a3.09,3.09,0,0,1,.9,2.68,3,3,0,0,1-2.09,2.44,2.61,2.61,0,0,1-1.21.07l-.19,0-.31-.09,0,0-.4-.19a3,3,0,0,1-1.4-1.91,3,3,0,0,1-.05-1.2,1.42,1.42,0,0,1,0-.2Zm4.26-.73,0,0c-.31.46-.63.91-.94,1.36l-.33.48a.28.28,0,0,1-.4.08.3.3,0,0,1-.06-.44l1.26-1.83,0,0a2.22,2.22,0,0,0-3,.77,2.46,2.46,0,0,0,.57,3.27,2.22,2.22,0,0,0,3.15-.51A2.45,2.45,0,0,0,318.47,273Zm5,4a2.4,2.4,0,0,0,1.08,2.44,2.2,2.2,0,0,0,2.79-.36,2.48,2.48,0,0,0,.34-2.9,2.2,2.2,0,0,0-2-1.15c0,.14,0,.28.07.43.09.61.19,1.23.28,1.84a.31.31,0,0,1,0,.19.29.29,0,0,1-.36.16l-2.11-.64Zm-3.66-5.87,2,4.48,2.61-3.08Zm5.18,3.36-.23-1.45L322.24,276l.8.25A2.92,2.92,0,0,1,325,274.53Zm-1.34,1.91,1.72.52-.29-1.81A2.31,2.31,0,0,0,323.62,276.44Z" transform="translate(-154.56 -70.99)"/><path class="cls-18" d="M318.78,256.16a1.05,1.05,0,0,1,.05-.19,2.83,2.83,0,0,1,.58-1.13,2.79,2.79,0,0,1,2-1.05,2.68,2.68,0,0,1,1.28.21s0,0,.05,0l1.53-2.93a.89.89,0,0,1,.8-.51h.1l1,.16h0l-.09.6H326l-.92-.15a.3.3,0,0,0-.36.18l-.45.88,0,0h0l4.74.77s0,0,.06,0,.21-.33.31-.49l0,0h0l-.8-.13a.3.3,0,0,1-.24-.23.32.32,0,0,1,.12-.32.29.29,0,0,1,.22,0l2.15.35h0l-.09.6h0l-.64-.1s0,0-.05,0l-.51.78a.13.13,0,0,0,0,.06c.17.6.35,1.21.52,1.82v0l.27,0a2.7,2.7,0,0,1,1,.09,2.82,2.82,0,0,1,1.67,1.23,3.11,3.11,0,0,1-.79,4.17,2.67,2.67,0,0,1-1.59.51h-.3l-.31-.05h0a4.19,4.19,0,0,1-.46-.16,2.77,2.77,0,0,1-1.39-1.27,2.91,2.91,0,0,1-.39-1.53v-.17h-.05l-1.18-.19a.36.36,0,0,1-.26-.17c-.13-.23-.27-.45-.4-.67l-1.08-1.76-.93-1.54-.18-.29-.45.87h0l0,0a3,3,0,0,1,1.22,2.54,2.83,2.83,0,0,1-.2,1,3,3,0,0,1-1.57,1.66,2.72,2.72,0,0,1-1.19.23h-.19l-.33-.05,0,0-.43-.13a2.91,2.91,0,0,1-1.62-1.71,3,3,0,0,1-.19-1.18,1.48,1.48,0,0,1,0-.21Zm4.14-1.3a.05.05,0,0,0,0,0l-.77,1.46-.27.53a.29.29,0,0,1-.38.13.3.3,0,0,1-.12-.43c.34-.66.69-1.32,1-2l0,0a2.24,2.24,0,0,0-2.86,1.17,2.43,2.43,0,0,0,1,3.16,2.22,2.22,0,0,0,3.06-.93A2.43,2.43,0,0,0,322.92,254.86Zm5.42,3.3a2.38,2.38,0,0,0,1.36,2.28,2.23,2.23,0,0,0,2.73-.74,2.48,2.48,0,0,0,0-2.92,2.18,2.18,0,0,0-2.15-.87l.12.42.51,1.79a.25.25,0,0,1,0,.19.3.3,0,0,1-.33.21l-2.17-.36ZM324,252.83l2.54,4.17,2.21-3.4Zm5.55,2.63-.4-1.4L327,257.31l.82.14A3,3,0,0,1,329.53,255.46Zm-1.09,2.08,1.76.29-.5-1.76A2.34,2.34,0,0,0,328.44,257.54Z" transform="translate(-154.56 -70.99)"/><path class="cls-18" d="M285.71,315.07a1.23,1.23,0,0,1,0-.19,3,3,0,0,1,2.21-2.57,2.68,2.68,0,0,1,1.29,0s0,0,.06,0l1.08-3.14a.9.9,0,0,1,.71-.63h1.13v.61h-1a.3.3,0,0,0-.32.24l-.33.93a.06.06,0,0,1,0,0h4.84s0,0,.06,0l.24-.53,0,0h-.86a.28.28,0,0,1-.27-.2.31.31,0,0,1,.07-.34.32.32,0,0,1,.21-.08h2.21v.62h-.69s0,0,0,0c-.13.28-.26.57-.38.85a0,0,0,0,0,0,.05l.78,1.73v0l.27-.08a2.7,2.7,0,0,1,1-.08,2.84,2.84,0,0,1,1.82,1,2.9,2.9,0,0,1,.71,1.47,3,3,0,0,1-.87,2.77,2.67,2.67,0,0,1-1.5.76l-.26,0h-.39c-.16,0-.32,0-.48-.08a2.81,2.81,0,0,1-1.56-1,2.94,2.94,0,0,1-.61-1.45.88.88,0,0,1,0-.17H293.6a.33.33,0,0,1-.28-.13l-.5-.59-1.32-1.57-1.15-1.37-.21-.26-.32.94h0l0,0a3,3,0,0,1,1.58,2.31,2.9,2.9,0,0,1-.05,1.06,3,3,0,0,1-1.3,1.89,2.72,2.72,0,0,1-1.15.42l-.19,0h-.36l-.44-.07a2.83,2.83,0,0,1-1.85-1.43,3,3,0,0,1-.37-1.13,1.49,1.49,0,0,1,0-.21Zm3.9-1.95,0,.05c-.18.52-.36,1-.53,1.57-.07.18-.13.37-.2.56a.27.27,0,0,1-.35.19.3.3,0,0,1-.19-.41c.25-.71.49-1.41.73-2.12l0,0a2.26,2.26,0,0,0-2.66,1.61,2.41,2.41,0,0,0,1.42,3,2.26,2.26,0,0,0,2.89-1.41A2.42,2.42,0,0,0,289.61,313.12Zm5.84,2.39a2.33,2.33,0,0,0,1.68,2,2.24,2.24,0,0,0,2.59-1.17,2.45,2.45,0,0,0-.45-2.88A2.2,2.2,0,0,0,297,313l.18.4c.26.56.51,1.12.77,1.69a.38.38,0,0,1,0,.18.3.3,0,0,1-.31.26h-2.24ZM290.36,311l3.12,3.71,1.69-3.71Zm5.88,1.71-.61-1.32L294,314.89h.83A3.07,3.07,0,0,1,296.24,312.66Zm-.78,2.23h1.79l-.76-1.66A2.4,2.4,0,0,0,295.46,314.89Z" transform="translate(-154.56 -70.99)"/><path class="cls-18" d="M312.07,306.81a1.34,1.34,0,0,0,.07-.18,2.92,2.92,0,0,1,.68-1.07,2.8,2.8,0,0,1,2.07-.84,2.75,2.75,0,0,1,1.25.34s0,0,.06,0l1.79-2.76a.88.88,0,0,1,.84-.43l.11,0,1,.26h0l-.15.59h0l-.9-.24a.31.31,0,0,0-.38.15l-.53.82s0,0,0,0h0l4.65,1.24s0,0,.06,0l.36-.45,0,0H323l-.79-.21a.29.29,0,0,1-.21-.26.31.31,0,0,1,.15-.31.33.33,0,0,1,.22,0l2.11.56h0l-.14.6,0,0-.63-.16a0,0,0,0,0-.05,0l-.58.72s0,0,0,.05c.11.63.23,1.25.35,1.87v0h.28a2.69,2.69,0,0,1,1,.18,2.88,2.88,0,0,1,1.54,1.4,3.09,3.09,0,0,1-1.16,4.07,2.73,2.73,0,0,1-1.63.35l-.26,0h0l-.31-.08,0,0a3.49,3.49,0,0,1-.44-.2,2.91,2.91,0,0,1-1.28-1.4,3,3,0,0,1-.24-1.57,1.11,1.11,0,0,1,0-.17h-.05l-1.17-.31a.35.35,0,0,1-.23-.2c-.12-.23-.23-.47-.35-.7l-.9-1.86c-.27-.54-.53-1.09-.79-1.63l-.15-.3-.53.82h0l0,0a3.1,3.1,0,0,1,.69,3.66,2.89,2.89,0,0,1-1.71,1.49,2.62,2.62,0,0,1-1.21.11l-.19,0-.32-.08,0,0c-.14-.06-.28-.11-.41-.18a3,3,0,0,1-1.46-1.85,3,3,0,0,1-.08-1.2c0-.07,0-.14,0-.2Zm4.25-.87,0,0-.89,1.38-.32.5a.28.28,0,0,1-.39.1.31.31,0,0,1-.08-.45c.4-.62.8-1.25,1.21-1.87l0,0a2.23,2.23,0,0,0-3,.88,2.44,2.44,0,0,0,.68,3.24,2.21,2.21,0,0,0,3.13-.62A2.44,2.44,0,0,0,316.32,305.94Zm5.09,3.82a2.4,2.4,0,0,0,1.15,2.41,2.21,2.21,0,0,0,2.78-.47,2.47,2.47,0,0,0,.25-2.91,2.25,2.25,0,0,0-2.06-1.08c0,.15.06.29.08.43.12.61.23,1.23.35,1.84a.31.31,0,0,1,0,.19.29.29,0,0,1-.35.17l-2.13-.57ZM317.56,304l2.15,4.41,2.51-3.17Zm5.29,3.18-.28-1.44-2.4,3,.81.21A3,3,0,0,1,322.85,307.2Zm-1.29,2,1.74.46-.34-1.8A2.34,2.34,0,0,0,321.56,309.16Z" transform="translate(-154.56 -70.99)"/><path class="cls-18" d="M268.73,298.62a1.23,1.23,0,0,1,0-.19,2.86,2.86,0,0,1,.41-1.21,2.79,2.79,0,0,1,1.8-1.35,2.68,2.68,0,0,1,1.29,0s.05,0,.06,0c.36-1,.71-2.09,1.08-3.14a.9.9,0,0,1,.71-.63h1.13v.61h-1a.3.3,0,0,0-.32.24l-.33.93a.09.09,0,0,1,0,.05h4.84s0,0,.06,0c.07-.18.16-.35.24-.52,0,0,0,0,0-.05h-.86a.31.31,0,0,1-.28-.19.33.33,0,0,1,.08-.34.28.28,0,0,1,.21-.08h2.21v.61h-.69a.05.05,0,0,0-.05,0c-.13.28-.26.57-.38.85a.06.06,0,0,0,0,.06c.25.57.52,1.14.78,1.72v0l.27-.08a2.69,2.69,0,0,1,1-.07,2.78,2.78,0,0,1,1.82.95,3,3,0,0,1,.71,1.47,3,3,0,0,1-.87,2.77,2.75,2.75,0,0,1-1.5.77l-.26,0h-.4c-.15,0-.31,0-.47-.08a2.84,2.84,0,0,1-1.56-1,3,3,0,0,1-.61-1.45,1.11,1.11,0,0,1,0-.17h-1.25a.33.33,0,0,1-.28-.13l-.5-.6-1.32-1.57-1.15-1.37-.22-.26-.32.94h0l0,0a3,3,0,0,1,1.58,2.3,2.9,2.9,0,0,1,0,1.06,3,3,0,0,1-1.3,1.89,2.72,2.72,0,0,1-1.15.42l-.19,0h-.36a3.11,3.11,0,0,1-.44-.07,2.85,2.85,0,0,1-1.85-1.42,3.06,3.06,0,0,1-.37-1.14,1.5,1.5,0,0,1,0-.2Zm3.9-1.94s0,0,0,0l-.54,1.57c-.06.19-.12.37-.19.56a.28.28,0,0,1-.35.2.31.31,0,0,1-.19-.42c.25-.7.49-1.41.73-2.12l0,0a2.26,2.26,0,0,0-2.66,1.61,2.4,2.4,0,0,0,1.42,3,2.26,2.26,0,0,0,2.89-1.41A2.4,2.4,0,0,0,272.63,296.68Zm5.84,2.39a2.33,2.33,0,0,0,1.68,2,2.24,2.24,0,0,0,2.59-1.17,2.47,2.47,0,0,0-.45-2.88,2.17,2.17,0,0,0-2.25-.51l.18.39c.26.56.51,1.13.77,1.69a.4.4,0,0,1,0,.19.3.3,0,0,1-.31.26h-2.24Zm-5.09-4.57,3.12,3.71,1.69-3.71Zm5.88,1.72-.61-1.33L277,298.44h.83A3,3,0,0,1,279.26,296.22Zm-.78,2.22h1.79l-.76-1.66A2.4,2.4,0,0,0,278.48,298.44Z" transform="translate(-154.56 -70.99)"/><path class="cls-18" d="M268.21,244.47c0-.06,0-.13,0-.19a2.86,2.86,0,0,1,.41-1.21,2.81,2.81,0,0,1,1.8-1.35,2.6,2.6,0,0,1,1.3,0s0,0,.05,0l1.08-3.14a.9.9,0,0,1,.71-.63h1.13v.61h-1a.3.3,0,0,0-.32.24c-.11.31-.22.62-.32.93l0,.05h4.84s0,0,.06,0l.24-.53,0,0h-.86a.28.28,0,0,1-.27-.19.3.3,0,0,1,.07-.34.28.28,0,0,1,.21-.08h2.21v.61h-.69a.05.05,0,0,0,0,0c-.12.28-.25.57-.38.85a.06.06,0,0,0,0,.06l.78,1.72v0l.27-.08a2.49,2.49,0,0,1,1-.07,2.78,2.78,0,0,1,1.82,1,2.9,2.9,0,0,1,.71,1.47,3,3,0,0,1-.87,2.77,2.75,2.75,0,0,1-1.5.77l-.26,0H280c-.16,0-.32,0-.48-.08a2.81,2.81,0,0,1-1.56-1,3,3,0,0,1-.61-1.45.88.88,0,0,1,0-.17H276.1a.37.37,0,0,1-.28-.13l-.5-.6L274,242.62l-1.15-1.37-.21-.26-.32.94h0a3,3,0,0,1,1.58,2.31,2.9,2.9,0,0,1-.05,1.06,3,3,0,0,1-1.3,1.89,2.67,2.67,0,0,1-1.15.42l-.19,0h-.36l-.44-.07a2.85,2.85,0,0,1-1.85-1.42,3.06,3.06,0,0,1-.37-1.14c0-.07,0-.14,0-.2Zm3.9-1.94,0,0c-.18.52-.35,1-.53,1.57l-.2.56a.28.28,0,0,1-.35.2.31.31,0,0,1-.18-.42l.72-2.12,0,0a2.27,2.27,0,0,0-2.66,1.61,2.4,2.4,0,0,0,1.42,3,2.26,2.26,0,0,0,2.89-1.41A2.4,2.4,0,0,0,272.11,242.53Zm5.84,2.38a2.33,2.33,0,0,0,1.68,2,2.24,2.24,0,0,0,2.59-1.17,2.45,2.45,0,0,0-.45-2.88,2.17,2.17,0,0,0-2.25-.51l.18.39c.26.56.51,1.13.77,1.69a.31.31,0,0,1,0,.19.3.3,0,0,1-.3.25H278Zm-5.09-4.56,3.13,3.71,1.68-3.71Zm5.88,1.71-.61-1.32-1.61,3.55h.83A3.07,3.07,0,0,1,278.74,242.06Zm-.78,2.23h1.79l-.76-1.66A2.4,2.4,0,0,0,278,244.29Z" transform="translate(-154.56 -70.99)"/><path class="cls-19" d="M318.45,96.2" transform="translate(-154.56 -70.99)"/><ellipse class="cls-20" cx="106.89" cy="57.95" rx="45.08" ry="57.95"/><rect class="cls-21" x="236.55" y="106.63" width="21.69" height="13.48" rx="4.43" ry="4.43" transform="translate(340.24 155.76) rotate(180)"/><rect class="cls-22" x="264.81" y="106.63" width="21.69" height="13.48" rx="4.43" ry="4.43" transform="translate(396.76 155.76) rotate(180)"/><ellipse class="cls-23" cx="92.84" cy="42.39" rx="2.15" ry="2.67"/><ellipse class="cls-23" cx="121.1" cy="42.39" rx="2.15" ry="2.67"/><path class="cls-24" d="M216.89,118.23,236,85.94s35,6.1,48.19,0l20.27,28.48s-5.42-23.78-18.22-33.53c-8.94-6.81-11.6-7.24-12.36-7.7a5.47,5.47,0,0,0-2.41-.64c-4.42-1.41-19.06-3.89-33.78,6.8C220,92.21,216.89,118.23,216.89,118.23Z" transform="translate(-154.56 -70.99)"/><path class="cls-25" d="M284.2,86.06l20.08,28.2s-5.37-23.56-18-33.2C285,80.14,288,82.5,284.2,86.06Z" transform="translate(-154.56 -70.99)"/><path class="cls-26" d="M305.58,137.36s-41.81,56.95-89.8,0c0,0,5.09,48,45.08,50.57C260.86,187.93,299.29,189.25,305.58,137.36Z" transform="translate(-154.56 -70.99)"/><line class="cls-19" x1="95" y1="88.04" x2="118.95" y2="88.04"/><path class="cls-27" d="M249.55,159a21.54,21.54,0,0,1,6-2,32.79,32.79,0,0,1,6-.54,33.76,33.76,0,0,1,6,.53,21.51,21.51,0,0,1,6,2,21.51,21.51,0,0,1-6,2,33.76,33.76,0,0,1-6,.53,32.79,32.79,0,0,1-6-.54A21.87,21.87,0,0,1,249.55,159Z" transform="translate(-154.56 -70.99)"/><line class="cls-19" x1="93.69" y1="88.04" x2="120.49" y2="88.04"/><path class="cls-28" d="M248.24,159c2.24-.16,4.47-.23,6.7-.29s4.47-.05,6.7-.09,4.47,0,6.71.09,4.46.13,6.7.29c-2.24.16-4.47.23-6.7.29s-4.47.05-6.71.08-4.46,0-6.7-.08S250.48,159.18,248.24,159Z" transform="translate(-154.56 -70.99)"/><polyline class="cls-29" points="112 71.48 107.43 72.88 101.94 71.28 106.46 50.13"/><polyline class="cls-30" points="107.43 72.88 101.94 71.28 106.46 50.13"/><path class="cls-20" d="M264.19,113.21s-2.33-3-5.32,0" transform="translate(-154.56 -70.99)"/><path class="cls-31" d="M264.15,113.25a8.63,8.63,0,0,0-2.6-.48,5.44,5.44,0,0,0-1.13.13c-.22,0-.44.12-.69.17a6.57,6.57,0,0,1-.83.18l-.07-.07.57-.53a5.5,5.5,0,0,1,.64-.43,3.28,3.28,0,0,1,1.5-.45,3.56,3.56,0,0,1,2.69,1.41Z" transform="translate(-154.56 -70.99)"/><ellipse class="cls-32" cx="121.1" cy="42.39" rx="1.1" ry="1.36"/><ellipse class="cls-32" cx="92.84" cy="42.39" rx="1.1" ry="1.36"/><path class="cls-33" d="M215.78,137.36s11.66,35.57,27.68,44.72C243.46,182.08,224.84,179.42,215.78,137.36Z" transform="translate(-154.56 -70.99)"/></svg>