<svg id="Layer_1" data-name="Layer 1" xmlns="http://www.w3.org/2000/svg" xmlns:xlink="http://www.w3.org/1999/xlink" viewBox="0 0 225.32 417.9"><defs><style>.cls-1{fill:#e4e1c7;}.cls-2{fill:#512e2a;}.cls-3,.cls-4{fill:#9e2b20;}.cls-14,.cls-23,.cls-4,.cls-6{stroke:#231f20;}.cls-14,.cls-15,.cls-16,.cls-17,.cls-21,.cls-22,.cls-23,.cls-32,.cls-4,.cls-6,.cls-8{stroke-miterlimit:10;}.cls-5{fill:#231f20;}.cls-16,.cls-6,.cls-8{fill:none;}.cls-23,.cls-6{stroke-width:0.25px;}.cls-7{fill:#c2b59b;}.cls-8{stroke:#9b8579;}.cls-9{fill:#b1a58e;}.cls-10{fill:#9b8579;}.cls-11{fill:#1e4496;}.cls-12,.cls-17{fill:#234093;}.cls-13{fill:#124b9a;}.cls-14,.cls-15,.cls-20,.cls-21,.cls-22,.cls-23{fill:#fff;}.cls-15{stroke:#f9a560;}.cls-16{stroke:#283c91;}.cls-17{stroke:#262262;stroke-width:0.5px;}.cls-18{fill:#fff200;}.cls-19{fill:#d1d3d4;}.cls-21{stroke:url(#White_Black);}.cls-22{stroke:url(#White_Black-2);}.cls-24{fill:#fde79e;}.cls-25{fill:#fbeac8;}.cls-26{fill:#e5e1c5;}.cls-27{fill:#f9c9de;}.cls-28{fill:#8d536f;}.cls-29{fill:#e3e2db;}.cls-30{fill:#d0cca8;}.cls-31{fill:url(#White_Black-3);}.cls-32{fill:#2e3192;stroke:#00aeef;}.cls-33{fill:#cfcdb4;}</style><linearGradient id="White_Black" x1="264.74" y1="113.37" x2="287.43" y2="113.37" gradientTransform="matrix(1, 0, 0, -1, -28.69, 226.75)" gradientUnits="userSpaceOnUse"><stop offset="0" stop-color="#fff"/><stop offset="1" stop-color="#231f20"/></linearGradient><linearGradient id="White_Black-2" x1="236.49" y1="113.37" x2="259.18" y2="113.37" gradientTransform="matrix(1, 0, 0, -1, 27.83, 226.75)" xlink:href="#White_Black"/><linearGradient id="White_Black-3" x1="264.58" y1="112.51" x2="258.51" y2="112.51" gradientTransform="matrix(1, 0, 0, 1, 0, 0)" xlink:href="#White_Black"/></defs><title>5</title><polyline class="cls-1" points="135.09 334.96 128.49 400.24 121.05 399.87 120.3 334.22"/><polyline class="cls-1" points="88.99 334.96 95.6 400.24 103.03 399.87 103.78 334.22"/><path class="cls-2" d="M230.77,475.18s-20.25,10.71-7.52,12.21l12.73,1.5h16.19s6.73-4.74,6.73-11.59" transform="translate(-147.66 -70.99)"/><path class="cls-2" d="M286.2,475.18s20.24,10.71,7.52,12.21L281,488.89H264.8s-5.9-4.74-5.9-11.59" transform="translate(-147.66 -70.99)"/><path class="cls-3" d="M244.2,470.46s-33.1,10.7-20.38,12.2l12.73,1.49h16.19s6.16,0,6.16-6.85l-7.23-6.23h-.53" transform="translate(-147.66 -70.99)"/><path class="cls-3" d="M266.6,470.13l-7.39,7.17c0,6.85,6.16,6.85,6.16,6.85h16.19l12.73-1.49c12.73-1.5-18.15-12.21-18.15-12.21" transform="translate(-147.66 -70.99)"/><path class="cls-4" d="M259.31,477" transform="translate(-147.66 -70.99)"/><path class="cls-5" d="M270.57,414.52v2.22a3.22,3.22,0,0,1,0,.62,3.21,3.21,0,0,0,0-.62v-2.22a2.57,2.57,0,0,1,0-.62,2.57,2.57,0,0,0,0,.62Z" transform="translate(-147.66 -70.99)"/><path class="cls-5" d="M275.4,418.15v1.21a3.22,3.22,0,0,1,0,.62,3.2,3.2,0,0,0,0-.62v-1.21a3.22,3.22,0,0,1,0-.62,3.2,3.2,0,0,0,0,.62Z" transform="translate(-147.66 -70.99)"/><path class="cls-5" d="M277,422v1.21a2.57,2.57,0,0,1,0,.62,2.57,2.57,0,0,0,0-.62V422a3.33,3.33,0,0,1,0-.63,3.32,3.32,0,0,0,0,.63Z" transform="translate(-147.66 -70.99)"/><path class="cls-5" d="M280,421.78v.2a3.22,3.22,0,0,1,0,.62,3.21,3.21,0,0,0,0-.62v-.2a2.66,2.66,0,0,1,0-.63,2.66,2.66,0,0,0,0,.63Z" transform="translate(-147.66 -70.99)"/><path class="cls-5" d="M274,429.86s0-1.25,0-1.25,0,1.25,0,1.25Z" transform="translate(-147.66 -70.99)"/><path class="cls-5" d="M271.38,422v1.41a3.21,3.21,0,0,1,0,.62,3.21,3.21,0,0,0,0-.62V422a3.33,3.33,0,0,1,0-.63,3.32,3.32,0,0,0,0,.63Z" transform="translate(-147.66 -70.99)"/><path class="cls-5" d="M271.58,431v1.62a2.57,2.57,0,0,1,0,.62,2.57,2.57,0,0,0,0-.62V431a3.21,3.21,0,0,1,0-.62,3.21,3.21,0,0,0,0,.62Z" transform="translate(-147.66 -70.99)"/><path class="cls-5" d="M277.82,434.07v.6a3.33,3.33,0,0,1,0,.63,3.32,3.32,0,0,0,0-.63v-.6a3.33,3.33,0,0,1,0-.63,3.32,3.32,0,0,0,0,.63Z" transform="translate(-147.66 -70.99)"/><path class="cls-5" d="M275.81,436.28v1.62a2.57,2.57,0,0,1,0,.62,2.57,2.57,0,0,0,0-.62v-1.62a3.21,3.21,0,0,1,0-.62,3.21,3.21,0,0,0,0,.62Z" transform="translate(-147.66 -70.99)"/><path class="cls-5" d="M273.19,437.29v1a2.57,2.57,0,0,1,0,.62,2.57,2.57,0,0,0,0-.62v-1a3.22,3.22,0,0,1,0-.62,3.21,3.21,0,0,0,0,.62Z" transform="translate(-147.66 -70.99)"/><path class="cls-5" d="M271.17,437.49v.2a3.33,3.33,0,0,1,0,.63,3.32,3.32,0,0,0,0-.63v-.2a3.22,3.22,0,0,1,0-.62,3.21,3.21,0,0,0,0,.62Z" transform="translate(-147.66 -70.99)"/><path class="cls-5" d="M270.77,441.72v1a3.32,3.32,0,0,1,0,.63,3.31,3.31,0,0,0,0-.63v-1a2.57,2.57,0,0,1,0-.62,2.57,2.57,0,0,0,0,.62Z" transform="translate(-147.66 -70.99)"/><path class="cls-5" d="M276.82,443.34v.6a3.21,3.21,0,0,1,0,.62,3.2,3.2,0,0,0,0-.62v-.6a3.33,3.33,0,0,1,0-.63,3.32,3.32,0,0,0,0,.63Z" transform="translate(-147.66 -70.99)"/><path class="cls-5" d="M274.8,446v.21a3.21,3.21,0,0,1,0,.62,3.21,3.21,0,0,0,0-.62V446a2.57,2.57,0,0,1,0-.62,2.57,2.57,0,0,0,0,.62Z" transform="translate(-147.66 -70.99)"/><path class="cls-5" d="M272,449v1.21a3.21,3.21,0,0,1,0,.62,3.21,3.21,0,0,0,0-.62V449a2.66,2.66,0,0,1,0-.63,2.66,2.66,0,0,0,0,.63Z" transform="translate(-147.66 -70.99)"/><path class="cls-5" d="M276,451.6v.2a3.22,3.22,0,0,1,0,.62,3.21,3.21,0,0,0,0-.62v-.2a2.66,2.66,0,0,1,0-.63,2.66,2.66,0,0,0,0,.63Z" transform="translate(-147.66 -70.99)"/><path class="cls-5" d="M272.59,454.24s0-1.25,0-1.25,0,1.25,0,1.25Z" transform="translate(-147.66 -70.99)"/><path class="cls-5" d="M279.64,412.71v.81a3.21,3.21,0,0,1,0,.62,2.57,2.57,0,0,0,0-.62v-.81a3.22,3.22,0,0,1,0-.62,3.21,3.21,0,0,0,0,.62Z" transform="translate(-147.66 -70.99)"/><path class="cls-5" d="M272,411.1s0-1.25,0-1.25,0,1.25,0,1.25Z" transform="translate(-147.66 -70.99)"/><path class="cls-5" d="M276,409.9v-1.25s0,1.25,0,1.25Z" transform="translate(-147.66 -70.99)"/><path class="cls-5" d="M275.61,410.7v.6a3.21,3.21,0,0,1,0,.62,2.56,2.56,0,0,0,0-.62v-.6a3.33,3.33,0,0,1,0-.63,3.32,3.32,0,0,0,0,.63Z" transform="translate(-147.66 -70.99)"/><path class="cls-5" d="M280.64,408.88v1a3.22,3.22,0,0,1,0,.62,3.2,3.2,0,0,0,0-.62v-1a3.22,3.22,0,0,1,0-.62,3.21,3.21,0,0,0,0,.62Z" transform="translate(-147.66 -70.99)"/><path class="cls-5" d="M244.38,409.27v.4a3.31,3.31,0,0,1,0,.63,2.66,2.66,0,0,0,0-.63v-.4a3.22,3.22,0,0,1,0-.62,3.21,3.21,0,0,0,0,.62Z" transform="translate(-147.66 -70.99)"/><path class="cls-5" d="M248.82,409.31v-1.25s0,1.25,0,1.25Z" transform="translate(-147.66 -70.99)"/><path class="cls-6" d="M281.56,414a2,2,0,0,0,.64,2.18" transform="translate(-147.66 -70.99)"/><path class="cls-6" d="M281.53,411.07a2,2,0,0,1,.7,1.62" transform="translate(-147.66 -70.99)"/><path class="cls-6" d="M277,411.75a1.07,1.07,0,0,1-.55,1.22" transform="translate(-147.66 -70.99)"/><path class="cls-6" d="M271.39,411.94v1.5" transform="translate(-147.66 -70.99)"/><path class="cls-6" d="M268.77,411.19a2.15,2.15,0,0,1-.82,1.44" transform="translate(-147.66 -70.99)"/><path class="cls-6" d="M267.94,409.13a2.32,2.32,0,0,1-.5,1.48" transform="translate(-147.66 -70.99)"/><path class="cls-6" d="M268.58,414.84a3.35,3.35,0,0,0-.86,1.78" transform="translate(-147.66 -70.99)"/><path class="cls-6" d="M269.44,420a2.06,2.06,0,0,1-.49,1.12" transform="translate(-147.66 -70.99)"/><path class="cls-6" d="M272.49,416.26a1.31,1.31,0,0,1-.23,1.23" transform="translate(-147.66 -70.99)"/><path class="cls-6" d="M275.91,415.75a6.64,6.64,0,0,1,1.1.88" transform="translate(-147.66 -70.99)"/><path class="cls-6" d="M278.6,420.28l.48.65" transform="translate(-147.66 -70.99)"/><path class="cls-6" d="M274.48,420v.93" transform="translate(-147.66 -70.99)"/><path class="cls-6" d="M280.6,422.7a1.34,1.34,0,0,1,.24,1.13" transform="translate(-147.66 -70.99)"/><path class="cls-6" d="M279.72,426.09l.86,1.3" transform="translate(-147.66 -70.99)"/><path class="cls-6" d="M273,424.86a2.8,2.8,0,0,1-.91,1.34" transform="translate(-147.66 -70.99)"/><path class="cls-6" d="M269.52,425a1.92,1.92,0,0,1-1,1.71" transform="translate(-147.66 -70.99)"/><path class="cls-6" d="M269.24,431.15a1.72,1.72,0,0,1-.38,1.11" transform="translate(-147.66 -70.99)"/><path class="cls-6" d="M274.86,429.46v1" transform="translate(-147.66 -70.99)"/><path class="cls-6" d="M276.45,429.28a1,1,0,0,1,.75.46" transform="translate(-147.66 -70.99)"/><path class="cls-6" d="M280.1,430.78l.84.47" transform="translate(-147.66 -70.99)"/><path class="cls-6" d="M279.48,432.75a2.32,2.32,0,0,0,.61,2.25" transform="translate(-147.66 -70.99)"/><path class="cls-6" d="M268.61,434.85a2.07,2.07,0,0,1-1.06.27" transform="translate(-147.66 -70.99)"/><path class="cls-5" d="M248.69,415.35v2.21a3.33,3.33,0,0,1,0,.63,3.32,3.32,0,0,0,0-.63v-2.21a3.33,3.33,0,0,1,0-.63,3.32,3.32,0,0,0,0,.63Z" transform="translate(-147.66 -70.99)"/><path class="cls-5" d="M243.86,419v1.21a2.66,2.66,0,0,1,0,.63,2.66,2.66,0,0,0,0-.63V419a3.21,3.21,0,0,1,0-.62,3.21,3.21,0,0,0,0,.62Z" transform="translate(-147.66 -70.99)"/><path class="cls-5" d="M242.25,422.8V424a2.66,2.66,0,0,1,0,.63,2.66,2.66,0,0,0,0-.63V422.8a3.21,3.21,0,0,1,0-.62,3.21,3.21,0,0,0,0,.62Z" transform="translate(-147.66 -70.99)"/><path class="cls-5" d="M239.22,422.6v.2a3.33,3.33,0,0,1,0,.63,3.32,3.32,0,0,0,0-.63v-.2a3.22,3.22,0,0,1,0-.62,3.21,3.21,0,0,0,0,.62Z" transform="translate(-147.66 -70.99)"/><path class="cls-5" d="M245.28,430.68v-1.25s0,1.25,0,1.25Z" transform="translate(-147.66 -70.99)"/><path class="cls-5" d="M247.89,422.8v1.41a2.66,2.66,0,0,1,0,.63,2.66,2.66,0,0,0,0-.63V422.8a3.21,3.21,0,0,1,0-.62,3.21,3.21,0,0,0,0,.62Z" transform="translate(-147.66 -70.99)"/><path class="cls-5" d="M247.69,431.87v1.61a2.66,2.66,0,0,1,0,.63,2.66,2.66,0,0,0,0-.63v-1.61a3.32,3.32,0,0,1,0-.63,3.31,3.31,0,0,0,0,.63Z" transform="translate(-147.66 -70.99)"/><path class="cls-5" d="M241.44,434.89v.61a3.21,3.21,0,0,1,0,.62,3.21,3.21,0,0,0,0-.62v-.61a2.57,2.57,0,0,1,0-.62,2.57,2.57,0,0,0,0,.62Z" transform="translate(-147.66 -70.99)"/><path class="cls-5" d="M243.46,437.11v1.61a3.21,3.21,0,0,1,0,.62,2.56,2.56,0,0,0,0-.62v-1.61a3.33,3.33,0,0,1,0-.63,3.32,3.32,0,0,0,0,.63Z" transform="translate(-147.66 -70.99)"/><path class="cls-5" d="M246.07,438.12v1a3.33,3.33,0,0,1,0,.63,3.32,3.32,0,0,0,0-.63v-1a3.33,3.33,0,0,1,0-.63,3.32,3.32,0,0,0,0,.63Z" transform="translate(-147.66 -70.99)"/><path class="cls-5" d="M248.09,438.32v.2a3.22,3.22,0,0,1,0,.62,3.21,3.21,0,0,0,0-.62v-.2a2.66,2.66,0,0,1,0-.63,2.66,2.66,0,0,0,0,.63Z" transform="translate(-147.66 -70.99)"/><path class="cls-5" d="M248.49,442.55v1a3.21,3.21,0,0,1,0,.62,3.21,3.21,0,0,0,0-.62v-1a3.33,3.33,0,0,1,0-.63,3.32,3.32,0,0,0,0,.63Z" transform="translate(-147.66 -70.99)"/><path class="cls-5" d="M242.45,444.16v.6a2.66,2.66,0,0,1,0,.63,2.66,2.66,0,0,0,0-.63v-.6a3.32,3.32,0,0,1,0-.63,3.32,3.32,0,0,0,0,.63Z" transform="translate(-147.66 -70.99)"/><path class="cls-5" d="M244.46,446.78v.2a3.32,3.32,0,0,1,0,.63,3.32,3.32,0,0,0,0-.63v-.2a3.32,3.32,0,0,1,0-.63,3.32,3.32,0,0,0,0,.63Z" transform="translate(-147.66 -70.99)"/><path class="cls-5" d="M247.28,449.8V451a3.32,3.32,0,0,1,0,.63,3.32,3.32,0,0,0,0-.63V449.8a3.22,3.22,0,0,1,0-.62,3.21,3.21,0,0,0,0,.62Z" transform="translate(-147.66 -70.99)"/><path class="cls-5" d="M243.25,452.42v.2a3.33,3.33,0,0,1,0,.63,3.32,3.32,0,0,0,0-.63v-.2a3.22,3.22,0,0,1,0-.62,3.2,3.2,0,0,0,0,.62Z" transform="translate(-147.66 -70.99)"/><path class="cls-5" d="M246.69,455.06s0-1.25,0-1.25,0,1.25,0,1.25Z" transform="translate(-147.66 -70.99)"/><path class="cls-5" d="M239.63,413.53v.81a2.66,2.66,0,0,1,0,.63,2.66,2.66,0,0,0,0-.63v-.81a3.21,3.21,0,0,1,0-.62,3.21,3.21,0,0,0,0,.62Z" transform="translate(-147.66 -70.99)"/><path class="cls-5" d="M247.29,409.93s0-1.25,0-1.25,0,1.25,0,1.25Z" transform="translate(-147.66 -70.99)"/><path class="cls-5" d="M243.26,410.72s0-1.25,0-1.25,0,1.25,0,1.25Z" transform="translate(-147.66 -70.99)"/><path class="cls-5" d="M243.66,411.52v.6a2.66,2.66,0,0,1,0,.63,2.66,2.66,0,0,0,0-.63v-.6a3.32,3.32,0,0,1,0-.63,3.32,3.32,0,0,0,0,.63Z" transform="translate(-147.66 -70.99)"/><path class="cls-5" d="M238.62,409.71v1a3.33,3.33,0,0,1,0,.63,3.31,3.31,0,0,0,0-.63v-1a2.66,2.66,0,0,1,0-.63,2.66,2.66,0,0,0,0,.63Z" transform="translate(-147.66 -70.99)"/><path class="cls-6" d="M237.72,414.84a2,2,0,0,1-.64,2.19" transform="translate(-147.66 -70.99)"/><path class="cls-6" d="M237.74,411.89a2,2,0,0,0-.7,1.62" transform="translate(-147.66 -70.99)"/><path class="cls-6" d="M242.28,412.58a1.07,1.07,0,0,0,.54,1.22" transform="translate(-147.66 -70.99)"/><path class="cls-6" d="M247.88,412.76v1.5" transform="translate(-147.66 -70.99)"/><path class="cls-6" d="M250.5,412a2.14,2.14,0,0,0,.82,1.44" transform="translate(-147.66 -70.99)"/><path class="cls-6" d="M251.34,410a2.3,2.3,0,0,0,.49,1.49" transform="translate(-147.66 -70.99)"/><path class="cls-6" d="M250.7,415.66a3.26,3.26,0,0,1,.85,1.78" transform="translate(-147.66 -70.99)"/><path class="cls-6" d="M249.84,420.82a2,2,0,0,0,.49,1.12" transform="translate(-147.66 -70.99)"/><path class="cls-6" d="M246.78,417.08a1.33,1.33,0,0,0,.24,1.23" transform="translate(-147.66 -70.99)"/><path class="cls-6" d="M243.37,416.57a6.74,6.74,0,0,0-1.1.88" transform="translate(-147.66 -70.99)"/><path class="cls-6" d="M240.68,421.11l-.48.64" transform="translate(-147.66 -70.99)"/><path class="cls-6" d="M244.79,420.82v.94" transform="translate(-147.66 -70.99)"/><path class="cls-6" d="M238.68,423.52a1.37,1.37,0,0,0-.25,1.14" transform="translate(-147.66 -70.99)"/><path class="cls-6" d="M239.55,426.91l-.85,1.31" transform="translate(-147.66 -70.99)"/><path class="cls-6" d="M246.3,425.69a2.87,2.87,0,0,0,.91,1.33" transform="translate(-147.66 -70.99)"/><path class="cls-6" d="M249.75,425.79a1.92,1.92,0,0,0,1,1.71" transform="translate(-147.66 -70.99)"/><path class="cls-6" d="M250,432a1.7,1.7,0,0,0,.39,1.12" transform="translate(-147.66 -70.99)"/><path class="cls-6" d="M244.42,430.28v1" transform="translate(-147.66 -70.99)"/><path class="cls-6" d="M242.83,430.1a1.06,1.06,0,0,0-.76.46" transform="translate(-147.66 -70.99)"/><path class="cls-6" d="M239.18,431.61l-.85.46" transform="translate(-147.66 -70.99)"/><path class="cls-6" d="M239.79,433.57a2.33,2.33,0,0,1-.6,2.26" transform="translate(-147.66 -70.99)"/><path class="cls-6" d="M250.67,435.67a2,2,0,0,0,1.05.27" transform="translate(-147.66 -70.99)"/><polygon class="cls-7" points="82.85 336.55 143.97 336.55 160.83 271.16 65.99 271.16 82.85 336.55"/><line class="cls-8" x1="112.91" y1="283.69" x2="112.91" y2="336.55"/><path class="cls-9" d="M222.77,354l13.13,53.16h-5.72l-15.43-61S221.14,352.69,222.77,354Z" transform="translate(-147.66 -70.99)"/><path class="cls-9" d="M287.42,379.87l4.12,3.08,7.76-5.21L302,376l-1.37-3.24s-8.69,7.63-13.18,7.16l-2,15.94s8.32-.17,10.46-4.74l3.3-12.8" transform="translate(-147.66 -70.99)"/><path class="cls-10" d="M287.42,379.87l4.16,3h-.08c3.44-2.39,6.91-4.73,10.38-7.08l-.06.19-1.38-3.23.27.06a51.79,51.79,0,0,1-6.13,4.59,25,25,0,0,1-3.38,1.83,8.1,8.1,0,0,1-3.81.85l.27-.21c-.65,5.31-1.38,10.62-2.06,15.93l-.2-.21a22.56,22.56,0,0,0,3-.33,16.59,16.59,0,0,0,2.87-.75,9.83,9.83,0,0,0,2.62-1.34,6.17,6.17,0,0,0,1.9-2.19v0c1.1-4.27,2.3-8.52,3.44-12.77-1.06,4.28-2.07,8.57-3.17,12.84h0a6.5,6.5,0,0,1-2,2.32,10.6,10.6,0,0,1-2.69,1.4,16.26,16.26,0,0,1-2.91.79,20.27,20.27,0,0,1-3,.36h-.22l0-.23c.65-5.31,1.27-10.63,2-15.94l0-.23.23,0a7.7,7.7,0,0,0,3.58-.78,25.53,25.53,0,0,0,3.35-1.77,52.61,52.61,0,0,0,6.12-4.5l.18-.16.09.22,1.35,3.25.06.12-.11.07c-3.49,2.32-7,4.65-10.49,6.92l0,0,0,0Z" transform="translate(-147.66 -70.99)"/><path class="cls-9" d="M234.84,379.87,230.73,383,223,377.74,220.29,376l1.37-3.24s8.69,7.63,13.18,7.16l2,15.94s-8.32-.17-10.46-4.74l-3.3-12.8" transform="translate(-147.66 -70.99)"/><path class="cls-10" d="M234.84,379.87,230.76,383l0,0,0,0c-3.51-2.27-7-4.6-10.48-6.92l-.11-.07.05-.12,1.35-3.25.09-.22.19.16a51.77,51.77,0,0,0,6.12,4.5,25.41,25.41,0,0,0,3.34,1.77,7.7,7.7,0,0,0,3.58.78l.23,0,0,.23c.69,5.31,1.31,10.63,2,15.94l0,.23h-.23a20.14,20.14,0,0,1-3-.36,16.59,16.59,0,0,1-2.92-.79,10.6,10.6,0,0,1-2.69-1.4,6.6,6.6,0,0,1-2-2.32h0c-1.1-4.27-2.11-8.56-3.16-12.84,1.14,4.25,2.33,8.5,3.43,12.77v0a6.26,6.26,0,0,0,1.9,2.19,10,10,0,0,0,2.62,1.34,16.83,16.83,0,0,0,2.87.75,22.76,22.76,0,0,0,3,.33l-.19.21c-.69-5.31-1.41-10.62-2.06-15.93l.26.21a8.12,8.12,0,0,1-3.81-.85,25.64,25.64,0,0,1-3.38-1.83,51.79,51.79,0,0,1-6.13-4.59l.27-.06L220.44,376l-.06-.19c3.47,2.35,6.94,4.69,10.38,7.08h-.07Z" transform="translate(-147.66 -70.99)"/><path class="cls-9" d="M261.06,369.14a52.19,52.19,0,0,0,7.2-.5l-.86,38.89h-6.34Z" transform="translate(-147.66 -70.99)"/><path class="cls-11" d="M302.22,166.69s115.89,18.08,51,165.6L336,322.4" transform="translate(-147.66 -70.99)"/><path class="cls-12" d="M218.41,166.69s-115.89,18.08-51,165.6l17.22-9.89" transform="translate(-147.66 -70.99)"/><ellipse class="cls-13" cx="113.07" cy="196.11" rx="86.37" ry="114.71"/><path class="cls-14" d="M212.68,344.74" transform="translate(-147.66 -70.99)"/><path class="cls-15" d="M170,331s5.35,10.53,20.4,7.07l1.4-.9.3-.34s-7.13-13-7.42-15.19" transform="translate(-147.66 -70.99)"/><path class="cls-15" d="M351.68,332.1s-5.35,10.52-20.41,7.07l-1.4-.91-.29-.33s7.12-13,7.41-15.2" transform="translate(-147.66 -70.99)"/><polyline class="cls-16" points="113.58 309.48 113.58 114.89 126.03 127.38 149.77 102.12"/><path class="cls-17" d="M202.79,227.41s-9.23,21.69-5.31,31.09l10.5,6.87,12.8-4.7,5.88-31.09" transform="translate(-147.66 -70.99)"/><polyline class="cls-16" points="111.81 309.48 111.81 114.89 99.36 127.38 75.61 102.12"/><path class="cls-18" d="M218.55,195.63a1.46,1.46,0,0,1,.07-.19,3.11,3.11,0,0,1,2.9-2.09,2.84,2.84,0,0,1,1.33.35s.05,0,.07,0l1.86-3a.94.94,0,0,1,.89-.47l.11,0,1,.26h0l-.14.64,0,0-1-.24a.32.32,0,0,0-.39.17l-.56.88a.08.08,0,0,1,0,0h0l5,1.25s.05,0,.07,0l.37-.48,0,0,0,0-.84-.21a.31.31,0,0,1-.24-.27.33.33,0,0,1,.15-.33.34.34,0,0,1,.24,0l2.25.57h0l-.14.63h0l-.67-.17a0,0,0,0,0-.06,0c-.2.26-.41.52-.61.79a.07.07,0,0,0,0,.05c.13.66.27,1.32.4,2v0h.29a2.65,2.65,0,0,1,1,.18,3,3,0,0,1,1.66,1.46,3.28,3.28,0,0,1-1.17,4.35,2.85,2.85,0,0,1-1.73.4l-.28,0h0l-.33-.09h0c-.16-.07-.32-.13-.47-.21a3,3,0,0,1-1.38-1.47,3.27,3.27,0,0,1-.28-1.66c0-.06,0-.12,0-.19h0l-1.24-.31a.38.38,0,0,1-.26-.2l-.37-.75c-.34-.65-.67-1.31-1-2l-.87-1.73-.16-.32-.55.89h0l0,0a3.25,3.25,0,0,1,1.09,2.8,3.12,3.12,0,0,1-.31,1.08,3,3,0,0,1-1.79,1.62,2.83,2.83,0,0,1-1.29.14l-.2,0-.34-.09h0c-.14-.07-.3-.11-.44-.19a3.16,3.16,0,0,1-1.58-2,3.25,3.25,0,0,1-.11-1.28l0-.21Zm4.5-1,0,0-.93,1.49c-.11.18-.22.36-.34.53a.3.3,0,0,1-.41.12.34.34,0,0,1-.09-.48c.42-.67.84-1.34,1.25-2l0,0a2.37,2.37,0,0,0-3.13,1,2.6,2.6,0,0,0,.77,3.45,2.36,2.36,0,0,0,3.32-.72A2.59,2.59,0,0,0,223.05,194.63Zm5.49,4a2.55,2.55,0,0,0,1.26,2.55,2.37,2.37,0,0,0,3-.54,2.65,2.65,0,0,0,.21-3.11,2.35,2.35,0,0,0-2.2-1.11l.09.45.39,2a.27.27,0,0,1,0,.2.31.31,0,0,1-.38.19l-2.27-.57Zm-4.19-6.05,2.35,4.66,2.63-3.41Zm5.68,3.3-.32-1.53-2.51,3.27.86.21A3.2,3.2,0,0,1,230,195.86ZM228.69,198l1.86.46-.39-1.92A2.52,2.52,0,0,0,228.69,198Z" transform="translate(-147.66 -70.99)"/><path class="cls-18" d="M223.6,218.21l0-.21a3.13,3.13,0,0,1,.43-1.29,3.06,3.06,0,0,1,1.92-1.44,2.93,2.93,0,0,1,1.38,0s0,0,.06,0c.38-1.12.76-2.24,1.15-3.35a1,1,0,0,1,.76-.67h1.2v.65h-1a.32.32,0,0,0-.35.25c-.11.34-.23.67-.34,1,0,0,0,0,0,0h5.15s.05,0,.06,0c.08-.19.17-.38.25-.56l0,0h-.92a.32.32,0,0,1-.29-.21.34.34,0,0,1,.08-.36.31.31,0,0,1,.22-.09h2.36v.66H235s0,0-.06,0c-.13.3-.27.61-.41.91,0,0,0,0,0,0,.28.62.56,1.23.83,1.84l0,0,.28-.08a2.84,2.84,0,0,1,1.05-.08,3,3,0,0,1,1.94,1,3.08,3.08,0,0,1,.75,1.56,3.23,3.23,0,0,1-.93,3,2.86,2.86,0,0,1-1.59.81l-.28,0h-.42c-.17,0-.34,0-.5-.08a3,3,0,0,1-1.67-1.1,3.24,3.24,0,0,1-.65-1.55c0-.06,0-.12,0-.18H232a.36.36,0,0,1-.3-.14l-.53-.63-1.4-1.67-1.23-1.46-.23-.28-.34,1h0l0,0a3.17,3.17,0,0,1,1.68,2.46,3.32,3.32,0,0,1-.05,1.13,3.19,3.19,0,0,1-1.39,2,2.9,2.9,0,0,1-1.22.44l-.2,0h-.39a3.54,3.54,0,0,1-.47-.07,3.19,3.19,0,0,1-2.36-2.73l0-.22Zm4.16-2.07,0,0-.57,1.67-.21.6a.29.29,0,0,1-.37.21.32.32,0,0,1-.2-.44l.78-2.26v-.05a2.43,2.43,0,0,0-2.83,1.72,2.56,2.56,0,0,0,1.52,3.16,2.38,2.38,0,0,0,3.07-1.5A2.56,2.56,0,0,0,227.76,216.14Zm6.22,2.54a2.49,2.49,0,0,0,1.79,2.17,2.39,2.39,0,0,0,2.76-1.24,2.62,2.62,0,0,0-.48-3.07,2.31,2.31,0,0,0-2.39-.55c.06.14.12.28.19.42l.81,1.8a.33.33,0,0,1,0,.2.33.33,0,0,1-.33.27H234Zm-5.42-4.87,3.33,4,1.79-4Zm6.26,1.83-.65-1.4L232.46,218h.88A3.27,3.27,0,0,1,234.82,215.64ZM234,218h1.9l-.8-1.77A2.56,2.56,0,0,0,234,218Z" transform="translate(-147.66 -70.99)"/><path class="cls-18" d="M232.75,240.82a1.36,1.36,0,0,1,0-.2,3.16,3.16,0,0,1,2.36-2.73,2.76,2.76,0,0,1,1.37,0s.05,0,.06,0c.38-1.11.76-2.23,1.15-3.35a1,1,0,0,1,.76-.67h1.2v.65h-1a.33.33,0,0,0-.35.26l-.34,1s0,0,0,.05h5.15a.05.05,0,0,0,.06,0l.26-.56a.17.17,0,0,1,0-.05h-.92a.31.31,0,0,1-.29-.2.38.38,0,0,1,.08-.37.3.3,0,0,1,.22-.08h2.36v.65h-.73a0,0,0,0,0,0,0l-.42.91v.06c.28.61.56,1.22.83,1.83l0,0,.28-.09a2.86,2.86,0,0,1,1-.08,3,3,0,0,1,1.94,1,3.07,3.07,0,0,1,.75,1.57,3.19,3.19,0,0,1-.93,3,2.86,2.86,0,0,1-1.59.81l-.27,0h-.43c-.16,0-.34-.05-.5-.09a3,3,0,0,1-1.67-1.1,3.31,3.31,0,0,1-.65-1.54,1.37,1.37,0,0,0,0-.19h-1.33a.39.39,0,0,1-.3-.14l-.53-.64-1.4-1.67-1.23-1.46-.23-.27-.34,1h0l0,0a3.19,3.19,0,0,1,1.68,2.46,3.3,3.3,0,0,1,0,1.13,3.16,3.16,0,0,1-1.39,2,2.82,2.82,0,0,1-1.22.45l-.2,0h-.39c-.16,0-.31,0-.47-.08a3,3,0,0,1-2-1.51,3.25,3.25,0,0,1-.39-1.21,1.8,1.8,0,0,1,0-.22Zm4.15-2.07a.05.05,0,0,1,0,0l-.57,1.68-.2.6a.31.31,0,0,1-.38.2.32.32,0,0,1-.2-.43l.78-2.27v0a2.41,2.41,0,0,0-2.83,1.72,2.57,2.57,0,0,0,1.52,3.16,2.39,2.39,0,0,0,3.07-1.51A2.56,2.56,0,0,0,236.9,238.75Zm6.22,2.54a2.52,2.52,0,0,0,1.79,2.18,2.39,2.39,0,0,0,2.76-1.25,2.62,2.62,0,0,0-.48-3.07,2.31,2.31,0,0,0-2.39-.55l.19.42c.27.6.54,1.2.82,1.8a.44.44,0,0,1,0,.2.32.32,0,0,1-.33.27h-2.39Zm-5.42-4.86,3.33,4,1.79-4Zm6.26,1.83-.64-1.41-1.72,3.78h.89A3.23,3.23,0,0,1,244,238.26Zm-.83,2.37H245l-.81-1.77A2.58,2.58,0,0,0,243.13,240.63Z" transform="translate(-147.66 -70.99)"/><path class="cls-18" d="M236.16,268.9a1.49,1.49,0,0,1,0-.21,3.28,3.28,0,0,1,.43-1.29,3.08,3.08,0,0,1,1.93-1.44,2.88,2.88,0,0,1,1.37,0s.05,0,.06,0c.38-1.12.77-2.24,1.15-3.35a1,1,0,0,1,.76-.67h1.2v.65h-1a.33.33,0,0,0-.35.25c-.11.34-.22.67-.34,1,0,0,0,0,0,0h5.15s0,0,.06,0c.09-.19.17-.38.26-.56l0-.05h-.92a.32.32,0,0,1-.29-.21.36.36,0,0,1,.08-.36.33.33,0,0,1,.22-.09h2.36v.66h-.73s0,0-.05,0c-.14.3-.28.61-.41.91,0,0,0,0,0,.05l.84,1.84v0l.28-.08a2.88,2.88,0,0,1,1-.08,3,3,0,0,1,1.94,1,3,3,0,0,1,.76,1.56,3.23,3.23,0,0,1-.93,3,2.93,2.93,0,0,1-1.59.81l-.28,0h-.42c-.17,0-.34,0-.51-.08a3,3,0,0,1-1.67-1.1,3.23,3.23,0,0,1-.64-1.55l0-.18h-1.33a.33.33,0,0,1-.29-.14l-.54-.63c-.46-.56-.93-1.11-1.4-1.67l-1.23-1.46-.23-.28-.34,1h0l0,0a3.17,3.17,0,0,1,1.68,2.46,3.08,3.08,0,0,1,0,1.13,3.15,3.15,0,0,1-1.39,2,2.81,2.81,0,0,1-1.22.44l-.2,0H239a4.11,4.11,0,0,1-.47-.07,3,3,0,0,1-2-1.52,3.19,3.19,0,0,1-.39-1.21,1.5,1.5,0,0,1,0-.22Zm4.15-2.07v0c-.19.56-.39,1.12-.58,1.67-.06.2-.13.4-.2.6a.31.31,0,0,1-.38.21.32.32,0,0,1-.19-.44c.25-.75.51-1.51.77-2.26v0a2.41,2.41,0,0,0-2.82,1.72,2.55,2.55,0,0,0,1.51,3.16,2.4,2.4,0,0,0,3.08-1.5A2.58,2.58,0,0,0,240.31,266.83Zm6.22,2.54a2.5,2.5,0,0,0,1.8,2.17,2.38,2.38,0,0,0,2.75-1.24,2.62,2.62,0,0,0-.48-3.07,2.31,2.31,0,0,0-2.39-.55l.19.42c.27.6.54,1.2.82,1.8a.33.33,0,0,1,0,.2.32.32,0,0,1-.32.27h-2.4Zm-5.42-4.87,3.33,4,1.8-4Zm6.26,1.83-.64-1.4L245,268.71h.89A3.25,3.25,0,0,1,247.37,266.33Zm-.83,2.38h1.91l-.81-1.77A2.56,2.56,0,0,0,246.54,268.71Z" transform="translate(-147.66 -70.99)"/><path class="cls-18" d="M236.16,298.31a1.36,1.36,0,0,1,0-.2,3.18,3.18,0,0,1,.43-1.29,3,3,0,0,1,1.93-1.44,2.76,2.76,0,0,1,1.37,0s.05,0,.06,0c.38-1.11.77-2.23,1.15-3.35a1,1,0,0,1,.76-.67h1.2V292h-1a.33.33,0,0,0-.35.26c-.11.33-.22.66-.34,1,0,0,0,0,0,0h5.15a.05.05,0,0,0,.06,0l.26-.56s0,0,0-.05h-.92a.31.31,0,0,1-.29-.2.38.38,0,0,1,.08-.37.32.32,0,0,1,.22-.08h2.36v.65h-.73a0,0,0,0,0-.05,0c-.14.31-.28.61-.41.91a.13.13,0,0,0,0,.06l.84,1.83v0l.28-.09a2.88,2.88,0,0,1,1-.08,3,3,0,0,1,1.94,1,3.09,3.09,0,0,1,.76,1.57,3.22,3.22,0,0,1-.93,3,2.93,2.93,0,0,1-1.59.81l-.28,0h-.42l-.51-.09a3,3,0,0,1-1.67-1.1,3.19,3.19,0,0,1-.64-1.54l0-.19h-1.33a.36.36,0,0,1-.29-.14l-.54-.64-1.4-1.67-1.23-1.46-.23-.27-.34,1h0l0,0a3.19,3.19,0,0,1,1.68,2.46,3.07,3.07,0,0,1,0,1.13,3.12,3.12,0,0,1-1.39,2,2.82,2.82,0,0,1-1.22.45l-.2,0H239c-.15,0-.31,0-.47-.08a3,3,0,0,1-2-1.51,3.25,3.25,0,0,1-.39-1.21,1.8,1.8,0,0,1,0-.22Zm4.15-2.07s0,0,0,0l-.58,1.68c-.06.2-.13.4-.2.6a.31.31,0,0,1-.38.2.31.31,0,0,1-.19-.43c.25-.76.51-1.51.77-2.27v0a2.39,2.39,0,0,0-2.82,1.72,2.56,2.56,0,0,0,1.51,3.16,2.41,2.41,0,0,0,3.08-1.51A2.58,2.58,0,0,0,240.31,296.24Zm6.22,2.54a2.52,2.52,0,0,0,1.8,2.18,2.38,2.38,0,0,0,2.75-1.25,2.62,2.62,0,0,0-.48-3.07,2.31,2.31,0,0,0-2.39-.55l.19.42c.27.6.54,1.2.82,1.8a.34.34,0,0,1,0,.2.31.31,0,0,1-.32.27h-2.4Zm-5.42-4.86,3.33,4,1.8-4Zm6.26,1.83-.64-1.41L245,298.12h.89A3.23,3.23,0,0,1,247.37,295.75Zm-.83,2.37h1.91l-.81-1.77A2.58,2.58,0,0,0,246.54,298.12Z" transform="translate(-147.66 -70.99)"/><path class="cls-18" d="M236.16,319.85a1.49,1.49,0,0,1,0-.21,3.19,3.19,0,0,1,.43-1.28,3,3,0,0,1,1.93-1.44,2.76,2.76,0,0,1,1.37,0s.05,0,.06,0c.38-1.12.77-2.23,1.15-3.35a1,1,0,0,1,.76-.67h1.2v.65h-1a.33.33,0,0,0-.35.26c-.11.33-.22.66-.34,1a.43.43,0,0,0,0,.05h5.15a.05.05,0,0,0,.06,0l.26-.56,0,0h-.92a.31.31,0,0,1-.29-.21.36.36,0,0,1,.08-.36.32.32,0,0,1,.22-.08h2.36v.65h-.73a0,0,0,0,0-.05,0c-.14.31-.28.61-.41.91a.13.13,0,0,0,0,.06l.84,1.83v0l.28-.09a2.88,2.88,0,0,1,1-.08,3,3,0,0,1,1.94,1,3.06,3.06,0,0,1,.76,1.56,3.23,3.23,0,0,1-.93,3,2.93,2.93,0,0,1-1.59.81l-.28,0h-.42a4.5,4.5,0,0,1-.51-.08,3,3,0,0,1-1.67-1.1,3.19,3.19,0,0,1-.64-1.55l0-.18h-1.33a.35.35,0,0,1-.29-.13l-.54-.64-1.4-1.67-1.23-1.46-.23-.27-.34,1h0l0,0a3.19,3.19,0,0,1,1.68,2.46,3.07,3.07,0,0,1,0,1.13,3.12,3.12,0,0,1-1.39,2,2.82,2.82,0,0,1-1.22.45l-.2,0H239a4.11,4.11,0,0,1-.47-.07,3,3,0,0,1-2-1.51,3.24,3.24,0,0,1-.39-1.22,1.49,1.49,0,0,1,0-.21Zm4.15-2.07s0,0,0,0l-.58,1.68c-.06.2-.13.4-.2.59a.31.31,0,0,1-.38.21.31.31,0,0,1-.19-.43c.25-.76.51-1.51.77-2.27v0a2.4,2.4,0,0,0-2.82,1.71,2.57,2.57,0,0,0,1.51,3.17,2.41,2.41,0,0,0,3.08-1.51A2.58,2.58,0,0,0,240.31,317.78Zm6.22,2.54a2.5,2.5,0,0,0,1.8,2.17,2.38,2.38,0,0,0,2.75-1.24,2.62,2.62,0,0,0-.48-3.07,2.31,2.31,0,0,0-2.39-.55l.19.42c.27.6.54,1.2.82,1.8a.34.34,0,0,1,0,.2.31.31,0,0,1-.32.27h-2.4Zm-5.42-4.86,3.33,4,1.8-4Zm6.26,1.83-.64-1.41L245,319.66h.89A3.23,3.23,0,0,1,247.37,317.29Zm-.83,2.37h1.91l-.81-1.77A2.56,2.56,0,0,0,246.54,319.66Z" transform="translate(-147.66 -70.99)"/><path class="cls-18" d="M235.75,348.44c0-.07,0-.14,0-.21a3.19,3.19,0,0,1,.44-1.29,3,3,0,0,1,1.92-1.44,2.8,2.8,0,0,1,1.38,0s0,0,.05,0l1.15-3.34a1,1,0,0,1,.76-.68h1.21v.65h-1.05a.32.32,0,0,0-.34.26l-.35,1a.09.09,0,0,1,0,.05h5.16s0,0,0,0l.26-.56s0,0,0-.05h-.91a.29.29,0,0,1-.29-.2.32.32,0,0,1,.3-.45h2.36v.65h-.74s0,0,0,0c-.14.3-.28.6-.41.9a.06.06,0,0,0,0,.06c.27.61.55,1.22.83,1.83v0l.29-.09a2.8,2.8,0,0,1,1-.07,2.91,2.91,0,0,1,1.94,1,3.09,3.09,0,0,1,.76,1.57,3.22,3.22,0,0,1-.93,3,2.83,2.83,0,0,1-1.59.81l-.28,0h-.42c-.17,0-.34,0-.51-.08a2.94,2.94,0,0,1-1.66-1.11,3.11,3.11,0,0,1-.65-1.54l0-.18h-1.33a.37.37,0,0,1-.29-.14l-.53-.63-1.41-1.68L240.69,345l-.22-.27-.35,1h0l0,0a3.14,3.14,0,0,1,1.68,2.46,2.87,2.87,0,0,1,0,1.13,3.12,3.12,0,0,1-1.39,2,2.7,2.7,0,0,1-1.22.45l-.2,0h-.39c-.15,0-.31,0-.46-.08a3,3,0,0,1-2-1.51,3.19,3.19,0,0,1-.39-1.21c0-.08,0-.15,0-.22Zm4.16-2.08s0,0,0,.05l-.57,1.67-.21.6a.31.31,0,0,1-.38.21.33.33,0,0,1-.19-.44l.77-2.27,0,0a2.41,2.41,0,0,0-2.83,1.72A2.56,2.56,0,0,0,238,351a2.4,2.4,0,0,0,3.08-1.5A2.58,2.58,0,0,0,239.91,346.36Zm6.22,2.55a2.49,2.49,0,0,0,1.79,2.17,2.4,2.4,0,0,0,2.76-1.25,2.64,2.64,0,0,0-.49-3.07,2.3,2.3,0,0,0-2.39-.55c.07.14.13.28.19.42l.82,1.8a.35.35,0,0,1,0,.2.32.32,0,0,1-.32.28h-2.39ZM240.71,344l3.32,4,1.8-4Zm6.25,1.83-.64-1.41-1.72,3.79h.89A3.28,3.28,0,0,1,247,345.87Zm-.83,2.37H248l-.8-1.77A2.6,2.6,0,0,0,246.13,348.24Z" transform="translate(-147.66 -70.99)"/><path class="cls-18" d="M224.93,369a1.59,1.59,0,0,1-.07-.2,3.26,3.26,0,0,1,.89-3.55,3,3,0,0,1,1.23-.66s0,0,0-.05l-.45-3.53a1,1,0,0,1,.38-1,.33.33,0,0,1,.1-.06l.94-.52h0l.28.58,0,0-.88.48a.33.33,0,0,0-.2.39c0,.35.09.7.13,1,0,0,0,0,0,.05l0,0,4.54-2.46a0,0,0,0,0,0-.06c0-.21,0-.41,0-.62,0,0,0,0,0-.05l0,0-.77.42a.3.3,0,0,1-.35-.05.36.36,0,0,1-.09-.36.35.35,0,0,1,.16-.18l2.06-1.11,0,0,.28.58,0,0-.62.33a.06.06,0,0,0,0,.06l0,1,0,.05,1.54,1.23,0,0,.21-.22a3.22,3.22,0,0,1,.89-.57,2.93,2.93,0,0,1,2.18,0,3,3,0,0,1,1.35,1,3.25,3.25,0,0,1,.48,3.07,3,3,0,0,1-1.06,1.48l-.23.17,0,0-.3.17h0a3.9,3.9,0,0,1-.48.17,2.88,2.88,0,0,1-2-.18,3,3,0,0,1-1.26-1.06l-.1-.15,0,0-1.14.61a.35.35,0,0,1-.33,0l-.74-.31-2-.81-1.73-.71-.32-.13.13,1.05h.06a3,3,0,0,1,2.57,1.38,3.08,3.08,0,0,1,.45,1,3.28,3.28,0,0,1-.35,2.45,2.89,2.89,0,0,1-.89,1l-.16.12-.31.17h0a4,4,0,0,1-.45.16,2.89,2.89,0,0,1-2.42-.4,3.11,3.11,0,0,1-.88-.89l-.11-.18Zm2.78-3.84v.05c.08.59.15,1.17.23,1.76,0,.21.05.42.08.63a.33.33,0,0,1-.24.37.32.32,0,0,1-.37-.3c-.1-.79-.21-1.59-.31-2.38v0a2.54,2.54,0,0,0-1.75,2.89,2.43,2.43,0,0,0,2.73,2.08,2.51,2.51,0,0,0,2.07-2.82A2.45,2.45,0,0,0,227.71,365.14Zm6.64-.73a2.36,2.36,0,0,0,2.55,1.07,2.52,2.52,0,0,0,1.9-2.43,2.55,2.55,0,0,0-1.78-2.5,2.33,2.33,0,0,0-2.36.67l.35.28,1.51,1.2a.33.33,0,0,1,.12.17.33.33,0,0,1-.16.39l-2.08,1.13Zm-6.95-1.72,4.69,1.92-.14-4.38Zm6.36-1.38-1.19-.94.14,4.19.78-.43A3.4,3.4,0,0,1,233.76,361.31Zm.31,2.51,1.69-.91-1.49-1.19A2.61,2.61,0,0,0,234.07,363.82Z" transform="translate(-147.66 -70.99)"/><path class="cls-18" d="M204.65,348.85c0-.07,0-.14-.05-.21a3.28,3.28,0,0,1,0-1.36,3.17,3.17,0,0,1,1.38-2,2.68,2.68,0,0,1,1.3-.46s0,0,0-.05c0-1.19,0-2.38,0-3.56a1,1,0,0,1,.51-.89l.11-.05,1-.36h0l.2.61,0,0-.93.34a.32.32,0,0,0-.25.36c0,.35,0,.7,0,1v.05H208l4.83-1.73a.05.05,0,0,0,0-.06c0-.21,0-.41.07-.62a.43.43,0,0,0,0,0l0,0-.82.29a.32.32,0,0,1-.34-.1.35.35,0,0,1,0-.37.34.34,0,0,1,.18-.15l2.19-.79h0l.2.62h0l-.65.23a.05.05,0,0,0,0,.06c0,.33-.07.66-.11,1a.11.11,0,0,0,0,.06l1.35,1.45,0,0,.25-.18a3,3,0,0,1,1-.43,3,3,0,0,1,3.35,1.53,3.27,3.27,0,0,1,0,3.11,2.94,2.94,0,0,1-1.25,1.31l-.26.13,0,0-.32.11h0a4,4,0,0,1-.5.09,2.86,2.86,0,0,1-1.92-.48,3.06,3.06,0,0,1-1.09-1.24L214,346l-.05,0-1.21.43a.36.36,0,0,1-.32,0l-.7-.42-1.84-1.11-1.62-1-.3-.18,0,1.05H208a3,3,0,0,1,2.35,1.75,3,3,0,0,1,.3,1.09A3.24,3.24,0,0,1,210,350a3,3,0,0,1-1,.84l-.18.09-.33.12h0a3.4,3.4,0,0,1-.46.09,3,3,0,0,1-2.34-.76,3.15,3.15,0,0,1-.74-1l-.09-.19Zm3.28-3.37v0c0,.59,0,1.18,0,1.77,0,.22,0,.43,0,.64a.31.31,0,1,1-.61,0l0-2.41v0a2.45,2.45,0,1,0,.61,0Zm6.68.3a2.4,2.4,0,0,0,2.37,1.45,2.48,2.48,0,0,0,2.22-2.11,2.59,2.59,0,0,0-1.41-2.75,2.33,2.33,0,0,0-2.43.29c.1.12.21.23.31.34l1.33,1.42a.31.31,0,0,1,.09.18.32.32,0,0,1-.22.37l-2.21.79ZM208,343l4.38,2.62.47-4.35Zm6.49-.38-1.05-1.12-.45,4.16.84-.3A3.36,3.36,0,0,1,214.46,342.63Zm-.05,2.52,1.8-.64-1.31-1.41A2.67,2.67,0,0,0,214.41,345.15Z" transform="translate(-147.66 -70.99)"/><path class="cls-18" d="M201.64,321.2c0-.07,0-.14,0-.21a3,3,0,0,1,0-1.36,3.14,3.14,0,0,1,1.37-2,2.91,2.91,0,0,1,1.3-.46s0,0,0,0c0-1.18,0-2.37.05-3.55a1,1,0,0,1,.51-.9l.1,0,1-.36h0l.2.62h-.05l-.94.34a.35.35,0,0,0-.25.36c0,.35,0,.71,0,1.06v.05l0,0,4.83-1.73s0,0,0-.06c0-.21,0-.41.07-.62v-.05h-.05l-.81.3a.31.31,0,0,1-.34-.1.32.32,0,0,1,0-.36.31.31,0,0,1,.18-.16l2.19-.79h0l.21.61-.05,0-.65.23a.07.07,0,0,0,0,.05c0,.34-.07.67-.1,1a.07.07,0,0,0,0,.06c.45.48.91,1,1.36,1.45l0,0,.24-.18a3,3,0,0,1,3.12-.13,3,3,0,0,1,1.2,1.22,3.27,3.27,0,0,1,0,3.11,2.94,2.94,0,0,1-1.25,1.31L215,320l0,0-.32.11h0c-.17,0-.34.08-.51.1a3,3,0,0,1-1.92-.48,3.12,3.12,0,0,1-1.09-1.24l-.08-.16h-.05l-1.21.44a.36.36,0,0,1-.32,0l-.7-.42-1.85-1.1-1.61-1-.3-.18,0,1.06H205a3,3,0,0,1,2.35,1.75,3.17,3.17,0,0,1,.31,1.09,3.24,3.24,0,0,1-.69,2.37,3,3,0,0,1-1,.84l-.18.09-.33.12h0l-.46.09a2.94,2.94,0,0,1-2.34-.77,3,3,0,0,1-.75-1l-.09-.2Zm3.28-3.37v0c0,.6,0,1.19,0,1.78,0,.21,0,.42,0,.64a.31.31,0,0,1-.29.32.32.32,0,0,1-.32-.35l0-2.4v-.05a2.51,2.51,0,0,0-2.14,2.59,2.43,2.43,0,1,0,2.75-2.57Zm6.68.29a2.4,2.4,0,0,0,2.37,1.44,2.47,2.47,0,0,0,2.22-2.11,2.58,2.58,0,0,0-1.41-2.74,2.3,2.3,0,0,0-2.43.29l.31.33,1.33,1.43a.28.28,0,0,1,.09.17.33.33,0,0,1-.22.37l-2.21.8ZM205,315.36l4.38,2.61.46-4.35Zm6.49-.4-1-1.11L210,318l.84-.3A3.34,3.34,0,0,1,211.45,315Zm0,2.53,1.8-.65-1.31-1.4A2.66,2.66,0,0,0,211.4,317.49Z" transform="translate(-147.66 -70.99)"/><path class="cls-18" d="M181.09,305.3a1.18,1.18,0,0,1,0-.2,3.33,3.33,0,0,1,0-1.37,3.13,3.13,0,0,1,1.42-2,2.75,2.75,0,0,1,1.32-.43s0,0,0-.05c0-1.18.09-2.37.13-3.55a1,1,0,0,1,.53-.88l.11-.05,1-.33h0l.19.62h-.05l-.95.31a.36.36,0,0,0-.26.36l0,1.06s0,0,0,0h0l4.87-1.61a.06.06,0,0,0,0-.05c0-.21.05-.41.08-.62a.11.11,0,0,1,0-.05l0,0-.83.27a.29.29,0,0,1-.33-.11.33.33,0,0,1,.15-.52l2.21-.73h0l.19.62,0,0-.66.21a.07.07,0,0,0,0,0c0,.33-.09.67-.13,1,0,0,0,0,0,.05l1.32,1.49,0,0,.24-.17a3,3,0,0,1,4.29,1.21,3.24,3.24,0,0,1,0,3.11,3,3,0,0,1-1.29,1.27c-.08.05-.17.08-.25.12l0,0-.32.11h0a4,4,0,0,1-.5.08,2.85,2.85,0,0,1-1.91-.52,3.13,3.13,0,0,1-1.06-1.27,1.22,1.22,0,0,1-.07-.17l0,0-1.22.4a.35.35,0,0,1-.33,0l-.68-.43-1.82-1.16-1.6-1-.29-.18,0,1h.05a3,3,0,0,1,2.31,1.81,3.19,3.19,0,0,1,.28,1.1,3.22,3.22,0,0,1-.75,2.35,2.9,2.9,0,0,1-1,.81l-.19.09-.33.11h0a3.55,3.55,0,0,1-.47.08,2.94,2.94,0,0,1-2.31-.82,3,3,0,0,1-.72-1l-.09-.2Zm3.36-3.28v.05c0,.59,0,1.18-.07,1.77,0,.21,0,.43,0,.64a.31.31,0,1,1-.61,0l.09-2.4V302a2.55,2.55,0,0,0,.15,5.07,2.47,2.47,0,0,0,2.5-2.4A2.5,2.5,0,0,0,184.45,302Zm6.67.47a2.41,2.41,0,0,0,2.33,1.51,2.46,2.46,0,0,0,2.27-2.06,2.57,2.57,0,0,0-1.34-2.77,2.32,2.32,0,0,0-2.44.22l.3.34,1.3,1.46a.34.34,0,0,1,.09.18.33.33,0,0,1-.23.37l-2.23.73Zm-6.57-2.94,4.31,2.73.57-4.34Zm6.49-.22-1-1.14-.54,4.15.84-.28A3.35,3.35,0,0,1,191,299.33Zm-.11,2.53,1.82-.6-1.27-1.44A2.66,2.66,0,0,0,190.93,301.86Z" transform="translate(-147.66 -70.99)"/><path class="cls-18" d="M204.59,289.94a1.5,1.5,0,0,1,0-.2,3.18,3.18,0,0,1,.43-1.29A3,3,0,0,1,207,287a2.76,2.76,0,0,1,1.37,0s0,0,.06,0c.38-1.11.77-2.23,1.15-3.35a1,1,0,0,1,.76-.67h1.2v.65h-1a.34.34,0,0,0-.35.26c-.11.33-.22.66-.34,1,0,0,0,0,0,0h5.15a.05.05,0,0,0,.06,0l.26-.56s0,0,0-.05h-.91a.29.29,0,0,1-.29-.2.36.36,0,0,1,.07-.37.32.32,0,0,1,.22-.08h2.36v.65H216s0,0,0,0c-.14.3-.28.6-.41.9a.13.13,0,0,0,0,.06l.84,1.83v0l.28-.09a2.88,2.88,0,0,1,1.05-.08,3,3,0,0,1,1.94,1,3.09,3.09,0,0,1,.76,1.57,3.22,3.22,0,0,1-.93,3,2.86,2.86,0,0,1-1.59.81l-.28,0h-.42a4.54,4.54,0,0,1-.51-.09,3,3,0,0,1-1.67-1.1,3.19,3.19,0,0,1-.64-1.54l0-.18H213a.36.36,0,0,1-.29-.14l-.53-.63L210.76,288l-1.23-1.46-.23-.27-.34,1h0l0,0a3.19,3.19,0,0,1,1.68,2.46,3.07,3.07,0,0,1-.05,1.13,3.12,3.12,0,0,1-1.39,2,2.82,2.82,0,0,1-1.22.45l-.2,0h-.39c-.15,0-.31,0-.47-.08a3,3,0,0,1-2-1.51,3.25,3.25,0,0,1-.39-1.21,1.8,1.8,0,0,1,0-.22Zm4.15-2.07s0,0,0,.05c-.19.55-.39,1.11-.58,1.67-.06.2-.13.4-.2.6a.31.31,0,0,1-.38.2.31.31,0,0,1-.19-.43c.25-.76.51-1.51.77-2.27v0a2.4,2.4,0,0,0-2.82,1.72,2.56,2.56,0,0,0,1.51,3.16,2.4,2.4,0,0,0,3.08-1.5A2.58,2.58,0,0,0,208.74,287.87Zm6.22,2.55a2.52,2.52,0,0,0,1.8,2.17,2.38,2.38,0,0,0,2.75-1.25,2.62,2.62,0,0,0-.48-3.07,2.31,2.31,0,0,0-2.39-.55l.19.42c.27.6.54,1.2.82,1.8a.34.34,0,0,1,0,.2.32.32,0,0,1-.32.28H215Zm-5.42-4.87,3.33,4,1.8-4Zm6.26,1.83-.64-1.41-1.72,3.78h.89A3.25,3.25,0,0,1,215.8,287.38Zm-.83,2.37h1.91l-.81-1.77A2.58,2.58,0,0,0,215,289.75Z" transform="translate(-147.66 -70.99)"/><path class="cls-18" d="M177.77,270a1.49,1.49,0,0,0,0-.21,3.2,3.2,0,0,1,.44-1.28,3,3,0,0,1,1.92-1.44,2.8,2.8,0,0,1,1.38,0s0,0,.05,0c.39-1.12.77-2.23,1.15-3.35a1,1,0,0,1,.76-.67h1.21v.65h-1a.32.32,0,0,0-.35.26c-.12.33-.23.66-.34,1,0,0,0,0,0,.05h5.16s0,0,.06,0c.08-.19.17-.37.25-.56,0,0,0,0,0,0h-.91a.3.3,0,0,1-.29-.21.33.33,0,0,1,.08-.36.29.29,0,0,1,.22-.08h2.36v.65h-.74a.05.05,0,0,0,0,0c-.14.31-.27.61-.41.91a.06.06,0,0,0,0,.06c.27.61.55,1.22.83,1.83v0l.29-.09a2.81,2.81,0,0,1,1-.08,3,3,0,0,1,1.95,1,3.16,3.16,0,0,1,.75,1.56,3.23,3.23,0,0,1-.93,3,2.9,2.9,0,0,1-1.59.81,2.66,2.66,0,0,1-.28,0h-.42a4,4,0,0,1-.5-.08,3,3,0,0,1-1.67-1.1,3.21,3.21,0,0,1-.65-1.54,1.11,1.11,0,0,1,0-.19h-1.34a.33.33,0,0,1-.29-.13l-.53-.64-1.41-1.67-1.22-1.46-.23-.27-.34,1h0l0,0a3.14,3.14,0,0,1,1.68,2.46,2.87,2.87,0,0,1-.05,1.13,3.12,3.12,0,0,1-1.39,2,2.82,2.82,0,0,1-1.22.45l-.2,0h-.38a3.54,3.54,0,0,1-.47-.07,3.07,3.07,0,0,1-2-1.51,3.24,3.24,0,0,1-.39-1.22,1.49,1.49,0,0,0,0-.21Zm4.16-2.07,0,0-.57,1.68-.21.6a.31.31,0,0,1-.38.2.32.32,0,0,1-.19-.43c.26-.76.52-1.51.77-2.27l0,0a2.41,2.41,0,0,0-2.83,1.71,2.57,2.57,0,0,0,1.51,3.17,2.41,2.41,0,0,0,3.08-1.51A2.56,2.56,0,0,0,181.93,268Zm6.22,2.54a2.48,2.48,0,0,0,1.79,2.17,2.39,2.39,0,0,0,2.76-1.24,2.64,2.64,0,0,0-.48-3.07,2.32,2.32,0,0,0-2.4-.55c.07.14.13.28.19.42.28.6.55,1.2.82,1.8a.28.28,0,0,1,0,.2.31.31,0,0,1-.32.27h-2.39Zm-5.42-4.86,3.32,4,1.8-4Zm6.26,1.83-.65-1.41-1.71,3.78h.88A3.25,3.25,0,0,1,189,267.48Zm-.83,2.37h1.9l-.8-1.77A2.58,2.58,0,0,0,188.16,269.85Z" transform="translate(-147.66 -70.99)"/><path class="cls-18" d="M178.7,235.63c0-.07,0-.14,0-.21a3.2,3.2,0,0,1,.44-1.28,3,3,0,0,1,1.92-1.44,2.8,2.8,0,0,1,1.38,0s0,0,0,0c.38-1.12.77-2.23,1.15-3.35a1,1,0,0,1,.76-.67h1.21v.65h-1a.31.31,0,0,0-.34.26l-.35,1a.11.11,0,0,1,0,.05H189s.05,0,.06,0l.26-.56s0,0,0-.05h-.91a.29.29,0,0,1-.29-.21.34.34,0,0,1,.07-.36.32.32,0,0,1,.23-.08h2.36v.65h-.74a0,0,0,0,0-.05,0c-.14.31-.28.61-.41.91a.06.06,0,0,0,0,.06c.27.61.55,1.22.83,1.83v0l.29-.09a2.81,2.81,0,0,1,1-.08,3,3,0,0,1,1.94,1,3.09,3.09,0,0,1,.76,1.56,3.23,3.23,0,0,1-.93,3A2.9,2.9,0,0,1,192,239a2.66,2.66,0,0,1-.28,0h-.42a4.5,4.5,0,0,1-.51-.08,3,3,0,0,1-1.66-1.1,3.11,3.11,0,0,1-.65-1.54l0-.19H187.1a.36.36,0,0,1-.29-.13l-.53-.64-1.41-1.67-1.23-1.46-.22-.27-.35,1h0l0,0a3.16,3.16,0,0,1,1.68,2.46,2.87,2.87,0,0,1-.05,1.13,3.12,3.12,0,0,1-1.39,2,2.82,2.82,0,0,1-1.22.45l-.2,0h-.39a3.65,3.65,0,0,1-.46-.07,3,3,0,0,1-2-1.51,3.24,3.24,0,0,1-.39-1.22c0-.07,0-.14,0-.21Zm4.15-2.07s0,0,0,0l-.57,1.68-.21.6a.31.31,0,0,1-.38.2.32.32,0,0,1-.19-.43l.77-2.27,0,0a2.41,2.41,0,0,0-2.83,1.71,2.57,2.57,0,0,0,1.51,3.17,2.41,2.41,0,0,0,3.08-1.51A2.56,2.56,0,0,0,182.85,233.56Zm6.23,2.54a2.48,2.48,0,0,0,1.79,2.17,2.39,2.39,0,0,0,2.76-1.24,2.64,2.64,0,0,0-.49-3.07,2.3,2.3,0,0,0-2.39-.55c.07.14.13.28.19.42l.82,1.8a.34.34,0,0,1,0,.2.31.31,0,0,1-.32.27h-2.39Zm-5.42-4.86,3.32,4,1.8-4Zm6.25,1.83-.64-1.41-1.72,3.78h.89A3.26,3.26,0,0,1,189.91,233.07Zm-.83,2.37H191l-.8-1.77A2.57,2.57,0,0,0,189.08,235.44Z" transform="translate(-147.66 -70.99)"/><path class="cls-18" d="M192.88,203.51a1.59,1.59,0,0,1,.07-.2,3,3,0,0,1,.7-1.15,2.91,2.91,0,0,1,2.18-.95,2.86,2.86,0,0,1,1.34.33s0,0,.06,0l1.84-3a1,1,0,0,1,.89-.48l.11,0,1,.25h0L201,199h-.05l-1-.24a.34.34,0,0,0-.4.17l-.54.89,0,0h.05l5,1.21s0,0,.06,0l.37-.48,0-.05h-.05l-.84-.2a.32.32,0,0,1-.24-.27.35.35,0,0,1,.16-.33.27.27,0,0,1,.23,0l2.26.54h0l-.14.64h0l-.67-.17s-.05,0-.06,0l-.6.79a.07.07,0,0,0,0,.06c.13.66.27,1.32.41,2v0l.29,0a2.84,2.84,0,0,1,1,.17,3,3,0,0,1,1.67,1.45,3.28,3.28,0,0,1-1.14,4.36,2.85,2.85,0,0,1-1.73.42l-.27,0h0l-.34-.08,0,0a4.62,4.62,0,0,1-.47-.19,3.15,3.15,0,0,1-1.39-1.47,3.25,3.25,0,0,1-.29-1.66c0-.06,0-.12,0-.18h0L201,206a.37.37,0,0,1-.25-.21c-.13-.25-.26-.49-.38-.74-.34-.65-.68-1.3-1-2s-.59-1.14-.88-1.71l-.17-.32-.54.89h0l0,0a3.33,3.33,0,0,1,.82,3.88,3.06,3.06,0,0,1-1.79,1.63,2.78,2.78,0,0,1-1.28.15l-.2,0-.34-.08h0a3.43,3.43,0,0,1-.44-.19,3.14,3.14,0,0,1-1.6-1.94,3.2,3.2,0,0,1-.11-1.27,1.8,1.8,0,0,1,0-.22Zm4.49-1,0,0c-.31.49-.61,1-.92,1.49l-.33.54a.3.3,0,0,1-.41.11.33.33,0,0,1-.1-.47l1.24-2,0,0a2.39,2.39,0,0,0-3.13,1,2.61,2.61,0,0,0,.8,3.44,2.36,2.36,0,0,0,3.32-.74A2.59,2.59,0,0,0,197.37,202.47Zm5.52,3.94a2.56,2.56,0,0,0,1.27,2.54,2.36,2.36,0,0,0,3-.57,2.63,2.63,0,0,0,.19-3.1,2.34,2.34,0,0,0-2.21-1.1c0,.15.06.3.1.45.13.65.27,1.3.4,2a.27.27,0,0,1,0,.2.3.3,0,0,1-.37.19l-2.28-.55Zm-4.23-6L201,205l2.61-3.43Zm5.7,3.26-.33-1.53-2.48,3.29.86.21A3.18,3.18,0,0,1,204.36,203.65ZM203,205.77l1.85.45-.4-1.92A2.48,2.48,0,0,0,203,205.77Z" transform="translate(-147.66 -70.99)"/><path class="cls-18" d="M205.14,182.39l.09-.19a3,3,0,0,1,.8-1.07,2.9,2.9,0,0,1,2.26-.73,2.83,2.83,0,0,1,1.31.46s0,0,.06,0l2.1-2.8a.92.92,0,0,1,.93-.38l.11,0,1,.35h0l-.19.62,0,0-.94-.32a.31.31,0,0,0-.41.12l-.63.83a.05.05,0,0,1,0,0l0,0,4.85,1.69s0,0,.07,0,.27-.29.41-.44l0,0-.05,0-.82-.29a.32.32,0,0,1-.21-.29.33.33,0,0,1,.19-.31.26.26,0,0,1,.23,0l2.2.77h0l-.2.62,0,0-.65-.23a.08.08,0,0,0-.07,0l-.66.73a.08.08,0,0,0,0,.05c.08.67.16,1.34.23,2v0h.3a2.77,2.77,0,0,1,1,.28,3.09,3.09,0,0,1,1.54,1.6,3.25,3.25,0,0,1,.24,1.74,3.13,3.13,0,0,1-1.78,2.49,2.82,2.82,0,0,1-1.76.25l-.27-.07h0l-.32-.11,0,0c-.15-.08-.31-.15-.45-.24a3.07,3.07,0,0,1-1.25-1.6,3.19,3.19,0,0,1-.15-1.68l0-.18h0l-1.22-.43a.39.39,0,0,1-.24-.23c-.1-.26-.2-.51-.31-.77l-.82-2.05-.72-1.8-.14-.33-.62.83h0l0,0a3.26,3.26,0,0,1,.85,2.89,3.15,3.15,0,0,1-2.32,2.51,2.81,2.81,0,0,1-1.29,0l-.2,0-.33-.11,0,0c-.14-.08-.29-.14-.43-.23a3.14,3.14,0,0,1-1.41-2.09,3.24,3.24,0,0,1,0-1.28c0-.07,0-.14,0-.21Zm4.57-.59,0,0-1.05,1.4-.37.5a.3.3,0,0,1-.42.07.34.34,0,0,1-.06-.48l1.43-1.89,0,0a2.35,2.35,0,0,0-3.2.69,2.6,2.6,0,0,0,.48,3.5,2.35,2.35,0,0,0,3.37-.4A2.62,2.62,0,0,0,209.71,181.8Zm5.13,4.48a2.59,2.59,0,0,0,1,2.65,2.35,2.35,0,0,0,3-.27,2.62,2.62,0,0,0,.47-3.07,2.36,2.36,0,0,0-2.1-1.31c0,.15,0,.3.05.46.08.65.16,1.31.23,2a.28.28,0,0,1,0,.2.32.32,0,0,1-.39.16l-2.22-.78Zm-3.66-6.41,1.95,4.85,2.91-3.16Zm5.38,3.8-.19-1.55-2.77,3,.84.3A3.16,3.16,0,0,1,216.56,183.67Zm-1.51,2,1.81.63-.23-1.94A2.46,2.46,0,0,0,215.05,185.65Z" transform="translate(-147.66 -70.99)"/><path class="cls-18" d="M266,325a1.23,1.23,0,0,1,0-.2,3.16,3.16,0,0,1,2.36-2.73,2.76,2.76,0,0,1,1.37,0s.05,0,.06,0c.38-1.12.76-2.23,1.15-3.35a1,1,0,0,1,.76-.67h1.2v.65h-1a.33.33,0,0,0-.35.26c-.11.33-.22.66-.34,1,0,0,0,0,0,.05h5.15a.05.05,0,0,0,.06,0l.26-.56,0,0h-.92a.31.31,0,0,1-.29-.2.38.38,0,0,1,.08-.37.3.3,0,0,1,.22-.08h2.36v.65h-.73a0,0,0,0,0-.05,0l-.42.91v.06l.84,1.83v0l.28-.09a2.88,2.88,0,0,1,1.05-.08,3.12,3.12,0,0,1,2.69,2.59,3.19,3.19,0,0,1-.92,2.95,2.92,2.92,0,0,1-1.6.81l-.27,0h-.43a4.71,4.71,0,0,1-.5-.08,3,3,0,0,1-1.67-1.1,3.31,3.31,0,0,1-.65-1.54,1.37,1.37,0,0,0,0-.19h-1.33a.39.39,0,0,1-.3-.14c-.17-.22-.35-.43-.53-.64l-1.4-1.67-1.23-1.46-.23-.27-.34,1h0l0,0a3.19,3.19,0,0,1,1.68,2.46A3.3,3.3,0,0,1,272,326a3.16,3.16,0,0,1-1.39,2,2.82,2.82,0,0,1-1.22.45l-.2,0h-.39a3.81,3.81,0,0,1-.47-.07,3,3,0,0,1-2-1.51,3.25,3.25,0,0,1-.39-1.21,1.8,1.8,0,0,1,0-.22Zm4.15-2.07s0,0,0,0c-.2.56-.39,1.12-.58,1.68l-.2.6a.31.31,0,0,1-.38.2.32.32,0,0,1-.2-.43l.78-2.27v0a2.41,2.41,0,0,0-2.83,1.72,2.57,2.57,0,0,0,1.52,3.16,2.41,2.41,0,0,0,3.08-1.51A2.58,2.58,0,0,0,270.11,323Zm6.22,2.54a2.52,2.52,0,0,0,1.79,2.18,2.39,2.39,0,0,0,2.76-1.25,2.62,2.62,0,0,0-.48-3.07,2.31,2.31,0,0,0-2.39-.55l.19.42c.27.6.54,1.2.82,1.8a.34.34,0,0,1,0,.2.31.31,0,0,1-.32.27h-2.4Zm-5.42-4.86,3.33,4,1.8-4Zm6.26,1.83-.64-1.41-1.72,3.78h.89A3.23,3.23,0,0,1,277.17,322.48Zm-.83,2.37h1.91l-.81-1.77A2.58,2.58,0,0,0,276.34,324.85Z" transform="translate(-147.66 -70.99)"/><path class="cls-18" d="M264.41,353.63l0-.21a3.16,3.16,0,0,1,2.35-2.73,2.8,2.8,0,0,1,1.38,0s.05,0,.06,0c.38-1.11.76-2.23,1.15-3.34a.93.93,0,0,1,.76-.67l.11,0h1.09v.65h-1a.33.33,0,0,0-.35.26c-.11.33-.23.66-.34,1,0,0,0,0,0,0h5.15a.05.05,0,0,0,.06,0l.26-.56,0-.05h-.92a.31.31,0,0,1-.29-.2.36.36,0,0,1,.08-.36.31.31,0,0,1,.22-.09h2.36v.65h-.73s0,0-.06,0c-.13.3-.27.6-.41.91,0,0,0,0,0,.05.28.61.56,1.22.83,1.84l0,0,.28-.08a2.65,2.65,0,0,1,1-.08,2.94,2.94,0,0,1,1.94,1,3.15,3.15,0,0,1,.75,1.57,3.22,3.22,0,0,1-.93,3,2.8,2.8,0,0,1-1.59.81l-.28,0H277c-.17,0-.34,0-.5-.08a3,3,0,0,1-1.67-1.11,3.17,3.17,0,0,1-.65-1.54c0-.06,0-.12,0-.18h-1.33a.39.39,0,0,1-.3-.14l-.53-.63c-.47-.56-.93-1.12-1.4-1.67l-1.23-1.47-.23-.27-.34,1h0l0,0a3.19,3.19,0,0,1,1.68,2.46,3.3,3.3,0,0,1,0,1.13,3.21,3.21,0,0,1-1.39,2,2.9,2.9,0,0,1-1.22.44l-.2,0h-.39l-.47-.07a3.07,3.07,0,0,1-2-1.52,3,3,0,0,1-.39-1.21l0-.22Zm4.16-2.08,0,.05-.57,1.67c-.07.2-.14.4-.2.6a.31.31,0,0,1-.38.21.34.34,0,0,1-.2-.44l.78-2.26v-.05a2.42,2.42,0,0,0-2.83,1.72,2.57,2.57,0,0,0,1.52,3.16,2.39,2.39,0,0,0,3.07-1.5A2.58,2.58,0,0,0,268.57,351.55Zm6.22,2.55a2.51,2.51,0,0,0,1.79,2.17,2.39,2.39,0,0,0,2.76-1.25,2.62,2.62,0,0,0-.48-3.07,2.33,2.33,0,0,0-2.39-.55c.06.14.12.28.19.42l.81,1.8a.36.36,0,0,1,0,.2.32.32,0,0,1-.33.28h-2.39Zm-5.42-4.87,3.33,4,1.79-4Zm6.26,1.83-.65-1.41-1.71,3.79h.88A3.3,3.3,0,0,1,275.63,351.06Zm-.83,2.38h1.91l-.81-1.78A2.58,2.58,0,0,0,274.8,353.44Z" transform="translate(-147.66 -70.99)"/><path class="cls-18" d="M280.9,359.1l.16-.13a2.82,2.82,0,0,1,1.2-.53,2.89,2.89,0,0,1,2.32.52,3,3,0,0,1,.92,1.06s0,0,.06,0l3.14-1.36a.9.9,0,0,1,1,.13.3.3,0,0,1,.08.08l.72.82,0,0-.46.44,0,0c-.23-.25-.45-.51-.67-.76a.32.32,0,0,0-.42-.1l-.93.41,0,0,0,0c1.14,1.32,2.29,2.63,3.44,3.95a.06.06,0,0,0,.07,0l.56-.18.05,0,0,0c-.19-.22-.39-.44-.58-.67a.32.32,0,0,1-.05-.36.3.3,0,0,1,.51-.07l1.57,1.79,0,0-.47.44,0,0-.46-.53s0,0-.06,0l-.92.29,0,0-.74,1.88v0a2.26,2.26,0,0,1,.26.16,3,3,0,0,1,.76.75,3.31,3.31,0,0,1,.59,2.19,3.09,3.09,0,0,1-.6,1.63,3,3,0,0,1-2.72,1.28,2.89,2.89,0,0,1-1.64-.68l-.21-.2,0,0-.23-.26,0,0c-.09-.15-.2-.29-.28-.45a3.34,3.34,0,0,1,.31-3.57,1.34,1.34,0,0,0,.11-.14l0,0-.86-1a.37.37,0,0,1-.1-.32l.09-.83c.07-.74.15-1.48.23-2.21l.21-1.94c0-.12,0-.23,0-.36l-.94.41h0v0a3.28,3.28,0,0,1-.6,3,2.72,2.72,0,0,1-.83.72,2.92,2.92,0,0,1-2.36.28,2.81,2.81,0,0,1-1.14-.64l-.15-.14-.24-.27,0,0a4.65,4.65,0,0,1-.26-.41,3.28,3.28,0,0,1-.26-2.55,3.13,3.13,0,0,1,.59-1.11l.14-.17Zm4.26,1.81h0l-1.57.69-.56.24a.29.29,0,0,1-.4-.15.32.32,0,0,1,.18-.44l2.12-.93,0,0a2.38,2.38,0,0,0-3.12-1,2.57,2.57,0,0,0-1.21,3.3,2.39,2.39,0,0,0,3.13,1.37A2.55,2.55,0,0,0,285.16,360.91Zm2.4,6.52a2.6,2.6,0,0,0-.33,2.84,2.39,2.39,0,0,0,2.74,1.29,2.56,2.56,0,0,0,.62-4.65c0,.14-.11.28-.17.42l-.72,1.85a.31.31,0,0,1-.12.16.3.3,0,0,1-.41-.07l-1.58-1.8Zm-.21-7.47-.56,5.24,4-1.28Zm2.92,6.07.56-1.45L287,365.81l.6.68A3,3,0,0,1,290.27,366ZM288,367l1.29,1.47.71-1.82A2.37,2.37,0,0,0,288,367Z" transform="translate(-147.66 -70.99)"/><path class="cls-18" d="M297.57,342.58l.1-.17a3,3,0,0,1,.92-1,2.9,2.9,0,0,1,2.32-.45,3,3,0,0,1,1.25.61s0,0,.06,0c.8-.84,1.6-1.69,2.4-2.52a.92.92,0,0,1,1-.28l.11,0,1,.47,0,0-.27.58,0,0-.9-.44a.31.31,0,0,0-.42.08l-.71.75,0,0,.05,0,4.62,2.26a.06.06,0,0,0,.07,0l.46-.39,0,0,0,0-.79-.38a.33.33,0,0,1-.18-.32.34.34,0,0,1,.22-.29.26.26,0,0,1,.23,0l2.1,1h0l-.26.59h0l-.63-.31a0,0,0,0,0-.06,0l-.74.64a.08.08,0,0,0,0,.05c0,.68,0,1.35,0,2v0l.29,0a2.69,2.69,0,0,1,1,.39,3.27,3.27,0,0,1,1.4,3.53,3.08,3.08,0,0,1-2,2.26,2.82,2.82,0,0,1-1.77,0l-.27-.1h0l-.31-.15,0,0c-.14-.1-.29-.19-.42-.3a3.14,3.14,0,0,1-1.07-1.74,3.34,3.34,0,0,1,0-1.69.84.84,0,0,0,.05-.17l0,0-1.16-.57a.35.35,0,0,1-.21-.25c-.08-.27-.15-.54-.23-.81-.2-.71-.39-1.43-.59-2.14s-.35-1.24-.52-1.87c0-.11-.07-.22-.1-.34l-.71.75h0l0,0a3.29,3.29,0,0,1,.53,3,3,3,0,0,1-.51,1,3,3,0,0,1-2.07,1.21,2.83,2.83,0,0,1-1.29-.13l-.19-.07-.32-.16,0,0c-.13-.09-.27-.17-.39-.27a3.28,3.28,0,0,1-1-3.52c0-.07,0-.14.07-.21Zm4.6,0,0,0-1.2,1.26-.43.45a.28.28,0,0,1-.42,0,.33.33,0,0,1,0-.48l1.62-1.71,0,0a2.34,2.34,0,0,0-3.26.3,2.62,2.62,0,0,0,.09,3.54,2.36,2.36,0,0,0,3.39,0A2.6,2.6,0,0,0,302.17,342.55Zm4.6,5.05a2.62,2.62,0,0,0,.75,2.76,2.34,2.34,0,0,0,3,.1,2.62,2.62,0,0,0,.81-3,2.4,2.4,0,0,0-1.94-1.55v.46c0,.66,0,1.33,0,2a.35.35,0,0,1,0,.2.31.31,0,0,1-.41.1l-2.12-1Zm-2.93-6.8,1.41,5.06,3.23-2.8Zm4.92,4.43v-1.57l-3.09,2.67.81.39A3.05,3.05,0,0,1,308.76,345.23ZM307.05,347l1.73.84v-2A2.47,2.47,0,0,0,307.05,347Z" transform="translate(-147.66 -70.99)"/><path class="cls-18" d="M263.06,210.61l0-.21a3,3,0,0,1,.43-1.28,3,3,0,0,1,1.92-1.44,2.8,2.8,0,0,1,1.38,0s.05,0,.06,0c.38-1.12.76-2.23,1.15-3.35a1,1,0,0,1,.76-.67H270v.65h-1a.32.32,0,0,0-.35.26l-.34,1a.07.07,0,0,0,0,0h5.15a.05.05,0,0,0,.06,0c.08-.19.17-.37.26-.56,0,0,0,0,0-.05h-.92a.31.31,0,0,1-.29-.21.34.34,0,0,1,.08-.36.3.3,0,0,1,.22-.08h2.36v.65h-.73a.07.07,0,0,0-.06,0c-.13.31-.27.61-.41.91,0,0,0,0,0,.06.28.61.56,1.22.83,1.83l0,0,.28-.09a2.84,2.84,0,0,1,1.05-.08,3,3,0,0,1,1.94,1,3.12,3.12,0,0,1,.75,1.56,3.23,3.23,0,0,1-.93,3,2.86,2.86,0,0,1-1.59.81,2.4,2.4,0,0,1-.28,0h-.42a4,4,0,0,1-.5-.08,3,3,0,0,1-1.67-1.1,3.2,3.2,0,0,1-.65-1.55c0-.06,0-.11,0-.18h-1.33a.38.38,0,0,1-.3-.13c-.17-.22-.35-.43-.53-.64-.47-.55-.93-1.11-1.4-1.67L268,207.18l-.23-.27-.34,1h0l0,0a3.17,3.17,0,0,1,1.68,2.46,3.3,3.3,0,0,1-.05,1.13,3.16,3.16,0,0,1-1.39,2,2.92,2.92,0,0,1-1.22.45l-.2,0h-.39a3.54,3.54,0,0,1-.47-.07,3,3,0,0,1-2-1.51,3.07,3.07,0,0,1-.39-1.22l0-.21Zm4.16-2.07,0,0-.57,1.68-.21.59a.29.29,0,0,1-.37.21.33.33,0,0,1-.2-.44l.78-2.26v0a2.41,2.41,0,0,0-2.83,1.71,2.57,2.57,0,0,0,1.52,3.17,2.4,2.4,0,0,0,3.07-1.51A2.56,2.56,0,0,0,267.22,208.54Zm6.22,2.54a2.49,2.49,0,0,0,1.79,2.17A2.39,2.39,0,0,0,278,212a2.62,2.62,0,0,0-.48-3.07,2.31,2.31,0,0,0-2.39-.55c.06.14.12.28.19.42l.81,1.8a.34.34,0,0,1,0,.2.32.32,0,0,1-.33.27h-2.39ZM268,206.22l3.33,4,1.79-4Zm6.26,1.83-.65-1.41-1.71,3.78h.88A3.28,3.28,0,0,1,274.28,208.05Zm-.83,2.37h1.91l-.81-1.77A2.56,2.56,0,0,0,273.45,210.42Z" transform="translate(-147.66 -70.99)"/><path class="cls-18" d="M285.24,202.88l0-.21a3.16,3.16,0,0,1,2.36-2.73,2.76,2.76,0,0,1,1.37,0s.05,0,.06,0c.38-1.11.76-2.23,1.15-3.34a.93.93,0,0,1,.76-.67l.11,0h1.09v.65h-1a.34.34,0,0,0-.35.26c-.11.33-.23.66-.34,1,0,0,0,0,0,0h5.15a.05.05,0,0,0,.06,0l.26-.56,0,0H295a.31.31,0,0,1-.29-.2.36.36,0,0,1,.08-.36.31.31,0,0,1,.22-.09h2.36v.65h-.73s0,0-.06,0c-.13.3-.27.6-.41.91v.05c.28.61.56,1.22.83,1.84l0,0,.28-.08a2.66,2.66,0,0,1,1.05-.08,2.94,2.94,0,0,1,1.94,1,3.07,3.07,0,0,1,.75,1.57,3.22,3.22,0,0,1-.93,2.95,2.8,2.8,0,0,1-1.59.81l-.28,0h-.42c-.16,0-.34,0-.5-.08a3,3,0,0,1-1.67-1.11,3.17,3.17,0,0,1-.65-1.54c0-.06,0-.12,0-.18h-1.33a.39.39,0,0,1-.3-.14l-.53-.63c-.47-.56-.93-1.12-1.4-1.67l-1.23-1.47-.23-.27-.34,1h0l0,0a3.19,3.19,0,0,1,1.68,2.46,3.3,3.3,0,0,1-.05,1.13,3.21,3.21,0,0,1-1.39,2,2.85,2.85,0,0,1-1.22.44l-.2,0h-.39l-.47-.07a3.07,3.07,0,0,1-2-1.52,3.19,3.19,0,0,1-.39-1.21l0-.22Zm4.16-2.08,0,0-.57,1.67c-.07.2-.14.4-.2.6a.31.31,0,0,1-.38.21.34.34,0,0,1-.2-.44l.78-2.26v0A2.42,2.42,0,0,0,286,202.3a2.57,2.57,0,0,0,1.52,3.16,2.39,2.39,0,0,0,3.07-1.5A2.58,2.58,0,0,0,289.4,200.8Zm6.22,2.55a2.51,2.51,0,0,0,1.79,2.17,2.39,2.39,0,0,0,2.76-1.25,2.62,2.62,0,0,0-.48-3.07,2.33,2.33,0,0,0-2.39-.55l.19.42.81,1.8a.36.36,0,0,1,0,.2.32.32,0,0,1-.33.28h-2.39Zm-5.42-4.87,3.33,4,1.79-4Zm6.26,1.83-.65-1.41-1.71,3.79H295A3.25,3.25,0,0,1,296.46,200.31Zm-.83,2.38h1.91l-.81-1.78A2.58,2.58,0,0,0,295.63,202.69Z" transform="translate(-147.66 -70.99)"/><path class="cls-18" d="M291.69,183.26a1.49,1.49,0,0,1,0-.21,3.28,3.28,0,0,1,.43-1.29,3.08,3.08,0,0,1,1.93-1.44,2.76,2.76,0,0,1,1.37,0s.05,0,.06,0c.38-1.12.76-2.24,1.15-3.35a1,1,0,0,1,.76-.67h1.2v.65h-1a.33.33,0,0,0-.35.25c-.11.33-.22.67-.34,1,0,0,0,0,0,0H302a.05.05,0,0,0,.06,0c.09-.18.17-.37.26-.55,0,0,0,0,0-.06h-.92a.31.31,0,0,1-.29-.2.36.36,0,0,1,.08-.36.31.31,0,0,1,.22-.09h2.36v.65h-.73s0,0-.05,0c-.14.3-.28.6-.41.91,0,0,0,0,0,.05l.84,1.84v0l.28-.08a2.88,2.88,0,0,1,1.05-.08,3.13,3.13,0,0,1,2.69,2.58,3.21,3.21,0,0,1-.92,3,3,3,0,0,1-1.59.81l-.28,0h-.43c-.16,0-.33,0-.5-.08a3,3,0,0,1-1.67-1.1,3.34,3.34,0,0,1-.65-1.55,1.1,1.1,0,0,0,0-.18h-1.33a.36.36,0,0,1-.3-.14l-.53-.63c-.46-.56-.93-1.12-1.4-1.67l-1.23-1.47-.23-.27-.34,1h0l0,0a3.17,3.17,0,0,1,1.68,2.45,3.07,3.07,0,0,1-.05,1.13,3.21,3.21,0,0,1-1.39,2,2.81,2.81,0,0,1-1.22.44l-.2,0h-.39a4.11,4.11,0,0,1-.47-.07,3,3,0,0,1-2-1.52,3.19,3.19,0,0,1-.39-1.21,1.5,1.5,0,0,1,0-.22Zm4.15-2.08a.43.43,0,0,1,0,0c-.2.56-.39,1.11-.58,1.67l-.2.6a.31.31,0,0,1-.38.21.33.33,0,0,1-.2-.44l.78-2.26v0a2.42,2.42,0,0,0-2.83,1.72,2.56,2.56,0,0,0,1.52,3.16,2.4,2.4,0,0,0,3.08-1.5A2.6,2.6,0,0,0,295.84,181.18Zm6.22,2.55a2.5,2.5,0,0,0,1.8,2.17,2.39,2.39,0,0,0,2.75-1.24,2.63,2.63,0,0,0-.48-3.08,2.32,2.32,0,0,0-2.39-.54c.06.13.13.27.19.41.27.6.54,1.2.82,1.8a.35.35,0,0,1,0,.2.32.32,0,0,1-.32.28h-2.4Zm-5.42-4.87,3.33,4,1.8-4Zm6.26,1.83-.64-1.41-1.72,3.79h.89A3.25,3.25,0,0,1,302.9,180.69Zm-.83,2.38H304l-.81-1.77A2.54,2.54,0,0,0,302.07,183.07Z" transform="translate(-147.66 -70.99)"/><path class="cls-18" d="M290.93,227c0-.07,0-.14,0-.21a3.2,3.2,0,0,1,.44-1.28,3,3,0,0,1,1.92-1.44,2.8,2.8,0,0,1,1.38,0s0,0,.05,0c.39-1.12.77-2.23,1.15-3.35a1,1,0,0,1,.76-.67h1.21v.65h-1a.32.32,0,0,0-.35.26l-.35,1a.11.11,0,0,1,0,.05h5.16s0,0,.06,0c.08-.19.17-.37.25-.56l0-.05h-.91a.3.3,0,0,1-.29-.21.33.33,0,0,1,.08-.36.29.29,0,0,1,.22-.08h2.36v.65h-.74a0,0,0,0,0-.05,0c-.14.31-.28.61-.41.91a.06.06,0,0,0,0,.06c.27.61.55,1.22.83,1.83v0l.29-.09a2.81,2.81,0,0,1,1-.08,3,3,0,0,1,2,1,3.12,3.12,0,0,1,.75,1.56,3.23,3.23,0,0,1-.93,3,2.9,2.9,0,0,1-1.59.81,2.66,2.66,0,0,1-.28,0h-.42a4.5,4.5,0,0,1-.51-.08,3,3,0,0,1-1.66-1.1,3.11,3.11,0,0,1-.65-1.55l0-.18h-1.33a.36.36,0,0,1-.29-.13l-.53-.64L297.1,225c-.41-.49-.82-1-1.22-1.46l-.23-.27-.34,1h0l0,0a3.14,3.14,0,0,1,1.68,2.46,2.87,2.87,0,0,1,0,1.13,3.12,3.12,0,0,1-1.39,2,2.82,2.82,0,0,1-1.22.45l-.2,0h-.39a3.65,3.65,0,0,1-.46-.07,3,3,0,0,1-2-1.51,3.24,3.24,0,0,1-.39-1.22c0-.07,0-.14,0-.21Zm4.16-2.07,0,0-.57,1.68-.21.59a.31.31,0,0,1-.38.21.32.32,0,0,1-.19-.43l.77-2.27,0,0a2.41,2.41,0,0,0-2.83,1.71,2.57,2.57,0,0,0,1.51,3.17,2.41,2.41,0,0,0,3.08-1.51A2.56,2.56,0,0,0,295.09,224.9Zm6.22,2.54a2.48,2.48,0,0,0,1.79,2.17,2.39,2.39,0,0,0,2.76-1.24,2.64,2.64,0,0,0-.49-3.07,2.3,2.3,0,0,0-2.39-.55c.07.14.13.28.19.42.28.6.55,1.2.82,1.8a.34.34,0,0,1,0,.2.31.31,0,0,1-.32.27h-2.39Zm-5.42-4.86,3.32,4,1.8-4Zm6.25,1.83L301.5,223l-1.72,3.78h.89A3.26,3.26,0,0,1,302.14,224.41Zm-.83,2.37h1.91l-.8-1.77A2.57,2.57,0,0,0,301.31,226.78Z" transform="translate(-147.66 -70.99)"/><path class="cls-18" d="M315.94,233.69a1.48,1.48,0,0,0,0-.21,3.44,3.44,0,0,1,.24-1.35,3.12,3.12,0,0,1,1.69-1.73,2.88,2.88,0,0,1,1.36-.21s0,0,0,0c.22-1.17.43-2.33.65-3.5a1,1,0,0,1,.65-.78l.11,0,1.05-.17h0l.09.65h-.05l-1,.16a.32.32,0,0,0-.3.31c-.07.35-.13.7-.19,1a.07.07,0,0,0,0,.05h0l5.05-.82s0,0,.06,0c0-.19.11-.39.17-.59a.09.09,0,0,1,0-.05h0l-.85.14a.31.31,0,0,1-.32-.15.33.33,0,0,1,0-.37.33.33,0,0,1,.21-.12l2.29-.37h0l.1.64h0l-.68.11s0,0-.05,0l-.27,1s0,0,0,0l1.09,1.68,0,0,.27-.13a3,3,0,0,1,3.09.45,3.1,3.1,0,0,1,1,1.43,3.25,3.25,0,0,1-.48,3.07,3,3,0,0,1-1.46,1.05l-.27.08h0l-.34.06h0c-.17,0-.34,0-.51,0a3,3,0,0,1-1.81-.82,3.07,3.07,0,0,1-.87-1.43s0-.11-.05-.17h-.05l-1.27.2a.36.36,0,0,1-.31-.09l-.62-.54-1.63-1.42-1.43-1.25-.26-.23-.19,1h0l.05,0a3.24,3.24,0,0,1,2.14,3.28,3.27,3.27,0,0,1-1.08,2.21,3.08,3.08,0,0,1-1.14.64l-.2,0-.34.06h0a3.68,3.68,0,0,1-.47,0,3,3,0,0,1-2.18-1.18,3.07,3.07,0,0,1-.56-1.13l-.06-.21Zm3.8-2.72a.09.09,0,0,1,0,.05c-.1.58-.21,1.16-.32,1.74,0,.21-.07.42-.11.63a.31.31,0,1,1-.6-.14c.14-.79.29-1.57.43-2.36v0A2.45,2.45,0,0,0,316.6,233a2.52,2.52,0,0,0,2,2.89,2.45,2.45,0,0,0,2.82-2A2.55,2.55,0,0,0,319.74,231Zm6.52,1.52a2.41,2.41,0,0,0,4.64.18,2.62,2.62,0,0,0-.93-3,2.34,2.34,0,0,0-2.45-.16c.09.13.17.26.25.39l1.08,1.64a.47.47,0,0,1,.06.2.33.33,0,0,1-.28.32l-2.31.38Zm-6.07-3.94,3.87,3.37,1.19-4.2Zm6.46.8-.85-1.29-1.14,4,.88-.15A3.3,3.3,0,0,1,326.65,229.35Zm-.48,2.48,1.89-.31L327,229.9A2.62,2.62,0,0,0,326.17,231.83Z" transform="translate(-147.66 -70.99)"/><path class="cls-18" d="M316.08,211.59c0-.07,0-.14,0-.21a3.27,3.27,0,0,1,1.76-3.18,2.74,2.74,0,0,1,1.35-.29s0,0,0,0c.15-1.17.3-2.35.46-3.52a1,1,0,0,1,.61-.83l.1,0,1-.23h0l.13.63-.05,0-1,.21a.34.34,0,0,0-.29.33c0,.35-.09.7-.13,1a.08.08,0,0,1,0,0h.05l5-1.11s.05,0,.06-.05c0-.21.09-.41.13-.61a.07.07,0,0,0,0-.05h-.05l-.84.19a.31.31,0,0,1-.33-.14.35.35,0,0,1,0-.37.34.34,0,0,1,.2-.13l2.26-.51h0l.14.64h-.05l-.67.15a.06.06,0,0,0-.05.05c-.07.32-.14.65-.22,1,0,0,0,0,0,.06l1.18,1.61,0,0,.26-.14a2.82,2.82,0,0,1,1-.31,3.06,3.06,0,0,1,3.15,1.93,3.26,3.26,0,0,1-.31,3.1,3,3,0,0,1-1.4,1.14l-.26.09,0,0-.33.07h0l-.51,0a2.89,2.89,0,0,1-1.85-.72,3.09,3.09,0,0,1-.95-1.37l-.06-.17h-.05l-1.25.28a.34.34,0,0,1-.32-.07l-.64-.5-1.71-1.33-1.49-1.16-.28-.21-.14,1h.06a3.11,3.11,0,0,1,2.13,2,3,3,0,0,1,.18,1.11,3.21,3.21,0,0,1-1,2.28,2.84,2.84,0,0,1-1.1.7l-.19.07-.34.07h0a3.89,3.89,0,0,1-.47,0,3,3,0,0,1-2.24-1.05,3.07,3.07,0,0,1-.62-1.1l-.07-.21Zm3.65-2.93a.06.06,0,0,0,0,0c-.08.59-.15,1.18-.22,1.76l-.09.63a.3.3,0,1,1-.6-.09l.3-2.39v-.05a2.47,2.47,0,0,0-2.42,2.3,2.5,2.5,0,0,0,2.11,2.76,2.44,2.44,0,0,0,2.71-2.14A2.52,2.52,0,0,0,319.73,208.66Zm6.59,1.12a2.4,2.4,0,0,0,4.63-.09,2.6,2.6,0,0,0-1.08-2.9,2.32,2.32,0,0,0-2.45,0l.27.37,1.16,1.58a.34.34,0,0,1,.07.19.33.33,0,0,1-.26.34l-2.29.51Zm-6.27-3.57,4,3.14,1-4.26Zm6.48.42-.91-1.24-.92,4.08.87-.2A3.3,3.3,0,0,1,326.53,206.63Zm-.33,2.5,1.86-.41-1.14-1.56A2.6,2.6,0,0,0,326.2,209.13Z" transform="translate(-147.66 -70.99)"/><path class="cls-18" d="M295.59,255a1.49,1.49,0,0,0,0-.21,3.2,3.2,0,0,1,.44-1.28,3,3,0,0,1,1.92-1.45,2.93,2.93,0,0,1,1.38,0s0,0,0,0l1.16-3.35a1,1,0,0,1,.75-.67h1.21v.65h-1a.32.32,0,0,0-.35.26c-.12.33-.23.66-.34,1,0,0,0,0,0,.05h5.16s0,0,.06,0c.08-.19.17-.38.25-.56,0,0,0,0,0-.05h-.91a.31.31,0,0,1-.29-.21.33.33,0,0,1,.08-.36.29.29,0,0,1,.22-.08h2.36v.65H307a.05.05,0,0,0-.05,0c-.14.31-.27.61-.41.91a.06.06,0,0,0,0,.06l.83,1.83v0l.29-.09a2.81,2.81,0,0,1,1-.08,3,3,0,0,1,1.95,1,3.12,3.12,0,0,1,.75,1.56,3.23,3.23,0,0,1-.93,3,2.86,2.86,0,0,1-1.59.81l-.28,0h-.42a4,4,0,0,1-.5-.08,3,3,0,0,1-1.67-1.1,3.2,3.2,0,0,1-.65-1.55,1.1,1.1,0,0,1,0-.18H304a.36.36,0,0,1-.3-.14l-.53-.63c-.47-.56-.94-1.11-1.4-1.67l-1.23-1.46-.23-.27-.34,1h0l0,0a3.16,3.16,0,0,1,1.69,2.46,3.07,3.07,0,0,1-.06,1.13,3.15,3.15,0,0,1-1.38,2,3.05,3.05,0,0,1-1.23.45l-.2,0h-.38a3.54,3.54,0,0,1-.47-.07,3,3,0,0,1-2-1.51,3.08,3.08,0,0,1-.4-1.22,1.49,1.49,0,0,0,0-.21Zm4.16-2.07s0,0,0,0l-.57,1.67-.21.6a.3.3,0,0,1-.37.21.32.32,0,0,1-.2-.44c.26-.75.52-1.5.77-2.26l0,0a2.41,2.41,0,0,0-2.83,1.71,2.57,2.57,0,0,0,1.51,3.17,2.41,2.41,0,0,0,3.08-1.51A2.56,2.56,0,0,0,299.75,252.94Zm6.22,2.54a2.48,2.48,0,0,0,1.79,2.17,2.39,2.39,0,0,0,2.76-1.24,2.63,2.63,0,0,0-.48-3.07,2.31,2.31,0,0,0-2.39-.55l.18.42c.28.6.55,1.2.82,1.8a.28.28,0,0,1,0,.2.31.31,0,0,1-.32.27H306Zm-5.42-4.86,3.33,4,1.79-4Zm6.26,1.83-.65-1.41-1.71,3.78h.88A3.23,3.23,0,0,1,306.81,252.45Zm-.83,2.37h1.9l-.8-1.77A2.56,2.56,0,0,0,306,254.82Z" transform="translate(-147.66 -70.99)"/><path class="cls-18" d="M268.93,269.49a1.49,1.49,0,0,1,0-.21,3.18,3.18,0,0,1,2.36-2.73,2.89,2.89,0,0,1,1.37,0s.05,0,.06,0c.38-1.12.76-2.23,1.15-3.35a1,1,0,0,1,.76-.67h1.2v.65h-1a.33.33,0,0,0-.35.25c-.11.34-.23.67-.34,1,0,0,0,0,0,0h5.15a.05.05,0,0,0,.06,0c.08-.19.17-.38.26-.56,0,0,0,0,0-.05h-.92a.31.31,0,0,1-.29-.21.36.36,0,0,1,.08-.36.3.3,0,0,1,.22-.08h2.36v.65h-.73a0,0,0,0,0-.05,0l-.42.91v.06c.28.61.56,1.22.83,1.83l0,0,.28-.09a2.86,2.86,0,0,1,1-.08,3,3,0,0,1,1.94,1,3,3,0,0,1,.75,1.56,3.2,3.2,0,0,1-.93,3,2.86,2.86,0,0,1-1.59.81l-.27,0h-.43a4.33,4.33,0,0,1-.5-.08,3,3,0,0,1-1.67-1.1,3.2,3.2,0,0,1-.65-1.55,1.1,1.1,0,0,0,0-.18h-1.33a.36.36,0,0,1-.3-.14l-.53-.63c-.46-.56-.93-1.11-1.4-1.67l-1.23-1.46-.23-.27-.34,1h0l0,0a3.17,3.17,0,0,1,1.68,2.46,3.31,3.31,0,0,1,0,1.13,3.16,3.16,0,0,1-1.39,2,3,3,0,0,1-1.22.45l-.2,0h-.39a3.54,3.54,0,0,1-.47-.07,3,3,0,0,1-2-1.52,3.19,3.19,0,0,1-.39-1.21,1.49,1.49,0,0,1,0-.21Zm4.15-2.07,0,0-.57,1.67-.2.6a.31.31,0,0,1-.38.21.33.33,0,0,1-.2-.44l.78-2.26v-.05a2.43,2.43,0,0,0-2.83,1.72,2.56,2.56,0,0,0,1.52,3.16,2.38,2.38,0,0,0,3.07-1.5A2.56,2.56,0,0,0,273.08,267.42ZM279.3,270a2.51,2.51,0,0,0,1.79,2.17,2.39,2.39,0,0,0,2.76-1.24,2.62,2.62,0,0,0-.48-3.07,2.31,2.31,0,0,0-2.39-.55l.19.42c.27.6.54,1.2.82,1.8a.44.44,0,0,1,0,.2.32.32,0,0,1-.33.27H279.3Zm-5.42-4.86,3.33,3.95L279,265.1Zm6.26,1.83-.64-1.41-1.72,3.78h.89A3.22,3.22,0,0,1,280.14,266.93Zm-.83,2.37h1.91l-.81-1.77A2.56,2.56,0,0,0,279.31,269.3Z" transform="translate(-147.66 -70.99)"/><path class="cls-18" d="M295.59,288.1a1.49,1.49,0,0,0,0-.21,3.2,3.2,0,0,1,.44-1.28,3,3,0,0,1,1.92-1.44,2.8,2.8,0,0,1,1.38,0s0,0,0,0l1.16-3.35a1,1,0,0,1,.75-.67h1.21v.65h-1a.32.32,0,0,0-.35.26c-.12.33-.23.66-.34,1,0,0,0,0,0,.05h5.16s0,0,.06,0c.08-.19.17-.37.25-.56,0,0,0,0,0,0h-.91a.31.31,0,0,1-.29-.21.33.33,0,0,1,.08-.36.29.29,0,0,1,.22-.08h2.36v.65H307a.05.05,0,0,0-.05,0c-.14.31-.27.61-.41.91a.06.06,0,0,0,0,.06l.83,1.83v0l.29-.09a2.81,2.81,0,0,1,1-.08,3,3,0,0,1,1.95,1,3.12,3.12,0,0,1,.75,1.56,3.23,3.23,0,0,1-.93,3,2.86,2.86,0,0,1-1.59.81,2.66,2.66,0,0,1-.28,0h-.42a4,4,0,0,1-.5-.08,3,3,0,0,1-1.67-1.1,3.2,3.2,0,0,1-.65-1.55,1.1,1.1,0,0,1,0-.18H304a.36.36,0,0,1-.3-.14l-.53-.63c-.47-.55-.94-1.11-1.4-1.67l-1.23-1.46-.23-.27-.34,1h0l0,0a3.16,3.16,0,0,1,1.69,2.46,3.07,3.07,0,0,1-.06,1.13,3.15,3.15,0,0,1-1.38,2,2.91,2.91,0,0,1-1.23.45l-.2,0h-.38a3.54,3.54,0,0,1-.47-.07,3,3,0,0,1-2-1.51,3.08,3.08,0,0,1-.4-1.22,1.49,1.49,0,0,0,0-.21Zm4.16-2.07s0,0,0,0l-.57,1.68-.21.59a.3.3,0,0,1-.37.21.32.32,0,0,1-.2-.44c.26-.75.52-1.5.77-2.26l0,0a2.41,2.41,0,0,0-2.83,1.71,2.57,2.57,0,0,0,1.51,3.17,2.41,2.41,0,0,0,3.08-1.51A2.56,2.56,0,0,0,299.75,286Zm6.22,2.54a2.48,2.48,0,0,0,1.79,2.17,2.39,2.39,0,0,0,2.76-1.24,2.63,2.63,0,0,0-.48-3.07,2.31,2.31,0,0,0-2.39-.55l.18.42c.28.6.55,1.2.82,1.8a.28.28,0,0,1,0,.2.31.31,0,0,1-.32.27H306Zm-5.42-4.86,3.33,4,1.79-4Zm6.26,1.83-.65-1.41-1.71,3.78h.88A3.25,3.25,0,0,1,306.81,285.54Zm-.83,2.37h1.9l-.8-1.77A2.56,2.56,0,0,0,306,287.91Z" transform="translate(-147.66 -70.99)"/><path class="cls-18" d="M317.72,274.21l.08-.2a3.18,3.18,0,0,1,.76-1.11,3,3,0,0,1,2.23-.82,2.84,2.84,0,0,1,1.32.41s.05,0,.07,0l2-2.88a.93.93,0,0,1,.91-.42l.11,0,1,.31h0l-.17.63-.05,0-.95-.29a.31.31,0,0,0-.4.15l-.6.85s0,0,0,0h0l4.91,1.5a.07.07,0,0,0,.06,0l.4-.47,0,0h-.05l-.83-.26a.32.32,0,0,1-.22-.28.34.34,0,0,1,.17-.32.33.33,0,0,1,.24,0l2.22.68h0l-.17.62h0l-.67-.2s0,0-.06,0l-.63.75a.11.11,0,0,0,0,.05c.1.67.21,1.34.31,2v0h.3a2.62,2.62,0,0,1,1,.23,3.06,3.06,0,0,1,1.59,1.54,3.19,3.19,0,0,1,.31,1.72,3.14,3.14,0,0,1-1.69,2.57,2.84,2.84,0,0,1-1.74.31l-.28-.05h0l-.33-.1,0,0c-.15-.07-.32-.14-.46-.22a3.07,3.07,0,0,1-1.31-1.55,3.18,3.18,0,0,1-.21-1.67l0-.18-.05,0-1.23-.37a.37.37,0,0,1-.25-.22l-.34-.76-.9-2c-.27-.58-.53-1.17-.79-1.76l-.15-.33-.59.86h0l0,0a3.25,3.25,0,0,1,.95,2.85,2.87,2.87,0,0,1-.35,1.07,3,3,0,0,1-1.87,1.53,2.81,2.81,0,0,1-1.29.07l-.2,0-.33-.11h0c-.14-.07-.29-.13-.43-.21a3.16,3.16,0,0,1-1.49-2,3.24,3.24,0,0,1-.05-1.28,1.55,1.55,0,0,1,0-.21Zm4.55-.78,0,0-1,1.44-.35.52a.31.31,0,0,1-.42.09.33.33,0,0,1-.07-.48l1.35-1.95,0,0a2.37,2.37,0,0,0-3.17.83,2.6,2.6,0,0,0,.61,3.48,2.35,2.35,0,0,0,3.35-.55A2.6,2.6,0,0,0,322.27,273.43Zm5.29,4.25a2.58,2.58,0,0,0,1.14,2.61,2.35,2.35,0,0,0,3-.39,2.63,2.63,0,0,0,.36-3.09,2.36,2.36,0,0,0-2.15-1.22c0,.15.05.3.07.45.1.66.2,1.31.31,2a.34.34,0,0,1,0,.2.3.3,0,0,1-.38.17l-2.25-.68Zm-3.9-6.25,2.13,4.77,2.79-3.28Zm5.52,3.58-.25-1.54-2.65,3.14.85.25A3.15,3.15,0,0,1,329.18,275Zm-1.43,2,1.83.56-.3-1.94A2.49,2.49,0,0,0,327.75,277.05Z" transform="translate(-147.66 -70.99)"/><path class="cls-18" d="M322.59,255.44a1.17,1.17,0,0,0,.05-.2,3.12,3.12,0,0,1,.62-1.2,3,3,0,0,1,2.11-1.12,2.76,2.76,0,0,1,1.36.23s0,0,.06,0c.54-1,1.09-2.09,1.63-3.13a1,1,0,0,1,.85-.54h.11l1.05.17h0l-.09.65h-.05l-1-.16a.31.31,0,0,0-.38.2l-.49.92,0,0h.05l5,.82a.06.06,0,0,0,.07,0l.33-.52,0,0h-.05l-.85-.14a.32.32,0,0,1-.26-.25.34.34,0,0,1,.13-.34.28.28,0,0,1,.23,0l2.29.37h0l-.09.64h0l-.69-.11s0,0-.05,0l-.54.83a.06.06,0,0,0,0,.06c.18.64.37,1.29.55,1.94v0l.29,0a2.66,2.66,0,0,1,1.05.09,3,3,0,0,1,1.77,1.32,3.3,3.3,0,0,1-.84,4.43,2.78,2.78,0,0,1-1.69.55h-.32l-.34-.05,0,0a3.86,3.86,0,0,1-.48-.16,3.07,3.07,0,0,1-1.49-1.36,3.19,3.19,0,0,1-.41-1.63v-.18h-.05l-1.26-.2a.39.39,0,0,1-.28-.19l-.43-.71L329,254.48l-1-1.64c-.06-.1-.12-.2-.19-.3l-.48.93h0l0,0a3.2,3.2,0,0,1,1.3,2.7,3,3,0,0,1-.21,1.11,3.11,3.11,0,0,1-1.67,1.76,2.68,2.68,0,0,1-1.27.25h-.2l-.35-.05,0,0c-.15-.05-.3-.08-.45-.14a3.09,3.09,0,0,1-1.72-1.82,3,3,0,0,1-.21-1.26,1.7,1.7,0,0,1,0-.22Zm4.41-1.38,0,0-.81,1.56c-.1.19-.2.37-.29.56a.31.31,0,0,1-.41.15.34.34,0,0,1-.13-.47l1.1-2.11,0,0a2.38,2.38,0,0,0-3,1.24,2.6,2.6,0,0,0,1,3.37,2.38,2.38,0,0,0,3.26-1A2.59,2.59,0,0,0,327,254.06Zm5.77,3.51a2.55,2.55,0,0,0,1.46,2.43,2.35,2.35,0,0,0,2.9-.78,2.64,2.64,0,0,0,0-3.12,2.36,2.36,0,0,0-2.28-.92l.12.44c.18.64.36,1.28.55,1.91a.38.38,0,0,1,0,.21.33.33,0,0,1-.36.22l-2.31-.38Zm-4.64-5.68,2.71,4.45,2.35-3.62Zm5.92,2.82-.43-1.5-2.25,3.46.87.15A3.17,3.17,0,0,1,334.05,254.71Zm-1.17,2.21,1.88.3-.53-1.87A2.49,2.49,0,0,0,332.88,256.92Z" transform="translate(-147.66 -70.99)"/><path class="cls-18" d="M287.36,318.2l0-.21a3.13,3.13,0,0,1,.43-1.29,3.06,3.06,0,0,1,1.92-1.44,2.93,2.93,0,0,1,1.38,0s.05,0,.06,0c.38-1.12.76-2.23,1.15-3.35a1,1,0,0,1,.76-.67h1.2v.65h-1a.32.32,0,0,0-.35.25c-.11.34-.23.67-.34,1a.06.06,0,0,0,0,0h5.15a.05.05,0,0,0,.06,0c.08-.19.17-.38.26-.56,0,0,0,0,0-.05h-.92a.31.31,0,0,1-.29-.21.34.34,0,0,1,.08-.36.3.3,0,0,1,.22-.08h2.36v.65h-.73a.07.07,0,0,0-.06,0c-.13.3-.27.61-.41.91,0,0,0,0,0,.06.28.61.56,1.22.83,1.83l0,0,.28-.09a2.84,2.84,0,0,1,1.05-.08,3,3,0,0,1,1.94,1,3.08,3.08,0,0,1,.75,1.56,3.23,3.23,0,0,1-.93,3,2.86,2.86,0,0,1-1.59.81l-.28,0h-.42a4,4,0,0,1-.5-.08,3,3,0,0,1-1.67-1.1,3.2,3.2,0,0,1-.65-1.55c0-.06,0-.12,0-.18h-1.33a.36.36,0,0,1-.3-.14l-.53-.63-1.4-1.67-1.23-1.46-.23-.27-.34,1h0l0,0a3.17,3.17,0,0,1,1.68,2.46,3.31,3.31,0,0,1-.05,1.13,3.19,3.19,0,0,1-1.39,2,3.06,3.06,0,0,1-1.22.45l-.2,0h-.39a3.54,3.54,0,0,1-.47-.07,3.19,3.19,0,0,1-2.36-2.73l0-.21Zm4.16-2.07s0,0,0,0l-.57,1.67-.21.6a.29.29,0,0,1-.37.21.33.33,0,0,1-.2-.44l.78-2.26v-.05a2.43,2.43,0,0,0-2.83,1.72,2.56,2.56,0,0,0,1.52,3.16,2.38,2.38,0,0,0,3.07-1.5A2.56,2.56,0,0,0,291.52,316.13Zm6.22,2.54a2.49,2.49,0,0,0,1.79,2.17,2.39,2.39,0,0,0,2.76-1.24,2.62,2.62,0,0,0-.48-3.07,2.31,2.31,0,0,0-2.39-.55c.06.14.12.28.19.42l.81,1.8a.34.34,0,0,1,0,.2.33.33,0,0,1-.33.27h-2.39Zm-5.42-4.86,3.33,3.95,1.79-3.95Zm6.26,1.83-.65-1.41L296.22,318h.88A3.26,3.26,0,0,1,298.58,315.64Zm-.83,2.37h1.91l-.81-1.77A2.56,2.56,0,0,0,297.75,318Z" transform="translate(-147.66 -70.99)"/><path class="cls-18" d="M315.45,309.41c0-.07.05-.14.07-.2a3.1,3.1,0,0,1,2.93-2,2.9,2.9,0,0,1,1.34.37s0,0,.06,0l1.9-2.95a1,1,0,0,1,.9-.45l.11,0,1,.27h0l-.16.63h-.05l-1-.26a.31.31,0,0,0-.39.16l-.57.87,0,0,0,0,5,1.32s0,0,.07,0,.25-.31.38-.47l0-.05h-.05l-.84-.22a.34.34,0,0,1-.23-.27.32.32,0,0,1,.16-.33.29.29,0,0,1,.24,0l2.24.6h0l-.15.63h0l-.67-.18s0,0-.06,0c-.21.26-.41.52-.62.77a.13.13,0,0,0,0,.06c.12.66.25,1.33.37,2v0h.3a2.84,2.84,0,0,1,1,.19,3.06,3.06,0,0,1,1.64,1.49,3.17,3.17,0,0,1,.36,1.71,3.13,3.13,0,0,1-1.6,2.62,2.78,2.78,0,0,1-1.73.38l-.28,0h0l-.33-.09,0,0c-.16-.07-.32-.13-.47-.21a3.09,3.09,0,0,1-1.35-1.5,3.26,3.26,0,0,1-.27-1.66,1.1,1.1,0,0,0,0-.18l0,0-1.24-.33a.37.37,0,0,1-.25-.21l-.36-.75c-.33-.66-.65-1.32-1-2l-.84-1.73c-.06-.11-.11-.22-.16-.33l-.57.88h0l0,0a3.24,3.24,0,0,1,1.05,2.81,3.12,3.12,0,0,1-.32,1.09,3.07,3.07,0,0,1-1.82,1.59,2.82,2.82,0,0,1-1.29.11l-.2,0-.34-.09,0,0-.44-.19a3.14,3.14,0,0,1-1.55-2,3.07,3.07,0,0,1-.09-1.28l0-.21Zm4.52-.94,0,0c-.31.49-.63,1-.95,1.47l-.34.53a.29.29,0,0,1-.41.1.33.33,0,0,1-.09-.47l1.29-2,0,0a2.37,2.37,0,0,0-3.15.94,2.6,2.6,0,0,0,.72,3.45,2.36,2.36,0,0,0,3.34-.66A2.6,2.6,0,0,0,320,308.47Zm5.42,4.07a2.59,2.59,0,0,0,1.23,2.57,2.35,2.35,0,0,0,3-.5,2.62,2.62,0,0,0,.26-3.1,2.36,2.36,0,0,0-2.18-1.15c0,.16,0,.31.08.46.12.65.25,1.3.37,1.95a.38.38,0,0,1,0,.21.31.31,0,0,1-.38.18l-2.26-.6Zm-4.1-6.11,2.29,4.69,2.68-3.37Zm5.64,3.39-.3-1.54-2.55,3.23.85.23A3.15,3.15,0,0,1,326.93,309.82Zm-1.37,2.08,1.85.49-.36-1.92A2.5,2.5,0,0,0,325.56,311.9Z" transform="translate(-147.66 -70.99)"/><path class="cls-18" d="M269.28,300.68a1.49,1.49,0,0,1,0-.21,3.13,3.13,0,0,1,.43-1.29,3.08,3.08,0,0,1,1.93-1.44,2.89,2.89,0,0,1,1.37,0s.05,0,.06,0c.38-1.12.76-2.24,1.15-3.35a1,1,0,0,1,.76-.67h1.2v.65h-1a.33.33,0,0,0-.35.25c-.11.33-.22.67-.34,1,0,0,0,0,0,0h5.15s.05,0,.06,0c.09-.19.17-.38.26-.56,0,0,0,0,0-.05H279a.32.32,0,0,1-.29-.21.36.36,0,0,1,.08-.36.31.31,0,0,1,.22-.09h2.36V295h-.73s0,0-.05,0l-.42.91V296c.28.62.56,1.23.83,1.84l0,0,.28-.08a2.86,2.86,0,0,1,1.05-.08,3,3,0,0,1,1.94,1,3,3,0,0,1,.75,1.56,3.18,3.18,0,0,1-.93,3,2.86,2.86,0,0,1-1.59.81l-.27,0h-.43c-.16,0-.34,0-.5-.08a3,3,0,0,1-1.67-1.1,3.34,3.34,0,0,1-.65-1.55,1.1,1.1,0,0,0,0-.18h-1.33a.36.36,0,0,1-.3-.14l-.53-.63c-.46-.56-.93-1.11-1.4-1.67l-1.23-1.46L274,297l-.34,1h0l0,0a3.17,3.17,0,0,1,1.68,2.46,3.32,3.32,0,0,1-.05,1.13,3.19,3.19,0,0,1-1.39,2,2.81,2.81,0,0,1-1.22.44l-.2,0h-.39a3.81,3.81,0,0,1-.47-.07,3,3,0,0,1-2-1.52,3.19,3.19,0,0,1-.39-1.21,1.5,1.5,0,0,1,0-.22Zm4.15-2.07,0,0-.57,1.67-.2.6a.31.31,0,0,1-.38.21.33.33,0,0,1-.2-.44l.78-2.26v-.05A2.43,2.43,0,0,0,270,300.1a2.56,2.56,0,0,0,1.52,3.16,2.38,2.38,0,0,0,3.07-1.5A2.56,2.56,0,0,0,273.43,298.61Zm6.22,2.54a2.51,2.51,0,0,0,1.79,2.17,2.39,2.39,0,0,0,2.76-1.24,2.62,2.62,0,0,0-.48-3.07,2.31,2.31,0,0,0-2.39-.55c.06.14.13.28.19.41.27.61.54,1.21.82,1.81a.42.42,0,0,1,0,.2.33.33,0,0,1-.33.27h-2.39Zm-5.42-4.87,3.33,4,1.8-4Zm6.26,1.83-.64-1.41-1.72,3.79H279A3.25,3.25,0,0,1,280.49,298.11Zm-.83,2.38h1.91l-.81-1.77A2.56,2.56,0,0,0,279.66,300.49Z" transform="translate(-147.66 -70.99)"/><path class="cls-18" d="M268.72,243l0-.21a3.16,3.16,0,0,1,2.35-2.73,2.8,2.8,0,0,1,1.38,0s0,0,.06,0c.38-1.11.76-2.23,1.15-3.34a.93.93,0,0,1,.76-.67l.11,0h1.09v.65h-1a.33.33,0,0,0-.35.26c-.11.33-.23.66-.34,1,0,0,0,0,0,0h5.15a.05.05,0,0,0,.06,0c.08-.18.17-.37.25-.56l0,0h-.92a.31.31,0,0,1-.29-.2.34.34,0,0,1,.08-.36.31.31,0,0,1,.22-.09h2.36v.65h-.73a.05.05,0,0,0-.06,0c-.13.3-.27.6-.41.91a0,0,0,0,0,0,.05c.28.61.55,1.22.83,1.84l0,0,.28-.08a2.61,2.61,0,0,1,1-.08,3,3,0,0,1,1.95,1,3.15,3.15,0,0,1,.75,1.57,3.22,3.22,0,0,1-.93,2.95,2.8,2.8,0,0,1-1.59.81l-.28,0h-.42c-.17,0-.34,0-.5-.08a3,3,0,0,1-1.67-1.11,3.17,3.17,0,0,1-.65-1.54c0-.06,0-.12,0-.18h-1.33a.39.39,0,0,1-.3-.14l-.53-.63c-.47-.56-.93-1.12-1.4-1.67l-1.23-1.47-.23-.27-.34,1h0l0,0a3.19,3.19,0,0,1,1.68,2.46,3.3,3.3,0,0,1-.05,1.13,3.21,3.21,0,0,1-1.39,2,2.9,2.9,0,0,1-1.22.44l-.2,0h-.39l-.47-.07a3.07,3.07,0,0,1-2-1.52,3,3,0,0,1-.39-1.21l0-.22Zm4.16-2.08,0,.05-.57,1.67-.21.6a.3.3,0,0,1-.37.21.33.33,0,0,1-.2-.44l.78-2.26v-.05a2.42,2.42,0,0,0-2.83,1.72,2.56,2.56,0,0,0,1.52,3.16,2.39,2.39,0,0,0,3.07-1.5A2.58,2.58,0,0,0,272.88,240.92Zm6.22,2.55a2.49,2.49,0,0,0,1.79,2.17,2.4,2.4,0,0,0,2.76-1.25,2.62,2.62,0,0,0-.48-3.07,2.33,2.33,0,0,0-2.39-.55c.06.14.12.28.19.42l.81,1.8a.36.36,0,0,1,0,.2.33.33,0,0,1-.33.28H279.1Zm-5.42-4.87,3.33,4,1.79-4Zm6.26,1.83-.65-1.41-1.71,3.79h.88A3.27,3.27,0,0,1,279.94,240.43Zm-.83,2.38H281l-.8-1.78A2.58,2.58,0,0,0,279.11,242.81Z" transform="translate(-147.66 -70.99)"/><path class="cls-19" d="M318.45,96.2" transform="translate(-147.66 -70.99)"/><ellipse class="cls-20" cx="113.79" cy="57.95" rx="45.08" ry="57.95"/><rect class="cls-21" x="236.55" y="106.63" width="21.69" height="13.48" rx="4.43" ry="4.43" transform="translate(347.14 155.76) rotate(180)"/><rect class="cls-22" x="264.81" y="106.63" width="21.69" height="13.48" rx="4.43" ry="4.43" transform="translate(403.66 155.76) rotate(180)"/><ellipse class="cls-23" cx="99.74" cy="42.39" rx="2.15" ry="2.67"/><ellipse class="cls-23" cx="128" cy="42.39" rx="2.15" ry="2.67"/><path class="cls-24" d="M216.89,118.23,236,85.94s35,6.1,48.19,0l20.27,28.48s-5.42-23.78-18.22-33.53c-8.94-6.81-11.6-7.24-12.36-7.7a5.47,5.47,0,0,0-2.41-.64c-4.42-1.41-19.06-3.89-33.78,6.8C220,92.21,216.89,118.23,216.89,118.23Z" transform="translate(-147.66 -70.99)"/><path class="cls-25" d="M284.2,86.06l20.08,28.2s-5.37-23.56-18-33.2C285,80.14,288,82.5,284.2,86.06Z" transform="translate(-147.66 -70.99)"/><path class="cls-26" d="M305.58,137.36s-41.81,56.95-89.8,0c0,0,5.09,48,45.08,50.57C260.86,187.93,299.29,189.25,305.58,137.36Z" transform="translate(-147.66 -70.99)"/><line class="cls-19" x1="101.9" y1="88.04" x2="125.85" y2="88.04"/><path class="cls-27" d="M249.55,159a21.54,21.54,0,0,1,6-2,32.79,32.79,0,0,1,6-.54,33.76,33.76,0,0,1,6,.53,21.51,21.51,0,0,1,6,2,21.51,21.51,0,0,1-6,2,33.76,33.76,0,0,1-6,.53,32.79,32.79,0,0,1-6-.54A21.87,21.87,0,0,1,249.55,159Z" transform="translate(-147.66 -70.99)"/><line class="cls-19" x1="100.59" y1="88.04" x2="127.39" y2="88.04"/><path class="cls-28" d="M248.24,159c2.24-.16,4.47-.23,6.7-.29s4.47-.05,6.7-.09,4.47,0,6.71.09,4.46.13,6.7.29c-2.24.16-4.47.23-6.7.29s-4.47.05-6.71.08-4.46,0-6.7-.08S250.48,159.18,248.24,159Z" transform="translate(-147.66 -70.99)"/><polyline class="cls-29" points="118.9 71.48 114.33 72.88 108.84 71.28 113.36 50.13"/><polyline class="cls-30" points="114.33 72.88 108.84 71.28 113.36 50.13"/><path class="cls-20" d="M264.19,113.21s-2.33-3-5.32,0" transform="translate(-147.66 -70.99)"/><path class="cls-31" d="M264.15,113.25a8.63,8.63,0,0,0-2.6-.48,5.44,5.44,0,0,0-1.13.13c-.22,0-.44.12-.69.17a6.57,6.57,0,0,1-.83.18l-.07-.07.57-.53a5.5,5.5,0,0,1,.64-.43,3.28,3.28,0,0,1,1.5-.45,3.56,3.56,0,0,1,2.69,1.41Z" transform="translate(-147.66 -70.99)"/><ellipse class="cls-32" cx="128" cy="42.39" rx="1.1" ry="1.36"/><ellipse class="cls-32" cx="99.74" cy="42.39" rx="1.1" ry="1.36"/><path class="cls-33" d="M215.78,137.36s11.66,35.57,27.68,44.72C243.46,182.08,224.84,179.42,215.78,137.36Z" transform="translate(-147.66 -70.99)"/></svg>