<svg id="Layer_1" data-name="Layer 1" xmlns="http://www.w3.org/2000/svg" xmlns:xlink="http://www.w3.org/1999/xlink" viewBox="0 0 235.25 417.9"><defs><style>.cls-1{fill:#e4e1c7;}.cls-2{fill:#512e2a;}.cls-3,.cls-4{fill:#9e2b20;}.cls-14,.cls-23,.cls-4,.cls-6{stroke:#231f20;}.cls-14,.cls-15,.cls-16,.cls-17,.cls-21,.cls-22,.cls-23,.cls-32,.cls-4,.cls-6,.cls-8{stroke-miterlimit:10;}.cls-5{fill:#231f20;}.cls-16,.cls-6,.cls-8{fill:none;}.cls-23,.cls-6{stroke-width:0.25px;}.cls-7{fill:#c2b59b;}.cls-8{stroke:#9b8579;}.cls-9{fill:#b1a58e;}.cls-10{fill:#9b8579;}.cls-11{fill:#1e4496;}.cls-12,.cls-17{fill:#234093;}.cls-13{fill:#124b9a;}.cls-14,.cls-15,.cls-20,.cls-21,.cls-22,.cls-23{fill:#fff;}.cls-15{stroke:#f9a560;}.cls-16{stroke:#283c91;}.cls-17{stroke:#262262;stroke-width:0.5px;}.cls-18{fill:#fff200;}.cls-19{fill:#d1d3d4;}.cls-21{stroke:url(#White_Black);}.cls-22{stroke:url(#White_Black-2);}.cls-24{fill:#fde79e;}.cls-25{fill:#fbeac8;}.cls-26{fill:#e5e1c5;}.cls-27{fill:#f9c9de;}.cls-28{fill:#8d536f;}.cls-29{fill:#e3e2db;}.cls-30{fill:#d0cca8;}.cls-31{fill:url(#White_Black-3);}.cls-32{fill:#2e3192;stroke:#00aeef;}.cls-33{fill:#cfcdb4;}</style><linearGradient id="White_Black" x1="265.16" y1="115.37" x2="288.88" y2="115.37" gradientTransform="matrix(1, 0, 0, -1, -30.55, 230.75)" gradientUnits="userSpaceOnUse"><stop offset="0" stop-color="#fff"/><stop offset="1" stop-color="#231f20"/></linearGradient><linearGradient id="White_Black-2" x1="235.57" y1="115.37" x2="259.28" y2="115.37" gradientTransform="matrix(1, 0, 0, -1, 28.63, 230.75)" xlink:href="#White_Black"/><linearGradient id="White_Black-3" x1="264.45" y1="114.47" x2="258.12" y2="114.47" gradientTransform="matrix(1, 0, 0, 1, 0, 0)" xlink:href="#White_Black"/></defs><title>6</title><polyline class="cls-1" points="140.06 334.96 133.45 400.24 126.02 399.87 125.27 334.22"/><polyline class="cls-1" points="93.96 334.96 100.56 400.24 108 399.87 108.75 334.22"/><path class="cls-2" d="M230.77,475.18s-20.25,10.71-7.52,12.21l12.73,1.5h16.19s6.73-4.74,6.73-11.59" transform="translate(-142.69 -70.99)"/><path class="cls-2" d="M286.2,475.18s20.24,10.71,7.52,12.21L281,488.89H264.8s-5.9-4.74-5.9-11.59" transform="translate(-142.69 -70.99)"/><path class="cls-3" d="M244.2,470.46s-33.1,10.7-20.38,12.2l12.73,1.49h16.19s6.16,0,6.16-6.85l-7.23-6.23h-.53" transform="translate(-142.69 -70.99)"/><path class="cls-3" d="M266.6,470.13l-7.39,7.17c0,6.85,6.16,6.85,6.16,6.85h16.19l12.73-1.49c12.73-1.5-18.15-12.21-18.15-12.21" transform="translate(-142.69 -70.99)"/><path class="cls-4" d="M259.31,477" transform="translate(-142.69 -70.99)"/><path class="cls-5" d="M270.57,414.52v2.22a3.22,3.22,0,0,1,0,.62,3.21,3.21,0,0,0,0-.62v-2.22a2.57,2.57,0,0,1,0-.62,2.57,2.57,0,0,0,0,.62Z" transform="translate(-142.69 -70.99)"/><path class="cls-5" d="M275.4,418.15v1.21a3.22,3.22,0,0,1,0,.62,3.2,3.2,0,0,0,0-.62v-1.21a3.22,3.22,0,0,1,0-.62,3.2,3.2,0,0,0,0,.62Z" transform="translate(-142.69 -70.99)"/><path class="cls-5" d="M277,422v1.21a2.57,2.57,0,0,1,0,.62,2.57,2.57,0,0,0,0-.62V422a3.33,3.33,0,0,1,0-.63,3.32,3.32,0,0,0,0,.63Z" transform="translate(-142.69 -70.99)"/><path class="cls-5" d="M280,421.78v.2a3.22,3.22,0,0,1,0,.62,3.21,3.21,0,0,0,0-.62v-.2a2.66,2.66,0,0,1,0-.63,2.66,2.66,0,0,0,0,.63Z" transform="translate(-142.69 -70.99)"/><path class="cls-5" d="M274,429.86s0-1.25,0-1.25,0,1.25,0,1.25Z" transform="translate(-142.69 -70.99)"/><path class="cls-5" d="M271.38,422v1.41a3.21,3.21,0,0,1,0,.62,3.21,3.21,0,0,0,0-.62V422a3.33,3.33,0,0,1,0-.63,3.32,3.32,0,0,0,0,.63Z" transform="translate(-142.69 -70.99)"/><path class="cls-5" d="M271.58,431v1.62a2.57,2.57,0,0,1,0,.62,2.57,2.57,0,0,0,0-.62V431a3.21,3.21,0,0,1,0-.62,3.21,3.21,0,0,0,0,.62Z" transform="translate(-142.69 -70.99)"/><path class="cls-5" d="M277.82,434.07v.6a3.33,3.33,0,0,1,0,.63,3.32,3.32,0,0,0,0-.63v-.6a3.33,3.33,0,0,1,0-.63,3.32,3.32,0,0,0,0,.63Z" transform="translate(-142.69 -70.99)"/><path class="cls-5" d="M275.81,436.28v1.62a2.57,2.57,0,0,1,0,.62,2.57,2.57,0,0,0,0-.62v-1.62a3.21,3.21,0,0,1,0-.62,3.21,3.21,0,0,0,0,.62Z" transform="translate(-142.69 -70.99)"/><path class="cls-5" d="M273.19,437.29v1a2.57,2.57,0,0,1,0,.62,2.57,2.57,0,0,0,0-.62v-1a3.22,3.22,0,0,1,0-.62,3.21,3.21,0,0,0,0,.62Z" transform="translate(-142.69 -70.99)"/><path class="cls-5" d="M271.17,437.49v.2a3.33,3.33,0,0,1,0,.63,3.32,3.32,0,0,0,0-.63v-.2a3.22,3.22,0,0,1,0-.62,3.21,3.21,0,0,0,0,.62Z" transform="translate(-142.69 -70.99)"/><path class="cls-5" d="M270.77,441.72v1a3.32,3.32,0,0,1,0,.63,3.31,3.31,0,0,0,0-.63v-1a2.57,2.57,0,0,1,0-.62,2.57,2.57,0,0,0,0,.62Z" transform="translate(-142.69 -70.99)"/><path class="cls-5" d="M276.82,443.34v.6a3.21,3.21,0,0,1,0,.62,3.2,3.2,0,0,0,0-.62v-.6a3.33,3.33,0,0,1,0-.63,3.32,3.32,0,0,0,0,.63Z" transform="translate(-142.69 -70.99)"/><path class="cls-5" d="M274.8,446v.21a3.21,3.21,0,0,1,0,.62,3.21,3.21,0,0,0,0-.62V446a2.57,2.57,0,0,1,0-.62,2.57,2.57,0,0,0,0,.62Z" transform="translate(-142.69 -70.99)"/><path class="cls-5" d="M272,449v1.21a3.21,3.21,0,0,1,0,.62,3.21,3.21,0,0,0,0-.62V449a2.66,2.66,0,0,1,0-.63,2.66,2.66,0,0,0,0,.63Z" transform="translate(-142.69 -70.99)"/><path class="cls-5" d="M276,451.6v.2a3.22,3.22,0,0,1,0,.62,3.21,3.21,0,0,0,0-.62v-.2a2.66,2.66,0,0,1,0-.63,2.66,2.66,0,0,0,0,.63Z" transform="translate(-142.69 -70.99)"/><path class="cls-5" d="M272.59,454.24s0-1.25,0-1.25,0,1.25,0,1.25Z" transform="translate(-142.69 -70.99)"/><path class="cls-5" d="M279.64,412.71v.81a3.21,3.21,0,0,1,0,.62,2.57,2.57,0,0,0,0-.62v-.81a3.22,3.22,0,0,1,0-.62,3.21,3.21,0,0,0,0,.62Z" transform="translate(-142.69 -70.99)"/><path class="cls-5" d="M272,411.1s0-1.25,0-1.25,0,1.25,0,1.25Z" transform="translate(-142.69 -70.99)"/><path class="cls-5" d="M276,409.9v-1.25s0,1.25,0,1.25Z" transform="translate(-142.69 -70.99)"/><path class="cls-5" d="M275.61,410.7v.6a3.21,3.21,0,0,1,0,.62,2.56,2.56,0,0,0,0-.62v-.6a3.33,3.33,0,0,1,0-.63,3.32,3.32,0,0,0,0,.63Z" transform="translate(-142.69 -70.99)"/><path class="cls-5" d="M280.64,408.88v1a3.22,3.22,0,0,1,0,.62,3.2,3.2,0,0,0,0-.62v-1a3.22,3.22,0,0,1,0-.62,3.21,3.21,0,0,0,0,.62Z" transform="translate(-142.69 -70.99)"/><path class="cls-5" d="M244.38,409.27v.4a3.31,3.31,0,0,1,0,.63,2.66,2.66,0,0,0,0-.63v-.4a3.22,3.22,0,0,1,0-.62,3.21,3.21,0,0,0,0,.62Z" transform="translate(-142.69 -70.99)"/><path class="cls-5" d="M248.82,409.31v-1.25s0,1.25,0,1.25Z" transform="translate(-142.69 -70.99)"/><path class="cls-6" d="M281.56,414a2,2,0,0,0,.64,2.18" transform="translate(-142.69 -70.99)"/><path class="cls-6" d="M281.53,411.07a2,2,0,0,1,.7,1.62" transform="translate(-142.69 -70.99)"/><path class="cls-6" d="M277,411.75a1.07,1.07,0,0,1-.55,1.22" transform="translate(-142.69 -70.99)"/><path class="cls-6" d="M271.39,411.94v1.5" transform="translate(-142.69 -70.99)"/><path class="cls-6" d="M268.77,411.19a2.15,2.15,0,0,1-.82,1.44" transform="translate(-142.69 -70.99)"/><path class="cls-6" d="M267.94,409.13a2.32,2.32,0,0,1-.5,1.48" transform="translate(-142.69 -70.99)"/><path class="cls-6" d="M268.58,414.84a3.35,3.35,0,0,0-.86,1.78" transform="translate(-142.69 -70.99)"/><path class="cls-6" d="M269.44,420a2.06,2.06,0,0,1-.49,1.12" transform="translate(-142.69 -70.99)"/><path class="cls-6" d="M272.49,416.26a1.31,1.31,0,0,1-.23,1.23" transform="translate(-142.69 -70.99)"/><path class="cls-6" d="M275.91,415.75a6.64,6.64,0,0,1,1.1.88" transform="translate(-142.69 -70.99)"/><path class="cls-6" d="M278.6,420.28l.48.65" transform="translate(-142.69 -70.99)"/><path class="cls-6" d="M274.48,420v.93" transform="translate(-142.69 -70.99)"/><path class="cls-6" d="M280.6,422.7a1.34,1.34,0,0,1,.24,1.13" transform="translate(-142.69 -70.99)"/><path class="cls-6" d="M279.72,426.09l.86,1.3" transform="translate(-142.69 -70.99)"/><path class="cls-6" d="M273,424.86a2.8,2.8,0,0,1-.91,1.34" transform="translate(-142.69 -70.99)"/><path class="cls-6" d="M269.52,425a1.92,1.92,0,0,1-1,1.71" transform="translate(-142.69 -70.99)"/><path class="cls-6" d="M269.24,431.15a1.72,1.72,0,0,1-.38,1.11" transform="translate(-142.69 -70.99)"/><path class="cls-6" d="M274.86,429.46v1" transform="translate(-142.69 -70.99)"/><path class="cls-6" d="M276.45,429.28a1,1,0,0,1,.75.46" transform="translate(-142.69 -70.99)"/><path class="cls-6" d="M280.1,430.78l.84.47" transform="translate(-142.69 -70.99)"/><path class="cls-6" d="M279.48,432.75a2.32,2.32,0,0,0,.61,2.25" transform="translate(-142.69 -70.99)"/><path class="cls-6" d="M268.61,434.85a2.07,2.07,0,0,1-1.06.27" transform="translate(-142.69 -70.99)"/><path class="cls-5" d="M248.69,415.35v2.21a3.33,3.33,0,0,1,0,.63,3.32,3.32,0,0,0,0-.63v-2.21a3.33,3.33,0,0,1,0-.63,3.32,3.32,0,0,0,0,.63Z" transform="translate(-142.69 -70.99)"/><path class="cls-5" d="M243.86,419v1.21a2.66,2.66,0,0,1,0,.63,2.66,2.66,0,0,0,0-.63V419a3.21,3.21,0,0,1,0-.62,3.21,3.21,0,0,0,0,.62Z" transform="translate(-142.69 -70.99)"/><path class="cls-5" d="M242.25,422.8V424a2.66,2.66,0,0,1,0,.63,2.66,2.66,0,0,0,0-.63V422.8a3.21,3.21,0,0,1,0-.62,3.21,3.21,0,0,0,0,.62Z" transform="translate(-142.69 -70.99)"/><path class="cls-5" d="M239.22,422.6v.2a3.33,3.33,0,0,1,0,.63,3.32,3.32,0,0,0,0-.63v-.2a3.22,3.22,0,0,1,0-.62,3.21,3.21,0,0,0,0,.62Z" transform="translate(-142.69 -70.99)"/><path class="cls-5" d="M245.28,430.68v-1.25s0,1.25,0,1.25Z" transform="translate(-142.69 -70.99)"/><path class="cls-5" d="M247.89,422.8v1.41a2.66,2.66,0,0,1,0,.63,2.66,2.66,0,0,0,0-.63V422.8a3.21,3.21,0,0,1,0-.62,3.21,3.21,0,0,0,0,.62Z" transform="translate(-142.69 -70.99)"/><path class="cls-5" d="M247.69,431.87v1.61a2.66,2.66,0,0,1,0,.63,2.66,2.66,0,0,0,0-.63v-1.61a3.32,3.32,0,0,1,0-.63,3.31,3.31,0,0,0,0,.63Z" transform="translate(-142.69 -70.99)"/><path class="cls-5" d="M241.44,434.89v.61a3.21,3.21,0,0,1,0,.62,3.21,3.21,0,0,0,0-.62v-.61a2.57,2.57,0,0,1,0-.62,2.57,2.57,0,0,0,0,.62Z" transform="translate(-142.69 -70.99)"/><path class="cls-5" d="M243.46,437.11v1.61a3.21,3.21,0,0,1,0,.62,2.56,2.56,0,0,0,0-.62v-1.61a3.33,3.33,0,0,1,0-.63,3.32,3.32,0,0,0,0,.63Z" transform="translate(-142.69 -70.99)"/><path class="cls-5" d="M246.07,438.12v1a3.33,3.33,0,0,1,0,.63,3.32,3.32,0,0,0,0-.63v-1a3.33,3.33,0,0,1,0-.63,3.32,3.32,0,0,0,0,.63Z" transform="translate(-142.69 -70.99)"/><path class="cls-5" d="M248.09,438.32v.2a3.22,3.22,0,0,1,0,.62,3.21,3.21,0,0,0,0-.62v-.2a2.66,2.66,0,0,1,0-.63,2.66,2.66,0,0,0,0,.63Z" transform="translate(-142.69 -70.99)"/><path class="cls-5" d="M248.49,442.55v1a3.21,3.21,0,0,1,0,.62,3.21,3.21,0,0,0,0-.62v-1a3.33,3.33,0,0,1,0-.63,3.32,3.32,0,0,0,0,.63Z" transform="translate(-142.69 -70.99)"/><path class="cls-5" d="M242.45,444.16v.6a2.66,2.66,0,0,1,0,.63,2.66,2.66,0,0,0,0-.63v-.6a3.32,3.32,0,0,1,0-.63,3.32,3.32,0,0,0,0,.63Z" transform="translate(-142.69 -70.99)"/><path class="cls-5" d="M244.46,446.78v.2a3.32,3.32,0,0,1,0,.63,3.32,3.32,0,0,0,0-.63v-.2a3.32,3.32,0,0,1,0-.63,3.32,3.32,0,0,0,0,.63Z" transform="translate(-142.69 -70.99)"/><path class="cls-5" d="M247.28,449.8V451a3.32,3.32,0,0,1,0,.63,3.32,3.32,0,0,0,0-.63V449.8a3.22,3.22,0,0,1,0-.62,3.21,3.21,0,0,0,0,.62Z" transform="translate(-142.69 -70.99)"/><path class="cls-5" d="M243.25,452.42v.2a3.33,3.33,0,0,1,0,.63,3.32,3.32,0,0,0,0-.63v-.2a3.22,3.22,0,0,1,0-.62,3.2,3.2,0,0,0,0,.62Z" transform="translate(-142.69 -70.99)"/><path class="cls-5" d="M246.69,455.06s0-1.25,0-1.25,0,1.25,0,1.25Z" transform="translate(-142.69 -70.99)"/><path class="cls-5" d="M239.63,413.53v.81a2.66,2.66,0,0,1,0,.63,2.66,2.66,0,0,0,0-.63v-.81a3.21,3.21,0,0,1,0-.62,3.21,3.21,0,0,0,0,.62Z" transform="translate(-142.69 -70.99)"/><path class="cls-5" d="M247.29,409.93s0-1.25,0-1.25,0,1.25,0,1.25Z" transform="translate(-142.69 -70.99)"/><path class="cls-5" d="M243.26,410.72s0-1.25,0-1.25,0,1.25,0,1.25Z" transform="translate(-142.69 -70.99)"/><path class="cls-5" d="M243.66,411.52v.6a2.66,2.66,0,0,1,0,.63,2.66,2.66,0,0,0,0-.63v-.6a3.32,3.32,0,0,1,0-.63,3.32,3.32,0,0,0,0,.63Z" transform="translate(-142.69 -70.99)"/><path class="cls-5" d="M238.62,409.71v1a3.33,3.33,0,0,1,0,.63,3.31,3.31,0,0,0,0-.63v-1a2.66,2.66,0,0,1,0-.63,2.66,2.66,0,0,0,0,.63Z" transform="translate(-142.69 -70.99)"/><path class="cls-6" d="M237.72,414.84a2,2,0,0,1-.64,2.19" transform="translate(-142.69 -70.99)"/><path class="cls-6" d="M237.74,411.89a2,2,0,0,0-.7,1.62" transform="translate(-142.69 -70.99)"/><path class="cls-6" d="M242.28,412.58a1.07,1.07,0,0,0,.54,1.22" transform="translate(-142.69 -70.99)"/><path class="cls-6" d="M247.88,412.76v1.5" transform="translate(-142.69 -70.99)"/><path class="cls-6" d="M250.5,412a2.14,2.14,0,0,0,.82,1.44" transform="translate(-142.69 -70.99)"/><path class="cls-6" d="M251.34,410a2.3,2.3,0,0,0,.49,1.49" transform="translate(-142.69 -70.99)"/><path class="cls-6" d="M250.7,415.66a3.26,3.26,0,0,1,.85,1.78" transform="translate(-142.69 -70.99)"/><path class="cls-6" d="M249.84,420.82a2,2,0,0,0,.49,1.12" transform="translate(-142.69 -70.99)"/><path class="cls-6" d="M246.78,417.08a1.33,1.33,0,0,0,.24,1.23" transform="translate(-142.69 -70.99)"/><path class="cls-6" d="M243.37,416.57a6.74,6.74,0,0,0-1.1.88" transform="translate(-142.69 -70.99)"/><path class="cls-6" d="M240.68,421.11l-.48.64" transform="translate(-142.69 -70.99)"/><path class="cls-6" d="M244.79,420.82v.94" transform="translate(-142.69 -70.99)"/><path class="cls-6" d="M238.68,423.52a1.37,1.37,0,0,0-.25,1.14" transform="translate(-142.69 -70.99)"/><path class="cls-6" d="M239.55,426.91l-.85,1.31" transform="translate(-142.69 -70.99)"/><path class="cls-6" d="M246.3,425.69a2.87,2.87,0,0,0,.91,1.33" transform="translate(-142.69 -70.99)"/><path class="cls-6" d="M249.75,425.79a1.92,1.92,0,0,0,1,1.71" transform="translate(-142.69 -70.99)"/><path class="cls-6" d="M250,432a1.7,1.7,0,0,0,.39,1.12" transform="translate(-142.69 -70.99)"/><path class="cls-6" d="M244.42,430.28v1" transform="translate(-142.69 -70.99)"/><path class="cls-6" d="M242.83,430.1a1.06,1.06,0,0,0-.76.46" transform="translate(-142.69 -70.99)"/><path class="cls-6" d="M239.18,431.61l-.85.46" transform="translate(-142.69 -70.99)"/><path class="cls-6" d="M239.79,433.57a2.33,2.33,0,0,1-.6,2.26" transform="translate(-142.69 -70.99)"/><path class="cls-6" d="M250.67,435.67a2,2,0,0,0,1.05.27" transform="translate(-142.69 -70.99)"/><polygon class="cls-7" points="87.82 336.55 148.93 336.55 165.79 271.16 70.96 271.16 87.82 336.55"/><line class="cls-8" x1="117.88" y1="283.69" x2="117.88" y2="336.55"/><path class="cls-9" d="M222.77,354l13.13,53.16h-5.72l-15.43-61S221.14,352.69,222.77,354Z" transform="translate(-142.69 -70.99)"/><path class="cls-9" d="M287.42,379.87l4.12,3.08,7.76-5.21L302,376l-1.37-3.24s-8.69,7.63-13.18,7.16l-2,15.94s8.32-.17,10.46-4.74l3.3-12.8" transform="translate(-142.69 -70.99)"/><path class="cls-10" d="M287.42,379.87l4.16,3h-.08c3.44-2.39,6.91-4.73,10.38-7.08l-.06.19-1.38-3.23.27.06a51.79,51.79,0,0,1-6.13,4.59,25,25,0,0,1-3.38,1.83,8.1,8.1,0,0,1-3.81.85l.27-.21c-.65,5.31-1.38,10.62-2.06,15.93l-.2-.21a22.56,22.56,0,0,0,3-.33,16.59,16.59,0,0,0,2.87-.75,9.83,9.83,0,0,0,2.62-1.34,6.17,6.17,0,0,0,1.9-2.19v0c1.1-4.27,2.3-8.52,3.44-12.77-1.06,4.28-2.07,8.57-3.17,12.84h0a6.5,6.5,0,0,1-2,2.32,10.6,10.6,0,0,1-2.69,1.4,16.26,16.26,0,0,1-2.91.79,20.27,20.27,0,0,1-3,.36h-.22l0-.23c.65-5.31,1.27-10.63,2-15.94l0-.23.23,0a7.7,7.7,0,0,0,3.58-.78,25.53,25.53,0,0,0,3.35-1.77,52.61,52.61,0,0,0,6.12-4.5l.18-.16.09.22,1.35,3.25.06.12-.11.07c-3.49,2.32-7,4.65-10.49,6.92l0,0,0,0Z" transform="translate(-142.69 -70.99)"/><path class="cls-9" d="M234.84,379.87,230.73,383,223,377.74,220.29,376l1.37-3.24s8.69,7.63,13.18,7.16l2,15.94s-8.32-.17-10.46-4.74l-3.3-12.8" transform="translate(-142.69 -70.99)"/><path class="cls-10" d="M234.84,379.87,230.76,383l0,0,0,0c-3.51-2.27-7-4.6-10.48-6.92l-.11-.07.05-.12,1.35-3.25.09-.22.19.16a51.77,51.77,0,0,0,6.12,4.5,25.41,25.41,0,0,0,3.34,1.77,7.7,7.7,0,0,0,3.58.78l.23,0,0,.23c.69,5.31,1.31,10.63,2,15.94l0,.23h-.23a20.14,20.14,0,0,1-3-.36,16.59,16.59,0,0,1-2.92-.79,10.6,10.6,0,0,1-2.69-1.4,6.6,6.6,0,0,1-2-2.32h0c-1.1-4.27-2.11-8.56-3.16-12.84,1.14,4.25,2.33,8.5,3.43,12.77v0a6.26,6.26,0,0,0,1.9,2.19,10,10,0,0,0,2.62,1.34,16.83,16.83,0,0,0,2.87.75,22.76,22.76,0,0,0,3,.33l-.19.21c-.69-5.31-1.41-10.62-2.06-15.93l.26.21a8.12,8.12,0,0,1-3.81-.85,25.64,25.64,0,0,1-3.38-1.83,51.79,51.79,0,0,1-6.13-4.59l.27-.06L220.44,376l-.06-.19c3.47,2.35,6.94,4.69,10.38,7.08h-.07Z" transform="translate(-142.69 -70.99)"/><path class="cls-9" d="M261.06,369.14a52.19,52.19,0,0,0,7.2-.5l-.86,38.89h-6.34Z" transform="translate(-142.69 -70.99)"/><path class="cls-11" d="M304.07,162.27s121,18.87,53.28,172.89l-18-10.32" transform="translate(-142.69 -70.99)"/><path class="cls-12" d="M216.56,162.27s-121,18.87-53.28,172.89l18-10.32" transform="translate(-142.69 -70.99)"/><ellipse class="cls-13" cx="118.05" cy="196.11" rx="90.18" ry="119.77"/><path class="cls-14" d="M210.58,348.17" transform="translate(-142.69 -70.99)"/><path class="cls-15" d="M166.05,333.79s5.58,11,21.3,7.38l1.46-.94.31-.35s-7.44-13.62-7.74-15.87" transform="translate(-142.69 -70.99)"/><path class="cls-15" d="M355.7,335s-5.58,11-21.3,7.39l-1.46-1-.31-.35s7.44-13.61,7.74-15.86" transform="translate(-142.69 -70.99)"/><polyline class="cls-16" points="118.58 314.48 118.58 111.31 131.58 124.35 156.38 97.98"/><path class="cls-17" d="M200.26,225.66s-9.64,22.64-5.55,32.46l11,7.17L219,260.38l6.13-32.46" transform="translate(-142.69 -70.99)"/><polyline class="cls-16" points="116.74 314.48 116.74 111.31 103.74 124.35 78.95 97.98"/><path class="cls-18" d="M216.71,192.48a1.18,1.18,0,0,1,.07-.2,3.23,3.23,0,0,1,.74-1.2,3.09,3.09,0,0,1,2.29-1,3,3,0,0,1,1.39.36s.05,0,.07,0c.64-1,1.29-2.07,1.94-3.11a1,1,0,0,1,.93-.49l.12,0,1.08.27h0l-.16.66-.05,0-1-.25a.35.35,0,0,0-.42.18l-.58.92,0,0h.05l5.18,1.3s0,0,.07,0l.39-.5s0,0,0,0l-.05,0-.88-.22a.32.32,0,0,1-.25-.28.33.33,0,0,1,.41-.38l2.35.59h0l-.15.66h0l-.7-.17a0,0,0,0,0-.06,0l-.63.82a.11.11,0,0,0,0,0l.42,2.08v0l.31,0a3.07,3.07,0,0,1,1.08.19,3.2,3.2,0,0,1,1.74,1.52,3.45,3.45,0,0,1-1.23,4.55,2.94,2.94,0,0,1-1.8.42l-.3,0h0l-.34-.09,0,0a4.4,4.4,0,0,1-.5-.21,3.2,3.2,0,0,1-1.43-1.54,3.23,3.23,0,0,1-.3-1.73c0-.06,0-.13,0-.19h0l-1.3-.33a.41.41,0,0,1-.27-.21l-.39-.78c-.34-.69-.69-1.37-1-2l-.9-1.8-.17-.33-.58.92h0l0,0A3.37,3.37,0,0,1,223,193.8a3.36,3.36,0,0,1-2.19,2.83,3,3,0,0,1-1.35.14l-.21,0-.35-.09,0,0-.46-.19a3.38,3.38,0,0,1-1.76-3.37,1.79,1.79,0,0,1,0-.23Zm4.7-1,0,0-1,1.55c-.11.19-.23.37-.35.56a.31.31,0,0,1-.43.12.34.34,0,0,1-.09-.5c.43-.7.87-1.4,1.31-2.1l0,0a2.47,2.47,0,0,0-3.27,1,2.72,2.72,0,0,0,.81,3.6,2.46,2.46,0,0,0,3.47-.75A2.71,2.71,0,0,0,221.41,191.43Zm5.73,4.16a2.68,2.68,0,0,0,1.31,2.66,2.47,2.47,0,0,0,3.09-.56,2.78,2.78,0,0,0,.23-3.25,2.49,2.49,0,0,0-2.31-1.16c0,.16.07.32.1.47.14.68.27,1.36.41,2a.3.3,0,0,1,0,.21.33.33,0,0,1-.39.2l-2.38-.6Zm-4.38-6.31,2.46,4.86,2.74-3.57Zm5.93,3.44-.33-1.59-2.62,3.4.9.23A3.3,3.3,0,0,1,228.69,192.72Zm-1.39,2.2,1.93.48-.4-2A2.61,2.61,0,0,0,227.3,194.92Z" transform="translate(-142.69 -70.99)"/><path class="cls-18" d="M222,216.05l0-.21a3.3,3.3,0,0,1,2.46-2.85,3,3,0,0,1,1.44,0s0,0,.06,0c.4-1.16.79-2.33,1.2-3.49a1,1,0,0,1,.79-.7l.12,0h1.14v.68h-1.09a.34.34,0,0,0-.36.27l-.36,1s0,0,0,0h5.39s0,0,.06,0l.27-.59,0,0h-1a.34.34,0,0,1-.3-.21.35.35,0,0,1,.08-.38.33.33,0,0,1,.23-.09h2.47v.68h-.77s0,0-.06,0l-.42.94a.15.15,0,0,0,0,.06l.87,1.92,0,0,.29-.09a3.1,3.1,0,0,1,1.09-.08,3.29,3.29,0,0,1,2.82,2.7,3.34,3.34,0,0,1-1,3.08,3,3,0,0,1-1.66.85l-.29,0h-.44a4.51,4.51,0,0,1-.53-.08,3.15,3.15,0,0,1-1.74-1.15,3.36,3.36,0,0,1-.68-1.61c0-.07,0-.13,0-.19h-.05c-.45,0-.9,0-1.34,0a.37.37,0,0,1-.31-.15l-.55-.66L228.43,214l-1.28-1.53-.24-.28-.36,1h0l0,0a3.4,3.4,0,0,1,1.7,3.75,3.23,3.23,0,0,1-1.45,2.1,2.92,2.92,0,0,1-1.27.47l-.21,0H225a3.85,3.85,0,0,1-.49-.07,3.32,3.32,0,0,1-2.47-2.85l0-.22Zm4.34-2.16s0,0,0,.05l-.6,1.74c-.07.21-.14.42-.22.63a.31.31,0,0,1-.39.21.33.33,0,0,1-.2-.45l.81-2.37v0a2.51,2.51,0,0,0-2.95,1.79,2.66,2.66,0,0,0,1.58,3.3,2.5,2.5,0,0,0,3.21-1.57A2.68,2.68,0,0,0,226.32,213.89Zm6.5,2.66a2.59,2.59,0,0,0,1.87,2.26,2.48,2.48,0,0,0,2.88-1.3,2.74,2.74,0,0,0-.5-3.2,2.43,2.43,0,0,0-2.5-.58l.2.44c.28.63.57,1.25.85,1.88a.3.3,0,0,1,0,.21.33.33,0,0,1-.33.29h-2.5Zm-5.66-5.08,3.47,4.13,1.88-4.13Zm6.53,1.91L233,211.9l-1.79,4h.92A3.41,3.41,0,0,1,233.69,213.38Zm-.86,2.47h2L234,214A2.66,2.66,0,0,0,232.83,215.85Z" transform="translate(-142.69 -70.99)"/><path class="cls-18" d="M231.53,239.67a1.8,1.8,0,0,0,0-.22,3.34,3.34,0,0,1,.46-1.35,3.14,3.14,0,0,1,2-1.5,2.89,2.89,0,0,1,1.43,0s.05,0,.06,0l1.2-3.49a1,1,0,0,1,.79-.7h1.26V233h-1.08a.35.35,0,0,0-.37.27l-.36,1a.11.11,0,0,1,0,.05h5.38a.05.05,0,0,0,.06,0l.27-.59s0,0,0-.05h-.95a.3.3,0,0,1-.3-.21.35.35,0,0,1,.08-.38.32.32,0,0,1,.23-.09h2.46v.68h-.76a.05.05,0,0,0-.06,0l-.43.94a.06.06,0,0,0,0,.06l.87,1.92v0c.1,0,.2-.07.3-.09a2.87,2.87,0,0,1,1.09-.09,3.11,3.11,0,0,1,2,1.07,3.24,3.24,0,0,1,.79,1.63,3.35,3.35,0,0,1-1,3.08,3,3,0,0,1-1.66.85l-.29,0h-.44c-.17,0-.35,0-.52-.09A3.08,3.08,0,0,1,242.4,242a3.26,3.26,0,0,1-.68-1.61l0-.19H240.3a.37.37,0,0,1-.3-.15l-.56-.66L238,237.61l-1.29-1.53-.23-.28-.36,1h0l0,0a3.27,3.27,0,0,1,1.75,2.56,3.12,3.12,0,0,1-.05,1.18,3.27,3.27,0,0,1-1.45,2.1,3,3,0,0,1-1.28.47l-.2,0h-.41c-.16,0-.33,0-.49-.08a3.15,3.15,0,0,1-2.06-1.58,3.51,3.51,0,0,1-.41-1.27,1.64,1.64,0,0,0,0-.22Zm4.34-2.17,0,.05-.6,1.74-.21.63a.32.32,0,0,1-.39.22.34.34,0,0,1-.21-.46l.81-2.36,0,0a2.52,2.52,0,0,0-3,1.79,2.67,2.67,0,0,0,1.58,3.3,2.49,2.49,0,0,0,3.21-1.57A2.68,2.68,0,0,0,235.87,237.5Zm6.49,2.66a2.6,2.6,0,0,0,1.88,2.26,2.47,2.47,0,0,0,2.87-1.3,2.73,2.73,0,0,0-.5-3.2,2.43,2.43,0,0,0-2.49-.58c.06.15.13.3.19.44l.86,1.88a.39.39,0,0,1,0,.21.33.33,0,0,1-.34.29h-2.5Zm-5.65-5.08,3.47,4.13,1.87-4.13Zm6.53,1.91-.67-1.47-1.79,3.95h.92A3.38,3.38,0,0,1,243.24,237Zm-.87,2.48h2l-.84-1.85A2.68,2.68,0,0,0,242.37,239.47Z" transform="translate(-142.69 -70.99)"/><path class="cls-18" d="M235.09,269l0-.22a3.32,3.32,0,0,1,2.46-2.85,2.88,2.88,0,0,1,1.43,0s.05,0,.06,0l1.2-3.5a1,1,0,0,1,.8-.7h1.26v.68h-1.09a.34.34,0,0,0-.37.26c-.12.35-.23.7-.35,1l0,0h5.38a.07.07,0,0,0,.07,0c.08-.19.17-.39.26-.58l0-.06h-.06c-.3,0-.6,0-.9,0a.31.31,0,0,1-.3-.21.36.36,0,0,1,.08-.38.32.32,0,0,1,.23-.09h2.46V263h0c-.24,0-.48,0-.72,0a.05.05,0,0,0-.06,0c-.14.32-.29.63-.43.95,0,0,0,0,0,.06l.87,1.91v0l.3-.09a2.86,2.86,0,0,1,1.09-.08,3.1,3.1,0,0,1,2,1.06,3.28,3.28,0,0,1,.79,1.63,3.38,3.38,0,0,1-1,3.09,3,3,0,0,1-1.66.84l-.3,0h-.44a4.71,4.71,0,0,1-.52-.09,3,3,0,0,1-1.74-1.15,3.36,3.36,0,0,1-.68-1.61,1.11,1.11,0,0,1,0-.19h-1.39a.37.37,0,0,1-.31-.14l-.56-.66c-.48-.59-1-1.17-1.46-1.75l-1.28-1.53-.24-.28-.36,1h0l0,0a3.32,3.32,0,0,1,1.76,2.57,3.35,3.35,0,0,1-.06,1.18A3.32,3.32,0,0,1,240,272a3.09,3.09,0,0,1-1.27.46l-.21,0h-.41c-.16,0-.33,0-.49-.08a3.18,3.18,0,0,1-2.06-1.58,3.27,3.27,0,0,1-.4-1.26l0-.23Zm4.34-2.17s0,0,0,.05c-.2.58-.4,1.16-.59,1.75-.08.21-.15.41-.22.62a.31.31,0,0,1-.39.22A.34.34,0,0,1,238,269l.81-2.36,0-.05a2.53,2.53,0,0,0-3,1.8,2.69,2.69,0,0,0,1.58,3.3,2.52,2.52,0,0,0,3.22-1.57A2.7,2.7,0,0,0,239.43,266.81Zm6.5,2.66a2.61,2.61,0,0,0,1.87,2.27,2.51,2.51,0,0,0,2.88-1.3,2.74,2.74,0,0,0-.51-3.21,2.41,2.41,0,0,0-2.49-.57c.06.14.13.29.2.43.28.63.56,1.26.85,1.88a.39.39,0,0,1,0,.21.33.33,0,0,1-.34.29h-2.49Zm-5.66-5.08,3.47,4.13,1.88-4.13Zm6.53,1.91-.67-1.47-1.79,3.95h.92A3.43,3.43,0,0,1,246.8,266.3Zm-.87,2.48h2l-.84-1.85A2.71,2.71,0,0,0,245.93,268.78Z" transform="translate(-142.69 -70.99)"/><path class="cls-18" d="M235.09,299.69l0-.22a3.32,3.32,0,0,1,2.46-2.85,3,3,0,0,1,1.43,0s.05,0,.06,0l1.2-3.5a1,1,0,0,1,.8-.7h1.26v.68h-1.09a.34.34,0,0,0-.37.27c-.12.34-.23.69-.35,1l0,.05h5.38a.07.07,0,0,0,.07,0c.08-.19.17-.39.26-.58l0-.05h-1a.34.34,0,0,1-.3-.22.36.36,0,0,1,.08-.38.32.32,0,0,1,.23-.09h2.46v.69H247a.05.05,0,0,0-.06,0c-.14.32-.29.63-.43,1,0,0,0,0,0,.06l.87,1.91v0l.3-.09a3.11,3.11,0,0,1,3.12,1,3.28,3.28,0,0,1,.79,1.63,3.38,3.38,0,0,1-1,3.09,3.09,3.09,0,0,1-1.66.85l-.3,0h-.44c-.17,0-.35,0-.52-.08A3.09,3.09,0,0,1,246,302a3.36,3.36,0,0,1-.68-1.61,1.11,1.11,0,0,1,0-.19h-1.39a.37.37,0,0,1-.31-.14l-.56-.66-1.46-1.75-1.28-1.53-.24-.28-.36,1h0l0,0a3.32,3.32,0,0,1,1.76,2.57,3.35,3.35,0,0,1-.06,1.18,3.32,3.32,0,0,1-1.45,2.1,3,3,0,0,1-1.27.46l-.21,0h-.41l-.49-.07a3.22,3.22,0,0,1-2.06-1.59,3.27,3.27,0,0,1-.4-1.26l0-.23Zm4.34-2.17s0,0,0,.05c-.2.58-.4,1.17-.59,1.75-.08.21-.15.41-.22.62a.31.31,0,0,1-.39.22.34.34,0,0,1-.21-.46l.81-2.36,0,0a2.53,2.53,0,0,0-3,1.8,2.69,2.69,0,0,0,1.58,3.3,2.51,2.51,0,0,0,3.22-1.57A2.7,2.7,0,0,0,239.43,297.52Zm6.5,2.66a2.61,2.61,0,0,0,1.87,2.27,2.51,2.51,0,0,0,2.88-1.3,2.74,2.74,0,0,0-.51-3.21,2.41,2.41,0,0,0-2.49-.57l.2.44c.28.62.56,1.25.85,1.88a.34.34,0,0,1,0,.2.33.33,0,0,1-.34.29h-2.49Zm-5.66-5.08,3.47,4.13,1.88-4.13ZM246.8,297l-.67-1.47-1.79,3.95h.92A3.45,3.45,0,0,1,246.8,297Zm-.87,2.48h2l-.84-1.85A2.71,2.71,0,0,0,245.93,299.49Z" transform="translate(-142.69 -70.99)"/><path class="cls-18" d="M235.09,322.18l0-.22a3.32,3.32,0,0,1,2.46-2.85,2.88,2.88,0,0,1,1.43,0s.05,0,.06,0l1.2-3.5a1,1,0,0,1,.8-.7h1.26v.68h-1.09a.34.34,0,0,0-.37.26c-.12.35-.23.7-.35,1l0,.05h5.38a.07.07,0,0,0,.07,0c.08-.19.17-.39.26-.58l0-.06h-1a.31.31,0,0,1-.3-.21.36.36,0,0,1,.08-.38.32.32,0,0,1,.23-.09h2.46v.68H247a.05.05,0,0,0-.06,0c-.14.32-.29.63-.43,1,0,0,0,0,0,.06l.87,1.91v0l.3-.09a2.86,2.86,0,0,1,1.09-.08,3.1,3.1,0,0,1,2,1.06,3.28,3.28,0,0,1,.79,1.63,3.38,3.38,0,0,1-1,3.09,3,3,0,0,1-1.66.84l-.3,0h-.44a4.71,4.71,0,0,1-.52-.09,3,3,0,0,1-1.74-1.15,3.36,3.36,0,0,1-.68-1.61,1.11,1.11,0,0,1,0-.19h-1.39a.37.37,0,0,1-.31-.14l-.56-.66c-.48-.59-1-1.17-1.46-1.75l-1.28-1.53-.24-.28-.36,1h0l0,0a3.32,3.32,0,0,1,1.76,2.56,3.4,3.4,0,0,1-.06,1.19,3.32,3.32,0,0,1-1.45,2.1,3.09,3.09,0,0,1-1.27.46l-.21,0h-.41c-.16,0-.33,0-.49-.08a3.18,3.18,0,0,1-2.06-1.58,3.27,3.27,0,0,1-.4-1.26l0-.23Zm4.34-2.17s0,0,0,.05c-.2.58-.4,1.16-.59,1.75-.08.2-.15.41-.22.62a.31.31,0,0,1-.39.22.34.34,0,0,1-.21-.46l.81-2.36,0-.05a2.54,2.54,0,0,0-3,1.79,2.69,2.69,0,0,0,1.58,3.31,2.52,2.52,0,0,0,3.22-1.57A2.7,2.7,0,0,0,239.43,320Zm6.5,2.66a2.61,2.61,0,0,0,1.87,2.27,2.51,2.51,0,0,0,2.88-1.3,2.74,2.74,0,0,0-.51-3.21,2.41,2.41,0,0,0-2.49-.57c.06.14.13.29.2.43.28.63.56,1.26.85,1.88a.39.39,0,0,1,0,.21.33.33,0,0,1-.34.29h-2.49Zm-5.66-5.08,3.47,4.13,1.88-4.13Zm6.53,1.91-.67-1.47-1.79,4h.92A3.43,3.43,0,0,1,246.8,319.5Zm-.87,2.48h2l-.84-1.85A2.71,2.71,0,0,0,245.93,322Z" transform="translate(-142.69 -70.99)"/><path class="cls-18" d="M234.67,352a1.8,1.8,0,0,1,0-.22,3.33,3.33,0,0,1,.45-1.34,3.16,3.16,0,0,1,2-1.5,2.92,2.92,0,0,1,1.44,0s0,0,.06,0l1.2-3.5a1,1,0,0,1,.79-.7h1.26v.68h-1.09a.34.34,0,0,0-.36.27l-.36,1s0,0,0,0h5.38s0,0,.06,0l.27-.58s0,0,0-.05h-1a.33.33,0,0,1-.3-.22.34.34,0,0,1,.08-.37.31.31,0,0,1,.23-.09h2.47v.68h-.77a0,0,0,0,0-.05,0c-.15.32-.29.63-.43.95a.06.06,0,0,0,0,.06c.28.64.57,1.28.86,1.91l0,0,.29-.09a3.13,3.13,0,0,1,1.1-.08,3.09,3.09,0,0,1,2,1.06,3.16,3.16,0,0,1,.79,1.63,3.35,3.35,0,0,1-1,3.09,3,3,0,0,1-1.66.85l-.29,0h-.44c-.18,0-.36,0-.53-.08a3.2,3.2,0,0,1-1.74-1.15,3.43,3.43,0,0,1-.68-1.62,1.37,1.37,0,0,0,0-.19h-1.39a.38.38,0,0,1-.31-.14l-.55-.66L241.11,350l-1.28-1.52-.24-.29-.36,1h0l0,0a3.41,3.41,0,0,1,.26,5.85,3,3,0,0,1-1.28.46l-.21,0h-.4a3.85,3.85,0,0,1-.49-.07,3.2,3.2,0,0,1-2.06-1.59,3.28,3.28,0,0,1-.41-1.26,1.79,1.79,0,0,1,0-.23Zm4.34-2.16,0,0-.6,1.75c-.07.21-.14.42-.22.62a.31.31,0,0,1-.39.22.33.33,0,0,1-.2-.45l.81-2.37v-.05a2.52,2.52,0,0,0-3,1.8,2.67,2.67,0,0,0,1.58,3.3,2.5,2.5,0,0,0,3.21-1.57A2.68,2.68,0,0,0,239,349.86Zm6.49,2.65a2.61,2.61,0,0,0,1.87,2.27,2.49,2.49,0,0,0,2.88-1.3,2.76,2.76,0,0,0-.5-3.21,2.43,2.43,0,0,0-2.5-.57l.2.44c.28.62.57,1.25.85,1.88a.36.36,0,0,1,0,.21.34.34,0,0,1-.34.28h-2.5Zm-5.66-5.08,3.48,4.14,1.87-4.14Zm6.54,1.91-.68-1.47-1.79,3.95h.93A3.39,3.39,0,0,1,246.38,349.34Zm-.87,2.48h2l-.84-1.85A2.7,2.7,0,0,0,245.51,351.82Z" transform="translate(-142.69 -70.99)"/><path class="cls-18" d="M223.37,373.47c0-.07-.05-.14-.08-.2a3.42,3.42,0,0,1-.19-1.42,3.37,3.37,0,0,1,1.13-2.3,3,3,0,0,1,1.28-.68s0,0,0-.06c-.15-1.23-.31-2.45-.47-3.68a1.06,1.06,0,0,1,.4-1l.1-.07,1-.53,0,0,.3.6,0,0-.92.5a.35.35,0,0,0-.2.41c0,.36.09.73.14,1.09a.09.09,0,0,0,0,.05l0,0,4.74-2.56a.08.08,0,0,0,0-.07c0-.21,0-.43,0-.64v-.06l-.05,0-.8.44a.3.3,0,0,1-.36-.05.34.34,0,0,1-.09-.37.31.31,0,0,1,.16-.19l2.15-1.16,0,0,.3.6,0,0-.64.35a.05.05,0,0,0,0,.06c0,.35,0,.7,0,1a.07.07,0,0,0,0,.06l1.61,1.28,0,0,.23-.22a2.86,2.86,0,0,1,.93-.6,3.11,3.11,0,0,1,3.68,1,3.39,3.39,0,0,1,.5,3.21,3.26,3.26,0,0,1-1.1,1.55l-.25.17,0,0-.31.18h0c-.17.06-.33.13-.5.18a3,3,0,0,1-2.05-.19,3.06,3.06,0,0,1-1.31-1.11l-.11-.15-.05,0-1.18.64a.37.37,0,0,1-.34,0l-.78-.32-2.07-.84-1.81-.74-.34-.14.14,1.09h.06a3.09,3.09,0,0,1,2.68,1.43,3.28,3.28,0,0,1,.48,1.08,3.42,3.42,0,0,1-.37,2.56,3.27,3.27,0,0,1-.93,1l-.17.12-.32.17h0a4.43,4.43,0,0,1-.47.17,3,3,0,0,1-2.53-.41,3.26,3.26,0,0,1-.92-.93l-.12-.19Zm2.9-4v.05l.24,1.84c0,.22.06.44.08.66a.32.32,0,1,1-.63.07c-.11-.82-.22-1.65-.32-2.48v-.05a2.66,2.66,0,0,0-1.84,3,2.55,2.55,0,0,0,2.86,2.17,2.61,2.61,0,0,0,2.16-2.93A2.56,2.56,0,0,0,226.27,369.46Zm6.94-.76a2.46,2.46,0,0,0,2.65,1.12,2.68,2.68,0,0,0,.13-5.14,2.4,2.4,0,0,0-2.47.69c.13.09.25.19.37.29l1.59,1.26a.35.35,0,0,1,.12.17.34.34,0,0,1-.18.41l-2.16,1.18ZM226,366.91l4.9,2-.15-4.57Zm6.64-1.44-1.25-1,.15,4.37.82-.44A3.53,3.53,0,0,1,232.59,365.47Zm.32,2.62,1.77-1-1.56-1.24A2.81,2.81,0,0,0,232.91,368.09Z" transform="translate(-142.69 -70.99)"/><path class="cls-18" d="M202.19,352.45c0-.07,0-.14,0-.21a3.24,3.24,0,0,1,0-1.42,3.29,3.29,0,0,1,1.43-2.11,3,3,0,0,1,1.36-.48s.05,0,.05-.05c0-1.24,0-2.48.05-3.71a1,1,0,0,1,.53-.93l.11-.06,1.05-.37h0l.21.64,0,0-1,.35a.34.34,0,0,0-.26.37c0,.37,0,.74,0,1.11a.43.43,0,0,1,0,.05l0,0,5.05-1.8a.05.05,0,0,0,0-.06c0-.22.05-.43.08-.65v-.05h0l-.85.31a.31.31,0,0,1-.36-.1.37.37,0,0,1,0-.38.35.35,0,0,1,.19-.17l2.29-.82h.05l.21.64-.05,0-.68.24a.05.05,0,0,0,0,.06c0,.34-.08.69-.11,1,0,0,0,0,0,.05l1.41,1.52,0,0,.25-.18a2.78,2.78,0,0,1,1-.45,3,3,0,0,1,2.25.32,3.12,3.12,0,0,1,1.25,1.27,3.41,3.41,0,0,1,0,3.25,3.15,3.15,0,0,1-1.31,1.37l-.26.13,0,0-.34.12h0a5.16,5.16,0,0,1-.52.09,2.93,2.93,0,0,1-2-.5,3.24,3.24,0,0,1-1.14-1.29l-.08-.17-.05,0-1.27.45a.39.39,0,0,1-.33,0l-.73-.44-1.93-1.16-1.69-1-.31-.18v1.1h.05a3.29,3.29,0,0,1,2.77,3,3.38,3.38,0,0,1-.72,2.48,3.08,3.08,0,0,1-1.06.87l-.19.1-.34.12h0a4.74,4.74,0,0,1-.49.1,3.1,3.1,0,0,1-2.44-.8,3.17,3.17,0,0,1-.78-1.06l-.09-.21Zm3.43-3.51V349c0,.61,0,1.23,0,1.85,0,.22,0,.44,0,.67a.32.32,0,1,1-.64,0l0-2.51v-.05a2.62,2.62,0,0,0-2.24,2.7,2.54,2.54,0,1,0,2.88-2.68Zm7,.31a2.52,2.52,0,0,0,2.48,1.51,2.59,2.59,0,0,0,2.32-2.2,2.7,2.7,0,0,0-1.47-2.87,2.42,2.42,0,0,0-2.54.31l.32.34,1.39,1.49a.35.35,0,0,1,.1.19.34.34,0,0,1-.23.38l-2.31.83Zm-6.92-2.89,4.56,2.73.49-4.54Zm6.77-.4-1.1-1.17-.46,4.35.87-.32A3.49,3.49,0,0,1,212.44,346Zm-.05,2.63,1.88-.67-1.37-1.46A2.73,2.73,0,0,0,212.39,348.59Z" transform="translate(-142.69 -70.99)"/><path class="cls-18" d="M199.05,323.58c0-.07,0-.14,0-.21a3.24,3.24,0,0,1,0-1.42,3.29,3.29,0,0,1,1.43-2.11,3,3,0,0,1,1.36-.48s0,0,.05-.05c0-1.24,0-2.48,0-3.72a1.06,1.06,0,0,1,.53-.93l.11-.05,1.05-.38h0l.21.64-.05,0-1,.35a.37.37,0,0,0-.26.38c0,.37,0,.74,0,1.1v.05h0l5.05-1.81a.1.1,0,0,0,0-.06c0-.22,0-.43.07-.65v-.05h-.05l-.85.31a.31.31,0,0,1-.36-.1.37.37,0,0,1,0-.38.39.39,0,0,1,.19-.17l2.29-.82h0l.22.64-.05,0-.68.24s0,0,0,.05c0,.35-.07.7-.11,1a.11.11,0,0,0,0,.05l1.41,1.52,0,0,.25-.19a3.11,3.11,0,0,1,1-.45,3.05,3.05,0,0,1,2.25.32,3.11,3.11,0,0,1,1.26,1.28,3.42,3.42,0,0,1,0,3.24,3.15,3.15,0,0,1-1.31,1.37l-.26.13,0,0-.34.12h0c-.17,0-.35.08-.52.1a3.07,3.07,0,0,1-2-.5,3.24,3.24,0,0,1-1.14-1.29c0-.06-.05-.12-.08-.17h0l-1.27.46a.39.39,0,0,1-.33,0l-.73-.44-1.93-1.15-1.69-1-.31-.19,0,1.11h.06A3.18,3.18,0,0,1,205,321.2a3.11,3.11,0,0,1,.31,1.13,3.38,3.38,0,0,1-.71,2.48,3,3,0,0,1-1.07.88l-.19.09-.34.12h0c-.16,0-.32.08-.49.1a3.11,3.11,0,0,1-2.44-.8,3.17,3.17,0,0,1-.78-1.06l-.09-.21Zm3.43-3.52v.05c0,.62,0,1.24,0,1.86,0,.22,0,.44,0,.66a.32.32,0,0,1-.3.34.33.33,0,0,1-.34-.36l0-2.51v-.05a2.62,2.62,0,0,0-2.24,2.7,2.54,2.54,0,1,0,5.08,0A2.62,2.62,0,0,0,202.48,320.06Zm7,.31a2.49,2.49,0,0,0,2.48,1.5,2.57,2.57,0,0,0,2.31-2.2,2.67,2.67,0,0,0-1.47-2.86,2.41,2.41,0,0,0-2.54.3c.11.12.22.23.32.35.47.49.93,1,1.4,1.49a.31.31,0,0,1,.09.18.34.34,0,0,1-.23.39l-2.31.83Zm-6.93-2.88,4.57,2.72.49-4.54Zm6.77-.42-1.09-1.16-.47,4.34.88-.31A3.5,3.5,0,0,1,209.29,317.07Zm0,2.64,1.89-.68-1.37-1.46A2.77,2.77,0,0,0,209.24,319.71Z" transform="translate(-142.69 -70.99)"/><path class="cls-18" d="M177.59,307a2.07,2.07,0,0,0,0-.22,3.4,3.4,0,0,1,0-1.42,3.29,3.29,0,0,1,1.48-2.07,3,3,0,0,1,1.37-.44s.05,0,.05,0c0-1.24.09-2.48.14-3.71a1,1,0,0,1,.55-.92l.11-.05,1.06-.35h0l.19.65-.05,0-1,.32a.34.34,0,0,0-.27.37c0,.37,0,.74,0,1.1v.05h0l5.09-1.68s0,0,0-.06c0-.21.05-.42.08-.64a.43.43,0,0,0,0-.05h0l-.86.29a.31.31,0,0,1-.35-.11.35.35,0,0,1,0-.39.33.33,0,0,1,.19-.16l2.31-.76h0l.2.65h-.05l-.68.23a.06.06,0,0,0,0,.05c0,.35-.09.69-.13,1a.07.07,0,0,0,0,.06l1.38,1.55,0,0,.26-.18a3.06,3.06,0,0,1,1-.42,3,3,0,0,1,2.24.38,3.09,3.09,0,0,1,1.22,1.31,3.39,3.39,0,0,1,0,3.24,3.07,3.07,0,0,1-1.34,1.33l-.27.13,0,0-.34.11h-.05a4.67,4.67,0,0,1-.52.08,3,3,0,0,1-2-.55,3.22,3.22,0,0,1-1.1-1.32,1.42,1.42,0,0,1-.08-.18l-.05,0-1.28.42a.35.35,0,0,1-.33,0l-.72-.46-1.9-1.2L181.48,302l-.3-.2-.05,1.1h.06a3.17,3.17,0,0,1,2.41,1.89,3,3,0,0,1,.29,1.14,3.39,3.39,0,0,1-.78,2.46,3.07,3.07,0,0,1-1.08.85l-.19.09-.35.11h0a3.85,3.85,0,0,1-.49.08,3.09,3.09,0,0,1-2.42-.86,3.28,3.28,0,0,1-.75-1.08l-.09-.21Zm3.52-3.43s0,0,0,.05l-.06,1.85,0,.67a.32.32,0,1,1-.64,0l.09-2.51v-.05a2.66,2.66,0,0,0,.16,5.29,2.57,2.57,0,0,0,2.61-2.51A2.6,2.6,0,0,0,181.11,303.56Zm7,.49a2.51,2.51,0,0,0,2.43,1.57,2.57,2.57,0,0,0,2.38-2.14,2.7,2.7,0,0,0-1.41-2.9,2.4,2.4,0,0,0-2.54.24l.31.35,1.36,1.53a.38.38,0,0,1,.09.19.35.35,0,0,1-.24.38l-2.33.76ZM181.21,301l4.5,2.85.6-4.54Zm6.78-.24-1.07-1.19-.57,4.33.88-.29A3.48,3.48,0,0,1,188,300.75Zm-.11,2.64,1.89-.63-1.33-1.5A2.76,2.76,0,0,0,187.88,303.39Z" transform="translate(-142.69 -70.99)"/><path class="cls-18" d="M202.13,291a1.5,1.5,0,0,0,0-.22,3.34,3.34,0,0,1,.46-1.34,3.11,3.11,0,0,1,2-1.5,2.89,2.89,0,0,1,1.43,0s0,0,.06,0l1.2-3.5a1,1,0,0,1,.79-.7h1.26v.68h-1.08a.35.35,0,0,0-.37.27l-.36,1a.08.08,0,0,1,0,0h5.38s.05,0,.06,0l.27-.58,0-.05h-1a.31.31,0,0,1-.3-.22.34.34,0,0,1,.08-.37.28.28,0,0,1,.23-.09h2.46V285H214a.06.06,0,0,0-.06,0c-.14.32-.29.63-.43.95a.06.06,0,0,0,0,.06l.87,1.91v0l.3-.09a3.08,3.08,0,0,1,1.09-.08,3.14,3.14,0,0,1,2,1.06,3.43,3.43,0,0,1-.19,4.72,3,3,0,0,1-1.66.85l-.29,0h-.44c-.17,0-.35,0-.52-.08a3.13,3.13,0,0,1-1.74-1.15,3.34,3.34,0,0,1-.68-1.62l0-.19H210.9a.36.36,0,0,1-.3-.14l-.56-.66-1.46-1.75-1.29-1.52c-.07-.1-.15-.19-.23-.29l-.36,1h0l0,0a3.31,3.31,0,0,1,1.75,2.57,3.13,3.13,0,0,1-.05,1.18A3.29,3.29,0,0,1,207,294a3.1,3.1,0,0,1-1.28.47l-.2,0h-.41a4.13,4.13,0,0,1-.49-.07,3.22,3.22,0,0,1-2.06-1.59,3.46,3.46,0,0,1-.41-1.26,1.79,1.79,0,0,0,0-.23Zm4.34-2.16s0,0,0,0l-.6,1.75-.21.62a.31.31,0,0,1-.39.22A.33.33,0,0,1,205,291l.81-2.37,0-.05a2.53,2.53,0,0,0-3,1.8,2.68,2.68,0,0,0,1.58,3.3,2.5,2.5,0,0,0,3.21-1.57A2.67,2.67,0,0,0,206.47,288.79Zm6.49,2.65a2.62,2.62,0,0,0,1.88,2.27,2.48,2.48,0,0,0,2.87-1.3,2.74,2.74,0,0,0-.5-3.21,2.41,2.41,0,0,0-2.49-.57c.06.15.13.29.19.44.29.62.57,1.25.86,1.88a.36.36,0,0,1,0,.21.33.33,0,0,1-.34.28H213Zm-5.65-5.08,3.47,4.14,1.87-4.14Zm6.53,1.91-.67-1.47-1.79,3.95h.92A3.42,3.42,0,0,1,213.84,288.27Zm-.87,2.48h2l-.84-1.85A2.7,2.7,0,0,0,213,290.75Z" transform="translate(-142.69 -70.99)"/><path class="cls-18" d="M174.13,270.17l0-.21a3.18,3.18,0,0,1,.45-1.35,3.14,3.14,0,0,1,2-1.5,2.89,2.89,0,0,1,1.43,0s0,0,.06,0l1.2-3.49a1,1,0,0,1,.8-.71h1.25v.68h-1.08a.35.35,0,0,0-.37.27c-.12.34-.24.69-.35,1l0,0h5.38a.08.08,0,0,0,.07,0c.08-.2.17-.39.26-.59a.08.08,0,0,0,0,0h-1a.31.31,0,0,1-.3-.22.34.34,0,0,1,.08-.37.28.28,0,0,1,.23-.09h2.46v.68H186a.06.06,0,0,0-.06,0c-.14.32-.29.64-.43.95a.06.06,0,0,0,0,.06l.87,1.92v0l.3-.09a3.08,3.08,0,0,1,1.09-.08,3.14,3.14,0,0,1,2,1.06,3.32,3.32,0,0,1,.79,1.64,3.37,3.37,0,0,1-1,3.08,3,3,0,0,1-1.66.85l-.3,0h-.44a4.67,4.67,0,0,1-.52-.08,3.13,3.13,0,0,1-1.74-1.15,3.3,3.3,0,0,1-.68-1.62,1.11,1.11,0,0,1,0-.19h-1.39a.37.37,0,0,1-.31-.15l-.56-.66-1.46-1.74-1.29-1.53c-.07-.1-.15-.19-.23-.29l-.36,1h0l0,0a3.28,3.28,0,0,1,1.75,2.57,3.12,3.12,0,0,1-.05,1.18,3.27,3.27,0,0,1-1.45,2.1,3,3,0,0,1-1.28.47l-.2,0h-.41a4.13,4.13,0,0,1-.49-.07,3.18,3.18,0,0,1-2.06-1.58,3.31,3.31,0,0,1-.4-1.27l0-.23Zm4.34-2.16s0,0,0,0l-.6,1.75-.21.63a.32.32,0,0,1-.39.21.33.33,0,0,1-.21-.45l.81-2.37,0,0a2.52,2.52,0,0,0-3,1.79,2.68,2.68,0,0,0,1.58,3.3,2.51,2.51,0,0,0,3.22-1.57A2.68,2.68,0,0,0,178.47,268Zm6.49,2.65a2.61,2.61,0,0,0,1.88,2.27,2.5,2.5,0,0,0,2.88-1.3,2.73,2.73,0,0,0-.51-3.2,2.39,2.39,0,0,0-2.49-.58c.06.15.13.29.19.44l.86,1.88a.37.37,0,0,1,0,.21.33.33,0,0,1-.34.28H185Zm-5.65-5.08,3.47,4.14,1.87-4.14Zm6.53,1.91-.67-1.47-1.79,4h.92A3.42,3.42,0,0,1,185.84,267.49ZM185,270h2l-.84-1.85A2.73,2.73,0,0,0,185,270Z" transform="translate(-142.69 -70.99)"/><path class="cls-18" d="M175.1,234.25a1.8,1.8,0,0,0,0-.22,3.39,3.39,0,0,1,.46-1.35,3.14,3.14,0,0,1,2-1.5,2.89,2.89,0,0,1,1.43,0s0,0,.06,0l1.2-3.49a1,1,0,0,1,.79-.7h1.26v.68h-1.08a.35.35,0,0,0-.37.27l-.36,1a.11.11,0,0,1,0,0h5.38a.05.05,0,0,0,.06,0l.27-.59s0,0,0,0h-1a.3.3,0,0,1-.3-.21.36.36,0,0,1,.08-.38.32.32,0,0,1,.23-.09h2.46v.68H187a.05.05,0,0,0-.06,0c-.14.31-.29.63-.43.95a0,0,0,0,0,0,.05l.87,1.92v0l.3-.09a2.87,2.87,0,0,1,1.09-.09,3.11,3.11,0,0,1,2,1.07,3.24,3.24,0,0,1,.79,1.63,3.35,3.35,0,0,1-1,3.08,3,3,0,0,1-1.66.85l-.29,0h-.44c-.17,0-.35-.05-.52-.09a3.08,3.08,0,0,1-1.74-1.15,3.26,3.26,0,0,1-.68-1.61l0-.19h-1.39a.37.37,0,0,1-.3-.15l-.56-.66-1.46-1.74-1.29-1.53-.23-.28-.36,1h0l0,0a3.27,3.27,0,0,1,1.75,2.56,3.12,3.12,0,0,1-.05,1.18,3.27,3.27,0,0,1-1.45,2.1,3,3,0,0,1-1.28.47l-.2,0h-.41c-.16,0-.33,0-.49-.08a3.18,3.18,0,0,1-2.06-1.58,3.51,3.51,0,0,1-.41-1.27,1.64,1.64,0,0,0,0-.22Zm4.34-2.17,0,0-.6,1.74-.21.63a.32.32,0,0,1-.39.22.34.34,0,0,1-.21-.46l.81-2.36,0-.05a2.52,2.52,0,0,0-3,1.79,2.67,2.67,0,0,0,1.58,3.3,2.49,2.49,0,0,0,3.21-1.57A2.68,2.68,0,0,0,179.44,232.08Zm6.49,2.66a2.6,2.6,0,0,0,1.88,2.26,2.47,2.47,0,0,0,2.87-1.3,2.73,2.73,0,0,0-.5-3.2,2.43,2.43,0,0,0-2.49-.58c.06.15.13.3.19.44l.86,1.88a.39.39,0,0,1,0,.21.33.33,0,0,1-.34.29h-2.5Zm-5.65-5.08,3.47,4.13,1.87-4.13Zm6.53,1.91-.67-1.47-1.79,4h.92A3.38,3.38,0,0,1,186.81,231.57Zm-.87,2.48h2l-.84-1.85A2.68,2.68,0,0,0,185.94,234.05Z" transform="translate(-142.69 -70.99)"/><path class="cls-18" d="M189.9,200.71a1.72,1.72,0,0,0,.07-.21,3.23,3.23,0,0,1,.74-1.2,3.08,3.08,0,0,1,2.28-1,3,3,0,0,1,1.4.35s0,0,.06,0l1.92-3.12a1,1,0,0,1,.93-.5l.11,0,1.09.26h0l-.15.67,0,0-1-.24a.32.32,0,0,0-.41.17l-.57.93,0,0h.05l5.19,1.25s0,0,.07,0l.39-.51,0,0,0,0-.88-.21a.33.33,0,0,1-.25-.28.33.33,0,0,1,.41-.38l2.36.57h0l-.15.66h0l-.7-.17s-.05,0-.07,0l-.62.82a.06.06,0,0,0,0,.06c.14.69.29,1.38.43,2.07v0h.31a3.05,3.05,0,0,1,1.08.17,3.25,3.25,0,0,1,1.75,1.52,3.44,3.44,0,0,1-1.2,4.55,2.93,2.93,0,0,1-1.8.43,2.85,2.85,0,0,1-.29,0h0l-.35-.09h0c-.17-.07-.34-.13-.49-.21A3.17,3.17,0,0,1,200,205.5a3.45,3.45,0,0,1-.32-1.73,1.37,1.37,0,0,0,0-.19l0,0-1.3-.31a.41.41,0,0,1-.27-.21l-.4-.78-1.05-2c-.31-.6-.61-1.2-.92-1.79l-.17-.33L195,199h0l0,0a3.37,3.37,0,0,1,1.15,2.92,3.1,3.1,0,0,1-.3,1.13,3.18,3.18,0,0,1-1.87,1.71,2.77,2.77,0,0,1-1.34.15l-.21,0-.35-.09h0c-.16-.07-.32-.12-.46-.19a3.27,3.27,0,0,1-1.67-2,3.32,3.32,0,0,1-.12-1.33c0-.07,0-.15,0-.22Zm4.7-1.09,0,0-1,1.56-.34.56a.33.33,0,0,1-.43.12.35.35,0,0,1-.1-.5l1.3-2.11,0,0a2.47,2.47,0,0,0-3.26,1.05,2.71,2.71,0,0,0,.83,3.59,2.46,2.46,0,0,0,3.46-.77A2.73,2.73,0,0,0,194.6,199.62Zm5.75,4.11a2.66,2.66,0,0,0,1.34,2.65,2.45,2.45,0,0,0,3.08-.58,2.77,2.77,0,0,0,.21-3.25,2.47,2.47,0,0,0-2.31-1.14c0,.15.06.31.1.47l.42,2a.3.3,0,0,1,0,.21.32.32,0,0,1-.39.2l-2.38-.57Zm-4.41-6.28,2.49,4.85,2.72-3.59Zm5.95,3.4-.34-1.59-2.6,3.43.91.22A3.27,3.27,0,0,1,201.89,200.85Zm-1.38,2.21,1.94.47-.42-2A2.64,2.64,0,0,0,200.51,203.06Z" transform="translate(-142.69 -70.99)"/><path class="cls-18" d="M202.71,178.66l.09-.2a3.12,3.12,0,0,1,.84-1.12,3.06,3.06,0,0,1,2.36-.77,3,3,0,0,1,1.36.49s0,0,.07,0l2.19-2.91a1,1,0,0,1,1-.41l.11,0,1.06.37h0l-.2.64-.05,0-1-.34a.34.34,0,0,0-.43.14c-.22.28-.43.57-.65.86l0,0,0,0,5.06,1.77a.08.08,0,0,0,.08,0l.43-.47,0,0-.05,0-.85-.3a.33.33,0,0,1-.23-.3.35.35,0,0,1,.2-.33.29.29,0,0,1,.24,0l2.3.8,0,0-.21.64h0l-.68-.24a.06.06,0,0,0-.07,0l-.69.76a.11.11,0,0,0,0,.06l.24,2.1v0h.31a3,3,0,0,1,1.06.29,3.21,3.21,0,0,1,1.6,1.68,3.41,3.41,0,0,1-1.61,4.41,2.89,2.89,0,0,1-1.83.25l-.28-.06h0l-.34-.12,0,0c-.16-.09-.32-.16-.47-.26a3.25,3.25,0,0,1-1.31-1.67,3.47,3.47,0,0,1-.15-1.75l0-.19,0,0-1.26-.44a.38.38,0,0,1-.25-.24l-.33-.81c-.29-.71-.57-1.43-.86-2.14L208.7,177c0-.12-.1-.23-.14-.35l-.66.87h0l0,0a3.4,3.4,0,0,1,.89,3,3.32,3.32,0,0,1-.41,1.1,3.18,3.18,0,0,1-2,1.51,2.93,2.93,0,0,1-1.35,0l-.21,0-.35-.12,0,0a3.68,3.68,0,0,1-.44-.23,3.31,3.31,0,0,1-1.48-2.18,3.36,3.36,0,0,1,0-1.34c0-.07,0-.15,0-.22Zm4.77-.62,0,0-1.09,1.46-.4.52a.31.31,0,0,1-.44.08.35.35,0,0,1-.05-.5l1.48-2,0,0a2.46,2.46,0,0,0-3.34.72,2.72,2.72,0,0,0,.5,3.66,2.45,2.45,0,0,0,3.52-.43A2.72,2.72,0,0,0,207.48,178Zm5.36,4.67a2.7,2.7,0,0,0,1.09,2.77,2.44,2.44,0,0,0,3.12-.28,2.75,2.75,0,0,0,.5-3.21,2.51,2.51,0,0,0-2.2-1.37l.06.48.24,2.07a.34.34,0,0,1-.44.37l-2.32-.81ZM209,176l2,5.07,3-3.3Zm5.62,4-.19-1.62-2.9,3.15.88.31A3.24,3.24,0,0,1,214.63,180Zm-1.57,2.06,1.88.66-.23-2A2.56,2.56,0,0,0,213.06,182.06Z" transform="translate(-142.69 -70.99)"/><path class="cls-18" d="M266.2,327.6l0-.22a3.32,3.32,0,0,1,2.46-2.85,2.93,2.93,0,0,1,1.44,0,0,0,0,0,0,.06,0l1.2-3.5a1,1,0,0,1,.79-.7h1.26V321h-1.09a.33.33,0,0,0-.36.26l-.36,1a.09.09,0,0,0,0,.05H277a.05.05,0,0,0,.06,0l.27-.58s0,0,0-.06h-1a.32.32,0,0,1-.3-.21.36.36,0,0,1,.08-.38.33.33,0,0,1,.23-.09h2.47v.68h-.77s0,0-.06,0l-.42.95s0,0,0,.06l.87,1.91,0,0,.29-.09a2.69,2.69,0,0,1,1.09-.08,3.05,3.05,0,0,1,2,1.06,3.12,3.12,0,0,1,.79,1.63,3.36,3.36,0,0,1-1,3.09,3,3,0,0,1-1.66.84l-.29,0h-.44a4.51,4.51,0,0,1-.53-.09,3.09,3.09,0,0,1-1.74-1.15,3.36,3.36,0,0,1-.68-1.61c0-.06,0-.12,0-.19H275a.37.37,0,0,1-.31-.14l-.55-.66-1.47-1.75L271.37,324l-.24-.28-.36,1h0l0,0a3.38,3.38,0,0,1,1.7,3.74,3.28,3.28,0,0,1-1.45,2.11,3,3,0,0,1-1.27.46l-.21,0h-.4c-.17,0-.33,0-.49-.08a3.15,3.15,0,0,1-2.06-1.58,3.12,3.12,0,0,1-.41-1.26l0-.23Zm4.34-2.17a.43.43,0,0,1,0,.05l-.6,1.75c-.07.2-.14.41-.22.62a.31.31,0,0,1-.39.22.34.34,0,0,1-.2-.46l.81-2.36v-.05A2.52,2.52,0,0,0,267,327a2.67,2.67,0,0,0,1.58,3.31,2.51,2.51,0,0,0,3.21-1.57A2.69,2.69,0,0,0,270.54,325.43Zm6.5,2.66a2.61,2.61,0,0,0,1.87,2.27,2.5,2.5,0,0,0,2.88-1.3,2.76,2.76,0,0,0-.5-3.21,2.43,2.43,0,0,0-2.5-.57c.07.14.13.29.2.43.28.63.57,1.26.85,1.88a.31.31,0,0,1,0,.21.33.33,0,0,1-.33.29H277ZM271.38,323l3.47,4.13,1.88-4.13Zm6.53,1.91-.67-1.47-1.79,3.95h.92A3.43,3.43,0,0,1,277.91,324.92Zm-.86,2.48h2l-.84-1.85A2.7,2.7,0,0,0,277.05,327.4Z" transform="translate(-142.69 -70.99)"/><path class="cls-18" d="M264.59,357.44l0-.22a3.3,3.3,0,0,1,2.46-2.84,2.93,2.93,0,0,1,1.44,0,0,0,0,0,0,.06,0l1.2-3.5a1,1,0,0,1,.79-.7h1.26v.68h-1.09a.34.34,0,0,0-.36.27l-.36,1s0,0,0,0h5.38s.05,0,.06,0l.27-.58s0,0,0-.05h-1a.33.33,0,0,1-.3-.22.34.34,0,0,1,.08-.37.29.29,0,0,1,.23-.09h2.47v.68h-.77a.07.07,0,0,0-.06,0l-.42,1a.13.13,0,0,0,0,.06l.87,1.91,0,0,.29-.09a3.1,3.1,0,0,1,1.09-.08,3.05,3.05,0,0,1,2,1.06,3.16,3.16,0,0,1,.79,1.63,3.35,3.35,0,0,1-1,3.09,3.05,3.05,0,0,1-1.66.85l-.29,0h-.44c-.18,0-.36,0-.53-.08a3.2,3.2,0,0,1-1.74-1.15,3.43,3.43,0,0,1-.68-1.62c0-.06,0-.12,0-.19h-1.39a.37.37,0,0,1-.31-.14l-.55-.66L271,355.38l-1.28-1.52-.24-.29-.36,1h0l0,0a3.32,3.32,0,0,1,1.76,2.57,3.35,3.35,0,0,1-.06,1.18,3.26,3.26,0,0,1-1.45,2.1,2.91,2.91,0,0,1-1.27.46l-.21,0h-.4a3.85,3.85,0,0,1-.49-.07,3.2,3.2,0,0,1-2.06-1.59,3.12,3.12,0,0,1-.41-1.26l0-.23Zm4.34-2.16s0,0,0,0l-.6,1.75c-.07.21-.14.42-.22.62a.31.31,0,0,1-.39.22.34.34,0,0,1-.2-.46l.81-2.36v0a2.52,2.52,0,0,0-2.95,1.8,2.67,2.67,0,0,0,1.58,3.3,2.5,2.5,0,0,0,3.21-1.57A2.67,2.67,0,0,0,268.93,355.28Zm6.5,2.65a2.61,2.61,0,0,0,1.87,2.27,2.49,2.49,0,0,0,2.88-1.3,2.76,2.76,0,0,0-.5-3.21,2.43,2.43,0,0,0-2.5-.57l.2.44c.28.62.57,1.25.85,1.88a.3.3,0,0,1,0,.21.32.32,0,0,1-.33.28h-2.5Zm-5.66-5.08,3.47,4.14,1.88-4.14Zm6.53,1.91-.67-1.47-1.79,3.95h.92A3.45,3.45,0,0,1,276.3,354.76Zm-.86,2.48h2l-.84-1.85A2.7,2.7,0,0,0,275.44,357.24Z" transform="translate(-142.69 -70.99)"/><path class="cls-18" d="M281.8,363.15,282,363a2.88,2.88,0,0,1,1.25-.55,3,3,0,0,1,2.42.54,3.13,3.13,0,0,1,1,1.11s0,0,.06,0l3.28-1.43a1,1,0,0,1,1,.14l.09.09.75.85,0,0-.48.45,0,0c-.24-.26-.47-.53-.7-.8a.35.35,0,0,0-.44-.1l-1,.43,0,0,0,0,3.59,4.12a.06.06,0,0,0,.07,0l.59-.19.06,0,0,0-.61-.7a.35.35,0,0,1,.27-.57.32.32,0,0,1,.22.12c.54.63,1.09,1.25,1.63,1.87l0,0-.48.46,0,0-.49-.56s0,0-.06,0l-1,.31,0,0c-.26.65-.51,1.31-.77,2v0l.26.17a3.12,3.12,0,0,1,.8.78,3.39,3.39,0,0,1,.61,2.29,3.29,3.29,0,0,1-.62,1.71,3.11,3.11,0,0,1-2.84,1.33,3,3,0,0,1-1.71-.72,2.09,2.09,0,0,1-.22-.2l0,0-.24-.28,0,0a4.43,4.43,0,0,1-.29-.46,3.38,3.38,0,0,1-.36-2.12,3.26,3.26,0,0,1,.68-1.61l.12-.15,0,0-.9-1a.47.47,0,0,1-.11-.34c0-.29.07-.58.1-.87l.24-2.31c.08-.67.15-1.34.22-2,0-.12,0-.24,0-.37l-1,.42h0l0,.05a3.46,3.46,0,0,1-.63,3.09,3,3,0,0,1-.88.75,3.07,3.07,0,0,1-3.65-.38l-.16-.14-.24-.28,0,0c-.09-.14-.2-.28-.28-.43a3.4,3.4,0,0,1-.27-2.65,3.29,3.29,0,0,1,.62-1.17l.15-.17Zm4.46,1.89-.05,0-1.63.72L284,366a.32.32,0,0,1-.42-.15.35.35,0,0,1,.19-.47l2.21-1,0,0a2.49,2.49,0,0,0-3.26-1.07,2.68,2.68,0,0,0-1.27,3.44,2.5,2.5,0,0,0,3.27,1.43A2.68,2.68,0,0,0,286.26,365Zm2.5,6.81a2.71,2.71,0,0,0-.34,3,2.5,2.5,0,0,0,2.86,1.35,2.69,2.69,0,0,0,.65-4.86l-.18.44-.75,1.93a.37.37,0,0,1-.13.17.33.33,0,0,1-.43-.07l-1.64-1.89Zm-.22-7.79-.58,5.46,4.18-1.33Zm3,6.33.59-1.51-4,1.28.62.71A3.13,3.13,0,0,1,291.59,370.39Zm-2.34,1,1.34,1.54.75-1.9A2.51,2.51,0,0,0,289.25,371.39Z" transform="translate(-142.69 -70.99)"/><path class="cls-18" d="M299.21,345.91a1.74,1.74,0,0,1,.11-.18,3,3,0,0,1,.95-1,3,3,0,0,1,2.43-.47,2.94,2.94,0,0,1,1.3.64s0,0,.07,0l2.5-2.63a1,1,0,0,1,1-.29l.12.05,1,.49h0l-.28.62,0,0-.94-.46a.33.33,0,0,0-.44.09l-.74.78,0,0,.05,0,4.83,2.36a.06.06,0,0,0,.07,0l.48-.41,0,0,0,0-.81-.4a.33.33,0,0,1-.19-.33.36.36,0,0,1,.23-.31.34.34,0,0,1,.24,0l2.19,1.07,0,0-.27.61,0,0-.66-.32a0,0,0,0,0-.06,0l-.78.67a.11.11,0,0,0,0,0c0,.71,0,1.42,0,2.12v0l.31.05a3.21,3.21,0,0,1,1,.41,3.3,3.3,0,0,1,1.41,1.86,3.35,3.35,0,0,1,.05,1.83,3.21,3.21,0,0,1-2.13,2.36,2.93,2.93,0,0,1-1.85,0l-.28-.1h0l-.32-.16,0,0c-.14-.1-.3-.19-.44-.31a3.35,3.35,0,0,1-1.11-1.81,3.39,3.39,0,0,1,0-1.76l.06-.18-.05,0-1.21-.59a.36.36,0,0,1-.22-.27l-.24-.84c-.2-.74-.41-1.48-.62-2.23l-.54-1.95c0-.12-.07-.24-.1-.36l-.75.78h0l0,0a3.44,3.44,0,0,1,.55,3.1,3.26,3.26,0,0,1-2.7,2.31,2.92,2.92,0,0,1-1.34-.14l-.2-.07-.33-.17,0,0a3.93,3.93,0,0,1-.42-.29,3.34,3.34,0,0,1-1.22-2.34,3.52,3.52,0,0,1,.14-1.33,1.72,1.72,0,0,0,.07-.21Zm4.81,0,0,0-1.25,1.31-.45.47a.3.3,0,0,1-.44,0,.35.35,0,0,1,0-.51l1.69-1.78,0,0a2.46,2.46,0,0,0-3.4.32,2.71,2.71,0,0,0,.1,3.69,2.45,2.45,0,0,0,3.54,0A2.72,2.72,0,0,0,304,345.87Zm4.8,5.28a2.73,2.73,0,0,0,.78,2.89,2.45,2.45,0,0,0,3.13.09,2.73,2.73,0,0,0,.85-3.12,2.51,2.51,0,0,0-2-1.63v.48c0,.7,0,1.39,0,2.08a.36.36,0,0,1-.05.21.32.32,0,0,1-.42.11l-2.22-1.08Zm-3.06-7.1,1.47,5.28,3.37-2.92Zm5.14,4.62V347l-3.23,2.79.84.4A3.24,3.24,0,0,1,310.9,348.67Zm-1.79,1.86,1.8.88v-2A2.54,2.54,0,0,0,309.11,350.53Z" transform="translate(-142.69 -70.99)"/><path class="cls-18" d="M263.19,208.12a1.8,1.8,0,0,1,0-.22,3.3,3.3,0,0,1,2.46-2.84,2.93,2.93,0,0,1,1.44,0,0,0,0,0,0,.06,0l1.2-3.5a1,1,0,0,1,.79-.7h1.26v.68h-1.09a.34.34,0,0,0-.36.27l-.36,1s0,0,0,0H274s0,0,.06,0l.27-.58s0,0,0,0h-1a.33.33,0,0,1-.3-.22.34.34,0,0,1,.08-.37.29.29,0,0,1,.23-.09h2.47v.68h-.77a0,0,0,0,0-.05,0c-.15.32-.29.63-.43.95a.13.13,0,0,0,0,.06l.87,1.91,0,0,.29-.09a3.1,3.1,0,0,1,1.09-.08,3.05,3.05,0,0,1,2,1.06,3.16,3.16,0,0,1,.79,1.63,3.35,3.35,0,0,1-1,3.09,3.05,3.05,0,0,1-1.66.85l-.29,0h-.44c-.18,0-.36,0-.53-.08a3.2,3.2,0,0,1-1.74-1.15,3.43,3.43,0,0,1-.68-1.62,1.37,1.37,0,0,0,0-.19H272a.37.37,0,0,1-.31-.14l-.55-.66-1.47-1.75-1.28-1.52-.24-.29-.36,1h0l0,0a3.32,3.32,0,0,1,1.76,2.57,3.35,3.35,0,0,1-.06,1.18,3.26,3.26,0,0,1-1.45,2.1,2.91,2.91,0,0,1-1.27.46l-.21,0h-.4a3.85,3.85,0,0,1-.49-.07,3.2,3.2,0,0,1-2.06-1.59,3.12,3.12,0,0,1-.41-1.26,1.79,1.79,0,0,1,0-.23Zm4.33-2.16v0l-.6,1.75c-.07.21-.14.42-.22.62a.31.31,0,0,1-.39.22.34.34,0,0,1-.2-.46l.81-2.36v-.05a2.52,2.52,0,0,0-2.95,1.8,2.67,2.67,0,0,0,1.58,3.3,2.5,2.5,0,0,0,3.21-1.57A2.67,2.67,0,0,0,267.52,206Zm6.5,2.65a2.61,2.61,0,0,0,1.87,2.27,2.49,2.49,0,0,0,2.88-1.3,2.76,2.76,0,0,0-.5-3.21,2.43,2.43,0,0,0-2.5-.57l.2.44c.28.62.57,1.25.85,1.88a.3.3,0,0,1,0,.21.32.32,0,0,1-.33.28H274Zm-5.66-5.08,3.47,4.14,1.88-4.14Zm6.53,1.91-.67-1.47-1.79,3.95h.92A3.45,3.45,0,0,1,274.89,205.44Zm-.86,2.48h2l-.84-1.85A2.7,2.7,0,0,0,274,207.92Z" transform="translate(-142.69 -70.99)"/><path class="cls-18" d="M286.34,200l0-.21a3.3,3.3,0,0,1,2.46-2.85,2.93,2.93,0,0,1,1.44,0s0,0,.06,0c.4-1.16.79-2.33,1.2-3.49a1,1,0,0,1,.79-.7l.12,0h1.14v.68h-1.09a.34.34,0,0,0-.36.27l-.36,1s0,0,0,.05h5.39s0,0,.06,0l.27-.59a.17.17,0,0,1,0-.05h-1a.31.31,0,0,1-.3-.21.35.35,0,0,1,.08-.38.33.33,0,0,1,.23-.09H299v.68h-.77s0,0-.06,0c-.14.31-.28.63-.43.94v.06l.87,1.92,0,0,.29-.08a2.88,2.88,0,0,1,1.09-.09,3.29,3.29,0,0,1,2.82,2.7,3.37,3.37,0,0,1-1,3.08,3,3,0,0,1-1.66.85l-.29,0h-.44c-.18,0-.36-.05-.53-.09a3.15,3.15,0,0,1-1.74-1.15,3.36,3.36,0,0,1-.68-1.61c0-.07,0-.13,0-.19h-1.39a.37.37,0,0,1-.31-.15l-.55-.66L292.79,198l-1.28-1.53-.24-.28-.36,1h0l0,0a3.4,3.4,0,0,1,1.7,3.75,3.27,3.27,0,0,1-1.45,2.1,2.92,2.92,0,0,1-1.27.47l-.21,0h-.4c-.17,0-.33,0-.49-.08a3.32,3.32,0,0,1-2.47-2.85l0-.22Zm4.34-2.16s0,0,0,.05l-.6,1.74c-.07.21-.14.42-.22.63a.31.31,0,0,1-.39.21.33.33,0,0,1-.2-.45c.26-.79.53-1.58.8-2.37l0,0a2.51,2.51,0,0,0-2.95,1.79,2.66,2.66,0,0,0,1.58,3.3,2.5,2.5,0,0,0,3.21-1.57A2.68,2.68,0,0,0,290.68,197.88Zm6.5,2.66a2.59,2.59,0,0,0,1.87,2.26,2.48,2.48,0,0,0,2.88-1.3,2.74,2.74,0,0,0-.5-3.2,2.43,2.43,0,0,0-2.5-.58l.2.44c.28.63.57,1.25.85,1.88a.31.31,0,0,1,0,.21.33.33,0,0,1-.33.29h-2.5Zm-5.66-5.08,3.47,4.13,1.88-4.13Zm6.53,1.91-.67-1.48-1.79,4h.92A3.41,3.41,0,0,1,298.05,197.37Zm-.86,2.48h2l-.84-1.85A2.65,2.65,0,0,0,297.19,199.85Z" transform="translate(-142.69 -70.99)"/><path class="cls-18" d="M293.07,179.56a1.5,1.5,0,0,0,0-.22,3.34,3.34,0,0,1,.46-1.34,3.11,3.11,0,0,1,2-1.5,2.89,2.89,0,0,1,1.43,0s.05,0,.06,0l1.2-3.5a1,1,0,0,1,.79-.7h1.26v.68h-1.09a.34.34,0,0,0-.36.27l-.36,1a.08.08,0,0,1,0,0h5.38s.05,0,.06,0l.27-.58,0,0h-.95a.33.33,0,0,1-.31-.22A.36.36,0,0,1,303,173a.28.28,0,0,1,.23-.09h2.46v.68H305a.06.06,0,0,0-.06,0c-.14.32-.29.63-.43.95a.06.06,0,0,0,0,.06l.87,1.91v0l.3-.09a3.08,3.08,0,0,1,1.09-.08,3.14,3.14,0,0,1,2,1.06,3.23,3.23,0,0,1,.78,1.63,3.35,3.35,0,0,1-1,3.09,3,3,0,0,1-1.66.85l-.29,0h-.44c-.17,0-.35,0-.52-.08a3.19,3.19,0,0,1-1.75-1.15,3.42,3.42,0,0,1-.67-1.62l0-.19h-1.39a.36.36,0,0,1-.3-.14l-.56-.66c-.49-.58-1-1.16-1.46-1.75L298.23,176a3.07,3.07,0,0,0-.24-.29l-.35,1h0l0,0a3.31,3.31,0,0,1,1.75,2.57,3.13,3.13,0,0,1-.05,1.18,3.29,3.29,0,0,1-1.45,2.1,3,3,0,0,1-1.28.46l-.21,0h-.4a4.13,4.13,0,0,1-.49-.07,3.2,3.2,0,0,1-2.06-1.59,3.46,3.46,0,0,1-.41-1.26,1.79,1.79,0,0,0,0-.23Zm4.34-2.16s0,0,0,0l-.6,1.75-.21.62a.31.31,0,0,1-.39.22.34.34,0,0,1-.21-.46l.81-2.36,0-.05a2.53,2.53,0,0,0-3,1.8,2.68,2.68,0,0,0,1.58,3.3,2.5,2.5,0,0,0,3.21-1.57A2.67,2.67,0,0,0,297.41,177.4Zm6.49,2.65a2.62,2.62,0,0,0,1.87,2.27,2.49,2.49,0,0,0,2.88-1.3,2.74,2.74,0,0,0-.5-3.21,2.41,2.41,0,0,0-2.49-.57c.06.15.13.29.19.44.29.62.57,1.25.86,1.88a.36.36,0,0,1,0,.21.33.33,0,0,1-.34.28h-2.5ZM298.25,175l3.47,4.14,1.87-4.14Zm6.53,1.91-.67-1.47-1.8,4h.93A3.42,3.42,0,0,1,304.78,176.88Zm-.87,2.48h2l-.84-1.85A2.7,2.7,0,0,0,303.91,179.36Z" transform="translate(-142.69 -70.99)"/><path class="cls-18" d="M292.28,225.2a1.49,1.49,0,0,0,0-.21,3.34,3.34,0,0,1,.46-1.35,3.14,3.14,0,0,1,2-1.5,3,3,0,0,1,1.43,0s.05,0,.06,0l1.2-3.49a1,1,0,0,1,.79-.71h1.26v.68h-1.09a.34.34,0,0,0-.36.27l-.36,1a.13.13,0,0,1,0,.05h5.38a.05.05,0,0,0,.06,0l.27-.59s0,0,0-.05h-.95a.33.33,0,0,1-.31-.22.36.36,0,0,1,.09-.37.28.28,0,0,1,.23-.09h2.46v.68h-.77a.05.05,0,0,0-.05,0l-.43.94a.06.06,0,0,0,0,.06l.87,1.92v0l.3-.09a3.08,3.08,0,0,1,1.09-.08,3.14,3.14,0,0,1,2,1.06,3.22,3.22,0,0,1,.78,1.64,3.34,3.34,0,0,1-1,3.08,3,3,0,0,1-1.66.85,2.58,2.58,0,0,1-.29,0h-.44a4.67,4.67,0,0,1-.52-.08,3.19,3.19,0,0,1-1.75-1.15,3.34,3.34,0,0,1-.67-1.62l0-.18h-1.39a.37.37,0,0,1-.3-.15l-.56-.66-1.46-1.74-1.29-1.53a3,3,0,0,0-.24-.28l-.35,1h0l0,0a3.31,3.31,0,0,1,1.75,2.57,3.12,3.12,0,0,1,0,1.18,3.27,3.27,0,0,1-1.45,2.1,3,3,0,0,1-1.28.47l-.21,0h-.4a4.13,4.13,0,0,1-.49-.07,3.15,3.15,0,0,1-2.06-1.58,3.51,3.51,0,0,1-.41-1.27,2,2,0,0,0,0-.23Zm4.34-2.16,0,.05-.6,1.74-.21.63a.32.32,0,0,1-.39.21.33.33,0,0,1-.21-.45l.81-2.37v0a2.51,2.51,0,0,0-2.95,1.79,2.68,2.68,0,0,0,1.58,3.3,2.49,2.49,0,0,0,3.21-1.57A2.67,2.67,0,0,0,296.62,223Zm6.49,2.66A2.61,2.61,0,0,0,305,228a2.49,2.49,0,0,0,2.88-1.3,2.73,2.73,0,0,0-.5-3.2,2.41,2.41,0,0,0-2.5-.58c.07.15.14.29.2.44l.86,1.88a.37.37,0,0,1,0,.21.34.34,0,0,1-.34.29h-2.5Zm-5.65-5.09,3.47,4.14,1.87-4.14Zm6.53,1.92-.67-1.48-1.8,4h.93A3.38,3.38,0,0,1,304,222.53Zm-.87,2.47h2l-.84-1.84A2.66,2.66,0,0,0,303.12,225Z" transform="translate(-142.69 -70.99)"/><path class="cls-18" d="M318.39,232.21V232a3.22,3.22,0,0,1,.25-1.4,3.26,3.26,0,0,1,1.76-1.81,3,3,0,0,1,1.42-.22s.05,0,.05,0c.23-1.22.45-2.43.68-3.65a1,1,0,0,1,.68-.82l.11,0,1.1-.18h0l.1.67h-.06l-1,.16a.35.35,0,0,0-.32.33c-.06.36-.13.72-.2,1.08v0h0l5.27-.86a.05.05,0,0,0,.06,0l.18-.62a.13.13,0,0,1,0-.06h0l-.89.14a.31.31,0,0,1-.33-.16.37.37,0,0,1,0-.39.32.32,0,0,1,.22-.12l2.39-.39h0l.1.68h0l-.72.12s0,0,0,0c-.09.34-.19.67-.28,1a.07.07,0,0,0,0,.06l1.14,1.75v0l.28-.13a3.05,3.05,0,0,1,1.07-.26,3,3,0,0,1,2.16.73,3.14,3.14,0,0,1,1,1.48,3.39,3.39,0,0,1-.51,3.21,3.07,3.07,0,0,1-1.51,1.1l-.29.08,0,0-.36.05h0a4.68,4.68,0,0,1-.53,0,3,3,0,0,1-1.89-.86,3.25,3.25,0,0,1-.91-1.48c0-.06,0-.12-.05-.18h-.05l-1.32.21a.39.39,0,0,1-.33-.09l-.64-.57-1.71-1.49-1.49-1.3-.28-.24-.2,1.08h.05a3.38,3.38,0,0,1,2.24,3.43,3.37,3.37,0,0,1-1.13,2.31,2.94,2.94,0,0,1-1.19.67l-.2.06-.36.05h0c-.17,0-.33,0-.5,0A3.11,3.11,0,0,1,319.1,234a3.05,3.05,0,0,1-.59-1.18l-.06-.22Zm4-2.83a.09.09,0,0,1,0,.05l-.33,1.82-.12.65a.34.34,0,0,1-.36.28.34.34,0,0,1-.27-.42l.45-2.47v0a2.55,2.55,0,0,0-2.65,2.25,2.63,2.63,0,0,0,2.05,3,2.54,2.54,0,0,0,2.94-2.07A2.66,2.66,0,0,0,322.36,229.38Zm6.81,1.58a2.51,2.51,0,0,0,4.84.19,2.73,2.73,0,0,0-1-3.09,2.43,2.43,0,0,0-2.55-.16l.26.4c.37.57.74,1.15,1.12,1.72a.36.36,0,0,1,.06.2.34.34,0,0,1-.29.34l-2.41.39Zm-6.34-4.11,4,3.52,1.25-4.38Zm6.74.84-.88-1.35-1.19,4.19.91-.15A3.44,3.44,0,0,1,329.57,227.69Zm-.49,2.58,2-.31-1.11-1.7A2.75,2.75,0,0,0,329.08,230.27Z" transform="translate(-142.69 -70.99)"/><path class="cls-18" d="M318.54,209.15a1.8,1.8,0,0,1,0-.22,3.41,3.41,0,0,1,.17-1.42,3.27,3.27,0,0,1,1.66-1.91,2.9,2.9,0,0,1,1.41-.3s.05,0,.05-.05c.16-1.23.32-2.45.47-3.68a1,1,0,0,1,.64-.86l.11,0,1.09-.24h0l.13.67h0l-1,.22a.35.35,0,0,0-.3.35c-.05.36-.1.73-.14,1.09a.43.43,0,0,0,0,.05h.05l5.21-1.17s.05,0,.06,0c0-.21.09-.42.14-.63a.11.11,0,0,0,0-.06l-.05,0-.88.19A.3.3,0,0,1,327,201a.39.39,0,0,1,0-.39.32.32,0,0,1,.21-.13l2.37-.53h0l.14.66h-.05l-.7.16s0,0-.05.05c-.08.34-.15.68-.23,1,0,0,0,0,0,0l1.23,1.69,0,0,.28-.15a3,3,0,0,1,1.05-.32,3,3,0,0,1,2.19.59,3.18,3.18,0,0,1,1.1,1.43,3.38,3.38,0,0,1-.33,3.23,3.13,3.13,0,0,1-1.45,1.19l-.28.1h0l-.35.08h0a4.84,4.84,0,0,1-.53,0,3,3,0,0,1-1.94-.74,3.25,3.25,0,0,1-1-1.43l-.06-.18h-.06l-1.3.3a.39.39,0,0,1-.33-.08l-.68-.52-1.78-1.39-1.56-1.21-.29-.22-.14,1.09h.05a3.19,3.19,0,0,1,2.23,2.12,3.12,3.12,0,0,1,.19,1.17,3.41,3.41,0,0,1-1,2.37,3,3,0,0,1-1.15.73l-.2.07-.36.08h0l-.49,0a3.07,3.07,0,0,1-2.33-1.1,3.14,3.14,0,0,1-.66-1.15,1.72,1.72,0,0,0-.07-.21Zm3.81-3.07a.09.09,0,0,0,0,0L322.1,208c0,.22-.05.44-.08.65a.31.31,0,0,1-.34.3.33.33,0,0,1-.29-.4c.1-.83.21-1.66.31-2.49V206a2.59,2.59,0,0,0-2.53,2.4,2.63,2.63,0,0,0,2.21,2.89,2.56,2.56,0,0,0,2.83-2.24A2.64,2.64,0,0,0,322.35,206.08Zm6.88,1.17a2.51,2.51,0,0,0,4.84-.09,2.72,2.72,0,0,0-1.13-3,2.43,2.43,0,0,0-2.56,0l.28.38c.4.56.81,1.11,1.21,1.66a.41.41,0,0,1,.08.19.36.36,0,0,1-.28.36l-2.38.53Zm-6.55-3.72,4.22,3.28,1-4.46Zm6.77.43-.95-1.29-1,4.26.9-.2A3.49,3.49,0,0,1,329.45,204Zm-.35,2.62,1.95-.44-1.19-1.62A2.73,2.73,0,0,0,329.1,206.58Z" transform="translate(-142.69 -70.99)"/><path class="cls-18" d="M297.15,254.48c0-.07,0-.15,0-.22a3.49,3.49,0,0,1,.45-1.34,3.21,3.21,0,0,1,2-1.51,2.93,2.93,0,0,1,1.44,0s.05,0,.06,0l1.2-3.5a1,1,0,0,1,.79-.7h1.26v.68h-1.09a.33.33,0,0,0-.36.26l-.36,1s0,0,0,.05h5.38a.05.05,0,0,0,.06,0l.27-.58s0,0,0-.06h-1a.33.33,0,0,1-.31-.21.38.38,0,0,1,.08-.38.35.35,0,0,1,.23-.09h2.47v.68H309s0,0-.05,0c-.15.32-.29.63-.43,1a.06.06,0,0,0,0,.06c.29.64.58,1.27.86,1.91l0,0,.3-.09a2.85,2.85,0,0,1,1.09-.08,3.1,3.1,0,0,1,2,1.06,3.19,3.19,0,0,1,.78,1.63,3.36,3.36,0,0,1-1,3.09A2.94,2.94,0,0,1,311,258l-.29,0h-.44a4.89,4.89,0,0,1-.53-.09,3.09,3.09,0,0,1-1.74-1.15,3.34,3.34,0,0,1-.67-1.61l0-.19h-1.39a.39.39,0,0,1-.31-.14l-.55-.66-1.47-1.75-1.28-1.53-.24-.28-.35,1h0l0,0a3.29,3.29,0,0,1,1.76,2.56,3.11,3.11,0,0,1,0,1.18,3.35,3.35,0,0,1-1.45,2.11,3.08,3.08,0,0,1-1.28.46l-.21,0h-.4c-.17,0-.33,0-.49-.08a3.15,3.15,0,0,1-2.06-1.58,3.28,3.28,0,0,1-.41-1.26c0-.08,0-.16,0-.23Zm4.34-2.17a.17.17,0,0,0,0,.05l-.6,1.75-.21.62a.32.32,0,0,1-.4.22.34.34,0,0,1-.2-.46l.81-2.36v0a2.52,2.52,0,0,0-2.95,1.79,2.67,2.67,0,0,0,1.58,3.31,2.51,2.51,0,0,0,3.21-1.57A2.7,2.7,0,0,0,301.49,252.31ZM308,255a2.62,2.62,0,0,0,1.87,2.27,2.5,2.5,0,0,0,2.88-1.3,2.76,2.76,0,0,0-.5-3.21,2.42,2.42,0,0,0-2.5-.57c.07.14.13.29.2.43.28.63.57,1.26.85,1.88a.39.39,0,0,1,0,.21.34.34,0,0,1-.34.29H308Zm-5.66-5.08L305.8,254l1.87-4.13Zm6.54,1.91-.68-1.47-1.79,3.95h.93A3.37,3.37,0,0,1,308.86,251.8Zm-.87,2.48h2l-.84-1.85A2.7,2.7,0,0,0,308,254.28Z" transform="translate(-142.69 -70.99)"/><path class="cls-18" d="M269.3,269.6l0-.22a3.27,3.27,0,0,1,.45-1.35,3.23,3.23,0,0,1,2-1.5,2.93,2.93,0,0,1,1.44,0s0,0,.06,0c.4-1.16.79-2.33,1.2-3.49a1,1,0,0,1,.79-.7h1.26V263h-1.09a.34.34,0,0,0-.36.27l-.36,1a.07.07,0,0,0,0,.05h5.38s0,0,.06,0l.27-.59,0-.05h-1a.32.32,0,0,1-.3-.21.36.36,0,0,1,.08-.38.33.33,0,0,1,.23-.09H282v.68h-.77s0,0-.06,0l-.42.95s0,0,0,.05l.87,1.92,0,0c.1,0,.19-.07.29-.09a2.88,2.88,0,0,1,1.09-.09,3.06,3.06,0,0,1,2,1.07,3.12,3.12,0,0,1,.79,1.63,3.36,3.36,0,0,1-1,3.09,3,3,0,0,1-1.66.84l-.29,0h-.44c-.18,0-.36-.05-.53-.09a3.15,3.15,0,0,1-1.74-1.15,3.36,3.36,0,0,1-.68-1.61c0-.06,0-.13,0-.19h-1.39a.37.37,0,0,1-.31-.15l-.55-.66-1.47-1.74L274.47,266l-.24-.28-.36,1h0l0,0a3.29,3.29,0,0,1,1.76,2.56,3.34,3.34,0,0,1-.06,1.18,3.23,3.23,0,0,1-1.45,2.1,2.92,2.92,0,0,1-1.27.47l-.21,0h-.4c-.17,0-.33,0-.49-.08a3.15,3.15,0,0,1-2.06-1.58,3.12,3.12,0,0,1-.41-1.27l0-.22Zm4.34-2.17s0,0,0,.05l-.6,1.74c-.07.21-.14.42-.22.63a.32.32,0,0,1-.39.22.34.34,0,0,1-.2-.46l.81-2.36v-.05a2.51,2.51,0,0,0-3,1.79,2.66,2.66,0,0,0,1.58,3.3,2.5,2.5,0,0,0,3.21-1.56A2.69,2.69,0,0,0,273.64,267.43Zm6.5,2.66a2.59,2.59,0,0,0,1.87,2.26,2.49,2.49,0,0,0,2.88-1.29,2.76,2.76,0,0,0-.5-3.21,2.43,2.43,0,0,0-2.5-.57c.07.14.13.29.2.43.28.63.57,1.26.85,1.88a.31.31,0,0,1,0,.21.33.33,0,0,1-.33.29h-2.5ZM274.48,265l3.47,4.13,1.88-4.13Zm6.53,1.91-.67-1.47-1.79,3.95h.92A3.41,3.41,0,0,1,281,266.92Zm-.86,2.48h2l-.84-1.85A2.7,2.7,0,0,0,280.15,269.4Z" transform="translate(-142.69 -70.99)"/><path class="cls-18" d="M297.15,289c0-.07,0-.15,0-.22a3.49,3.49,0,0,1,.45-1.34,3.21,3.21,0,0,1,2-1.51,2.93,2.93,0,0,1,1.44,0s.05,0,.06,0l1.2-3.49a1,1,0,0,1,.79-.7h1.26v.68h-1.09a.33.33,0,0,0-.36.26l-.36,1s0,0,0,.05h5.38a.05.05,0,0,0,.06,0l.27-.58s0,0,0-.06h-1a.33.33,0,0,1-.31-.21.38.38,0,0,1,.08-.38.35.35,0,0,1,.23-.09h2.47v.68H309s0,0-.05,0c-.15.32-.29.63-.43.95a.06.06,0,0,0,0,.06c.29.63.58,1.27.86,1.91l0,0,.3-.09a2.66,2.66,0,0,1,1.09-.08,3.1,3.1,0,0,1,2,1.06,3.19,3.19,0,0,1,.78,1.63,3.36,3.36,0,0,1-1,3.09,2.94,2.94,0,0,1-1.66.84l-.29,0h-.44a4.89,4.89,0,0,1-.53-.09,3.09,3.09,0,0,1-1.74-1.15,3.34,3.34,0,0,1-.67-1.61l0-.19h-1.39a.39.39,0,0,1-.31-.14c-.18-.23-.37-.44-.55-.66L303.59,287l-1.28-1.53-.24-.28-.35,1h0l0,0a3.29,3.29,0,0,1,1.76,2.56,3.11,3.11,0,0,1,0,1.18,3.35,3.35,0,0,1-1.45,2.11,3.08,3.08,0,0,1-1.28.46l-.21,0h-.4c-.17,0-.33,0-.49-.08a3.15,3.15,0,0,1-2.06-1.58,3.28,3.28,0,0,1-.41-1.26c0-.08,0-.16,0-.23Zm4.34-2.17s0,0,0,.05l-.6,1.75-.21.62a.32.32,0,0,1-.4.22.35.35,0,0,1-.2-.46l.81-2.36v-.05a2.52,2.52,0,0,0-2.95,1.79,2.67,2.67,0,0,0,1.58,3.31,2.51,2.51,0,0,0,3.21-1.57A2.7,2.7,0,0,0,301.49,286.86Zm6.49,2.66a2.62,2.62,0,0,0,1.87,2.27,2.5,2.5,0,0,0,2.88-1.3,2.76,2.76,0,0,0-.5-3.21,2.42,2.42,0,0,0-2.5-.57c.07.14.13.29.2.43.28.63.57,1.26.85,1.88a.39.39,0,0,1,0,.21.34.34,0,0,1-.34.29H308Zm-5.66-5.08,3.48,4.13,1.87-4.13Zm6.54,1.91-.68-1.47-1.79,3.95h.93A3.35,3.35,0,0,1,308.86,286.35Zm-.87,2.48h2l-.84-1.85A2.7,2.7,0,0,0,308,288.83Z" transform="translate(-142.69 -70.99)"/><path class="cls-18" d="M320.25,274.52l.09-.2a3.11,3.11,0,0,1,.79-1.16,3,3,0,0,1,2.33-.86,3,3,0,0,1,1.38.43s0,0,.06,0l2.09-3a1,1,0,0,1,.95-.44.35.35,0,0,1,.11,0l1.07.32h0l-.18.65-.05,0-1-.3a.34.34,0,0,0-.42.15l-.62.9,0,0h0l5.12,1.56a.06.06,0,0,0,.07,0l.42-.49,0,0-.05,0-.87-.26a.32.32,0,0,1-.23-.29.35.35,0,0,1,.18-.34.36.36,0,0,1,.25,0l2.32.71h0l-.18.65h0l-.7-.21s0,0-.06,0l-.66.78a.07.07,0,0,0,0,.06c.11.7.21,1.39.32,2.09v0h.31a2.87,2.87,0,0,1,1.07.24,3.22,3.22,0,0,1,1.66,1.61,3.43,3.43,0,0,1-1.43,4.48,3,3,0,0,1-1.82.33l-.29-.05h0l-.35-.1,0,0c-.16-.08-.32-.14-.48-.24a3.17,3.17,0,0,1-1.36-1.61,3.36,3.36,0,0,1-.22-1.75c0-.06,0-.12,0-.18l-.05,0-1.28-.39a.4.4,0,0,1-.26-.23c-.12-.26-.24-.53-.35-.79-.32-.7-.63-1.41-.95-2.11s-.55-1.22-.82-1.84l-.15-.34-.62.89h0l0,0a3.45,3.45,0,0,1,.63,4.09,3.22,3.22,0,0,1-1.95,1.6,2.94,2.94,0,0,1-1.35.07l-.21,0-.35-.11,0,0a4.66,4.66,0,0,1-.45-.22,3.25,3.25,0,0,1-1.55-2.12,3.14,3.14,0,0,1-.05-1.33l0-.22Zm4.75-.81,0,0-1,1.5-.37.54a.31.31,0,0,1-.44.09.34.34,0,0,1-.07-.5l1.4-2,0,0a2.46,2.46,0,0,0-3.31.86,2.72,2.72,0,0,0,.63,3.63,2.46,2.46,0,0,0,3.51-.57A2.72,2.72,0,0,0,325,273.71Zm5.53,4.44a2.66,2.66,0,0,0,1.19,2.72,2.44,2.44,0,0,0,3.11-.41,2.73,2.73,0,0,0,.37-3.22A2.48,2.48,0,0,0,333,276c0,.16.05.32.07.48.11.68.21,1.37.32,2.05a.38.38,0,0,1,0,.21.33.33,0,0,1-.4.18l-2.35-.71Zm-4.08-6.53,2.23,5,2.91-3.42Zm5.76,3.74-.25-1.61L329.19,277l.88.27A3.34,3.34,0,0,1,332.21,275.36Zm-1.49,2.13,1.91.58-.31-2A2.59,2.59,0,0,0,330.72,277.49Z" transform="translate(-142.69 -70.99)"/><path class="cls-18" d="M325.34,254.93a1.6,1.6,0,0,1,.05-.21,3.29,3.29,0,0,1,.65-1.26,3.09,3.09,0,0,1,2.2-1.16,3,3,0,0,1,1.42.23s0,0,.06,0c.57-1.09,1.14-2.17,1.7-3.26a1,1,0,0,1,.89-.57h.12l1.09.18h0l-.09.67h-.06l-1-.17a.34.34,0,0,0-.4.21c-.17.32-.34.64-.5,1a.05.05,0,0,0,0,0h0l5.27.85s.05,0,.07,0l.35-.53,0,0h-.05l-.89-.14a.33.33,0,0,1-.27-.26.35.35,0,0,1,.13-.36.3.3,0,0,1,.24,0l2.4.38h0l-.1.67h-.05L338,251s0,0-.06,0c-.18.29-.37.58-.56.87,0,0,0,0,0,0,.19.68.38,1.36.58,2v0l.3,0a3.07,3.07,0,0,1,1.09.1,3.1,3.1,0,0,1,1.85,1.37,3.27,3.27,0,0,1,.54,1.74,3.32,3.32,0,0,1-1.41,2.9,3,3,0,0,1-1.77.57l-.29,0h0l-.35-.06,0,0a4.91,4.91,0,0,1-.5-.17,3.12,3.12,0,0,1-1.55-1.41,3.4,3.4,0,0,1-.44-1.7c0-.07,0-.13,0-.2h-.05l-1.33-.22a.39.39,0,0,1-.28-.19l-.45-.74-1.19-2L331,252.21l-.19-.31-.5,1h0l0,0a3.37,3.37,0,0,1,1.36,2.82,3.28,3.28,0,0,1-.23,1.16,3.25,3.25,0,0,1-1.74,1.84,3,3,0,0,1-1.33.26h-.21l-.36-.06h0c-.15-.06-.32-.09-.47-.16a3.2,3.2,0,0,1-1.8-1.89,3.46,3.46,0,0,1-.22-1.32c0-.07,0-.15,0-.22Zm4.6-1.45s0,0,0,.05c-.29.54-.57,1.08-.85,1.63l-.3.58a.32.32,0,0,1-.42.15.33.33,0,0,1-.14-.48l1.15-2.21,0,0a2.49,2.49,0,0,0-3.18,1.3,2.69,2.69,0,0,0,1.07,3.51,2.48,2.48,0,0,0,3.41-1A2.72,2.72,0,0,0,329.94,253.48Zm6,3.67a2.64,2.64,0,0,0,1.52,2.54,2.47,2.47,0,0,0,3-.82,2.76,2.76,0,0,0,0-3.25,2.45,2.45,0,0,0-2.39-1c.05.16.09.31.13.47l.57,2a.3.3,0,0,1,0,.21.32.32,0,0,1-.37.23l-2.41-.39Zm-4.85-5.93,2.83,4.65,2.46-3.79Zm6.18,2.94-.45-1.56-2.35,3.61.91.15A3.36,3.36,0,0,1,337.3,254.16Zm-1.22,2.31,2,.32-.56-2A2.62,2.62,0,0,0,336.08,256.47Z" transform="translate(-142.69 -70.99)"/><path class="cls-18" d="M288.56,320.45a1.49,1.49,0,0,1,0-.21,3.48,3.48,0,0,1,.45-1.35,3.19,3.19,0,0,1,2-1.5,3,3,0,0,1,1.44,0s0,0,.06,0l1.2-3.49a1,1,0,0,1,.79-.71h1.26v.68H294.7a.34.34,0,0,0-.36.27l-.36,1a.2.2,0,0,0,0,.05h5.38a.05.05,0,0,0,.06,0l.27-.59,0-.05h-1a.34.34,0,0,1-.3-.21.37.37,0,0,1,.08-.38.35.35,0,0,1,.23-.09h2.47v.68h-.77s0,0-.05,0c-.15.31-.29.63-.43.94a.06.06,0,0,0,0,.06c.28.64.57,1.28.86,1.92l0,0,.3-.09a3.06,3.06,0,0,1,1.09-.08,3.14,3.14,0,0,1,2,1.06,3.22,3.22,0,0,1,.78,1.64,3.34,3.34,0,0,1-1,3.08,3,3,0,0,1-1.66.85l-.29,0h-.44a4.85,4.85,0,0,1-.53-.08,3.2,3.2,0,0,1-1.74-1.15,3.34,3.34,0,0,1-.67-1.62l0-.18h-1.39a.39.39,0,0,1-.31-.15l-.55-.66L295,318.4l-1.28-1.53-.24-.28-.35,1h0l0,0a3.3,3.3,0,0,1,1.76,2.57,3.12,3.12,0,0,1-.05,1.18,3.31,3.31,0,0,1-1.45,2.1,3,3,0,0,1-1.28.47l-.21,0h-.4a3.85,3.85,0,0,1-.49-.07,3.15,3.15,0,0,1-2.06-1.58,3.33,3.33,0,0,1-.41-1.27,1.64,1.64,0,0,1,0-.23Zm4.34-2.16s0,0,0,0l-.6,1.74-.21.63a.33.33,0,0,1-.4.21.33.33,0,0,1-.2-.45l.81-2.37v0a2.51,2.51,0,0,0-3,1.79,2.66,2.66,0,0,0,1.58,3.3,2.5,2.5,0,0,0,3.21-1.57A2.68,2.68,0,0,0,292.9,318.29Zm6.49,2.66a2.61,2.61,0,0,0,1.87,2.26,2.48,2.48,0,0,0,2.88-1.3,2.74,2.74,0,0,0-.5-3.2,2.43,2.43,0,0,0-2.5-.58l.2.44c.28.63.57,1.25.85,1.88a.38.38,0,0,1,0,.21.35.35,0,0,1-.34.29h-2.5Zm-5.66-5.09,3.48,4.14,1.87-4.14Zm6.54,1.92-.68-1.48-1.79,4h.93A3.35,3.35,0,0,1,300.27,317.78Zm-.87,2.47h2l-.84-1.84A2.66,2.66,0,0,0,299.4,320.25Z" transform="translate(-142.69 -70.99)"/><path class="cls-18" d="M317.88,311.27c0-.07.05-.14.08-.2a3.26,3.26,0,0,1,.75-1.19,3.12,3.12,0,0,1,2.31-.94,3,3,0,0,1,1.39.38s0,0,.06,0l2-3.07a1,1,0,0,1,.94-.48l.11,0,1.08.29h0l-.16.66h0l-1-.27a.33.33,0,0,0-.41.17l-.59.91,0,0,.05,0,5.17,1.37s0,0,.07,0l.39-.5,0,0-.06,0-.87-.23a.32.32,0,0,1-.24-.28.35.35,0,0,1,.17-.35.33.33,0,0,1,.24,0l2.35.63h0l-.16.66h-.05l-.7-.19s0,0-.06,0l-.64.81a.07.07,0,0,0,0,.06l.39,2.08v0h.31a2.87,2.87,0,0,1,1.08.2,3.13,3.13,0,0,1,1.71,1.55,3.43,3.43,0,0,1-1.29,4.53,3,3,0,0,1-1.81.39l-.29,0h0l-.35-.09,0,0c-.16-.07-.33-.13-.49-.21a3.22,3.22,0,0,1-1.41-1.57,3.34,3.34,0,0,1-.28-1.74l0-.19h-.06l-1.29-.35a.4.4,0,0,1-.27-.22c-.12-.26-.25-.52-.38-.78l-1-2.07c-.3-.6-.59-1.21-.89-1.81l-.16-.34-.59.92h0l0,0a3.37,3.37,0,0,1,1.09,2.94,3.14,3.14,0,0,1-.33,1.13,3.18,3.18,0,0,1-1.9,1.66,2.81,2.81,0,0,1-1.35.12l-.2,0-.36-.09,0,0a3.76,3.76,0,0,1-.46-.2,3.27,3.27,0,0,1-1.62-2.06,3.51,3.51,0,0,1-.1-1.33l0-.23Zm4.72-1,0,0-1,1.54-.36.55a.31.31,0,0,1-.43.11.33.33,0,0,1-.09-.49c.45-.7.9-1.39,1.34-2.09l0,0a2.48,2.48,0,0,0-3.29,1,2.71,2.71,0,0,0,.75,3.6,2.47,2.47,0,0,0,3.49-.69A2.73,2.73,0,0,0,322.6,310.29Zm5.66,4.26a2.67,2.67,0,0,0,1.28,2.67,2.45,2.45,0,0,0,3.1-.51,2.77,2.77,0,0,0,.27-3.24,2.48,2.48,0,0,0-2.28-1.2c0,.16.06.32.08.48l.39,2a.38.38,0,0,1,0,.21.32.32,0,0,1-.39.19l-2.37-.63ZM324,308.16l2.39,4.9,2.8-3.52Zm5.88,3.54-.3-1.6-2.67,3.37.89.24A3.32,3.32,0,0,1,329.86,311.7Zm-1.42,2.18,1.93.51-.38-2A2.61,2.61,0,0,0,328.44,313.88Z" transform="translate(-142.69 -70.99)"/><path class="cls-18" d="M269.67,302.16a1.5,1.5,0,0,0,0-.22,3.34,3.34,0,0,1,.46-1.34,3.16,3.16,0,0,1,2-1.51,3,3,0,0,1,1.43,0s.05,0,.06,0l1.2-3.5a1,1,0,0,1,.8-.7h1.25v.68h-1.08a.34.34,0,0,0-.37.27c-.12.34-.24.69-.35,1l0,.05h5.38a.05.05,0,0,0,.06,0l.27-.58,0,0h-.95a.33.33,0,0,1-.3-.22.36.36,0,0,1,.08-.38.32.32,0,0,1,.23-.09h2.46v.68h-.76a.05.05,0,0,0-.06,0c-.14.32-.29.63-.43.95a.06.06,0,0,0,0,.06l.87,1.91v0l.3-.09a3.11,3.11,0,0,1,3.12,1,3.28,3.28,0,0,1,.79,1.63,3.38,3.38,0,0,1-1,3.09,3.09,3.09,0,0,1-1.66.85l-.3,0h-.44c-.17,0-.35,0-.52-.08a3.09,3.09,0,0,1-1.74-1.16,3.26,3.26,0,0,1-.68-1.61l0-.19h-1.38a.37.37,0,0,1-.31-.14l-.56-.66-1.46-1.75-1.29-1.53-.23-.28-.36,1h0l0,0a3.28,3.28,0,0,1,1.75,2.57,3.13,3.13,0,0,1-.05,1.18,3.32,3.32,0,0,1-1.45,2.1,3,3,0,0,1-1.28.46l-.2,0h-.41l-.49-.07A3.22,3.22,0,0,1,270.1,304a3.27,3.27,0,0,1-.4-1.26l0-.23ZM274,300l0,0-.6,1.75-.21.62a.31.31,0,0,1-.39.22.34.34,0,0,1-.21-.46l.81-2.36,0-.05a2.53,2.53,0,0,0-3,1.8,2.68,2.68,0,0,0,1.58,3.3,2.51,2.51,0,0,0,3.22-1.57A2.68,2.68,0,0,0,274,300Zm6.49,2.65a2.62,2.62,0,0,0,1.88,2.27,2.51,2.51,0,0,0,2.88-1.3,2.74,2.74,0,0,0-.51-3.21,2.41,2.41,0,0,0-2.49-.57c.06.14.13.29.19.44.29.62.57,1.25.86,1.88a.34.34,0,0,1,0,.2.33.33,0,0,1-.34.29h-2.5Zm-5.65-5.08,3.47,4.13,1.87-4.13Zm6.53,1.91-.67-1.47L278.92,302h.92A3.42,3.42,0,0,1,281.38,299.48Zm-.87,2.48h2l-.84-1.85A2.73,2.73,0,0,0,280.51,302Z" transform="translate(-142.69 -70.99)"/><path class="cls-18" d="M269.09,241.93l0-.21a3.3,3.3,0,0,1,2.46-2.85,3,3,0,0,1,1.44,0s0,0,.06,0c.4-1.16.79-2.33,1.2-3.49a1,1,0,0,1,.79-.7l.12,0h1.14v.68h-1.09a.34.34,0,0,0-.36.27l-.36,1s0,0,0,0h5.39s0,0,.06,0l.27-.59,0,0h-1a.33.33,0,0,1-.3-.21.35.35,0,0,1,.08-.38.33.33,0,0,1,.23-.09h2.47V236H281s0,0-.06,0c-.14.31-.28.63-.43.94V237l.87,1.92,0,0,.29-.09a3.11,3.11,0,0,1,3.12,1,3.23,3.23,0,0,1,.79,1.64,3.37,3.37,0,0,1-1,3.08,3,3,0,0,1-1.66.85l-.29,0h-.44a4.51,4.51,0,0,1-.53-.08,3.15,3.15,0,0,1-1.74-1.15,3.35,3.35,0,0,1-.68-1.62c0-.06,0-.12,0-.18h-.05c-.45,0-.9,0-1.34,0a.37.37,0,0,1-.31-.15l-.55-.66-1.47-1.74-1.28-1.53-.24-.28-.36,1h0l0,0a3.4,3.4,0,0,1,1.7,3.75A3.27,3.27,0,0,1,274,245a2.92,2.92,0,0,1-1.27.47l-.21,0h-.4a3.85,3.85,0,0,1-.49-.07,3.32,3.32,0,0,1-2.47-2.85l0-.23Zm4.34-2.16s0,0,0,0l-.6,1.74c-.07.21-.14.42-.22.63a.31.31,0,0,1-.39.21.33.33,0,0,1-.2-.45c.26-.79.53-1.58.8-2.37l0,0a2.51,2.51,0,0,0-2.95,1.79,2.66,2.66,0,0,0,1.58,3.3,2.5,2.5,0,0,0,3.21-1.57A2.68,2.68,0,0,0,273.43,239.77Zm6.5,2.66a2.59,2.59,0,0,0,1.87,2.26,2.48,2.48,0,0,0,2.88-1.3,2.74,2.74,0,0,0-.5-3.2,2.43,2.43,0,0,0-2.5-.58l.2.44c.28.63.57,1.25.85,1.88a.3.3,0,0,1,0,.21.33.33,0,0,1-.33.29h-2.5Zm-5.66-5.08,3.47,4.13,1.88-4.13Zm6.53,1.91-.67-1.48-1.79,4h.92A3.41,3.41,0,0,1,280.8,239.26Zm-.86,2.47h2l-.84-1.84A2.62,2.62,0,0,0,279.94,241.73Z" transform="translate(-142.69 -70.99)"/><path class="cls-19" d="M320.88,97.39" transform="translate(-142.69 -70.99)"/><ellipse class="cls-20" cx="118.49" cy="60.68" rx="47.21" ry="60.68"/><rect class="cls-21" x="235.11" y="108.31" width="22.71" height="14.12" rx="4.43" ry="4.43" transform="translate(350.25 159.76) rotate(180)"/><rect class="cls-22" x="264.7" y="108.31" width="22.71" height="14.12" rx="4.43" ry="4.43" transform="translate(409.43 159.76) rotate(180)"/><ellipse class="cls-23" cx="103.78" cy="44.39" rx="2.25" ry="2.8"/><ellipse class="cls-23" cx="133.37" cy="44.39" rx="2.25" ry="2.8"/><path class="cls-24" d="M214.51,120.46l20-33.81s36.65,6.39,50.47,0l21.23,29.82s-5.68-24.9-19.08-35.11c-9.37-7.13-12.15-7.58-13-8.07a5.91,5.91,0,0,0-2.53-.67c-4.62-1.47-20-4.07-35.37,7.12C217.76,93.21,214.51,120.46,214.51,120.46Z" transform="translate(-142.69 -70.99)"/><path class="cls-25" d="M285,86.77l21,29.53s-5.61-24.67-18.89-34.77C285.87,80.57,288.94,83,285,86.77Z" transform="translate(-142.69 -70.99)"/><path class="cls-26" d="M307.39,140.49s-43.78,59.65-94,0c0,0,5.33,50.23,47.21,53C260.57,193.45,300.81,194.83,307.39,140.49Z" transform="translate(-142.69 -70.99)"/><line class="cls-19" x1="106.03" y1="92.2" x2="131.12" y2="92.2"/><path class="cls-27" d="M248.72,163.19a22.94,22.94,0,0,1,6.27-2,35.88,35.88,0,0,1,6.27-.54,34.93,34.93,0,0,1,6.27.53,23,23,0,0,1,6.27,2,22.94,22.94,0,0,1-6.27,2,35.88,35.88,0,0,1-6.27.54,36.89,36.89,0,0,1-6.27-.55A23.26,23.26,0,0,1,248.72,163.19Z" transform="translate(-142.69 -70.99)"/><line class="cls-19" x1="104.66" y1="92.2" x2="132.73" y2="92.2"/><path class="cls-28" d="M247.35,163.19c2.34-.16,4.68-.23,7-.29s4.68-.06,7-.09,4.67,0,7,.09,4.68.13,7,.29c-2.34.15-4.68.22-7,.28s-4.67.06-7,.09-4.68,0-7-.09S249.69,163.34,247.35,163.19Z" transform="translate(-142.69 -70.99)"/><polyline class="cls-29" points="123.84 74.85 119.05 76.32 113.3 74.64 118.04 52.5"/><polyline class="cls-30" points="119.05 76.32 113.3 74.64 118.04 52.5"/><path class="cls-20" d="M264.05,115.21s-2.43-3.19-5.57,0" transform="translate(-142.69 -70.99)"/><path class="cls-31" d="M264,115.24a8.68,8.68,0,0,0-2.72-.54,5.46,5.46,0,0,0-1.2.15c-.23.05-.46.13-.73.19a5.09,5.09,0,0,1-.85.2l-.07-.07.6-.55a7.92,7.92,0,0,1,.67-.46,3.41,3.41,0,0,1,1.56-.46,3.73,3.73,0,0,1,2.82,1.48Z" transform="translate(-142.69 -70.99)"/><ellipse class="cls-32" cx="133.37" cy="44.39" rx="1.15" ry="1.43"/><ellipse class="cls-32" cx="103.78" cy="44.39" rx="1.15" ry="1.43"/><path class="cls-33" d="M213.36,140.49s12.2,37.25,29,46.84C242.34,187.33,222.84,184.54,213.36,140.49Z" transform="translate(-142.69 -70.99)"/></svg>