<svg id="Layer_1" data-name="Layer 1" xmlns="http://www.w3.org/2000/svg" xmlns:xlink="http://www.w3.org/1999/xlink" viewBox="0 0 244.42 417.9"><defs><style>.cls-1{fill:#e4e1c7;}.cls-2{fill:#512e2a;}.cls-3,.cls-4{fill:#9e2b20;}.cls-14,.cls-23,.cls-4,.cls-6{stroke:#231f20;}.cls-14,.cls-15,.cls-16,.cls-17,.cls-21,.cls-22,.cls-23,.cls-32,.cls-4,.cls-6,.cls-8{stroke-miterlimit:10;}.cls-5{fill:#231f20;}.cls-16,.cls-6,.cls-8{fill:none;}.cls-23,.cls-6{stroke-width:0.25px;}.cls-7{fill:#c2b59b;}.cls-8{stroke:#9b8579;}.cls-9{fill:#b1a58e;}.cls-10{fill:#9b8579;}.cls-11{fill:#1e4496;}.cls-12,.cls-17{fill:#234093;}.cls-13{fill:#124b9a;}.cls-14,.cls-15,.cls-20,.cls-21,.cls-22,.cls-23{fill:#fff;}.cls-15{stroke:#f9a560;}.cls-16{stroke:#283c91;}.cls-17{stroke:#262262;stroke-width:0.5px;}.cls-18{fill:#fff200;}.cls-19{fill:#d1d3d4;}.cls-21{stroke:url(#White_Black);}.cls-22{stroke:url(#White_Black-2);}.cls-24{fill:#fde79e;}.cls-25{fill:#fbeac8;}.cls-26{fill:#e5e1c5;}.cls-27{fill:#f9c9de;}.cls-28{fill:#8d536f;}.cls-29{fill:#e3e2db;}.cls-30{fill:#d0cca8;}.cls-31{fill:url(#White_Black-3);}.cls-32{fill:#2e3192;stroke:#00aeef;}.cls-33{fill:#cfcdb4;}</style><linearGradient id="White_Black" x1="265.16" y1="115.37" x2="288.88" y2="115.37" gradientTransform="matrix(1, 0, 0, -1, -30.55, 230.75)" gradientUnits="userSpaceOnUse"><stop offset="0" stop-color="#fff"/><stop offset="1" stop-color="#231f20"/></linearGradient><linearGradient id="White_Black-2" x1="235.57" y1="115.37" x2="259.28" y2="115.37" gradientTransform="matrix(1, 0, 0, -1, 28.63, 230.75)" xlink:href="#White_Black"/><linearGradient id="White_Black-3" x1="264.45" y1="114.47" x2="258.12" y2="114.47" gradientTransform="matrix(1, 0, 0, 1, 0, 0)" xlink:href="#White_Black"/></defs><title>7</title><polyline class="cls-1" points="145.02 334.96 138.41 400.24 130.97 399.87 130.23 334.22"/><polyline class="cls-1" points="98.91 334.96 105.52 400.24 112.96 399.87 113.71 334.22"/><path class="cls-2" d="M230.77,475.18s-20.25,10.71-7.52,12.21l12.73,1.5h16.19s6.73-4.74,6.73-11.59" transform="translate(-137.73 -70.99)"/><path class="cls-2" d="M286.2,475.18s20.24,10.71,7.52,12.21L281,488.89H264.8s-5.9-4.74-5.9-11.59" transform="translate(-137.73 -70.99)"/><path class="cls-3" d="M244.2,470.46s-33.1,10.7-20.38,12.2l12.73,1.49h16.19s6.16,0,6.16-6.85l-7.23-6.23h-.53" transform="translate(-137.73 -70.99)"/><path class="cls-3" d="M266.6,470.13l-7.39,7.17c0,6.85,6.16,6.85,6.16,6.85h16.19l12.73-1.49c12.73-1.5-18.15-12.21-18.15-12.21" transform="translate(-137.73 -70.99)"/><path class="cls-4" d="M259.31,477" transform="translate(-137.73 -70.99)"/><path class="cls-5" d="M270.57,414.52v2.22a3.22,3.22,0,0,1,0,.62,3.21,3.21,0,0,0,0-.62v-2.22a2.57,2.57,0,0,1,0-.62,2.57,2.57,0,0,0,0,.62Z" transform="translate(-137.73 -70.99)"/><path class="cls-5" d="M275.4,418.15v1.21a3.22,3.22,0,0,1,0,.62,3.2,3.2,0,0,0,0-.62v-1.21a3.22,3.22,0,0,1,0-.62,3.2,3.2,0,0,0,0,.62Z" transform="translate(-137.73 -70.99)"/><path class="cls-5" d="M277,422v1.21a2.57,2.57,0,0,1,0,.62,2.57,2.57,0,0,0,0-.62V422a3.33,3.33,0,0,1,0-.63,3.32,3.32,0,0,0,0,.63Z" transform="translate(-137.73 -70.99)"/><path class="cls-5" d="M280,421.78v.2a3.22,3.22,0,0,1,0,.62,3.21,3.21,0,0,0,0-.62v-.2a2.66,2.66,0,0,1,0-.63,2.66,2.66,0,0,0,0,.63Z" transform="translate(-137.73 -70.99)"/><path class="cls-5" d="M274,429.86s0-1.25,0-1.25,0,1.25,0,1.25Z" transform="translate(-137.73 -70.99)"/><path class="cls-5" d="M271.38,422v1.41a3.21,3.21,0,0,1,0,.62,3.21,3.21,0,0,0,0-.62V422a3.33,3.33,0,0,1,0-.63,3.32,3.32,0,0,0,0,.63Z" transform="translate(-137.73 -70.99)"/><path class="cls-5" d="M271.58,431v1.62a2.57,2.57,0,0,1,0,.62,2.57,2.57,0,0,0,0-.62V431a3.21,3.21,0,0,1,0-.62,3.21,3.21,0,0,0,0,.62Z" transform="translate(-137.73 -70.99)"/><path class="cls-5" d="M277.82,434.07v.6a3.33,3.33,0,0,1,0,.63,3.32,3.32,0,0,0,0-.63v-.6a3.33,3.33,0,0,1,0-.63,3.32,3.32,0,0,0,0,.63Z" transform="translate(-137.73 -70.99)"/><path class="cls-5" d="M275.81,436.28v1.62a2.57,2.57,0,0,1,0,.62,2.57,2.57,0,0,0,0-.62v-1.62a3.21,3.21,0,0,1,0-.62,3.21,3.21,0,0,0,0,.62Z" transform="translate(-137.73 -70.99)"/><path class="cls-5" d="M273.19,437.29v1a2.57,2.57,0,0,1,0,.62,2.57,2.57,0,0,0,0-.62v-1a3.22,3.22,0,0,1,0-.62,3.21,3.21,0,0,0,0,.62Z" transform="translate(-137.73 -70.99)"/><path class="cls-5" d="M271.17,437.49v.2a3.33,3.33,0,0,1,0,.63,3.32,3.32,0,0,0,0-.63v-.2a3.22,3.22,0,0,1,0-.62,3.21,3.21,0,0,0,0,.62Z" transform="translate(-137.73 -70.99)"/><path class="cls-5" d="M270.77,441.72v1a3.32,3.32,0,0,1,0,.63,3.31,3.31,0,0,0,0-.63v-1a2.57,2.57,0,0,1,0-.62,2.57,2.57,0,0,0,0,.62Z" transform="translate(-137.73 -70.99)"/><path class="cls-5" d="M276.82,443.34v.6a3.21,3.21,0,0,1,0,.62,3.2,3.2,0,0,0,0-.62v-.6a3.33,3.33,0,0,1,0-.63,3.32,3.32,0,0,0,0,.63Z" transform="translate(-137.73 -70.99)"/><path class="cls-5" d="M274.8,446v.21a3.21,3.21,0,0,1,0,.62,3.21,3.21,0,0,0,0-.62V446a2.57,2.57,0,0,1,0-.62,2.57,2.57,0,0,0,0,.62Z" transform="translate(-137.73 -70.99)"/><path class="cls-5" d="M272,449v1.21a3.21,3.21,0,0,1,0,.62,3.21,3.21,0,0,0,0-.62V449a2.66,2.66,0,0,1,0-.63,2.66,2.66,0,0,0,0,.63Z" transform="translate(-137.73 -70.99)"/><path class="cls-5" d="M276,451.6v.2a3.22,3.22,0,0,1,0,.62,3.21,3.21,0,0,0,0-.62v-.2a2.66,2.66,0,0,1,0-.63,2.66,2.66,0,0,0,0,.63Z" transform="translate(-137.73 -70.99)"/><path class="cls-5" d="M272.59,454.24s0-1.25,0-1.25,0,1.25,0,1.25Z" transform="translate(-137.73 -70.99)"/><path class="cls-5" d="M279.64,412.71v.81a3.21,3.21,0,0,1,0,.62,2.57,2.57,0,0,0,0-.62v-.81a3.22,3.22,0,0,1,0-.62,3.21,3.21,0,0,0,0,.62Z" transform="translate(-137.73 -70.99)"/><path class="cls-5" d="M272,411.1s0-1.25,0-1.25,0,1.25,0,1.25Z" transform="translate(-137.73 -70.99)"/><path class="cls-5" d="M276,409.9v-1.25s0,1.25,0,1.25Z" transform="translate(-137.73 -70.99)"/><path class="cls-5" d="M275.61,410.7v.6a3.21,3.21,0,0,1,0,.62,2.56,2.56,0,0,0,0-.62v-.6a3.33,3.33,0,0,1,0-.63,3.32,3.32,0,0,0,0,.63Z" transform="translate(-137.73 -70.99)"/><path class="cls-5" d="M280.64,408.88v1a3.22,3.22,0,0,1,0,.62,3.2,3.2,0,0,0,0-.62v-1a3.22,3.22,0,0,1,0-.62,3.21,3.21,0,0,0,0,.62Z" transform="translate(-137.73 -70.99)"/><path class="cls-5" d="M244.38,409.27v.4a3.31,3.31,0,0,1,0,.63,2.66,2.66,0,0,0,0-.63v-.4a3.22,3.22,0,0,1,0-.62,3.21,3.21,0,0,0,0,.62Z" transform="translate(-137.73 -70.99)"/><path class="cls-5" d="M248.82,409.31v-1.25s0,1.25,0,1.25Z" transform="translate(-137.73 -70.99)"/><path class="cls-6" d="M281.56,414a2,2,0,0,0,.64,2.18" transform="translate(-137.73 -70.99)"/><path class="cls-6" d="M281.53,411.07a2,2,0,0,1,.7,1.62" transform="translate(-137.73 -70.99)"/><path class="cls-6" d="M277,411.75a1.07,1.07,0,0,1-.55,1.22" transform="translate(-137.73 -70.99)"/><path class="cls-6" d="M271.39,411.94v1.5" transform="translate(-137.73 -70.99)"/><path class="cls-6" d="M268.77,411.19a2.15,2.15,0,0,1-.82,1.44" transform="translate(-137.73 -70.99)"/><path class="cls-6" d="M267.94,409.13a2.32,2.32,0,0,1-.5,1.48" transform="translate(-137.73 -70.99)"/><path class="cls-6" d="M268.58,414.84a3.35,3.35,0,0,0-.86,1.78" transform="translate(-137.73 -70.99)"/><path class="cls-6" d="M269.44,420a2.06,2.06,0,0,1-.49,1.12" transform="translate(-137.73 -70.99)"/><path class="cls-6" d="M272.49,416.26a1.31,1.31,0,0,1-.23,1.23" transform="translate(-137.73 -70.99)"/><path class="cls-6" d="M275.91,415.75a6.64,6.64,0,0,1,1.1.88" transform="translate(-137.73 -70.99)"/><path class="cls-6" d="M278.6,420.28l.48.65" transform="translate(-137.73 -70.99)"/><path class="cls-6" d="M274.48,420v.93" transform="translate(-137.73 -70.99)"/><path class="cls-6" d="M280.6,422.7a1.34,1.34,0,0,1,.24,1.13" transform="translate(-137.73 -70.99)"/><path class="cls-6" d="M279.72,426.09l.86,1.3" transform="translate(-137.73 -70.99)"/><path class="cls-6" d="M273,424.86a2.8,2.8,0,0,1-.91,1.34" transform="translate(-137.73 -70.99)"/><path class="cls-6" d="M269.52,425a1.92,1.92,0,0,1-1,1.71" transform="translate(-137.73 -70.99)"/><path class="cls-6" d="M269.24,431.15a1.72,1.72,0,0,1-.38,1.11" transform="translate(-137.73 -70.99)"/><path class="cls-6" d="M274.86,429.46v1" transform="translate(-137.73 -70.99)"/><path class="cls-6" d="M276.45,429.28a1,1,0,0,1,.75.46" transform="translate(-137.73 -70.99)"/><path class="cls-6" d="M280.1,430.78l.84.47" transform="translate(-137.73 -70.99)"/><path class="cls-6" d="M279.48,432.75a2.32,2.32,0,0,0,.61,2.25" transform="translate(-137.73 -70.99)"/><path class="cls-6" d="M268.61,434.85a2.07,2.07,0,0,1-1.06.27" transform="translate(-137.73 -70.99)"/><path class="cls-5" d="M248.69,415.35v2.21a3.33,3.33,0,0,1,0,.63,3.32,3.32,0,0,0,0-.63v-2.21a3.33,3.33,0,0,1,0-.63,3.32,3.32,0,0,0,0,.63Z" transform="translate(-137.73 -70.99)"/><path class="cls-5" d="M243.86,419v1.21a2.66,2.66,0,0,1,0,.63,2.66,2.66,0,0,0,0-.63V419a3.21,3.21,0,0,1,0-.62,3.21,3.21,0,0,0,0,.62Z" transform="translate(-137.73 -70.99)"/><path class="cls-5" d="M242.25,422.8V424a2.66,2.66,0,0,1,0,.63,2.66,2.66,0,0,0,0-.63V422.8a3.21,3.21,0,0,1,0-.62,3.21,3.21,0,0,0,0,.62Z" transform="translate(-137.73 -70.99)"/><path class="cls-5" d="M239.22,422.6v.2a3.33,3.33,0,0,1,0,.63,3.32,3.32,0,0,0,0-.63v-.2a3.22,3.22,0,0,1,0-.62,3.21,3.21,0,0,0,0,.62Z" transform="translate(-137.73 -70.99)"/><path class="cls-5" d="M245.28,430.68v-1.25s0,1.25,0,1.25Z" transform="translate(-137.73 -70.99)"/><path class="cls-5" d="M247.89,422.8v1.41a2.66,2.66,0,0,1,0,.63,2.66,2.66,0,0,0,0-.63V422.8a3.21,3.21,0,0,1,0-.62,3.21,3.21,0,0,0,0,.62Z" transform="translate(-137.73 -70.99)"/><path class="cls-5" d="M247.69,431.87v1.61a2.66,2.66,0,0,1,0,.63,2.66,2.66,0,0,0,0-.63v-1.61a3.32,3.32,0,0,1,0-.63,3.31,3.31,0,0,0,0,.63Z" transform="translate(-137.73 -70.99)"/><path class="cls-5" d="M241.44,434.89v.61a3.21,3.21,0,0,1,0,.62,3.21,3.21,0,0,0,0-.62v-.61a2.57,2.57,0,0,1,0-.62,2.57,2.57,0,0,0,0,.62Z" transform="translate(-137.73 -70.99)"/><path class="cls-5" d="M243.46,437.11v1.61a3.21,3.21,0,0,1,0,.62,2.56,2.56,0,0,0,0-.62v-1.61a3.33,3.33,0,0,1,0-.63,3.32,3.32,0,0,0,0,.63Z" transform="translate(-137.73 -70.99)"/><path class="cls-5" d="M246.07,438.12v1a3.33,3.33,0,0,1,0,.63,3.32,3.32,0,0,0,0-.63v-1a3.33,3.33,0,0,1,0-.63,3.32,3.32,0,0,0,0,.63Z" transform="translate(-137.73 -70.99)"/><path class="cls-5" d="M248.09,438.32v.2a3.22,3.22,0,0,1,0,.62,3.21,3.21,0,0,0,0-.62v-.2a2.66,2.66,0,0,1,0-.63,2.66,2.66,0,0,0,0,.63Z" transform="translate(-137.73 -70.99)"/><path class="cls-5" d="M248.49,442.55v1a3.21,3.21,0,0,1,0,.62,3.21,3.21,0,0,0,0-.62v-1a3.33,3.33,0,0,1,0-.63,3.32,3.32,0,0,0,0,.63Z" transform="translate(-137.73 -70.99)"/><path class="cls-5" d="M242.45,444.16v.6a2.66,2.66,0,0,1,0,.63,2.66,2.66,0,0,0,0-.63v-.6a3.32,3.32,0,0,1,0-.63,3.32,3.32,0,0,0,0,.63Z" transform="translate(-137.73 -70.99)"/><path class="cls-5" d="M244.46,446.78v.2a3.32,3.32,0,0,1,0,.63,3.32,3.32,0,0,0,0-.63v-.2a3.32,3.32,0,0,1,0-.63,3.32,3.32,0,0,0,0,.63Z" transform="translate(-137.73 -70.99)"/><path class="cls-5" d="M247.28,449.8V451a3.32,3.32,0,0,1,0,.63,3.32,3.32,0,0,0,0-.63V449.8a3.22,3.22,0,0,1,0-.62,3.21,3.21,0,0,0,0,.62Z" transform="translate(-137.73 -70.99)"/><path class="cls-5" d="M243.25,452.42v.2a3.33,3.33,0,0,1,0,.63,3.32,3.32,0,0,0,0-.63v-.2a3.22,3.22,0,0,1,0-.62,3.2,3.2,0,0,0,0,.62Z" transform="translate(-137.73 -70.99)"/><path class="cls-5" d="M246.69,455.06s0-1.25,0-1.25,0,1.25,0,1.25Z" transform="translate(-137.73 -70.99)"/><path class="cls-5" d="M239.63,413.53v.81a2.66,2.66,0,0,1,0,.63,2.66,2.66,0,0,0,0-.63v-.81a3.21,3.21,0,0,1,0-.62,3.21,3.21,0,0,0,0,.62Z" transform="translate(-137.73 -70.99)"/><path class="cls-5" d="M247.29,409.93s0-1.25,0-1.25,0,1.25,0,1.25Z" transform="translate(-137.73 -70.99)"/><path class="cls-5" d="M243.26,410.72s0-1.25,0-1.25,0,1.25,0,1.25Z" transform="translate(-137.73 -70.99)"/><path class="cls-5" d="M243.66,411.52v.6a2.66,2.66,0,0,1,0,.63,2.66,2.66,0,0,0,0-.63v-.6a3.32,3.32,0,0,1,0-.63,3.32,3.32,0,0,0,0,.63Z" transform="translate(-137.73 -70.99)"/><path class="cls-5" d="M238.62,409.71v1a3.33,3.33,0,0,1,0,.63,3.31,3.31,0,0,0,0-.63v-1a2.66,2.66,0,0,1,0-.63,2.66,2.66,0,0,0,0,.63Z" transform="translate(-137.73 -70.99)"/><path class="cls-6" d="M237.72,414.84a2,2,0,0,1-.64,2.19" transform="translate(-137.73 -70.99)"/><path class="cls-6" d="M237.74,411.89a2,2,0,0,0-.7,1.62" transform="translate(-137.73 -70.99)"/><path class="cls-6" d="M242.28,412.58a1.07,1.07,0,0,0,.54,1.22" transform="translate(-137.73 -70.99)"/><path class="cls-6" d="M247.88,412.76v1.5" transform="translate(-137.73 -70.99)"/><path class="cls-6" d="M250.5,412a2.14,2.14,0,0,0,.82,1.44" transform="translate(-137.73 -70.99)"/><path class="cls-6" d="M251.34,410a2.3,2.3,0,0,0,.49,1.49" transform="translate(-137.73 -70.99)"/><path class="cls-6" d="M250.7,415.66a3.26,3.26,0,0,1,.85,1.78" transform="translate(-137.73 -70.99)"/><path class="cls-6" d="M249.84,420.82a2,2,0,0,0,.49,1.12" transform="translate(-137.73 -70.99)"/><path class="cls-6" d="M246.78,417.08a1.33,1.33,0,0,0,.24,1.23" transform="translate(-137.73 -70.99)"/><path class="cls-6" d="M243.37,416.57a6.74,6.74,0,0,0-1.1.88" transform="translate(-137.73 -70.99)"/><path class="cls-6" d="M240.68,421.11l-.48.64" transform="translate(-137.73 -70.99)"/><path class="cls-6" d="M244.79,420.82v.94" transform="translate(-137.73 -70.99)"/><path class="cls-6" d="M238.68,423.52a1.37,1.37,0,0,0-.25,1.14" transform="translate(-137.73 -70.99)"/><path class="cls-6" d="M239.55,426.91l-.85,1.31" transform="translate(-137.73 -70.99)"/><path class="cls-6" d="M246.3,425.69a2.87,2.87,0,0,0,.91,1.33" transform="translate(-137.73 -70.99)"/><path class="cls-6" d="M249.75,425.79a1.92,1.92,0,0,0,1,1.71" transform="translate(-137.73 -70.99)"/><path class="cls-6" d="M250,432a1.7,1.7,0,0,0,.39,1.12" transform="translate(-137.73 -70.99)"/><path class="cls-6" d="M244.42,430.28v1" transform="translate(-137.73 -70.99)"/><path class="cls-6" d="M242.83,430.1a1.06,1.06,0,0,0-.76.46" transform="translate(-137.73 -70.99)"/><path class="cls-6" d="M239.18,431.61l-.85.46" transform="translate(-137.73 -70.99)"/><path class="cls-6" d="M239.79,433.57a2.33,2.33,0,0,1-.6,2.26" transform="translate(-137.73 -70.99)"/><path class="cls-6" d="M250.67,435.67a2,2,0,0,0,1.05.27" transform="translate(-137.73 -70.99)"/><polygon class="cls-7" points="92.77 336.55 153.89 336.55 170.75 271.16 75.92 271.16 92.77 336.55"/><line class="cls-8" x1="122.83" y1="283.69" x2="122.83" y2="336.55"/><path class="cls-9" d="M222.77,354l13.13,53.16h-5.72l-15.43-61S221.14,352.69,222.77,354Z" transform="translate(-137.73 -70.99)"/><path class="cls-9" d="M287.42,379.87l4.12,3.08,7.76-5.21L302,376l-1.37-3.24s-8.69,7.63-13.18,7.16l-2,15.94s8.32-.17,10.46-4.74l3.3-12.8" transform="translate(-137.73 -70.99)"/><path class="cls-10" d="M287.42,379.87l4.16,3h-.08c3.44-2.39,6.91-4.73,10.38-7.08l-.06.19-1.38-3.23.27.06a51.79,51.79,0,0,1-6.13,4.59,25,25,0,0,1-3.38,1.83,8.1,8.1,0,0,1-3.81.85l.27-.21c-.65,5.31-1.38,10.62-2.06,15.93l-.2-.21a22.56,22.56,0,0,0,3-.33,16.59,16.59,0,0,0,2.87-.75,9.83,9.83,0,0,0,2.62-1.34,6.17,6.17,0,0,0,1.9-2.19v0c1.1-4.27,2.3-8.52,3.44-12.77-1.06,4.28-2.07,8.57-3.17,12.84h0a6.5,6.5,0,0,1-2,2.32,10.6,10.6,0,0,1-2.69,1.4,16.26,16.26,0,0,1-2.91.79,20.27,20.27,0,0,1-3,.36h-.22l0-.23c.65-5.31,1.27-10.63,2-15.94l0-.23.23,0a7.7,7.7,0,0,0,3.58-.78,25.53,25.53,0,0,0,3.35-1.77,52.61,52.61,0,0,0,6.12-4.5l.18-.16.09.22,1.35,3.25.06.12-.11.07c-3.49,2.32-7,4.65-10.49,6.92l0,0,0,0Z" transform="translate(-137.73 -70.99)"/><path class="cls-9" d="M234.84,379.87,230.73,383,223,377.74,220.29,376l1.37-3.24s8.69,7.63,13.18,7.16l2,15.94s-8.32-.17-10.46-4.74l-3.3-12.8" transform="translate(-137.73 -70.99)"/><path class="cls-10" d="M234.84,379.87,230.76,383l0,0,0,0c-3.51-2.27-7-4.6-10.48-6.92l-.11-.07.05-.12,1.35-3.25.09-.22.19.16a51.77,51.77,0,0,0,6.12,4.5,25.41,25.41,0,0,0,3.34,1.77,7.7,7.7,0,0,0,3.58.78l.23,0,0,.23c.69,5.31,1.31,10.63,2,15.94l0,.23h-.23a20.14,20.14,0,0,1-3-.36,16.59,16.59,0,0,1-2.92-.79,10.6,10.6,0,0,1-2.69-1.4,6.6,6.6,0,0,1-2-2.32h0c-1.1-4.27-2.11-8.56-3.16-12.84,1.14,4.25,2.33,8.5,3.43,12.77v0a6.26,6.26,0,0,0,1.9,2.19,10,10,0,0,0,2.62,1.34,16.83,16.83,0,0,0,2.87.75,22.76,22.76,0,0,0,3,.33l-.19.21c-.69-5.31-1.41-10.62-2.06-15.93l.26.21a8.12,8.12,0,0,1-3.81-.85,25.64,25.64,0,0,1-3.38-1.83,51.79,51.79,0,0,1-6.13-4.59l.27-.06L220.44,376l-.06-.19c3.47,2.35,6.94,4.69,10.38,7.08h-.07Z" transform="translate(-137.73 -70.99)"/><path class="cls-9" d="M261.06,369.14a52.19,52.19,0,0,0,7.2-.5l-.86,38.89h-6.34Z" transform="translate(-137.73 -70.99)"/><path class="cls-11" d="M305.4,162.27s125.72,18.87,55.36,172.89l-18.69-10.32" transform="translate(-137.73 -70.99)"/><path class="cls-12" d="M214.49,162.27S88.77,181.14,159.12,335.16l18.69-10.32" transform="translate(-137.73 -70.99)"/><ellipse class="cls-13" cx="122.66" cy="196.11" rx="93.69" ry="119.77"/><path class="cls-14" d="M208.27,348.17" transform="translate(-137.73 -70.99)"/><path class="cls-15" d="M162,333.79s5.8,11,22.14,7.38l1.51-.94.32-.35s-7.72-13.62-8-15.87" transform="translate(-137.73 -70.99)"/><path class="cls-15" d="M359.05,335s-5.8,11-22.13,7.39l-1.52-1-.32-.35s7.73-13.61,8-15.86" transform="translate(-137.73 -70.99)"/><polyline class="cls-16" points="123.21 314.48 123.21 111.31 136.71 124.35 162.47 97.98"/><path class="cls-17" d="M197.54,225.66s-10,22.64-5.76,32.46l11.39,7.17,13.88-4.91,6.38-32.46" transform="translate(-137.73 -70.99)"/><polyline class="cls-16" points="121.29 314.48 121.29 111.31 107.78 124.35 82.02 97.98"/><path class="cls-18" d="M214.64,192.48a1.18,1.18,0,0,1,.07-.2,3.17,3.17,0,0,1,.77-1.2,3.27,3.27,0,0,1,2.38-1,3.21,3.21,0,0,1,1.45.36s0,0,.06,0l2-3.11a1,1,0,0,1,1-.49l.12,0,1.12.27h0l-.16.66-.05,0-1-.25a.35.35,0,0,0-.42.18l-.61.92,0,0h.05l5.39,1.3s.05,0,.07,0l.4-.5s0,0,0,0l-.05,0-.92-.22a.33.33,0,0,1-.25-.28.35.35,0,0,1,.17-.35.36.36,0,0,1,.25,0l2.45.59h0l-.16.66h0l-.73-.17a.06.06,0,0,0-.07,0l-.65.82s0,0,0,0c.14.7.29,1.39.43,2.08v0l.32,0a3.35,3.35,0,0,1,2.93,1.71,3.17,3.17,0,0,1,.42,1.78,3.3,3.3,0,0,1-1.7,2.77,3.12,3.12,0,0,1-1.87.42l-.3,0h0l-.36-.09,0,0a4.55,4.55,0,0,1-.51-.21,3.38,3.38,0,0,1-1.81-3.27,1.23,1.23,0,0,0,0-.19h0l-1.35-.33a.4.4,0,0,1-.28-.21c-.13-.26-.27-.52-.41-.78l-1.08-2c-.31-.6-.62-1.2-.94-1.8l-.17-.33-.6.92h0l0,0a3.32,3.32,0,0,1,1.18,2.92,3.25,3.25,0,0,1-.33,1.14,3.29,3.29,0,0,1-2,1.69,3.12,3.12,0,0,1-1.39.14l-.22,0-.37-.09,0,0-.47-.19a3.32,3.32,0,0,1-1.72-2,3.16,3.16,0,0,1-.12-1.33l0-.23Zm4.88-1,0,0c-.33.52-.67,1-1,1.55l-.36.56a.33.33,0,0,1-.44.12.35.35,0,0,1-.11-.5l1.37-2.1,0,0a2.62,2.62,0,0,0-3.4,1,2.66,2.66,0,0,0,.84,3.6,2.64,2.64,0,0,0,3.12-4.25Zm5.95,4.16a2.64,2.64,0,0,0,4.58,2.1,2.69,2.69,0,0,0,.23-3.25,2.61,2.61,0,0,0-2.39-1.16c0,.16.07.32.1.47.14.68.28,1.36.43,2a.38.38,0,0,1,0,.21.35.35,0,0,1-.41.2l-2.46-.6Zm-4.54-6.31,2.55,4.86,2.85-3.57Zm6.16,3.44-.34-1.59-2.73,3.4.94.23A3.37,3.37,0,0,1,227.09,192.72Zm-1.45,2.2,2,.48-.42-2A2.65,2.65,0,0,0,225.64,194.92Z" transform="translate(-137.73 -70.99)"/><path class="cls-18" d="M220.12,216.05a1.49,1.49,0,0,0,0-.21,3.35,3.35,0,0,1,.47-1.35,3.3,3.3,0,0,1,2.09-1.5,3.26,3.26,0,0,1,1.49,0s.05,0,.07,0l1.24-3.49a1,1,0,0,1,.83-.7l.12,0h1.18v.68H226.5a.34.34,0,0,0-.37.27l-.38,1a.11.11,0,0,1,0,0h5.59a.08.08,0,0,0,.07,0l.27-.59,0,0h-1a.34.34,0,0,1-.31-.21.35.35,0,0,1,.08-.38.36.36,0,0,1,.24-.09h2.56v.68h-.79a.05.05,0,0,0-.06,0l-.45.94v.06c.3.64.6,1.28.91,1.92v0l.31-.09a3.31,3.31,0,0,1,1.13-.08,3.25,3.25,0,0,1,2.11,1.07,3.13,3.13,0,0,1,.82,1.63,3.29,3.29,0,0,1-1,3.08,3.15,3.15,0,0,1-1.73.85l-.3,0h-.46a5,5,0,0,1-.54-.08,3.25,3.25,0,0,1-1.81-1.15,3.31,3.31,0,0,1-.71-1.61,1.11,1.11,0,0,0,0-.19h-.06c-.46,0-.92,0-1.38,0a.43.43,0,0,1-.33-.15l-.57-.66L226.82,214l-1.34-1.53-.24-.28-.37,1h0l0,0a3.32,3.32,0,0,1,1.82,2.57,2.93,2.93,0,0,1-.06,1.18,3.27,3.27,0,0,1-1.5,2.1,3.17,3.17,0,0,1-1.33.47l-.21,0h-.42a4.18,4.18,0,0,1-.51-.07,3.25,3.25,0,0,1-2.14-1.58,3.36,3.36,0,0,1-.43-1.27,1.64,1.64,0,0,0,0-.22Zm4.51-2.16s0,0,0,.05c-.21.58-.42,1.16-.62,1.74l-.23.63a.32.32,0,0,1-.4.21.33.33,0,0,1-.22-.45l.84-2.37,0,0a2.67,2.67,0,1,0,.63.23Zm6.75,2.66a2.63,2.63,0,0,0,4.93,1,2.67,2.67,0,0,0-.52-3.2,2.6,2.6,0,0,0-2.6-.58l.21.44.89,1.88a.37.37,0,0,1,0,.21.35.35,0,0,1-.35.29h-2.59Zm-5.88-5.08,3.61,4.13,1.94-4.13Zm6.78,1.91-.69-1.48-1.87,4h1A3.38,3.38,0,0,1,232.28,213.38Zm-.9,2.47h2.07l-.87-1.84A2.68,2.68,0,0,0,231.38,215.85Z" transform="translate(-137.73 -70.99)"/><path class="cls-18" d="M230,239.67a1.5,1.5,0,0,1,0-.22,3.21,3.21,0,0,1,.47-1.35,3.27,3.27,0,0,1,2.09-1.5,3.13,3.13,0,0,1,1.49,0s0,0,.06,0c.42-1.16.83-2.33,1.25-3.49a1,1,0,0,1,.82-.7h1.31V233h-1.13a.36.36,0,0,0-.38.27c-.12.35-.24.69-.37,1a.43.43,0,0,0,0,.05h5.59a.05.05,0,0,0,.06,0c.09-.2.19-.39.28-.59,0,0,0,0,0-.05h-1a.33.33,0,0,1-.31-.21.35.35,0,0,1,.08-.38.36.36,0,0,1,.24-.09h2.56v.68h-.79a.05.05,0,0,0-.06,0l-.45.94a.06.06,0,0,0,0,.06l.9,1.92,0,0a2.8,2.8,0,0,1,.31-.09,3.08,3.08,0,0,1,1.13-.09,3.27,3.27,0,0,1,2.11,1.07,3,3,0,0,1,.81,1.63,3.26,3.26,0,0,1-1,3.08,3.19,3.19,0,0,1-1.73.85l-.3,0h-.46c-.18,0-.37,0-.55-.09a3.37,3.37,0,0,1-2.51-2.76c0-.07,0-.13,0-.19h-1.45a.41.41,0,0,1-.32-.15l-.57-.66-1.53-1.74-1.33-1.53c-.08-.09-.16-.19-.25-.28l-.37,1h0l0,0a3.27,3.27,0,0,1,1.83,2.56,2.93,2.93,0,0,1-.06,1.18,3.27,3.27,0,0,1-1.5,2.1,3.17,3.17,0,0,1-1.33.47l-.22,0h-.42c-.17,0-.34,0-.5-.08a3.25,3.25,0,0,1-2.14-1.58,3.19,3.19,0,0,1-.43-1.27,1.64,1.64,0,0,1,0-.22Zm4.5-2.17s0,0,0,.05c-.21.58-.42,1.16-.62,1.74l-.23.63a.33.33,0,0,1-.41.22.34.34,0,0,1-.21-.46l.84-2.36,0,0a2.68,2.68,0,1,0,.62.23Zm6.75,2.66a2.64,2.64,0,0,0,4.94,1,2.67,2.67,0,0,0-.52-3.2,2.63,2.63,0,0,0-2.6-.58l.21.44c.29.63.59,1.25.88,1.88a.32.32,0,0,1,0,.21.34.34,0,0,1-.35.29h-2.6Zm-5.88-5.08,3.61,4.13,1.95-4.13ZM242.2,237l-.7-1.47-1.86,3.95h1A3.39,3.39,0,0,1,242.2,237Zm-.9,2.48h2.07l-.87-1.85A2.64,2.64,0,0,0,241.3,239.47Z" transform="translate(-137.73 -70.99)"/><path class="cls-18" d="M233.74,269c0-.07,0-.15,0-.22a3.21,3.21,0,0,1,.47-1.34,3.29,3.29,0,0,1,2.09-1.51,3.13,3.13,0,0,1,1.49,0s.05,0,.06,0l1.25-3.5a1,1,0,0,1,.82-.7h1.31v.68h-1.13a.35.35,0,0,0-.38.26c-.12.35-.24.7-.37,1,0,0,0,0,0,0H245a.05.05,0,0,0,.06,0c.1-.19.19-.39.28-.58a.11.11,0,0,0,0-.06h-.05c-.31,0-.63,0-.94,0a.33.33,0,0,1-.31-.21.34.34,0,0,1,.32-.47h2.56V263h0c-.25,0-.49,0-.74,0a.05.05,0,0,0-.06,0l-.45.95a.06.06,0,0,0,0,.06l.9,1.91,0,0,.31-.09a3.07,3.07,0,0,1,1.13-.08,3.26,3.26,0,0,1,2.11,1.06,3.17,3.17,0,0,1,.82,1.63,3.31,3.31,0,0,1-1,3.09,3.17,3.17,0,0,1-1.73.84l-.3,0h-.46a4.68,4.68,0,0,1-.54-.09,3.16,3.16,0,0,1-1.81-1.15,3.22,3.22,0,0,1-.71-1.61c0-.06,0-.12,0-.19h-1.45a.4.4,0,0,1-.32-.14l-.57-.66-1.53-1.75-1.33-1.53-.25-.28-.37,1h0l0,0a3.31,3.31,0,0,1,1.83,2.57,2.94,2.94,0,0,1-.06,1.18,3.3,3.3,0,0,1-2.83,2.56l-.22,0h-.42c-.17,0-.34,0-.5-.08a3.25,3.25,0,0,1-2.14-1.58,3.15,3.15,0,0,1-.43-1.26c0-.08,0-.15,0-.23Zm4.51-2.17,0,.05c-.21.58-.42,1.16-.62,1.75l-.23.62a.33.33,0,0,1-.41.22.34.34,0,0,1-.21-.46l.84-2.36,0-.05a2.67,2.67,0,1,0,.63.23Zm6.74,2.66a2.63,2.63,0,0,0,4.94,1,2.69,2.69,0,0,0-.52-3.21,2.59,2.59,0,0,0-2.6-.57l.21.43c.29.63.59,1.26.88,1.88a.32.32,0,0,1,0,.21.34.34,0,0,1-.35.29H245Zm-5.88-5.08,3.61,4.13,1.95-4.13Zm6.79,1.91-.7-1.47-1.86,3.95h1A3.41,3.41,0,0,1,245.9,266.3Zm-.9,2.48h2.07l-.87-1.85A2.69,2.69,0,0,0,245,268.78Z" transform="translate(-137.73 -70.99)"/><path class="cls-18" d="M233.74,299.69c0-.07,0-.14,0-.22a3.21,3.21,0,0,1,.47-1.34,3.28,3.28,0,0,1,3.58-1.5s.05,0,.06,0l1.25-3.5a1,1,0,0,1,.82-.7h1.31v.68h-1.13a.35.35,0,0,0-.38.27c-.12.34-.24.69-.37,1,0,0,0,0,0,.05H245a.05.05,0,0,0,.06,0c.1-.19.19-.39.28-.58,0,0,0,0,0-.05h-1a.35.35,0,0,1-.31-.22.34.34,0,0,1,.32-.47h2.56v.69h-.79a.05.05,0,0,0-.06,0l-.45,1a.06.06,0,0,0,0,.06l.9,1.91,0,0,.31-.09a3.31,3.31,0,0,1,1.13-.08,3.26,3.26,0,0,1,2.11,1.06,3.17,3.17,0,0,1,.82,1.63,3.31,3.31,0,0,1-1,3.09,3.26,3.26,0,0,1-1.73.85l-.3,0h-.46c-.18,0-.37,0-.54-.08a3.39,3.39,0,0,1-2.52-2.77c0-.06,0-.12,0-.19h-1.45a.4.4,0,0,1-.32-.14l-.57-.66-1.53-1.75-1.33-1.53-.25-.28-.37,1h0l0,0a3.31,3.31,0,0,1,1.83,2.57,2.94,2.94,0,0,1-.06,1.18,3.32,3.32,0,0,1-1.5,2.1,3.16,3.16,0,0,1-1.33.46l-.22,0h-.42l-.5-.07a3.3,3.3,0,0,1-2.14-1.59,3.15,3.15,0,0,1-.43-1.26c0-.08,0-.15,0-.23Zm4.51-2.17,0,.05c-.21.58-.42,1.17-.62,1.75l-.23.62a.33.33,0,0,1-.41.22.34.34,0,0,1-.21-.46l.84-2.36,0,0a2.67,2.67,0,1,0,.63.23Zm6.74,2.66a2.63,2.63,0,0,0,4.94,1,2.69,2.69,0,0,0-.52-3.21,2.59,2.59,0,0,0-2.6-.57l.21.44c.29.62.59,1.25.88,1.88a.28.28,0,0,1,0,.2.34.34,0,0,1-.35.29H245Zm-5.88-5.08,3.61,4.13,1.95-4.13ZM245.9,297l-.7-1.47-1.86,3.95h1A3.43,3.43,0,0,1,245.9,297Zm-.9,2.48h2.07l-.87-1.85A2.69,2.69,0,0,0,245,299.49Z" transform="translate(-137.73 -70.99)"/><path class="cls-18" d="M233.74,322.18c0-.07,0-.15,0-.22a3.21,3.21,0,0,1,.47-1.34,3.29,3.29,0,0,1,2.09-1.51,3.13,3.13,0,0,1,1.49,0s.05,0,.06,0c.42-1.17.83-2.34,1.25-3.5a1,1,0,0,1,.82-.7h1.31v.68h-1.13a.35.35,0,0,0-.38.26c-.12.35-.24.7-.37,1,0,0,0,0,0,.05H245a.05.05,0,0,0,.06,0c.1-.19.19-.39.28-.58a.11.11,0,0,0,0-.06h-1A.33.33,0,0,1,244,316a.34.34,0,0,1,.32-.47h2.56v.68h-.79a.05.05,0,0,0-.06,0l-.45,1a.06.06,0,0,0,0,.06l.9,1.91,0,0,.31-.09a3.07,3.07,0,0,1,1.13-.08,3.26,3.26,0,0,1,2.11,1.06,3.17,3.17,0,0,1,.82,1.63,3.31,3.31,0,0,1-1,3.09,3.17,3.17,0,0,1-1.73.84l-.3,0h-.46a4.68,4.68,0,0,1-.54-.09,3.16,3.16,0,0,1-1.81-1.15,3.22,3.22,0,0,1-.71-1.61c0-.06,0-.12,0-.19h-1.45a.4.4,0,0,1-.32-.14l-.57-.66-1.53-1.75-1.33-1.53-.25-.28-.37,1h0l0,0a3.31,3.31,0,0,1,1.83,2.56,3,3,0,0,1-.06,1.19,3.3,3.3,0,0,1-2.83,2.56l-.22,0h-.42c-.17,0-.34,0-.5-.08a3.25,3.25,0,0,1-2.14-1.58,3.15,3.15,0,0,1-.43-1.26c0-.08,0-.15,0-.23Zm4.51-2.17,0,.05c-.21.58-.42,1.16-.62,1.75-.08.2-.15.41-.23.62a.33.33,0,0,1-.41.22.34.34,0,0,1-.21-.46l.84-2.36,0-.05a2.67,2.67,0,1,0,.63.23Zm6.74,2.66a2.63,2.63,0,0,0,4.94,1,2.69,2.69,0,0,0-.52-3.21,2.59,2.59,0,0,0-2.6-.57l.21.43c.29.63.59,1.26.88,1.88a.32.32,0,0,1,0,.21.34.34,0,0,1-.35.29H245Zm-5.88-5.08,3.61,4.13,1.95-4.13Zm6.79,1.91-.7-1.47-1.86,4h1A3.41,3.41,0,0,1,245.9,319.5ZM245,322h2.07l-.87-1.85A2.69,2.69,0,0,0,245,322Z" transform="translate(-137.73 -70.99)"/><path class="cls-18" d="M233.29,352l0-.22a3.33,3.33,0,0,1,2.56-2.84,3.13,3.13,0,0,1,1.49,0s0,0,.06,0l1.25-3.5a1,1,0,0,1,.82-.7h1.31v.68h-1.13a.36.36,0,0,0-.38.27c-.12.34-.25.69-.37,1,0,0,0,0,0,0h5.59s.05,0,.06,0l.28-.58,0-.05h-1a.36.36,0,0,1-.32-.22.34.34,0,0,1,.09-.37.32.32,0,0,1,.24-.09h2.56v.68h-.8a0,0,0,0,0-.05,0l-.45.95a.06.06,0,0,0,0,.06l.9,1.91,0,0,.3-.09a3.36,3.36,0,0,1,1.14-.08,3.31,3.31,0,0,1,2.11,1.06,3.37,3.37,0,0,1-.2,4.72,3.19,3.19,0,0,1-1.72.85l-.3,0h-.46c-.18,0-.37,0-.55-.08a3.33,3.33,0,0,1-2.51-2.77l0-.19h-1.44a.4.4,0,0,1-.32-.14l-.58-.66L240,350l-1.33-1.52-.25-.29-.37,1h0l0,0a3.35,3.35,0,0,1,.26,5.85,3.11,3.11,0,0,1-1.32.46l-.22,0h-.42a4.46,4.46,0,0,1-.51-.07,3.32,3.32,0,0,1-2.14-1.59,3.13,3.13,0,0,1-.42-1.26l0-.23Zm4.51-2.16,0,0c-.2.59-.41,1.17-.62,1.75-.07.21-.14.42-.22.62a.33.33,0,1,1-.62-.23l.84-2.37,0-.05a2.73,2.73,0,1,0,.62.24Zm6.75,2.65a2.63,2.63,0,0,0,4.94,1,2.67,2.67,0,0,0-.53-3.21,2.57,2.57,0,0,0-2.59-.57l.21.44c.29.62.59,1.25.88,1.88a.36.36,0,0,1,0,.21.35.35,0,0,1-.35.28h-2.6Zm-5.88-5.08,3.61,4.14,1.95-4.14Zm6.79,1.91-.7-1.47-1.86,3.95h1A3.4,3.4,0,0,1,245.46,349.34Zm-.9,2.48h2.07l-.87-1.85A2.66,2.66,0,0,0,244.56,351.82Z" transform="translate(-137.73 -70.99)"/><path class="cls-18" d="M221.55,373.47c0-.07-.05-.14-.07-.2a3.27,3.27,0,0,1-.2-1.42,3.33,3.33,0,0,1,1.17-2.3,3.12,3.12,0,0,1,1.33-.68s0,0,0-.06c-.17-1.23-.33-2.45-.49-3.68a1,1,0,0,1,.41-1l.1-.07,1-.53,0,0,.31.6,0,0-1,.5a.34.34,0,0,0-.21.41c0,.36.09.73.14,1.09,0,0,0,0,0,.05l0,0,4.93-2.56a.07.07,0,0,0,0-.07c0-.21,0-.43,0-.64a.13.13,0,0,1,0-.06l-.05,0-.83.44a.33.33,0,0,1-.38-.05.34.34,0,0,1-.09-.37.32.32,0,0,1,.17-.19l2.23-1.16,0,0,.31.6,0,0-.66.35a.05.05,0,0,0,0,.06c0,.35,0,.7,0,1a.11.11,0,0,0,0,.06l1.68,1.28,0,0a2.39,2.39,0,0,1,.23-.22,3.15,3.15,0,0,1,1-.6,3.21,3.21,0,0,1,2.36,0,3.14,3.14,0,0,1,1.47,1.07,3.37,3.37,0,0,1-.63,4.76l-.26.17,0,0-.33.18h0c-.18.06-.35.13-.53.18a3.26,3.26,0,0,1-2.13-.19,3.14,3.14,0,0,1-1.36-1.11l-.11-.15,0,0-1.23.64a.39.39,0,0,1-.35,0l-.82-.32-2.15-.84-1.88-.74-.35-.14.15,1.09h.06a3.25,3.25,0,0,1,2.79,1.43,3.36,3.36,0,0,1,.11,3.64,3.37,3.37,0,0,1-1,1l-.19.12-.33.17h0a4,4,0,0,1-.49.17,3.23,3.23,0,0,1-2.62-.41,3.4,3.4,0,0,1-1-.93l-.12-.19Zm3-4v.05c.09.62.17,1.23.25,1.84l.09.66a.33.33,0,1,1-.66.07c-.11-.82-.22-1.65-.34-2.48v-.05a2.63,2.63,0,1,0,.66-.09Zm7.21-.76a2.61,2.61,0,0,0,2.76,1.12,2.65,2.65,0,0,0,.13-5.14,2.55,2.55,0,0,0-2.56.69l.38.29,1.65,1.26a.35.35,0,0,1,.12.17.34.34,0,0,1-.18.41l-2.25,1.18Zm-7.55-1.79,5.1,2-.16-4.57Zm6.91-1.44-1.3-1,.16,4.37.85-.44A3.39,3.39,0,0,1,231.14,365.47Zm.33,2.62,1.84-1-1.62-1.24A2.69,2.69,0,0,0,231.47,368.09Z" transform="translate(-137.73 -70.99)"/><path class="cls-18" d="M199.55,352.45c0-.07,0-.14,0-.21a3.24,3.24,0,0,1,0-1.42,3.3,3.3,0,0,1,1.49-2.11,3.25,3.25,0,0,1,1.41-.48s.05,0,.05-.05c0-1.24,0-2.48.06-3.71a1,1,0,0,1,.55-.93.39.39,0,0,1,.11-.06l1.09-.37h0l.22.64-.05,0-1,.35a.34.34,0,0,0-.27.37c0,.37,0,.74,0,1.11v.05l.05,0,5.24-1.8s0,0,0-.06c0-.22.05-.43.08-.65v-.05h-.05l-.89.31a.31.31,0,0,1-.36-.1.35.35,0,0,1,0-.38.36.36,0,0,1,.2-.17l2.38-.82h0l.22.64,0,0-.71.24a.05.05,0,0,0,0,.06l-.12,1a.08.08,0,0,0,0,.05l1.47,1.52,0,0,.26-.18a3,3,0,0,1,1.05-.45,3.34,3.34,0,0,1,3.64,1.59,3.3,3.3,0,0,1,0,3.25,3.21,3.21,0,0,1-1.36,1.37l-.28.13,0,0-.35.12h-.05a4.85,4.85,0,0,1-.55.09,3.15,3.15,0,0,1-2.08-.5,3.19,3.19,0,0,1-1.18-1.29l-.09-.17,0,0-1.31.45a.42.42,0,0,1-.35,0l-.76-.44-2-1.16-1.76-1-.32-.18,0,1.1h.06a3.3,3.3,0,0,1,2.55,1.83,3.35,3.35,0,0,1-.42,3.62,3.22,3.22,0,0,1-1.1.87l-.2.1-.36.12h0a4.42,4.42,0,0,1-.5.1,3.31,3.31,0,0,1-2.54-.8,3.26,3.26,0,0,1-.81-1.06l-.09-.21Zm3.57-3.51V349l0,1.85c0,.22,0,.44,0,.67a.32.32,0,0,1-.31.33.33.33,0,0,1-.35-.36l0-2.51v-.05a2.69,2.69,0,1,0,.67,0Zm7.24.31a2.63,2.63,0,0,0,5-.69,2.68,2.68,0,0,0-1.52-2.87,2.6,2.6,0,0,0-2.64.31l.33.34,1.44,1.49a.37.37,0,0,1,.11.19.34.34,0,0,1-.24.38l-2.4.83Zm-7.2-2.89,4.75,2.73.51-4.54Zm7-.4-1.14-1.17-.48,4.35.91-.32A3.36,3.36,0,0,1,210.2,346Zm0,2.63,1.95-.67-1.42-1.46A2.66,2.66,0,0,0,210.15,348.59Z" transform="translate(-137.73 -70.99)"/><path class="cls-18" d="M196.29,323.58c0-.07,0-.14,0-.21a3.1,3.1,0,0,1,0-1.42,3.29,3.29,0,0,1,2.9-2.59s0,0,0-.05c0-1.24,0-2.48.05-3.72a1.05,1.05,0,0,1,.56-.93l.11-.05,1.09-.38h0l.22.64,0,0-1,.35a.36.36,0,0,0-.27.38c0,.37,0,.74,0,1.1a.09.09,0,0,0,0,.05h0l5.24-1.81s.05,0,.05-.06c0-.22,0-.43.07-.65a.07.07,0,0,0,0-.05h0l-.89.31a.33.33,0,0,1-.37-.1.35.35,0,0,1,0-.38.37.37,0,0,1,.2-.17l2.38-.82h0l.22.64,0,0-.71.24s0,0,0,.05l-.12,1a.11.11,0,0,0,0,.05l1.47,1.52,0,0,.27-.19a3.27,3.27,0,0,1,3.38-.13,3.2,3.2,0,0,1,1.3,1.28,3.28,3.28,0,0,1,0,3.24,3.16,3.16,0,0,1-1.36,1.37,2.24,2.24,0,0,1-.27.13l0,0-.35.12h0c-.18,0-.36.08-.55.1a3.25,3.25,0,0,1-2.08-.5,3.29,3.29,0,0,1-1.19-1.29c0-.06-.05-.12-.08-.17h-.05l-1.32.46a.43.43,0,0,1-.35,0l-.75-.44-2-1.15-1.75-1-.33-.19v1.11h0a3.29,3.29,0,0,1,2.56,1.83,3.14,3.14,0,0,1,.33,1.13,3.28,3.28,0,0,1-.75,2.48,3.13,3.13,0,0,1-1.1.88l-.2.09-.35.12h0c-.17,0-.33.08-.5.1a3.32,3.32,0,0,1-2.54-.8,3.26,3.26,0,0,1-.81-1.06l-.09-.21Zm3.57-3.52a.43.43,0,0,1,0,.05c0,.62,0,1.24,0,1.86,0,.22,0,.44,0,.66a.33.33,0,0,1-.31.34.33.33,0,0,1-.35-.36l0-2.51v-.05a2.65,2.65,0,1,0,.67,0Zm7.24.31a2.59,2.59,0,0,0,2.57,1.5,2.65,2.65,0,0,0,.88-5.06,2.58,2.58,0,0,0-2.64.3l.33.35c.49.49,1,1,1.45,1.49a.32.32,0,0,1,.1.18.35.35,0,0,1-.24.39l-2.4.83Zm-7.2-2.88,4.74,2.72.51-4.54Zm7-.42-1.14-1.16-.48,4.34.91-.31A3.42,3.42,0,0,1,206.93,317.07Zm-.05,2.64,2-.68-1.43-1.46A2.7,2.7,0,0,0,206.88,319.71Z" transform="translate(-137.73 -70.99)"/><path class="cls-18" d="M174,307a1.43,1.43,0,0,1,0-.22,3.24,3.24,0,0,1,0-1.42,3.34,3.34,0,0,1,1.54-2.07,3.28,3.28,0,0,1,1.43-.44s0,0,.05,0c0-1.24.09-2.48.14-3.71a1,1,0,0,1,.58-.92l.11-.05,1.1-.35h0l.2.65-.05,0-1,.32a.36.36,0,0,0-.28.37c0,.37,0,.74,0,1.1v.05h.05l5.28-1.68s0,0,0-.06l.09-.64a.07.07,0,0,0,0-.05h0l-.9.29A.33.33,0,0,1,182,298a.35.35,0,0,1,0-.39.32.32,0,0,1,.2-.16l2.4-.76h0l.2.65h0l-.72.23s0,0,0,.05c-.05.35-.09.69-.14,1a.07.07,0,0,0,0,.06c.47.52.95,1,1.43,1.55l0,0,.27-.18a3.3,3.3,0,0,1,1.05-.42,3.22,3.22,0,0,1,2.33.38,3.09,3.09,0,0,1,1.27,1.31,3.26,3.26,0,0,1,0,3.24,3.14,3.14,0,0,1-1.39,1.33l-.28.13,0,0-.35.11h-.05a5,5,0,0,1-.54.08,3.24,3.24,0,0,1-2.07-.55,3.19,3.19,0,0,1-1.15-1.32l-.09-.18-.05,0-1.32.42a.39.39,0,0,1-.35,0l-.75-.46-2-1.2L178,302l-.32-.2,0,1.1h0a3.34,3.34,0,0,1,2.81,3,3.33,3.33,0,0,1-.81,2.46,3.21,3.21,0,0,1-1.12.85l-.2.09-.36.11h0a4.5,4.5,0,0,1-.51.08,3.29,3.29,0,0,1-2.52-.86,3.36,3.36,0,0,1-.78-1.08l-.09-.21Zm3.65-3.43a.09.09,0,0,1,0,.05c0,.62,0,1.24-.07,1.85,0,.22,0,.45,0,.67a.34.34,0,1,1-.67,0c0-.84.07-1.68.1-2.51v-.05a2.67,2.67,0,1,0,.67,0Zm7.23.49a2.63,2.63,0,0,0,5-.57,2.67,2.67,0,0,0-1.45-2.9,2.59,2.59,0,0,0-2.65.24l.33.35,1.41,1.53a.31.31,0,0,1,.09.19.35.35,0,0,1-.25.38l-2.42.76ZM177.75,301l4.68,2.85.62-4.54Zm7.05-.24-1.11-1.19-.59,4.33.91-.29A3.4,3.4,0,0,1,184.8,300.75Zm-.12,2.64,2-.63-1.38-1.5A2.7,2.7,0,0,0,184.68,303.39Z" transform="translate(-137.73 -70.99)"/><path class="cls-18" d="M199.49,291l0-.22a3.08,3.08,0,0,1,.47-1.34,3.22,3.22,0,0,1,2.08-1.5,3.17,3.17,0,0,1,1.5,0,0,0,0,0,0,.06,0c.41-1.17.83-2.33,1.24-3.5a1,1,0,0,1,.83-.7H207v.68h-1.13a.35.35,0,0,0-.38.27c-.13.34-.25.69-.37,1l0,0h5.59s.05,0,.07,0l.27-.58,0-.05h-1a.34.34,0,0,1-.32-.22.32.32,0,0,1,.09-.37.29.29,0,0,1,.24-.09h2.56V285h-.8a.06.06,0,0,0-.06,0c-.15.32-.3.63-.44.95a.13.13,0,0,0,0,.06c.3.64.61,1.28.91,1.91v0l.31-.09a3.31,3.31,0,0,1,3.24,1,3.21,3.21,0,0,1,.82,1.63,3.28,3.28,0,0,1-1,3.09,3.19,3.19,0,0,1-1.72.85l-.31,0h-.45c-.19,0-.37,0-.55-.08a3.33,3.33,0,0,1-2.51-2.77l0-.19h-1.44a.39.39,0,0,1-.32-.14l-.58-.66-1.52-1.75-1.33-1.52-.25-.29-.37,1h0l0,0a3.32,3.32,0,0,1,1.82,2.57,3.13,3.13,0,0,1-.05,1.18,3.35,3.35,0,0,1-2.84,2.57l-.21,0h-.42a4.46,4.46,0,0,1-.51-.07,3.3,3.3,0,0,1-2.14-1.59,3.13,3.13,0,0,1-.42-1.26l0-.23Zm4.51-2.16s0,0,0,0c-.21.59-.41,1.17-.62,1.75-.07.21-.15.42-.22.62a.34.34,0,0,1-.41.22.33.33,0,0,1-.22-.45c.29-.79.57-1.58.85-2.37v-.05a2.71,2.71,0,1,0,.63.24Zm6.75,2.65a2.64,2.64,0,1,0,4.41-2.24,2.58,2.58,0,0,0-2.59-.57c.06.15.13.29.2.44.3.62.59,1.25.89,1.88a.3.3,0,0,1,0,.21.34.34,0,0,1-.35.28h-2.59Zm-5.88-5.08,3.61,4.14,1.94-4.14Zm6.79,1.91-.7-1.47-1.86,3.95h1A3.4,3.4,0,0,1,211.66,288.27Zm-.9,2.48h2.06L212,288.9A2.68,2.68,0,0,0,210.76,290.75Z" transform="translate(-137.73 -70.99)"/><path class="cls-18" d="M170.4,270.17a1.49,1.49,0,0,0,0-.21,3.35,3.35,0,0,1,.47-1.35,3.3,3.3,0,0,1,2.09-1.5,3.17,3.17,0,0,1,1.5,0s0,0,.06,0c.41-1.17.83-2.33,1.24-3.49a1,1,0,0,1,.83-.71h1.3v.68h-1.13a.35.35,0,0,0-.37.27c-.13.34-.25.69-.37,1l0,0h5.59a.07.07,0,0,0,.07,0l.27-.59,0,0h-1a.34.34,0,0,1-.32-.22.32.32,0,0,1,.09-.37.28.28,0,0,1,.23-.09h2.56v.68h-.79a.06.06,0,0,0-.06,0l-.44.95a.15.15,0,0,0,0,.06l.91,1.92v0l.31-.09a3.31,3.31,0,0,1,3.24,1,3.2,3.2,0,0,1,.82,1.64,3.27,3.27,0,0,1-1,3.08,3.15,3.15,0,0,1-1.73.85l-.3,0H184a5,5,0,0,1-.54-.08,3.3,3.3,0,0,1-1.81-1.15,3.24,3.24,0,0,1-.7-1.62l0-.19h-1.44a.39.39,0,0,1-.32-.15l-.58-.66-1.52-1.74-1.34-1.53-.24-.29-.37,1h0l0,0a3.32,3.32,0,0,1,1.82,2.57,3.12,3.12,0,0,1-.05,1.18,3.32,3.32,0,0,1-1.51,2.1,3.17,3.17,0,0,1-1.33.47l-.21,0h-.42a4.18,4.18,0,0,1-.51-.07,3.25,3.25,0,0,1-2.14-1.58,3.36,3.36,0,0,1-.43-1.27,1.79,1.79,0,0,0,0-.23Zm4.51-2.16,0,0c-.21.59-.41,1.17-.62,1.75-.08.21-.15.42-.22.63a.34.34,0,0,1-.41.21.33.33,0,0,1-.22-.45c.28-.79.56-1.58.85-2.37v0a2.62,2.62,0,0,0-3.07,1.79,2.66,2.66,0,0,0,1.64,3.3,2.65,2.65,0,0,0,2.06-4.86Zm6.75,2.65a2.63,2.63,0,0,0,4.93,1,2.66,2.66,0,0,0-.52-3.2,2.57,2.57,0,0,0-2.59-.58c.06.15.13.29.2.44l.89,1.88a.3.3,0,0,1,0,.21.34.34,0,0,1-.35.28h-2.59Zm-5.88-5.08,3.61,4.14,1.94-4.14Zm6.79,1.91-.7-1.47L180,270h1A3.4,3.4,0,0,1,182.57,267.49Zm-.91,2.48h2.07l-.87-1.85A2.73,2.73,0,0,0,181.66,270Z" transform="translate(-137.73 -70.99)"/><path class="cls-18" d="M171.41,234.25a1.5,1.5,0,0,1,0-.22,3.33,3.33,0,0,1,2.56-2.85,3.13,3.13,0,0,1,1.49,0s.05,0,.06,0c.42-1.16.83-2.33,1.25-3.49a1,1,0,0,1,.82-.7h1.31v.68h-1.13a.36.36,0,0,0-.38.27c-.12.35-.24.69-.37,1a.43.43,0,0,0,0,0h5.59a.05.05,0,0,0,.06,0c.09-.2.19-.39.28-.59,0,0,0,0,0,0h-1a.33.33,0,0,1-.31-.21.34.34,0,0,1,.32-.47h2.56v.68h-.79a.05.05,0,0,0-.06,0l-.45.95a0,0,0,0,0,0,.05l.9,1.92,0,0a2.8,2.8,0,0,1,.31-.09,3.08,3.08,0,0,1,1.13-.09,3.27,3.27,0,0,1,2.11,1.07,3,3,0,0,1,.81,1.63,3.26,3.26,0,0,1-1,3.08,3.19,3.19,0,0,1-1.73.85l-.3,0h-.46c-.18,0-.37-.05-.54-.09a3.36,3.36,0,0,1-2.52-2.76c0-.07,0-.13,0-.19h-1.45a.41.41,0,0,1-.32-.15l-.57-.66-1.53-1.74-1.33-1.53c-.08-.09-.16-.19-.25-.28l-.37,1h0l0,0A3.27,3.27,0,0,1,178,234a2.93,2.93,0,0,1-.06,1.18,3.27,3.27,0,0,1-1.5,2.1,3.17,3.17,0,0,1-1.33.47l-.22,0h-.42c-.17,0-.34,0-.5-.08a3.25,3.25,0,0,1-2.14-1.58,3.19,3.19,0,0,1-.43-1.27,1.64,1.64,0,0,1,0-.22Zm4.51-2.17s0,0,0,0c-.21.58-.42,1.16-.62,1.74l-.23.63a.33.33,0,0,1-.41.22.34.34,0,0,1-.21-.46l.84-2.36,0-.05a2.67,2.67,0,1,0,.63.23Zm6.74,2.66a2.64,2.64,0,0,0,4.94,1,2.67,2.67,0,0,0-.52-3.2,2.63,2.63,0,0,0-2.6-.58l.21.44c.29.63.59,1.25.88,1.88a.32.32,0,0,1,0,.21.34.34,0,0,1-.35.29h-2.6Zm-5.88-5.08,3.61,4.13,2-4.13Zm6.79,1.91-.7-1.47-1.86,4h1A3.39,3.39,0,0,1,183.57,231.57Zm-.9,2.48h2.07l-.87-1.85A2.67,2.67,0,0,0,182.67,234.05Z" transform="translate(-137.73 -70.99)"/><path class="cls-18" d="M186.79,200.71c0-.07.05-.14.07-.21a3.35,3.35,0,0,1,3.13-2.2,3.17,3.17,0,0,1,1.45.35s.05,0,.07,0l2-3.12a1,1,0,0,1,1-.5l.12,0,1.12.26h0l-.15.67-.05,0-1-.24a.35.35,0,0,0-.43.17c-.19.31-.39.62-.59.93,0,0,0,0,0,0h.05l5.4,1.25s.05,0,.07,0l.41-.51,0,0-.05,0-.92-.21a.33.33,0,0,1-.26-.28.35.35,0,0,1,.17-.35.37.37,0,0,1,.25,0l2.45.57h.05l-.15.66h-.05l-.73-.17s0,0-.06,0c-.22.27-.44.54-.65.82a.06.06,0,0,0,0,.06c.14.69.3,1.38.45,2.07v0h.32a3.33,3.33,0,0,1,1.13.17,3.27,3.27,0,0,1,1.81,1.52,3.07,3.07,0,0,1,.43,1.77,3.25,3.25,0,0,1-1.67,2.78,3.12,3.12,0,0,1-1.87.43l-.3,0h0l-.37-.09h0c-.17-.07-.35-.13-.51-.21a3.29,3.29,0,0,1-1.51-1.53,3.35,3.35,0,0,1-.32-1.73,1.11,1.11,0,0,1,0-.19l-.06,0-1.35-.31a.4.4,0,0,1-.28-.21l-.41-.78-1.1-2c-.31-.6-.63-1.2-1-1.79l-.18-.33-.59.92h0l0,0a3.3,3.3,0,0,1,1.2,2.92,2.94,2.94,0,0,1-.32,1.13,3.26,3.26,0,0,1-1.93,1.71,3,3,0,0,1-1.4.15l-.22,0-.37-.09h0c-.16-.07-.33-.12-.48-.19a3.3,3.3,0,0,1-1.73-2,3.15,3.15,0,0,1-.13-1.33,1.64,1.64,0,0,1,0-.22Zm4.88-1.09s0,0,0,0c-.34.52-.67,1-1,1.56l-.36.56a.34.34,0,0,1-.44.12.35.35,0,0,1-.11-.5l1.35-2.11,0,0a2.69,2.69,0,1,0,.56.37Zm6,4.11a2.64,2.64,0,0,0,4.59,2.07,2.69,2.69,0,0,0,.21-3.25,2.61,2.61,0,0,0-2.4-1.14c0,.15.07.31.1.47.15.68.29,1.35.44,2a.3.3,0,0,1,0,.21.34.34,0,0,1-.41.2l-2.47-.57Zm-4.59-6.28,2.59,4.85,2.82-3.59Zm6.18,3.4-.35-1.59-2.7,3.43.94.22A3.35,3.35,0,0,1,199.24,200.85Zm-1.43,2.21,2,.47-.43-2A2.68,2.68,0,0,0,197.81,203.06Z" transform="translate(-137.73 -70.99)"/><path class="cls-18" d="M200.09,178.66l.1-.2a3,3,0,0,1,.87-1.12,3.26,3.26,0,0,1,2.45-.77,3.1,3.1,0,0,1,1.41.49s.05,0,.07,0l2.29-2.91a1,1,0,0,1,1-.41l.12,0,1.09.37h0l-.21.64-.05,0-1-.34a.37.37,0,0,0-.45.14l-.68.86a.05.05,0,0,1,0,0l0,0,5.26,1.77a.06.06,0,0,0,.07,0l.45-.47,0,0,0,0-.89-.3a.31.31,0,0,1-.23-.3.35.35,0,0,1,.19-.33.34.34,0,0,1,.26,0l2.39.8,0,0-.22.64h0l-.71-.24a.06.06,0,0,0-.07,0l-.72.76a.11.11,0,0,0,0,.06c.08.7.17,1.4.25,2.1v0h.32a3.26,3.26,0,0,1,1.1.29,3.3,3.3,0,0,1,1.67,1.68,3.21,3.21,0,0,1,.26,1.81,3.27,3.27,0,0,1-1.93,2.6,3.1,3.1,0,0,1-1.9.25c-.1,0-.2,0-.3-.06h0l-.35-.12-.05,0c-.16-.09-.33-.16-.49-.26a3.23,3.23,0,0,1-1.35-1.67,3.26,3.26,0,0,1-.16-1.75,1.29,1.29,0,0,1,0-.19l-.06,0-1.31-.44a.39.39,0,0,1-.26-.24L208,181l-.9-2.14-.78-1.87-.14-.35-.68.87h0l0,0a3.33,3.33,0,0,1,.92,3,3,3,0,0,1-.43,1.1,3.29,3.29,0,0,1-2.09,1.51,3.15,3.15,0,0,1-1.4,0l-.21,0L202,183l0,0a4.93,4.93,0,0,1-.46-.23,3.34,3.34,0,0,1-1.53-2.18,3.19,3.19,0,0,1,0-1.34c0-.07,0-.15,0-.22Zm5-.62,0,0-1.14,1.46-.41.52a.32.32,0,0,1-.45.08.34.34,0,0,1-.06-.5l1.54-2,0,0a2.63,2.63,0,0,0-3.48.72,2.67,2.67,0,0,0,.52,3.66,2.64,2.64,0,0,0,3.48-4Zm5.57,4.67A2.63,2.63,0,0,0,215,185.2a2.68,2.68,0,0,0,.52-3.21,2.62,2.62,0,0,0-2.28-1.37l.06.48.24,2.07a.31.31,0,0,1,0,.21.34.34,0,0,1-.42.16l-2.41-.81Zm-4-6.69,2.12,5.07,3.15-3.3Zm5.84,4-.2-1.62-3,3.15.91.31A3.35,3.35,0,0,1,212.48,180Zm-1.64,2.06,2,.66-.24-2A2.66,2.66,0,0,0,210.84,182.06Z" transform="translate(-137.73 -70.99)"/><path class="cls-18" d="M266.06,327.6l0-.22a3.21,3.21,0,0,1,.47-1.34,3.29,3.29,0,0,1,2.09-1.51,3.13,3.13,0,0,1,1.49,0s.05,0,.06,0c.41-1.17.83-2.34,1.25-3.5a1,1,0,0,1,.82-.7h1.31V321h-1.13a.35.35,0,0,0-.38.26c-.12.35-.25.7-.37,1l0,.05h5.6a.05.05,0,0,0,.06,0c.09-.19.18-.39.28-.58,0,0,0,0,0-.06h-1a.34.34,0,0,1-.32-.21.35.35,0,0,1,.33-.47h2.56v.68h-.8s0,0-.06,0c-.14.32-.29.63-.44.95a.06.06,0,0,0,0,.06l.9,1.91v0l.31-.09a2.91,2.91,0,0,1,1.14-.08,3.24,3.24,0,0,1,2.1,1.06,3.17,3.17,0,0,1,.82,1.63,3.28,3.28,0,0,1-1,3.09,3.11,3.11,0,0,1-1.72.84l-.3,0h-.46a5.25,5.25,0,0,1-.55-.09,3.23,3.23,0,0,1-1.81-1.15,3.29,3.29,0,0,1-.7-1.61l0-.19h-1.44a.39.39,0,0,1-.32-.14l-.58-.66c-.5-.59-1-1.17-1.52-1.75L271.43,324l-.25-.28-.37,1h0l0,0a3.29,3.29,0,0,1,1.82,2.56,3.11,3.11,0,0,1-.05,1.18,3.33,3.33,0,0,1-1.51,2.11,3.26,3.26,0,0,1-1.32.46l-.22,0h-.42c-.17,0-.34,0-.51-.08a3.28,3.28,0,0,1-2.14-1.58,3.13,3.13,0,0,1-.42-1.26l0-.23Zm4.51-2.17s0,0,0,.05c-.2.58-.41,1.16-.62,1.75-.07.2-.15.41-.22.62a.33.33,0,1,1-.62-.24l.84-2.36v-.05a2.67,2.67,0,1,0,.63.23Zm6.75,2.66a2.63,2.63,0,0,0,4.94,1,2.67,2.67,0,0,0-.53-3.21,2.57,2.57,0,0,0-2.59-.57c.07.14.14.29.2.43.3.63.59,1.26.89,1.88a.31.31,0,0,1,0,.21.33.33,0,0,1-.35.29h-2.59ZM271.44,323l3.61,4.13L277,323Zm6.79,1.91-.7-1.47-1.86,3.95h1A3.38,3.38,0,0,1,278.23,324.92Zm-.9,2.48h2.07l-.88-1.85A2.68,2.68,0,0,0,277.33,327.4Z" transform="translate(-137.73 -70.99)"/><path class="cls-18" d="M264.39,357.44l0-.22a3.08,3.08,0,0,1,.47-1.34,3.22,3.22,0,0,1,2.08-1.5,3.17,3.17,0,0,1,1.5,0,0,0,0,0,0,.06,0c.41-1.17.83-2.33,1.24-3.5a1,1,0,0,1,.83-.7h1.31v.68h-1.14a.35.35,0,0,0-.37.27c-.13.34-.25.69-.37,1l0,0h5.59s0,0,.07,0l.27-.58,0-.05h-1a.34.34,0,0,1-.32-.22.32.32,0,0,1,.09-.37.28.28,0,0,1,.23-.09h2.56v.68h-.79a.06.06,0,0,0-.06,0c-.15.32-.3.63-.44,1a.13.13,0,0,0,0,.06c.3.64.61,1.28.91,1.91v0l.31-.09a3.31,3.31,0,0,1,1.13-.08,3.33,3.33,0,0,1,2.93,2.69,3.28,3.28,0,0,1-1,3.09,3.22,3.22,0,0,1-1.73.85l-.3,0H278c-.18,0-.36,0-.54-.08a3.33,3.33,0,0,1-2.51-2.77l0-.19h-1.44a.39.39,0,0,1-.32-.14l-.58-.66-1.52-1.75-1.34-1.52-.24-.29-.37,1h0l.05,0a3.32,3.32,0,0,1,1.82,2.57,3.13,3.13,0,0,1-.05,1.18,3.34,3.34,0,0,1-1.51,2.1,3.16,3.16,0,0,1-1.33.46l-.21,0h-.42a4.18,4.18,0,0,1-.51-.07,3.3,3.3,0,0,1-2.14-1.59,3.13,3.13,0,0,1-.42-1.26l0-.23Zm4.51-2.16s0,0,0,0c-.21.59-.41,1.17-.62,1.75-.08.21-.15.42-.22.62a.34.34,0,1,1-.63-.24c.28-.78.57-1.57.85-2.36v0a2.71,2.71,0,1,0,.63.24Zm6.75,2.65a2.64,2.64,0,1,0,4.41-2.24,2.58,2.58,0,0,0-2.59-.57c.06.15.13.29.2.44.3.62.59,1.25.89,1.88a.3.3,0,0,1,0,.21.34.34,0,0,1-.35.28h-2.59Zm-5.88-5.08,3.61,4.14,1.94-4.14Zm6.79,1.91-.7-1.47L274,357.24h1A3.4,3.4,0,0,1,276.56,354.76Zm-.9,2.48h2.06l-.87-1.85A2.68,2.68,0,0,0,275.66,357.24Z" transform="translate(-137.73 -70.99)"/><path class="cls-18" d="M282.27,363.15l.18-.13a3.12,3.12,0,0,1,1.3-.55,3.2,3.2,0,0,1,2.51.54,3,3,0,0,1,1,1.11s0,0,.07,0l3.41-1.43a1.06,1.06,0,0,1,1.07.14l.09.09.78.85,0,0-.5.45,0,0-.72-.8a.37.37,0,0,0-.45-.1l-1,.43,0,0,0,0,3.74,4.12a.06.06,0,0,0,.07,0l.62-.19.05,0,0,0-.63-.7a.3.3,0,0,1,0-.37.34.34,0,0,1,.33-.2.35.35,0,0,1,.23.12c.56.63,1.13,1.25,1.69,1.87l0,0-.5.46,0,0c-.17-.19-.34-.37-.5-.56a.06.06,0,0,0-.07,0l-1,.31s0,0,0,0c-.27.65-.53,1.31-.8,2v0l.27.17a3.09,3.09,0,0,1,.83.78,3.31,3.31,0,0,1,.64,2.29,3.16,3.16,0,0,1-.65,1.71,3.26,3.26,0,0,1-2.94,1.33,3.18,3.18,0,0,1-1.79-.72l-.23-.2,0,0-.25-.28,0,0c-.1-.15-.21-.3-.3-.46a3.26,3.26,0,0,1-.38-2.12,3.31,3.31,0,0,1,.71-1.61l.13-.15,0,0c-.31-.34-.62-.69-.94-1a.47.47,0,0,1-.11-.34c0-.29.07-.58.1-.87.09-.77.17-1.54.26-2.31s.15-1.34.22-2c0-.12,0-.24,0-.37l-1,.42h0v.05a3.33,3.33,0,0,1-.65,3.09,3.12,3.12,0,0,1-.91.75,3.28,3.28,0,0,1-2.56.3,3.11,3.11,0,0,1-1.23-.68l-.17-.14-.25-.28a.05.05,0,0,1,0,0,4,4,0,0,1-.29-.43,3.28,3.28,0,0,1-.28-2.65,3.18,3.18,0,0,1,.64-1.17l.15-.17ZM286.9,365l0,0-1.7.72-.61.25a.33.33,0,0,1-.43-.15.33.33,0,0,1,.19-.47l2.3-1,0,0a2.7,2.7,0,1,0,.25.62Zm2.6,6.81a2.64,2.64,0,1,0,4.61,1.77,2.61,2.61,0,0,0-1.32-2.31l-.18.44-.79,1.93a.37.37,0,0,1-.13.17.35.35,0,0,1-.45-.07l-1.7-1.89Zm-.23-7.79-.61,5.46,4.35-1.33Zm3.17,6.33.61-1.51-4.16,1.28.65.71A3.36,3.36,0,0,1,292.44,370.39Zm-2.43,1,1.39,1.54.77-1.9A2.66,2.66,0,0,0,290,371.39Z" transform="translate(-137.73 -70.99)"/><path class="cls-18" d="M300.35,345.91l.12-.18a3,3,0,0,1,1-1,3.26,3.26,0,0,1,2.52-.47,3.12,3.12,0,0,1,1.35.64s.05,0,.07,0c.87-.88,1.74-1.75,2.6-2.63a1,1,0,0,1,1-.29l.12.05,1,.49h0l-.28.62-.05,0-1-.46a.34.34,0,0,0-.45.09l-.77.78,0,0,0,0,5,2.36a.06.06,0,0,0,.07,0l.5-.41s0,0,0,0l0,0-.85-.4a.35.35,0,0,1-.19-.33.35.35,0,0,1,.24-.31.37.37,0,0,1,.25,0L315,345.5l0,0-.29.61,0,0-.68-.32a.06.06,0,0,0-.07,0l-.8.67,0,0c0,.71,0,1.42,0,2.12v0l.31.05a3.39,3.39,0,0,1,1.07.41A3.34,3.34,0,0,1,316,351a3.17,3.17,0,0,1,.05,1.83,3.26,3.26,0,0,1-2.21,2.36,3.15,3.15,0,0,1-1.92,0l-.29-.1h0l-.34-.16,0,0a3.7,3.7,0,0,1-.46-.31,3.32,3.32,0,0,1-1.11-3.57,1.21,1.21,0,0,1,0-.18l0,0-1.26-.59a.42.42,0,0,1-.23-.27l-.24-.84c-.21-.74-.43-1.48-.64-2.23l-.57-1.95c0-.12-.07-.24-.1-.36l-.78.78h0l0,0a3.33,3.33,0,0,1,.57,3.1,3.2,3.2,0,0,1-.55,1.05,3.27,3.27,0,0,1-2.25,1.26,3.12,3.12,0,0,1-1.39-.14l-.21-.07-.34-.17,0,0c-.14-.09-.29-.18-.43-.29a3.35,3.35,0,0,1-1.12-3.67c0-.07.05-.14.07-.21Zm5,0s0,0,0,0l-1.3,1.31-.46.47a.32.32,0,0,1-.46,0,.35.35,0,0,1,0-.51l1.75-1.78,0,0a2.7,2.7,0,1,0,.47.48Zm5,5.28a2.66,2.66,0,0,0,.81,2.89,2.63,2.63,0,0,0,3.26.09,2.66,2.66,0,0,0,.87-3.12,2.59,2.59,0,0,0-2.11-1.63c0,.16,0,.32,0,.48,0,.7,0,1.39,0,2.08a.37.37,0,0,1-.06.21.34.34,0,0,1-.44.11l-2.29-1.08Zm-3.18-7.1,1.52,5.28,3.51-2.92Zm5.34,4.62V347l-3.35,2.79.87.4A3.37,3.37,0,0,1,312.5,348.67Zm-1.86,1.86,1.87.88v-2A2.63,2.63,0,0,0,310.64,350.53Z" transform="translate(-137.73 -70.99)"/><path class="cls-18" d="M262.93,208.12a1.8,1.8,0,0,1,0-.22,3.33,3.33,0,0,1,2.56-2.84,3.13,3.13,0,0,1,1.49,0s.05,0,.06,0l1.25-3.5a1,1,0,0,1,.82-.7h1.31v.68h-1.13a.36.36,0,0,0-.38.27c-.12.34-.25.69-.37,1,0,0,0,0,0,0h5.59s.05,0,.06,0l.28-.58,0,0h-1a.34.34,0,0,1-.23-.59.32.32,0,0,1,.24-.09h2.56v.68h-.8a0,0,0,0,0,0,0l-.45.95a.06.06,0,0,0,0,.06l.9,1.91,0,0,.3-.09a3.38,3.38,0,0,1,1.14-.08,3.26,3.26,0,0,1,2.11,1.06,3.19,3.19,0,0,1,.81,1.63,3.29,3.29,0,0,1-1,3.09,3.26,3.26,0,0,1-1.73.85l-.3,0h-.46c-.18,0-.37,0-.55-.08a3.33,3.33,0,0,1-2.51-2.77,1.11,1.11,0,0,1,0-.19H272a.4.4,0,0,1-.32-.14l-.57-.66-1.53-1.75-1.33-1.52-.25-.29-.37,1h0l0,0a3.31,3.31,0,0,1,1.83,2.57,3.13,3.13,0,0,1-.06,1.18,3.31,3.31,0,0,1-1.51,2.1,3.11,3.11,0,0,1-1.32.46l-.22,0H266a4.46,4.46,0,0,1-.51-.07,3.35,3.35,0,0,1-2.14-1.59,3.13,3.13,0,0,1-.42-1.26,1.79,1.79,0,0,1,0-.23Zm4.5-2.16v0l-.63,1.75c-.07.21-.14.42-.22.62a.33.33,0,0,1-.41.22.34.34,0,0,1-.21-.46l.84-2.36,0-.05a2.73,2.73,0,1,0,.62.24Zm6.75,2.65a2.63,2.63,0,0,0,4.94,1,2.69,2.69,0,0,0-.52-3.21,2.59,2.59,0,0,0-2.6-.57l.21.44c.29.62.59,1.25.88,1.88a.36.36,0,0,1,0,.21.35.35,0,0,1-.35.28h-2.6Zm-5.88-5.08,3.61,4.14,1.95-4.14Zm6.79,1.91-.7-1.47-1.86,3.95h1A3.4,3.4,0,0,1,275.09,205.44Zm-.9,2.48h2.07l-.87-1.85A2.66,2.66,0,0,0,274.19,207.92Z" transform="translate(-137.73 -70.99)"/><path class="cls-18" d="M287,200c0-.07,0-.14,0-.21a3.21,3.21,0,0,1,.47-1.35,3.27,3.27,0,0,1,2.09-1.5,3.13,3.13,0,0,1,1.49,0s.05,0,.06,0c.42-1.16.83-2.33,1.25-3.49a1,1,0,0,1,.82-.7l.13,0h1.18v.68h-1.13a.36.36,0,0,0-.38.27c-.12.35-.24.69-.37,1a.43.43,0,0,0,0,.05h5.59a.05.05,0,0,0,.06,0c.1-.2.19-.39.28-.59a.08.08,0,0,0,0-.05h-1a.33.33,0,0,1-.31-.21.35.35,0,0,1,.08-.38.36.36,0,0,1,.24-.09h2.56v.68h-.79a.05.05,0,0,0-.06,0l-.45.94a.06.06,0,0,0,0,.06l.9,1.92,0,0,.31-.08a3.08,3.08,0,0,1,1.13-.09,3.27,3.27,0,0,1,2.11,1.07,3.13,3.13,0,0,1,.82,1.63,3.29,3.29,0,0,1-1,3.08,3.19,3.19,0,0,1-1.73.85l-.3,0h-.46c-.18,0-.37-.05-.54-.09a3.21,3.21,0,0,1-1.81-1.15,3.31,3.31,0,0,1-.71-1.61c0-.07,0-.13,0-.19H296.1a.41.41,0,0,1-.32-.15l-.57-.66L293.68,198l-1.33-1.53c-.08-.09-.16-.19-.25-.28l-.37,1h0l0,0a3.31,3.31,0,0,1,1.83,2.57,2.93,2.93,0,0,1-.06,1.18,3.27,3.27,0,0,1-1.5,2.1,3.17,3.17,0,0,1-1.33.47l-.22,0h-.42c-.17,0-.34,0-.5-.08a3.25,3.25,0,0,1-2.14-1.58,3.19,3.19,0,0,1-.43-1.27c0-.07,0-.15,0-.22Zm4.51-2.16s0,0,0,.05c-.21.58-.42,1.16-.62,1.74l-.23.63a.33.33,0,1,1-.62-.24l.84-2.37,0,0a2.67,2.67,0,1,0,.63.23Zm6.74,2.66a2.64,2.64,0,0,0,4.94,1,2.67,2.67,0,0,0-.52-3.2,2.6,2.6,0,0,0-2.6-.58l.21.44c.29.63.59,1.25.88,1.88a.32.32,0,0,1,0,.21.34.34,0,0,1-.35.29h-2.6Zm-5.87-5.08,3.6,4.13,1.95-4.13Zm6.78,1.91-.7-1.48-1.86,4h1A3.39,3.39,0,0,1,299.15,197.37Zm-.9,2.48h2.07l-.87-1.85A2.65,2.65,0,0,0,298.25,199.85Z" transform="translate(-137.73 -70.99)"/><path class="cls-18" d="M294,179.56l0-.22a3.33,3.33,0,0,1,2.56-2.84,3.13,3.13,0,0,1,1.49,0s.05,0,.06,0l1.25-3.5a1,1,0,0,1,.82-.7h1.31v.68h-1.13a.36.36,0,0,0-.38.27c-.12.34-.25.69-.37,1,0,0,0,0,0,0h5.59s.05,0,.06,0l.28-.58,0,0h-1a.33.33,0,0,1-.31-.22.32.32,0,0,1,.08-.37.32.32,0,0,1,.24-.09h2.56v.68h-.8a0,0,0,0,0-.05,0l-.45.95a.06.06,0,0,0,0,.06l.9,1.91,0,0,.3-.09a3.36,3.36,0,0,1,1.14-.08,3.31,3.31,0,0,1,2.11,1.06,3.19,3.19,0,0,1,.81,1.63,3.28,3.28,0,0,1-1,3.09,3.19,3.19,0,0,1-1.72.85l-.3,0h-.46c-.18,0-.37,0-.55-.08a3.33,3.33,0,0,1-2.51-2.77,1.11,1.11,0,0,1,0-.19h-1.45a.4.4,0,0,1-.32-.14l-.57-.66-1.53-1.75L299.34,176l-.25-.29-.37,1h0l0,0a3.31,3.31,0,0,1,1.83,2.57,3.35,3.35,0,0,1-.06,1.18,3.31,3.31,0,0,1-1.51,2.1,3.11,3.11,0,0,1-1.32.46l-.22,0h-.42a4.46,4.46,0,0,1-.51-.07,3.32,3.32,0,0,1-2.14-1.59,3.13,3.13,0,0,1-.42-1.26l0-.23Zm4.51-2.16a.08.08,0,0,1,0,0c-.2.59-.41,1.17-.62,1.75-.07.21-.14.42-.22.62a.33.33,0,0,1-.41.22.34.34,0,0,1-.21-.46l.84-2.36,0-.05a2.73,2.73,0,1,0,.62.24Zm6.75,2.65a2.63,2.63,0,0,0,4.94,1,2.69,2.69,0,0,0-.52-3.21,2.59,2.59,0,0,0-2.6-.57l.21.44c.29.62.59,1.25.88,1.88a.36.36,0,0,1,0,.21.35.35,0,0,1-.35.28h-2.6ZM299.35,175l3.61,4.14,2-4.14Zm6.79,1.91-.7-1.47-1.86,4h1A3.4,3.4,0,0,1,306.14,176.88Zm-.9,2.48h2.07l-.87-1.85A2.66,2.66,0,0,0,305.24,179.36Z" transform="translate(-137.73 -70.99)"/><path class="cls-18" d="M293.15,225.2l0-.21a3.21,3.21,0,0,1,.47-1.35,3.33,3.33,0,0,1,3.58-1.5s0,0,.06,0c.42-1.16.83-2.33,1.25-3.49a1,1,0,0,1,.82-.71h1.31v.68h-1.13a.36.36,0,0,0-.38.27c-.12.35-.25.69-.37,1,0,0,0,0,0,.05h5.6a.05.05,0,0,0,.06,0c.09-.2.19-.39.28-.59,0,0,0,0,0-.05h-1a.35.35,0,0,1-.32-.22.34.34,0,0,1,.09-.37.32.32,0,0,1,.24-.09h2.56v.68h-.8s0,0-.05,0l-.45.94a.06.06,0,0,0,0,.06l.9,1.92v0l.31-.09a3.36,3.36,0,0,1,1.14-.08,3.31,3.31,0,0,1,2.11,1.06,3.37,3.37,0,0,1-.2,4.72,3.12,3.12,0,0,1-1.72.85c-.1,0-.2,0-.3,0h-.46a5.21,5.21,0,0,1-.55-.08,3.34,3.34,0,0,1-1.81-1.15,3.29,3.29,0,0,1-.7-1.62l0-.18h-1.44a.39.39,0,0,1-.32-.15l-.58-.66-1.52-1.74-1.33-1.53c-.08-.09-.16-.19-.25-.28l-.37,1h0l0,0a3.34,3.34,0,0,1,1.77,3.75,3.28,3.28,0,0,1-1.51,2.1,3.13,3.13,0,0,1-1.32.47l-.22,0h-.42a4.46,4.46,0,0,1-.51-.07,3.28,3.28,0,0,1-2.14-1.58,3.18,3.18,0,0,1-.42-1.27l0-.23Zm4.51-2.16s0,0,0,.05c-.2.58-.41,1.16-.62,1.74l-.22.63a.33.33,0,1,1-.62-.24l.84-2.37v0a2.65,2.65,0,1,0,1.92,3.52A2.65,2.65,0,0,0,297.66,223Zm6.75,2.66a2.63,2.63,0,0,0,4.94,1,2.66,2.66,0,0,0-.53-3.2,2.56,2.56,0,0,0-2.59-.58l.21.44c.29.63.59,1.25.88,1.88a.38.38,0,0,1,0,.21.35.35,0,0,1-.35.29h-2.6Zm-5.88-5.09,3.61,4.14,1.95-4.14Zm6.79,1.92-.7-1.48-1.86,4h1A3.36,3.36,0,0,1,305.32,222.53Zm-.9,2.47h2.07l-.88-1.84A2.64,2.64,0,0,0,304.42,225Z" transform="translate(-137.73 -70.99)"/><path class="cls-18" d="M320.29,232.21a1.55,1.55,0,0,1,0-.22,3.09,3.09,0,0,1,.26-1.4,3.29,3.29,0,0,1,1.83-1.81,3.24,3.24,0,0,1,1.48-.22s0,0,0,0c.23-1.22.46-2.43.7-3.65a1,1,0,0,1,.71-.82l.12,0,1.14-.18h0l.1.67h-.05l-1.07.16a.36.36,0,0,0-.33.33l-.21,1.08v0h0l5.48-.86a.05.05,0,0,0,.06,0l.18-.62s0,0,0-.06h-.06l-.92.14a.34.34,0,0,1-.32-.55.32.32,0,0,1,.22-.12l2.49-.39h0l.11.68h-.05l-.74.12s0,0,0,0l-.3,1a.13.13,0,0,0,0,.06l1.18,1.75,0,0,.29-.13a3.33,3.33,0,0,1,1.11-.26,3.23,3.23,0,0,1,2.25.73,3.13,3.13,0,0,1,1,1.48,3.29,3.29,0,0,1-.52,3.21,3.21,3.21,0,0,1-1.58,1.1l-.29.08,0,0-.37.05h0a5,5,0,0,1-.55,0,3.34,3.34,0,0,1-2.91-2.34,1.21,1.21,0,0,1-.05-.18h-.06l-1.37.21a.41.41,0,0,1-.34-.09l-.67-.57-1.77-1.49-1.55-1.3-.29-.24-.21,1.08h.06a3.29,3.29,0,0,1,2.19,2.26,3.08,3.08,0,0,1,.13,1.17,3.33,3.33,0,0,1-1.17,2.31,3.12,3.12,0,0,1-1.24.67l-.21.06-.37.05h0c-.18,0-.35,0-.52,0a3.39,3.39,0,0,1-3-2.42l-.06-.22Zm4.12-2.83s0,0,0,.05c-.12.6-.23,1.21-.35,1.82l-.12.65a.35.35,0,0,1-.37.28.34.34,0,0,1-.28-.42c.15-.82.31-1.64.47-2.47v0a2.7,2.7,0,1,0,.66.14Zm7.07,1.58a2.64,2.64,0,1,0,4-2.9,2.61,2.61,0,0,0-2.65-.16l.27.4,1.16,1.72a.31.31,0,0,1,.07.2.34.34,0,0,1-.3.34l-2.51.39Zm-6.58-4.11,4.2,3.52,1.29-4.38Zm7,.84-.92-1.35-1.23,4.19.95-.15A3.35,3.35,0,0,1,331.9,227.69Zm-.51,2.58,2-.31-1.14-1.7A2.68,2.68,0,0,0,331.39,230.27Z" transform="translate(-137.73 -70.99)"/><path class="cls-18" d="M320.44,209.15a1.8,1.8,0,0,1,0-.22,3.12,3.12,0,0,1,.18-1.42,3.27,3.27,0,0,1,1.72-1.91,3.07,3.07,0,0,1,1.46-.3s.05,0,.06-.05c.16-1.23.32-2.45.49-3.68a1,1,0,0,1,.66-.86l.12,0,1.12-.24h0l.15.67h-.06l-1.05.22a.36.36,0,0,0-.31.35l-.15,1.09v.05h0l5.42-1.17s.05,0,.06,0l.15-.63a.15.15,0,0,1,0-.06l0,0-.92.19a.32.32,0,0,1-.35-.14.35.35,0,0,1,0-.39.32.32,0,0,1,.22-.13l2.46-.53h0l.14.66H332l-.73.16s0,0,0,.05c-.07.34-.16.68-.23,1,0,0,0,0,0,0,.42.57.85,1.13,1.28,1.69l0,0,.28-.15a3.19,3.19,0,0,1,1.09-.32,3.23,3.23,0,0,1,2.28.59,3.13,3.13,0,0,1,1.14,1.43,3.34,3.34,0,0,1-1.85,4.42l-.29.1h0l-.36.08h-.05a4.93,4.93,0,0,1-.55,0,3.31,3.31,0,0,1-3-2.17,1.34,1.34,0,0,0-.07-.18h-.05l-1.36.3a.42.42,0,0,1-.34-.08l-.7-.52-1.85-1.39-1.62-1.21-.31-.22-.14,1.09h.05a3.28,3.28,0,0,1,2.32,2.12,3.12,3.12,0,0,1,.19,1.17,3.32,3.32,0,0,1-1,2.37,3.23,3.23,0,0,1-1.2.73l-.21.07-.37.08h0l-.51,0a3.26,3.26,0,0,1-2.42-1.1,3.05,3.05,0,0,1-.68-1.15,1.72,1.72,0,0,1-.07-.21Zm3.95-3.07v0c-.09.61-.17,1.22-.25,1.84l-.09.65a.32.32,0,0,1-.35.3.33.33,0,0,1-.3-.4l.33-2.49V206a2.69,2.69,0,1,0,.66.1Zm7.16,1.17a2.62,2.62,0,0,0,5-.09,2.66,2.66,0,0,0-1.18-3,2.59,2.59,0,0,0-2.65,0c.1.13.19.26.29.38l1.26,1.66a.41.41,0,0,1,.08.19.36.36,0,0,1-.29.36l-2.48.53Zm-6.81-3.72,4.39,3.28,1-4.46Zm7,.43-1-1.29-1,4.26.94-.2A3.41,3.41,0,0,1,331.77,204Zm-.36,2.62,2-.44-1.24-1.62A2.71,2.71,0,0,0,331.41,206.58Z" transform="translate(-137.73 -70.99)"/><path class="cls-18" d="M298.21,254.48l0-.22a3.08,3.08,0,0,1,.47-1.34,3.29,3.29,0,0,1,2.08-1.51,3.17,3.17,0,0,1,1.5,0,0,0,0,0,0,.06,0c.41-1.17.83-2.34,1.25-3.5a1,1,0,0,1,.82-.7h1.31v.68H304.6a.35.35,0,0,0-.38.26c-.13.35-.25.7-.37,1l0,.05h5.59a.07.07,0,0,0,.07,0c.09-.19.18-.39.28-.58,0,0,0,0,0-.06h-1a.33.33,0,0,1-.32-.21.34.34,0,0,1,.09-.38.32.32,0,0,1,.24-.09h2.56v.68h-.8s0,0-.06,0c-.15.32-.3.63-.44,1a.06.06,0,0,0,0,.06l.9,1.91v0l.31-.09a3.07,3.07,0,0,1,1.13-.08,3.24,3.24,0,0,1,2.11,1.06,3.17,3.17,0,0,1,.82,1.63,3.28,3.28,0,0,1-1,3.09,3.11,3.11,0,0,1-1.72.84l-.31,0h-.45a4.85,4.85,0,0,1-.55-.09,3.2,3.2,0,0,1-1.81-1.15,3.29,3.29,0,0,1-.7-1.61l0-.19h-1.44a.39.39,0,0,1-.32-.14l-.58-.66-1.52-1.75-1.33-1.53c-.08-.09-.17-.18-.25-.28l-.37,1h0l0,0a3.32,3.32,0,0,1,1.82,2.56,3.11,3.11,0,0,1-.05,1.18,3.31,3.31,0,0,1-2.84,2.57l-.21,0h-.42c-.17,0-.34,0-.51-.08a3.28,3.28,0,0,1-2.14-1.58,3.13,3.13,0,0,1-.42-1.26l0-.23Zm4.51-2.17s0,0,0,.05c-.21.58-.41,1.16-.62,1.75-.07.2-.15.41-.22.62a.33.33,0,1,1-.62-.24l.84-2.36v0a2.67,2.67,0,1,0,.63.23Zm6.75,2.66a2.64,2.64,0,1,0,4.41-2.24,2.58,2.58,0,0,0-2.59-.57c.07.14.13.29.2.43.3.63.59,1.26.89,1.88a.31.31,0,0,1,0,.21.34.34,0,0,1-.35.29h-2.59Zm-5.88-5.08L307.2,254l1.95-4.13Zm6.79,1.91-.7-1.47-1.86,3.95h1A3.38,3.38,0,0,1,310.38,251.8Zm-.9,2.48h2.06l-.87-1.85A2.68,2.68,0,0,0,309.48,254.28Z" transform="translate(-137.73 -70.99)"/><path class="cls-18" d="M269.28,269.6l0-.22a3.33,3.33,0,0,1,2.56-2.85,3.13,3.13,0,0,1,1.49,0s.05,0,.06,0c.42-1.16.83-2.33,1.25-3.49a1,1,0,0,1,.82-.7h1.31V263h-1.13a.36.36,0,0,0-.38.27c-.12.35-.25.69-.37,1,0,0,0,0,0,.05h5.6a.05.05,0,0,0,.06,0c.09-.2.19-.39.28-.59,0,0,0,0,0-.05h-1a.34.34,0,0,1-.32-.21.35.35,0,0,1,.33-.47h2.56v.68h-.8s0,0-.05,0l-.45.95a0,0,0,0,0,0,.05l.9,1.92v0l.31-.09a3.13,3.13,0,0,1,1.14-.09,3.29,3.29,0,0,1,2.11,1.07,3.23,3.23,0,0,1,.81,1.63,3.28,3.28,0,0,1-1,3.09,3.11,3.11,0,0,1-1.72.84l-.3,0h-.46c-.18,0-.37-.05-.55-.09a3.33,3.33,0,0,1-2.51-2.76l0-.19H278.4a.39.39,0,0,1-.32-.15l-.58-.66L276,267.54,274.65,266l-.25-.28-.37,1h0l0,0a3.3,3.3,0,0,1,1.83,2.56,3.34,3.34,0,0,1-.06,1.18,3.28,3.28,0,0,1-1.51,2.1,3.13,3.13,0,0,1-1.32.47l-.22,0h-.42c-.17,0-.34,0-.51-.08a3.28,3.28,0,0,1-2.14-1.58,3.13,3.13,0,0,1-.42-1.27l0-.22Zm4.51-2.17s0,0,0,.05c-.2.58-.41,1.16-.62,1.74l-.22.63a.34.34,0,0,1-.41.22.34.34,0,0,1-.21-.46l.84-2.36v-.05a2.65,2.65,0,1,0,1.92,3.53A2.66,2.66,0,0,0,273.79,267.43Zm6.75,2.66a2.64,2.64,0,0,0,4.94,1,2.67,2.67,0,0,0-.53-3.21,2.57,2.57,0,0,0-2.59-.57l.21.43c.29.63.59,1.26.88,1.88a.39.39,0,0,1,0,.21.34.34,0,0,1-.35.29h-2.6ZM274.66,265l3.61,4.13,2-4.13Zm6.79,1.91-.7-1.47-1.86,3.95h1A3.36,3.36,0,0,1,281.45,266.92Zm-.9,2.48h2.07l-.88-1.85A2.68,2.68,0,0,0,280.55,269.4Z" transform="translate(-137.73 -70.99)"/><path class="cls-18" d="M298.21,289l0-.22a3.08,3.08,0,0,1,.47-1.34,3.29,3.29,0,0,1,2.08-1.51,3.17,3.17,0,0,1,1.5,0s0,0,.06,0c.41-1.16.83-2.33,1.25-3.49a1,1,0,0,1,.82-.7h1.31v.68H304.6a.35.35,0,0,0-.38.26c-.13.35-.25.7-.37,1l0,.05h5.59a.07.07,0,0,0,.07,0c.09-.2.18-.39.28-.58,0,0,0,0,0-.06h-1a.33.33,0,0,1-.32-.21.34.34,0,0,1,.09-.38.32.32,0,0,1,.24-.09h2.56v.68h-.8s0,0-.06,0c-.15.32-.3.63-.44.95a.06.06,0,0,0,0,.06L311,286v0l.31-.09a2.87,2.87,0,0,1,1.13-.08,3.24,3.24,0,0,1,2.11,1.06,3.17,3.17,0,0,1,.82,1.63,3.28,3.28,0,0,1-1,3.09,3.11,3.11,0,0,1-1.72.84l-.31,0h-.45a4.85,4.85,0,0,1-.55-.09,3.2,3.2,0,0,1-1.81-1.15,3.29,3.29,0,0,1-.7-1.61l0-.19h-1.44a.39.39,0,0,1-.32-.14c-.19-.23-.39-.44-.58-.66L304.91,287l-1.33-1.53c-.08-.09-.17-.18-.25-.28l-.37,1h0l0,0a3.32,3.32,0,0,1,1.82,2.56,3.11,3.11,0,0,1-.05,1.18,3.31,3.31,0,0,1-2.84,2.57l-.21,0h-.42c-.17,0-.34,0-.51-.08a3.28,3.28,0,0,1-2.14-1.58,3.13,3.13,0,0,1-.42-1.26l0-.23Zm4.51-2.17,0,.05c-.21.58-.41,1.16-.62,1.75-.07.2-.15.41-.22.62a.33.33,0,1,1-.62-.24l.84-2.36v-.05a2.67,2.67,0,1,0,.63.23Zm6.75,2.66a2.64,2.64,0,1,0,4.41-2.24,2.58,2.58,0,0,0-2.59-.57c.07.14.13.29.2.43.3.63.59,1.26.89,1.88a.31.31,0,0,1,0,.21.34.34,0,0,1-.35.29h-2.59Zm-5.88-5.08,3.61,4.13,1.95-4.13Zm6.79,1.91-.7-1.47-1.86,3.95h1A3.36,3.36,0,0,1,310.38,286.35Zm-.9,2.48h2.06l-.87-1.85A2.68,2.68,0,0,0,309.48,288.83Z" transform="translate(-137.73 -70.99)"/><path class="cls-18" d="M322.22,274.52a1.67,1.67,0,0,0,.08-.2,3.35,3.35,0,0,1,3.25-2,3.14,3.14,0,0,1,1.43.43s0,0,.07,0l2.17-3a1,1,0,0,1,1-.44.53.53,0,0,1,.12,0l1.11.32h0l-.19.65,0,0-1-.3a.36.36,0,0,0-.44.15l-.64.9,0,0h.05l5.32,1.56a.06.06,0,0,0,.07,0c.14-.16.29-.32.43-.49l0,0-.06,0-.9-.26a.33.33,0,0,1-.24-.29.34.34,0,0,1,.19-.34.36.36,0,0,1,.25,0l2.42.71h0l-.19.65h-.05l-.71-.21a.06.06,0,0,0-.07,0l-.69.78a.14.14,0,0,0,0,.06c.11.7.23,1.39.34,2.09v0h.32a3.08,3.08,0,0,1,1.12.24,3.32,3.32,0,0,1,1.73,1.61,3.21,3.21,0,0,1,.33,1.8,3.27,3.27,0,0,1-1.83,2.68,3.16,3.16,0,0,1-1.89.33l-.3-.05h0l-.35-.1-.05,0c-.16-.08-.34-.14-.5-.24a3.32,3.32,0,0,1-1.64-3.36,1.1,1.1,0,0,1,0-.18l-.05,0-1.33-.39a.39.39,0,0,1-.27-.23l-.37-.79c-.33-.7-.65-1.41-1-2.11s-.57-1.22-.85-1.84a3.54,3.54,0,0,1-.16-.34l-.65.89h0l0,0a3.28,3.28,0,0,1,1,3,3,3,0,0,1-.38,1.12,3.32,3.32,0,0,1-2,1.6,3.15,3.15,0,0,1-1.4.07l-.21,0-.37-.11,0,0a4.81,4.81,0,0,1-.46-.22,3.26,3.26,0,0,1-1.62-2.12,3.14,3.14,0,0,1-.05-1.33l0-.22Zm4.93-.81,0,0-1.08,1.5-.39.54a.32.32,0,0,1-.45.09.34.34,0,0,1-.08-.5c.49-.68,1-1.35,1.46-2l0,0a2.61,2.61,0,0,0-3.44.86,2.65,2.65,0,0,0,.66,3.63,2.64,2.64,0,0,0,3.32-4.09Zm5.74,4.44a2.63,2.63,0,0,0,1.24,2.72,2.61,2.61,0,0,0,3.23-.41,2.65,2.65,0,0,0,.39-3.22,2.6,2.6,0,0,0-2.33-1.28c0,.16.05.32.08.48l.33,2.05a.39.39,0,0,1,0,.21.34.34,0,0,1-.42.18l-2.43-.71Zm-4.23-6.53,2.32,5,3-3.42Zm6,3.74-.26-1.61L331.5,277l.92.27A3.42,3.42,0,0,1,334.64,275.36Zm-1.55,2.13,2,.58-.33-2A2.67,2.67,0,0,0,333.09,277.49Z" transform="translate(-137.73 -70.99)"/><path class="cls-18" d="M327.5,254.93l.06-.21a3.2,3.2,0,0,1,.67-1.26,3.24,3.24,0,0,1,2.29-1.16,3.21,3.21,0,0,1,1.47.23s.05,0,.07,0l1.76-3.26a1.05,1.05,0,0,1,.92-.57h.13l1.14.18h0l-.11.67h-.05l-1.06-.17a.36.36,0,0,0-.42.21c-.17.32-.35.64-.52,1l0,0h.05l5.47.85s.05,0,.07,0l.36-.53,0,0h-.06l-.92-.14a.33.33,0,0,1-.28-.26.34.34,0,0,1,.14-.36.31.31,0,0,1,.25,0l2.48.38h.05l-.11.67h0l-.74-.12s-.05,0-.06,0l-.59.87s0,0,0,0l.6,2v0l.32,0a3.31,3.31,0,0,1,1.13.1,3.33,3.33,0,0,1,2.48,3.11A3.28,3.28,0,0,1,343,260a3.2,3.2,0,0,1-1.83.57l-.3,0h0l-.36-.06-.05,0a5.25,5.25,0,0,1-.52-.17,3.23,3.23,0,0,1-1.62-1.41,3.3,3.3,0,0,1-.44-1.7V257h-.06l-1.37-.22a.39.39,0,0,1-.29-.19l-.47-.74-1.24-2-1.08-1.72-.21-.31-.52,1h0l0,0a3.35,3.35,0,0,1-.64,5.82,3.26,3.26,0,0,1-1.38.26h-.22l-.37-.06h0c-.16-.06-.33-.09-.49-.16a3.36,3.36,0,0,1-2.1-3.21c0-.07,0-.15,0-.22Zm4.78-1.45,0,.05c-.29.54-.59,1.08-.88,1.63l-.32.58a.33.33,0,1,1-.57-.33c.39-.74.79-1.47,1.19-2.21l0,0a2.68,2.68,0,1,0,.58.32Zm6.27,3.67a2.63,2.63,0,0,0,4.73,1.72,2.69,2.69,0,0,0,0-3.25,2.58,2.58,0,0,0-2.48-1l.14.47c.2.66.39,1.33.59,2a.3.3,0,0,1,0,.21.34.34,0,0,1-.39.23l-2.51-.39Zm-5-5.93,2.94,4.65,2.55-3.79Zm6.42,2.94-.47-1.56L337,256.21l1,.15A3.36,3.36,0,0,1,339.93,254.16Zm-1.27,2.31,2,.32-.58-2A2.67,2.67,0,0,0,338.66,256.47Z" transform="translate(-137.73 -70.99)"/><path class="cls-18" d="M289.29,320.45a1.49,1.49,0,0,1,0-.21,3.21,3.21,0,0,1,.47-1.35,3.33,3.33,0,0,1,3.58-1.5s.05,0,.06,0c.42-1.16.83-2.33,1.25-3.49a1,1,0,0,1,.82-.71h1.31v.68h-1.13a.36.36,0,0,0-.38.27c-.12.35-.24.69-.37,1a.2.2,0,0,0,0,.05h5.59a.05.05,0,0,0,.06,0c.09-.2.19-.39.28-.59,0,0,0,0,0-.05h-1a.34.34,0,0,1-.31-.21.35.35,0,0,1,.08-.38.36.36,0,0,1,.24-.09h2.56v.68h-.8s0,0-.05,0l-.45.94a.06.06,0,0,0,0,.06l.9,1.92,0,0,.31-.09a3.31,3.31,0,0,1,3.24,1,3.11,3.11,0,0,1,.81,1.64,3.28,3.28,0,0,1-1,3.08,3.19,3.19,0,0,1-1.73.85c-.1,0-.2,0-.3,0h-.46a5.21,5.21,0,0,1-.55-.08,3.34,3.34,0,0,1-1.81-1.15,3.29,3.29,0,0,1-.7-1.62,1.1,1.1,0,0,1,0-.18H298.4a.41.41,0,0,1-.32-.15l-.57-.66L296,318.4l-1.33-1.53c-.08-.09-.16-.19-.25-.28l-.37,1h0l0,0a3.31,3.31,0,0,1,1.83,2.57,2.93,2.93,0,0,1-.06,1.18,3.3,3.3,0,0,1-1.5,2.1A3.17,3.17,0,0,1,293,324l-.22,0h-.42a4.46,4.46,0,0,1-.51-.07,3.3,3.3,0,0,1-2.14-1.58,3.18,3.18,0,0,1-.42-1.27,1.64,1.64,0,0,1,0-.23Zm4.5-2.16s0,0,0,0l-.63,1.74c-.07.21-.14.42-.22.63a.33.33,0,1,1-.62-.24l.84-2.37,0,0a2.68,2.68,0,1,0,.62.23Zm6.75,2.66a2.64,2.64,0,0,0,4.94,1,2.67,2.67,0,0,0-.52-3.2,2.6,2.6,0,0,0-2.6-.58l.21.44c.29.63.59,1.25.88,1.88a.38.38,0,0,1,0,.21.35.35,0,0,1-.35.29h-2.6Zm-5.88-5.09,3.61,4.14,2-4.14Zm6.79,1.92-.7-1.48-1.86,4h1A3.36,3.36,0,0,1,301.45,317.78Zm-.9,2.47h2.07l-.87-1.84A2.62,2.62,0,0,0,300.55,320.25Z" transform="translate(-137.73 -70.99)"/><path class="cls-18" d="M319.75,311.27c0-.07.06-.14.08-.2a3.22,3.22,0,0,1,.79-1.19,3.29,3.29,0,0,1,2.39-.94,3.23,3.23,0,0,1,1.45.38s0,0,.06,0l2.07-3.07a1,1,0,0,1,1-.48l.12,0,1.12.29h0l-.17.66h-.05l-1-.27a.34.34,0,0,0-.43.17l-.62.91,0,0,0,0,5.37,1.37s0,0,.08,0,.27-.33.41-.5l0,0-.05,0-.91-.23a.33.33,0,0,1-.25-.28.35.35,0,0,1,.17-.35.39.39,0,0,1,.26,0l2.44.63h0l-.17.66h0l-.73-.19s0,0-.06,0l-.67.81a.07.07,0,0,0,0,.06c.13.69.26,1.38.4,2.08v0h.32a3.08,3.08,0,0,1,1.12.2,3.26,3.26,0,0,1,1.78,1.55,3.2,3.2,0,0,1,.39,1.79,3.29,3.29,0,0,1-1.74,2.74,3.15,3.15,0,0,1-1.88.39l-.3,0h0l-.36-.09,0,0c-.17-.07-.35-.13-.51-.21a3.34,3.34,0,0,1-1.47-1.57,3.24,3.24,0,0,1-.28-1.74,1.37,1.37,0,0,1,0-.19h-.06l-1.34-.35a.39.39,0,0,1-.28-.22l-.39-.78-1.05-2.07-.92-1.81-.17-.34-.61.92h0l0,0a3.32,3.32,0,0,1,1.14,2.94,3.15,3.15,0,0,1-.34,1.13,3.33,3.33,0,0,1-2,1.66,3,3,0,0,1-1.4.12l-.22,0-.36-.09,0,0a4.89,4.89,0,0,1-.48-.2,3.3,3.3,0,0,1-1.68-2.06,3.15,3.15,0,0,1-.1-1.33l0-.23Zm4.91-1,0,0-1,1.54-.37.55a.33.33,0,1,1-.55-.38l1.4-2.09,0,0a2.67,2.67,0,1,0,.56.38Zm5.88,4.26a2.64,2.64,0,0,0,4.55,2.16,2.68,2.68,0,0,0,.28-3.24,2.61,2.61,0,0,0-2.37-1.2l.09.48.39,2a.3.3,0,0,1,0,.21.34.34,0,0,1-.41.19l-2.46-.63Zm-4.45-6.39,2.48,4.9,2.91-3.52Zm6.11,3.54-.31-1.6-2.78,3.37.93.24A3.37,3.37,0,0,1,332.2,311.7Zm-1.48,2.18,2,.51-.39-2A2.68,2.68,0,0,0,330.72,313.88Z" transform="translate(-137.73 -70.99)"/><path class="cls-18" d="M269.66,302.16l0-.22a3.21,3.21,0,0,1,.47-1.34,3.28,3.28,0,0,1,3.58-1.5s.05,0,.06,0l1.25-3.5a1,1,0,0,1,.82-.7h1.31v.68h-1.13a.35.35,0,0,0-.38.27l-.37,1s0,0,0,.05h5.6a.05.05,0,0,0,.06,0l.28-.58,0,0h-1a.34.34,0,0,1-.23-.6.36.36,0,0,1,.24-.09h2.56v.68H282s0,0,0,0l-.45.95a.06.06,0,0,0,0,.06l.9,1.91v0l.31-.09a3.36,3.36,0,0,1,1.14-.08,3.35,3.35,0,0,1,1.91,5.78,3.19,3.19,0,0,1-1.72.85l-.3,0h-.46c-.18,0-.37,0-.55-.08a3.36,3.36,0,0,1-2.51-2.77l0-.19h-1.44a.4.4,0,0,1-.32-.14l-.58-.66-1.52-1.75L275,298.57l-.25-.28-.37,1h0l0,0a3.35,3.35,0,0,1,.26,5.85,3.11,3.11,0,0,1-1.32.46l-.22,0h-.42l-.51-.07a3.32,3.32,0,0,1-2.14-1.59,3.13,3.13,0,0,1-.42-1.26l0-.23Zm4.51-2.16,0,0c-.2.58-.41,1.17-.62,1.75-.07.21-.15.41-.22.62a.33.33,0,0,1-.41.22.34.34,0,0,1-.21-.46l.84-2.36v-.05a2.71,2.71,0,1,0,.63.24Zm6.75,2.65a2.63,2.63,0,0,0,4.94,1,2.67,2.67,0,0,0-.53-3.21,2.57,2.57,0,0,0-2.59-.57l.21.44c.29.62.59,1.25.88,1.88a.33.33,0,0,1-.31.49h-2.6ZM275,297.57l3.61,4.13,2-4.13Zm6.79,1.91-.7-1.47L279.27,302h1A3.4,3.4,0,0,1,281.83,299.48Zm-.9,2.48H283l-.88-1.85A2.68,2.68,0,0,0,280.93,302Z" transform="translate(-137.73 -70.99)"/><path class="cls-18" d="M269.06,241.93l0-.21a3.21,3.21,0,0,1,.47-1.35,3.33,3.33,0,0,1,3.58-1.5s.05,0,.06,0c.42-1.16.83-2.33,1.25-3.49a1,1,0,0,1,.82-.7l.13,0h1.18v.68h-1.13a.36.36,0,0,0-.38.27c-.12.35-.25.69-.37,1a.43.43,0,0,0,0,0h5.59a.05.05,0,0,0,.06,0c.09-.2.19-.39.28-.59,0,0,0,0,0,0h-1a.34.34,0,0,1-.31-.21.33.33,0,0,1,.08-.38.36.36,0,0,1,.24-.09h2.56V236h-.8s0,0-.05,0l-.45.94a.06.06,0,0,0,0,.06l.9,1.92,0,0,.3-.09a3.36,3.36,0,0,1,1.14-.08,3.31,3.31,0,0,1,2.11,1.06,3.18,3.18,0,0,1,.81,1.64,3.27,3.27,0,0,1-1,3.08,3.12,3.12,0,0,1-1.72.85l-.3,0h-.46a5.21,5.21,0,0,1-.55-.08,3.33,3.33,0,0,1-2.51-2.77l0-.18h-.05c-.46,0-.93,0-1.39,0a.41.41,0,0,1-.32-.15l-.57-.66-1.53-1.74-1.33-1.53c-.08-.09-.16-.19-.25-.28l-.37,1h0l0,0a3.31,3.31,0,0,1,1.83,2.57,3.34,3.34,0,0,1-.06,1.18,3.28,3.28,0,0,1-1.51,2.1,3.13,3.13,0,0,1-1.32.47l-.22,0h-.42a4.46,4.46,0,0,1-.51-.07,3.28,3.28,0,0,1-2.14-1.58,3.18,3.18,0,0,1-.42-1.27l0-.23Zm4.51-2.16s0,0,0,0c-.2.58-.41,1.16-.62,1.74-.07.21-.14.42-.22.63a.33.33,0,1,1-.62-.24l.84-2.37,0,0a2.68,2.68,0,1,0,.62.23Zm6.75,2.66a2.64,2.64,0,0,0,4.94,1,2.66,2.66,0,0,0-.53-3.2,2.58,2.58,0,0,0-2.59-.58l.21.44c.29.63.59,1.25.88,1.88a.38.38,0,0,1,0,.21.35.35,0,0,1-.35.29h-2.6Zm-5.88-5.08,3.61,4.13,1.95-4.13Zm6.79,1.91-.7-1.48-1.86,4h1A3.36,3.36,0,0,1,281.23,239.26Zm-.9,2.47h2.07l-.87-1.84A2.62,2.62,0,0,0,280.33,241.73Z" transform="translate(-137.73 -70.99)"/><path class="cls-19" d="M320.88,97.39" transform="translate(-137.73 -70.99)"/><ellipse class="cls-20" cx="123.44" cy="60.68" rx="47.21" ry="60.68"/><rect class="cls-21" x="235.11" y="108.31" width="22.71" height="14.12" rx="4.43" ry="4.43" transform="translate(355.2 159.76) rotate(180)"/><rect class="cls-22" x="264.7" y="108.31" width="22.71" height="14.12" rx="4.43" ry="4.43" transform="translate(414.39 159.76) rotate(180)"/><ellipse class="cls-23" cx="108.74" cy="44.39" rx="2.25" ry="2.8"/><ellipse class="cls-23" cx="138.33" cy="44.39" rx="2.25" ry="2.8"/><path class="cls-24" d="M214.51,120.46l20-33.81s36.65,6.39,50.47,0l21.23,29.82s-5.68-24.9-19.08-35.11c-9.37-7.13-12.15-7.58-13-8.07a5.91,5.91,0,0,0-2.53-.67c-4.62-1.47-20-4.07-35.37,7.12C217.76,93.21,214.51,120.46,214.51,120.46Z" transform="translate(-137.73 -70.99)"/><path class="cls-25" d="M285,86.77l21,29.53s-5.61-24.67-18.89-34.77C285.87,80.57,288.94,83,285,86.77Z" transform="translate(-137.73 -70.99)"/><path class="cls-26" d="M307.39,140.49s-43.78,59.65-94,0c0,0,5.33,50.23,47.21,53C260.57,193.45,300.81,194.83,307.39,140.49Z" transform="translate(-137.73 -70.99)"/><line class="cls-19" x1="110.99" y1="92.2" x2="136.07" y2="92.2"/><path class="cls-27" d="M248.72,163.19a22.94,22.94,0,0,1,6.27-2,35.88,35.88,0,0,1,6.27-.54,34.93,34.93,0,0,1,6.27.53,23,23,0,0,1,6.27,2,22.94,22.94,0,0,1-6.27,2,35.88,35.88,0,0,1-6.27.54,36.89,36.89,0,0,1-6.27-.55A23.26,23.26,0,0,1,248.72,163.19Z" transform="translate(-137.73 -70.99)"/><line class="cls-19" x1="109.62" y1="92.2" x2="137.69" y2="92.2"/><path class="cls-28" d="M247.35,163.19c2.34-.16,4.68-.23,7-.29s4.68-.06,7-.09,4.67,0,7,.09,4.68.13,7,.29c-2.34.15-4.68.22-7,.28s-4.67.06-7,.09-4.68,0-7-.09S249.69,163.34,247.35,163.19Z" transform="translate(-137.73 -70.99)"/><polyline class="cls-29" points="128.8 74.85 124.01 76.32 118.26 74.64 123 52.5"/><polyline class="cls-30" points="124.01 76.32 118.26 74.64 123 52.5"/><path class="cls-20" d="M264.05,115.21s-2.43-3.19-5.57,0" transform="translate(-137.73 -70.99)"/><path class="cls-31" d="M264,115.24a8.68,8.68,0,0,0-2.72-.54,5.46,5.46,0,0,0-1.2.15c-.23.05-.46.13-.73.19a5.09,5.09,0,0,1-.85.2l-.07-.07.6-.55a7.92,7.92,0,0,1,.67-.46,3.41,3.41,0,0,1,1.56-.46,3.73,3.73,0,0,1,2.82,1.48Z" transform="translate(-137.73 -70.99)"/><ellipse class="cls-32" cx="138.33" cy="44.39" rx="1.15" ry="1.43"/><ellipse class="cls-32" cx="108.74" cy="44.39" rx="1.15" ry="1.43"/><path class="cls-33" d="M213.36,140.49s12.2,37.25,29,46.84C242.34,187.33,222.84,184.54,213.36,140.49Z" transform="translate(-137.73 -70.99)"/></svg>