<svg id="Layer_1" data-name="Layer 1" xmlns="http://www.w3.org/2000/svg" xmlns:xlink="http://www.w3.org/1999/xlink" viewBox="0 0 251.54 417.9"><defs><style>.cls-1{fill:#e4e1c7;}.cls-2{fill:#512e2a;}.cls-3,.cls-4{fill:#9e2b20;}.cls-14,.cls-23,.cls-4,.cls-6{stroke:#231f20;}.cls-14,.cls-15,.cls-16,.cls-17,.cls-21,.cls-22,.cls-23,.cls-32,.cls-4,.cls-6,.cls-8{stroke-miterlimit:10;}.cls-5{fill:#231f20;}.cls-16,.cls-6,.cls-8{fill:none;}.cls-23,.cls-6{stroke-width:0.25px;}.cls-7{fill:#c2b59b;}.cls-8{stroke:#9b8579;}.cls-9{fill:#b1a58e;}.cls-10{fill:#9b8579;}.cls-11{fill:#1e4496;}.cls-12,.cls-17{fill:#234093;}.cls-13{fill:#124b9a;}.cls-14,.cls-15,.cls-20,.cls-21,.cls-22,.cls-23{fill:#fff;}.cls-15{stroke:#f9a560;}.cls-16{stroke:#283c91;}.cls-17{stroke:#262262;stroke-width:0.5px;}.cls-18{fill:#fff200;}.cls-19{fill:#d1d3d4;}.cls-21{stroke:url(#White_Black);}.cls-22{stroke:url(#White_Black-2);}.cls-24{fill:#fde79e;}.cls-25{fill:#fbeac8;}.cls-26{fill:#e5e1c5;}.cls-27{fill:#f9c9de;}.cls-28{fill:#8d536f;}.cls-29{fill:#e3e2db;}.cls-30{fill:#d0cca8;}.cls-31{fill:url(#White_Black-3);}.cls-32{fill:#2e3192;stroke:#00aeef;}.cls-33{fill:#cfcdb4;}</style><linearGradient id="White_Black" x1="265.16" y1="115.37" x2="288.88" y2="115.37" gradientTransform="matrix(1, 0, 0, -1, -30.55, 230.75)" gradientUnits="userSpaceOnUse"><stop offset="0" stop-color="#fff"/><stop offset="1" stop-color="#231f20"/></linearGradient><linearGradient id="White_Black-2" x1="235.57" y1="115.37" x2="259.28" y2="115.37" gradientTransform="matrix(1, 0, 0, -1, 28.63, 230.75)" xlink:href="#White_Black"/><linearGradient id="White_Black-3" x1="264.45" y1="114.47" x2="258.12" y2="114.47" gradientTransform="matrix(1, 0, 0, 1, 0, 0)" xlink:href="#White_Black"/></defs><title>8</title><polyline class="cls-1" points="148.58 334.96 141.97 400.24 134.53 399.87 133.78 334.22"/><polyline class="cls-1" points="102.47 334.96 109.08 400.24 116.52 399.87 117.26 334.22"/><path class="cls-2" d="M230.77,475.18s-20.25,10.71-7.52,12.21l12.73,1.5h16.19s6.73-4.74,6.73-11.59" transform="translate(-134.17 -70.99)"/><path class="cls-2" d="M286.2,475.18s20.24,10.71,7.52,12.21L281,488.89H264.8s-5.9-4.74-5.9-11.59" transform="translate(-134.17 -70.99)"/><path class="cls-3" d="M244.2,470.46s-33.1,10.7-20.38,12.2l12.73,1.49h16.19s6.16,0,6.16-6.85l-7.23-6.23h-.53" transform="translate(-134.17 -70.99)"/><path class="cls-3" d="M266.6,470.13l-7.39,7.17c0,6.85,6.16,6.85,6.16,6.85h16.19l12.73-1.49c12.73-1.5-18.15-12.21-18.15-12.21" transform="translate(-134.17 -70.99)"/><path class="cls-4" d="M259.31,477" transform="translate(-134.17 -70.99)"/><path class="cls-5" d="M270.57,414.52v2.22a3.22,3.22,0,0,1,0,.62,3.21,3.21,0,0,0,0-.62v-2.22a2.57,2.57,0,0,1,0-.62,2.57,2.57,0,0,0,0,.62Z" transform="translate(-134.17 -70.99)"/><path class="cls-5" d="M275.4,418.15v1.21a3.22,3.22,0,0,1,0,.62,3.2,3.2,0,0,0,0-.62v-1.21a3.22,3.22,0,0,1,0-.62,3.2,3.2,0,0,0,0,.62Z" transform="translate(-134.17 -70.99)"/><path class="cls-5" d="M277,422v1.21a2.57,2.57,0,0,1,0,.62,2.57,2.57,0,0,0,0-.62V422a3.33,3.33,0,0,1,0-.63,3.32,3.32,0,0,0,0,.63Z" transform="translate(-134.17 -70.99)"/><path class="cls-5" d="M280,421.78v.2a3.22,3.22,0,0,1,0,.62,3.21,3.21,0,0,0,0-.62v-.2a2.66,2.66,0,0,1,0-.63,2.66,2.66,0,0,0,0,.63Z" transform="translate(-134.17 -70.99)"/><path class="cls-5" d="M274,429.86s0-1.25,0-1.25,0,1.25,0,1.25Z" transform="translate(-134.17 -70.99)"/><path class="cls-5" d="M271.38,422v1.41a3.21,3.21,0,0,1,0,.62,3.21,3.21,0,0,0,0-.62V422a3.33,3.33,0,0,1,0-.63,3.32,3.32,0,0,0,0,.63Z" transform="translate(-134.17 -70.99)"/><path class="cls-5" d="M271.58,431v1.62a2.57,2.57,0,0,1,0,.62,2.57,2.57,0,0,0,0-.62V431a3.21,3.21,0,0,1,0-.62,3.21,3.21,0,0,0,0,.62Z" transform="translate(-134.17 -70.99)"/><path class="cls-5" d="M277.82,434.07v.6a3.33,3.33,0,0,1,0,.63,3.32,3.32,0,0,0,0-.63v-.6a3.33,3.33,0,0,1,0-.63,3.32,3.32,0,0,0,0,.63Z" transform="translate(-134.17 -70.99)"/><path class="cls-5" d="M275.81,436.28v1.62a2.57,2.57,0,0,1,0,.62,2.57,2.57,0,0,0,0-.62v-1.62a3.21,3.21,0,0,1,0-.62,3.21,3.21,0,0,0,0,.62Z" transform="translate(-134.17 -70.99)"/><path class="cls-5" d="M273.19,437.29v1a2.57,2.57,0,0,1,0,.62,2.57,2.57,0,0,0,0-.62v-1a3.22,3.22,0,0,1,0-.62,3.21,3.21,0,0,0,0,.62Z" transform="translate(-134.17 -70.99)"/><path class="cls-5" d="M271.17,437.49v.2a3.33,3.33,0,0,1,0,.63,3.32,3.32,0,0,0,0-.63v-.2a3.22,3.22,0,0,1,0-.62,3.21,3.21,0,0,0,0,.62Z" transform="translate(-134.17 -70.99)"/><path class="cls-5" d="M270.77,441.72v1a3.32,3.32,0,0,1,0,.63,3.31,3.31,0,0,0,0-.63v-1a2.57,2.57,0,0,1,0-.62,2.57,2.57,0,0,0,0,.62Z" transform="translate(-134.17 -70.99)"/><path class="cls-5" d="M276.82,443.34v.6a3.21,3.21,0,0,1,0,.62,3.2,3.2,0,0,0,0-.62v-.6a3.33,3.33,0,0,1,0-.63,3.32,3.32,0,0,0,0,.63Z" transform="translate(-134.17 -70.99)"/><path class="cls-5" d="M274.8,446v.21a3.21,3.21,0,0,1,0,.62,3.21,3.21,0,0,0,0-.62V446a2.57,2.57,0,0,1,0-.62,2.57,2.57,0,0,0,0,.62Z" transform="translate(-134.17 -70.99)"/><path class="cls-5" d="M272,449v1.21a3.21,3.21,0,0,1,0,.62,3.21,3.21,0,0,0,0-.62V449a2.66,2.66,0,0,1,0-.63,2.66,2.66,0,0,0,0,.63Z" transform="translate(-134.17 -70.99)"/><path class="cls-5" d="M276,451.6v.2a3.22,3.22,0,0,1,0,.62,3.21,3.21,0,0,0,0-.62v-.2a2.66,2.66,0,0,1,0-.63,2.66,2.66,0,0,0,0,.63Z" transform="translate(-134.17 -70.99)"/><path class="cls-5" d="M272.59,454.24s0-1.25,0-1.25,0,1.25,0,1.25Z" transform="translate(-134.17 -70.99)"/><path class="cls-5" d="M279.64,412.71v.81a3.21,3.21,0,0,1,0,.62,2.57,2.57,0,0,0,0-.62v-.81a3.22,3.22,0,0,1,0-.62,3.21,3.21,0,0,0,0,.62Z" transform="translate(-134.17 -70.99)"/><path class="cls-5" d="M272,411.1s0-1.25,0-1.25,0,1.25,0,1.25Z" transform="translate(-134.17 -70.99)"/><path class="cls-5" d="M276,409.9v-1.25s0,1.25,0,1.25Z" transform="translate(-134.17 -70.99)"/><path class="cls-5" d="M275.61,410.7v.6a3.21,3.21,0,0,1,0,.62,2.56,2.56,0,0,0,0-.62v-.6a3.33,3.33,0,0,1,0-.63,3.32,3.32,0,0,0,0,.63Z" transform="translate(-134.17 -70.99)"/><path class="cls-5" d="M280.64,408.88v1a3.22,3.22,0,0,1,0,.62,3.2,3.2,0,0,0,0-.62v-1a3.22,3.22,0,0,1,0-.62,3.21,3.21,0,0,0,0,.62Z" transform="translate(-134.17 -70.99)"/><path class="cls-5" d="M244.38,409.27v.4a3.31,3.31,0,0,1,0,.63,2.66,2.66,0,0,0,0-.63v-.4a3.22,3.22,0,0,1,0-.62,3.21,3.21,0,0,0,0,.62Z" transform="translate(-134.17 -70.99)"/><path class="cls-5" d="M248.82,409.31v-1.25s0,1.25,0,1.25Z" transform="translate(-134.17 -70.99)"/><path class="cls-6" d="M281.56,414a2,2,0,0,0,.64,2.18" transform="translate(-134.17 -70.99)"/><path class="cls-6" d="M281.53,411.07a2,2,0,0,1,.7,1.62" transform="translate(-134.17 -70.99)"/><path class="cls-6" d="M277,411.75a1.07,1.07,0,0,1-.55,1.22" transform="translate(-134.17 -70.99)"/><path class="cls-6" d="M271.39,411.94v1.5" transform="translate(-134.17 -70.99)"/><path class="cls-6" d="M268.77,411.19a2.15,2.15,0,0,1-.82,1.44" transform="translate(-134.17 -70.99)"/><path class="cls-6" d="M267.94,409.13a2.32,2.32,0,0,1-.5,1.48" transform="translate(-134.17 -70.99)"/><path class="cls-6" d="M268.58,414.84a3.35,3.35,0,0,0-.86,1.78" transform="translate(-134.17 -70.99)"/><path class="cls-6" d="M269.44,420a2.06,2.06,0,0,1-.49,1.12" transform="translate(-134.17 -70.99)"/><path class="cls-6" d="M272.49,416.26a1.31,1.31,0,0,1-.23,1.23" transform="translate(-134.17 -70.99)"/><path class="cls-6" d="M275.91,415.75a6.64,6.64,0,0,1,1.1.88" transform="translate(-134.17 -70.99)"/><path class="cls-6" d="M278.6,420.28l.48.65" transform="translate(-134.17 -70.99)"/><path class="cls-6" d="M274.48,420v.93" transform="translate(-134.17 -70.99)"/><path class="cls-6" d="M280.6,422.7a1.34,1.34,0,0,1,.24,1.13" transform="translate(-134.17 -70.99)"/><path class="cls-6" d="M279.72,426.09l.86,1.3" transform="translate(-134.17 -70.99)"/><path class="cls-6" d="M273,424.86a2.8,2.8,0,0,1-.91,1.34" transform="translate(-134.17 -70.99)"/><path class="cls-6" d="M269.52,425a1.92,1.92,0,0,1-1,1.71" transform="translate(-134.17 -70.99)"/><path class="cls-6" d="M269.24,431.15a1.72,1.72,0,0,1-.38,1.11" transform="translate(-134.17 -70.99)"/><path class="cls-6" d="M274.86,429.46v1" transform="translate(-134.17 -70.99)"/><path class="cls-6" d="M276.45,429.28a1,1,0,0,1,.75.46" transform="translate(-134.17 -70.99)"/><path class="cls-6" d="M280.1,430.78l.84.47" transform="translate(-134.17 -70.99)"/><path class="cls-6" d="M279.48,432.75a2.32,2.32,0,0,0,.61,2.25" transform="translate(-134.17 -70.99)"/><path class="cls-6" d="M268.61,434.85a2.07,2.07,0,0,1-1.06.27" transform="translate(-134.17 -70.99)"/><path class="cls-5" d="M248.69,415.35v2.21a3.33,3.33,0,0,1,0,.63,3.32,3.32,0,0,0,0-.63v-2.21a3.33,3.33,0,0,1,0-.63,3.32,3.32,0,0,0,0,.63Z" transform="translate(-134.17 -70.99)"/><path class="cls-5" d="M243.86,419v1.21a2.66,2.66,0,0,1,0,.63,2.66,2.66,0,0,0,0-.63V419a3.21,3.21,0,0,1,0-.62,3.21,3.21,0,0,0,0,.62Z" transform="translate(-134.17 -70.99)"/><path class="cls-5" d="M242.25,422.8V424a2.66,2.66,0,0,1,0,.63,2.66,2.66,0,0,0,0-.63V422.8a3.21,3.21,0,0,1,0-.62,3.21,3.21,0,0,0,0,.62Z" transform="translate(-134.17 -70.99)"/><path class="cls-5" d="M239.22,422.6v.2a3.33,3.33,0,0,1,0,.63,3.32,3.32,0,0,0,0-.63v-.2a3.22,3.22,0,0,1,0-.62,3.21,3.21,0,0,0,0,.62Z" transform="translate(-134.17 -70.99)"/><path class="cls-5" d="M245.28,430.68v-1.25s0,1.25,0,1.25Z" transform="translate(-134.17 -70.99)"/><path class="cls-5" d="M247.89,422.8v1.41a2.66,2.66,0,0,1,0,.63,2.66,2.66,0,0,0,0-.63V422.8a3.21,3.21,0,0,1,0-.62,3.21,3.21,0,0,0,0,.62Z" transform="translate(-134.17 -70.99)"/><path class="cls-5" d="M247.69,431.87v1.61a2.66,2.66,0,0,1,0,.63,2.66,2.66,0,0,0,0-.63v-1.61a3.32,3.32,0,0,1,0-.63,3.31,3.31,0,0,0,0,.63Z" transform="translate(-134.17 -70.99)"/><path class="cls-5" d="M241.44,434.89v.61a3.21,3.21,0,0,1,0,.62,3.21,3.21,0,0,0,0-.62v-.61a2.57,2.57,0,0,1,0-.62,2.57,2.57,0,0,0,0,.62Z" transform="translate(-134.17 -70.99)"/><path class="cls-5" d="M243.46,437.11v1.61a3.21,3.21,0,0,1,0,.62,2.56,2.56,0,0,0,0-.62v-1.61a3.33,3.33,0,0,1,0-.63,3.32,3.32,0,0,0,0,.63Z" transform="translate(-134.17 -70.99)"/><path class="cls-5" d="M246.07,438.12v1a3.33,3.33,0,0,1,0,.63,3.32,3.32,0,0,0,0-.63v-1a3.33,3.33,0,0,1,0-.63,3.32,3.32,0,0,0,0,.63Z" transform="translate(-134.17 -70.99)"/><path class="cls-5" d="M248.09,438.32v.2a3.22,3.22,0,0,1,0,.62,3.21,3.21,0,0,0,0-.62v-.2a2.66,2.66,0,0,1,0-.63,2.66,2.66,0,0,0,0,.63Z" transform="translate(-134.17 -70.99)"/><path class="cls-5" d="M248.49,442.55v1a3.21,3.21,0,0,1,0,.62,3.21,3.21,0,0,0,0-.62v-1a3.33,3.33,0,0,1,0-.63,3.32,3.32,0,0,0,0,.63Z" transform="translate(-134.17 -70.99)"/><path class="cls-5" d="M242.45,444.16v.6a2.66,2.66,0,0,1,0,.63,2.66,2.66,0,0,0,0-.63v-.6a3.32,3.32,0,0,1,0-.63,3.32,3.32,0,0,0,0,.63Z" transform="translate(-134.17 -70.99)"/><path class="cls-5" d="M244.46,446.78v.2a3.32,3.32,0,0,1,0,.63,3.32,3.32,0,0,0,0-.63v-.2a3.32,3.32,0,0,1,0-.63,3.32,3.32,0,0,0,0,.63Z" transform="translate(-134.17 -70.99)"/><path class="cls-5" d="M247.28,449.8V451a3.32,3.32,0,0,1,0,.63,3.32,3.32,0,0,0,0-.63V449.8a3.22,3.22,0,0,1,0-.62,3.21,3.21,0,0,0,0,.62Z" transform="translate(-134.17 -70.99)"/><path class="cls-5" d="M243.25,452.42v.2a3.33,3.33,0,0,1,0,.63,3.32,3.32,0,0,0,0-.63v-.2a3.22,3.22,0,0,1,0-.62,3.2,3.2,0,0,0,0,.62Z" transform="translate(-134.17 -70.99)"/><path class="cls-5" d="M246.69,455.06s0-1.25,0-1.25,0,1.25,0,1.25Z" transform="translate(-134.17 -70.99)"/><path class="cls-5" d="M239.63,413.53v.81a2.66,2.66,0,0,1,0,.63,2.66,2.66,0,0,0,0-.63v-.81a3.21,3.21,0,0,1,0-.62,3.21,3.21,0,0,0,0,.62Z" transform="translate(-134.17 -70.99)"/><path class="cls-5" d="M247.29,409.93s0-1.25,0-1.25,0,1.25,0,1.25Z" transform="translate(-134.17 -70.99)"/><path class="cls-5" d="M243.26,410.72s0-1.25,0-1.25,0,1.25,0,1.25Z" transform="translate(-134.17 -70.99)"/><path class="cls-5" d="M243.66,411.52v.6a2.66,2.66,0,0,1,0,.63,2.66,2.66,0,0,0,0-.63v-.6a3.32,3.32,0,0,1,0-.63,3.32,3.32,0,0,0,0,.63Z" transform="translate(-134.17 -70.99)"/><path class="cls-5" d="M238.62,409.71v1a3.33,3.33,0,0,1,0,.63,3.31,3.31,0,0,0,0-.63v-1a2.66,2.66,0,0,1,0-.63,2.66,2.66,0,0,0,0,.63Z" transform="translate(-134.17 -70.99)"/><path class="cls-6" d="M237.72,414.84a2,2,0,0,1-.64,2.19" transform="translate(-134.17 -70.99)"/><path class="cls-6" d="M237.74,411.89a2,2,0,0,0-.7,1.62" transform="translate(-134.17 -70.99)"/><path class="cls-6" d="M242.28,412.58a1.07,1.07,0,0,0,.54,1.22" transform="translate(-134.17 -70.99)"/><path class="cls-6" d="M247.88,412.76v1.5" transform="translate(-134.17 -70.99)"/><path class="cls-6" d="M250.5,412a2.14,2.14,0,0,0,.82,1.44" transform="translate(-134.17 -70.99)"/><path class="cls-6" d="M251.34,410a2.3,2.3,0,0,0,.49,1.49" transform="translate(-134.17 -70.99)"/><path class="cls-6" d="M250.7,415.66a3.26,3.26,0,0,1,.85,1.78" transform="translate(-134.17 -70.99)"/><path class="cls-6" d="M249.84,420.82a2,2,0,0,0,.49,1.12" transform="translate(-134.17 -70.99)"/><path class="cls-6" d="M246.78,417.08a1.33,1.33,0,0,0,.24,1.23" transform="translate(-134.17 -70.99)"/><path class="cls-6" d="M243.37,416.57a6.74,6.74,0,0,0-1.1.88" transform="translate(-134.17 -70.99)"/><path class="cls-6" d="M240.68,421.11l-.48.64" transform="translate(-134.17 -70.99)"/><path class="cls-6" d="M244.79,420.82v.94" transform="translate(-134.17 -70.99)"/><path class="cls-6" d="M238.68,423.52a1.37,1.37,0,0,0-.25,1.14" transform="translate(-134.17 -70.99)"/><path class="cls-6" d="M239.55,426.91l-.85,1.31" transform="translate(-134.17 -70.99)"/><path class="cls-6" d="M246.3,425.69a2.87,2.87,0,0,0,.91,1.33" transform="translate(-134.17 -70.99)"/><path class="cls-6" d="M249.75,425.79a1.92,1.92,0,0,0,1,1.71" transform="translate(-134.17 -70.99)"/><path class="cls-6" d="M250,432a1.7,1.7,0,0,0,.39,1.12" transform="translate(-134.17 -70.99)"/><path class="cls-6" d="M244.42,430.28v1" transform="translate(-134.17 -70.99)"/><path class="cls-6" d="M242.83,430.1a1.06,1.06,0,0,0-.76.46" transform="translate(-134.17 -70.99)"/><path class="cls-6" d="M239.18,431.61l-.85.46" transform="translate(-134.17 -70.99)"/><path class="cls-6" d="M239.79,433.57a2.33,2.33,0,0,1-.6,2.26" transform="translate(-134.17 -70.99)"/><path class="cls-6" d="M250.67,435.67a2,2,0,0,0,1.05.27" transform="translate(-134.17 -70.99)"/><polygon class="cls-7" points="96.33 336.55 157.45 336.55 174.31 271.16 79.47 271.16 96.33 336.55"/><line class="cls-8" x1="126.39" y1="283.69" x2="126.39" y2="336.55"/><path class="cls-9" d="M222.77,354l13.13,53.16h-5.72l-15.43-61S221.14,352.69,222.77,354Z" transform="translate(-134.17 -70.99)"/><path class="cls-9" d="M287.42,379.87l4.12,3.08,7.76-5.21L302,376l-1.37-3.24s-8.69,7.63-13.18,7.16l-2,15.94s8.32-.17,10.46-4.74l3.3-12.8" transform="translate(-134.17 -70.99)"/><path class="cls-10" d="M287.42,379.87l4.16,3h-.08c3.44-2.39,6.91-4.73,10.38-7.08l-.06.19-1.38-3.23.27.06a51.79,51.79,0,0,1-6.13,4.59,25,25,0,0,1-3.38,1.83,8.1,8.1,0,0,1-3.81.85l.27-.21c-.65,5.31-1.38,10.62-2.06,15.93l-.2-.21a22.56,22.56,0,0,0,3-.33,16.59,16.59,0,0,0,2.87-.75,9.83,9.83,0,0,0,2.62-1.34,6.17,6.17,0,0,0,1.9-2.19v0c1.1-4.27,2.3-8.52,3.44-12.77-1.06,4.28-2.07,8.57-3.17,12.84h0a6.5,6.5,0,0,1-2,2.32,10.6,10.6,0,0,1-2.69,1.4,16.26,16.26,0,0,1-2.91.79,20.27,20.27,0,0,1-3,.36h-.22l0-.23c.65-5.31,1.27-10.63,2-15.94l0-.23.23,0a7.7,7.7,0,0,0,3.58-.78,25.53,25.53,0,0,0,3.35-1.77,52.61,52.61,0,0,0,6.12-4.5l.18-.16.09.22,1.35,3.25.06.12-.11.07c-3.49,2.32-7,4.65-10.49,6.92l0,0,0,0Z" transform="translate(-134.17 -70.99)"/><path class="cls-9" d="M234.84,379.87,230.73,383,223,377.74,220.29,376l1.37-3.24s8.69,7.63,13.18,7.16l2,15.94s-8.32-.17-10.46-4.74l-3.3-12.8" transform="translate(-134.17 -70.99)"/><path class="cls-10" d="M234.84,379.87,230.76,383l0,0,0,0c-3.51-2.27-7-4.6-10.48-6.92l-.11-.07.05-.12,1.35-3.25.09-.22.19.16a51.77,51.77,0,0,0,6.12,4.5,25.41,25.41,0,0,0,3.34,1.77,7.7,7.7,0,0,0,3.58.78l.23,0,0,.23c.69,5.31,1.31,10.63,2,15.94l0,.23h-.23a20.14,20.14,0,0,1-3-.36,16.59,16.59,0,0,1-2.92-.79,10.6,10.6,0,0,1-2.69-1.4,6.6,6.6,0,0,1-2-2.32h0c-1.1-4.27-2.11-8.56-3.16-12.84,1.14,4.25,2.33,8.5,3.43,12.77v0a6.26,6.26,0,0,0,1.9,2.19,10,10,0,0,0,2.62,1.34,16.83,16.83,0,0,0,2.87.75,22.76,22.76,0,0,0,3,.33l-.19.21c-.69-5.31-1.41-10.62-2.06-15.93l.26.21a8.12,8.12,0,0,1-3.81-.85,25.64,25.64,0,0,1-3.38-1.83,51.79,51.79,0,0,1-6.13-4.59l.27-.06L220.44,376l-.06-.19c3.47,2.35,6.94,4.69,10.38,7.08h-.07Z" transform="translate(-134.17 -70.99)"/><path class="cls-9" d="M261.06,369.14a52.19,52.19,0,0,0,7.2-.5l-.86,38.89h-6.34Z" transform="translate(-134.17 -70.99)"/><path class="cls-11" d="M306.72,159.22s129.38,19.42,57,177.92l-19.23-10.62" transform="translate(-134.17 -70.99)"/><path class="cls-12" d="M213.16,159.22s-129.37,19.42-57,177.92l19.23-10.62" transform="translate(-134.17 -70.99)"/><ellipse class="cls-13" cx="126.23" cy="196.11" rx="96.42" ry="123.25"/><path class="cls-14" d="M206.76,350.53" transform="translate(-134.17 -70.99)"/><path class="cls-15" d="M159.15,335.73s6,11.31,22.78,7.6l1.56-1,.33-.36s-7.95-14-8.28-16.33" transform="translate(-134.17 -70.99)"/><path class="cls-15" d="M361.94,336.94s-6,11.31-22.78,7.6l-1.56-1-.33-.37s8-14,8.27-16.32" transform="translate(-134.17 -70.99)"/><polyline class="cls-16" points="126.79 317.92 126.79 108.84 140.69 122.26 167.2 95.12"/><path class="cls-17" d="M195.73,224.45s-10.31,23.31-5.93,33.41l11.72,7.38,14.29-5.05,6.56-33.41" transform="translate(-134.17 -70.99)"/><polyline class="cls-16" points="124.82 317.92 124.82 108.84 110.92 122.26 84.41 95.12"/><path class="cls-18" d="M213.32,190.31c0-.07.05-.14.07-.21a3.47,3.47,0,0,1,.79-1.23,3.38,3.38,0,0,1,2.45-1,3.22,3.22,0,0,1,1.49.37s0,0,.07,0l2.08-3.2a1,1,0,0,1,1-.5l.13,0,1.15.27h0l-.16.68,0,0-1.08-.25a.36.36,0,0,0-.44.17c-.21.32-.41.64-.62,1l0,0h0l5.55,1.33a.07.07,0,0,0,.08,0l.41-.52,0-.05h-.06l-.94-.22a.35.35,0,0,1-.26-.29.35.35,0,0,1,.18-.36.29.29,0,0,1,.26,0l2.51.6h.05l-.16.68h-.05l-.75-.18a.06.06,0,0,0-.07,0c-.22.29-.44.56-.67.85,0,0,0,0,0,.05l.45,2.14v0l.33,0a3.53,3.53,0,0,1,1.16.19,3.42,3.42,0,0,1,1.86,1.57,3.26,3.26,0,0,1,.42,1.83,3.35,3.35,0,0,1-1.74,2.85,3.24,3.24,0,0,1-1.93.43l-.31,0h0l-.37-.09h0l-.53-.22a3.45,3.45,0,0,1-1.86-3.37c0-.07,0-.13,0-.2h-.05l-1.4-.33a.43.43,0,0,1-.28-.23l-.42-.8-1.11-2.11-1-1.85-.18-.34-.62,1h0l0,0a3.4,3.4,0,0,1,1.22,3,3.22,3.22,0,0,1-.34,1.17,3.41,3.41,0,0,1-2,1.74,3.35,3.35,0,0,1-1.44.14l-.22,0-.38-.09,0,0c-.17-.07-.34-.12-.49-.2a3.4,3.4,0,0,1-1.77-2.1,3.16,3.16,0,0,1-.12-1.37l0-.23Zm5-1.08,0,0c-.34.53-.69,1.06-1,1.6-.13.19-.25.38-.37.57a.34.34,0,0,1-.46.12.35.35,0,0,1-.11-.51c.47-.72.94-1.44,1.4-2.16l0,0a2.71,2.71,0,0,0-3.5,1.06,2.72,2.72,0,1,0,4.07-.67Zm6.13,4.28a2.71,2.71,0,0,0,4.71,2.15,2.75,2.75,0,0,0,.24-3.33,2.67,2.67,0,0,0-2.46-1.2c0,.16.06.33.1.49.15.7.29,1.39.44,2.09a.41.41,0,0,1,0,.22.34.34,0,0,1-.42.2l-2.53-.61Zm-4.68-6.5,2.63,5,2.93-3.67Zm6.34,3.55-.35-1.65-2.8,3.51,1,.23A3.45,3.45,0,0,1,226.13,190.56Zm-1.49,2.26,2.07.5-.43-2.06A2.72,2.72,0,0,0,224.64,192.82Z" transform="translate(-134.17 -70.99)"/><path class="cls-18" d="M219,214.57l0-.23a3.13,3.13,0,0,1,.48-1.38,3.37,3.37,0,0,1,2.15-1.55,3.3,3.3,0,0,1,1.53,0s0,0,.07,0c.42-1.19.85-2.39,1.28-3.59a1.05,1.05,0,0,1,.85-.72h1.34v.7h-1.16a.36.36,0,0,0-.39.28l-.38,1.07s0,0,0,.05h5.76a.08.08,0,0,0,.07,0c.09-.21.19-.41.28-.61,0,0,0,0,0-.05h-1a.35.35,0,0,1-.32-.22.35.35,0,0,1,.33-.48h2.64v.7h-.82a.05.05,0,0,0-.06,0l-.46,1a.06.06,0,0,0,0,.06l.93,2v0l.32-.09a3.28,3.28,0,0,1,1.17-.09,3.4,3.4,0,0,1,2.17,1.1,3.28,3.28,0,0,1,.84,1.68,3.39,3.39,0,0,1-1,3.17,3.27,3.27,0,0,1-1.78.88l-.31,0H233a5,5,0,0,1-.56-.09,3.33,3.33,0,0,1-1.86-1.18,3.41,3.41,0,0,1-.73-1.66c0-.06,0-.13,0-.2h-1.49a.39.39,0,0,1-.33-.14c-.19-.23-.39-.46-.59-.68l-1.57-1.8-1.37-1.57-.25-.29-.39,1.07h0l.05,0a3.37,3.37,0,0,1,1.87,2.64,3.28,3.28,0,0,1-.05,1.21,3.43,3.43,0,0,1-1.55,2.16,3.22,3.22,0,0,1-1.37.48l-.22,0h-.43a4.51,4.51,0,0,1-.53-.08,3.39,3.39,0,0,1-2.2-1.62,3.22,3.22,0,0,1-.43-1.31l0-.23Zm4.64-2.23,0,0c-.21.6-.43,1.2-.64,1.79l-.23.65a.34.34,0,0,1-.42.22.35.35,0,0,1-.22-.47l.87-2.43s0,0,0-.05a2.76,2.76,0,1,0,.65.24Zm6.94,2.73a2.73,2.73,0,0,0,2,2.34,2.7,2.7,0,0,0,3.08-1.34,2.75,2.75,0,0,0-.53-3.3,2.66,2.66,0,0,0-2.67-.59l.21.45.91,1.93a.41.41,0,0,1,0,.22.36.36,0,0,1-.37.29h-2.67Zm-6-5.22,3.72,4.25,2-4.25Zm7,2-.72-1.51-1.92,4.06h1A3.49,3.49,0,0,1,231.48,211.81Zm-.93,2.55h2.13l-.9-1.9A2.77,2.77,0,0,0,230.55,214.36Z" transform="translate(-134.17 -70.99)"/><path class="cls-18" d="M229.17,238.87a1.79,1.79,0,0,1,0-.23,3.27,3.27,0,0,1,.49-1.38,3.37,3.37,0,0,1,3.68-1.54s0,0,.06,0l1.29-3.59a1.05,1.05,0,0,1,.84-.72l.13,0h1.22v.7h-1.16a.36.36,0,0,0-.39.28c-.13.35-.26.71-.38,1.07,0,0,0,0,0,0h5.75s.06,0,.07,0c.09-.2.19-.4.29-.6a.17.17,0,0,1,0-.05h-1a.34.34,0,0,1-.32-.22.35.35,0,0,1,.08-.39.38.38,0,0,1,.25-.09h2.63v.7h-.82s0,0,0,0c-.16.32-.31.65-.46,1a.06.06,0,0,0,0,.06c.3.66.61,1.32.92,2l0,0,.32-.09a3.24,3.24,0,0,1,1.16-.09,3.36,3.36,0,0,1,2.17,1.1,3.24,3.24,0,0,1,.84,1.68,3.36,3.36,0,0,1-1,3.17,3.26,3.26,0,0,1-1.78.87l-.31,0h-.47a5,5,0,0,1-.56-.09,3.36,3.36,0,0,1-1.87-1.18,3.4,3.4,0,0,1-.72-1.66l0-.2h-1.48a.39.39,0,0,1-.33-.15l-.59-.67-1.57-1.8-1.37-1.57-.26-.29-.38,1.06h0l0,0a3.38,3.38,0,0,1,1.88,2.64,3.09,3.09,0,0,1-.06,1.21,3.36,3.36,0,0,1-1.55,2.16,3.17,3.17,0,0,1-1.36.48l-.22,0h-.44c-.17,0-.35,0-.52-.08a3.35,3.35,0,0,1-2.2-1.63,3.29,3.29,0,0,1-.44-1.3,1.79,1.79,0,0,1,0-.23Zm4.64-2.23s0,0,0,.05c-.22.6-.43,1.19-.64,1.79-.08.22-.16.43-.23.65a.35.35,0,0,1-.42.22.34.34,0,0,1-.22-.47c.29-.81.58-1.62.86-2.43l0,0a2.76,2.76,0,1,0,.65.24Zm6.94,2.73a2.71,2.71,0,0,0,5.08,1,2.75,2.75,0,0,0-.54-3.3,2.64,2.64,0,0,0-2.67-.59l.21.45c.31.64.61,1.29.92,1.93a.33.33,0,0,1,0,.22.34.34,0,0,1-.36.29h-2.67Zm-6.05-5.23,3.71,4.26,2-4.26Zm7,2L241,234.6l-1.92,4.06h1A3.49,3.49,0,0,1,241.69,236.11Zm-.93,2.55h2.13l-.9-1.9A2.77,2.77,0,0,0,240.76,238.66Z" transform="translate(-134.17 -70.99)"/><path class="cls-18" d="M233,269l0-.22a3.35,3.35,0,0,1,.48-1.38,3.39,3.39,0,0,1,2.15-1.55,3.21,3.21,0,0,1,1.54,0s.05,0,.06,0l1.29-3.6a1.05,1.05,0,0,1,.84-.72h1.35v.7h-1.17a.36.36,0,0,0-.38.27l-.39,1.07a.09.09,0,0,1,0,.05h5.75a.07.07,0,0,0,.07,0l.28-.6,0-.05h-1a.36.36,0,0,1-.33-.22.37.37,0,0,1,.09-.39.32.32,0,0,1,.25-.09h2.63v.7h-.82a.07.07,0,0,0-.06,0c-.15.33-.3.65-.46,1V264l.93,2,0,0,.31-.09a3.31,3.31,0,0,1,1.17-.09,3.37,3.37,0,0,1,2.17,1.09,3.28,3.28,0,0,1,.84,1.68,3.38,3.38,0,0,1-1,3.18,3.2,3.2,0,0,1-1.77.87l-.31,0H247l-.57-.09a3.44,3.44,0,0,1-2.58-2.85l0-.19h-1.48a.4.4,0,0,1-.33-.15l-.6-.68-1.56-1.79c-.46-.53-.92-1.05-1.37-1.58-.09-.09-.17-.19-.26-.29l-.38,1.07h0l0,0a3.42,3.42,0,0,1,1.88,2.64,3.13,3.13,0,0,1-.06,1.22,3.39,3.39,0,0,1-1.55,2.16,3.31,3.31,0,0,1-1.36.48l-.23,0h-.43c-.17,0-.35,0-.52-.08a3.38,3.38,0,0,1-2.2-1.63,3.34,3.34,0,0,1-.44-1.3l0-.23Zm4.64-2.22,0,0-.63,1.8c-.08.22-.16.43-.23.64a.35.35,0,0,1-.42.23.34.34,0,0,1-.22-.47l.86-2.43s0,0,0-.05a2.7,2.7,0,0,0-3.16,1.84,2.73,2.73,0,0,0,1.69,3.4,2.72,2.72,0,0,0,2.11-5Zm6.95,2.73a2.68,2.68,0,0,0,2,2.33,2.72,2.72,0,0,0,3.08-1.33,2.75,2.75,0,0,0-.54-3.3,2.64,2.64,0,0,0-2.67-.59l.21.44c.31.65.61,1.29.91,1.94a.32.32,0,0,1,0,.21.34.34,0,0,1-.36.3h-2.67Zm-6.05-5.23,3.71,4.25,2-4.25Zm7,2-.72-1.52-1.91,4.07h1A3.49,3.49,0,0,1,245.49,266.28Zm-.92,2.55h2.13l-.9-1.9A2.71,2.71,0,0,0,244.57,268.83Z" transform="translate(-134.17 -70.99)"/><path class="cls-18" d="M233,300.64l0-.22a3.43,3.43,0,0,1,2.63-2.94,3.34,3.34,0,0,1,1.54,0s.05,0,.06,0l1.29-3.6a1.05,1.05,0,0,1,.84-.72h1.35v.69h-1.17a.36.36,0,0,0-.38.28l-.39,1.07a.11.11,0,0,1,0,.05h5.75a.07.07,0,0,0,.07,0l.28-.6,0-.06h-1a.36.36,0,0,1-.33-.22.38.38,0,0,1,.09-.39.37.37,0,0,1,.25-.09h2.63v.7h-.82s0,0-.06,0c-.15.32-.3.65-.46,1v.06l.93,2,0,0,.31-.09a3.09,3.09,0,0,1,1.17-.08,3.32,3.32,0,0,1,2.17,1.09,3.28,3.28,0,0,1,.84,1.68,3.36,3.36,0,0,1-1,3.17,3.21,3.21,0,0,1-1.77.88l-.31,0H247a5.62,5.62,0,0,1-.57-.09,3.42,3.42,0,0,1-2.58-2.84l0-.19h-1.48A.4.4,0,0,1,242,301l-.6-.68-1.56-1.8L238.5,297l-.26-.29-.38,1.07h0l0,0a3.4,3.4,0,0,1,1.88,2.64,3.08,3.08,0,0,1-.06,1.21,3.38,3.38,0,0,1-1.55,2.17,3.16,3.16,0,0,1-1.36.47l-.23,0h-.43a3.12,3.12,0,0,1-.52-.08,3.34,3.34,0,0,1-2.2-1.62,3.39,3.39,0,0,1-.44-1.31l0-.23Zm4.64-2.23s0,0,0,0l-.63,1.8c-.08.21-.16.42-.23.64a.35.35,0,0,1-.42.22.34.34,0,0,1-.22-.47l.86-2.43,0-.05a2.7,2.7,0,0,0-3.16,1.85,2.73,2.73,0,0,0,1.69,3.4,2.72,2.72,0,0,0,2.11-5Zm6.95,2.74a2.71,2.71,0,0,0,5.08,1,2.75,2.75,0,0,0-.54-3.3,2.66,2.66,0,0,0-2.67-.59l.21.45c.31.64.61,1.29.91,1.93a.34.34,0,0,1,0,.22.34.34,0,0,1-.36.29h-2.67Zm-6.05-5.23,3.71,4.25,2-4.25Zm7,2-.72-1.51-1.91,4.06h1A3.51,3.51,0,0,1,245.49,297.88Zm-.92,2.55h2.13l-.9-1.9A2.71,2.71,0,0,0,244.57,300.43Z" transform="translate(-134.17 -70.99)"/><path class="cls-18" d="M233,323.78l0-.22a3.4,3.4,0,0,1,2.63-2.93,3.21,3.21,0,0,1,1.54,0s.05,0,.06,0l1.29-3.6a1.05,1.05,0,0,1,.84-.72h1.35v.7h-1.17a.36.36,0,0,0-.38.27l-.39,1.07a.09.09,0,0,1,0,.05h5.75a.07.07,0,0,0,.07,0l.28-.6,0-.06h-1a.35.35,0,0,1-.33-.22.36.36,0,0,1,.09-.38.33.33,0,0,1,.25-.1h2.63v.7h-.82s0,0-.06,0c-.15.33-.3.65-.46,1v.06l.93,2,0,0,.31-.1a3.56,3.56,0,0,1,1.17-.08,3.37,3.37,0,0,1,2.17,1.09,3.28,3.28,0,0,1,.84,1.68,3.38,3.38,0,0,1-1,3.18,3.2,3.2,0,0,1-1.77.87l-.31,0H247l-.57-.09a3.44,3.44,0,0,1-2.58-2.85l0-.19h-1.48a.4.4,0,0,1-.33-.15l-.6-.68-1.56-1.8c-.46-.52-.92-1-1.37-1.57-.09-.09-.17-.19-.26-.29l-.38,1.07h0l0,0a3.4,3.4,0,0,1,1.88,2.64,3.13,3.13,0,0,1-.06,1.22,3.39,3.39,0,0,1-1.55,2.16,3.31,3.31,0,0,1-1.36.48l-.23,0h-.43c-.17,0-.35,0-.52-.08a3.38,3.38,0,0,1-2.2-1.63,3.34,3.34,0,0,1-.44-1.3l0-.24Zm4.64-2.23a.08.08,0,0,1,0,.05l-.63,1.8c-.08.21-.16.43-.23.64a.35.35,0,0,1-.42.23.34.34,0,0,1-.22-.47c.29-.81.57-1.63.86-2.44,0,0,0,0,0-.05a2.77,2.77,0,1,0,.64.24Zm6.95,2.74a2.71,2.71,0,0,0,5.08,1,2.75,2.75,0,0,0-.54-3.3,2.68,2.68,0,0,0-2.67-.59l.21.45c.31.65.61,1.29.91,1.94a.32.32,0,0,1,0,.21.35.35,0,0,1-.36.3h-2.67Zm-6.05-5.23,3.71,4.25,2-4.25Zm7,2-.72-1.52-1.91,4.07h1A3.49,3.49,0,0,1,245.49,321Zm-.92,2.55h2.13l-.9-1.91A2.71,2.71,0,0,0,244.57,323.58Z" transform="translate(-134.17 -70.99)"/><path class="cls-18" d="M232.52,354.49a1.64,1.64,0,0,0,0-.22,3.22,3.22,0,0,1,.49-1.38,3.34,3.34,0,0,1,2.15-1.55,3.17,3.17,0,0,1,1.53,0,.07.07,0,0,0,.07,0c.42-1.2.85-2.4,1.28-3.6a1.05,1.05,0,0,1,.85-.72h1.34v.7h-1.16a.36.36,0,0,0-.39.27c-.13.36-.25.72-.38,1.07l0,.05h5.76a.05.05,0,0,0,.06,0l.29-.6,0-.05h-1a.34.34,0,0,1-.32-.22.35.35,0,0,1,.09-.39.3.3,0,0,1,.24-.09h2.64v.7h-.82a.06.06,0,0,0-.06,0c-.15.33-.31.65-.46,1a.06.06,0,0,0,0,.06l.93,2v0c.11,0,.21-.07.32-.09a3.24,3.24,0,0,1,1.16-.09,3.39,3.39,0,0,1,2.18,1.09,3.35,3.35,0,0,1,.84,1.68,3.41,3.41,0,0,1-1,3.18,3.26,3.26,0,0,1-1.78.87l-.31,0h-.47c-.19,0-.38-.05-.56-.09a3.47,3.47,0,0,1-2.59-2.85c0-.06,0-.12,0-.19H241.9a.43.43,0,0,1-.33-.15l-.59-.68-1.57-1.79L238,350.8l-.26-.29-.38,1.07h0l.05,0a3.4,3.4,0,0,1,1.87,2.64,3.34,3.34,0,0,1-.05,1.22,3.46,3.46,0,0,1-1.55,2.16,3.35,3.35,0,0,1-1.37.48l-.22,0h-.43c-.18,0-.36,0-.53-.08a3.41,3.41,0,0,1-2.2-1.63,3.34,3.34,0,0,1-.44-1.3,1.64,1.64,0,0,0,0-.23Zm4.64-2.22,0,0-.64,1.8c-.08.22-.15.43-.23.64a.34.34,0,0,1-.42.23.35.35,0,0,1-.22-.47l.87-2.43a.43.43,0,0,1,0-.05,2.76,2.76,0,1,0,.65.24ZM244.1,355a2.72,2.72,0,1,0,4.54-2.3,2.62,2.62,0,0,0-2.66-.59l.21.44c.3.65.6,1.29.91,1.94a.31.31,0,0,1,0,.21.34.34,0,0,1-.36.3H244.1Zm-6-5.23,3.72,4.26,2-4.26Zm7,2-.72-1.52-1.92,4.07h1A3.47,3.47,0,0,1,245,351.74Zm-.93,2.55h2.13l-.9-1.9A2.77,2.77,0,0,0,244.11,354.29Z" transform="translate(-134.17 -70.99)"/><path class="cls-18" d="M220.44,376.57a1.8,1.8,0,0,1-.08-.21,3.16,3.16,0,0,1-.2-1.46,3.38,3.38,0,0,1,1.2-2.36,3.18,3.18,0,0,1,1.36-.71s.05,0,0-.06c-.16-1.26-.33-2.52-.5-3.79a1.09,1.09,0,0,1,.42-1l.11-.07,1.06-.55h0l.32.62-.05,0-1,.51a.36.36,0,0,0-.22.42l.15,1.13a.11.11,0,0,0,0,.05l0,0,5.07-2.63a.07.07,0,0,0,0-.07c0-.22,0-.44,0-.66a.13.13,0,0,0,0-.06l-.05,0-.85.45a.33.33,0,0,1-.39-.05.34.34,0,0,1-.1-.38.35.35,0,0,1,.18-.2l2.3-1.19,0,0,.32.63,0,0-.68.35a.07.07,0,0,0,0,.07c0,.35,0,.71,0,1.07a.07.07,0,0,0,0,.06l1.72,1.32,0,0,.24-.23a3.23,3.23,0,0,1,1-.62,3.37,3.37,0,0,1,2.42,0A3.29,3.29,0,0,1,235.9,368a3.41,3.41,0,0,1,.53,3.3,3.34,3.34,0,0,1-1.18,1.59l-.26.18a.05.05,0,0,0,0,0l-.34.18h0c-.18.06-.36.14-.54.19a3.34,3.34,0,0,1-2.2-.2,3.38,3.38,0,0,1-1.4-1.14l-.11-.16,0,0-1.27.66a.42.42,0,0,1-.36,0l-.84-.33-2.21-.87-1.93-.76-.36-.14.15,1.12h.06a3.37,3.37,0,0,1,2.87,1.47,3.09,3.09,0,0,1,.5,1.11,3.4,3.4,0,0,1-.39,2.64,3.31,3.31,0,0,1-1,1.05l-.18.13-.35.18h0a4.91,4.91,0,0,1-.5.17,3.38,3.38,0,0,1-2.7-.42,3.21,3.21,0,0,1-1-1,2.14,2.14,0,0,1-.13-.19Zm3.1-4.13a.13.13,0,0,0,0,.06c.08.63.16,1.26.25,1.89l.09.67a.36.36,0,0,1-.27.4.34.34,0,0,1-.41-.32c-.12-.85-.23-1.71-.34-2.56a.09.09,0,0,1,0-.05,2.72,2.72,0,1,0,.68-.09Zm7.42-.78a2.68,2.68,0,0,0,2.84,1.15,2.73,2.73,0,0,0,.14-5.29,2.63,2.63,0,0,0-2.64.71l.39.3,1.69,1.29a.36.36,0,0,1,0,.61l-2.32,1.2Zm-7.76-1.85,5.24,2.07-.17-4.71Zm7.1-1.48-1.33-1,.15,4.5.88-.46A3.52,3.52,0,0,1,230.3,368.33Zm.34,2.7,1.89-1-1.67-1.27A2.79,2.79,0,0,0,230.64,371Z" transform="translate(-134.17 -70.99)"/><path class="cls-18" d="M197.8,354.94a1.74,1.74,0,0,1-.05-.22,3.32,3.32,0,0,1,0-1.47,3.4,3.4,0,0,1,1.53-2.16,3.35,3.35,0,0,1,1.46-.5s.05,0,.05,0c0-1.27,0-2.55,0-3.82a1.06,1.06,0,0,1,.57-1l.12-.05,1.12-.39h0l.23.66-.06,0-1,.36a.36.36,0,0,0-.28.39c0,.38,0,.75,0,1.13v.05h0l5.4-1.86s0,0,.05-.06c0-.22,0-.44.07-.66a.13.13,0,0,1,0-.06l-.06,0-.91.31a.34.34,0,0,1-.38-.1.36.36,0,0,1,0-.4.47.47,0,0,1,.2-.17l2.45-.84h0l.22.66h0l-.73.26a.06.06,0,0,0-.05.05l-.12,1.07a.11.11,0,0,0,0,.06l1.51,1.56,0,0,.27-.19a3.27,3.27,0,0,1,1.07-.46,3.36,3.36,0,0,1,2.41.33,3.28,3.28,0,0,1,1.34,1.32,3.4,3.4,0,0,1,0,3.34,3.26,3.26,0,0,1-1.4,1.4l-.28.14,0,0-.36.12h-.05c-.19,0-.37.08-.56.1a3.41,3.41,0,0,1-3.36-1.85l-.09-.17h-.05l-1.36.47a.42.42,0,0,1-.36,0l-.77-.45-2.07-1.19-1.8-1-.34-.19v1.13h.06a3.38,3.38,0,0,1,2.62,1.89,3.22,3.22,0,0,1,.34,1.17,3.46,3.46,0,0,1-1.9,3.45l-.21.09-.37.13h0a4.34,4.34,0,0,1-.52.09,3.38,3.38,0,0,1-2.61-.82,3.29,3.29,0,0,1-.83-1.09l-.1-.21Zm3.67-3.62s0,0,0,.05c0,.64,0,1.27,0,1.91,0,.23,0,.45,0,.68a.34.34,0,0,1-.33.35.35.35,0,0,1-.36-.37c0-.86,0-1.72,0-2.59v-.05a2.76,2.76,0,1,0,.69,0Zm7.45.32a2.7,2.7,0,0,0,5.12-.71,2.74,2.74,0,0,0-1.57-2.95,2.65,2.65,0,0,0-2.71.31l.34.36,1.49,1.53a.39.39,0,0,1,.1.19.35.35,0,0,1-.25.4l-2.47.85Zm-7.41-3,4.88,2.81.53-4.68Zm7.24-.42-1.17-1.2-.5,4.47.94-.32A3.49,3.49,0,0,1,208.75,348.25ZM208.7,351l2-.7-1.46-1.5A2.71,2.71,0,0,0,208.7,351Z" transform="translate(-134.17 -70.99)"/><path class="cls-18" d="M194.44,325.23c0-.07,0-.15-.05-.22a3.47,3.47,0,0,1,0-1.47,3.4,3.4,0,0,1,1.53-2.16,3.23,3.23,0,0,1,1.46-.5s.05,0,.05-.05c0-1.28,0-2.55.05-3.82a1,1,0,0,1,.57-1,.39.39,0,0,1,.11-.06l1.12-.39h0l.23.66-.05,0-1.05.36a.37.37,0,0,0-.28.39c0,.38,0,.76,0,1.14v0l.05,0,5.39-1.86a.06.06,0,0,0,.05-.06c0-.22,0-.44.07-.66a.13.13,0,0,0,0-.06h0l-.92.32a.32.32,0,0,1-.37-.1.37.37,0,0,1,0-.4.44.44,0,0,1,.21-.17l2.44-.84,0,0,.22.67h0l-.73.25a.05.05,0,0,0,0,.06l-.12,1.07a.07.07,0,0,0,0,.06l1.51,1.56,0,0,.27-.19a3,3,0,0,1,1.08-.46,3.32,3.32,0,0,1,2.41.32A3.23,3.23,0,0,1,211,319a3.39,3.39,0,0,1,.05,3.35,3.26,3.26,0,0,1-1.4,1.4l-.28.14,0,0-.36.12h-.05a5,5,0,0,1-.56.1,3.42,3.42,0,0,1-3.36-1.84l-.09-.18,0,0-1.35.47a.45.45,0,0,1-.36,0l-.78-.45L200.27,321l-1.8-1-.34-.19v1.14h.06a3.38,3.38,0,0,1,2.63,1.88,3.2,3.2,0,0,1,.33,1.17,3.41,3.41,0,0,1-.76,2.55,3.24,3.24,0,0,1-1.14.9l-.2.1-.37.13h0a4.76,4.76,0,0,1-.52.1,3.36,3.36,0,0,1-2.61-.82,3.29,3.29,0,0,1-.83-1.09,2,2,0,0,1-.1-.21Zm3.67-3.63a.13.13,0,0,1,0,.06c0,.63,0,1.27,0,1.9,0,.23,0,.46,0,.69a.34.34,0,0,1-.32.35.35.35,0,0,1-.36-.38l0-2.58v-.05a2.73,2.73,0,1,0,.69,0Zm7.45.32a2.7,2.7,0,0,0,5.12-.72,2.74,2.74,0,0,0-1.57-2.95,2.67,2.67,0,0,0-2.72.32l.35.35,1.49,1.53a.38.38,0,0,1,.1.2.34.34,0,0,1-.25.39l-2.46.86Zm-7.41-3,4.88,2.81.52-4.68Zm7.24-.42-1.17-1.2-.5,4.47.94-.32A3.49,3.49,0,0,1,205.39,318.53Zm0,2.71,2-.69L205.89,319A2.73,2.73,0,0,0,205.34,321.24Z" transform="translate(-134.17 -70.99)"/><path class="cls-18" d="M171.49,308.15a1.7,1.7,0,0,0,0-.22,3.32,3.32,0,0,1,.05-1.47,3.38,3.38,0,0,1,1.59-2.12,3.29,3.29,0,0,1,1.46-.46s0,0,0-.05l.15-3.82a1.09,1.09,0,0,1,.59-.95l.12-.05,1.13-.36h0l.21.67-.05,0-1.06.33a.37.37,0,0,0-.29.38c0,.38,0,.76,0,1.14v.05l.05,0,5.44-1.72s0,0,.05-.06l.09-.66a.13.13,0,0,1,0-.06l-.06,0-.92.29a.34.34,0,0,1-.37-.11.36.36,0,0,1,0-.4.32.32,0,0,1,.2-.16l2.47-.78.05,0,.21.67h-.05l-.74.24s0,0,0,0l-.15,1.07a.14.14,0,0,0,0,.06l1.47,1.6,0,0,.27-.19a3.31,3.31,0,0,1,1.09-.43,3.35,3.35,0,0,1,2.4.39,3.29,3.29,0,0,1,1.3,1.34,3.42,3.42,0,0,1,0,3.35,3.3,3.3,0,0,1-1.43,1.36l-.29.13,0,0-.36.12H186a5.39,5.39,0,0,1-.56.08,3.36,3.36,0,0,1-2.13-.56,3.43,3.43,0,0,1-1.19-1.37c0-.06-.05-.11-.08-.18l0,0-1.37.43a.39.39,0,0,1-.36,0l-.76-.47-2-1.23L175.66,303l-.33-.2-.05,1.13h.06a3.38,3.38,0,0,1,2.58,1.95,3.17,3.17,0,0,1,.31,1.17,3.44,3.44,0,0,1-2,3.41l-.2.09-.38.12h0l-.52.09a3.38,3.38,0,0,1-2.59-.89,3.25,3.25,0,0,1-.8-1.11,1.47,1.47,0,0,1-.1-.22Zm3.76-3.53v.05c0,.64-.05,1.27-.07,1.91l0,.68a.34.34,0,0,1-.33.34.34.34,0,0,1-.35-.38l.09-2.58a.09.09,0,0,0,0-.05,2.74,2.74,0,1,0,.68,0Zm7.44.51a2.71,2.71,0,0,0,5.14-.59,2.75,2.75,0,0,0-1.49-3,2.69,2.69,0,0,0-2.73.25l.34.36c.48.53,1,1,1.45,1.57a.38.38,0,0,1,.1.2.36.36,0,0,1-.26.39l-2.49.79ZM175.36,302l4.81,2.93.64-4.66Zm7.25-.24-1.14-1.22-.61,4.45.94-.3A3.51,3.51,0,0,1,182.61,301.73Zm-.12,2.72,2-.65-1.43-1.54A2.78,2.78,0,0,0,182.49,304.45Z" transform="translate(-134.17 -70.99)"/><path class="cls-18" d="M197.73,291.65l0-.23a3.26,3.26,0,0,1,.48-1.38,3.39,3.39,0,0,1,3.69-1.54s0,0,.06,0c.43-1.2.85-2.4,1.28-3.59a1.07,1.07,0,0,1,.85-.72l.13,0h1.21v.7H204.3a.37.37,0,0,0-.39.28c-.12.35-.25.71-.38,1.07,0,0,0,0,0,0h5.75s0,0,.07-.05l.28-.6,0-.05h-1a.35.35,0,0,1-.32-.22.35.35,0,0,1,.09-.39.36.36,0,0,1,.24-.09h2.64v.7h-.82a.05.05,0,0,0-.06,0l-.46,1a.06.06,0,0,0,0,.06l.93,2v0l.32-.09a3.28,3.28,0,0,1,1.17-.09,3.38,3.38,0,0,1,2.17,1.1,3.2,3.2,0,0,1,.84,1.68,3.39,3.39,0,0,1-1,3.17,3.26,3.26,0,0,1-1.78.87l-.31,0h-.47a5.43,5.43,0,0,1-.56-.09,3.37,3.37,0,0,1-1.86-1.18,3.51,3.51,0,0,1-.73-1.66,1.36,1.36,0,0,0,0-.2h-1.49a.4.4,0,0,1-.33-.15l-.59-.68-1.57-1.79c-.45-.53-.91-1-1.37-1.57l-.25-.29-.38,1.06h0l0,0a3.44,3.44,0,0,1,1.88,2.65,3.52,3.52,0,0,1-.06,1.21,3.42,3.42,0,0,1-1.55,2.16,3.22,3.22,0,0,1-1.37.48l-.22,0h-.43c-.18,0-.35,0-.53-.08a3.37,3.37,0,0,1-2.2-1.63,3.13,3.13,0,0,1-.43-1.3l0-.23Zm4.64-2.23,0,.05c-.21.6-.42,1.19-.64,1.79-.07.22-.15.43-.23.65a.34.34,0,0,1-.42.22.35.35,0,0,1-.22-.47l.87-2.43s0,0,0-.05a2.76,2.76,0,1,0,.65.24Zm6.94,2.73a2.71,2.71,0,0,0,5.08,1,2.75,2.75,0,0,0-.53-3.3,2.64,2.64,0,0,0-2.67-.59l.21.45.91,1.93a.41.41,0,0,1,0,.22.36.36,0,0,1-.36.29h-2.68Zm-6-5.23,3.71,4.26,2-4.26Zm7,2-.72-1.51-1.91,4.06h1A3.49,3.49,0,0,1,210.25,288.89Zm-.93,2.55h2.13l-.9-1.9A2.77,2.77,0,0,0,209.32,291.44Z" transform="translate(-134.17 -70.99)"/><path class="cls-18" d="M167.79,270.26l0-.22a3.35,3.35,0,0,1,.48-1.38,3.39,3.39,0,0,1,2.15-1.55,3.21,3.21,0,0,1,1.54,0s0,0,.06,0l1.28-3.6a1.07,1.07,0,0,1,.85-.72h1.35v.7h-1.17a.36.36,0,0,0-.38.27l-.39,1.07s0,0,0,0h5.75a.07.07,0,0,0,.07,0l.28-.6,0-.06h-1a.34.34,0,0,1-.33-.22.36.36,0,0,1,.09-.38.33.33,0,0,1,.25-.1h2.63v.7h-.82s0,0-.06,0c-.15.33-.3.65-.46,1,0,0,0,0,0,.06l.93,2,0,0,.31-.1a3.56,3.56,0,0,1,1.17-.08,3.37,3.37,0,0,1,2.17,1.09,3.28,3.28,0,0,1,.84,1.68,3.38,3.38,0,0,1-1,3.18,3.2,3.2,0,0,1-1.77.87l-.31,0h-.47c-.19,0-.38,0-.57-.09a3.44,3.44,0,0,1-2.58-2.85l0-.19h-1.48a.43.43,0,0,1-.34-.15c-.19-.23-.39-.45-.59-.68l-1.56-1.8-1.38-1.57-.25-.29-.38,1.07h0l0,0a3.4,3.4,0,0,1,1.88,2.64,3.13,3.13,0,0,1-.06,1.22A3.39,3.39,0,0,1,173,273.4a3.31,3.31,0,0,1-1.36.48l-.23,0H171c-.17,0-.35,0-.52-.08a3.38,3.38,0,0,1-2.2-1.63,3.19,3.19,0,0,1-.44-1.3l0-.24Zm4.64-2.23a.08.08,0,0,1,0,.05c-.21.6-.42,1.2-.64,1.8l-.22.64a.36.36,0,0,1-.43.23.34.34,0,0,1-.21-.47c.28-.81.57-1.63.86-2.44l0,0a2.73,2.73,0,1,0,.64.23Zm6.95,2.74a2.71,2.71,0,0,0,5.08,1,2.75,2.75,0,0,0-.54-3.3,2.69,2.69,0,0,0-2.67-.59l.21.45c.31.65.61,1.29.91,1.94a.32.32,0,0,1,0,.21.36.36,0,0,1-.36.3h-2.67Zm-6-5.23,3.71,4.25,2-4.25Zm7,2-.72-1.52-1.91,4.07h1A3.46,3.46,0,0,1,180.31,267.51Zm-.92,2.55h2.13l-.9-1.91A2.71,2.71,0,0,0,179.39,270.06Z" transform="translate(-134.17 -70.99)"/><path class="cls-18" d="M168.83,233.29l0-.22a3.17,3.17,0,0,1,.48-1.39,3.4,3.4,0,0,1,2.15-1.55,3.3,3.3,0,0,1,1.53,0s0,0,.07,0c.42-1.2.85-2.4,1.28-3.6a1.05,1.05,0,0,1,.85-.72h1.34v.69H175.4a.36.36,0,0,0-.39.28l-.38,1.07s0,0,0,.05h5.76a.05.05,0,0,0,.06,0l.29-.6s0,0,0-.06h-1a.35.35,0,0,1-.32-.22.35.35,0,0,1,.33-.48h2.64v.7h-.82a.05.05,0,0,0-.06,0l-.46,1a.06.06,0,0,0,0,.06l.93,2v0l.32-.09a3.06,3.06,0,0,1,1.17-.08,3.35,3.35,0,0,1,2.17,1.09,3.28,3.28,0,0,1,.84,1.68,3.41,3.41,0,0,1-1,3.18,3.33,3.33,0,0,1-1.78.87l-.31,0h-.47a5,5,0,0,1-.56-.09,3.45,3.45,0,0,1-2.59-2.84c0-.06,0-.13,0-.19h-.06c-.48,0-.95,0-1.43,0a.43.43,0,0,1-.33-.15c-.19-.23-.39-.46-.59-.68l-1.57-1.8-1.37-1.57-.25-.29-.39,1.07h0l.05,0a3.39,3.39,0,0,1,1.87,2.64,3.28,3.28,0,0,1,0,1.21,3.45,3.45,0,0,1-1.55,2.17,3.2,3.2,0,0,1-1.37.47l-.22,0H172a3.08,3.08,0,0,1-.53-.08,3.36,3.36,0,0,1-2.2-1.62,3.17,3.17,0,0,1-.43-1.31l0-.23Zm4.64-2.23,0,.05-.64,1.8c-.08.21-.15.43-.23.64a.34.34,0,0,1-.42.22.35.35,0,0,1-.22-.47l.87-2.43a.43.43,0,0,0,0-.05,2.76,2.76,0,1,0,.65.24Zm6.94,2.74a2.73,2.73,0,0,0,2,2.33,2.7,2.7,0,0,0,3.08-1.34,2.75,2.75,0,0,0-.53-3.3,2.69,2.69,0,0,0-2.67-.59l.21.45c.3.65.6,1.29.91,1.93a.33.33,0,0,1,0,.22.35.35,0,0,1-.36.3h-2.67Zm-6-5.23,3.72,4.25,2-4.25Zm7,2-.72-1.51-1.92,4.07h1A3.49,3.49,0,0,1,181.35,230.53Zm-.93,2.55h2.13l-.9-1.9A2.77,2.77,0,0,0,180.42,233.08Z" transform="translate(-134.17 -70.99)"/><path class="cls-18" d="M184.66,198.77c0-.07.05-.14.07-.21a3.25,3.25,0,0,1,.79-1.24,3.36,3.36,0,0,1,2.43-1,3.25,3.25,0,0,1,1.5.36s.05,0,.07,0c.68-1.08,1.37-2.15,2.06-3.22a1.06,1.06,0,0,1,1-.51l.13,0,1.15.27h0l-.16.68h-.06l-1.07-.25a.36.36,0,0,0-.44.18l-.62,1s0,0,0,0h.05l5.56,1.3s0,0,.07,0l.41-.52,0-.05h-.06l-.94-.22a.36.36,0,0,1-.09-.65.39.39,0,0,1,.26,0l2.52.59h0l-.16.68h-.05l-.75-.18s0,0-.07,0l-.66.84a.14.14,0,0,0,0,.06c.16.71.31,1.42.47,2.13v0l.33,0a3.47,3.47,0,0,1,1.15.19,3.33,3.33,0,0,1,1.87,1.55,3.27,3.27,0,0,1,.44,1.83,3.36,3.36,0,0,1-1.72,2.86,3.31,3.31,0,0,1-1.92.45l-.32,0h0l-.37-.09,0,0a4.87,4.87,0,0,1-.53-.21,3.45,3.45,0,0,1-1.88-3.36c0-.06,0-.13,0-.19h0l-1.39-.33a.41.41,0,0,1-.29-.22l-.43-.79c-.37-.71-.75-1.41-1.12-2.11l-1-1.84-.18-.34-.61.95h0l0,0a3.39,3.39,0,0,1,1.24,3,3,3,0,0,1-.33,1.17,3.41,3.41,0,0,1-3.43,1.92l-.22,0-.38-.09,0,0a4.94,4.94,0,0,1-.49-.19,3.37,3.37,0,0,1-1.78-2.09,3.3,3.3,0,0,1-.14-1.36l0-.24Zm5-1.12,0,0c-.34.53-.68,1.07-1,1.6l-.36.58a.34.34,0,0,1-.46.12.35.35,0,0,1-.11-.51c.46-.72.92-1.45,1.39-2.17,0,0,0,0,0,0a2.7,2.7,0,0,0-3.49,1.09,2.72,2.72,0,1,0,4.07-.71Zm6.15,4.24a2.72,2.72,0,1,0,4.94-1.22,2.68,2.68,0,0,0-2.47-1.18c0,.17.07.33.11.49l.45,2.09a.33.33,0,0,1,0,.22.35.35,0,0,1-.42.21l-2.54-.6Zm-4.72-6.46,2.66,5,2.91-3.69Zm6.36,3.49-.36-1.63-2.77,3.52,1,.23A3.51,3.51,0,0,1,197.47,198.92ZM196,201.2l2.07.48-.45-2.06A2.8,2.8,0,0,0,196,201.2Z" transform="translate(-134.17 -70.99)"/><path class="cls-18" d="M198.35,176.08l.1-.2a3.41,3.41,0,0,1,4.87-1.45s.05,0,.07,0l2.35-3a1,1,0,0,1,1-.41l.13,0,1.12.38h0l-.22.66h-.05l-1.05-.36a.38.38,0,0,0-.46.14l-.69.89,0,0h0l5.41,1.82s.06,0,.08,0l.46-.48,0,0-.05,0-.92-.31a.34.34,0,0,1-.24-.31.38.38,0,0,1,.21-.34.33.33,0,0,1,.26,0l2.46.83h0l-.22.67-.05,0-.73-.25s0,0-.07,0l-.74.78a.11.11,0,0,0,0,.06c.09.72.17,1.44.26,2.16v0l.33,0a3.2,3.2,0,0,1,1.13.29,3.32,3.32,0,0,1,1.71,1.73,3.21,3.21,0,0,1,.27,1.86,3.38,3.38,0,0,1-2,2.68,3.3,3.3,0,0,1-2,.26l-.31-.07h0l-.36-.12,0,0a4.89,4.89,0,0,1-.51-.26,3.34,3.34,0,0,1-1.39-1.71,3.49,3.49,0,0,1-.17-1.81,1.29,1.29,0,0,0,0-.19l-.05,0-1.36-.46a.39.39,0,0,1-.26-.24l-.35-.83c-.31-.74-.62-1.47-.92-2.21l-.81-1.93-.15-.35-.7.89h0l0,0a3.42,3.42,0,0,1,.95,3.11,3.13,3.13,0,0,1-.44,1.13,3.39,3.39,0,0,1-2.15,1.56,3.33,3.33,0,0,1-1.44,0l-.22-.05-.37-.12,0,0c-.16-.08-.32-.15-.47-.24a3.42,3.42,0,0,1-1.58-2.25,3.33,3.33,0,0,1,0-1.37c0-.08,0-.16,0-.23Zm5.1-.63,0,0-1.17,1.5-.42.54a.34.34,0,1,1-.53-.44l1.59-2,0,0a2.69,2.69,0,0,0-3.58.74,2.74,2.74,0,0,0,.53,3.76,2.7,2.7,0,0,0,3.77-.43A2.73,2.73,0,0,0,203.45,175.45Zm5.73,4.81a2.71,2.71,0,1,0,5-.74,2.64,2.64,0,0,0-2.34-1.41l.06.49c.08.71.17,1.42.25,2.13a.31.31,0,0,1,0,.21.36.36,0,0,1-.44.17l-2.47-.84Zm-4.09-6.89,2.18,5.22,3.24-3.4Zm6,4.09-.21-1.67-3.1,3.25.94.32A3.47,3.47,0,0,1,211.1,177.46Zm-1.69,2.12,2,.68-.25-2.09A2.79,2.79,0,0,0,209.41,179.58Z" transform="translate(-134.17 -70.99)"/><path class="cls-18" d="M266.24,329.36l0-.22a3.44,3.44,0,0,1,.48-1.39,3.4,3.4,0,0,1,2.15-1.55,3.34,3.34,0,0,1,1.54,0,0,0,0,0,0,.06,0l1.28-3.6a1.07,1.07,0,0,1,.85-.72H274v.69h-1.16a.37.37,0,0,0-.39.28c-.12.36-.25.71-.38,1.07a.43.43,0,0,0,0,.05h5.75a.08.08,0,0,0,.07,0l.28-.6,0-.06h-1a.35.35,0,0,1-.32-.22.35.35,0,0,1,.33-.48h2.64v.7H279a.05.05,0,0,0-.06,0l-.46,1a.09.09,0,0,0,0,.07l.93,2v0l.32-.09a3.06,3.06,0,0,1,1.17-.08,3.32,3.32,0,0,1,2.17,1.09,3.28,3.28,0,0,1,.84,1.68,3.38,3.38,0,0,1-1,3.18,3.33,3.33,0,0,1-1.77.87l-.32,0h-.47c-.18,0-.38,0-.56-.08a3.44,3.44,0,0,1-1.86-1.19,3.4,3.4,0,0,1-.72-1.66l0-.19h-1.49a.43.43,0,0,1-.33-.15c-.19-.23-.39-.46-.59-.68l-1.57-1.8-1.37-1.57-.25-.29-.38,1.07h0l.05,0a3.42,3.42,0,0,1,1.88,2.64,3.28,3.28,0,0,1-.06,1.21,3.42,3.42,0,0,1-1.55,2.17,3.35,3.35,0,0,1-1.37.48l-.22,0h-.43a4.34,4.34,0,0,1-.52-.07,3.4,3.4,0,0,1-2.21-1.63,3.32,3.32,0,0,1-.43-1.31l0-.23Zm4.64-2.23,0,.05c-.21.6-.42,1.2-.64,1.8-.07.21-.15.43-.23.64a.34.34,0,0,1-.42.22.35.35,0,0,1-.22-.47l.87-2.43,0-.05a2.77,2.77,0,1,0,.64.24Zm6.94,2.74a2.73,2.73,0,0,0,2,2.33,2.69,2.69,0,0,0,3.07-1.34,2.75,2.75,0,0,0-.53-3.3,2.69,2.69,0,0,0-2.67-.59l.21.45c.3.65.61,1.29.91,1.93a.41.41,0,0,1,0,.22.36.36,0,0,1-.36.3h-2.68Zm-6-5.23,3.71,4.25,2-4.25Zm7,2-.72-1.51-1.91,4.07h1A3.49,3.49,0,0,1,278.76,326.6Zm-.93,2.55H280l-.9-1.9A2.77,2.77,0,0,0,277.83,329.15Z" transform="translate(-134.17 -70.99)"/><path class="cls-18" d="M264.52,360.07l0-.22a3.17,3.17,0,0,1,.48-1.39,3.39,3.39,0,0,1,2.15-1.54,3.17,3.17,0,0,1,1.53,0s.05,0,.07,0c.42-1.2.85-2.4,1.28-3.6a1.05,1.05,0,0,1,.85-.72h1.34v.7h-1.16a.36.36,0,0,0-.39.27l-.38,1.07s0,0,0,0h5.76a.08.08,0,0,0,.07,0l.28-.6,0-.06h-1a.33.33,0,0,1-.32-.22.34.34,0,0,1,.09-.38.33.33,0,0,1,.24-.1h2.64v.7h-.82a.05.05,0,0,0-.06,0c-.15.33-.31.65-.46,1a.06.06,0,0,0,0,.06l.93,2v0l.32-.1a3.28,3.28,0,0,1,1.17-.08,3.39,3.39,0,0,1,2.17,1.09,3.28,3.28,0,0,1,.84,1.68,3.41,3.41,0,0,1-1,3.18,3.33,3.33,0,0,1-1.78.87,3,3,0,0,1-.31,0h-.47a5,5,0,0,1-.56-.08,3.3,3.3,0,0,1-1.86-1.19,3.37,3.37,0,0,1-.73-1.66c0-.06,0-.13,0-.19H273.9a.43.43,0,0,1-.33-.15c-.19-.23-.39-.45-.59-.68l-1.57-1.8L270,356.38l-.25-.29-.39,1.07h0l0,0a3.39,3.39,0,0,1,1.87,2.64,3.34,3.34,0,0,1-.05,1.22,3.46,3.46,0,0,1-1.55,2.16,3.35,3.35,0,0,1-1.37.48l-.22,0h-.43a4.51,4.51,0,0,1-.53-.07A3.41,3.41,0,0,1,265,362a3.17,3.17,0,0,1-.43-1.3l0-.24Zm4.64-2.23s0,0,0,.05l-.64,1.8c-.08.21-.15.43-.23.64a.34.34,0,0,1-.42.23.35.35,0,0,1-.22-.47l.87-2.44a.43.43,0,0,0,0,0,2.73,2.73,0,1,0,2,3.63A2.73,2.73,0,0,0,269.16,357.84Zm6.94,2.74a2.73,2.73,0,0,0,2,2.33,2.7,2.7,0,0,0,3.08-1.34,2.75,2.75,0,0,0-.53-3.3,2.69,2.69,0,0,0-2.67-.59l.21.45c.3.65.61,1.29.91,1.94a.39.39,0,0,1,0,.21.37.37,0,0,1-.37.3H276.1Zm-6.05-5.23,3.72,4.25,2-4.25Zm7,2-.72-1.52-1.92,4.07h1A3.47,3.47,0,0,1,277,357.32Zm-.93,2.55h2.13l-.9-1.91A2.77,2.77,0,0,0,276.11,359.87Z" transform="translate(-134.17 -70.99)"/><path class="cls-18" d="M282.92,366l.18-.13a3.38,3.38,0,0,1,3.93,0,3.31,3.31,0,0,1,1,1.14s0,0,.07,0l3.5-1.47a1.06,1.06,0,0,1,1.11.14l.09.09.8.88,0,0-.51.47,0,0-.75-.82a.36.36,0,0,0-.46-.1l-1,.43-.05,0,0,0,3.84,4.24s0,0,.07,0l.64-.19.05,0,0,0-.65-.72a.35.35,0,0,1-.06-.39.35.35,0,0,1,.58-.07l1.74,1.92,0,0-.51.47,0,0-.51-.57a.06.06,0,0,0-.07,0l-1,.32a0,0,0,0,0,0,0c-.28.67-.55,1.34-.82,2l0,0,.29.18a3.44,3.44,0,0,1,.85.81,3.34,3.34,0,0,1,.65,2.35,3.24,3.24,0,0,1-.66,1.75,3.33,3.33,0,0,1-3,1.37,3.2,3.2,0,0,1-1.84-.73l-.24-.21,0,0-.26-.29,0,0c-.11-.16-.23-.31-.32-.47a3.41,3.41,0,0,1-.38-2.19,3.25,3.25,0,0,1,.73-1.65l.12-.15,0-.05c-.33-.35-.65-.7-1-1.06a.4.4,0,0,1-.11-.34c0-.3.07-.6.1-.9.09-.79.17-1.58.26-2.38s.15-1.38.23-2.07c0-.13,0-.26,0-.39l-1,.44h0v.05a3.4,3.4,0,0,1-.67,3.17,3.17,3.17,0,0,1-.93.78,3.36,3.36,0,0,1-2.63.3,3.21,3.21,0,0,1-1.27-.69l-.17-.15-.27-.29,0,0c-.1-.15-.21-.29-.3-.45a3.42,3.42,0,0,1-.28-2.73,3.21,3.21,0,0,1,.66-1.2l.15-.18Zm4.76,1.95h0l-1.75.74-.63.26a.33.33,0,0,1-.45-.16.34.34,0,0,1,.2-.48l2.37-1,0,0a2.7,2.7,0,0,0-3.48-1.1,2.74,2.74,0,0,0-1.36,3.55,2.71,2.71,0,0,0,5.1-1.8Zm2.68,7a2.73,2.73,0,0,0,2.69,4.45,2.75,2.75,0,0,0,2.06-2.63,2.67,2.67,0,0,0-1.37-2.38l-.18.46-.81,2a.37.37,0,0,1-.13.17.34.34,0,0,1-.46-.07c-.59-.64-1.18-1.29-1.76-1.94Zm-.24-8-.62,5.63,4.47-1.38Zm3.26,6.52.63-1.56-4.28,1.32.67.73A3.44,3.44,0,0,1,293.38,373.4Zm-2.5,1,1.44,1.58.79-1.95A2.71,2.71,0,0,0,290.88,374.43Z" transform="translate(-134.17 -70.99)"/><path class="cls-18" d="M301.53,348.21l.12-.2a3.27,3.27,0,0,1,1-1,3.34,3.34,0,0,1,2.59-.49,3.26,3.26,0,0,1,1.39.66s.05,0,.08,0l2.67-2.71a1,1,0,0,1,1.07-.3.33.33,0,0,1,.12.05l1.08.5,0,0-.3.63,0,0-1-.47a.36.36,0,0,0-.47.09l-.79.8,0,0,.05,0,5.16,2.43s.05,0,.08,0l.51-.42,0,0,0,0-.88-.41a.36.36,0,0,1-.2-.34.38.38,0,0,1,.24-.32.42.42,0,0,1,.27,0l2.34,1.1,0,0-.29.63-.05,0-.69-.33a.06.06,0,0,0-.07,0l-.83.69a.11.11,0,0,0,0,.06c0,.72,0,1.45,0,2.18v0l.32.05a3.14,3.14,0,0,1,1.1.42,3.4,3.4,0,0,1,1.5,1.91,3.26,3.26,0,0,1,.05,1.88,3.34,3.34,0,0,1-2.27,2.44,3.26,3.26,0,0,1-2,0l-.29-.1h0l-.34-.16,0,0a3.88,3.88,0,0,1-.47-.32,3.34,3.34,0,0,1-1.19-1.87,3.37,3.37,0,0,1,0-1.81l.06-.18-.05,0-1.3-.61a.37.37,0,0,1-.23-.27c-.08-.29-.17-.58-.25-.87-.22-.77-.44-1.53-.67-2.3s-.38-1.33-.58-2c0-.13-.07-.25-.1-.38l-.8.81h0l0,0a3.4,3.4,0,0,1,.59,3.19,2.93,2.93,0,0,1-.56,1.08,3.41,3.41,0,0,1-2.32,1.3,3.32,3.32,0,0,1-1.43-.15l-.22-.07-.35-.17,0,0c-.15-.1-.31-.19-.45-.3a3.37,3.37,0,0,1-1.3-2.41,3.19,3.19,0,0,1,.15-1.37c0-.07,0-.14.07-.22Zm5.14,0,0,0c-.44.45-.89.9-1.33,1.36l-.48.48a.34.34,0,0,1-.48,0,.35.35,0,0,1,0-.51l1.81-1.84,0,0a2.69,2.69,0,0,0-3.64.33,2.73,2.73,0,0,0,.1,3.8,2.69,2.69,0,0,0,3.79,0A2.73,2.73,0,0,0,306.67,348.16Zm5.14,5.44a2.74,2.74,0,0,0,.83,3,2.72,2.72,0,0,0,4.25-3.12,2.66,2.66,0,0,0-2.17-1.67c0,.16,0,.33,0,.49,0,.72,0,1.43,0,2.14a.37.37,0,0,1-.06.21.35.35,0,0,1-.45.12l-2.37-1.11Zm-3.28-7.31,1.57,5.43,3.61-3ZM314,351v-1.67l-3.45,2.86.89.42A3.5,3.5,0,0,1,314,351ZM312.12,353l1.93.91,0-2.11A2.72,2.72,0,0,0,312.12,353Z" transform="translate(-134.17 -70.99)"/><path class="cls-18" d="M263,206.41l0-.23a3.35,3.35,0,0,1,.48-1.38,3.39,3.39,0,0,1,2.15-1.55,3.21,3.21,0,0,1,1.54,0s.05,0,.06,0c.43-1.2.85-2.4,1.28-3.59a1.06,1.06,0,0,1,.85-.73h1.35v.7h-1.17a.37.37,0,0,0-.39.28c-.12.35-.25.71-.38,1.06,0,0,0,0,0,0h5.75a.07.07,0,0,0,.07,0l.28-.6,0-.05h-1a.35.35,0,0,1-.33-.22.35.35,0,0,1,.09-.39.32.32,0,0,1,.25-.09h2.63v.7h-.82a.06.06,0,0,0-.06,0c-.15.33-.3.65-.46,1a.06.06,0,0,0,0,.06l.93,2v0l.32-.09a3.3,3.3,0,0,1,1.17-.09,3.34,3.34,0,0,1,2.17,1.1,3.2,3.2,0,0,1,.84,1.68,3.37,3.37,0,0,1-1,3.17,3.2,3.2,0,0,1-1.77.87l-.32,0h-.47l-.56-.09a3.42,3.42,0,0,1-2.58-2.84l0-.2h-1.49a.43.43,0,0,1-.33-.15l-.59-.68-1.57-1.79c-.45-.53-.91-1-1.37-1.58l-.25-.29-.38,1.07h0l0,0a3.42,3.42,0,0,1,1.88,2.64,3.13,3.13,0,0,1-.06,1.22,3.39,3.39,0,0,1-1.55,2.16,3.35,3.35,0,0,1-1.37.48l-.22,0h-.43c-.18,0-.35,0-.52-.08a3.37,3.37,0,0,1-2.21-1.63A3.33,3.33,0,0,1,263,207l0-.23Zm4.64-2.23s0,0,0,0c-.21.6-.42,1.2-.64,1.8-.07.22-.15.43-.23.64a.34.34,0,0,1-.42.23.36.36,0,0,1-.22-.47L267,204s0,0,0-.05a2.77,2.77,0,1,0,.64.24Zm7,2.73a2.71,2.71,0,0,0,5.08,1,2.75,2.75,0,0,0-.54-3.3,2.64,2.64,0,0,0-2.67-.59l.21.45.91,1.93a.41.41,0,0,1,0,.22.36.36,0,0,1-.36.29H274.6Zm-6.05-5.23,3.71,4.26,2-4.26Zm7,2-.72-1.52-1.91,4.07h1A3.46,3.46,0,0,1,275.53,203.65Zm-.92,2.55h2.12l-.89-1.9A2.71,2.71,0,0,0,274.61,206.2Z" transform="translate(-134.17 -70.99)"/><path class="cls-18" d="M287.77,198.09l0-.22a3.35,3.35,0,0,1,.48-1.38,3.39,3.39,0,0,1,2.15-1.55,3.34,3.34,0,0,1,1.54,0s0,0,.06,0l1.29-3.6a1.05,1.05,0,0,1,.84-.72h1.35v.7h-1.17a.36.36,0,0,0-.38.27l-.39,1.07a.09.09,0,0,1,0,0h5.75a.07.07,0,0,0,.07,0c.09-.2.19-.4.29-.6,0,0,0,0,0-.05h-1a.35.35,0,0,1-.33-.22.36.36,0,0,1,.09-.38.33.33,0,0,1,.25-.1h2.63V192h-.82s0,0-.06,0c-.15.33-.3.65-.46,1v.06l.93,2,0,0,.31-.1a3.56,3.56,0,0,1,1.17-.08,3.37,3.37,0,0,1,2.17,1.09,3.28,3.28,0,0,1,.84,1.68,3.36,3.36,0,0,1-1,3.18,3.2,3.2,0,0,1-1.77.87l-.31,0h-.47c-.19,0-.38,0-.57-.09a3.44,3.44,0,0,1-2.58-2.85l0-.19h-1.48a.4.4,0,0,1-.33-.15l-.6-.68L294.67,196c-.46-.53-.92-1-1.37-1.58-.09-.09-.17-.19-.26-.29l-.38,1.07h0l0,0a3.4,3.4,0,0,1,1.88,2.64,3.13,3.13,0,0,1-.06,1.22,3.39,3.39,0,0,1-1.55,2.16,3.31,3.31,0,0,1-1.36.48l-.23,0H291c-.17,0-.35,0-.52-.08a3.38,3.38,0,0,1-2.2-1.63,3.34,3.34,0,0,1-.44-1.3l0-.24Zm4.64-2.23a.43.43,0,0,1,0,0c-.22.6-.43,1.2-.64,1.8-.08.21-.16.43-.23.64a.35.35,0,0,1-.42.23.34.34,0,0,1-.22-.47c.29-.81.57-1.62.86-2.44,0,0,0,0,0,0a2.7,2.7,0,0,0-3.16,1.84,2.73,2.73,0,0,0,1.69,3.4,2.72,2.72,0,0,0,2.11-5Zm6.95,2.74a2.71,2.71,0,0,0,5.08,1,2.75,2.75,0,0,0-.54-3.3,2.68,2.68,0,0,0-2.67-.59l.21.45c.31.65.61,1.29.91,1.94a.32.32,0,0,1,0,.21.35.35,0,0,1-.36.3h-2.67Zm-6.05-5.23,3.71,4.25,2-4.25Zm7,2-.72-1.52-1.91,4.07h1A3.49,3.49,0,0,1,300.29,195.34Zm-.92,2.55h2.13l-.9-1.91A2.71,2.71,0,0,0,299.37,197.89Z" transform="translate(-134.17 -70.99)"/><path class="cls-18" d="M295,177a1.64,1.64,0,0,1,0-.22,3.22,3.22,0,0,1,.49-1.38,3.4,3.4,0,0,1,3.68-1.55s0,0,.06,0l1.29-3.6a1.05,1.05,0,0,1,.84-.72h1.35v.7h-1.16a.36.36,0,0,0-.39.27c-.13.36-.26.72-.38,1.07l0,.05h5.75s.06,0,.07,0c.09-.2.19-.4.29-.6,0,0,0,0,0,0h-1a.34.34,0,0,1-.32-.22.35.35,0,0,1,.08-.39.34.34,0,0,1,.25-.09h2.63v.7h-.82s0,0-.05,0c-.16.33-.31.65-.46,1a.13.13,0,0,0,0,.06l.93,2,0,0a3,3,0,0,1,.32-.09,3.24,3.24,0,0,1,1.16-.09,3.35,3.35,0,0,1,2.17,1.09,3.28,3.28,0,0,1,.84,1.68,3.36,3.36,0,0,1-1,3.18,3.2,3.2,0,0,1-1.77.87l-.31,0H309c-.19,0-.38-.05-.56-.09a3.32,3.32,0,0,1-1.87-1.19,3.36,3.36,0,0,1-.72-1.66l0-.19h-1.48a.41.41,0,0,1-.33-.15c-.2-.23-.4-.45-.59-.68l-1.57-1.79c-.46-.53-.92-1.05-1.37-1.58-.09-.09-.17-.19-.26-.29l-.38,1.07h0l0,0a3.42,3.42,0,0,1,1.88,2.64,3.13,3.13,0,0,1-.06,1.22,3.39,3.39,0,0,1-1.55,2.16,3.31,3.31,0,0,1-1.36.48l-.22,0h-.44c-.17,0-.35,0-.52-.08a3.38,3.38,0,0,1-2.2-1.63,3.34,3.34,0,0,1-.44-1.3,2,2,0,0,1,0-.23Zm4.64-2.22a.08.08,0,0,0,0,0c-.22.6-.43,1.2-.64,1.8-.08.21-.16.43-.23.64a.35.35,0,0,1-.42.23.34.34,0,0,1-.22-.47l.86-2.43s0,0,0,0a2.76,2.76,0,1,0,.65.24Zm6.94,2.73a2.68,2.68,0,0,0,2,2.33,2.71,2.71,0,0,0,3.08-1.33,2.76,2.76,0,0,0-.54-3.31,2.68,2.68,0,0,0-2.67-.59l.21.45.92,1.94a.31.31,0,0,1,0,.21.34.34,0,0,1-.36.3h-2.67Zm-6.05-5.23,3.71,4.25,2-4.25Zm7,2-.72-1.52-1.92,4.07h1A3.47,3.47,0,0,1,307.49,174.26Zm-.93,2.55h2.13l-.9-1.9A2.75,2.75,0,0,0,306.56,176.81Z" transform="translate(-134.17 -70.99)"/><path class="cls-18" d="M294.12,224l0-.22a3.21,3.21,0,0,1,.48-1.38,3.37,3.37,0,0,1,2.15-1.55,3.21,3.21,0,0,1,1.54,0,.05.05,0,0,0,.06,0c.42-1.2.85-2.4,1.28-3.6a1.07,1.07,0,0,1,.85-.72h1.34v.7h-1.16a.36.36,0,0,0-.39.27c-.12.36-.25.72-.38,1.07,0,0,0,0,0,.05h5.75a.08.08,0,0,0,.07,0l.28-.6,0,0h-1a.35.35,0,0,1-.32-.22.35.35,0,0,1,.09-.39.32.32,0,0,1,.24-.09h2.64v.7h-.82a.06.06,0,0,0-.06,0c-.15.33-.31.65-.46,1a.06.06,0,0,0,0,.06l.93,2v0c.11,0,.21-.07.32-.09a3.28,3.28,0,0,1,1.17-.09,3.37,3.37,0,0,1,2.17,1.09,3.28,3.28,0,0,1,.84,1.68,3.4,3.4,0,0,1-1,3.18,3.26,3.26,0,0,1-1.78.87l-.31,0h-.47c-.19,0-.38-.05-.56-.09a3.33,3.33,0,0,1-1.86-1.19,3.47,3.47,0,0,1-.73-1.66,1.37,1.37,0,0,0,0-.19H303.5a.43.43,0,0,1-.33-.15c-.19-.23-.39-.45-.59-.68L301,221.87c-.45-.53-.91-1.05-1.37-1.58l-.25-.29-.38,1.07h0l.05,0a3.4,3.4,0,0,1,1.87,2.64,3.34,3.34,0,0,1-.05,1.22,3.42,3.42,0,0,1-1.55,2.16,3.35,3.35,0,0,1-1.37.48l-.22,0h-.43c-.18,0-.35,0-.53-.08a3.41,3.41,0,0,1-2.2-1.63,3.17,3.17,0,0,1-.43-1.3l0-.23Zm4.64-2.22,0,0c-.21.6-.42,1.2-.64,1.8-.07.22-.15.43-.23.64a.34.34,0,0,1-.42.23.35.35,0,0,1-.22-.47l.87-2.43a.43.43,0,0,1,0,0,2.76,2.76,0,1,0,.65.24Zm6.94,2.73a2.71,2.71,0,0,0,5.08,1,2.74,2.74,0,0,0-.53-3.3,2.64,2.64,0,0,0-2.67-.59l.21.45c.3.64.61,1.28.91,1.93a.39.39,0,0,1,0,.21.35.35,0,0,1-.36.3H305.7Zm-6-5.23,3.71,4.26,2-4.26Zm7,2-.72-1.52L304,223.78h1A3.47,3.47,0,0,1,306.64,221.23Zm-.93,2.55h2.13l-.9-1.9A2.77,2.77,0,0,0,305.71,223.78Z" transform="translate(-134.17 -70.99)"/><path class="cls-18" d="M322,231.2a1.77,1.77,0,0,0,0-.23,3.45,3.45,0,0,1,2.16-3.3,3.26,3.26,0,0,1,1.52-.23s.05,0,.05-.05l.72-3.75a1.05,1.05,0,0,1,.73-.84.27.27,0,0,1,.12,0l1.17-.19h0l.1.69h-.05l-1.1.17a.36.36,0,0,0-.34.33l-.21,1.12a.2.2,0,0,0,0,0H327l5.64-.88s.05,0,.06-.05c.06-.22.12-.43.19-.64,0,0,0,0,0-.06h-.05l-1,.15a.35.35,0,0,1-.35-.17.37.37,0,0,1,0-.4.3.3,0,0,1,.22-.12l2.56-.4h.05l.11.69h-.05l-.76.12a.05.05,0,0,0-.06,0l-.3,1a.07.07,0,0,0,0,.06l1.21,1.8,0,0,.3-.14a3.27,3.27,0,0,1,1.14-.27,3.32,3.32,0,0,1,2.31.75A3.23,3.23,0,0,1,339.4,228a3.39,3.39,0,0,1-.54,3.3,3.31,3.31,0,0,1-1.62,1.13l-.3.08,0,0-.38.06h-.62a3.36,3.36,0,0,1-2-.89,3.4,3.4,0,0,1-1-1.52,1.05,1.05,0,0,0-.05-.19h-.06l-1.41.22a.41.41,0,0,1-.35-.1l-.69-.58L328.53,228l-1.6-1.34-.29-.25-.22,1.11h0l.05,0a3.4,3.4,0,0,1,2.26,2.32,3.29,3.29,0,0,1,.13,1.21,3.4,3.4,0,0,1-1.2,2.37,3.32,3.32,0,0,1-1.28.69l-.21.06-.39.06s0,0,0,0h-.53a3.37,3.37,0,0,1-2.43-1.27,3.46,3.46,0,0,1-.63-1.22l-.06-.22Zm4.25-2.92a.09.09,0,0,0,0,.05l-.36,1.87c0,.23-.09.45-.13.67a.35.35,0,0,1-.38.29.34.34,0,0,1-.29-.43l.48-2.54a.07.07,0,0,0,0-.05,2.76,2.76,0,1,0,.68.14Zm7.28,1.63a2.68,2.68,0,0,0,2.33,2,2.71,2.71,0,0,0,2.84-1.79,2.75,2.75,0,0,0-1-3.18,2.66,2.66,0,0,0-2.73-.17c.1.13.19.27.28.41l1.2,1.77a.38.38,0,0,1,.07.21.35.35,0,0,1-.31.34l-2.58.41Zm-6.78-4.23,4.32,3.62,1.33-4.51Zm7.2.86-.94-1.39-1.27,4.32,1-.15A3.48,3.48,0,0,1,334,226.54Zm-.52,2.66,2.1-.33-1.18-1.74A2.77,2.77,0,0,0,333.47,229.2Z" transform="translate(-134.17 -70.99)"/><path class="cls-18" d="M322.2,207.46a1.79,1.79,0,0,1,0-.23,3.26,3.26,0,0,1,.18-1.45,3.39,3.39,0,0,1,1.78-2,3.24,3.24,0,0,1,1.5-.31s.05,0,.06-.05c.16-1.26.33-2.53.5-3.79a1.06,1.06,0,0,1,.68-.88l.12,0,1.16-.25h0l.15.68-.06,0-1.08.23a.36.36,0,0,0-.32.35l-.15,1.13a.11.11,0,0,1,0,.05h0l5.58-1.2a.07.07,0,0,0,.06-.06l.15-.65a.07.07,0,0,0,0-.05h-.05l-.95.2a.34.34,0,0,1-.36-.15.33.33,0,0,1,0-.39.34.34,0,0,1,.22-.15L334,198h0l.15.68h-.05l-.75.17s0,0-.05,0c-.08.35-.17.7-.25,1.05a.08.08,0,0,0,0,.06l1.31,1.73,0,0,.29-.16a3.68,3.68,0,0,1,1.13-.33,3.35,3.35,0,0,1,2.35.62,3.22,3.22,0,0,1,1.17,1.46,3.4,3.4,0,0,1-.35,3.33,3.3,3.3,0,0,1-1.56,1.22l-.3.1,0,0-.37.08h-.05c-.19,0-.37,0-.56,0a3.33,3.33,0,0,1-2.07-.77,3.23,3.23,0,0,1-1.05-1.47,1.07,1.07,0,0,1-.07-.19l-.06,0-1.39.3a.43.43,0,0,1-.36-.08l-.72-.54-1.9-1.42-1.67-1.25-.31-.23-.15,1.12h.05a3.4,3.4,0,0,1,2.39,2.19,3.26,3.26,0,0,1,.2,1.2,3.42,3.42,0,0,1-1.07,2.44,3.32,3.32,0,0,1-1.23.75l-.22.08-.38.08h0a4.71,4.71,0,0,1-.53,0,3.37,3.37,0,0,1-2.49-1.12,3.26,3.26,0,0,1-.7-1.19c0-.07-.05-.14-.07-.22Zm4.07-3.16a.43.43,0,0,1,0,0c-.08.63-.17,1.26-.25,1.9l-.09.67a.35.35,0,0,1-.36.31.34.34,0,0,1-.32-.41c.12-.86.23-1.71.34-2.56a.11.11,0,0,0,0,0,2.72,2.72,0,1,0,.68.09Zm7.36,1.21a2.71,2.71,0,0,0,5.17-.09,2.74,2.74,0,0,0-1.21-3.12,2.64,2.64,0,0,0-2.73,0l.3.39,1.29,1.7a.32.32,0,0,1,.08.2.35.35,0,0,1-.29.37l-2.55.55Zm-7-3.83,4.51,3.37,1.08-4.58Zm7.24.45-1-1.33-1,4.38,1-.21A3.44,3.44,0,0,1,333.87,202.13Zm-.38,2.69,2.08-.45-1.27-1.67A2.74,2.74,0,0,0,333.49,204.82Z" transform="translate(-134.17 -70.99)"/><path class="cls-18" d="M299.33,254.11a1.64,1.64,0,0,1,0-.22A3.4,3.4,0,0,1,302,251a3.21,3.21,0,0,1,1.54,0s.05,0,.06,0l1.29-3.6a1.05,1.05,0,0,1,.84-.72h1.35v.7H305.9a.36.36,0,0,0-.39.27c-.13.36-.26.71-.38,1.07,0,0,0,0,0,.05h5.75s.06,0,.07,0c.09-.2.19-.4.29-.6,0,0,0,0,0-.06h-1a.35.35,0,0,1-.33-.22.36.36,0,0,1,.09-.38.33.33,0,0,1,.25-.1h2.63v.7H312s0,0-.06,0l-.45,1s0,0,0,.06l.93,2,0,0,.32-.1a3.24,3.24,0,0,1,1.16-.08,3.37,3.37,0,0,1,2.17,1.09,3.28,3.28,0,0,1,.84,1.68,3.36,3.36,0,0,1-1,3.18,3.26,3.26,0,0,1-1.77.87l-.31,0h-.47a5.58,5.58,0,0,1-.57-.08,3.44,3.44,0,0,1-2.58-2.85l0-.19h-1.48a.4.4,0,0,1-.33-.15l-.6-.68-1.56-1.8c-.46-.52-.92-1-1.37-1.57-.09-.09-.17-.19-.26-.29l-.38,1.07h0l0,0a3.4,3.4,0,0,1,1.88,2.64,3.13,3.13,0,0,1-.06,1.22,3.39,3.39,0,0,1-1.55,2.16,3.31,3.31,0,0,1-1.36.48l-.23,0h-.43a4.63,4.63,0,0,1-.52-.07,3.38,3.38,0,0,1-2.2-1.63,3.34,3.34,0,0,1-.44-1.3,1.94,1.94,0,0,1,0-.24Zm4.63-2.23a.43.43,0,0,1,0,.05c-.22.6-.43,1.2-.64,1.8-.08.21-.16.43-.23.64a.34.34,0,1,1-.64-.25l.86-2.43s0,0,0-.05a2.78,2.78,0,1,0,.64.24Zm7,2.74a2.71,2.71,0,0,0,5.08,1,2.75,2.75,0,0,0-.54-3.3,2.68,2.68,0,0,0-2.67-.59l.21.45c.31.65.61,1.29.91,1.94a.32.32,0,0,1,0,.21.35.35,0,0,1-.36.3h-2.67Zm-6.05-5.23,3.71,4.25,2-4.25Zm7,2-.72-1.52-1.92,4.07h1A3.47,3.47,0,0,1,311.85,251.36Zm-.93,2.55h2.13l-.9-1.91A2.77,2.77,0,0,0,310.92,253.91Z" transform="translate(-134.17 -70.99)"/><path class="cls-18" d="M269.56,269.67a1.5,1.5,0,0,1,0-.22,3.27,3.27,0,0,1,.49-1.39,3.38,3.38,0,0,1,2.14-1.55,3.34,3.34,0,0,1,1.54,0s.05,0,.06,0l1.29-3.6a1.05,1.05,0,0,1,.84-.72h1.35v.69h-1.16a.36.36,0,0,0-.39.28c-.13.36-.26.71-.38,1.07,0,0,0,0,0,.05h5.75s.06,0,.07,0c.09-.2.19-.4.29-.6a.14.14,0,0,1,0-.06h-1a.34.34,0,0,1-.32-.22.36.36,0,0,1,.08-.39.38.38,0,0,1,.25-.09h2.63v.7h-.82s0,0,0,0c-.16.32-.31.65-.46,1a.15.15,0,0,0,0,.06l.93,2,0,0,.32-.09a3,3,0,0,1,1.16-.08,3.42,3.42,0,0,1,3,2.77,3.36,3.36,0,0,1-1,3.18,3.26,3.26,0,0,1-1.77.87l-.31,0h-.47a5,5,0,0,1-.56-.09,3.36,3.36,0,0,1-1.87-1.18,3.4,3.4,0,0,1-.72-1.66l0-.19h-1.48a.41.41,0,0,1-.33-.15l-.59-.68-1.57-1.8L275.08,266l-.26-.29-.38,1.07h0l0,0a3.4,3.4,0,0,1,1.88,2.64,3.08,3.08,0,0,1-.06,1.21,3.38,3.38,0,0,1-1.55,2.17,3.16,3.16,0,0,1-1.36.47l-.22,0h-.44a3.12,3.12,0,0,1-.52-.08,3.34,3.34,0,0,1-2.2-1.62,3.39,3.39,0,0,1-.44-1.31,1.64,1.64,0,0,1,0-.23Zm4.64-2.23s0,0,0,.05c-.22.6-.43,1.2-.64,1.8-.08.21-.16.43-.23.64a.35.35,0,0,1-.42.22.34.34,0,0,1-.22-.47l.86-2.43,0-.05a2.76,2.76,0,1,0,.65.24Zm6.94,2.74a2.71,2.71,0,0,0,5.08,1,2.75,2.75,0,0,0-.54-3.3,2.68,2.68,0,0,0-2.67-.59l.21.45c.31.64.61,1.29.92,1.93a.33.33,0,0,1,0,.22.35.35,0,0,1-.36.3h-2.67ZM275.09,265l3.71,4.25,2-4.25Zm7,2-.72-1.51-1.92,4.06h1A3.49,3.49,0,0,1,282.08,266.91Zm-.93,2.55h2.13l-.9-1.9A2.77,2.77,0,0,0,281.15,269.46Z" transform="translate(-134.17 -70.99)"/><path class="cls-18" d="M299.33,289.67a1.79,1.79,0,0,1,0-.23,3.43,3.43,0,0,1,2.63-2.93,3.34,3.34,0,0,1,1.54,0s.05,0,.06,0l1.29-3.59a1.05,1.05,0,0,1,.84-.72l.13,0h1.22v.7H305.9a.36.36,0,0,0-.39.28c-.13.35-.26.71-.38,1.07,0,0,0,0,0,0h5.75s.06,0,.07-.05c.09-.2.19-.4.29-.6a.17.17,0,0,1,0-.05h-1a.36.36,0,0,1-.33-.22.37.37,0,0,1,.09-.39.37.37,0,0,1,.25-.09h2.63v.7H312s0,0-.06,0l-.45,1a.15.15,0,0,0,0,.06l.93,2,0,0,.32-.09a3.24,3.24,0,0,1,1.16-.09,3.38,3.38,0,0,1,2.17,1.1,3.2,3.2,0,0,1,.84,1.68,3.34,3.34,0,0,1-1,3.17,3.2,3.2,0,0,1-1.77.87l-.31,0h-.47a5.62,5.62,0,0,1-.57-.09,3.42,3.42,0,0,1-2.58-2.84l0-.2h-1.48a.37.37,0,0,1-.33-.15l-.6-.68-1.56-1.79L304.85,286l-.26-.29-.38,1.06h0l0,0a3.42,3.42,0,0,1,1.88,2.65,3.09,3.09,0,0,1-.06,1.21,3.39,3.39,0,0,1-1.55,2.16,3.17,3.17,0,0,1-1.36.48l-.23,0h-.43c-.17,0-.35,0-.52-.08a3.35,3.35,0,0,1-2.2-1.63,3.29,3.29,0,0,1-.44-1.3,1.79,1.79,0,0,1,0-.23Zm4.63-2.23s0,0,0,.05c-.22.6-.43,1.19-.64,1.79-.08.22-.16.43-.23.65a.35.35,0,0,1-.42.22.34.34,0,0,1-.22-.47l.86-2.43,0-.05a2.78,2.78,0,1,0,.64.24Zm7,2.73a2.71,2.71,0,0,0,5.08,1,2.75,2.75,0,0,0-.54-3.3,2.64,2.64,0,0,0-2.67-.59l.21.45c.31.64.61,1.29.91,1.93a.34.34,0,0,1,0,.22.34.34,0,0,1-.36.29h-2.67Zm-6.05-5.23,3.71,4.26,2-4.26Zm7,2-.72-1.51-1.92,4.06h1A3.49,3.49,0,0,1,311.85,286.91Zm-.93,2.55h2.13l-.9-1.9A2.77,2.77,0,0,0,310.92,289.46Z" transform="translate(-134.17 -70.99)"/><path class="cls-18" d="M324,274.74l.09-.21a3.14,3.14,0,0,1,.85-1.19,3.36,3.36,0,0,1,4-.45s.05,0,.07,0l2.23-3.09a1.06,1.06,0,0,1,1-.45l.12,0,1.14.33h0l-.19.67h-.06l-1.06-.32a.37.37,0,0,0-.45.16l-.66.92,0,0,.05,0,5.48,1.6a.06.06,0,0,0,.07,0c.15-.17.3-.33.44-.5l0-.05h-.05l-.93-.27a.34.34,0,0,1-.25-.3.35.35,0,0,1,.19-.35.3.3,0,0,1,.26,0l2.49.72,0,0-.19.67h-.05l-.74-.22s0,0-.06,0l-.72.81a.06.06,0,0,0,0,.06c.11.71.23,1.43.34,2.15v0h.33a3.19,3.19,0,0,1,1.14.24,3.36,3.36,0,0,1,1.78,1.66,3.23,3.23,0,0,1,.34,1.85,3.36,3.36,0,0,1-1.87,2.76,3.22,3.22,0,0,1-2,.34l-.31-.05h0l-.37-.1,0,0c-.17-.08-.35-.15-.52-.25a3.43,3.43,0,0,1-1.69-3.45l0-.2h-.06l-1.37-.4a.41.41,0,0,1-.27-.24c-.13-.27-.26-.55-.38-.82-.34-.72-.68-1.44-1-2.16s-.59-1.27-.88-1.9c-.06-.11-.11-.23-.17-.35l-.66.92h0l0,0a3.4,3.4,0,0,1,1.07,3.07,3.14,3.14,0,0,1-.39,1.15,3.38,3.38,0,0,1-2.09,1.64,3.33,3.33,0,0,1-1.44.08l-.22,0-.38-.11,0,0a4.31,4.31,0,0,1-.49-.22,3.46,3.46,0,0,1-1.72-3.56,1.57,1.57,0,0,0,0-.23Zm5.08-.84,0,0L328,275.49l-.4.55a.34.34,0,1,1-.54-.42l1.5-2.09,0,0a2.69,2.69,0,0,0-3.54.88,2.73,2.73,0,0,0,.68,3.74,2.69,2.69,0,0,0,3.74-.59A2.72,2.72,0,0,0,329.11,273.9Zm5.91,4.57a2.71,2.71,0,0,0,4.6,2.38,2.75,2.75,0,0,0,.4-3.32,2.67,2.67,0,0,0-2.4-1.31c0,.16.05.33.08.49l.33,2.11a.33.33,0,0,1,0,.22.36.36,0,0,1-.43.18l-2.51-.73Zm-4.36-6.72,2.38,5.13,3.11-3.52Zm6.16,3.85-.27-1.65-3,3.36.95.28A3.48,3.48,0,0,1,336.82,275.6Zm-1.6,2.19,2,.6-.34-2.08A2.76,2.76,0,0,0,335.22,277.79Z" transform="translate(-134.17 -70.99)"/><path class="cls-18" d="M329.46,254.57l.06-.21a3.55,3.55,0,0,1,.69-1.3,3.37,3.37,0,0,1,2.36-1.19,3.17,3.17,0,0,1,1.52.24s.05,0,.07,0l1.81-3.36a1.07,1.07,0,0,1,.95-.58h.13l1.17.18h0l-.1.69h-.06l-1.09-.17a.36.36,0,0,0-.43.22l-.54,1,0,.05h.05l5.63.88s.06,0,.08,0c.12-.19.25-.37.37-.55l0,0h-.05l-1-.15a.34.34,0,0,1-.28-.27.35.35,0,0,1,.14-.37.4.4,0,0,1,.26,0l2.56.4h0l-.1.69h0l-.76-.12s-.05,0-.07,0l-.6.89a.07.07,0,0,0,0,.06c.2.7.41,1.4.62,2.09v0l.32,0a3.07,3.07,0,0,1,1.17.1,3.37,3.37,0,0,1,2,1.41,3.28,3.28,0,0,1,.57,1.79,3.37,3.37,0,0,1-1.51,3,3.32,3.32,0,0,1-1.88.59l-.32,0h0l-.38-.06,0,0c-.18-.06-.37-.1-.55-.17a3.49,3.49,0,0,1-2.12-3.21c0-.07,0-.13,0-.2h-.06l-1.41-.22a.39.39,0,0,1-.3-.2c-.16-.25-.33-.5-.49-.76l-1.27-2c-.37-.59-.74-1.18-1.12-1.77-.06-.11-.13-.21-.2-.33l-.54,1h0l0,0a3.42,3.42,0,0,1,1.46,2.9,3.25,3.25,0,0,1-.25,1.19,3.37,3.37,0,0,1-1.86,1.9,3.29,3.29,0,0,1-1.42.26h-.22l-.39-.06h0c-.17-.06-.34-.09-.5-.16a3.4,3.4,0,0,1-1.93-1.95,3.13,3.13,0,0,1-.23-1.35,1.93,1.93,0,0,1,0-.24Zm4.93-1.48,0,0-.9,1.68-.33.6a.34.34,0,1,1-.59-.34c.41-.76.82-1.51,1.22-2.27l0-.05a2.78,2.78,0,1,0,.6.34Zm6.44,3.77a2.72,2.72,0,1,0,4.84-1.57,2.65,2.65,0,0,0-2.54-1c0,.16.09.32.14.48l.6,2a.41.41,0,0,1,0,.22.36.36,0,0,1-.41.23l-2.58-.4Zm-5.18-6.1,3,4.78,2.62-3.9Zm6.61,3-.48-1.6-2.52,3.72,1,.15A3.49,3.49,0,0,1,342.26,253.78ZM341,256.16l2.11.33-.6-2A2.75,2.75,0,0,0,341,256.16Z" transform="translate(-134.17 -70.99)"/><path class="cls-18" d="M290.14,322l0-.23a3.26,3.26,0,0,1,.48-1.38,3.37,3.37,0,0,1,2.15-1.55,3.3,3.3,0,0,1,1.53,0s.06,0,.07,0c.42-1.2.85-2.39,1.28-3.59a1.07,1.07,0,0,1,.85-.72l.13,0h1.21v.7h-1.16a.36.36,0,0,0-.39.28c-.13.35-.25.71-.38,1.07l0,0h5.76s.05,0,.07,0l.28-.6s0,0,0-.05h-1a.35.35,0,0,1-.32-.22.35.35,0,0,1,.09-.39.36.36,0,0,1,.24-.09h2.64v.7h-.82a.05.05,0,0,0-.06,0l-.46,1a.06.06,0,0,0,0,.06l.93,2v0l.32-.09a3.28,3.28,0,0,1,1.17-.09,3.38,3.38,0,0,1,2.17,1.1,3.24,3.24,0,0,1,.84,1.68,3.39,3.39,0,0,1-1,3.17,3.26,3.26,0,0,1-1.78.87l-.31,0h-.47a5,5,0,0,1-.56-.09,3.37,3.37,0,0,1-1.86-1.18,3.41,3.41,0,0,1-.73-1.66c0-.07,0-.13,0-.2h-1.49a.4.4,0,0,1-.33-.15l-.59-.67-1.57-1.8-1.37-1.57-.25-.29-.39,1.06h0l.05,0a3.37,3.37,0,0,1,1.87,2.64,3.29,3.29,0,0,1-.05,1.21,3.43,3.43,0,0,1-1.55,2.16,3.22,3.22,0,0,1-1.37.48l-.22,0h-.43c-.18,0-.35,0-.53-.08a3.37,3.37,0,0,1-2.2-1.63,3.13,3.13,0,0,1-.43-1.3l0-.23Zm4.64-2.23,0,.05c-.21.6-.43,1.19-.64,1.79-.07.22-.15.43-.23.65a.34.34,0,0,1-.42.22.35.35,0,0,1-.22-.47l.87-2.43s0,0,0,0a2.76,2.76,0,1,0,.65.24Zm6.94,2.73a2.72,2.72,0,1,0,4.55-2.3,2.64,2.64,0,0,0-2.67-.59l.21.45.91,1.93a.41.41,0,0,1,0,.22.36.36,0,0,1-.36.29h-2.68Zm-6.05-5.23,3.72,4.26,2-4.26Zm7,2-.72-1.51L300,321.8h1A3.49,3.49,0,0,1,302.66,319.25Zm-.93,2.55h2.13l-.9-1.9A2.77,2.77,0,0,0,301.73,321.8Z" transform="translate(-134.17 -70.99)"/><path class="cls-18" d="M321.5,312.56a1.8,1.8,0,0,1,.08-.21,3.24,3.24,0,0,1,.8-1.22,3.36,3.36,0,0,1,2.47-1,3.2,3.2,0,0,1,1.48.39s.05,0,.07,0l2.13-3.17a1.05,1.05,0,0,1,1-.48l.13,0,1.14.29h0l-.18.67h-.05l-1.07-.27a.35.35,0,0,0-.45.17l-.63.94,0,0h.05l5.53,1.42s.05,0,.07,0l.43-.51,0-.05h-.05l-.94-.24a.37.37,0,0,1-.26-.3.38.38,0,0,1,.18-.35.37.37,0,0,1,.27,0l2.5.64.05,0-.17.67h-.05l-.75-.19s0,0-.06,0l-.69.83a.07.07,0,0,0,0,.06c.13.71.27,1.43.41,2.14v0h.33a3.21,3.21,0,0,1,1.15.21,3.35,3.35,0,0,1,1.83,1.6,3.28,3.28,0,0,1,.41,1.84,3.36,3.36,0,0,1-1.79,2.81,3.26,3.26,0,0,1-1.93.41l-.31-.05h-.05l-.37-.09,0,0c-.17-.08-.36-.14-.52-.23a3.35,3.35,0,0,1-1.52-1.61,3.43,3.43,0,0,1-.29-1.79c0-.06,0-.12,0-.19l0,0-1.39-.35a.41.41,0,0,1-.28-.23c-.13-.27-.27-.53-.41-.8-.36-.71-.72-1.42-1.07-2.13l-.95-1.87-.17-.34L327,311h0l0,0a3.44,3.44,0,0,1,1.17,3,3,3,0,0,1-.36,1.16,3.43,3.43,0,0,1-3.47,1.84l-.22,0-.38-.09,0,0a5.16,5.16,0,0,1-.49-.21,3.4,3.4,0,0,1-1.73-2.12,3.34,3.34,0,0,1-.1-1.37l0-.23Zm5-1,0,0-1.06,1.58-.38.57a.33.33,0,0,1-.46.11.35.35,0,0,1-.1-.51c.48-.71,1-1.42,1.43-2.14l0,0a2.69,2.69,0,0,0-3.51,1,2.73,2.73,0,0,0,.8,3.71,2.7,2.7,0,0,0,3.73-.71A2.72,2.72,0,0,0,326.54,311.55Zm6.06,4.38a2.71,2.71,0,0,0,4.67,2.22,2.74,2.74,0,0,0,.29-3.33,2.65,2.65,0,0,0-2.44-1.23c0,.16.07.32.1.49.13.7.27,1.4.4,2.1a.3.3,0,0,1,0,.21.35.35,0,0,1-.43.2l-2.52-.65ZM328,309.36l2.55,5,3-3.62Zm6.29,3.64-.33-1.65-2.85,3.47.95.24A3.49,3.49,0,0,1,334.31,313Zm-1.53,2.24,2.06.53-.4-2.07A2.75,2.75,0,0,0,332.78,315.24Z" transform="translate(-134.17 -70.99)"/><path class="cls-18" d="M270,303.18c0-.07,0-.15,0-.22a3.31,3.31,0,0,1,.49-1.39A3.37,3.37,0,0,1,272.6,300a3.21,3.21,0,0,1,1.54,0s.05,0,.06,0l1.29-3.6a1.05,1.05,0,0,1,.84-.72h1.35v.7h-1.16a.35.35,0,0,0-.39.27c-.13.36-.26.71-.38,1.07,0,0,0,0,0,.05h5.76a.05.05,0,0,0,.06,0l.29-.6a.42.42,0,0,0,0-.06h-1a.32.32,0,0,1-.32-.22.36.36,0,0,1,.08-.39.38.38,0,0,1,.25-.09h2.63v.7h-.81s-.05,0-.06,0c-.16.33-.31.65-.46,1a.06.06,0,0,0,0,.06l.92,2,0,0,.32-.09a3,3,0,0,1,1.16-.08,3.35,3.35,0,0,1,2.17,1.09,3.28,3.28,0,0,1,.84,1.68,3.38,3.38,0,0,1-1,3.18,3.33,3.33,0,0,1-1.78.87l-.31,0H284a5,5,0,0,1-.56-.08,3.44,3.44,0,0,1-2.59-2.85l0-.19h-1.48a.41.41,0,0,1-.33-.15c-.2-.23-.4-.45-.59-.68l-1.57-1.8-1.37-1.57c-.09-.09-.17-.19-.26-.29l-.38,1.07h0l0,0a3.38,3.38,0,0,1,1.88,2.64,3.08,3.08,0,0,1-.06,1.21,3.38,3.38,0,0,1-1.55,2.17,3.26,3.26,0,0,1-1.36.48l-.22,0h-.44a4.63,4.63,0,0,1-.52-.07,3.38,3.38,0,0,1-2.2-1.63,3.34,3.34,0,0,1-.44-1.3c0-.08,0-.16,0-.24Zm4.64-2.23,0,.05c-.22.6-.43,1.2-.64,1.8-.08.21-.15.43-.23.64a.33.33,0,0,1-.42.22.34.34,0,0,1-.22-.47c.29-.81.58-1.62.86-2.43a.08.08,0,0,0,0-.05,2.76,2.76,0,1,0,.65.24Zm6.94,2.74a2.72,2.72,0,1,0,4.54-2.31,2.68,2.68,0,0,0-2.67-.59l.21.45.92,1.94a.3.3,0,0,1,0,.21.35.35,0,0,1-.36.3h-2.67Zm-6-5.23,3.71,4.25,2-4.25Zm7,2-.72-1.51L279.83,303h1A3.49,3.49,0,0,1,282.47,300.42Zm-.93,2.56h2.13l-.9-1.91A2.77,2.77,0,0,0,281.54,303Z" transform="translate(-134.17 -70.99)"/><path class="cls-18" d="M269.33,241.2l0-.22a3.3,3.3,0,0,1,.48-1.39,3.39,3.39,0,0,1,2.15-1.54,3.17,3.17,0,0,1,1.53,0s.06,0,.07,0c.42-1.2.85-2.4,1.28-3.6a1.07,1.07,0,0,1,.85-.72h1.34v.7H275.9a.36.36,0,0,0-.39.27l-.38,1.07a.17.17,0,0,1,0,.05h5.76a.08.08,0,0,0,.07,0l.28-.6,0-.06h-1a.33.33,0,0,1-.32-.22.34.34,0,0,1,.09-.38.33.33,0,0,1,.24-.1h2.64v.7h-.82a.05.05,0,0,0-.06,0c-.15.33-.31.65-.46,1a.06.06,0,0,0,0,.06l.93,2v0l.32-.1A3.52,3.52,0,0,1,284,238a3.37,3.37,0,0,1,2.17,1.09,3.28,3.28,0,0,1,.84,1.68,3.41,3.41,0,0,1-1,3.18,3.33,3.33,0,0,1-1.78.87,3,3,0,0,1-.31,0h-.47a5,5,0,0,1-.56-.08,3.33,3.33,0,0,1-1.86-1.19,3.37,3.37,0,0,1-.73-1.66c0-.06,0-.13,0-.19h-1.49a.43.43,0,0,1-.33-.15c-.19-.23-.39-.45-.59-.68l-1.57-1.8-1.37-1.57-.25-.29-.39,1.07h0l0,0a3.39,3.39,0,0,1,1.87,2.64,3.34,3.34,0,0,1-.05,1.22,3.42,3.42,0,0,1-1.55,2.16,3.35,3.35,0,0,1-1.37.48l-.22,0h-.43a4.81,4.81,0,0,1-.53-.07,3.41,3.41,0,0,1-2.2-1.63,3.17,3.17,0,0,1-.43-1.3l0-.24ZM274,239s0,0,0,.05l-.64,1.8c-.07.21-.15.43-.23.64a.34.34,0,0,1-.42.23.35.35,0,0,1-.22-.47l.87-2.44a.43.43,0,0,0,0-.05,2.76,2.76,0,1,0,.65.24Zm6.94,2.74a2.73,2.73,0,0,0,2,2.33A2.7,2.7,0,0,0,286,242.7a2.75,2.75,0,0,0-.53-3.3,2.69,2.69,0,0,0-2.67-.59l.21.45c.3.65.61,1.29.91,1.94a.39.39,0,0,1,0,.21.36.36,0,0,1-.36.3h-2.68Zm-6.05-5.23,3.72,4.25,2-4.25Zm7,2-.72-1.52L279.22,241h1A3.47,3.47,0,0,1,281.85,238.45Zm-.93,2.55h2.13l-.9-1.91A2.77,2.77,0,0,0,280.92,241Z" transform="translate(-134.17 -70.99)"/><path class="cls-19" d="M320.88,97.39" transform="translate(-134.17 -70.99)"/><ellipse class="cls-20" cx="127" cy="60.68" rx="47.21" ry="60.68"/><rect class="cls-21" x="235.11" y="108.31" width="22.71" height="14.12" rx="4.43" ry="4.43" transform="translate(358.76 159.76) rotate(180)"/><rect class="cls-22" x="264.7" y="108.31" width="22.71" height="14.12" rx="4.43" ry="4.43" transform="translate(417.94 159.76) rotate(180)"/><ellipse class="cls-23" cx="112.29" cy="44.39" rx="2.25" ry="2.8"/><ellipse class="cls-23" cx="141.88" cy="44.39" rx="2.25" ry="2.8"/><path class="cls-24" d="M214.51,120.46l20-33.81s36.65,6.39,50.47,0l21.23,29.82s-5.68-24.9-19.08-35.11c-9.37-7.13-12.15-7.58-13-8.07a5.91,5.91,0,0,0-2.53-.67c-4.62-1.47-20-4.07-35.37,7.12C217.76,93.21,214.51,120.46,214.51,120.46Z" transform="translate(-134.17 -70.99)"/><path class="cls-25" d="M285,86.77l21,29.53s-5.61-24.67-18.89-34.77C285.87,80.57,288.94,83,285,86.77Z" transform="translate(-134.17 -70.99)"/><path class="cls-26" d="M307.39,140.49s-43.78,59.65-94,0c0,0,5.33,50.23,47.21,53C260.57,193.45,300.81,194.83,307.39,140.49Z" transform="translate(-134.17 -70.99)"/><line class="cls-19" x1="114.55" y1="92.2" x2="139.63" y2="92.2"/><path class="cls-27" d="M248.72,163.19a22.94,22.94,0,0,1,6.27-2,35.88,35.88,0,0,1,6.27-.54,34.93,34.93,0,0,1,6.27.53,23,23,0,0,1,6.27,2,22.94,22.94,0,0,1-6.27,2,35.88,35.88,0,0,1-6.27.54,36.89,36.89,0,0,1-6.27-.55A23.26,23.26,0,0,1,248.72,163.19Z" transform="translate(-134.17 -70.99)"/><line class="cls-19" x1="113.18" y1="92.2" x2="141.25" y2="92.2"/><path class="cls-28" d="M247.35,163.19c2.34-.16,4.68-.23,7-.29s4.68-.06,7-.09,4.67,0,7,.09,4.68.13,7,.29c-2.34.15-4.68.22-7,.28s-4.67.06-7,.09-4.68,0-7-.09S249.69,163.34,247.35,163.19Z" transform="translate(-134.17 -70.99)"/><polyline class="cls-29" points="132.36 74.85 127.57 76.32 121.82 74.64 126.55 52.5"/><polyline class="cls-30" points="127.57 76.32 121.82 74.64 126.55 52.5"/><path class="cls-20" d="M264.05,115.21s-2.43-3.19-5.57,0" transform="translate(-134.17 -70.99)"/><path class="cls-31" d="M264,115.24a8.68,8.68,0,0,0-2.72-.54,5.46,5.46,0,0,0-1.2.15c-.23.05-.46.13-.73.19a5.09,5.09,0,0,1-.85.2l-.07-.07.6-.55a7.92,7.92,0,0,1,.67-.46,3.41,3.41,0,0,1,1.56-.46,3.73,3.73,0,0,1,2.82,1.48Z" transform="translate(-134.17 -70.99)"/><ellipse class="cls-32" cx="141.88" cy="44.39" rx="1.15" ry="1.43"/><ellipse class="cls-32" cx="112.29" cy="44.39" rx="1.15" ry="1.43"/><path class="cls-33" d="M213.36,140.49s12.2,37.25,29,46.84C242.34,187.33,222.84,184.54,213.36,140.49Z" transform="translate(-134.17 -70.99)"/></svg>