<svg id="Layer_1" data-name="Layer 1" xmlns="http://www.w3.org/2000/svg" xmlns:xlink="http://www.w3.org/1999/xlink" viewBox="0 0 262.15 417.9"><defs><style>.cls-1{fill:#e4e1c7;}.cls-2{fill:#512e2a;}.cls-3,.cls-4{fill:#9e2b20;}.cls-14,.cls-23,.cls-4,.cls-6{stroke:#231f20;}.cls-14,.cls-15,.cls-16,.cls-17,.cls-21,.cls-22,.cls-23,.cls-32,.cls-4,.cls-6,.cls-8{stroke-miterlimit:10;}.cls-5{fill:#231f20;}.cls-16,.cls-6,.cls-8{fill:none;}.cls-23,.cls-6{stroke-width:0.25px;}.cls-7{fill:#c2b59b;}.cls-8{stroke:#9b8579;}.cls-9{fill:#b1a58e;}.cls-10{fill:#9b8579;}.cls-11{fill:#1e4496;}.cls-12,.cls-17{fill:#234093;}.cls-13{fill:#124b9a;}.cls-14,.cls-15,.cls-20,.cls-21,.cls-22,.cls-23{fill:#fff;}.cls-15{stroke:#f9a560;}.cls-16{stroke:#283c91;}.cls-17{stroke:#262262;stroke-width:0.5px;}.cls-18{fill:#fff200;}.cls-19{fill:#d1d3d4;}.cls-21{stroke:url(#White_Black);}.cls-22{stroke:url(#White_Black-2);}.cls-24{fill:#fde79e;}.cls-25{fill:#fbeac8;}.cls-26{fill:#e5e1c5;}.cls-27{fill:#f9c9de;}.cls-28{fill:#8d536f;}.cls-29{fill:#e3e2db;}.cls-30{fill:#d0cca8;}.cls-31{fill:url(#White_Black-3);}.cls-32{fill:#2e3192;stroke:#00aeef;}.cls-33{fill:#cfcdb4;}</style><linearGradient id="White_Black" x1="265.16" y1="115.37" x2="288.88" y2="115.37" gradientTransform="matrix(1, 0, 0, -1, -30.55, 230.75)" gradientUnits="userSpaceOnUse"><stop offset="0" stop-color="#fff"/><stop offset="1" stop-color="#231f20"/></linearGradient><linearGradient id="White_Black-2" x1="235.57" y1="115.37" x2="259.28" y2="115.37" gradientTransform="matrix(1, 0, 0, -1, 28.63, 230.75)" xlink:href="#White_Black"/><linearGradient id="White_Black-3" x1="264.45" y1="114.47" x2="258.12" y2="114.47" gradientTransform="matrix(1, 0, 0, 1, 0, 0)" xlink:href="#White_Black"/></defs><title>9</title><polyline class="cls-1" points="153.86 334.96 147.25 400.24 139.82 399.87 139.07 334.22"/><polyline class="cls-1" points="107.76 334.96 114.36 400.24 121.8 399.87 122.55 334.22"/><path class="cls-2" d="M230.77,475.18s-20.25,10.71-7.52,12.21l12.73,1.5h16.19s6.73-4.74,6.73-11.59" transform="translate(-128.89 -70.99)"/><path class="cls-2" d="M286.2,475.18s20.24,10.71,7.52,12.21L281,488.89H264.8s-5.9-4.74-5.9-11.59" transform="translate(-128.89 -70.99)"/><path class="cls-3" d="M244.2,470.46s-33.1,10.7-20.38,12.2l12.73,1.49h16.19s6.16,0,6.16-6.85l-7.23-6.23h-.53" transform="translate(-128.89 -70.99)"/><path class="cls-3" d="M266.6,470.13l-7.39,7.17c0,6.85,6.16,6.85,6.16,6.85h16.19l12.73-1.49c12.73-1.5-18.15-12.21-18.15-12.21" transform="translate(-128.89 -70.99)"/><path class="cls-4" d="M259.31,477" transform="translate(-128.89 -70.99)"/><path class="cls-5" d="M270.57,414.52v2.22a3.22,3.22,0,0,1,0,.62,3.21,3.21,0,0,0,0-.62v-2.22a2.57,2.57,0,0,1,0-.62,2.57,2.57,0,0,0,0,.62Z" transform="translate(-128.89 -70.99)"/><path class="cls-5" d="M275.4,418.15v1.21a3.22,3.22,0,0,1,0,.62,3.2,3.2,0,0,0,0-.62v-1.21a3.22,3.22,0,0,1,0-.62,3.2,3.2,0,0,0,0,.62Z" transform="translate(-128.89 -70.99)"/><path class="cls-5" d="M277,422v1.21a2.57,2.57,0,0,1,0,.62,2.57,2.57,0,0,0,0-.62V422a3.33,3.33,0,0,1,0-.63,3.32,3.32,0,0,0,0,.63Z" transform="translate(-128.89 -70.99)"/><path class="cls-5" d="M280,421.78v.2a3.22,3.22,0,0,1,0,.62,3.21,3.21,0,0,0,0-.62v-.2a2.66,2.66,0,0,1,0-.63,2.66,2.66,0,0,0,0,.63Z" transform="translate(-128.89 -70.99)"/><path class="cls-5" d="M274,429.86s0-1.25,0-1.25,0,1.25,0,1.25Z" transform="translate(-128.89 -70.99)"/><path class="cls-5" d="M271.38,422v1.41a3.21,3.21,0,0,1,0,.62,3.21,3.21,0,0,0,0-.62V422a3.33,3.33,0,0,1,0-.63,3.32,3.32,0,0,0,0,.63Z" transform="translate(-128.89 -70.99)"/><path class="cls-5" d="M271.58,431v1.62a2.57,2.57,0,0,1,0,.62,2.57,2.57,0,0,0,0-.62V431a3.21,3.21,0,0,1,0-.62,3.21,3.21,0,0,0,0,.62Z" transform="translate(-128.89 -70.99)"/><path class="cls-5" d="M277.82,434.07v.6a3.33,3.33,0,0,1,0,.63,3.32,3.32,0,0,0,0-.63v-.6a3.33,3.33,0,0,1,0-.63,3.32,3.32,0,0,0,0,.63Z" transform="translate(-128.89 -70.99)"/><path class="cls-5" d="M275.81,436.28v1.62a2.57,2.57,0,0,1,0,.62,2.57,2.57,0,0,0,0-.62v-1.62a3.21,3.21,0,0,1,0-.62,3.21,3.21,0,0,0,0,.62Z" transform="translate(-128.89 -70.99)"/><path class="cls-5" d="M273.19,437.29v1a2.57,2.57,0,0,1,0,.62,2.57,2.57,0,0,0,0-.62v-1a3.22,3.22,0,0,1,0-.62,3.21,3.21,0,0,0,0,.62Z" transform="translate(-128.89 -70.99)"/><path class="cls-5" d="M271.17,437.49v.2a3.33,3.33,0,0,1,0,.63,3.32,3.32,0,0,0,0-.63v-.2a3.22,3.22,0,0,1,0-.62,3.21,3.21,0,0,0,0,.62Z" transform="translate(-128.89 -70.99)"/><path class="cls-5" d="M270.77,441.72v1a3.32,3.32,0,0,1,0,.63,3.31,3.31,0,0,0,0-.63v-1a2.57,2.57,0,0,1,0-.62,2.57,2.57,0,0,0,0,.62Z" transform="translate(-128.89 -70.99)"/><path class="cls-5" d="M276.82,443.34v.6a3.21,3.21,0,0,1,0,.62,3.2,3.2,0,0,0,0-.62v-.6a3.33,3.33,0,0,1,0-.63,3.32,3.32,0,0,0,0,.63Z" transform="translate(-128.89 -70.99)"/><path class="cls-5" d="M274.8,446v.21a3.21,3.21,0,0,1,0,.62,3.21,3.21,0,0,0,0-.62V446a2.57,2.57,0,0,1,0-.62,2.57,2.57,0,0,0,0,.62Z" transform="translate(-128.89 -70.99)"/><path class="cls-5" d="M272,449v1.21a3.21,3.21,0,0,1,0,.62,3.21,3.21,0,0,0,0-.62V449a2.66,2.66,0,0,1,0-.63,2.66,2.66,0,0,0,0,.63Z" transform="translate(-128.89 -70.99)"/><path class="cls-5" d="M276,451.6v.2a3.22,3.22,0,0,1,0,.62,3.21,3.21,0,0,0,0-.62v-.2a2.66,2.66,0,0,1,0-.63,2.66,2.66,0,0,0,0,.63Z" transform="translate(-128.89 -70.99)"/><path class="cls-5" d="M272.59,454.24s0-1.25,0-1.25,0,1.25,0,1.25Z" transform="translate(-128.89 -70.99)"/><path class="cls-5" d="M279.64,412.71v.81a3.21,3.21,0,0,1,0,.62,2.57,2.57,0,0,0,0-.62v-.81a3.22,3.22,0,0,1,0-.62,3.21,3.21,0,0,0,0,.62Z" transform="translate(-128.89 -70.99)"/><path class="cls-5" d="M272,411.1s0-1.25,0-1.25,0,1.25,0,1.25Z" transform="translate(-128.89 -70.99)"/><path class="cls-5" d="M276,409.9v-1.25s0,1.25,0,1.25Z" transform="translate(-128.89 -70.99)"/><path class="cls-5" d="M275.61,410.7v.6a3.21,3.21,0,0,1,0,.62,2.56,2.56,0,0,0,0-.62v-.6a3.33,3.33,0,0,1,0-.63,3.32,3.32,0,0,0,0,.63Z" transform="translate(-128.89 -70.99)"/><path class="cls-5" d="M280.64,408.88v1a3.22,3.22,0,0,1,0,.62,3.2,3.2,0,0,0,0-.62v-1a3.22,3.22,0,0,1,0-.62,3.21,3.21,0,0,0,0,.62Z" transform="translate(-128.89 -70.99)"/><path class="cls-5" d="M244.38,409.27v.4a3.31,3.31,0,0,1,0,.63,2.66,2.66,0,0,0,0-.63v-.4a3.22,3.22,0,0,1,0-.62,3.21,3.21,0,0,0,0,.62Z" transform="translate(-128.89 -70.99)"/><path class="cls-5" d="M248.82,409.31v-1.25s0,1.25,0,1.25Z" transform="translate(-128.89 -70.99)"/><path class="cls-6" d="M281.56,414a2,2,0,0,0,.64,2.18" transform="translate(-128.89 -70.99)"/><path class="cls-6" d="M281.53,411.07a2,2,0,0,1,.7,1.62" transform="translate(-128.89 -70.99)"/><path class="cls-6" d="M277,411.75a1.07,1.07,0,0,1-.55,1.22" transform="translate(-128.89 -70.99)"/><path class="cls-6" d="M271.39,411.94v1.5" transform="translate(-128.89 -70.99)"/><path class="cls-6" d="M268.77,411.19a2.15,2.15,0,0,1-.82,1.44" transform="translate(-128.89 -70.99)"/><path class="cls-6" d="M267.94,409.13a2.32,2.32,0,0,1-.5,1.48" transform="translate(-128.89 -70.99)"/><path class="cls-6" d="M268.58,414.84a3.35,3.35,0,0,0-.86,1.78" transform="translate(-128.89 -70.99)"/><path class="cls-6" d="M269.44,420a2.06,2.06,0,0,1-.49,1.12" transform="translate(-128.89 -70.99)"/><path class="cls-6" d="M272.49,416.26a1.31,1.31,0,0,1-.23,1.23" transform="translate(-128.89 -70.99)"/><path class="cls-6" d="M275.91,415.75a6.64,6.64,0,0,1,1.1.88" transform="translate(-128.89 -70.99)"/><path class="cls-6" d="M278.6,420.28l.48.65" transform="translate(-128.89 -70.99)"/><path class="cls-6" d="M274.48,420v.93" transform="translate(-128.89 -70.99)"/><path class="cls-6" d="M280.6,422.7a1.34,1.34,0,0,1,.24,1.13" transform="translate(-128.89 -70.99)"/><path class="cls-6" d="M279.72,426.09l.86,1.3" transform="translate(-128.89 -70.99)"/><path class="cls-6" d="M273,424.86a2.8,2.8,0,0,1-.91,1.34" transform="translate(-128.89 -70.99)"/><path class="cls-6" d="M269.52,425a1.92,1.92,0,0,1-1,1.71" transform="translate(-128.89 -70.99)"/><path class="cls-6" d="M269.24,431.15a1.72,1.72,0,0,1-.38,1.11" transform="translate(-128.89 -70.99)"/><path class="cls-6" d="M274.86,429.46v1" transform="translate(-128.89 -70.99)"/><path class="cls-6" d="M276.45,429.28a1,1,0,0,1,.75.46" transform="translate(-128.89 -70.99)"/><path class="cls-6" d="M280.1,430.78l.84.47" transform="translate(-128.89 -70.99)"/><path class="cls-6" d="M279.48,432.75a2.32,2.32,0,0,0,.61,2.25" transform="translate(-128.89 -70.99)"/><path class="cls-6" d="M268.61,434.85a2.07,2.07,0,0,1-1.06.27" transform="translate(-128.89 -70.99)"/><path class="cls-5" d="M248.69,415.35v2.21a3.33,3.33,0,0,1,0,.63,3.32,3.32,0,0,0,0-.63v-2.21a3.33,3.33,0,0,1,0-.63,3.32,3.32,0,0,0,0,.63Z" transform="translate(-128.89 -70.99)"/><path class="cls-5" d="M243.86,419v1.21a2.66,2.66,0,0,1,0,.63,2.66,2.66,0,0,0,0-.63V419a3.21,3.21,0,0,1,0-.62,3.21,3.21,0,0,0,0,.62Z" transform="translate(-128.89 -70.99)"/><path class="cls-5" d="M242.25,422.8V424a2.66,2.66,0,0,1,0,.63,2.66,2.66,0,0,0,0-.63V422.8a3.21,3.21,0,0,1,0-.62,3.21,3.21,0,0,0,0,.62Z" transform="translate(-128.89 -70.99)"/><path class="cls-5" d="M239.22,422.6v.2a3.33,3.33,0,0,1,0,.63,3.32,3.32,0,0,0,0-.63v-.2a3.22,3.22,0,0,1,0-.62,3.21,3.21,0,0,0,0,.62Z" transform="translate(-128.89 -70.99)"/><path class="cls-5" d="M245.28,430.68v-1.25s0,1.25,0,1.25Z" transform="translate(-128.89 -70.99)"/><path class="cls-5" d="M247.89,422.8v1.41a2.66,2.66,0,0,1,0,.63,2.66,2.66,0,0,0,0-.63V422.8a3.21,3.21,0,0,1,0-.62,3.21,3.21,0,0,0,0,.62Z" transform="translate(-128.89 -70.99)"/><path class="cls-5" d="M247.69,431.87v1.61a2.66,2.66,0,0,1,0,.63,2.66,2.66,0,0,0,0-.63v-1.61a3.32,3.32,0,0,1,0-.63,3.31,3.31,0,0,0,0,.63Z" transform="translate(-128.89 -70.99)"/><path class="cls-5" d="M241.44,434.89v.61a3.21,3.21,0,0,1,0,.62,3.21,3.21,0,0,0,0-.62v-.61a2.57,2.57,0,0,1,0-.62,2.57,2.57,0,0,0,0,.62Z" transform="translate(-128.89 -70.99)"/><path class="cls-5" d="M243.46,437.11v1.61a3.21,3.21,0,0,1,0,.62,2.56,2.56,0,0,0,0-.62v-1.61a3.33,3.33,0,0,1,0-.63,3.32,3.32,0,0,0,0,.63Z" transform="translate(-128.89 -70.99)"/><path class="cls-5" d="M246.07,438.12v1a3.33,3.33,0,0,1,0,.63,3.32,3.32,0,0,0,0-.63v-1a3.33,3.33,0,0,1,0-.63,3.32,3.32,0,0,0,0,.63Z" transform="translate(-128.89 -70.99)"/><path class="cls-5" d="M248.09,438.32v.2a3.22,3.22,0,0,1,0,.62,3.21,3.21,0,0,0,0-.62v-.2a2.66,2.66,0,0,1,0-.63,2.66,2.66,0,0,0,0,.63Z" transform="translate(-128.89 -70.99)"/><path class="cls-5" d="M248.49,442.55v1a3.21,3.21,0,0,1,0,.62,3.21,3.21,0,0,0,0-.62v-1a3.33,3.33,0,0,1,0-.63,3.32,3.32,0,0,0,0,.63Z" transform="translate(-128.89 -70.99)"/><path class="cls-5" d="M242.45,444.16v.6a2.66,2.66,0,0,1,0,.63,2.66,2.66,0,0,0,0-.63v-.6a3.32,3.32,0,0,1,0-.63,3.32,3.32,0,0,0,0,.63Z" transform="translate(-128.89 -70.99)"/><path class="cls-5" d="M244.46,446.78v.2a3.32,3.32,0,0,1,0,.63,3.32,3.32,0,0,0,0-.63v-.2a3.32,3.32,0,0,1,0-.63,3.32,3.32,0,0,0,0,.63Z" transform="translate(-128.89 -70.99)"/><path class="cls-5" d="M247.28,449.8V451a3.32,3.32,0,0,1,0,.63,3.32,3.32,0,0,0,0-.63V449.8a3.22,3.22,0,0,1,0-.62,3.21,3.21,0,0,0,0,.62Z" transform="translate(-128.89 -70.99)"/><path class="cls-5" d="M243.25,452.42v.2a3.33,3.33,0,0,1,0,.63,3.32,3.32,0,0,0,0-.63v-.2a3.22,3.22,0,0,1,0-.62,3.2,3.2,0,0,0,0,.62Z" transform="translate(-128.89 -70.99)"/><path class="cls-5" d="M246.69,455.06s0-1.25,0-1.25,0,1.25,0,1.25Z" transform="translate(-128.89 -70.99)"/><path class="cls-5" d="M239.63,413.53v.81a2.66,2.66,0,0,1,0,.63,2.66,2.66,0,0,0,0-.63v-.81a3.21,3.21,0,0,1,0-.62,3.21,3.21,0,0,0,0,.62Z" transform="translate(-128.89 -70.99)"/><path class="cls-5" d="M247.29,409.93s0-1.25,0-1.25,0,1.25,0,1.25Z" transform="translate(-128.89 -70.99)"/><path class="cls-5" d="M243.26,410.72s0-1.25,0-1.25,0,1.25,0,1.25Z" transform="translate(-128.89 -70.99)"/><path class="cls-5" d="M243.66,411.52v.6a2.66,2.66,0,0,1,0,.63,2.66,2.66,0,0,0,0-.63v-.6a3.32,3.32,0,0,1,0-.63,3.32,3.32,0,0,0,0,.63Z" transform="translate(-128.89 -70.99)"/><path class="cls-5" d="M238.62,409.71v1a3.33,3.33,0,0,1,0,.63,3.31,3.31,0,0,0,0-.63v-1a2.66,2.66,0,0,1,0-.63,2.66,2.66,0,0,0,0,.63Z" transform="translate(-128.89 -70.99)"/><path class="cls-6" d="M237.72,414.84a2,2,0,0,1-.64,2.19" transform="translate(-128.89 -70.99)"/><path class="cls-6" d="M237.74,411.89a2,2,0,0,0-.7,1.62" transform="translate(-128.89 -70.99)"/><path class="cls-6" d="M242.28,412.58a1.07,1.07,0,0,0,.54,1.22" transform="translate(-128.89 -70.99)"/><path class="cls-6" d="M247.88,412.76v1.5" transform="translate(-128.89 -70.99)"/><path class="cls-6" d="M250.5,412a2.14,2.14,0,0,0,.82,1.44" transform="translate(-128.89 -70.99)"/><path class="cls-6" d="M251.34,410a2.3,2.3,0,0,0,.49,1.49" transform="translate(-128.89 -70.99)"/><path class="cls-6" d="M250.7,415.66a3.26,3.26,0,0,1,.85,1.78" transform="translate(-128.89 -70.99)"/><path class="cls-6" d="M249.84,420.82a2,2,0,0,0,.49,1.12" transform="translate(-128.89 -70.99)"/><path class="cls-6" d="M246.78,417.08a1.33,1.33,0,0,0,.24,1.23" transform="translate(-128.89 -70.99)"/><path class="cls-6" d="M243.37,416.57a6.74,6.74,0,0,0-1.1.88" transform="translate(-128.89 -70.99)"/><path class="cls-6" d="M240.68,421.11l-.48.64" transform="translate(-128.89 -70.99)"/><path class="cls-6" d="M244.79,420.82v.94" transform="translate(-128.89 -70.99)"/><path class="cls-6" d="M238.68,423.52a1.37,1.37,0,0,0-.25,1.14" transform="translate(-128.89 -70.99)"/><path class="cls-6" d="M239.55,426.91l-.85,1.31" transform="translate(-128.89 -70.99)"/><path class="cls-6" d="M246.3,425.69a2.87,2.87,0,0,0,.91,1.33" transform="translate(-128.89 -70.99)"/><path class="cls-6" d="M249.75,425.79a1.92,1.92,0,0,0,1,1.71" transform="translate(-128.89 -70.99)"/><path class="cls-6" d="M250,432a1.7,1.7,0,0,0,.39,1.12" transform="translate(-128.89 -70.99)"/><path class="cls-6" d="M244.42,430.28v1" transform="translate(-128.89 -70.99)"/><path class="cls-6" d="M242.83,430.1a1.06,1.06,0,0,0-.76.46" transform="translate(-128.89 -70.99)"/><path class="cls-6" d="M239.18,431.61l-.85.46" transform="translate(-128.89 -70.99)"/><path class="cls-6" d="M239.79,433.57a2.33,2.33,0,0,1-.6,2.26" transform="translate(-128.89 -70.99)"/><path class="cls-6" d="M250.67,435.67a2,2,0,0,0,1.05.27" transform="translate(-128.89 -70.99)"/><polygon class="cls-7" points="101.62 336.55 162.73 336.55 179.59 271.16 84.76 271.16 101.62 336.55"/><line class="cls-8" x1="131.68" y1="283.69" x2="131.68" y2="336.55"/><path class="cls-9" d="M222.77,354l13.13,53.16h-5.72l-15.43-61S221.14,352.69,222.77,354Z" transform="translate(-128.89 -70.99)"/><path class="cls-9" d="M287.42,379.87l4.12,3.08,7.76-5.21L302,376l-1.37-3.24s-8.69,7.63-13.18,7.16l-2,15.94s8.32-.17,10.46-4.74l3.3-12.8" transform="translate(-128.89 -70.99)"/><path class="cls-10" d="M287.42,379.87l4.16,3h-.08c3.44-2.39,6.91-4.73,10.38-7.08l-.06.19-1.38-3.23.27.06a51.79,51.79,0,0,1-6.13,4.59,25,25,0,0,1-3.38,1.83,8.1,8.1,0,0,1-3.81.85l.27-.21c-.65,5.31-1.38,10.62-2.06,15.93l-.2-.21a22.56,22.56,0,0,0,3-.33,16.59,16.59,0,0,0,2.87-.75,9.83,9.83,0,0,0,2.62-1.34,6.17,6.17,0,0,0,1.9-2.19v0c1.1-4.27,2.3-8.52,3.44-12.77-1.06,4.28-2.07,8.57-3.17,12.84h0a6.5,6.5,0,0,1-2,2.32,10.6,10.6,0,0,1-2.69,1.4,16.26,16.26,0,0,1-2.91.79,20.27,20.27,0,0,1-3,.36h-.22l0-.23c.65-5.31,1.27-10.63,2-15.94l0-.23.23,0a7.7,7.7,0,0,0,3.58-.78,25.53,25.53,0,0,0,3.35-1.77,52.61,52.61,0,0,0,6.12-4.5l.18-.16.09.22,1.35,3.25.06.12-.11.07c-3.49,2.32-7,4.65-10.49,6.92l0,0,0,0Z" transform="translate(-128.89 -70.99)"/><path class="cls-9" d="M234.84,379.87,230.73,383,223,377.74,220.29,376l1.37-3.24s8.69,7.63,13.18,7.16l2,15.94s-8.32-.17-10.46-4.74l-3.3-12.8" transform="translate(-128.89 -70.99)"/><path class="cls-10" d="M234.84,379.87,230.76,383l0,0,0,0c-3.51-2.27-7-4.6-10.48-6.92l-.11-.07.05-.12,1.35-3.25.09-.22.19.16a51.77,51.77,0,0,0,6.12,4.5,25.41,25.41,0,0,0,3.34,1.77,7.7,7.7,0,0,0,3.58.78l.23,0,0,.23c.69,5.31,1.31,10.63,2,15.94l0,.23h-.23a20.14,20.14,0,0,1-3-.36,16.59,16.59,0,0,1-2.92-.79,10.6,10.6,0,0,1-2.69-1.4,6.6,6.6,0,0,1-2-2.32h0c-1.1-4.27-2.11-8.56-3.16-12.84,1.14,4.25,2.33,8.5,3.43,12.77v0a6.26,6.26,0,0,0,1.9,2.19,10,10,0,0,0,2.62,1.34,16.83,16.83,0,0,0,2.87.75,22.76,22.76,0,0,0,3,.33l-.19.21c-.69-5.31-1.41-10.62-2.06-15.93l.26.21a8.12,8.12,0,0,1-3.81-.85,25.64,25.64,0,0,1-3.38-1.83,51.79,51.79,0,0,1-6.13-4.59l.27-.06L220.44,376l-.06-.19c3.47,2.35,6.94,4.69,10.38,7.08h-.07Z" transform="translate(-128.89 -70.99)"/><path class="cls-9" d="M261.06,369.14a52.19,52.19,0,0,0,7.2-.5l-.86,38.89h-6.34Z" transform="translate(-128.89 -70.99)"/><path class="cls-11" d="M308.72,159.22s134.83,19.42,59.38,177.92l-20.05-10.62" transform="translate(-128.89 -70.99)"/><path class="cls-12" d="M211.21,159.22S76.37,178.64,151.83,337.14l20-10.62" transform="translate(-128.89 -70.99)"/><ellipse class="cls-13" cx="131.55" cy="196.11" rx="100.49" ry="123.25"/><path class="cls-14" d="M204.54,350.53" transform="translate(-128.89 -70.99)"/><path class="cls-15" d="M154.92,335.73s6.22,11.31,23.74,7.6l1.62-1,.35-.36s-8.29-14-8.62-16.33" transform="translate(-128.89 -70.99)"/><path class="cls-15" d="M366.26,336.94s-6.22,11.31-23.74,7.6l-1.62-1-.35-.37s8.29-14,8.63-16.32" transform="translate(-128.89 -70.99)"/><polyline class="cls-16" points="132.14 317.92 132.14 108.84 146.63 122.26 174.25 95.12"/><path class="cls-17" d="M193,224.45s-10.74,23.31-6.18,33.41l12.22,7.38L214,260.19l6.84-33.41" transform="translate(-128.89 -70.99)"/><polyline class="cls-16" points="130.09 317.92 130.09 108.84 115.6 122.26 87.97 95.12"/><path class="cls-18" d="M211.37,190.31l.08-.21a3.28,3.28,0,0,1,.82-1.23,3.59,3.59,0,0,1,2.55-1,3.51,3.51,0,0,1,1.56.37s.05,0,.07,0l2.17-3.2a1.1,1.1,0,0,1,1-.5l.13,0,1.21.27h0l-.17.68-.06,0-1.12-.25a.38.38,0,0,0-.46.17l-.64,1,0,0h.05l5.78,1.33s.06,0,.08,0l.43-.52a.1.1,0,0,0,0-.05h-.06l-1-.22a.36.36,0,0,1-.28-.29.35.35,0,0,1,.18-.36.32.32,0,0,1,.27,0l2.63.6h.05l-.17.68h0l-.78-.18a.06.06,0,0,0-.07,0c-.24.29-.47.56-.7.85a.11.11,0,0,0,0,.05c.16.72.31,1.43.47,2.14v0l.34,0a3.77,3.77,0,0,1,1.2.19,3.49,3.49,0,0,1,1.94,1.57,3.2,3.2,0,0,1,.45,1.83,3.34,3.34,0,0,1-1.82,2.85,3.49,3.49,0,0,1-2,.43l-.32,0h-.05l-.38-.09h-.05l-.55-.22a3.43,3.43,0,0,1-1.6-1.59,3.23,3.23,0,0,1-.33-1.78,1.36,1.36,0,0,1,0-.2h-.06l-1.45-.33a.47.47,0,0,1-.3-.23L220,192c-.38-.7-.77-1.4-1.15-2.11s-.68-1.23-1-1.85a3.72,3.72,0,0,1-.19-.34l-.65,1h0l0,0a3.37,3.37,0,0,1,1.27,3,3.23,3.23,0,0,1-.35,1.17,3.51,3.51,0,0,1-2.1,1.74,3.56,3.56,0,0,1-1.49.14l-.24,0-.39-.09,0,0c-.17-.07-.35-.12-.51-.2a3.41,3.41,0,0,1-1.84-2.1,3,3,0,0,1-.13-1.37l0-.23Zm5.24-1.08,0,0-1.08,1.6-.39.57a.37.37,0,0,1-.48.12.34.34,0,0,1-.11-.51l1.47-2.16,0,0a2.87,2.87,0,0,0-3.64,1.06,2.66,2.66,0,0,0,.89,3.7,2.89,2.89,0,0,0,3.87-.77A2.63,2.63,0,0,0,216.61,189.23Zm6.38,4.28a2.69,2.69,0,0,0,1.47,2.74,2.9,2.9,0,0,0,3.44-.59,2.66,2.66,0,0,0,.25-3.33,2.82,2.82,0,0,0-2.56-1.2c0,.16.07.33.1.49.16.7.31,1.39.46,2.09a.33.33,0,0,1,0,.22.36.36,0,0,1-.44.2l-2.65-.61Zm-4.87-6.5,2.74,5,3-3.67Zm6.61,3.55-.37-1.65-2.92,3.51,1,.23A3.54,3.54,0,0,1,224.73,190.56Zm-1.56,2.26,2.16.5-.45-2.06A2.79,2.79,0,0,0,223.17,192.82Z" transform="translate(-128.89 -70.99)"/><path class="cls-18" d="M217.25,214.57l0-.23a3.29,3.29,0,0,1,.5-1.38,3.53,3.53,0,0,1,2.24-1.55,3.6,3.6,0,0,1,1.6,0s.06,0,.07,0c.44-1.19.89-2.39,1.34-3.59a1.09,1.09,0,0,1,.88-.72h1.4v.7H224.1a.37.37,0,0,0-.4.28c-.14.36-.27.71-.4,1.07,0,0,0,0,0,.05h6a.08.08,0,0,0,.07,0c.1-.21.2-.41.29-.61l0-.05h-1.06a.35.35,0,0,1-.34-.22.34.34,0,0,1,.09-.39.39.39,0,0,1,.26-.09h2.74v.7h-.85a.05.05,0,0,0-.06,0l-.48,1a.06.06,0,0,0,0,.06l1,2,0,0,.33-.09a3.6,3.6,0,0,1,3.48,1,3.18,3.18,0,0,1,.87,1.68,3.26,3.26,0,0,1-1.08,3.17,3.44,3.44,0,0,1-1.85.88l-.32,0h-.49a5.58,5.58,0,0,1-.59-.09,3.54,3.54,0,0,1-1.94-1.18,3.27,3.27,0,0,1-.75-1.66l0-.2H227a.4.4,0,0,1-.34-.14l-.62-.68-1.63-1.8L223,210.88l-.27-.29-.4,1.07h0l.05,0a3.38,3.38,0,0,1,1.95,2.64,2.9,2.9,0,0,1-.06,1.21,3.38,3.38,0,0,1-1.61,2.16,3.42,3.42,0,0,1-1.42.48l-.24,0h-.45a5,5,0,0,1-.54-.08,3.54,3.54,0,0,1-2.3-1.62,3.41,3.41,0,0,1-.45-1.31l0-.23Zm4.84-2.23s0,0,0,0c-.22.6-.45,1.2-.67,1.79l-.24.65a.36.36,0,0,1-.44.22.34.34,0,0,1-.22-.47l.9-2.43s0,0,0-.05a2.84,2.84,0,0,0-3.29,1.85,2.7,2.7,0,0,0,1.77,3.39,2.84,2.84,0,0,0,3.57-1.61A2.67,2.67,0,0,0,222.09,212.34Zm7.24,2.73a2.73,2.73,0,0,0,2.08,2.34,2.86,2.86,0,0,0,3.21-1.34,2.67,2.67,0,0,0-.56-3.3,2.86,2.86,0,0,0-2.78-.59c.07.15.14.3.22.45.31.64.63,1.29.95,1.93a.33.33,0,0,1,0,.22.35.35,0,0,1-.37.29h-2.78ZM223,209.85l3.87,4.25,2.09-4.25Zm7.28,2-.75-1.51-2,4.06h1A3.52,3.52,0,0,1,230.3,211.81Zm-1,2.55h2.22l-.93-1.9A2.79,2.79,0,0,0,229.33,214.36Z" transform="translate(-128.89 -70.99)"/><path class="cls-18" d="M227.89,238.87l0-.23a3.16,3.16,0,0,1,.5-1.38,3.53,3.53,0,0,1,2.24-1.55,3.6,3.6,0,0,1,1.6,0s.05,0,.07,0c.44-1.2.89-2.39,1.33-3.59a1.09,1.09,0,0,1,.89-.72l.13,0H236v.7h-1.21a.38.38,0,0,0-.41.28c-.13.35-.26.71-.4,1.07a.2.2,0,0,0,0,0h6s.05,0,.06,0l.3-.6,0-.05h-1.07a.38.38,0,0,1-.34-.22.36.36,0,0,1,.1-.39.37.37,0,0,1,.25-.09H242v.7h-.86s0,0-.06,0l-.48,1v.06c.32.66.65,1.32,1,2l0,0,.33-.09a3.59,3.59,0,0,1,3.47,1,3.23,3.23,0,0,1,.88,1.68,3.3,3.3,0,0,1-1.08,3.17,3.43,3.43,0,0,1-1.85.87l-.33,0h-.49a5.81,5.81,0,0,1-.58-.09,3.5,3.5,0,0,1-1.94-1.18,3.37,3.37,0,0,1-.76-1.66,1.36,1.36,0,0,1,0-.2h-1.55a.42.42,0,0,1-.35-.15l-.61-.67-1.64-1.8-1.43-1.57c-.08-.1-.17-.19-.26-.29L233,236h0l0,0a3.37,3.37,0,0,1,2,2.64,3.09,3.09,0,0,1-.06,1.21,3.38,3.38,0,0,1-1.61,2.16,3.47,3.47,0,0,1-1.43.48l-.23,0h-.45c-.18,0-.37,0-.54-.08a3.49,3.49,0,0,1-2.3-1.63,3,3,0,0,1-.45-1.3l0-.23Zm4.83-2.23s0,0,0,.05l-.66,1.79-.24.65a.36.36,0,0,1-.44.22.35.35,0,0,1-.23-.47l.9-2.43s0,0,0,0a2.83,2.83,0,0,0-3.29,1.85,2.69,2.69,0,0,0,1.76,3.39A2.85,2.85,0,0,0,234.1,240,2.67,2.67,0,0,0,232.72,236.64Zm7.24,2.73a2.75,2.75,0,0,0,2.09,2.34,2.89,2.89,0,0,0,3.21-1.34,2.68,2.68,0,0,0-.56-3.3,2.85,2.85,0,0,0-2.79-.59c.08.15.15.3.22.45.32.64.64,1.29,1,1.93a.29.29,0,0,1,0,.22.35.35,0,0,1-.37.29H240Zm-6.3-5.23,3.87,4.26,2.09-4.26Zm7.28,2-.75-1.51-2,4.06h1A3.49,3.49,0,0,1,240.94,236.11Zm-1,2.55h2.22l-.94-1.9A2.74,2.74,0,0,0,240,238.66Z" transform="translate(-128.89 -70.99)"/><path class="cls-18" d="M231.86,269l0-.22a3.11,3.11,0,0,1,.5-1.38,3.5,3.5,0,0,1,2.24-1.55,3.46,3.46,0,0,1,1.6,0,.07.07,0,0,0,.07,0c.44-1.2.88-2.4,1.33-3.6a1.09,1.09,0,0,1,.89-.72h1.4v.7h-1.21a.38.38,0,0,0-.41.27c-.13.36-.26.72-.4,1.07,0,0,0,0,0,.05h6s.06,0,.07,0l.3-.6,0-.05h-1.07a.35.35,0,0,1-.25-.61.36.36,0,0,1,.26-.09H246v.7h-.86a.07.07,0,0,0-.06,0l-.48,1s0,0,0,.06c.32.66.65,1.31,1,2l0,0,.33-.09a3.61,3.61,0,0,1,3.47,1,3.26,3.26,0,0,1,.88,1.68,3.32,3.32,0,0,1-1.08,3.18,3.43,3.43,0,0,1-1.85.87l-.33,0h-.49c-.19,0-.39-.05-.58-.09a3.43,3.43,0,0,1-1.94-1.19,3.33,3.33,0,0,1-.76-1.66l0-.19h-1.54a.45.45,0,0,1-.35-.15l-.61-.68c-.55-.6-1.09-1.2-1.64-1.79s-.95-1.05-1.43-1.58l-.26-.29-.4,1.07h0l0,0a3.42,3.42,0,0,1,2,2.64,3.13,3.13,0,0,1-.06,1.22,3.39,3.39,0,0,1-1.62,2.16,3.52,3.52,0,0,1-1.42.48l-.23,0h-.45c-.18,0-.37,0-.55-.08a3.53,3.53,0,0,1-2.29-1.63,3.06,3.06,0,0,1-.45-1.3l0-.23Zm4.83-2.22,0,0-.66,1.8-.24.64a.37.37,0,0,1-.44.23.34.34,0,0,1-.23-.47l.9-2.43,0-.05a2.83,2.83,0,0,0-3.29,1.84,2.7,2.7,0,0,0,1.76,3.4,2.85,2.85,0,0,0,3.58-1.61A2.67,2.67,0,0,0,236.69,266.81Zm7.24,2.73a2.73,2.73,0,0,0,2.09,2.33,2.86,2.86,0,0,0,3.2-1.33,2.67,2.67,0,0,0-.55-3.3,2.85,2.85,0,0,0-2.79-.59l.22.44c.32.65.64,1.29,1,1.94a.27.27,0,0,1,0,.21.35.35,0,0,1-.38.3h-2.78Zm-6.3-5.23,3.87,4.25,2.09-4.25Zm7.28,2-.75-1.52-2,4.07h1A3.45,3.45,0,0,1,244.91,266.28Zm-1,2.55h2.22l-.94-1.9A2.74,2.74,0,0,0,243.94,268.83Z" transform="translate(-128.89 -70.99)"/><path class="cls-18" d="M231.86,300.64l0-.22a3.15,3.15,0,0,1,.5-1.39,3.5,3.5,0,0,1,2.24-1.55,3.6,3.6,0,0,1,1.6,0s.05,0,.07,0c.44-1.2.88-2.4,1.33-3.6a1.09,1.09,0,0,1,.89-.72h1.4v.69h-1.21a.38.38,0,0,0-.41.28c-.13.36-.26.71-.4,1.07a.43.43,0,0,0,0,.05h6s.06,0,.07,0l.3-.6,0-.06h-1.07a.35.35,0,0,1-.25-.61.41.41,0,0,1,.26-.09H246v.7h-.86s0,0-.06,0l-.48,1s0,.05,0,.06c.32.66.65,1.32,1,2l0,0,.33-.09a3.29,3.29,0,0,1,1.21-.08,3.49,3.49,0,0,1,2.26,1.09,3.35,3.35,0,0,1-.2,4.85,3.44,3.44,0,0,1-1.85.88l-.33,0h-.49a5.81,5.81,0,0,1-.58-.09A3.47,3.47,0,0,1,244,303a3.37,3.37,0,0,1-.76-1.66l0-.19h-1.54a.45.45,0,0,1-.35-.15l-.61-.68-1.64-1.8L237.61,297c-.08-.1-.17-.19-.26-.29l-.4,1.07h0l0,0a3.41,3.41,0,0,1,2,2.64,3.08,3.08,0,0,1-.06,1.21,3.51,3.51,0,0,1-3,2.64l-.23,0h-.45a3.65,3.65,0,0,1-2.84-1.7,3.1,3.1,0,0,1-.45-1.31l0-.23Zm4.83-2.23s0,0,0,0l-.66,1.8-.24.64a.36.36,0,0,1-.44.22.34.34,0,0,1-.23-.47l.9-2.43s0,0,0-.05a2.83,2.83,0,0,0-3.29,1.85,2.71,2.71,0,0,0,1.76,3.4,2.86,2.86,0,0,0,3.58-1.62A2.67,2.67,0,0,0,236.69,298.41Zm7.24,2.74a2.75,2.75,0,0,0,2.09,2.33,2.86,2.86,0,0,0,3.2-1.34,2.67,2.67,0,0,0-.55-3.3,2.88,2.88,0,0,0-2.79-.59c.08.15.15.3.22.45.32.64.64,1.29,1,1.93a.29.29,0,0,1,0,.22.36.36,0,0,1-.38.29h-2.78Zm-6.3-5.23,3.87,4.25,2.09-4.25Zm7.28,2-.75-1.51-2,4.06h1A3.47,3.47,0,0,1,244.91,297.88Zm-1,2.55h2.22l-.94-1.9A2.74,2.74,0,0,0,243.94,300.43Z" transform="translate(-128.89 -70.99)"/><path class="cls-18" d="M231.86,323.78l0-.22a3.2,3.2,0,0,1,.5-1.39,3.52,3.52,0,0,1,2.24-1.54,3.46,3.46,0,0,1,1.6,0s.05,0,.07,0c.44-1.2.88-2.4,1.33-3.6a1.09,1.09,0,0,1,.89-.72h1.4v.7h-1.21a.38.38,0,0,0-.41.27c-.13.36-.26.72-.4,1.07,0,0,0,0,0,.05h6s.06,0,.07,0l.3-.6,0-.06h-1.07a.34.34,0,0,1-.25-.6.37.37,0,0,1,.26-.1H246v.7h-.86s0,0-.06,0l-.48,1s0,0,0,.06c.32.65.65,1.31,1,2l0,0,.33-.1a3.78,3.78,0,0,1,1.21-.08,3.54,3.54,0,0,1,2.26,1.09,3.26,3.26,0,0,1,.88,1.68,3.32,3.32,0,0,1-1.08,3.18,3.43,3.43,0,0,1-1.85.87l-.33,0h-.49c-.19,0-.39-.05-.58-.09a3.43,3.43,0,0,1-1.94-1.19,3.33,3.33,0,0,1-.76-1.66l0-.19h-1.54a.45.45,0,0,1-.35-.15l-.61-.68-1.64-1.8-1.43-1.57-.26-.29-.4,1.07h0l0,0a3.41,3.41,0,0,1,2,2.64,3.13,3.13,0,0,1-.06,1.22,3.39,3.39,0,0,1-1.62,2.16,3.52,3.52,0,0,1-1.42.48l-.23,0h-.45c-.18,0-.37,0-.55-.08a3.53,3.53,0,0,1-2.29-1.63,3.06,3.06,0,0,1-.45-1.3l0-.24Zm4.83-2.23a.08.08,0,0,1,0,.05l-.66,1.8-.24.64a.37.37,0,0,1-.44.23.34.34,0,0,1-.23-.47l.9-2.44a.08.08,0,0,0,0-.05,2.84,2.84,0,0,0-3.29,1.85,2.7,2.7,0,0,0,1.76,3.4,2.85,2.85,0,0,0,3.58-1.62A2.68,2.68,0,0,0,236.69,321.55Zm7.24,2.74a2.74,2.74,0,0,0,2.09,2.33,2.86,2.86,0,0,0,3.2-1.34,2.67,2.67,0,0,0-.55-3.3,2.9,2.9,0,0,0-2.79-.59c.08.15.15.3.22.45.32.65.64,1.29,1,1.94a.27.27,0,0,1,0,.21.36.36,0,0,1-.38.3h-2.78Zm-6.3-5.23,3.87,4.25,2.09-4.25Zm7.28,2-.75-1.52-2,4.07h1A3.45,3.45,0,0,1,244.91,321Zm-1,2.55h2.22l-.94-1.91A2.74,2.74,0,0,0,243.94,323.58Z" transform="translate(-128.89 -70.99)"/><path class="cls-18" d="M231.38,354.49l0-.22a3.24,3.24,0,0,1,.5-1.38,3.61,3.61,0,0,1,3.85-1.54s.05,0,.06,0l1.34-3.6A1.09,1.09,0,0,1,238,347h1.4v.7h-1.21a.37.37,0,0,0-.4.27c-.14.36-.27.72-.4,1.07l0,.05h6a.08.08,0,0,0,.07,0l.3-.6s0,0,0-.05h-1.06a.35.35,0,0,1-.34-.22.34.34,0,0,1,.09-.39.35.35,0,0,1,.26-.09h2.74v.7h-.85a.06.06,0,0,0-.06,0l-.48,1a.06.06,0,0,0,0,.06c.32.66.64,1.31,1,2v0l.33-.09a3.62,3.62,0,0,1,3.48,1,3.18,3.18,0,0,1,.87,1.68,3.27,3.27,0,0,1-1.08,3.18,3.4,3.4,0,0,1-1.85.87l-.32,0H246c-.2,0-.4-.05-.59-.09a3.5,3.5,0,0,1-1.94-1.19,3.23,3.23,0,0,1-.75-1.66l0-.19h-1.55a.43.43,0,0,1-.34-.15l-.62-.68-1.63-1.79c-.48-.53-1-1.05-1.43-1.58l-.27-.29-.4,1.07h0l.05,0a3.44,3.44,0,0,1,2,2.64,3.13,3.13,0,0,1-.06,1.22,3.46,3.46,0,0,1-1.62,2.16,3.57,3.57,0,0,1-1.42.48l-.23,0h-.45c-.19,0-.37,0-.55-.08a3.55,3.55,0,0,1-2.3-1.63,3.36,3.36,0,0,1-.45-1.3l0-.23Zm4.84-2.22,0,0-.67,1.8-.24.64a.35.35,0,0,1-.43.23.34.34,0,0,1-.23-.47l.9-2.43s0,0,0-.05a2.84,2.84,0,0,0-3.3,1.84,2.7,2.7,0,0,0,1.77,3.4,2.86,2.86,0,0,0,3.58-1.61A2.68,2.68,0,0,0,236.22,352.27Zm7.24,2.73a2.71,2.71,0,0,0,2.08,2.33,2.87,2.87,0,0,0,3.21-1.33,2.67,2.67,0,0,0-.56-3.3,2.84,2.84,0,0,0-2.78-.59c.07.15.14.3.22.44.31.65.63,1.29,1,1.94a.39.39,0,0,1,0,.21.36.36,0,0,1-.38.3h-2.78Zm-6.31-5.23L241,354l2.09-4.26Zm7.28,2-.75-1.52-2,4.07h1A3.46,3.46,0,0,1,244.43,351.74Zm-1,2.55h2.21l-.93-1.9A2.74,2.74,0,0,0,243.47,354.29Z" transform="translate(-128.89 -70.99)"/><path class="cls-18" d="M218.79,376.57l-.08-.21a3.17,3.17,0,0,1-.21-1.46,3.32,3.32,0,0,1,1.25-2.36,3.44,3.44,0,0,1,1.43-.71s0,0,0-.06c-.18-1.26-.35-2.52-.53-3.79a1.08,1.08,0,0,1,.44-1l.12-.07,1.09-.55h0l.34.62-.06,0-1,.51a.35.35,0,0,0-.23.42c0,.38.1.75.16,1.13a.11.11,0,0,0,0,.05l0,0,5.28-2.63s.05,0,0-.07c0-.22,0-.44,0-.66v-.06l0,0-.9.45a.36.36,0,0,1-.51-.43.41.41,0,0,1,.19-.2l2.4-1.19,0,0,.33.63,0,0-.72.35s0,0,0,.07c0,.35,0,.71,0,1.07a.11.11,0,0,0,0,.06l1.8,1.32,0,0a2.73,2.73,0,0,1,.25-.23,3.42,3.42,0,0,1,1-.62,3.67,3.67,0,0,1,2.53,0A3.33,3.33,0,0,1,234.9,368a3.28,3.28,0,0,1,.56,3.3,3.38,3.38,0,0,1-1.23,1.59l-.27.18a.05.05,0,0,0,0,0l-.35.18h0c-.19.06-.37.14-.56.19a3.6,3.6,0,0,1-2.29-.2,3.49,3.49,0,0,1-1.46-1.14l-.12-.16-.05,0-1.32.66a.46.46,0,0,1-.38,0l-.87-.33-2.31-.87-2-.76-.38-.14.16,1.12H222a3.56,3.56,0,0,1,3,1.47,3.39,3.39,0,0,1-.92,4.8l-.19.13-.36.18h-.05a4.51,4.51,0,0,1-.52.17,3.64,3.64,0,0,1-2.81-.42,3.49,3.49,0,0,1-1-1l-.13-.19Zm3.24-4.13v.06l.27,1.89.09.67a.36.36,0,1,1-.71.08l-.36-2.56a.09.09,0,0,0,0-.05,2.73,2.73,0,0,0-2,3.1,2.82,2.82,0,0,0,3.18,2.24,2.72,2.72,0,0,0-.42-5.43Zm7.73-.78a2.84,2.84,0,0,0,3,1.15,2.71,2.71,0,0,0,.14-5.29,2.82,2.82,0,0,0-2.75.71l.41.3,1.77,1.29a.34.34,0,0,1,.13.18.34.34,0,0,1-.19.43l-2.42,1.2Zm-8.09-1.85,5.46,2.07-.17-4.71Zm7.4-1.48-1.39-1,.17,4.5.91-.46A3.39,3.39,0,0,1,229.07,368.33Zm.36,2.7,2-1-1.74-1.27A2.68,2.68,0,0,0,229.43,371Z" transform="translate(-128.89 -70.99)"/><path class="cls-18" d="M195.2,354.94a1.74,1.74,0,0,1,0-.22,3.18,3.18,0,0,1,0-1.47,3.39,3.39,0,0,1,1.6-2.16,3.51,3.51,0,0,1,1.51-.5s0,0,0,0l.06-3.82a1.06,1.06,0,0,1,.6-1l.12-.05,1.17-.39h0l.23.66-.05,0-1.09.36a.36.36,0,0,0-.29.39c0,.38,0,.75,0,1.13v.05h0l5.62-1.86s.05,0,.05-.06c0-.22.06-.44.08-.66a.13.13,0,0,0,0-.06l-.06,0-1,.31a.35.35,0,0,1-.39-.1.35.35,0,0,1-.05-.4.43.43,0,0,1,.22-.17l2.55-.84h0l.24.66h-.05l-.76.26s0,0,0,.05c0,.36-.09.72-.13,1.07a.11.11,0,0,0,0,.06l1.58,1.56,0,0,.28-.19a3.54,3.54,0,0,1,1.12-.46,3.64,3.64,0,0,1,2.51.33,3.41,3.41,0,0,1,1.44,4.66,3.35,3.35,0,0,1-1.46,1.4l-.3.14,0,0-.37.12h-.05c-.19,0-.39.08-.58.1a3.65,3.65,0,0,1-2.24-.51,3.48,3.48,0,0,1-1.27-1.34l-.09-.17H206l-1.4.47a.46.46,0,0,1-.38,0l-.81-.45-2.15-1.19-1.88-1-.35-.19,0,1.13h.07a3.51,3.51,0,0,1,2.73,1.89,3,3,0,0,1,.35,1.17,3.28,3.28,0,0,1-.8,2.55,3.5,3.5,0,0,1-1.18.9l-.21.09-.39.13h0a5.07,5.07,0,0,1-.54.09,3.59,3.59,0,0,1-2.72-.82,3.28,3.28,0,0,1-.87-1.09l-.1-.21Zm3.82-3.62v.05l0,1.91c0,.23,0,.45,0,.68a.36.36,0,1,1-.71,0c0-.86,0-1.72,0-2.59a.11.11,0,0,0,0-.05,2.88,2.88,0,1,0,.72,0Zm7.77.32a2.85,2.85,0,0,0,5.34-.71,2.73,2.73,0,0,0-1.64-2.95,2.87,2.87,0,0,0-2.83.31l.36.36,1.55,1.53a.52.52,0,0,1,.11.19.36.36,0,0,1-.26.4l-2.57.85Zm-7.72-3,5.09,2.81.54-4.68Zm7.54-.42-1.21-1.2-.53,4.47,1-.32A3.38,3.38,0,0,1,206.61,348.25Zm-.05,2.72,2.1-.7-1.53-1.5A2.65,2.65,0,0,0,206.56,351Z" transform="translate(-128.89 -70.99)"/><path class="cls-18" d="M191.7,325.23a1.74,1.74,0,0,1,0-.22,3.18,3.18,0,0,1,0-1.47,3.41,3.41,0,0,1,1.59-2.16,3.46,3.46,0,0,1,1.52-.5s0,0,0-.05c0-1.28,0-2.55.06-3.82a1,1,0,0,1,.59-1,.67.67,0,0,1,.12-.06l1.17-.39h0l.23.66-.05,0-1.09.36a.36.36,0,0,0-.29.39c0,.38,0,.76,0,1.14v0l.05,0,5.62-1.86a.07.07,0,0,0,.06-.06c0-.22,0-.44.07-.66a.13.13,0,0,0,0-.06h-.06l-.95.32a.36.36,0,0,1-.39-.1.33.33,0,0,1,0-.4.37.37,0,0,1,.21-.17l2.55-.84,0,0,.24.67h0l-.76.25a.05.05,0,0,0,0,.06c0,.36-.09.71-.13,1.07a.14.14,0,0,0,0,.06L203.6,318l0,0,.29-.19a3.16,3.16,0,0,1,1.12-.46,3.56,3.56,0,0,1,2.5.32,3.34,3.34,0,0,1,1.4,1.31,3.3,3.3,0,0,1,0,3.35,3.35,3.35,0,0,1-1.46,1.4l-.29.14,0,0-.38.12h-.05a5.86,5.86,0,0,1-.58.1,3.58,3.58,0,0,1-2.24-.51,3.45,3.45,0,0,1-1.27-1.33l-.09-.18-.06,0-1.4.47a.5.5,0,0,1-.38,0l-.81-.45L197.78,321l-1.88-1-.35-.19,0,1.14h.06a3.51,3.51,0,0,1,2.74,1.88,3.06,3.06,0,0,1,.36,1.17,3.35,3.35,0,0,1-.8,2.55,3.41,3.41,0,0,1-1.19.9l-.21.1-.38.13h-.05a5.12,5.12,0,0,1-.54.1,3.62,3.62,0,0,1-2.72-.82,3.41,3.41,0,0,1-.87-1.09l-.1-.21Zm3.82-3.63v.06l0,1.9c0,.23,0,.46,0,.69a.35.35,0,0,1-.34.35.35.35,0,0,1-.37-.38l0-2.58v-.05a2.84,2.84,0,1,0,.72,0Zm7.77.32a2.83,2.83,0,0,0,2.75,1.55,2.79,2.79,0,0,0,2.59-2.27,2.74,2.74,0,0,0-1.64-2.95,2.87,2.87,0,0,0-2.83.32l.36.35,1.55,1.53a.38.38,0,0,1,.1.2.34.34,0,0,1-.25.39l-2.57.86Zm-7.73-3,5.09,2.81.55-4.68Zm7.55-.42-1.22-1.2-.52,4.47,1-.32A3.38,3.38,0,0,1,203.11,318.53Zm-.06,2.71,2.1-.69L203.63,319A2.71,2.71,0,0,0,203.05,321.24Z" transform="translate(-128.89 -70.99)"/><path class="cls-18" d="M167.78,308.15c0-.07,0-.15,0-.22a3.18,3.18,0,0,1,0-1.47,3.4,3.4,0,0,1,1.65-2.12,3.58,3.58,0,0,1,1.53-.46s.05,0,.05-.05c0-1.28.1-2.55.16-3.82a1.08,1.08,0,0,1,.62-.95l.12-.05,1.18-.36h0l.22.67-.06,0-1.1.33a.37.37,0,0,0-.3.38c0,.38,0,.76,0,1.14v.05l0,0,5.67-1.72a.07.07,0,0,0,.06-.06l.09-.66a.13.13,0,0,0,0-.06l-.06,0-1,.29a.38.38,0,0,1-.39-.11.35.35,0,0,1,.19-.56l2.57-.78,0,0,.22.67h-.05l-.76.24a.06.06,0,0,0-.05,0l-.15,1.07a.07.07,0,0,0,0,.06l1.53,1.6,0,0,.28-.19a3.49,3.49,0,0,1,1.14-.43,3.6,3.6,0,0,1,2.49.39,3.31,3.31,0,0,1,1.36,1.34,3.27,3.27,0,0,1,0,3.35,3.34,3.34,0,0,1-1.49,1.36l-.3.13,0,0-.38.12h0a5.77,5.77,0,0,1-.58.08,3.59,3.59,0,0,1-2.22-.56,3.41,3.41,0,0,1-1.24-1.37c0-.06-.06-.11-.09-.18l-.05,0-1.42.43a.42.42,0,0,1-.38,0l-.8-.47L174,304.05c-.61-.37-1.23-.73-1.85-1.09l-.34-.2-.05,1.13h.06a3.5,3.5,0,0,1,2.69,1.95,3,3,0,0,1,.32,1.17,3.35,3.35,0,0,1-.86,2.54,3.64,3.64,0,0,1-1.21.87l-.21.09-.39.12h0c-.18,0-.36.07-.54.09a3.62,3.62,0,0,1-2.7-.89,3.37,3.37,0,0,1-.84-1.11l-.09-.22Zm3.92-3.53v.05c0,.64,0,1.27-.08,1.91l0,.68a.33.33,0,0,1-.34.34.35.35,0,0,1-.37-.38c0-.86.07-1.72.1-2.58v-.05a2.85,2.85,0,1,0,.72,0Zm7.76.51a2.85,2.85,0,0,0,5.35-.59,2.71,2.71,0,0,0-1.56-3,2.89,2.89,0,0,0-2.84.25l.35.36,1.51,1.57a.33.33,0,0,1,.11.2.36.36,0,0,1-.27.39l-2.59.79ZM171.81,302l5,2.93.67-4.66Zm7.56-.24-1.19-1.22-.63,4.45,1-.3A3.41,3.41,0,0,1,179.37,301.73Zm-.13,2.72,2.12-.65-1.49-1.54A2.73,2.73,0,0,0,179.24,304.45Z" transform="translate(-128.89 -70.99)"/><path class="cls-18" d="M195.13,291.65a1.79,1.79,0,0,0,0-.23,3.3,3.3,0,0,1,.51-1.38,3.5,3.5,0,0,1,2.24-1.55,3.6,3.6,0,0,1,1.6,0s.05,0,.06,0c.45-1.2.89-2.4,1.34-3.59a1.09,1.09,0,0,1,.89-.72l.13,0h1.27v.7H202a.38.38,0,0,0-.41.28c-.13.35-.27.71-.4,1.07,0,0,0,0,0,0h6s.06,0,.07-.05l.3-.6s0,0,0-.05h-1.07a.38.38,0,0,1-.34-.22.35.35,0,0,1,.09-.39.41.41,0,0,1,.26-.09h2.75v.7h-.86s0,0-.06,0l-.48,1a.06.06,0,0,0,0,.06c.32.66.65,1.32,1,2v0l.34-.09a3.59,3.59,0,0,1,3.47,1,3.19,3.19,0,0,1,.88,1.68,3.3,3.3,0,0,1-1.08,3.17,3.46,3.46,0,0,1-1.85.87l-.33,0h-.49a5.81,5.81,0,0,1-.58-.09,3.47,3.47,0,0,1-1.94-1.18,3.37,3.37,0,0,1-.76-1.66l0-.2h-1.54a.42.42,0,0,1-.35-.15l-.62-.68-1.63-1.79L200.88,288l-.26-.29-.4,1.06h0l0,0a3.42,3.42,0,0,1,2,2.65,3.09,3.09,0,0,1-.06,1.21,3.56,3.56,0,0,1-3,2.64l-.23,0h-.45c-.18,0-.37,0-.55-.08a3.5,3.5,0,0,1-2.29-1.63,3.17,3.17,0,0,1-.46-1.3,1.79,1.79,0,0,0,0-.23Zm4.83-2.23s0,0,0,.05l-.66,1.79-.24.65a.36.36,0,0,1-.44.22.34.34,0,0,1-.23-.47l.9-2.43,0-.05A2.84,2.84,0,0,0,196,291a2.7,2.7,0,0,0,1.76,3.4,2.85,2.85,0,0,0,3.58-1.61A2.67,2.67,0,0,0,200,289.42Zm7.24,2.73a2.73,2.73,0,0,0,2.09,2.33,2.85,2.85,0,0,0,3.2-1.33,2.66,2.66,0,0,0-.56-3.3,2.83,2.83,0,0,0-2.78-.59c.08.15.15.3.22.45.32.64.64,1.29.95,1.93a.34.34,0,0,1,0,.22.36.36,0,0,1-.38.29H207.2Zm-6.3-5.23,3.87,4.26,2.08-4.26Zm7.28,2-.75-1.51-2,4.06h1A3.47,3.47,0,0,1,208.18,288.89Zm-1,2.55h2.22l-.94-1.9A2.74,2.74,0,0,0,207.21,291.44Z" transform="translate(-128.89 -70.99)"/><path class="cls-18" d="M163.93,270.26c0-.07,0-.15,0-.22a3.25,3.25,0,0,1,.51-1.38,3.5,3.5,0,0,1,2.24-1.55,3.46,3.46,0,0,1,1.6,0s0,0,.06,0l1.34-3.6a1.09,1.09,0,0,1,.88-.72H172v.7h-1.22a.37.37,0,0,0-.4.27c-.13.36-.27.72-.4,1.07,0,0,0,0,0,0h6s.06,0,.07,0l.3-.6a.42.42,0,0,0,0-.06h-1.06a.36.36,0,0,1-.34-.22.34.34,0,0,1,.09-.38.37.37,0,0,1,.26-.1H178v.7h-.86a.05.05,0,0,0-.06,0l-.48,1a.06.06,0,0,0,0,.06c.32.66.65,1.31,1,2v0l.33-.1a3.85,3.85,0,0,1,1.22-.08,3.54,3.54,0,0,1,2.26,1.09,3.26,3.26,0,0,1,.88,1.68,3.32,3.32,0,0,1-1.08,3.18,3.46,3.46,0,0,1-1.85.87l-.33,0h-.49c-.19,0-.39,0-.58-.09a3.49,3.49,0,0,1-1.95-1.19,3.4,3.4,0,0,1-.75-1.66l0-.19H173.7a.45.45,0,0,1-.34-.15c-.2-.23-.41-.45-.62-.68l-1.63-1.8-1.43-1.57-.27-.29-.39,1.07h0l0,0a3.41,3.41,0,0,1,2,2.64,3.13,3.13,0,0,1-.06,1.22,3.39,3.39,0,0,1-1.62,2.16,3.52,3.52,0,0,1-1.42.48l-.23,0h-.45c-.18,0-.37,0-.55-.08a3.53,3.53,0,0,1-2.29-1.63,3.22,3.22,0,0,1-.46-1.3c0-.08,0-.16,0-.24Zm4.83-2.23s0,0,0,.05l-.66,1.8-.24.64a.37.37,0,0,1-.44.23.34.34,0,0,1-.23-.47l.9-2.44s0,0,0,0a2.83,2.83,0,0,0-3.29,1.84,2.7,2.7,0,0,0,1.76,3.4,2.85,2.85,0,0,0,3.58-1.62A2.68,2.68,0,0,0,168.76,268Zm7.24,2.74a2.74,2.74,0,0,0,2.08,2.33,2.86,2.86,0,0,0,3.21-1.34,2.66,2.66,0,0,0-.56-3.3,2.88,2.88,0,0,0-2.78-.59l.22.45,1,1.94a.32.32,0,0,1,0,.21.37.37,0,0,1-.38.3H176Zm-6.31-5.23,3.88,4.25,2.08-4.25Zm7.29,2-.76-1.52-2,4.07h1A3.45,3.45,0,0,1,177,267.51Zm-1,2.55h2.22l-.94-1.91A2.74,2.74,0,0,0,176,270.06Z" transform="translate(-128.89 -70.99)"/><path class="cls-18" d="M165,233.29c0-.08,0-.15,0-.22a3.34,3.34,0,0,1,.51-1.39,3.54,3.54,0,0,1,2.24-1.55,3.6,3.6,0,0,1,1.6,0s.05,0,.06,0l1.34-3.6a1.09,1.09,0,0,1,.88-.72h1.41v.69h-1.22a.37.37,0,0,0-.4.28c-.13.36-.27.71-.4,1.07a.43.43,0,0,0,0,.05h6s.06,0,.07,0l.3-.6s0,0,0-.06h-1.06A.38.38,0,0,1,176,227a.36.36,0,0,1,.09-.39.41.41,0,0,1,.26-.09h2.75v.7h-.86a.05.05,0,0,0-.06,0l-.48,1a.06.06,0,0,0,0,.06l1,2v0l.33-.09a3.34,3.34,0,0,1,1.22-.08,3.49,3.49,0,0,1,2.26,1.09,3.26,3.26,0,0,1,.88,1.68,3.32,3.32,0,0,1-1.08,3.18,3.54,3.54,0,0,1-1.85.87l-.33,0h-.49a5.81,5.81,0,0,1-.58-.09,3.53,3.53,0,0,1-1.95-1.18,3.44,3.44,0,0,1-.75-1.66l0-.19h-.06c-.49,0-1,0-1.49,0a.45.45,0,0,1-.34-.15c-.2-.23-.41-.46-.62-.68l-1.63-1.8-1.43-1.57-.27-.29-.39,1.07h0l0,0a3.41,3.41,0,0,1,2,2.64,3.08,3.08,0,0,1-.06,1.21,3.51,3.51,0,0,1-3,2.64l-.23,0h-.45a3.65,3.65,0,0,1-2.84-1.7,3.21,3.21,0,0,1-.46-1.31c0-.07,0-.15,0-.23Zm4.83-2.23,0,.05-.66,1.8-.24.64a.36.36,0,0,1-.44.22.34.34,0,0,1-.23-.47l.9-2.43s0,0,0-.05a2.83,2.83,0,0,0-3.29,1.85,2.7,2.7,0,0,0,1.76,3.4,2.86,2.86,0,0,0,3.58-1.62A2.68,2.68,0,0,0,169.84,231.06Zm7.24,2.74a2.76,2.76,0,0,0,2.08,2.33,2.86,2.86,0,0,0,3.21-1.34,2.66,2.66,0,0,0-.56-3.3,2.88,2.88,0,0,0-2.78-.59l.22.45c.32.65.63,1.29.95,1.93a.34.34,0,0,1,0,.22.37.37,0,0,1-.38.3h-2.78Zm-6.31-5.23,3.88,4.25,2.08-4.25Zm7.29,2L177.3,229l-2,4.07h1A3.47,3.47,0,0,1,178.06,230.53Zm-1,2.55h2.22l-.94-1.9A2.74,2.74,0,0,0,177.09,233.08Z" transform="translate(-128.89 -70.99)"/><path class="cls-18" d="M181.5,198.77a1.8,1.8,0,0,0,.08-.21,3.32,3.32,0,0,1,.82-1.24,3.6,3.6,0,0,1,2.54-1,3.5,3.5,0,0,1,1.56.36s.05,0,.07,0c.71-1.08,1.43-2.15,2.14-3.22a1.13,1.13,0,0,1,1-.51l.13,0,1.21.27h0l-.16.68h-.06l-1.12-.25a.38.38,0,0,0-.46.18l-.64,1,0,0h.05l5.8,1.3s0,0,.07,0,.29-.35.43-.52l0-.05H195l-1-.22a.34.34,0,0,1-.27-.29.36.36,0,0,1,.17-.36.45.45,0,0,1,.28,0l2.62.59h.05l-.16.68h-.05l-.78-.18s0,0-.07,0l-.7.84a.07.07,0,0,0,0,.06l.48,2.13v0l.34,0a3.78,3.78,0,0,1,1.21.19,3.47,3.47,0,0,1,1.95,1.55,3.21,3.21,0,0,1,.46,1.83,3.35,3.35,0,0,1-1.8,2.86,3.56,3.56,0,0,1-2,.45l-.33,0h0l-.39-.09-.05,0c-.18-.07-.37-.12-.55-.21a3.43,3.43,0,0,1-1.61-1.58,3.32,3.32,0,0,1-.35-1.78c0-.06,0-.13,0-.19h-.06l-1.45-.33a.45.45,0,0,1-.3-.22l-.44-.79L189,198.27c-.35-.61-.69-1.23-1-1.84-.06-.11-.12-.23-.19-.34l-.64.95h0l0,0a3.36,3.36,0,0,1,1.29,3,3,3,0,0,1-.34,1.17,3.5,3.5,0,0,1-2.08,1.76,3.64,3.64,0,0,1-1.5.16l-.23,0-.4-.09,0,0a4.45,4.45,0,0,1-.51-.19,3.46,3.46,0,0,1-1.86-2.09,3.3,3.3,0,0,1-.14-1.36l0-.24Zm5.24-1.12,0,0-1.06,1.6-.39.58a.36.36,0,0,1-.48.12.35.35,0,0,1-.11-.51l1.45-2.17,0,0a2.88,2.88,0,0,0-3.64,1.09,2.66,2.66,0,0,0,.92,3.69,2.9,2.9,0,0,0,3.87-.8A2.66,2.66,0,0,0,186.74,197.65Zm6.41,4.24a2.69,2.69,0,0,0,1.49,2.73,2.89,2.89,0,0,0,3.43-.61,2.66,2.66,0,0,0,.23-3.34,2.84,2.84,0,0,0-2.57-1.18c0,.17.07.33.11.49.15.7.31,1.39.47,2.09a.33.33,0,0,1,0,.22.38.38,0,0,1-.44.21l-2.65-.6Zm-4.92-6.46,2.77,5,3-3.69Zm6.63,3.49-.38-1.63-2.89,3.52,1,.23A3.6,3.6,0,0,1,194.86,198.92Zm-1.54,2.28,2.17.48-.47-2.06A2.86,2.86,0,0,0,193.32,201.2Z" transform="translate(-128.89 -70.99)"/><path class="cls-18" d="M195.78,176.08l.09-.2a3.51,3.51,0,0,1,.94-1.16,3.59,3.59,0,0,1,2.63-.78,3.63,3.63,0,0,1,1.51.49s.06,0,.08,0l2.45-3a1.09,1.09,0,0,1,1.07-.41l.13,0,1.17.38h0l-.23.66h-.06l-1.09-.36a.4.4,0,0,0-.48.14c-.24.3-.48.6-.73.89a.13.13,0,0,1,0,0h0l5.64,1.82a.07.07,0,0,0,.08,0l.48-.48,0,0-.06,0-.95-.31a.35.35,0,0,1-.25-.31.37.37,0,0,1,.22-.34.36.36,0,0,1,.27,0l2.56.83h.05l-.23.67,0,0-.76-.25a.08.08,0,0,0-.08,0l-.77.78a.11.11,0,0,0,0,.06l.27,2.16v0l.34,0a3.57,3.57,0,0,1,3,2,3.14,3.14,0,0,1,.28,1.86,3.4,3.4,0,0,1-2.07,2.68,3.56,3.56,0,0,1-2,.26l-.32-.07h-.05l-.37-.12,0,0a5,5,0,0,1-.52-.26,3.43,3.43,0,0,1-1.46-1.71,3.39,3.39,0,0,1-.17-1.81,1.29,1.29,0,0,0,0-.19l0,0-1.42-.46a.41.41,0,0,1-.27-.24c-.12-.28-.25-.56-.37-.83l-1-2.21-.84-1.93-.15-.35-.73.89h0l0,0a3.34,3.34,0,0,1,1,3.11,3.15,3.15,0,0,1-.45,1.13,3.57,3.57,0,0,1-2.25,1.56,3.61,3.61,0,0,1-1.5,0l-.23-.05-.39-.12,0,0c-.16-.08-.33-.15-.49-.24a3.44,3.44,0,0,1-1.64-2.25,3.17,3.17,0,0,1,0-1.37,1.55,1.55,0,0,1,.05-.23Zm5.31-.63,0,0-1.22,1.5-.44.54a.36.36,0,0,1-.49.07.33.33,0,0,1-.06-.51l1.65-2,0,0a2.87,2.87,0,0,0-3.72.74,2.65,2.65,0,0,0,.55,3.76,2.9,2.9,0,0,0,3.93-.43A2.65,2.65,0,0,0,201.09,175.45Zm6,4.81a2.67,2.67,0,0,0,1.21,2.85,2.92,2.92,0,0,0,3.49-.29,2.68,2.68,0,0,0,.55-3.3,2.8,2.8,0,0,0-2.45-1.41l.06.49.27,2.13a.32.32,0,0,1,0,.21.36.36,0,0,1-.45.17l-2.58-.84Zm-4.26-6.89,2.27,5.22,3.38-3.4Zm6.26,4.09-.22-1.67L205.61,179l1,.32A3.58,3.58,0,0,1,209.06,177.46Zm-1.76,2.12,2.11.68-.27-2.09A2.89,2.89,0,0,0,207.3,179.58Z" transform="translate(-128.89 -70.99)"/><path class="cls-18" d="M266.53,329.36l0-.22a3.2,3.2,0,0,1,.5-1.39,3.56,3.56,0,0,1,2.24-1.55,3.6,3.6,0,0,1,1.6,0s.05,0,.07,0l1.33-3.6a1.09,1.09,0,0,1,.89-.72h1.4v.69h-1.21a.38.38,0,0,0-.41.28c-.13.36-.26.71-.4,1.07a.43.43,0,0,0,0,.05h6s.06,0,.07,0l.3-.6,0-.06h-1.07a.38.38,0,0,1-.34-.22.36.36,0,0,1,.35-.48h2.75v.7h-.86s0,0-.06,0l-.48,1s0,.05,0,.07c.32.65.65,1.31,1,2l0,0,.33-.09a3.29,3.29,0,0,1,1.21-.08,3.49,3.49,0,0,1,2.26,1.09,3.26,3.26,0,0,1,.88,1.68,3.32,3.32,0,0,1-1.08,3.18A3.5,3.5,0,0,1,282,333l-.33,0h-.49c-.19,0-.39,0-.58-.08a3.57,3.57,0,0,1-1.94-1.19,3.37,3.37,0,0,1-.76-1.66,1.23,1.23,0,0,1,0-.19h-1.55a.45.45,0,0,1-.35-.15l-.61-.68-1.64-1.8-1.43-1.57c-.08-.1-.17-.19-.26-.29l-.4,1.07h0l0,0a3.38,3.38,0,0,1,2,2.64,3.08,3.08,0,0,1-.06,1.21A3.4,3.4,0,0,1,272,332.5a3.62,3.62,0,0,1-1.43.48l-.23,0h-.45a4.68,4.68,0,0,1-.54-.07,3.53,3.53,0,0,1-2.3-1.63,3.06,3.06,0,0,1-.45-1.31l0-.23Zm4.83-2.23s0,0,0,.05l-.66,1.8-.24.64a.36.36,0,0,1-.44.22.34.34,0,0,1-.23-.47l.9-2.43a.08.08,0,0,0,0-.05,2.83,2.83,0,0,0-3.29,1.85,2.7,2.7,0,0,0,1.76,3.4,2.86,2.86,0,0,0,3.58-1.62A2.68,2.68,0,0,0,271.36,327.13Zm7.24,2.74a2.75,2.75,0,0,0,2.09,2.33,2.87,2.87,0,0,0,3.21-1.34,2.69,2.69,0,0,0-.56-3.3,2.9,2.9,0,0,0-2.79-.59c.08.15.15.3.22.45.32.65.64,1.29,1,1.93a.29.29,0,0,1,0,.22.36.36,0,0,1-.37.3H278.6Zm-6.3-5.23,3.87,4.25,2.09-4.25Zm7.28,2-.75-1.51-2,4.07h1A3.49,3.49,0,0,1,279.58,326.6Zm-1,2.55h2.22l-.94-1.9A2.74,2.74,0,0,0,278.61,329.15Z" transform="translate(-128.89 -70.99)"/><path class="cls-18" d="M264.73,360.07l0-.22a3.21,3.21,0,0,1,.51-1.39,3.64,3.64,0,0,1,3.84-1.54s.05,0,.06,0l1.34-3.6a1.09,1.09,0,0,1,.88-.72h1.41v.7h-1.22a.37.37,0,0,0-.4.27c-.14.36-.27.71-.4,1.07,0,0,0,0,0,0h6a.07.07,0,0,0,.07,0l.3-.6,0-.06h-1.06a.34.34,0,0,1-.25-.6.35.35,0,0,1,.26-.1h2.74v.7H278a.05.05,0,0,0-.06,0l-.48,1a.06.06,0,0,0,0,.06c.32.65.64,1.31,1,2v0l.33-.1a3.68,3.68,0,0,1,3.48,1,3.26,3.26,0,0,1,.88,1.68A3.3,3.3,0,0,1,282,362.8a3.47,3.47,0,0,1-1.85.87,3.16,3.16,0,0,1-.32,0h-.49a5.59,5.59,0,0,1-.59-.08,3.5,3.5,0,0,1-1.94-1.19,3.23,3.23,0,0,1-.75-1.66l0-.19h-1.55a.43.43,0,0,1-.34-.15l-.62-.68-1.63-1.8-1.43-1.57-.27-.29-.39,1.07h0l.05,0a3.43,3.43,0,0,1,2,2.64,3.13,3.13,0,0,1-.06,1.22,3.46,3.46,0,0,1-1.62,2.16,3.52,3.52,0,0,1-1.42.48l-.23,0h-.45a4.86,4.86,0,0,1-.55-.07,3.51,3.51,0,0,1-2.29-1.63,3.22,3.22,0,0,1-.46-1.3l0-.24Zm4.84-2.23s0,0,0,.05c-.22.6-.44,1.2-.67,1.8-.08.21-.15.43-.23.64a.37.37,0,0,1-.44.23.34.34,0,0,1-.23-.47l.9-2.44s0,0,0,0a2.83,2.83,0,0,0-3.29,1.85,2.69,2.69,0,0,0,1.76,3.4,2.85,2.85,0,0,0,3.58-1.62A2.68,2.68,0,0,0,269.57,357.84Zm7.24,2.74a2.76,2.76,0,0,0,2.08,2.33,2.86,2.86,0,0,0,3.21-1.34,2.66,2.66,0,0,0-.56-3.3,2.89,2.89,0,0,0-2.78-.59l.22.45.95,1.94a.39.39,0,0,1,0,.21.37.37,0,0,1-.38.3h-2.78Zm-6.31-5.23,3.87,4.25,2.09-4.25Zm7.28,2L277,355.8l-2,4.07h1A3.46,3.46,0,0,1,277.78,357.32Zm-1,2.55H279L278.1,358A2.74,2.74,0,0,0,276.82,359.87Z" transform="translate(-128.89 -70.99)"/><path class="cls-18" d="M283.91,366l.19-.13a3.53,3.53,0,0,1,1.4-.58,3.63,3.63,0,0,1,2.69.56,3.36,3.36,0,0,1,1.08,1.14s0,0,.07,0L293,365.5a1.13,1.13,0,0,1,1.15.14l.1.09.83.88,0,0-.54.47,0,0-.78-.82a.38.38,0,0,0-.48-.1l-1.09.43,0,0,0,0,4,4.24s0,0,.07,0l.67-.19,0,0,0,0-.67-.72a.32.32,0,0,1-.06-.39.37.37,0,0,1,.6-.07l1.82,1.92,0,0-.54.47,0,0-.54-.57a.06.06,0,0,0-.07,0l-1.07.32a.07.07,0,0,0-.05,0l-.85,2,0,0,.3.18a3.4,3.4,0,0,1,.88.81,3.28,3.28,0,0,1,.69,2.35,3.14,3.14,0,0,1-.7,1.75,3.51,3.51,0,0,1-3.16,1.37,3.41,3.41,0,0,1-1.91-.73l-.25-.21,0,0-.27-.29,0,0c-.11-.16-.23-.31-.32-.47a3.3,3.3,0,0,1-.4-2.19,3.22,3.22,0,0,1,.76-1.65l.13-.15,0-.05-1-1.06a.4.4,0,0,1-.11-.34c0-.3.07-.6.1-.9l.27-2.38.24-2.07c0-.13,0-.26.05-.39l-1.09.44h0l0,.05a3.32,3.32,0,0,1-.71,3.17,3.21,3.21,0,0,1-1,.78,3.63,3.63,0,0,1-2.74.3,3.45,3.45,0,0,1-1.33-.69l-.17-.15-.28-.29,0,0c-.1-.15-.22-.29-.31-.45a3.35,3.35,0,0,1,.39-3.93l.16-.18Zm5,1.95h-.05l-1.83.74-.65.26a.36.36,0,0,1-.47-.16.35.35,0,0,1,.21-.48l2.47-1,.05,0a2.88,2.88,0,0,0-3.63-1.1,2.69,2.69,0,0,0-1.42,3.55,2.86,2.86,0,0,0,3.65,1.46A2.69,2.69,0,0,0,288.88,367.9Zm2.78,7a2.65,2.65,0,0,0-.38,3.06,2.87,2.87,0,0,0,3.19,1.39,2.77,2.77,0,0,0,2.15-2.63,2.68,2.68,0,0,0-1.43-2.38l-.19.46-.84,2a.39.39,0,0,1-.14.17.37.37,0,0,1-.48-.07l-1.84-1.94Zm-.25-8-.64,5.63,4.66-1.38Zm3.41,6.52.65-1.56L291,373.16l.7.73A3.71,3.71,0,0,1,294.82,373.4Zm-2.61,1,1.5,1.58.82-1.95A2.91,2.91,0,0,0,292.21,374.43Z" transform="translate(-128.89 -70.99)"/><path class="cls-18" d="M303.31,348.21l.12-.2a3.4,3.4,0,0,1,1.06-1,3.64,3.64,0,0,1,2.71-.49,3.49,3.49,0,0,1,1.45.66,0,0,0,0,0,.07,0l2.79-2.71a1.13,1.13,0,0,1,1.12-.3l.12.05,1.12.5,0,0-.3.63-.06,0-1-.47a.39.39,0,0,0-.49.09l-.83.8,0,0,0,0,5.39,2.43a.05.05,0,0,0,.08,0l.53-.42.05,0-.05,0-.92-.41a.36.36,0,0,1-.2-.34.38.38,0,0,1,.25-.32.42.42,0,0,1,.27,0l2.45,1.1,0,0-.31.63,0,0-.72-.33a.06.06,0,0,0-.07,0l-.87.69a.11.11,0,0,0,0,.06c0,.72,0,1.45,0,2.18v0l.34.05a3.26,3.26,0,0,1,1.14.42,3.44,3.44,0,0,1,1.57,1.91,3.17,3.17,0,0,1,0,1.88,3.4,3.4,0,0,1-2.37,2.44,3.53,3.53,0,0,1-2.06,0l-.31-.1h0l-.36-.16,0,0a4.13,4.13,0,0,1-.49-.32,3.39,3.39,0,0,1-1.2-3.68l.06-.18,0,0-1.35-.61a.4.4,0,0,1-.25-.27c-.08-.29-.17-.58-.26-.87l-.69-2.3-.6-2-.12-.38-.82.81h0l0,0a3.28,3.28,0,0,1,.61,3.19,3.14,3.14,0,0,1-.58,1.08,3.64,3.64,0,0,1-3.91,1.15l-.23-.07-.36-.17,0,0c-.15-.1-.32-.19-.46-.3a3.34,3.34,0,0,1-1.36-2.41,3,3,0,0,1,.16-1.37c0-.07.05-.14.07-.22Zm5.35,0,0,0-1.39,1.36-.5.48a.35.35,0,0,1-.49,0,.33.33,0,0,1,0-.51l1.88-1.84,0,0a2.89,2.89,0,0,0-3.79.33,2.65,2.65,0,0,0,.1,3.8,2.89,2.89,0,0,0,3.95,0A2.65,2.65,0,0,0,308.66,348.16ZM314,353.6a2.65,2.65,0,0,0,.87,3,2.91,2.91,0,0,0,3.49.1,2.69,2.69,0,0,0,.94-3.22,2.77,2.77,0,0,0-2.26-1.67v.49c0,.72,0,1.43,0,2.14a.31.31,0,0,1-.06.21.37.37,0,0,1-.47.12l-2.46-1.11Zm-3.42-7.31,1.64,5.43,3.76-3Zm5.74,4.75,0-1.67-3.59,2.86.93.42A3.65,3.65,0,0,1,316.34,351Zm-2,1.92,2,.91v-2.11A2.88,2.88,0,0,0,314.34,353Z" transform="translate(-128.89 -70.99)"/><path class="cls-18" d="M263.16,206.41l0-.23a3.24,3.24,0,0,1,.5-1.38,3.61,3.61,0,0,1,3.85-1.54s0,0,.06,0c.45-1.2.89-2.4,1.34-3.59a1.09,1.09,0,0,1,.88-.73h1.4v.7H270a.37.37,0,0,0-.4.28c-.14.35-.27.71-.4,1.06l0,0h6a.07.07,0,0,0,.07,0l.3-.6,0-.05h-1.06a.35.35,0,0,1-.25-.61.35.35,0,0,1,.26-.09h2.74v.7h-.85a.06.06,0,0,0-.06,0l-.48,1a.06.06,0,0,0,0,.06c.32.66.64,1.31,1,2v0c.11,0,.22-.07.33-.09a3.58,3.58,0,0,1,1.22-.09,3.53,3.53,0,0,1,2.26,1.1,3.19,3.19,0,0,1,.88,1.68,3.28,3.28,0,0,1-1.09,3.17,3.4,3.4,0,0,1-1.85.87l-.32,0h-.49c-.2,0-.4,0-.59-.09a3.54,3.54,0,0,1-1.94-1.18,3.27,3.27,0,0,1-.75-1.66l0-.2h-1.55a.43.43,0,0,1-.34-.15c-.21-.22-.41-.45-.62-.68l-1.63-1.79c-.48-.53-1-1-1.43-1.58l-.27-.29-.4,1.07h0l.05,0a3.44,3.44,0,0,1,2,2.64,3.13,3.13,0,0,1-.06,1.22,3.46,3.46,0,0,1-1.62,2.16,3.57,3.57,0,0,1-1.42.48l-.23,0h-.45c-.19,0-.37,0-.55-.08a3.48,3.48,0,0,1-2.29-1.63,3.22,3.22,0,0,1-.46-1.3l0-.23Zm4.84-2.23s0,0,0,0c-.22.6-.44,1.2-.67,1.8l-.24.64a.35.35,0,0,1-.43.23.34.34,0,0,1-.23-.47l.9-2.43s0,0,0-.05a2.85,2.85,0,0,0-3.3,1.84,2.7,2.7,0,0,0,1.77,3.4,2.86,2.86,0,0,0,3.58-1.61A2.68,2.68,0,0,0,268,204.18Zm7.24,2.73a2.72,2.72,0,0,0,2.08,2.33,2.86,2.86,0,0,0,3.21-1.33,2.66,2.66,0,0,0-.56-3.3,2.84,2.84,0,0,0-2.78-.59l.22.45c.32.64.63,1.29.95,1.93a.41.41,0,0,1,0,.22.36.36,0,0,1-.38.29h-2.78Zm-6.31-5.23,3.87,4.26,2.09-4.26Zm7.28,2-.75-1.52-2,4.07h1A3.46,3.46,0,0,1,276.21,203.65Zm-1,2.55h2.21l-.93-1.9A2.74,2.74,0,0,0,275.25,206.2Z" transform="translate(-128.89 -70.99)"/><path class="cls-18" d="M289,198.09l0-.22a3.24,3.24,0,0,1,.5-1.38,3.53,3.53,0,0,1,2.24-1.55,3.6,3.6,0,0,1,1.6,0s.06,0,.07,0c.44-1.2.89-2.4,1.34-3.6a1.08,1.08,0,0,1,.88-.72H297v.7h-1.21a.38.38,0,0,0-.41.27l-.39,1.07,0,0h6a.08.08,0,0,0,.07,0c.09-.2.19-.4.29-.6l0-.05h-1.07a.34.34,0,0,1-.33-.22.32.32,0,0,1,.09-.38.35.35,0,0,1,.25-.1h2.75V192h-.85a.07.07,0,0,0-.07,0c-.15.33-.31.65-.47,1a.06.06,0,0,0,0,.06l1,2,0,0,.33-.1a3.78,3.78,0,0,1,1.21-.08,3.59,3.59,0,0,1,2.27,1.09,3.18,3.18,0,0,1,.87,1.68,3.32,3.32,0,0,1-1.08,3.18,3.43,3.43,0,0,1-1.85.87l-.32,0h-.49c-.2,0-.4,0-.59-.09a3.46,3.46,0,0,1-1.94-1.19,3.33,3.33,0,0,1-.76-1.66c0-.06,0-.12,0-.19h-1.55a.47.47,0,0,1-.35-.15l-.61-.68c-.55-.6-1.09-1.2-1.64-1.79s-.95-1-1.43-1.58l-.26-.29-.4,1.07h0l.05,0a3.39,3.39,0,0,1,1.95,2.64,3,3,0,0,1-.06,1.22,3.41,3.41,0,0,1-1.61,2.16,3.57,3.57,0,0,1-1.42.48l-.24,0h-.45c-.18,0-.36,0-.54-.08a3.55,3.55,0,0,1-2.3-1.63,3.2,3.2,0,0,1-.45-1.3l0-.24Zm4.84-2.23,0,0c-.23.6-.45,1.2-.67,1.8l-.24.64a.37.37,0,0,1-.44.23.35.35,0,0,1-.23-.47c.31-.81.61-1.62.91-2.44v0a2.83,2.83,0,0,0-3.29,1.84,2.71,2.71,0,0,0,1.76,3.4,2.85,2.85,0,0,0,3.58-1.62A2.67,2.67,0,0,0,293.81,195.86ZM301,198.6a2.74,2.74,0,0,0,2.09,2.33,2.87,2.87,0,0,0,3.21-1.34,2.67,2.67,0,0,0-.56-3.3,2.89,2.89,0,0,0-2.78-.59c.07.15.14.3.22.45.31.65.63,1.29.95,1.94a.31.31,0,0,1,0,.21.36.36,0,0,1-.37.3H301Zm-6.3-5.23,3.87,4.25,2.09-4.25Zm7.28,2-.75-1.52-2,4.07h1A3.48,3.48,0,0,1,302,195.34Zm-1,2.55h2.22l-.93-1.91A2.75,2.75,0,0,0,301.05,197.89Z" transform="translate(-128.89 -70.99)"/><path class="cls-18" d="M296.47,177a1.64,1.64,0,0,1,0-.22,3.13,3.13,0,0,1,.51-1.38,3.48,3.48,0,0,1,2.24-1.55,3.6,3.6,0,0,1,1.6,0s.05,0,.06,0l1.34-3.6a1.09,1.09,0,0,1,.88-.72h1.41v.7h-1.22a.37.37,0,0,0-.4.27c-.13.36-.27.72-.4,1.07,0,0,0,0,0,.05h6s.06,0,.07,0l.3-.6,0,0h-1.06a.36.36,0,0,1-.34-.22.35.35,0,0,1,.09-.39.35.35,0,0,1,.26-.09h2.74v.7h-.85a0,0,0,0,0-.06,0l-.48,1a.06.06,0,0,0,0,.06c.32.66.64,1.31,1,2v0l.33-.09a3.62,3.62,0,0,1,3.48,1,3.26,3.26,0,0,1,.88,1.68,3.32,3.32,0,0,1-1.08,3.18,3.46,3.46,0,0,1-1.85.87l-.33,0h-.49l-.59-.09a3.5,3.5,0,0,1-1.94-1.19,3.23,3.23,0,0,1-.75-1.66l0-.19h-1.55a.43.43,0,0,1-.34-.15l-.62-.68-1.63-1.79-1.43-1.58L302,173l-.39,1.07h0l0,0a3.44,3.44,0,0,1,2,2.64,3.13,3.13,0,0,1-.06,1.22,3.46,3.46,0,0,1-1.62,2.16,3.52,3.52,0,0,1-1.42.48l-.23,0h-.45c-.18,0-.37,0-.55-.08a3.51,3.51,0,0,1-2.29-1.63,3.22,3.22,0,0,1-.46-1.3,2,2,0,0,1,0-.23Zm4.83-2.22s0,0,0,0c-.22.6-.44,1.2-.67,1.8-.07.21-.15.43-.23.64a.37.37,0,0,1-.44.23.34.34,0,0,1-.23-.47l.9-2.43s0,0,0,0a2.83,2.83,0,0,0-3.29,1.84,2.7,2.7,0,0,0,1.76,3.4,2.85,2.85,0,0,0,3.58-1.62A2.66,2.66,0,0,0,301.3,174.79Zm7.24,2.73a2.73,2.73,0,0,0,2.08,2.33,2.87,2.87,0,0,0,3.21-1.33,2.67,2.67,0,0,0-.56-3.31,2.89,2.89,0,0,0-2.78-.59l.22.45,1,1.94a.39.39,0,0,1,0,.21.36.36,0,0,1-.38.3h-2.78Zm-6.31-5.23,3.87,4.25,2.09-4.25Zm7.28,2-.75-1.52-2,4.07h1A3.46,3.46,0,0,1,309.51,174.26Zm-1,2.55h2.22l-.94-1.9A2.72,2.72,0,0,0,308.55,176.81Z" transform="translate(-128.89 -70.99)"/><path class="cls-18" d="M295.58,224l0-.22a3.13,3.13,0,0,1,.51-1.38,3.59,3.59,0,0,1,3.84-1.54s.05,0,.06,0l1.34-3.6a1.09,1.09,0,0,1,.88-.72h1.41v.7h-1.22a.37.37,0,0,0-.4.27c-.14.36-.27.72-.4,1.07l0,.05h6a.07.07,0,0,0,.07,0l.3-.6,0,0h-1.06a.35.35,0,0,1-.25-.61.35.35,0,0,1,.26-.09h2.74v.7h-.85a.06.06,0,0,0-.06,0l-.48,1a.06.06,0,0,0,0,.06c.32.66.64,1.31,1,2v0l.33-.09a3.62,3.62,0,0,1,3.48,1,3.35,3.35,0,0,1-.21,4.86,3.4,3.4,0,0,1-1.85.87l-.32,0h-.49l-.59-.09a3.5,3.5,0,0,1-1.94-1.19,3.23,3.23,0,0,1-.75-1.66l0-.19h-1.55a.43.43,0,0,1-.34-.15l-.62-.68-1.63-1.79-1.43-1.58-.27-.29-.39,1.07h0l.05,0a3.44,3.44,0,0,1,2,2.64,3.13,3.13,0,0,1-.06,1.22,3.46,3.46,0,0,1-1.62,2.16,3.52,3.52,0,0,1-1.42.48l-.23,0h-.45c-.19,0-.37,0-.55-.08a3.51,3.51,0,0,1-2.29-1.63,3.22,3.22,0,0,1-.46-1.3l0-.23Zm4.84-2.22s0,0,0,0c-.22.6-.44,1.2-.67,1.8-.08.22-.15.43-.23.64a.37.37,0,0,1-.44.23.34.34,0,0,1-.23-.47l.9-2.43s0,0,0,0a2.83,2.83,0,0,0-3.29,1.84,2.69,2.69,0,0,0,1.76,3.4,2.86,2.86,0,0,0,3.58-1.61A2.67,2.67,0,0,0,300.42,221.76Zm7.24,2.73a2.73,2.73,0,0,0,2.08,2.33,2.87,2.87,0,0,0,3.21-1.33,2.66,2.66,0,0,0-.56-3.3,2.84,2.84,0,0,0-2.78-.59l.22.45c.32.64.63,1.28.95,1.93a.39.39,0,0,1,0,.21.36.36,0,0,1-.38.3h-2.78Zm-6.31-5.23,3.87,4.26,2.09-4.26Zm7.28,2-.75-1.52-2,4.07h1A3.46,3.46,0,0,1,308.63,221.23Zm-1,2.55h2.22l-.94-1.9A2.74,2.74,0,0,0,307.67,223.78Z" transform="translate(-128.89 -70.99)"/><path class="cls-18" d="M324.69,231.2a1.77,1.77,0,0,1,0-.23,3.24,3.24,0,0,1,.27-1.44,3.47,3.47,0,0,1,2-1.86,3.56,3.56,0,0,1,1.58-.23c.05,0,.06,0,.06-.05l.75-3.75a1.07,1.07,0,0,1,.76-.84.31.31,0,0,1,.13,0l1.22-.19h0l.11.69h-.05l-1.14.17a.37.37,0,0,0-.36.33c-.07.37-.15.74-.22,1.12,0,0,0,0,0,0h.05l5.88-.88s.05,0,.06-.05c.06-.22.13-.43.2-.64a.13.13,0,0,1,0-.06h-.06l-1,.15a.38.38,0,0,1-.37-.17.37.37,0,0,1,0-.4.35.35,0,0,1,.24-.12l2.66-.4h.05l.11.69h0l-.79.12a.05.05,0,0,0-.06,0c-.1.35-.21.69-.31,1a0,0,0,0,0,0,.06l1.27,1.8v0l.32-.14a3.44,3.44,0,0,1,1.18-.27,3.58,3.58,0,0,1,2.41.75,3.35,3.35,0,0,1,.57,4.83,3.37,3.37,0,0,1-1.69,1.13l-.31.08,0,0-.4.06h-.64a3.58,3.58,0,0,1-2.11-.89,3.3,3.3,0,0,1-1-1.52L336,230h-.06l-1.47.22a.45.45,0,0,1-.37-.1l-.71-.58-1.9-1.53-1.67-1.34-.31-.25-.22,1.11h0l.05,0a3.44,3.44,0,0,1,2.35,2.32,3.1,3.1,0,0,1,.14,1.21,3.35,3.35,0,0,1-1.25,2.37,3.53,3.53,0,0,1-1.33.69l-.23.06-.4.06s0,0,0,0H328a3.54,3.54,0,0,1-2.52-1.27,3.23,3.23,0,0,1-.66-1.22l-.06-.22Zm4.42-2.92a.09.09,0,0,0,0,.05c-.13.62-.25,1.25-.38,1.87,0,.23-.08.45-.13.67a.36.36,0,0,1-.4.29.35.35,0,0,1-.3-.43l.51-2.54a.11.11,0,0,1,0-.05,2.81,2.81,0,0,0-3,2.31,2.72,2.72,0,0,0,2.28,3.1,2.82,2.82,0,0,0,3.28-2.13A2.7,2.7,0,0,0,329.11,228.28Zm7.59,1.63a2.76,2.76,0,0,0,2.43,2,2.82,2.82,0,0,0,2.95-1.79,2.67,2.67,0,0,0-1.07-3.18,2.88,2.88,0,0,0-2.85-.17c.1.13.2.27.29.41l1.25,1.77a.38.38,0,0,1,.07.21.35.35,0,0,1-.32.34l-2.69.41Zm-7.07-4.23,4.5,3.62,1.39-4.51Zm7.51.86-1-1.39-1.33,4.32,1-.15A3.45,3.45,0,0,1,337.14,226.54Zm-.55,2.66,2.19-.33-1.22-1.74A2.72,2.72,0,0,0,336.59,229.2Z" transform="translate(-128.89 -70.99)"/><path class="cls-18" d="M324.85,207.46l0-.23a3.28,3.28,0,0,1,.2-1.45,3.44,3.44,0,0,1,1.85-2,3.5,3.5,0,0,1,1.57-.31s.05,0,.05-.05c.18-1.26.35-2.53.53-3.79a1.06,1.06,0,0,1,.71-.88l.13,0,1.2-.25h0l.15.68-.06,0-1.13.23a.37.37,0,0,0-.33.35c-.06.38-.11.75-.16,1.13a.11.11,0,0,1,0,.05h.06l5.81-1.2a.07.07,0,0,0,.06-.06c.05-.21.1-.43.16-.65a.43.43,0,0,0,0-.05h-.06l-1,.2a.37.37,0,0,1-.38-.15.33.33,0,0,1,0-.39.34.34,0,0,1,.23-.15l2.64-.54h0l.15.68h-.05l-.78.17a0,0,0,0,0-.05,0c-.09.35-.17.7-.26,1.05a.15.15,0,0,0,0,.06l1.38,1.73,0,0,.3-.16a3.92,3.92,0,0,1,1.17-.33,3.6,3.6,0,0,1,2.45.62,3.37,3.37,0,0,1,.85,4.79,3.36,3.36,0,0,1-1.62,1.22l-.31.1,0,0-.39.08h-.05c-.19,0-.39,0-.59,0a3.57,3.57,0,0,1-2.15-.77,3.33,3.33,0,0,1-1.1-1.47c0-.06-.05-.12-.07-.19l-.06,0-1.45.3a.44.44,0,0,1-.37-.08l-.75-.54-2-1.42-1.74-1.25-.32-.23-.16,1.12h.06a3.49,3.49,0,0,1,2.49,2.19,3.06,3.06,0,0,1,.2,1.2,3.3,3.3,0,0,1-1.11,2.44,3.52,3.52,0,0,1-1.28.75l-.22.08-.4.08h-.05a4.93,4.93,0,0,1-.55,0,3.58,3.58,0,0,1-2.59-1.12,3.33,3.33,0,0,1-.73-1.19c0-.07-.05-.14-.08-.22Zm4.24-3.16a.43.43,0,0,1,0,0c-.09.63-.17,1.26-.26,1.9l-.09.67a.36.36,0,0,1-.38.31.34.34,0,0,1-.33-.41l.36-2.56v0a2.79,2.79,0,0,0-2.82,2.47,2.75,2.75,0,0,0,2.46,3,2.8,2.8,0,0,0,3.15-2.3A2.71,2.71,0,0,0,329.09,204.3Zm7.67,1.21a2.86,2.86,0,0,0,5.39-.09,2.69,2.69,0,0,0-1.26-3.12,2.86,2.86,0,0,0-2.85,0l.31.39,1.35,1.7a.4.4,0,0,1,.09.2.37.37,0,0,1-.31.37l-2.66.55Zm-7.3-3.83,4.71,3.37,1.12-4.58Zm7.55.45-1.07-1.33-1.06,4.38,1-.21A3.39,3.39,0,0,1,337,202.13Zm-.39,2.69,2.17-.45-1.33-1.67A2.66,2.66,0,0,0,336.62,204.82Z" transform="translate(-128.89 -70.99)"/><path class="cls-18" d="M301,254.11l0-.22a3.2,3.2,0,0,1,.5-1.39,3.55,3.55,0,0,1,2.24-1.54,3.46,3.46,0,0,1,1.6,0s.05,0,.07,0l1.33-3.6a1.09,1.09,0,0,1,.89-.72h1.4v.7h-1.21a.38.38,0,0,0-.41.27c-.13.36-.26.71-.4,1.07a.43.43,0,0,0,0,.05h6a.05.05,0,0,0,.06,0l.3-.6a.33.33,0,0,0,0-.06h-1.07a.36.36,0,0,1-.34-.22.34.34,0,0,1,.1-.38.33.33,0,0,1,.25-.1h2.75v.7h-.86s0,0-.06,0l-.48,1v.06c.32.65.65,1.31,1,2l0,0,.33-.1a3.67,3.67,0,0,1,3.47,1,3.26,3.26,0,0,1,.88,1.68,3.32,3.32,0,0,1-1.08,3.18,3.5,3.5,0,0,1-1.85.87l-.33,0h-.49a5.77,5.77,0,0,1-.58-.08,3.52,3.52,0,0,1-1.94-1.19,3.33,3.33,0,0,1-.76-1.66,1.23,1.23,0,0,1,0-.19h-1.55a.45.45,0,0,1-.35-.15l-.61-.68-1.64-1.8-1.43-1.57-.26-.29-.4,1.07h0l0,0a3.38,3.38,0,0,1,2,2.64,3.13,3.13,0,0,1-.06,1.22,3.41,3.41,0,0,1-1.61,2.16,3.62,3.62,0,0,1-1.43.48l-.23,0h-.45a4.68,4.68,0,0,1-.54-.07,3.53,3.53,0,0,1-2.3-1.63,3.06,3.06,0,0,1-.45-1.3l0-.24Zm4.83-2.23a.08.08,0,0,1,0,.05l-.66,1.8-.24.64a.35.35,0,0,1-.44.22.34.34,0,0,1-.23-.47l.9-2.43a.08.08,0,0,0,0-.05,2.83,2.83,0,0,0-3.29,1.85,2.7,2.7,0,0,0,1.76,3.4,2.86,2.86,0,0,0,3.58-1.62A2.68,2.68,0,0,0,305.84,251.88Zm7.24,2.74a2.75,2.75,0,0,0,2.09,2.33,2.87,2.87,0,0,0,3.21-1.34,2.69,2.69,0,0,0-.56-3.3,2.9,2.9,0,0,0-2.79-.59c.08.15.15.3.22.45.32.65.64,1.29.95,1.94a.27.27,0,0,1,0,.21.36.36,0,0,1-.37.3h-2.79Zm-6.3-5.23,3.87,4.25,2.09-4.25Zm7.28,2-.75-1.52-2,4.07h1A3.48,3.48,0,0,1,314.06,251.36Zm-1,2.55h2.22l-.94-1.91A2.74,2.74,0,0,0,313.09,253.91Z" transform="translate(-128.89 -70.99)"/><path class="cls-18" d="M270,269.67l0-.22a3.28,3.28,0,0,1,.5-1.39,3.56,3.56,0,0,1,2.24-1.55,3.6,3.6,0,0,1,1.6,0s.06,0,.07,0l1.34-3.6a1.09,1.09,0,0,1,.88-.72H278v.69h-1.21a.37.37,0,0,0-.4.28c-.14.36-.27.71-.4,1.07,0,0,0,0,0,.05h6a.08.08,0,0,0,.07,0l.3-.6a.14.14,0,0,1,0-.06h-1.06a.35.35,0,0,1-.34-.22.34.34,0,0,1,.09-.39.39.39,0,0,1,.26-.09h2.74v.7h-.85a.05.05,0,0,0-.06,0l-.48,1a.06.06,0,0,0,0,.06l1,2,0,0,.33-.09a3.34,3.34,0,0,1,1.22-.08,3.52,3.52,0,0,1,2.26,1.09,3.18,3.18,0,0,1,.87,1.68,3.27,3.27,0,0,1-1.08,3.18,3.47,3.47,0,0,1-1.85.87l-.32,0h-.49a5.58,5.58,0,0,1-.59-.09,3.54,3.54,0,0,1-1.94-1.18,3.27,3.27,0,0,1-.75-1.66l0-.19h-1.55a.43.43,0,0,1-.34-.15c-.21-.23-.41-.46-.62-.68l-1.63-1.8L275.74,266l-.27-.29-.4,1.07h0l.05,0a3.43,3.43,0,0,1,2,2.64,3.08,3.08,0,0,1-.06,1.21,3.45,3.45,0,0,1-1.62,2.17,3.41,3.41,0,0,1-1.42.47l-.23,0h-.45a3.31,3.31,0,0,1-.55-.08,3.5,3.5,0,0,1-2.3-1.62,3.41,3.41,0,0,1-.45-1.31l0-.23Zm4.84-2.23s0,0,0,.05l-.67,1.8-.24.64a.35.35,0,0,1-.43.22.34.34,0,0,1-.23-.47l.9-2.43s0,0,0-.05a2.85,2.85,0,0,0-3.3,1.85,2.71,2.71,0,0,0,1.77,3.4,2.86,2.86,0,0,0,3.58-1.62A2.69,2.69,0,0,0,274.82,267.44Zm7.24,2.74a2.73,2.73,0,0,0,2.08,2.33,2.86,2.86,0,0,0,3.21-1.34,2.67,2.67,0,0,0-.56-3.3,2.89,2.89,0,0,0-2.78-.59c.07.15.14.3.22.45.31.64.63,1.29.95,1.93a.41.41,0,0,1,0,.22.38.38,0,0,1-.38.3h-2.78ZM275.75,265l3.87,4.25,2.09-4.25Zm7.28,2-.75-1.51-2,4.06h1A3.48,3.48,0,0,1,283,266.91Zm-1,2.55h2.21l-.93-1.9A2.74,2.74,0,0,0,282.07,269.46Z" transform="translate(-128.89 -70.99)"/><path class="cls-18" d="M301,289.67l0-.23a3.16,3.16,0,0,1,.5-1.38,3.53,3.53,0,0,1,2.24-1.55,3.6,3.6,0,0,1,1.6,0s.05,0,.07,0c.44-1.2.89-2.4,1.33-3.59a1.09,1.09,0,0,1,.89-.72l.13,0h1.27v.7h-1.21a.38.38,0,0,0-.41.28c-.13.35-.26.71-.4,1.07,0,0,0,0,0,0h6s0,0,.06-.05l.3-.6,0-.05h-1.07a.38.38,0,0,1-.34-.22.36.36,0,0,1,.1-.39.37.37,0,0,1,.25-.09h2.75v.7h-.86s0,0-.06,0l-.48,1v.06c.32.66.65,1.32,1,2l0,0,.33-.09a3.59,3.59,0,0,1,3.47,1,3.19,3.19,0,0,1,.88,1.68,3.3,3.3,0,0,1-1.08,3.17,3.43,3.43,0,0,1-1.85.87l-.33,0h-.49a5.81,5.81,0,0,1-.58-.09,3.5,3.5,0,0,1-1.94-1.18,3.37,3.37,0,0,1-.76-1.66,1.36,1.36,0,0,1,0-.2h-1.55a.42.42,0,0,1-.35-.15l-.61-.68c-.55-.59-1.09-1.19-1.64-1.79s-.95-1.05-1.43-1.57c-.08-.1-.17-.19-.26-.29l-.4,1.06h0l0,0a3.4,3.4,0,0,1,2,2.65,3.09,3.09,0,0,1-.06,1.21,3.41,3.41,0,0,1-1.61,2.16,3.47,3.47,0,0,1-1.43.48l-.23,0h-.45c-.18,0-.37,0-.54-.08a3.49,3.49,0,0,1-2.3-1.63,3,3,0,0,1-.45-1.3l0-.23Zm4.83-2.23s0,0,0,.05l-.66,1.79-.24.65a.36.36,0,0,1-.44.22.35.35,0,0,1-.23-.47l.9-2.43s0,0,0-.05a2.84,2.84,0,0,0-3.29,1.84,2.7,2.7,0,0,0,1.76,3.4,2.85,2.85,0,0,0,3.58-1.61A2.67,2.67,0,0,0,305.84,287.44Zm7.24,2.73a2.73,2.73,0,0,0,2.09,2.33,2.87,2.87,0,0,0,3.21-1.33,2.68,2.68,0,0,0-.56-3.3,2.85,2.85,0,0,0-2.79-.59c.08.15.15.3.22.45.32.64.64,1.29.95,1.93a.29.29,0,0,1,0,.22.35.35,0,0,1-.37.29h-2.79Zm-6.3-5.23,3.87,4.26,2.09-4.26Zm7.28,2-.75-1.51-2,4.06h1A3.49,3.49,0,0,1,314.06,286.91Zm-1,2.55h2.22l-.94-1.9A2.74,2.74,0,0,0,313.09,289.46Z" transform="translate(-128.89 -70.99)"/><path class="cls-18" d="M326.76,274.74l.09-.21a3.33,3.33,0,0,1,.88-1.19,3.64,3.64,0,0,1,4.14-.45s.05,0,.07,0l2.32-3.09a1.13,1.13,0,0,1,1.06-.45l.13,0,1.19.33h0l-.2.67h-.06L335.3,270a.38.38,0,0,0-.46.16l-.7.92,0,0,.05,0,5.7,1.6a.07.07,0,0,0,.08,0l.46-.5,0-.05h-.06l-1-.27a.34.34,0,0,1-.26-.3.34.34,0,0,1,.2-.35.32.32,0,0,1,.27,0l2.59.72,0,0-.2.67H342l-.77-.22a.06.06,0,0,0-.07,0l-.75.81a.06.06,0,0,0,0,.06c.11.71.24,1.43.36,2.15v0h.35a3.53,3.53,0,0,1,3,1.9,3.17,3.17,0,0,1,.36,1.85,3.36,3.36,0,0,1-2,2.76,3.43,3.43,0,0,1-2,.34l-.33-.05h0l-.38-.1-.05,0c-.18-.08-.36-.15-.54-.25a3.41,3.41,0,0,1-1.52-1.66,3.23,3.23,0,0,1-.24-1.79l0-.2h-.06l-1.43-.4a.46.46,0,0,1-.29-.24l-.39-.82-1.05-2.16c-.31-.63-.61-1.27-.92-1.9-.06-.11-.11-.23-.17-.35l-.69.92h0l0,0a3.33,3.33,0,0,1,1.12,3.07,3.17,3.17,0,0,1-.41,1.15,3.5,3.5,0,0,1-2.18,1.64,3.61,3.61,0,0,1-1.5.08l-.23,0-.39-.11,0,0a4.46,4.46,0,0,1-.5-.22,3.42,3.42,0,0,1-1.74-2.18,3.38,3.38,0,0,1-.06-1.38c0-.07,0-.15,0-.23Zm5.29-.84,0,0-1.16,1.55-.41.55a.39.39,0,0,1-.49.1.34.34,0,0,1-.08-.52l1.57-2.09,0,0a2.89,2.89,0,0,0-3.7.88,2.67,2.67,0,0,0,.71,3.74,2.9,2.9,0,0,0,3.91-.59A2.65,2.65,0,0,0,332.05,273.9Zm6.16,4.57a2.67,2.67,0,0,0,1.32,2.8,2.9,2.9,0,0,0,3.47-.42,2.66,2.66,0,0,0,.42-3.32,2.8,2.8,0,0,0-2.5-1.31c0,.16.05.33.08.49.12.7.23,1.41.35,2.11a.41.41,0,0,1,0,.22.38.38,0,0,1-.45.18l-2.61-.73Zm-4.55-6.72,2.49,5.13,3.23-3.52Zm6.43,3.85L339.8,274l-3.09,3.36,1,.28A3.6,3.6,0,0,1,340.09,275.6Zm-1.67,2.19,2.13.6-.35-2.08A2.84,2.84,0,0,0,338.42,277.79Z" transform="translate(-128.89 -70.99)"/><path class="cls-18" d="M332.42,254.57l.06-.21a3.34,3.34,0,0,1,.72-1.3,3.53,3.53,0,0,1,2.46-1.19,3.41,3.41,0,0,1,1.58.24s.05,0,.07,0l1.89-3.36a1.12,1.12,0,0,1,1-.58h.14l1.22.18h0l-.11.69h-.06l-1.14-.17a.37.37,0,0,0-.44.22l-.57,1s0,0,0,.05h.05l5.88.88s.05,0,.07,0l.39-.55,0,0h-.05l-1-.15a.36.36,0,0,1-.3-.27.35.35,0,0,1,.16-.37.4.4,0,0,1,.26,0l2.67.4h.05l-.11.69h-.06l-.79-.12s-.05,0-.07,0c-.2.3-.41.59-.62.89a.07.07,0,0,0,0,.06c.21.7.42,1.4.64,2.09v0l.34,0a3.35,3.35,0,0,1,1.22.1,3.49,3.49,0,0,1,2.06,1.41,3.23,3.23,0,0,1,.6,1.79,3.35,3.35,0,0,1-1.58,3,3.55,3.55,0,0,1-2,.59l-.33,0h-.05l-.39-.06-.05,0c-.18-.06-.38-.1-.56-.17A3.5,3.5,0,0,1,344,258.7a3.21,3.21,0,0,1-.48-1.75v-.2h-.06l-1.47-.22a.39.39,0,0,1-.31-.2l-.51-.76-1.32-2-1.17-1.77-.21-.33-.57,1h0l0,0a3.36,3.36,0,0,1,1.52,2.9,3.25,3.25,0,0,1-.25,1.19,3.47,3.47,0,0,1-2,1.9,3.53,3.53,0,0,1-1.48.26h-.23l-.4-.06h0c-.18-.06-.36-.09-.53-.16a3.51,3.51,0,0,1-2-1.95,3.14,3.14,0,0,1-.24-1.35c0-.08,0-.16,0-.24Zm5.13-1.48,0,0-.95,1.68c-.11.2-.22.4-.34.6a.36.36,0,0,1-.46.16.34.34,0,0,1-.16-.5c.43-.76.86-1.51,1.28-2.27l0-.05a2.88,2.88,0,0,0-3.55,1.34,2.67,2.67,0,0,0,1.2,3.62,2.87,2.87,0,0,0,3.79-1.07A2.64,2.64,0,0,0,337.55,253.09Zm6.72,3.77a2.71,2.71,0,0,0,1.69,2.62,2.9,2.9,0,0,0,3.38-.85,2.65,2.65,0,0,0,0-3.34,2.82,2.82,0,0,0-2.65-1l.15.48.63,2a.33.33,0,0,1,0,.22.37.37,0,0,1-.42.23l-2.69-.4Zm-5.4-6.1,3.15,4.78,2.74-3.9Zm6.88,3-.5-1.6-2.62,3.72,1,.15A3.53,3.53,0,0,1,345.75,253.78Zm-1.36,2.38,2.2.33-.63-2A2.81,2.81,0,0,0,344.39,256.16Z" transform="translate(-128.89 -70.99)"/><path class="cls-18" d="M291.44,322c0-.08,0-.15,0-.23a3.3,3.3,0,0,1,.51-1.38,3.5,3.5,0,0,1,2.24-1.55,3.6,3.6,0,0,1,1.6,0s.05,0,.06,0l1.34-3.59a1.09,1.09,0,0,1,.88-.72l.14,0h1.27v.7h-1.22a.37.37,0,0,0-.4.28c-.13.35-.27.71-.4,1.07a.2.2,0,0,0,0,0h6s.06,0,.07,0l.3-.6s0,0,0-.05h-1.06a.38.38,0,0,1-.34-.22.35.35,0,0,1,.09-.39.41.41,0,0,1,.26-.09h2.75v.7h-.86a.05.05,0,0,0-.06,0l-.48,1a.06.06,0,0,0,0,.06c.32.66.65,1.32,1,2v0l.33-.09a3.6,3.6,0,0,1,3.48,1,3.23,3.23,0,0,1,.88,1.68,3.3,3.3,0,0,1-1.08,3.17,3.46,3.46,0,0,1-1.85.87l-.33,0h-.49a5.81,5.81,0,0,1-.58-.09,3.53,3.53,0,0,1-1.95-1.18,3.35,3.35,0,0,1-.75-1.66l0-.2h-1.55a.4.4,0,0,1-.34-.15l-.62-.67-1.63-1.8-1.43-1.57-.27-.29-.39,1.06h0l0,0a3.41,3.41,0,0,1,2,2.64,3.09,3.09,0,0,1-.06,1.21,3.56,3.56,0,0,1-3,2.64l-.23,0h-.45c-.18,0-.37,0-.55-.08a3.48,3.48,0,0,1-2.29-1.63,3.17,3.17,0,0,1-.46-1.3c0-.08,0-.15,0-.23Zm4.83-2.23,0,.05-.66,1.79-.24.65a.36.36,0,0,1-.44.22.34.34,0,0,1-.23-.47l.9-2.43,0,0a2.83,2.83,0,0,0-3.29,1.85,2.69,2.69,0,0,0,1.76,3.39,2.85,2.85,0,0,0,3.58-1.61A2.67,2.67,0,0,0,296.27,319.78Zm7.24,2.73a2.76,2.76,0,0,0,2.08,2.34,2.88,2.88,0,0,0,3.21-1.34,2.66,2.66,0,0,0-.56-3.3,2.84,2.84,0,0,0-2.78-.59l.22.45c.32.64.63,1.29.95,1.93a.34.34,0,0,1,0,.22.36.36,0,0,1-.38.29h-2.78Zm-6.31-5.23,3.87,4.26,2.09-4.26Zm7.28,2-.75-1.51-2,4.06h1A3.48,3.48,0,0,1,304.48,319.25Zm-1,2.55h2.22l-.94-1.9A2.74,2.74,0,0,0,303.52,321.8Z" transform="translate(-128.89 -70.99)"/><path class="cls-18" d="M324.12,312.56a1.8,1.8,0,0,1,.08-.21,3.34,3.34,0,0,1,.84-1.22,3.58,3.58,0,0,1,2.57-1,3.49,3.49,0,0,1,1.55.39s0,0,.07,0l2.22-3.17a1.11,1.11,0,0,1,1-.48l.13,0,1.2.29h0l-.18.67h-.06l-1.11-.27a.37.37,0,0,0-.47.17l-.66.94,0,0h0l5.76,1.42s0,0,.07,0l.45-.51,0-.05h0l-1-.24a.36.36,0,0,1-.27-.3.35.35,0,0,1,.19-.35.37.37,0,0,1,.27,0l2.62.64,0,0-.18.67h-.05l-.77-.19a.06.06,0,0,0-.07,0l-.72.83a.07.07,0,0,0,0,.06c.14.71.29,1.43.43,2.14v0h.34a3.48,3.48,0,0,1,1.2.21,3.44,3.44,0,0,1,1.91,1.6,3.13,3.13,0,0,1,.42,1.84,3.33,3.33,0,0,1-1.86,2.81,3.5,3.5,0,0,1-2,.41l-.33-.05h0l-.39-.09,0,0c-.19-.08-.37-.14-.55-.23a3.43,3.43,0,0,1-1.58-1.61,3.25,3.25,0,0,1-.3-1.79,1.37,1.37,0,0,1,0-.19l-.06,0-1.44-.35a.42.42,0,0,1-.29-.23l-.43-.8-1.12-2.13c-.33-.62-.66-1.24-1-1.87l-.19-.34-.66.94h0l0,0a3.35,3.35,0,0,1,1.22,3,3.16,3.16,0,0,1-.37,1.16,3.47,3.47,0,0,1-2.12,1.71,3.62,3.62,0,0,1-1.5.13l-.23,0-.39-.09-.05,0a4.4,4.4,0,0,1-.5-.21,3.4,3.4,0,0,1-1.81-2.12,3.18,3.18,0,0,1-.11-1.37,1.57,1.57,0,0,1,0-.23Zm5.25-1,0,0-1.11,1.58-.39.57a.36.36,0,0,1-.48.11.33.33,0,0,1-.1-.51l1.49-2.14,0,0a2.87,2.87,0,0,0-3.66,1,2.65,2.65,0,0,0,.84,3.71,2.88,2.88,0,0,0,3.88-.71A2.65,2.65,0,0,0,329.37,311.55Zm6.31,4.38a2.69,2.69,0,0,0,1.43,2.75,2.88,2.88,0,0,0,3.45-.53,2.66,2.66,0,0,0,.3-3.33,2.81,2.81,0,0,0-2.54-1.23c0,.16.06.32.1.49l.42,2.1a.26.26,0,0,1,0,.21.36.36,0,0,1-.44.2l-2.63-.65Zm-4.77-6.57,2.67,5,3.11-3.62Zm6.56,3.64-.34-1.65-3,3.47,1,.24A3.57,3.57,0,0,1,337.47,313Zm-1.59,2.24,2.15.53-.42-2.07A2.82,2.82,0,0,0,335.88,315.24Z" transform="translate(-128.89 -70.99)"/><path class="cls-18" d="M270.39,303.18l0-.22a3.33,3.33,0,0,1,.5-1.39,3.55,3.55,0,0,1,2.24-1.54,3.46,3.46,0,0,1,1.6,0s.06,0,.07,0c.44-1.2.89-2.4,1.34-3.6a1.08,1.08,0,0,1,.88-.72h1.4v.7h-1.21a.37.37,0,0,0-.41.27l-.39,1.07s0,0,0,.05h6a.08.08,0,0,0,.07,0c.09-.2.19-.4.29-.6l0-.06h-1.07a.34.34,0,0,1-.33-.22.34.34,0,0,1,.09-.39.38.38,0,0,1,.25-.09h2.75v.7h-.85a.07.07,0,0,0-.07,0c-.15.33-.31.65-.47,1a.06.06,0,0,0,0,.06l1,2,0,0,.33-.09a3.29,3.29,0,0,1,1.21-.08,3.59,3.59,0,0,1,2.27,1.09,3.18,3.18,0,0,1,.87,1.68,3.29,3.29,0,0,1-1.08,3.18,3.5,3.5,0,0,1-1.85.87l-.32,0H285a5.59,5.59,0,0,1-.59-.08,3.52,3.52,0,0,1-1.94-1.19,3.33,3.33,0,0,1-.76-1.66,1.23,1.23,0,0,0,0-.19h-1.55a.47.47,0,0,1-.35-.15l-.61-.68-1.64-1.8-1.42-1.57-.27-.29-.4,1.07h0l.05,0a3.39,3.39,0,0,1,1.95,2.64,2.9,2.9,0,0,1-.06,1.21,3.4,3.4,0,0,1-1.61,2.17,3.57,3.57,0,0,1-1.42.48l-.24,0h-.45a5,5,0,0,1-.54-.07,3.55,3.55,0,0,1-2.3-1.63,3.2,3.2,0,0,1-.45-1.3l0-.24Zm4.84-2.23,0,.05c-.23.6-.45,1.2-.67,1.8l-.24.64a.35.35,0,0,1-.44.22.34.34,0,0,1-.22-.47l.9-2.43a.43.43,0,0,0,0-.05,2.84,2.84,0,0,0-3.29,1.85A2.71,2.71,0,0,0,273,306a2.86,2.86,0,0,0,3.58-1.62A2.67,2.67,0,0,0,275.23,301Zm7.23,2.74a2.75,2.75,0,0,0,2.09,2.33,2.86,2.86,0,0,0,3.21-1.34,2.67,2.67,0,0,0-.56-3.3,2.89,2.89,0,0,0-2.78-.59c.07.15.14.3.22.45.31.65.63,1.29.95,1.94a.3.3,0,0,1,0,.21.36.36,0,0,1-.37.3h-2.79Zm-6.3-5.23,3.87,4.25,2.09-4.25Zm7.28,2-.75-1.51-2,4.07h1A3.49,3.49,0,0,1,283.44,300.42Zm-1,2.56h2.22l-.93-1.91A2.75,2.75,0,0,0,282.47,303Z" transform="translate(-128.89 -70.99)"/><path class="cls-18" d="M269.75,241.2l0-.22a3.2,3.2,0,0,1,.5-1.39,3.52,3.52,0,0,1,2.24-1.54,3.46,3.46,0,0,1,1.6,0s.05,0,.07,0l1.33-3.6a1.09,1.09,0,0,1,.89-.72h1.4v.7H276.6a.38.38,0,0,0-.41.27c-.13.36-.26.71-.4,1.07a.43.43,0,0,0,0,.05h6s.06,0,.07,0l.3-.6a.33.33,0,0,0,0-.06H281.1a.34.34,0,0,1-.25-.6.37.37,0,0,1,.26-.1h2.75v.7H283s0,0-.06,0l-.48,1s0,0,0,.06c.32.65.65,1.31,1,2l0,0,.33-.1A3.78,3.78,0,0,1,285,238a3.54,3.54,0,0,1,2.26,1.09,3.26,3.26,0,0,1,.88,1.68,3.32,3.32,0,0,1-1.08,3.18,3.5,3.5,0,0,1-1.85.87l-.33,0h-.49a5.77,5.77,0,0,1-.58-.08,3.43,3.43,0,0,1-1.94-1.19,3.33,3.33,0,0,1-.76-1.66l0-.19h-1.54a.45.45,0,0,1-.35-.15l-.61-.68-1.64-1.8-1.43-1.57-.26-.29-.4,1.07h0l0,0a3.41,3.41,0,0,1,2,2.64,3.13,3.13,0,0,1-.06,1.22,3.39,3.39,0,0,1-1.62,2.16,3.52,3.52,0,0,1-1.42.48l-.23,0h-.45a5.17,5.17,0,0,1-.55-.07,3.53,3.53,0,0,1-2.29-1.63,3.06,3.06,0,0,1-.45-1.3l0-.24Zm4.83-2.23a.08.08,0,0,1,0,.05l-.66,1.8-.24.64a.37.37,0,0,1-.44.23.34.34,0,0,1-.23-.47l.9-2.44a.08.08,0,0,0,0-.05,2.83,2.83,0,0,0-3.29,1.85,2.7,2.7,0,0,0,1.76,3.4,2.85,2.85,0,0,0,3.58-1.62A2.68,2.68,0,0,0,274.58,239Zm7.24,2.74a2.75,2.75,0,0,0,2.09,2.33,2.87,2.87,0,0,0,3.21-1.34,2.69,2.69,0,0,0-.56-3.3,2.9,2.9,0,0,0-2.79-.59c.08.15.15.3.22.45.32.65.64,1.29.95,1.94a.27.27,0,0,1,0,.21.36.36,0,0,1-.37.3h-2.79Zm-6.3-5.23,3.87,4.25,2.09-4.25Zm7.28,2-.75-1.52-2,4.07h1A3.45,3.45,0,0,1,282.8,238.45Zm-1,2.55h2.22l-.94-1.91A2.74,2.74,0,0,0,281.83,241Z" transform="translate(-128.89 -70.99)"/><path class="cls-19" d="M320.88,97.39" transform="translate(-128.89 -70.99)"/><ellipse class="cls-20" cx="132.29" cy="60.68" rx="47.21" ry="60.68"/><rect class="cls-21" x="235.11" y="108.31" width="22.71" height="14.12" rx="4.43" ry="4.43" transform="translate(364.05 159.76) rotate(180)"/><rect class="cls-22" x="264.7" y="108.31" width="22.71" height="14.12" rx="4.43" ry="4.43" transform="translate(423.23 159.76) rotate(180)"/><ellipse class="cls-23" cx="117.58" cy="44.39" rx="2.25" ry="2.8"/><ellipse class="cls-23" cx="147.17" cy="44.39" rx="2.25" ry="2.8"/><path class="cls-24" d="M214.51,120.46l20-33.81s36.65,6.39,50.47,0l21.23,29.82s-5.68-24.9-19.08-35.11c-9.37-7.13-12.15-7.58-13-8.07a5.91,5.91,0,0,0-2.53-.67c-4.62-1.47-20-4.07-35.37,7.12C217.76,93.21,214.51,120.46,214.51,120.46Z" transform="translate(-128.89 -70.99)"/><path class="cls-25" d="M285,86.77l21,29.53s-5.61-24.67-18.89-34.77C285.87,80.57,288.94,83,285,86.77Z" transform="translate(-128.89 -70.99)"/><path class="cls-26" d="M307.39,140.49s-43.78,59.65-94,0c0,0,5.33,50.23,47.21,53C260.57,193.45,300.81,194.83,307.39,140.49Z" transform="translate(-128.89 -70.99)"/><line class="cls-19" x1="119.83" y1="92.2" x2="144.92" y2="92.2"/><path class="cls-27" d="M248.72,163.19a22.94,22.94,0,0,1,6.27-2,35.88,35.88,0,0,1,6.27-.54,34.93,34.93,0,0,1,6.27.53,23,23,0,0,1,6.27,2,22.94,22.94,0,0,1-6.27,2,35.88,35.88,0,0,1-6.27.54,36.89,36.89,0,0,1-6.27-.55A23.26,23.26,0,0,1,248.72,163.19Z" transform="translate(-128.89 -70.99)"/><line class="cls-19" x1="118.46" y1="92.2" x2="146.53" y2="92.2"/><path class="cls-28" d="M247.35,163.19c2.34-.16,4.68-.23,7-.29s4.68-.06,7-.09,4.67,0,7,.09,4.68.13,7,.29c-2.34.15-4.68.22-7,.28s-4.67.06-7,.09-4.68,0-7-.09S249.69,163.34,247.35,163.19Z" transform="translate(-128.89 -70.99)"/><polyline class="cls-29" points="137.64 74.85 132.85 76.32 127.1 74.64 131.84 52.5"/><polyline class="cls-30" points="132.85 76.32 127.1 74.64 131.84 52.5"/><path class="cls-20" d="M264.05,115.21s-2.43-3.19-5.57,0" transform="translate(-128.89 -70.99)"/><path class="cls-31" d="M264,115.24a8.68,8.68,0,0,0-2.72-.54,5.46,5.46,0,0,0-1.2.15c-.23.05-.46.13-.73.19a5.09,5.09,0,0,1-.85.2l-.07-.07.6-.55a7.92,7.92,0,0,1,.67-.46,3.41,3.41,0,0,1,1.56-.46,3.73,3.73,0,0,1,2.82,1.48Z" transform="translate(-128.89 -70.99)"/><ellipse class="cls-32" cx="147.17" cy="44.39" rx="1.15" ry="1.43"/><ellipse class="cls-32" cx="117.58" cy="44.39" rx="1.15" ry="1.43"/><path class="cls-33" d="M213.36,140.49s12.2,37.25,29,46.84C242.34,187.33,222.84,184.54,213.36,140.49Z" transform="translate(-128.89 -70.99)"/></svg>